<?xml version="1.0" encoding="UTF-8" standalone="no"?>
<svg width="35.2778mm" height="45.8611mm"
 xmlns="http://www.w3.org/2000/svg" xmlns:xlink="http://www.w3.org/1999/xlink"  version="1.2" baseProfile="tiny">
<title>Qt SVG Document</title>
<desc>Generated with Qt</desc>
<defs>
</defs>
<g fill="none" stroke="black" stroke-width="1" fill-rule="evenodd" stroke-linecap="square" stroke-linejoin="bevel" >

<g fill="#c0c0c0" fill-opacity="1" stroke="none" transform="matrix(1,0,0,1,0,0)"
font-family="Noto Sans" font-size="10" font-weight="400" font-style="normal" 
>
<path vector-effect="none" fill-rule="evenodd" d="M1,6 C1,3.23858 3.23858,1 6,1 L95,1 C97.7614,1 100,3.23858 100,6 L100,125 C100,127.761 97.7614,130 95,130 L6,130 C3.23858,130 1,127.761 1,125 L1,6"/>
</g>

<g fill="none" stroke="#000000" stroke-opacity="1" stroke-width="2" stroke-linecap="square" stroke-linejoin="bevel" transform="matrix(1,0,0,1,0,0)"
font-family="Noto Sans" font-size="10" font-weight="400" font-style="normal" 
>
<path vector-effect="none" fill-rule="evenodd" d="M1,6 C1,3.23858 3.23858,1 6,1 L95,1 C97.7614,1 100,3.23858 100,6 L100,125 C100,127.761 97.7614,130 95,130 L6,130 C3.23858,130 1,127.761 1,125 L1,6"/>
</g>

<g fill="none" stroke="#000000" stroke-opacity="1" stroke-width="2" stroke-linecap="square" stroke-linejoin="bevel" transform="matrix(1,0,0,1,0,0)"
font-family="Noto Sans CJK JP" font-size="90" font-weight="400" font-style="normal" 
>
<path vector-effect="none" fill-rule="evenodd" d="M56.2031,59.2969 L56.2031,47.2188 C56.2031,44.5156 56.4844,40 56.75,38.2031 L47.8438,38.2031 C48.2813,40 48.6406,44.4219 48.6406,47.125 L48.6406,59.2969 L22.0938,59.2969 C18.8594,59.2969 15.625,59.0156 13.8125,58.8438 L13.8125,66.5781 C15.625,66.4063 18.8594,66.3125 22.2813,66.3125 L48.6406,66.3125 C48.5625,84.875 41.1719,98.1094 24.2656,106.125 L31.2813,111.344 C49.4531,100.719 56.2031,86.125 56.2031,66.3125 L80.0625,66.3125 C82.8438,66.3125 86.5313,66.4063 87.9844,66.5781 L87.9844,58.9375 C86.5313,59.1094 83.1094,59.2969 80.1406,59.2969 L56.2031,59.2969"/>
</g>

<g fill="#000000" fill-opacity="1" stroke="none" transform="matrix(1,0,0,1,0,0)"
font-family="Noto Sans CJK JP" font-size="90" font-weight="400" font-style="normal" 
>
<path vector-effect="none" fill-rule="evenodd" d="M56.2031,59.2969 L56.2031,47.2188 C56.2031,44.5156 56.4844,40 56.75,38.2031 L47.8438,38.2031 C48.2813,40 48.6406,44.4219 48.6406,47.125 L48.6406,59.2969 L22.0938,59.2969 C18.8594,59.2969 15.625,59.0156 13.8125,58.8438 L13.8125,66.5781 C15.625,66.4063 18.8594,66.3125 22.2813,66.3125 L48.6406,66.3125 C48.5625,84.875 41.1719,98.1094 24.2656,106.125 L31.2813,111.344 C49.4531,100.719 56.2031,86.125 56.2031,66.3125 L80.0625,66.3125 C82.8438,66.3125 86.5313,66.4063 87.9844,66.5781 L87.9844,58.9375 C86.5313,59.1094 83.1094,59.2969 80.1406,59.2969 L56.2031,59.2969"/>
</g>
</g>
</svg>
