<?xml version="1.0" encoding="UTF-8" standalone="no"?>
<svg width="35.2778mm" height="45.8611mm"
 xmlns="http://www.w3.org/2000/svg" xmlns:xlink="http://www.w3.org/1999/xlink"  version="1.2" baseProfile="tiny">
<title>Qt SVG Document</title>
<desc>Generated with Qt</desc>
<defs>
</defs>
<g fill="none" stroke="black" stroke-width="1" fill-rule="evenodd" stroke-linecap="square" stroke-linejoin="bevel" >

<g fill="#c0c0c0" fill-opacity="1" stroke="none" transform="matrix(1,0,0,1,0,0)"
font-family="Noto Sans" font-size="10" font-weight="400" font-style="normal" 
>
<path vector-effect="none" fill-rule="evenodd" d="M1,6 C1,3.23858 3.23858,1 6,1 L95,1 C97.7614,1 100,3.23858 100,6 L100,125 C100,127.761 97.7614,130 95,130 L6,130 C3.23858,130 1,127.761 1,125 L1,6"/>
</g>

<g fill="none" stroke="#000000" stroke-opacity="1" stroke-width="2" stroke-linecap="square" stroke-linejoin="bevel" transform="matrix(1,0,0,1,0,0)"
font-family="Noto Sans" font-size="10" font-weight="400" font-style="normal" 
>
<path vector-effect="none" fill-rule="evenodd" d="M1,6 C1,3.23858 3.23858,1 6,1 L95,1 C97.7614,1 100,3.23858 100,6 L100,125 C100,127.761 97.7614,130 95,130 L6,130 C3.23858,130 1,127.761 1,125 L1,6"/>
</g>

<g fill="none" stroke="#000000" stroke-opacity="1" stroke-width="2" stroke-linecap="square" stroke-linejoin="bevel" transform="matrix(1,0,0,1,0,0)"
font-family="Noto Sans CJK JP" font-size="90" font-weight="400" font-style="normal" 
>
<path vector-effect="none" fill-rule="evenodd" d="M13.0156,48.1406 L13.8125,56.0469 C23.4531,54.0781 47.75,51.7344 55.5781,50.8281 C47.3906,55.6875 39.0156,66.9375 39.0156,80.8906 C39.0156,100.781 57.8281,109.594 74.2969,110.234 L76.9063,102.766 C62.4219,102.219 46.2188,96.7344 46.2188,79.2656 C46.2188,68.75 53.875,55.25 66.5625,51.1875 C71.1406,49.8438 78.9844,49.75 84.0156,49.75 L84.0156,42.5469 C78.0781,42.8281 69.7031,43.2656 59.9844,44.0781 C43.6094,45.4375 26.7813,47.1406 20.9219,47.6875 C19.2188,47.8594 16.4219,48.0469 13.0156,48.1406 "/>
</g>

<g fill="#000000" fill-opacity="1" stroke="none" transform="matrix(1,0,0,1,0,0)"
font-family="Noto Sans CJK JP" font-size="90" font-weight="400" font-style="normal" 
>
<path vector-effect="none" fill-rule="evenodd" d="M13.0156,48.1406 L13.8125,56.0469 C23.4531,54.0781 47.75,51.7344 55.5781,50.8281 C47.3906,55.6875 39.0156,66.9375 39.0156,80.8906 C39.0156,100.781 57.8281,109.594 74.2969,110.234 L76.9063,102.766 C62.4219,102.219 46.2188,96.7344 46.2188,79.2656 C46.2188,68.75 53.875,55.25 66.5625,51.1875 C71.1406,49.8438 78.9844,49.75 84.0156,49.75 L84.0156,42.5469 C78.0781,42.8281 69.7031,43.2656 59.9844,44.0781 C43.6094,45.4375 26.7813,47.1406 20.9219,47.6875 C19.2188,47.8594 16.4219,48.0469 13.0156,48.1406 "/>
</g>
</g>
</svg>
