<?xml version="1.0" encoding="UTF-8" standalone="no"?>
<svg width="35.2778mm" height="45.8611mm"
 xmlns="http://www.w3.org/2000/svg" xmlns:xlink="http://www.w3.org/1999/xlink"  version="1.2" baseProfile="tiny">
<title>Qt SVG Document</title>
<desc>Generated with Qt</desc>
<defs>
</defs>
<g fill="none" stroke="black" stroke-width="1" fill-rule="evenodd" stroke-linecap="square" stroke-linejoin="bevel" >

<g fill="#c0c0c0" fill-opacity="1" stroke="none" transform="matrix(1,0,0,1,0,0)"
font-family="Noto Sans" font-size="10" font-weight="400" font-style="normal" 
>
<path vector-effect="none" fill-rule="evenodd" d="M1,6 C1,3.23858 3.23858,1 6,1 L95,1 C97.7614,1 100,3.23858 100,6 L100,125 C100,127.761 97.7614,130 95,130 L6,130 C3.23858,130 1,127.761 1,125 L1,6"/>
</g>

<g fill="none" stroke="#000000" stroke-opacity="1" stroke-width="2" stroke-linecap="square" stroke-linejoin="bevel" transform="matrix(1,0,0,1,0,0)"
font-family="Noto Sans" font-size="10" font-weight="400" font-style="normal" 
>
<path vector-effect="none" fill-rule="evenodd" d="M1,6 C1,3.23858 3.23858,1 6,1 L95,1 C97.7614,1 100,3.23858 100,6 L100,125 C100,127.761 97.7614,130 95,130 L6,130 C3.23858,130 1,127.761 1,125 L1,6"/>
</g>

<g fill="none" stroke="#000000" stroke-opacity="1" stroke-width="2" stroke-linecap="square" stroke-linejoin="bevel" transform="matrix(1,0,0,1,0,0)"
font-family="Noto Sans CJK JP" font-size="90" font-weight="400" font-style="normal" 
>
<path vector-effect="none" fill-rule="evenodd" d="M72.3125,47.7344 C70.4219,49.3594 68.5313,50.5313 65.9219,51.9688 C61.0625,54.7656 51.4375,59.4531 43.0625,64.4844 C39.2031,57.4688 34.7031,47.8281 31.0938,38.1094 L23.9844,40.9844 C28.125,50.7188 32.8125,61.1563 36.9531,68.4531 C27.4063,75.1094 21.5625,82.4063 21.5625,91.5938 C21.5625,104.922 33.7031,109.953 50.4531,109.953 C61.6094,109.953 71.875,108.969 78.6094,107.797 L78.6094,99.7031 C71.6875,101.5 59.8125,102.766 50.0938,102.766 C36.0469,102.766 29.0313,98.1719 29.0313,90.7813 C29.0313,84.0313 33.9844,78.1719 42.2656,72.7813 C50.9844,67.0156 63.4063,61.1563 69.3438,58.0938 C71.9531,56.75 74.2031,55.5781 76.1875,54.3125 L72.3125,47.7344"/>
</g>

<g fill="#000000" fill-opacity="1" stroke="none" transform="matrix(1,0,0,1,0,0)"
font-family="Noto Sans CJK JP" font-size="90" font-weight="400" font-style="normal" 
>
<path vector-effect="none" fill-rule="evenodd" d="M72.3125,47.7344 C70.4219,49.3594 68.5313,50.5313 65.9219,51.9688 C61.0625,54.7656 51.4375,59.4531 43.0625,64.4844 C39.2031,57.4688 34.7031,47.8281 31.0938,38.1094 L23.9844,40.9844 C28.125,50.7188 32.8125,61.1563 36.9531,68.4531 C27.4063,75.1094 21.5625,82.4063 21.5625,91.5938 C21.5625,104.922 33.7031,109.953 50.4531,109.953 C61.6094,109.953 71.875,108.969 78.6094,107.797 L78.6094,99.7031 C71.6875,101.5 59.8125,102.766 50.0938,102.766 C36.0469,102.766 29.0313,98.1719 29.0313,90.7813 C29.0313,84.0313 33.9844,78.1719 42.2656,72.7813 C50.9844,67.0156 63.4063,61.1563 69.3438,58.0938 C71.9531,56.75 74.2031,55.5781 76.1875,54.3125 L72.3125,47.7344"/>
</g>
</g>
</svg>
