<?xml version="1.0" encoding="UTF-8" standalone="no"?>
<svg width="35.2778mm" height="45.8611mm"
 xmlns="http://www.w3.org/2000/svg" xmlns:xlink="http://www.w3.org/1999/xlink"  version="1.2" baseProfile="tiny">
<title>Qt SVG Document</title>
<desc>Generated with Qt</desc>
<defs>
</defs>
<g fill="none" stroke="black" stroke-width="1" fill-rule="evenodd" stroke-linecap="square" stroke-linejoin="bevel" >

<g fill="#c0c0c0" fill-opacity="1" stroke="none" transform="matrix(1,0,0,1,0,0)"
font-family="Noto Sans" font-size="10" font-weight="400" font-style="normal" 
>
<path vector-effect="none" fill-rule="evenodd" d="M1,6 C1,3.23858 3.23858,1 6,1 L95,1 C97.7614,1 100,3.23858 100,6 L100,125 C100,127.761 97.7614,130 95,130 L6,130 C3.23858,130 1,127.761 1,125 L1,6"/>
</g>

<g fill="none" stroke="#000000" stroke-opacity="1" stroke-width="2" stroke-linecap="square" stroke-linejoin="bevel" transform="matrix(1,0,0,1,0,0)"
font-family="Noto Sans" font-size="10" font-weight="400" font-style="normal" 
>
<path vector-effect="none" fill-rule="evenodd" d="M1,6 C1,3.23858 3.23858,1 6,1 L95,1 C97.7614,1 100,3.23858 100,6 L100,125 C100,127.761 97.7614,130 95,130 L6,130 C3.23858,130 1,127.761 1,125 L1,6"/>
</g>

<g fill="none" stroke="#000000" stroke-opacity="1" stroke-width="2" stroke-linecap="square" stroke-linejoin="bevel" transform="matrix(1,0,0,1,0,0)"
font-family="Noto Sans CJK JP" font-size="90" font-weight="400" font-style="normal" 
>
<path vector-effect="none" fill-rule="evenodd" d="M63.6719,100.156 L63.9531,100.156 L64.6719,107.891 L71.4219,107.891 L71.4219,58.8438 L63.2344,58.8438 L63.2344,93.5781 C57.8281,99.25 53.1406,101.859 47.4844,101.859 C40.0938,101.859 36.1406,98.0781 36.1406,88.8125 L36.1406,58.8438 L27.8594,58.8438 L27.8594,89.8906 C27.8594,102.406 33.625,109.063 44.5156,109.063 C52.4219,109.063 58.375,105.453 63.6719,100.156 "/>
</g>

<g fill="#000000" fill-opacity="1" stroke="none" transform="matrix(1,0,0,1,0,0)"
font-family="Noto Sans CJK JP" font-size="90" font-weight="400" font-style="normal" 
>
<path vector-effect="none" fill-rule="evenodd" d="M63.6719,100.156 L63.9531,100.156 L64.6719,107.891 L71.4219,107.891 L71.4219,58.8438 L63.2344,58.8438 L63.2344,93.5781 C57.8281,99.25 53.1406,101.859 47.4844,101.859 C40.0938,101.859 36.1406,98.0781 36.1406,88.8125 L36.1406,58.8438 L27.8594,58.8438 L27.8594,89.8906 C27.8594,102.406 33.625,109.063 44.5156,109.063 C52.4219,109.063 58.375,105.453 63.6719,100.156 "/>
</g>
</g>
</svg>
