<?xml version="1.0" encoding="UTF-8" standalone="no"?>
<svg width="35.2778mm" height="45.8611mm"
 xmlns="http://www.w3.org/2000/svg" xmlns:xlink="http://www.w3.org/1999/xlink"  version="1.2" baseProfile="tiny">
<title>Qt SVG Document</title>
<desc>Generated with Qt</desc>
<defs>
</defs>
<g fill="none" stroke="black" stroke-width="1" fill-rule="evenodd" stroke-linecap="square" stroke-linejoin="bevel" >

<g fill="#c0c0c0" fill-opacity="1" stroke="none" transform="matrix(1,0,0,1,0,0)"
font-family="Noto Sans" font-size="10" font-weight="400" font-style="normal" 
>
<path vector-effect="none" fill-rule="evenodd" d="M1,6 C1,3.23858 3.23858,1 6,1 L95,1 C97.7614,1 100,3.23858 100,6 L100,125 C100,127.761 97.7614,130 95,130 L6,130 C3.23858,130 1,127.761 1,125 L1,6"/>
</g>

<g fill="none" stroke="#000000" stroke-opacity="1" stroke-width="2" stroke-linecap="square" stroke-linejoin="bevel" transform="matrix(1,0,0,1,0,0)"
font-family="Noto Sans" font-size="10" font-weight="400" font-style="normal" 
>
<path vector-effect="none" fill-rule="evenodd" d="M1,6 C1,3.23858 3.23858,1 6,1 L95,1 C97.7614,1 100,3.23858 100,6 L100,125 C100,127.761 97.7614,130 95,130 L6,130 C3.23858,130 1,127.761 1,125 L1,6"/>
</g>

<g fill="none" stroke="#000000" stroke-opacity="1" stroke-width="2" stroke-linecap="square" stroke-linejoin="bevel" transform="matrix(1,0,0,1,0,0)"
font-family="Noto Sans CJK JP" font-size="90" font-weight="400" font-style="normal" 
>
<path vector-effect="none" fill-rule="evenodd" d="M69.5313,77.75 C69.5313,93.7813 54.2344,102.25 32.625,104.953 L36.8594,111.797 C59.9844,108.375 77.1719,97.3906 77.1719,78.0156 C77.1719,65.3281 67.7344,58.2188 55.0313,58.2188 C44.875,58.2188 34.7031,61.0938 28.4063,62.5313 C25.7969,63.0781 22.7344,63.6094 20.2969,63.875 L22.5469,72.1719 C24.7031,71.3594 27.3125,70.2813 30.0156,69.5625 C35.3281,68.0313 44.0625,64.9688 54.3125,64.9688 C63.5,64.9688 69.5313,70.2813 69.5313,77.75 M32.1719,37.5938 L31.0156,44.4375 C41.0938,46.25 59.0938,48.0469 68.9844,48.6719 L70.0625,41.75 C61.3438,41.6563 41.9844,39.8438 32.1719,37.5938 "/>
</g>

<g fill="#000000" fill-opacity="1" stroke="none" transform="matrix(1,0,0,1,0,0)"
font-family="Noto Sans CJK JP" font-size="90" font-weight="400" font-style="normal" 
>
<path vector-effect="none" fill-rule="evenodd" d="M69.5313,77.75 C69.5313,93.7813 54.2344,102.25 32.625,104.953 L36.8594,111.797 C59.9844,108.375 77.1719,97.3906 77.1719,78.0156 C77.1719,65.3281 67.7344,58.2188 55.0313,58.2188 C44.875,58.2188 34.7031,61.0938 28.4063,62.5313 C25.7969,63.0781 22.7344,63.6094 20.2969,63.875 L22.5469,72.1719 C24.7031,71.3594 27.3125,70.2813 30.0156,69.5625 C35.3281,68.0313 44.0625,64.9688 54.3125,64.9688 C63.5,64.9688 69.5313,70.2813 69.5313,77.75 M32.1719,37.5938 L31.0156,44.4375 C41.0938,46.25 59.0938,48.0469 68.9844,48.6719 L70.0625,41.75 C61.3438,41.6563 41.9844,39.8438 32.1719,37.5938 "/>
</g>
</g>
</svg>
