<?xml version="1.0" encoding="UTF-8" standalone="no"?>
<svg width="35.2778mm" height="45.8611mm"
 xmlns="http://www.w3.org/2000/svg" xmlns:xlink="http://www.w3.org/1999/xlink"  version="1.2" baseProfile="tiny">
<title>Qt SVG Document</title>
<desc>Generated with Qt</desc>
<defs>
</defs>
<g fill="none" stroke="black" stroke-width="1" fill-rule="evenodd" stroke-linecap="square" stroke-linejoin="bevel" >

<g fill="#c0c0c0" fill-opacity="1" stroke="none" transform="matrix(1,0,0,1,0,0)"
font-family="Noto Sans" font-size="10" font-weight="400" font-style="normal" 
>
<path vector-effect="none" fill-rule="evenodd" d="M1,6 C1,3.23858 3.23858,1 6,1 L95,1 C97.7614,1 100,3.23858 100,6 L100,125 C100,127.761 97.7614,130 95,130 L6,130 C3.23858,130 1,127.761 1,125 L1,6"/>
</g>

<g fill="none" stroke="#000000" stroke-opacity="1" stroke-width="2" stroke-linecap="square" stroke-linejoin="bevel" transform="matrix(1,0,0,1,0,0)"
font-family="Noto Sans" font-size="10" font-weight="400" font-style="normal" 
>
<path vector-effect="none" fill-rule="evenodd" d="M1,6 C1,3.23858 3.23858,1 6,1 L95,1 C97.7614,1 100,3.23858 100,6 L100,125 C100,127.761 97.7614,130 95,130 L6,130 C3.23858,130 1,127.761 1,125 L1,6"/>
</g>

<g fill="none" stroke="#000000" stroke-opacity="1" stroke-width="2" stroke-linecap="square" stroke-linejoin="bevel" transform="matrix(1,0,0,1,0,0)"
font-family="Noto Sans CJK JP" font-size="90" font-weight="400" font-style="normal" 
>
<path vector-effect="none" fill-rule="evenodd" d="M81.9531,74.5938 C81.9531,53.4375 68.8125,40.6563 50,40.6563 C31.1875,40.6563 18.0469,53.4375 18.0469,74.5938 C18.0469,95.7344 31.2813,108.969 50,108.969 C69.1719,108.969 81.9531,95.7344 81.9531,74.5938 M26.5938,74.5938 C26.5938,58.125 35.9531,47.9531 50,47.9531 C64.0313,47.9531 73.3906,58.125 73.3906,74.5938 C73.3906,91.1563 64.0313,101.688 50,101.688 C36.0469,101.688 26.5938,91.1563 26.5938,74.5938 "/>
</g>

<g fill="#000000" fill-opacity="1" stroke="none" transform="matrix(1,0,0,1,0,0)"
font-family="Noto Sans CJK JP" font-size="90" font-weight="400" font-style="normal" 
>
<path vector-effect="none" fill-rule="evenodd" d="M81.9531,74.5938 C81.9531,53.4375 68.8125,40.6563 50,40.6563 C31.1875,40.6563 18.0469,53.4375 18.0469,74.5938 C18.0469,95.7344 31.2813,108.969 50,108.969 C69.1719,108.969 81.9531,95.7344 81.9531,74.5938 M26.5938,74.5938 C26.5938,58.125 35.9531,47.9531 50,47.9531 C64.0313,47.9531 73.3906,58.125 73.3906,74.5938 C73.3906,91.1563 64.0313,101.688 50,101.688 C36.0469,101.688 26.5938,91.1563 26.5938,74.5938 "/>
</g>
</g>
</svg>
