<?xml version="1.0" encoding="UTF-8" standalone="no"?>
<svg width="35.2778mm" height="45.8611mm"
 xmlns="http://www.w3.org/2000/svg" xmlns:xlink="http://www.w3.org/1999/xlink"  version="1.2" baseProfile="tiny">
<title>Qt SVG Document</title>
<desc>Generated with Qt</desc>
<defs>
</defs>
<g fill="none" stroke="black" stroke-width="1" fill-rule="evenodd" stroke-linecap="square" stroke-linejoin="bevel" >

<g fill="#c0c0c0" fill-opacity="1" stroke="none" transform="matrix(1,0,0,1,0,0)"
font-family="Noto Sans" font-size="10" font-weight="400" font-style="normal" 
>
<path vector-effect="none" fill-rule="evenodd" d="M1,6 C1,3.23858 3.23858,1 6,1 L95,1 C97.7614,1 100,3.23858 100,6 L100,125 C100,127.761 97.7614,130 95,130 L6,130 C3.23858,130 1,127.761 1,125 L1,6"/>
</g>

<g fill="none" stroke="#000000" stroke-opacity="1" stroke-width="2" stroke-linecap="square" stroke-linejoin="bevel" transform="matrix(1,0,0,1,0,0)"
font-family="Noto Sans" font-size="10" font-weight="400" font-style="normal" 
>
<path vector-effect="none" fill-rule="evenodd" d="M1,6 C1,3.23858 3.23858,1 6,1 L95,1 C97.7614,1 100,3.23858 100,6 L100,125 C100,127.761 97.7614,130 95,130 L6,130 C3.23858,130 1,127.761 1,125 L1,6"/>
</g>

<g fill="none" stroke="#000000" stroke-opacity="1" stroke-width="2" stroke-linecap="square" stroke-linejoin="bevel" transform="matrix(1,0,0,1,0,0)"
font-family="Noto Sans CJK JP" font-size="90" font-weight="400" font-style="normal" 
>
<path vector-effect="none" fill-rule="evenodd" d="M75.8281,82.6094 C75.8281,68.0156 68.4531,57.8594 53.875,57.8594 C47.2031,57.8594 41,60.8281 35.5938,64.7813 L35.9531,55.9688 L35.9531,36.25 L27.6719,36.25 L27.6719,107.891 L34.25,107.891 L35.0625,102.844 L35.4219,102.844 C40.2813,106.813 46.125,108.969 51.9844,108.969 C65.0313,108.969 75.8281,99.1563 75.8281,82.6094 M35.9531,96.8281 L35.9531,71.4375 C41.3594,67.125 46.7656,64.7813 51.7031,64.7813 C62.6875,64.7813 67.2813,72.3438 67.2813,82.7813 C67.2813,94.75 59.8906,102.125 50.4531,102.125 C46.125,102.125 40.9063,100.594 35.9531,96.8281 "/>
</g>

<g fill="#000000" fill-opacity="1" stroke="none" transform="matrix(1,0,0,1,0,0)"
font-family="Noto Sans CJK JP" font-size="90" font-weight="400" font-style="normal" 
>
<path vector-effect="none" fill-rule="evenodd" d="M75.8281,82.6094 C75.8281,68.0156 68.4531,57.8594 53.875,57.8594 C47.2031,57.8594 41,60.8281 35.5938,64.7813 L35.9531,55.9688 L35.9531,36.25 L27.6719,36.25 L27.6719,107.891 L34.25,107.891 L35.0625,102.844 L35.4219,102.844 C40.2813,106.813 46.125,108.969 51.9844,108.969 C65.0313,108.969 75.8281,99.1563 75.8281,82.6094 M35.9531,96.8281 L35.9531,71.4375 C41.3594,67.125 46.7656,64.7813 51.7031,64.7813 C62.6875,64.7813 67.2813,72.3438 67.2813,82.7813 C67.2813,94.75 59.8906,102.125 50.4531,102.125 C46.125,102.125 40.9063,100.594 35.9531,96.8281 "/>
</g>
</g>
</svg>
