<?xml version="1.0" encoding="UTF-8" standalone="no"?>
<svg width="35.2778mm" height="45.8611mm"
 xmlns="http://www.w3.org/2000/svg" xmlns:xlink="http://www.w3.org/1999/xlink"  version="1.2" baseProfile="tiny">
<title>Qt SVG Document</title>
<desc>Generated with Qt</desc>
<defs>
</defs>
<g fill="none" stroke="black" stroke-width="1" fill-rule="evenodd" stroke-linecap="square" stroke-linejoin="bevel" >

<g fill="#c0c0c0" fill-opacity="1" stroke="none" transform="matrix(1,0,0,1,0,0)"
font-family="Noto Sans" font-size="10" font-weight="400" font-style="normal" 
>
<path vector-effect="none" fill-rule="evenodd" d="M1,6 C1,3.23858 3.23858,1 6,1 L95,1 C97.7614,1 100,3.23858 100,6 L100,125 C100,127.761 97.7614,130 95,130 L6,130 C3.23858,130 1,127.761 1,125 L1,6"/>
</g>

<g fill="none" stroke="#000000" stroke-opacity="1" stroke-width="2" stroke-linecap="square" stroke-linejoin="bevel" transform="matrix(1,0,0,1,0,0)"
font-family="Noto Sans" font-size="10" font-weight="400" font-style="normal" 
>
<path vector-effect="none" fill-rule="evenodd" d="M1,6 C1,3.23858 3.23858,1 6,1 L95,1 C97.7614,1 100,3.23858 100,6 L100,125 C100,127.761 97.7614,130 95,130 L6,130 C3.23858,130 1,127.761 1,125 L1,6"/>
</g>

<g fill="none" stroke="#000000" stroke-opacity="1" stroke-width="2" stroke-linecap="square" stroke-linejoin="bevel" transform="matrix(1,0,0,1,0,0)"
font-family="Noto Sans CJK JP" font-size="90" font-weight="400" font-style="normal" 
>
<path vector-effect="none" fill-rule="evenodd" d="M72.4063,44.1719 C70.9688,44.625 68.625,44.9844 65.6563,44.9844 L30.9219,44.9844 C28.2188,44.9844 23.0938,44.5313 21.8281,44.3594 L21.8281,52.5469 C22.8125,52.4531 27.7656,52.0938 30.9219,52.0938 L66.0156,52.0938 C63.7656,59.4844 57.2031,70.1875 51.0781,77.125 C41.8125,87.4844 28.4844,98.2031 14,103.875 L19.7656,109.906 C33.0781,103.875 45.2344,93.9688 54.8594,83.6094 C64.0313,91.8125 73.5781,102.438 79.6094,110.359 L85.9063,104.875 C80.0625,97.8438 69.0781,86.1406 59.625,78.0313 C66.0156,69.9219 71.6875,59.3906 74.75,51.6406 C75.2813,50.3906 76.4531,48.4063 77,47.6875 L72.4063,44.1719"/>
</g>

<g fill="#000000" fill-opacity="1" stroke="none" transform="matrix(1,0,0,1,0,0)"
font-family="Noto Sans CJK JP" font-size="90" font-weight="400" font-style="normal" 
>
<path vector-effect="none" fill-rule="evenodd" d="M72.4063,44.1719 C70.9688,44.625 68.625,44.9844 65.6563,44.9844 L30.9219,44.9844 C28.2188,44.9844 23.0938,44.5313 21.8281,44.3594 L21.8281,52.5469 C22.8125,52.4531 27.7656,52.0938 30.9219,52.0938 L66.0156,52.0938 C63.7656,59.4844 57.2031,70.1875 51.0781,77.125 C41.8125,87.4844 28.4844,98.2031 14,103.875 L19.7656,109.906 C33.0781,103.875 45.2344,93.9688 54.8594,83.6094 C64.0313,91.8125 73.5781,102.438 79.6094,110.359 L85.9063,104.875 C80.0625,97.8438 69.0781,86.1406 59.625,78.0313 C66.0156,69.9219 71.6875,59.3906 74.75,51.6406 C75.2813,50.3906 76.4531,48.4063 77,47.6875 L72.4063,44.1719"/>
</g>
</g>
</svg>
