<?xml version="1.0" encoding="UTF-8" standalone="no"?>
<svg width="35.2778mm" height="45.8611mm"
 xmlns="http://www.w3.org/2000/svg" xmlns:xlink="http://www.w3.org/1999/xlink"  version="1.2" baseProfile="tiny">
<title>Qt SVG Document</title>
<desc>Generated with Qt</desc>
<defs>
</defs>
<g fill="none" stroke="black" stroke-width="1" fill-rule="evenodd" stroke-linecap="square" stroke-linejoin="bevel" >

<g fill="#c0c0c0" fill-opacity="1" stroke="none" transform="matrix(1,0,0,1,0,0)"
font-family="Noto Sans" font-size="10" font-weight="400" font-style="normal" 
>
<path vector-effect="none" fill-rule="evenodd" d="M1,6 C1,3.23858 3.23858,1 6,1 L95,1 C97.7614,1 100,3.23858 100,6 L100,125 C100,127.761 97.7614,130 95,130 L6,130 C3.23858,130 1,127.761 1,125 L1,6"/>
</g>

<g fill="none" stroke="#000000" stroke-opacity="1" stroke-width="2" stroke-linecap="square" stroke-linejoin="bevel" transform="matrix(1,0,0,1,0,0)"
font-family="Noto Sans" font-size="10" font-weight="400" font-style="normal" 
>
<path vector-effect="none" fill-rule="evenodd" d="M1,6 C1,3.23858 3.23858,1 6,1 L95,1 C97.7614,1 100,3.23858 100,6 L100,125 C100,127.761 97.7614,130 95,130 L6,130 C3.23858,130 1,127.761 1,125 L1,6"/>
</g>

<g fill="none" stroke="#000000" stroke-opacity="1" stroke-width="2" stroke-linecap="square" stroke-linejoin="bevel" transform="matrix(1,0,0,1,0,0)"
font-family="Noto Sans CJK JP" font-size="90" font-weight="400" font-style="normal" 
>
<path vector-effect="none" fill-rule="evenodd" d="M76.5469,37.6094 C71.5,44 62.0625,51.8281 52.875,57.5 C42.9844,63.7031 27.6719,70.5469 12.6563,74.0469 L16.7969,81.0781 C28.5781,77.5625 41,72.3438 50.625,67.0313 L50.625,101.047 C50.625,104.469 50.3594,108.969 50.0938,110.688 L58.9063,110.688 C58.5469,108.875 58.375,104.469 58.375,101.047 L58.375,62.5313 C67.6406,56.6875 76.2813,49.2969 82.4844,43 L76.5469,37.6094"/>
</g>

<g fill="#000000" fill-opacity="1" stroke="none" transform="matrix(1,0,0,1,0,0)"
font-family="Noto Sans CJK JP" font-size="90" font-weight="400" font-style="normal" 
>
<path vector-effect="none" fill-rule="evenodd" d="M76.5469,37.6094 C71.5,44 62.0625,51.8281 52.875,57.5 C42.9844,63.7031 27.6719,70.5469 12.6563,74.0469 L16.7969,81.0781 C28.5781,77.5625 41,72.3438 50.625,67.0313 L50.625,101.047 C50.625,104.469 50.3594,108.969 50.0938,110.688 L58.9063,110.688 C58.5469,108.875 58.375,104.469 58.375,101.047 L58.375,62.5313 C67.6406,56.6875 76.2813,49.2969 82.4844,43 L76.5469,37.6094"/>
</g>
</g>
</svg>
