<?xml version="1.0" encoding="UTF-8" standalone="no"?>
<svg width="35.2778mm" height="45.8611mm"
 xmlns="http://www.w3.org/2000/svg" xmlns:xlink="http://www.w3.org/1999/xlink"  version="1.2" baseProfile="tiny">
<title>Qt SVG Document</title>
<desc>Generated with Qt</desc>
<defs>
</defs>
<g fill="none" stroke="black" stroke-width="1" fill-rule="evenodd" stroke-linecap="square" stroke-linejoin="bevel" >

<g fill="#c0c0c0" fill-opacity="1" stroke="none" transform="matrix(1,0,0,1,0,0)"
font-family="Noto Sans" font-size="10" font-weight="400" font-style="normal" 
>
<path vector-effect="none" fill-rule="evenodd" d="M1,6 C1,3.23858 3.23858,1 6,1 L95,1 C97.7614,1 100,3.23858 100,6 L100,125 C100,127.761 97.7614,130 95,130 L6,130 C3.23858,130 1,127.761 1,125 L1,6"/>
</g>

<g fill="none" stroke="#000000" stroke-opacity="1" stroke-width="2" stroke-linecap="square" stroke-linejoin="bevel" transform="matrix(1,0,0,1,0,0)"
font-family="Noto Sans" font-size="10" font-weight="400" font-style="normal" 
>
<path vector-effect="none" fill-rule="evenodd" d="M1,6 C1,3.23858 3.23858,1 6,1 L95,1 C97.7614,1 100,3.23858 100,6 L100,125 C100,127.761 97.7614,130 95,130 L6,130 C3.23858,130 1,127.761 1,125 L1,6"/>
</g>

<g fill="none" stroke="#000000" stroke-opacity="1" stroke-width="2" stroke-linecap="square" stroke-linejoin="bevel" transform="matrix(1,0,0,1,0,0)"
font-family="Noto Sans CJK JP" font-size="90" font-weight="400" font-style="normal" 
>
<path vector-effect="none" fill-rule="evenodd" d="M26.1563,107.797 C26.1563,116.438 34.7813,121.391 49.6406,121.391 C66.2031,121.391 76.7344,113.469 76.7344,104.375 C76.7344,96.1875 70.7813,92.8594 58.1875,92.8594 L46.2188,92.8594 C39.8281,92.8594 36.1406,91.1563 36.1406,87.1875 C36.1406,84.9375 37.5781,83.1406 40.0156,81.5156 C42.9844,82.875 46.3125,83.4063 49.1875,83.4063 C60.1719,83.4063 68.8125,77.0156 68.8125,66.4844 C68.8125,62.1719 66.7344,58.5781 64.0313,56.2344 L76.9063,56.2344 L76.9063,49.9375 L56.9219,49.9375 C54.6719,49.125 52.1563,48.8594 49.1875,48.8594 C38.3906,48.8594 29.0313,55.6094 29.0313,66.3125 C29.0313,72.1563 31.9063,76.2969 35.2344,78.9063 L35.2344,79.3594 C31.375,81.9688 29.125,85.3906 29.125,88.5469 C29.125,92.6875 31.5469,95.2031 34.1563,96.5469 L34.1563,97 C29.0313,99.9688 26.1563,104.016 26.1563,107.797 M49.1875,77.9219 C42.4375,77.9219 36.9531,73.3281 36.9531,66.3125 C36.9531,59.375 42.4375,54.7031 49.1875,54.7031 C55.6719,54.7031 61.25,59.375 61.25,66.3125 C61.25,73.3281 55.9375,77.9219 49.1875,77.9219 M33.2656,107.078 C33.2656,104.203 34.875,101.406 39.4688,98.7969 C41.625,99.4375 44.1406,99.6094 46.9375,99.6094 L57.4688,99.6094 C64.9375,99.6094 68.7188,101.047 68.7188,105.547 C68.7188,110.766 61.6094,115.719 50.2656,115.719 C39.1094,115.719 33.2656,112.203 33.2656,107.078 "/>
</g>

<g fill="#000000" fill-opacity="1" stroke="none" transform="matrix(1,0,0,1,0,0)"
font-family="Noto Sans CJK JP" font-size="90" font-weight="400" font-style="normal" 
>
<path vector-effect="none" fill-rule="evenodd" d="M26.1563,107.797 C26.1563,116.438 34.7813,121.391 49.6406,121.391 C66.2031,121.391 76.7344,113.469 76.7344,104.375 C76.7344,96.1875 70.7813,92.8594 58.1875,92.8594 L46.2188,92.8594 C39.8281,92.8594 36.1406,91.1563 36.1406,87.1875 C36.1406,84.9375 37.5781,83.1406 40.0156,81.5156 C42.9844,82.875 46.3125,83.4063 49.1875,83.4063 C60.1719,83.4063 68.8125,77.0156 68.8125,66.4844 C68.8125,62.1719 66.7344,58.5781 64.0313,56.2344 L76.9063,56.2344 L76.9063,49.9375 L56.9219,49.9375 C54.6719,49.125 52.1563,48.8594 49.1875,48.8594 C38.3906,48.8594 29.0313,55.6094 29.0313,66.3125 C29.0313,72.1563 31.9063,76.2969 35.2344,78.9063 L35.2344,79.3594 C31.375,81.9688 29.125,85.3906 29.125,88.5469 C29.125,92.6875 31.5469,95.2031 34.1563,96.5469 L34.1563,97 C29.0313,99.9688 26.1563,104.016 26.1563,107.797 M49.1875,77.9219 C42.4375,77.9219 36.9531,73.3281 36.9531,66.3125 C36.9531,59.375 42.4375,54.7031 49.1875,54.7031 C55.6719,54.7031 61.25,59.375 61.25,66.3125 C61.25,73.3281 55.9375,77.9219 49.1875,77.9219 M33.2656,107.078 C33.2656,104.203 34.875,101.406 39.4688,98.7969 C41.625,99.4375 44.1406,99.6094 46.9375,99.6094 L57.4688,99.6094 C64.9375,99.6094 68.7188,101.047 68.7188,105.547 C68.7188,110.766 61.6094,115.719 50.2656,115.719 C39.1094,115.719 33.2656,112.203 33.2656,107.078 "/>
</g>
</g>
</svg>
