<?xml version="1.0" encoding="UTF-8" standalone="no"?>
<svg width="35.2778mm" height="45.8611mm"
 xmlns="http://www.w3.org/2000/svg" xmlns:xlink="http://www.w3.org/1999/xlink"  version="1.2" baseProfile="tiny">
<title>Qt SVG Document</title>
<desc>Generated with Qt</desc>
<defs>
</defs>
<g fill="none" stroke="black" stroke-width="1" fill-rule="evenodd" stroke-linecap="square" stroke-linejoin="bevel" >

<g fill="#c0c0c0" fill-opacity="1" stroke="none" transform="matrix(1,0,0,1,0,0)"
font-family="Noto Sans" font-size="10" font-weight="400" font-style="normal" 
>
<path vector-effect="none" fill-rule="evenodd" d="M1,6 C1,3.23858 3.23858,1 6,1 L95,1 C97.7614,1 100,3.23858 100,6 L100,125 C100,127.761 97.7614,130 95,130 L6,130 C3.23858,130 1,127.761 1,125 L1,6"/>
</g>

<g fill="none" stroke="#000000" stroke-opacity="1" stroke-width="2" stroke-linecap="square" stroke-linejoin="bevel" transform="matrix(1,0,0,1,0,0)"
font-family="Noto Sans" font-size="10" font-weight="400" font-style="normal" 
>
<path vector-effect="none" fill-rule="evenodd" d="M1,6 C1,3.23858 3.23858,1 6,1 L95,1 C97.7614,1 100,3.23858 100,6 L100,125 C100,127.761 97.7614,130 95,130 L6,130 C3.23858,130 1,127.761 1,125 L1,6"/>
</g>

<g fill="none" stroke="#000000" stroke-opacity="1" stroke-width="2" stroke-linecap="square" stroke-linejoin="bevel" transform="matrix(1,0,0,1,0,0)"
font-family="Noto Sans CJK JP" font-size="90" font-weight="400" font-style="normal" 
>
<path vector-effect="none" fill-rule="evenodd" d="M53.3281,71.1719 C58.8125,70.5469 64.2188,70.1875 69.7969,70.1875 C75.0156,70.1875 80.3281,70.7188 84.8281,71.2656 L85,64.4219 C80.2344,63.875 74.75,63.7031 69.625,63.7031 C63.8594,63.7031 58.0156,63.9688 53.3281,64.4219 L53.3281,71.1719 M59.0938,47.7656 C53.6875,49.2031 47.8438,50.2969 42.0781,51.0156 L43.4219,44.4219 C43.7813,42.625 44.4219,39.2969 45.0469,37.3125 L36.3125,36.5781 C36.5,38.4844 36.3125,41.4531 36.0469,43.9844 C35.7813,45.7813 35.3281,48.5781 34.7031,51.8281 C31.2813,52 28.125,52.1875 25.1563,52.1875 C21.9219,52.1875 18.6719,52.0938 14.4531,51.5469 L14.7188,58.5781 C17.875,58.75 21.1094,58.9375 25.0625,58.9375 C27.5938,58.9375 30.2813,58.8438 33.1719,58.6563 C32.4531,61.9063 31.7344,65.1406 30.9219,68.1094 C27.5938,80.7188 21.2969,98.7969 15.9844,107.984 L23.9063,110.594 C28.5781,100.875 34.6094,82.5156 37.8438,69.7344 C38.8438,65.9531 39.8281,61.8125 40.6406,57.9375 C46.8438,57.2188 53.2344,56.2344 59.0938,54.875 L59.0938,47.7656 M48.8281,85.4844 C48.0156,89.2656 47.4844,92.5938 47.4844,96.0156 C47.4844,104.828 54.8594,109.156 68.8906,109.156 C75.375,109.156 81.3125,108.609 86.0938,107.984 L86.3594,100.688 C80.9531,101.688 74.75,102.406 68.9844,102.406 C56.2969,102.406 54.3125,98.3438 54.3125,94.125 C54.3125,91.875 54.7656,89.0781 55.5781,86.1094 L48.8281,85.4844"/>
</g>

<g fill="#000000" fill-opacity="1" stroke="none" transform="matrix(1,0,0,1,0,0)"
font-family="Noto Sans CJK JP" font-size="90" font-weight="400" font-style="normal" 
>
<path vector-effect="none" fill-rule="evenodd" d="M53.3281,71.1719 C58.8125,70.5469 64.2188,70.1875 69.7969,70.1875 C75.0156,70.1875 80.3281,70.7188 84.8281,71.2656 L85,64.4219 C80.2344,63.875 74.75,63.7031 69.625,63.7031 C63.8594,63.7031 58.0156,63.9688 53.3281,64.4219 L53.3281,71.1719 M59.0938,47.7656 C53.6875,49.2031 47.8438,50.2969 42.0781,51.0156 L43.4219,44.4219 C43.7813,42.625 44.4219,39.2969 45.0469,37.3125 L36.3125,36.5781 C36.5,38.4844 36.3125,41.4531 36.0469,43.9844 C35.7813,45.7813 35.3281,48.5781 34.7031,51.8281 C31.2813,52 28.125,52.1875 25.1563,52.1875 C21.9219,52.1875 18.6719,52.0938 14.4531,51.5469 L14.7188,58.5781 C17.875,58.75 21.1094,58.9375 25.0625,58.9375 C27.5938,58.9375 30.2813,58.8438 33.1719,58.6563 C32.4531,61.9063 31.7344,65.1406 30.9219,68.1094 C27.5938,80.7188 21.2969,98.7969 15.9844,107.984 L23.9063,110.594 C28.5781,100.875 34.6094,82.5156 37.8438,69.7344 C38.8438,65.9531 39.8281,61.8125 40.6406,57.9375 C46.8438,57.2188 53.2344,56.2344 59.0938,54.875 L59.0938,47.7656 M48.8281,85.4844 C48.0156,89.2656 47.4844,92.5938 47.4844,96.0156 C47.4844,104.828 54.8594,109.156 68.8906,109.156 C75.375,109.156 81.3125,108.609 86.0938,107.984 L86.3594,100.688 C80.9531,101.688 74.75,102.406 68.9844,102.406 C56.2969,102.406 54.3125,98.3438 54.3125,94.125 C54.3125,91.875 54.7656,89.0781 55.5781,86.1094 L48.8281,85.4844"/>
</g>
</g>
</svg>
