<?xml version="1.0" encoding="UTF-8" standalone="no"?>
<svg width="35.2778mm" height="45.8611mm"
 xmlns="http://www.w3.org/2000/svg" xmlns:xlink="http://www.w3.org/1999/xlink"  version="1.2" baseProfile="tiny">
<title>Qt SVG Document</title>
<desc>Generated with Qt</desc>
<defs>
</defs>
<g fill="none" stroke="black" stroke-width="1" fill-rule="evenodd" stroke-linecap="square" stroke-linejoin="bevel" >

<g fill="#c0c0c0" fill-opacity="1" stroke="none" transform="matrix(1,0,0,1,0,0)"
font-family="Noto Sans" font-size="10" font-weight="400" font-style="normal" 
>
<path vector-effect="none" fill-rule="evenodd" d="M1,6 C1,3.23858 3.23858,1 6,1 L95,1 C97.7614,1 100,3.23858 100,6 L100,125 C100,127.761 97.7614,130 95,130 L6,130 C3.23858,130 1,127.761 1,125 L1,6"/>
</g>

<g fill="none" stroke="#000000" stroke-opacity="1" stroke-width="2" stroke-linecap="square" stroke-linejoin="bevel" transform="matrix(1,0,0,1,0,0)"
font-family="Noto Sans" font-size="10" font-weight="400" font-style="normal" 
>
<path vector-effect="none" fill-rule="evenodd" d="M1,6 C1,3.23858 3.23858,1 6,1 L95,1 C97.7614,1 100,3.23858 100,6 L100,125 C100,127.761 97.7614,130 95,130 L6,130 C3.23858,130 1,127.761 1,125 L1,6"/>
</g>

<g fill="none" stroke="#000000" stroke-opacity="1" stroke-width="2" stroke-linecap="square" stroke-linejoin="bevel" transform="matrix(1,0,0,1,0,0)"
font-family="Noto Sans CJK JP" font-size="90" font-weight="400" font-style="normal" 
>
<path vector-effect="none" fill-rule="evenodd" d="M13.6406,64.5156 C20.5625,60.4688 24.3438,54.7031 24.3438,46.6875 C24.3438,40.9375 21.9219,37.6094 17.9531,37.6094 C14.9063,37.6094 12.7344,39.6719 12.7344,43.0938 C12.7344,46.4219 15.2656,48.2188 17.9531,48.2188 C18.3125,48.2188 18.5938,48.2188 18.8594,48.1406 C18.7656,53.8906 16.25,57.2188 11.2969,60.6406 L13.6406,64.5156"/>
</g>

<g fill="#000000" fill-opacity="1" stroke="none" transform="matrix(1,0,0,1,0,0)"
font-family="Noto Sans CJK JP" font-size="90" font-weight="400" font-style="normal" 
>
<path vector-effect="none" fill-rule="evenodd" d="M13.6406,64.5156 C20.5625,60.4688 24.3438,54.7031 24.3438,46.6875 C24.3438,40.9375 21.9219,37.6094 17.9531,37.6094 C14.9063,37.6094 12.7344,39.6719 12.7344,43.0938 C12.7344,46.4219 15.2656,48.2188 17.9531,48.2188 C18.3125,48.2188 18.5938,48.2188 18.8594,48.1406 C18.7656,53.8906 16.25,57.2188 11.2969,60.6406 L13.6406,64.5156"/>
</g>
</g>
</svg>
