<?xml version="1.0" encoding="UTF-8" standalone="no"?>
<svg width="35.2778mm" height="45.8611mm"
 xmlns="http://www.w3.org/2000/svg" xmlns:xlink="http://www.w3.org/1999/xlink"  version="1.2" baseProfile="tiny">
<title>Qt SVG Document</title>
<desc>Generated with Qt</desc>
<defs>
</defs>
<g fill="none" stroke="black" stroke-width="1" fill-rule="evenodd" stroke-linecap="square" stroke-linejoin="bevel" >

<g fill="#c0c0c0" fill-opacity="1" stroke="none" transform="matrix(1,0,0,1,0,0)"
font-family="Noto Sans" font-size="10" font-weight="400" font-style="normal" 
>
<path vector-effect="none" fill-rule="evenodd" d="M1,6 C1,3.23858 3.23858,1 6,1 L95,1 C97.7614,1 100,3.23858 100,6 L100,125 C100,127.761 97.7614,130 95,130 L6,130 C3.23858,130 1,127.761 1,125 L1,6"/>
</g>

<g fill="none" stroke="#000000" stroke-opacity="1" stroke-width="2" stroke-linecap="square" stroke-linejoin="bevel" transform="matrix(1,0,0,1,0,0)"
font-family="Noto Sans" font-size="10" font-weight="400" font-style="normal" 
>
<path vector-effect="none" fill-rule="evenodd" d="M1,6 C1,3.23858 3.23858,1 6,1 L95,1 C97.7614,1 100,3.23858 100,6 L100,125 C100,127.761 97.7614,130 95,130 L6,130 C3.23858,130 1,127.761 1,125 L1,6"/>
</g>

<g fill="none" stroke="#000000" stroke-opacity="1" stroke-width="2" stroke-linecap="square" stroke-linejoin="bevel" transform="matrix(1,0,0,1,0,0)"
font-family="Noto Sans CJK JP" font-size="90" font-weight="400" font-style="normal" 
>
<path vector-effect="none" fill-rule="evenodd" d="M69.7969,56.5 L69.7969,45.2344 C69.7969,41.7188 70.1563,38.75 70.25,37.8438 L62.1406,37.8438 C62.3281,38.75 62.5938,41.7188 62.5938,45.2344 L62.5938,56.5 L36.9531,56.5 L36.9531,44.9688 C36.9531,41.8125 37.3125,39.2813 37.4063,38.3906 L29.3906,38.3906 C29.4844,39.2813 29.75,42.0781 29.75,44.9688 L29.75,56.5 L20.125,56.5 C16.25,56.5 11.8438,56.0469 11.0313,55.875 L11.0313,63.7031 C12.1094,63.6094 16.1563,63.3438 20.125,63.3438 L29.75,63.3438 L29.75,77.9375 C29.75,81.3594 29.4844,85.2344 29.3906,86.125 L37.3125,86.125 C37.2188,85.2344 36.9531,81.2656 36.9531,77.9375 L36.9531,63.3438 L62.5938,63.3438 L62.5938,67.125 C62.5938,92.3438 54.4063,100.094 38.0313,106.391 L44.0625,112.078 C64.6719,102.891 69.7969,90.5469 69.7969,66.5 L69.7969,63.3438 L79.7031,63.3438 C83.6563,63.3438 86.9844,63.5313 87.8906,63.6094 L87.8906,56.0469 C86.7188,56.2344 83.6563,56.5 79.7031,56.5 L69.7969,56.5"/>
</g>

<g fill="#000000" fill-opacity="1" stroke="none" transform="matrix(1,0,0,1,0,0)"
font-family="Noto Sans CJK JP" font-size="90" font-weight="400" font-style="normal" 
>
<path vector-effect="none" fill-rule="evenodd" d="M69.7969,56.5 L69.7969,45.2344 C69.7969,41.7188 70.1563,38.75 70.25,37.8438 L62.1406,37.8438 C62.3281,38.75 62.5938,41.7188 62.5938,45.2344 L62.5938,56.5 L36.9531,56.5 L36.9531,44.9688 C36.9531,41.8125 37.3125,39.2813 37.4063,38.3906 L29.3906,38.3906 C29.4844,39.2813 29.75,42.0781 29.75,44.9688 L29.75,56.5 L20.125,56.5 C16.25,56.5 11.8438,56.0469 11.0313,55.875 L11.0313,63.7031 C12.1094,63.6094 16.1563,63.3438 20.125,63.3438 L29.75,63.3438 L29.75,77.9375 C29.75,81.3594 29.4844,85.2344 29.3906,86.125 L37.3125,86.125 C37.2188,85.2344 36.9531,81.2656 36.9531,77.9375 L36.9531,63.3438 L62.5938,63.3438 L62.5938,67.125 C62.5938,92.3438 54.4063,100.094 38.0313,106.391 L44.0625,112.078 C64.6719,102.891 69.7969,90.5469 69.7969,66.5 L69.7969,63.3438 L79.7031,63.3438 C83.6563,63.3438 86.9844,63.5313 87.8906,63.6094 L87.8906,56.0469 C86.7188,56.2344 83.6563,56.5 79.7031,56.5 L69.7969,56.5"/>
</g>
</g>
</svg>
