<?xml version="1.0" encoding="UTF-8" standalone="no"?>
<svg width="35.2778mm" height="45.8611mm"
 xmlns="http://www.w3.org/2000/svg" xmlns:xlink="http://www.w3.org/1999/xlink"  version="1.2" baseProfile="tiny">
<title>Qt SVG Document</title>
<desc>Generated with Qt</desc>
<defs>
</defs>
<g fill="none" stroke="black" stroke-width="1" fill-rule="evenodd" stroke-linecap="square" stroke-linejoin="bevel" >

<g fill="#c0c0c0" fill-opacity="1" stroke="none" transform="matrix(1,0,0,1,0,0)"
font-family="Noto Sans" font-size="10" font-weight="400" font-style="normal" 
>
<path vector-effect="none" fill-rule="evenodd" d="M1,6 C1,3.23858 3.23858,1 6,1 L95,1 C97.7614,1 100,3.23858 100,6 L100,125 C100,127.761 97.7614,130 95,130 L6,130 C3.23858,130 1,127.761 1,125 L1,6"/>
</g>

<g fill="none" stroke="#000000" stroke-opacity="1" stroke-width="2" stroke-linecap="square" stroke-linejoin="bevel" transform="matrix(1,0,0,1,0,0)"
font-family="Noto Sans" font-size="10" font-weight="400" font-style="normal" 
>
<path vector-effect="none" fill-rule="evenodd" d="M1,6 C1,3.23858 3.23858,1 6,1 L95,1 C97.7614,1 100,3.23858 100,6 L100,125 C100,127.761 97.7614,130 95,130 L6,130 C3.23858,130 1,127.761 1,125 L1,6"/>
</g>

<g fill="none" stroke="#000000" stroke-opacity="1" stroke-width="2" stroke-linecap="square" stroke-linejoin="bevel" transform="matrix(1,0,0,1,0,0)"
font-family="Noto Sans CJK JP" font-size="90" font-weight="400" font-style="normal" 
>
<path vector-effect="none" fill-rule="evenodd" d="M33.2656,37.1406 L32.0938,43.7188 C42.9844,45.7031 58.5469,47.6875 67.4531,48.5 L68.4531,41.8281 C59.9844,41.2969 42.9844,39.2188 33.2656,37.1406 M70.25,62.625 L65.9219,57.7656 C65.125,58.125 63.2344,58.5781 61.7031,58.75 C54.9531,59.5625 34.25,61 29.125,61.0938 C26.3281,61.1875 23.625,61.0938 21.5625,60.9063 L22.1875,68.8281 C24.1719,68.5625 26.5156,68.2031 29.3906,68.0156 C34.875,67.5781 49.8125,66.2188 56.8438,65.7656 C48.0156,74.5938 23.7188,98.8906 20.125,102.406 C18.5,104.109 16.875,105.547 15.7031,106.453 L22.6406,111.141 C27.6719,104.734 37.3125,94.6563 40.6406,91.4219 C42.7031,89.4375 44.7813,88.1875 47.2031,88.1875 C49.6406,88.1875 51.5313,89.7969 52.6094,92.8594 C53.4219,95.4688 54.7656,100.688 55.5781,103.297 C57.5625,109.234 62.0625,110.859 69.1719,110.859 C73.9375,110.859 82.125,110.234 85.9063,109.594 L86.3594,101.953 C82.2188,103.031 75.375,103.844 69.5313,103.844 C64.9375,103.844 62.875,102.406 61.875,99.0781 C60.8906,96.1875 59.7188,91.6875 58.9063,89.0781 C57.6406,85.3906 55.5781,83.0469 52.0625,82.6875 C51.2656,82.4219 49.6406,82.3281 48.7344,82.4219 C52.0625,78.9063 61.9688,69.7344 65.3906,66.6719 C66.375,65.6875 68.625,63.7969 70.25,62.625 "/>
</g>

<g fill="#000000" fill-opacity="1" stroke="none" transform="matrix(1,0,0,1,0,0)"
font-family="Noto Sans CJK JP" font-size="90" font-weight="400" font-style="normal" 
>
<path vector-effect="none" fill-rule="evenodd" d="M33.2656,37.1406 L32.0938,43.7188 C42.9844,45.7031 58.5469,47.6875 67.4531,48.5 L68.4531,41.8281 C59.9844,41.2969 42.9844,39.2188 33.2656,37.1406 M70.25,62.625 L65.9219,57.7656 C65.125,58.125 63.2344,58.5781 61.7031,58.75 C54.9531,59.5625 34.25,61 29.125,61.0938 C26.3281,61.1875 23.625,61.0938 21.5625,60.9063 L22.1875,68.8281 C24.1719,68.5625 26.5156,68.2031 29.3906,68.0156 C34.875,67.5781 49.8125,66.2188 56.8438,65.7656 C48.0156,74.5938 23.7188,98.8906 20.125,102.406 C18.5,104.109 16.875,105.547 15.7031,106.453 L22.6406,111.141 C27.6719,104.734 37.3125,94.6563 40.6406,91.4219 C42.7031,89.4375 44.7813,88.1875 47.2031,88.1875 C49.6406,88.1875 51.5313,89.7969 52.6094,92.8594 C53.4219,95.4688 54.7656,100.688 55.5781,103.297 C57.5625,109.234 62.0625,110.859 69.1719,110.859 C73.9375,110.859 82.125,110.234 85.9063,109.594 L86.3594,101.953 C82.2188,103.031 75.375,103.844 69.5313,103.844 C64.9375,103.844 62.875,102.406 61.875,99.0781 C60.8906,96.1875 59.7188,91.6875 58.9063,89.0781 C57.6406,85.3906 55.5781,83.0469 52.0625,82.6875 C51.2656,82.4219 49.6406,82.3281 48.7344,82.4219 C52.0625,78.9063 61.9688,69.7344 65.3906,66.6719 C66.375,65.6875 68.625,63.7969 70.25,62.625 "/>
</g>
</g>
</svg>
