<?xml version="1.0" encoding="UTF-8" standalone="no"?>
<svg width="35.2778mm" height="45.8611mm"
 xmlns="http://www.w3.org/2000/svg" xmlns:xlink="http://www.w3.org/1999/xlink"  version="1.2" baseProfile="tiny">
<title>Qt SVG Document</title>
<desc>Generated with Qt</desc>
<defs>
</defs>
<g fill="none" stroke="black" stroke-width="1" fill-rule="evenodd" stroke-linecap="square" stroke-linejoin="bevel" >

<g fill="#c0c0c0" fill-opacity="1" stroke="none" transform="matrix(1,0,0,1,0,0)"
font-family="Noto Sans" font-size="10" font-weight="400" font-style="normal" 
>
<path vector-effect="none" fill-rule="evenodd" d="M1,6 C1,3.23858 3.23858,1 6,1 L95,1 C97.7614,1 100,3.23858 100,6 L100,125 C100,127.761 97.7614,130 95,130 L6,130 C3.23858,130 1,127.761 1,125 L1,6"/>
</g>

<g fill="none" stroke="#000000" stroke-opacity="1" stroke-width="2" stroke-linecap="square" stroke-linejoin="bevel" transform="matrix(1,0,0,1,0,0)"
font-family="Noto Sans" font-size="10" font-weight="400" font-style="normal" 
>
<path vector-effect="none" fill-rule="evenodd" d="M1,6 C1,3.23858 3.23858,1 6,1 L95,1 C97.7614,1 100,3.23858 100,6 L100,125 C100,127.761 97.7614,130 95,130 L6,130 C3.23858,130 1,127.761 1,125 L1,6"/>
</g>

<g fill="none" stroke="#000000" stroke-opacity="1" stroke-width="2" stroke-linecap="square" stroke-linejoin="bevel" transform="matrix(1,0,0,1,0,0)"
font-family="Noto Sans CJK JP" font-size="90" font-weight="400" font-style="normal" 
>
<path vector-effect="none" fill-rule="evenodd" d="M73.125,79.9063 L27.8594,79.9063 L27.8594,63.6094 L73.125,63.6094 L73.125,79.9063 M27.8594,102.844 L27.8594,86.0156 L73.125,86.0156 L73.125,102.844 L27.8594,102.844 M89.0625,44 L89.0625,37.4219 L11.0313,37.4219 L11.0313,44 L45.5,44 C44.7813,48.4063 43.7813,53.3594 42.8906,57.3125 L21.2031,57.3125 L21.2031,114.938 L27.8594,114.938 L27.8594,109.063 L73.125,109.063 L73.125,114.938 L80.0625,114.938 L80.0625,57.3125 L49.7344,57.3125 C50.8906,53.2656 52.0625,48.5781 53.1406,44 L89.0625,44"/>
</g>

<g fill="#000000" fill-opacity="1" stroke="none" transform="matrix(1,0,0,1,0,0)"
font-family="Noto Sans CJK JP" font-size="90" font-weight="400" font-style="normal" 
>
<path vector-effect="none" fill-rule="evenodd" d="M73.125,79.9063 L27.8594,79.9063 L27.8594,63.6094 L73.125,63.6094 L73.125,79.9063 M27.8594,102.844 L27.8594,86.0156 L73.125,86.0156 L73.125,102.844 L27.8594,102.844 M89.0625,44 L89.0625,37.4219 L11.0313,37.4219 L11.0313,44 L45.5,44 C44.7813,48.4063 43.7813,53.3594 42.8906,57.3125 L21.2031,57.3125 L21.2031,114.938 L27.8594,114.938 L27.8594,109.063 L73.125,109.063 L73.125,114.938 L80.0625,114.938 L80.0625,57.3125 L49.7344,57.3125 C50.8906,53.2656 52.0625,48.5781 53.1406,44 L89.0625,44"/>
</g>
</g>
</svg>
