<?xml version="1.0" encoding="UTF-8" standalone="no"?>
<svg width="35.2778mm" height="45.8611mm"
 xmlns="http://www.w3.org/2000/svg" xmlns:xlink="http://www.w3.org/1999/xlink"  version="1.2" baseProfile="tiny">
<title>Qt SVG Document</title>
<desc>Generated with Qt</desc>
<defs>
</defs>
<g fill="none" stroke="black" stroke-width="1" fill-rule="evenodd" stroke-linecap="square" stroke-linejoin="bevel" >

<g fill="#c0c0c0" fill-opacity="1" stroke="none" transform="matrix(1,0,0,1,0,0)"
font-family="Noto Sans" font-size="10" font-weight="400" font-style="normal" 
>
<path vector-effect="none" fill-rule="evenodd" d="M1,6 C1,3.23858 3.23858,1 6,1 L95,1 C97.7614,1 100,3.23858 100,6 L100,125 C100,127.761 97.7614,130 95,130 L6,130 C3.23858,130 1,127.761 1,125 L1,6"/>
</g>

<g fill="none" stroke="#000000" stroke-opacity="1" stroke-width="2" stroke-linecap="square" stroke-linejoin="bevel" transform="matrix(1,0,0,1,0,0)"
font-family="Noto Sans" font-size="10" font-weight="400" font-style="normal" 
>
<path vector-effect="none" fill-rule="evenodd" d="M1,6 C1,3.23858 3.23858,1 6,1 L95,1 C97.7614,1 100,3.23858 100,6 L100,125 C100,127.761 97.7614,130 95,130 L6,130 C3.23858,130 1,127.761 1,125 L1,6"/>
</g>

<g fill="none" stroke="#000000" stroke-opacity="1" stroke-width="2" stroke-linecap="square" stroke-linejoin="bevel" transform="matrix(1,0,0,1,0,0)"
font-family="Noto Sans CJK JP" font-size="90" font-weight="400" font-style="normal" 
>
<path vector-effect="none" fill-rule="evenodd" d="M61.5156,35.7969 C60.5313,37.4219 58.1875,39.9375 56.3906,41.75 C50.3594,47.8594 36.8594,58.4844 30.2031,64.1563 C22.0938,70.9063 21.2031,74.9531 29.5625,81.9688 C37.9375,88.8125 52.7813,101.5 57.6406,106.719 C59.5313,108.797 61.9688,111.047 63.7656,113.203 L70.25,107.344 C61.5156,98.7188 45.0469,85.0313 36.9531,78.5469 C31.1875,73.7813 31.1875,72.4375 36.5938,67.75 C43.1563,62.3594 55.9375,52.0938 62.1406,46.7813 C63.5938,45.5156 66.2813,43.1875 68.2656,41.75 L61.5156,35.7969"/>
</g>

<g fill="#000000" fill-opacity="1" stroke="none" transform="matrix(1,0,0,1,0,0)"
font-family="Noto Sans CJK JP" font-size="90" font-weight="400" font-style="normal" 
>
<path vector-effect="none" fill-rule="evenodd" d="M61.5156,35.7969 C60.5313,37.4219 58.1875,39.9375 56.3906,41.75 C50.3594,47.8594 36.8594,58.4844 30.2031,64.1563 C22.0938,70.9063 21.2031,74.9531 29.5625,81.9688 C37.9375,88.8125 52.7813,101.5 57.6406,106.719 C59.5313,108.797 61.9688,111.047 63.7656,113.203 L70.25,107.344 C61.5156,98.7188 45.0469,85.0313 36.9531,78.5469 C31.1875,73.7813 31.1875,72.4375 36.5938,67.75 C43.1563,62.3594 55.9375,52.0938 62.1406,46.7813 C63.5938,45.5156 66.2813,43.1875 68.2656,41.75 L61.5156,35.7969"/>
</g>
</g>
</svg>
