<?xml version="1.0" encoding="UTF-8" standalone="no"?>
<svg width="35.2778mm" height="45.8611mm"
 xmlns="http://www.w3.org/2000/svg" xmlns:xlink="http://www.w3.org/1999/xlink"  version="1.2" baseProfile="tiny">
<title>Qt SVG Document</title>
<desc>Generated with Qt</desc>
<defs>
</defs>
<g fill="none" stroke="black" stroke-width="1" fill-rule="evenodd" stroke-linecap="square" stroke-linejoin="bevel" >

<g fill="#c0c0c0" fill-opacity="1" stroke="none" transform="matrix(1,0,0,1,0,0)"
font-family="Noto Sans" font-size="10" font-weight="400" font-style="normal" 
>
<path vector-effect="none" fill-rule="evenodd" d="M1,6 C1,3.23858 3.23858,1 6,1 L95,1 C97.7614,1 100,3.23858 100,6 L100,125 C100,127.761 97.7614,130 95,130 L6,130 C3.23858,130 1,127.761 1,125 L1,6"/>
</g>

<g fill="none" stroke="#000000" stroke-opacity="1" stroke-width="2" stroke-linecap="square" stroke-linejoin="bevel" transform="matrix(1,0,0,1,0,0)"
font-family="Noto Sans" font-size="10" font-weight="400" font-style="normal" 
>
<path vector-effect="none" fill-rule="evenodd" d="M1,6 C1,3.23858 3.23858,1 6,1 L95,1 C97.7614,1 100,3.23858 100,6 L100,125 C100,127.761 97.7614,130 95,130 L6,130 C3.23858,130 1,127.761 1,125 L1,6"/>
</g>

<g fill="none" stroke="#000000" stroke-opacity="1" stroke-width="2" stroke-linecap="square" stroke-linejoin="bevel" transform="matrix(1,0,0,1,0,0)"
font-family="Noto Sans CJK JP" font-size="90" font-weight="400" font-style="normal" 
>
<path vector-effect="none" fill-rule="evenodd" d="M53.4219,101.406 L53.4219,68.2969 L70.9688,68.2969 C73.0313,68.2969 75.375,68.375 77.3594,68.5625 L77.3594,61.3594 C75.4688,61.5469 73.2188,61.7188 70.9688,61.7188 L29.5625,61.7188 C28.125,61.7188 25.25,61.625 23.3594,61.3594 L23.3594,68.5625 C25.25,68.375 28.125,68.2969 29.5625,68.2969 L46.125,68.2969 L46.125,101.406 L25.4219,101.406 C23.4531,101.406 21.0156,101.234 18.9531,100.953 L18.9531,108.516 C21.1094,108.344 23.4531,108.25 25.4219,108.25 L75.2031,108.25 C76.6406,108.25 79.4219,108.344 81.2344,108.516 L81.2344,100.953 C79.4219,101.234 77.3594,101.406 75.2031,101.406 L53.4219,101.406"/>
</g>

<g fill="#000000" fill-opacity="1" stroke="none" transform="matrix(1,0,0,1,0,0)"
font-family="Noto Sans CJK JP" font-size="90" font-weight="400" font-style="normal" 
>
<path vector-effect="none" fill-rule="evenodd" d="M53.4219,101.406 L53.4219,68.2969 L70.9688,68.2969 C73.0313,68.2969 75.375,68.375 77.3594,68.5625 L77.3594,61.3594 C75.4688,61.5469 73.2188,61.7188 70.9688,61.7188 L29.5625,61.7188 C28.125,61.7188 25.25,61.625 23.3594,61.3594 L23.3594,68.5625 C25.25,68.375 28.125,68.2969 29.5625,68.2969 L46.125,68.2969 L46.125,101.406 L25.4219,101.406 C23.4531,101.406 21.0156,101.234 18.9531,100.953 L18.9531,108.516 C21.1094,108.344 23.4531,108.25 25.4219,108.25 L75.2031,108.25 C76.6406,108.25 79.4219,108.344 81.2344,108.516 L81.2344,100.953 C79.4219,101.234 77.3594,101.406 75.2031,101.406 L53.4219,101.406"/>
</g>
</g>
</svg>
