<?xml version="1.0" encoding="UTF-8" standalone="no"?>
<svg width="35.2778mm" height="45.8611mm"
 xmlns="http://www.w3.org/2000/svg" xmlns:xlink="http://www.w3.org/1999/xlink"  version="1.2" baseProfile="tiny">
<title>Qt SVG Document</title>
<desc>Generated with Qt</desc>
<defs>
</defs>
<g fill="none" stroke="black" stroke-width="1" fill-rule="evenodd" stroke-linecap="square" stroke-linejoin="bevel" >

<g fill="#c0c0c0" fill-opacity="1" stroke="none" transform="matrix(1,0,0,1,0,0)"
font-family="Noto Sans" font-size="10" font-weight="400" font-style="normal" 
>
<path vector-effect="none" fill-rule="evenodd" d="M1,6 C1,3.23858 3.23858,1 6,1 L95,1 C97.7614,1 100,3.23858 100,6 L100,125 C100,127.761 97.7614,130 95,130 L6,130 C3.23858,130 1,127.761 1,125 L1,6"/>
</g>

<g fill="none" stroke="#000000" stroke-opacity="1" stroke-width="2" stroke-linecap="square" stroke-linejoin="bevel" transform="matrix(1,0,0,1,0,0)"
font-family="Noto Sans" font-size="10" font-weight="400" font-style="normal" 
>
<path vector-effect="none" fill-rule="evenodd" d="M1,6 C1,3.23858 3.23858,1 6,1 L95,1 C97.7614,1 100,3.23858 100,6 L100,125 C100,127.761 97.7614,130 95,130 L6,130 C3.23858,130 1,127.761 1,125 L1,6"/>
</g>

<g fill="none" stroke="#000000" stroke-opacity="1" stroke-width="2" stroke-linecap="square" stroke-linejoin="bevel" transform="matrix(1,0,0,1,0,0)"
font-family="Noto Sans CJK JP" font-size="90" font-weight="400" font-style="normal" 
>
<path vector-effect="none" fill-rule="evenodd" d="M50,108.969 C63.5938,108.969 75.6406,99.5156 75.6406,83.5 C75.6406,67.2188 63.5938,57.8594 50,57.8594 C36.4063,57.8594 24.3438,67.2188 24.3438,83.5 C24.3438,99.5156 36.4063,108.969 50,108.969 M50,102.125 C39.9219,102.125 33.0781,94.6563 33.0781,83.5 C33.0781,72.3438 39.9219,64.7813 50,64.7813 C60.1719,64.7813 66.9219,72.3438 66.9219,83.5 C66.9219,94.6563 60.1719,102.125 50,102.125 "/>
</g>

<g fill="#000000" fill-opacity="1" stroke="none" transform="matrix(1,0,0,1,0,0)"
font-family="Noto Sans CJK JP" font-size="90" font-weight="400" font-style="normal" 
>
<path vector-effect="none" fill-rule="evenodd" d="M50,108.969 C63.5938,108.969 75.6406,99.5156 75.6406,83.5 C75.6406,67.2188 63.5938,57.8594 50,57.8594 C36.4063,57.8594 24.3438,67.2188 24.3438,83.5 C24.3438,99.5156 36.4063,108.969 50,108.969 M50,102.125 C39.9219,102.125 33.0781,94.6563 33.0781,83.5 C33.0781,72.3438 39.9219,64.7813 50,64.7813 C60.1719,64.7813 66.9219,72.3438 66.9219,83.5 C66.9219,94.6563 60.1719,102.125 50,102.125 "/>
</g>
</g>
</svg>
