<?xml version="1.0" encoding="UTF-8" standalone="no"?>
<svg width="35.2778mm" height="45.8611mm"
 xmlns="http://www.w3.org/2000/svg" xmlns:xlink="http://www.w3.org/1999/xlink"  version="1.2" baseProfile="tiny">
<title>Qt SVG Document</title>
<desc>Generated with Qt</desc>
<defs>
</defs>
<g fill="none" stroke="black" stroke-width="1" fill-rule="evenodd" stroke-linecap="square" stroke-linejoin="bevel" >

<g fill="#c0c0c0" fill-opacity="1" stroke="none" transform="matrix(1,0,0,1,0,0)"
font-family="Noto Sans" font-size="10" font-weight="400" font-style="normal" 
>
<path vector-effect="none" fill-rule="evenodd" d="M1,6 C1,3.23858 3.23858,1 6,1 L95,1 C97.7614,1 100,3.23858 100,6 L100,125 C100,127.761 97.7614,130 95,130 L6,130 C3.23858,130 1,127.761 1,125 L1,6"/>
</g>

<g fill="none" stroke="#000000" stroke-opacity="1" stroke-width="2" stroke-linecap="square" stroke-linejoin="bevel" transform="matrix(1,0,0,1,0,0)"
font-family="Noto Sans" font-size="10" font-weight="400" font-style="normal" 
>
<path vector-effect="none" fill-rule="evenodd" d="M1,6 C1,3.23858 3.23858,1 6,1 L95,1 C97.7614,1 100,3.23858 100,6 L100,125 C100,127.761 97.7614,130 95,130 L6,130 C3.23858,130 1,127.761 1,125 L1,6"/>
</g>

<g fill="none" stroke="#000000" stroke-opacity="1" stroke-width="2" stroke-linecap="square" stroke-linejoin="bevel" transform="matrix(1,0,0,1,0,0)"
font-family="Noto Sans CJK JP" font-size="90" font-weight="400" font-style="normal" 
>
<path vector-effect="none" fill-rule="evenodd" d="M23.9844,83.7656 C23,87.0156 21.9219,91.1563 21.9219,94.9375 C21.9219,106.094 31.2813,111.578 47.2031,111.578 C54.5,111.578 63.1406,110.859 68.7188,109.875 L68.8906,102.578 C62.5938,104.016 54.1406,104.656 46.9375,104.656 C34.25,104.656 28.8438,100.328 28.8438,93.4844 C28.8438,91.1563 29.8438,87.1875 30.9219,84.4063 L23.9844,83.7656 M80.7813,59.375 C76.7344,60.9063 71.3281,62.5313 64.3125,63.7969 C62.7813,60.4688 61.5156,57.6719 60.7969,55.7813 L59.1719,52.0938 C65.2969,51.1094 71.1406,49.75 75.7344,48.3125 L74.4844,41.9063 C69.25,43.8125 62.9531,45.1563 56.75,46.1563 C55.3906,42.7188 54.2344,39.2969 53.4219,36.2344 L45.3125,37.9375 C46.4844,39.8438 47.2969,41.4531 48.6406,44.25 C49.0156,45.0625 49.375,45.9688 49.8125,46.9688 C41.2656,47.5938 31.2813,47.4063 20.6563,46.2344 L21.1094,52.8125 C32.1719,53.7969 43.4219,53.7969 52.4219,53 C53.0625,54.4375 53.6875,56.0469 54.4063,57.5781 L57.5625,64.875 C46.9375,66.2188 33.7031,66.3125 20.125,65.0469 L20.3906,71.625 C34.1563,72.5156 48.7344,72.3438 60.25,70.8125 C62.3281,75.4844 64.3906,80.1719 66.1094,83.6875 C63.3125,83.4063 59.0938,82.9688 54.7656,82.4219 L54.1406,87.9063 C59.8125,88.625 67,89.625 71.5,90.4375 L75.0156,86.0156 C72.5,81.3438 69.625,75.3125 67,69.6406 C73.0313,68.4688 78.1719,67.2188 82.125,65.8594 L80.7813,59.375"/>
</g>

<g fill="#000000" fill-opacity="1" stroke="none" transform="matrix(1,0,0,1,0,0)"
font-family="Noto Sans CJK JP" font-size="90" font-weight="400" font-style="normal" 
>
<path vector-effect="none" fill-rule="evenodd" d="M23.9844,83.7656 C23,87.0156 21.9219,91.1563 21.9219,94.9375 C21.9219,106.094 31.2813,111.578 47.2031,111.578 C54.5,111.578 63.1406,110.859 68.7188,109.875 L68.8906,102.578 C62.5938,104.016 54.1406,104.656 46.9375,104.656 C34.25,104.656 28.8438,100.328 28.8438,93.4844 C28.8438,91.1563 29.8438,87.1875 30.9219,84.4063 L23.9844,83.7656 M80.7813,59.375 C76.7344,60.9063 71.3281,62.5313 64.3125,63.7969 C62.7813,60.4688 61.5156,57.6719 60.7969,55.7813 L59.1719,52.0938 C65.2969,51.1094 71.1406,49.75 75.7344,48.3125 L74.4844,41.9063 C69.25,43.8125 62.9531,45.1563 56.75,46.1563 C55.3906,42.7188 54.2344,39.2969 53.4219,36.2344 L45.3125,37.9375 C46.4844,39.8438 47.2969,41.4531 48.6406,44.25 C49.0156,45.0625 49.375,45.9688 49.8125,46.9688 C41.2656,47.5938 31.2813,47.4063 20.6563,46.2344 L21.1094,52.8125 C32.1719,53.7969 43.4219,53.7969 52.4219,53 C53.0625,54.4375 53.6875,56.0469 54.4063,57.5781 L57.5625,64.875 C46.9375,66.2188 33.7031,66.3125 20.125,65.0469 L20.3906,71.625 C34.1563,72.5156 48.7344,72.3438 60.25,70.8125 C62.3281,75.4844 64.3906,80.1719 66.1094,83.6875 C63.3125,83.4063 59.0938,82.9688 54.7656,82.4219 L54.1406,87.9063 C59.8125,88.625 67,89.625 71.5,90.4375 L75.0156,86.0156 C72.5,81.3438 69.625,75.3125 67,69.6406 C73.0313,68.4688 78.1719,67.2188 82.125,65.8594 L80.7813,59.375"/>
</g>
</g>
</svg>
