<?xml version="1.0" encoding="UTF-8" standalone="no"?>
<svg width="35.2778mm" height="45.8611mm"
 xmlns="http://www.w3.org/2000/svg" xmlns:xlink="http://www.w3.org/1999/xlink"  version="1.2" baseProfile="tiny">
<title>Qt SVG Document</title>
<desc>Generated with Qt</desc>
<defs>
</defs>
<g fill="none" stroke="black" stroke-width="1" fill-rule="evenodd" stroke-linecap="square" stroke-linejoin="bevel" >

<g fill="#c0c0c0" fill-opacity="1" stroke="none" transform="matrix(1,0,0,1,0,0)"
font-family="Noto Sans" font-size="10" font-weight="400" font-style="normal" 
>
<path vector-effect="none" fill-rule="evenodd" d="M1,6 C1,3.23858 3.23858,1 6,1 L95,1 C97.7614,1 100,3.23858 100,6 L100,125 C100,127.761 97.7614,130 95,130 L6,130 C3.23858,130 1,127.761 1,125 L1,6"/>
</g>

<g fill="none" stroke="#000000" stroke-opacity="1" stroke-width="2" stroke-linecap="square" stroke-linejoin="bevel" transform="matrix(1,0,0,1,0,0)"
font-family="Noto Sans" font-size="10" font-weight="400" font-style="normal" 
>
<path vector-effect="none" fill-rule="evenodd" d="M1,6 C1,3.23858 3.23858,1 6,1 L95,1 C97.7614,1 100,3.23858 100,6 L100,125 C100,127.761 97.7614,130 95,130 L6,130 C3.23858,130 1,127.761 1,125 L1,6"/>
</g>

<g fill="none" stroke="#000000" stroke-opacity="1" stroke-width="2" stroke-linecap="square" stroke-linejoin="bevel" transform="matrix(1,0,0,1,0,0)"
font-family="Noto Sans CJK JP" font-size="90" font-weight="400" font-style="normal" 
>
<path vector-effect="none" fill-rule="evenodd" d="M53.2344,79 L53.2344,55.1563 L79.0625,55.1563 L79.0625,79 L53.2344,79 M20.5625,79 L20.5625,55.1563 L46.3125,55.1563 L46.3125,79 L20.5625,79 M53.2344,48.5781 L53.2344,32.5313 L46.3125,32.5313 L46.3125,48.5781 L14,48.5781 L14,91.1563 L20.5625,91.1563 L20.5625,85.5781 L46.3125,85.5781 L46.3125,114.766 L53.2344,114.766 L53.2344,85.5781 L79.0625,85.5781 L79.0625,90.7031 L85.9063,90.7031 L85.9063,48.5781 L53.2344,48.5781"/>
</g>

<g fill="#000000" fill-opacity="1" stroke="none" transform="matrix(1,0,0,1,0,0)"
font-family="Noto Sans CJK JP" font-size="90" font-weight="400" font-style="normal" 
>
<path vector-effect="none" fill-rule="evenodd" d="M53.2344,79 L53.2344,55.1563 L79.0625,55.1563 L79.0625,79 L53.2344,79 M20.5625,79 L20.5625,55.1563 L46.3125,55.1563 L46.3125,79 L20.5625,79 M53.2344,48.5781 L53.2344,32.5313 L46.3125,32.5313 L46.3125,48.5781 L14,48.5781 L14,91.1563 L20.5625,91.1563 L20.5625,85.5781 L46.3125,85.5781 L46.3125,114.766 L53.2344,114.766 L53.2344,85.5781 L79.0625,85.5781 L79.0625,90.7031 L85.9063,90.7031 L85.9063,48.5781 L53.2344,48.5781"/>
</g>
</g>
</svg>
