<?xml version="1.0" encoding="UTF-8" standalone="no"?>
<svg width="35.2778mm" height="45.8611mm"
 xmlns="http://www.w3.org/2000/svg" xmlns:xlink="http://www.w3.org/1999/xlink"  version="1.2" baseProfile="tiny">
<title>Qt SVG Document</title>
<desc>Generated with Qt</desc>
<defs>
</defs>
<g fill="none" stroke="black" stroke-width="1" fill-rule="evenodd" stroke-linecap="square" stroke-linejoin="bevel" >

<g fill="#c0c0c0" fill-opacity="1" stroke="none" transform="matrix(1,0,0,1,0,0)"
font-family="Noto Sans" font-size="10" font-weight="400" font-style="normal" 
>
<path vector-effect="none" fill-rule="evenodd" d="M1,6 C1,3.23858 3.23858,1 6,1 L95,1 C97.7614,1 100,3.23858 100,6 L100,125 C100,127.761 97.7614,130 95,130 L6,130 C3.23858,130 1,127.761 1,125 L1,6"/>
</g>

<g fill="none" stroke="#000000" stroke-opacity="1" stroke-width="2" stroke-linecap="square" stroke-linejoin="bevel" transform="matrix(1,0,0,1,0,0)"
font-family="Noto Sans" font-size="10" font-weight="400" font-style="normal" 
>
<path vector-effect="none" fill-rule="evenodd" d="M1,6 C1,3.23858 3.23858,1 6,1 L95,1 C97.7614,1 100,3.23858 100,6 L100,125 C100,127.761 97.7614,130 95,130 L6,130 C3.23858,130 1,127.761 1,125 L1,6"/>
</g>

<g fill="none" stroke="#000000" stroke-opacity="1" stroke-width="2" stroke-linecap="square" stroke-linejoin="bevel" transform="matrix(1,0,0,1,0,0)"
font-family="Noto Sans CJK JP" font-size="90" font-weight="400" font-style="normal" 
>
<path vector-effect="none" fill-rule="evenodd" d="M26.6875,37.9219 C27.2344,40.5313 27.5,43.6875 27.5,46.9219 C27.5,56.3906 26.5938,78.8906 26.5938,92.1406 C26.5938,106.625 35.4219,112.031 48.2031,112.031 C67.8125,112.031 79.3438,100.875 85.3594,92.4063 L80.4219,86.1875 C74.0313,95.4688 64.75,104.656 48.375,104.656 C40.0938,104.656 33.7969,101.234 33.7969,91.4219 C33.7969,78.0938 34.5156,57.0156 34.875,46.9219 C35.0625,44.0469 35.3281,40.8906 35.7813,38.0156 L26.6875,37.9219"/>
</g>

<g fill="#000000" fill-opacity="1" stroke="none" transform="matrix(1,0,0,1,0,0)"
font-family="Noto Sans CJK JP" font-size="90" font-weight="400" font-style="normal" 
>
<path vector-effect="none" fill-rule="evenodd" d="M26.6875,37.9219 C27.2344,40.5313 27.5,43.6875 27.5,46.9219 C27.5,56.3906 26.5938,78.8906 26.5938,92.1406 C26.5938,106.625 35.4219,112.031 48.2031,112.031 C67.8125,112.031 79.3438,100.875 85.3594,92.4063 L80.4219,86.1875 C74.0313,95.4688 64.75,104.656 48.375,104.656 C40.0938,104.656 33.7969,101.234 33.7969,91.4219 C33.7969,78.0938 34.5156,57.0156 34.875,46.9219 C35.0625,44.0469 35.3281,40.8906 35.7813,38.0156 L26.6875,37.9219"/>
</g>
</g>
</svg>
