<?xml version="1.0" encoding="UTF-8" standalone="no"?>
<svg width="70.5556mm" height="45.8611mm"
 xmlns="http://www.w3.org/2000/svg" xmlns:xlink="http://www.w3.org/1999/xlink"  version="1.2" baseProfile="tiny">
<title>Qt SVG Document</title>
<desc>Generated with Qt</desc>
<defs>
</defs>
<g fill="none" stroke="black" stroke-width="1" fill-rule="evenodd" stroke-linecap="square" stroke-linejoin="bevel" >

<g fill="#808080" fill-opacity="1" stroke="none" transform="matrix(1,0,0,1,0,0)"
font-family="Noto Sans" font-size="10" font-weight="400" font-style="normal" 
>
<path vector-effect="none" fill-rule="evenodd" d="M1,6 C1,3.23858 3.23858,1 6,1 L195,1 C197.761,1 200,3.23858 200,6 L200,125 C200,127.761 197.761,130 195,130 L6,130 C3.23858,130 1,127.761 1,125 L1,6"/>
</g>

<g fill="none" stroke="#000000" stroke-opacity="1" stroke-width="2" stroke-linecap="square" stroke-linejoin="bevel" transform="matrix(1,0,0,1,0,0)"
font-family="Noto Sans" font-size="10" font-weight="400" font-style="normal" 
>
<path vector-effect="none" fill-rule="evenodd" d="M1,6 C1,3.23858 3.23858,1 6,1 L195,1 C197.761,1 200,3.23858 200,6 L200,125 C200,127.761 197.761,130 195,130 L6,130 C3.23858,130 1,127.761 1,125 L1,6"/>
</g>

<g fill="none" stroke="#000000" stroke-opacity="1" stroke-width="2" stroke-linecap="square" stroke-linejoin="bevel" transform="matrix(1,0,0,1,0,0)"
font-family="Noto Sans CJK JP" font-size="90" font-weight="400" font-style="normal" 
>
<path vector-effect="none" fill-rule="evenodd" d="M36.8125,101.391 L45.0938,101.391 L45.0938,71.875 L73.5313,71.875 L73.5313,64.7656 L45.0938,64.7656 L45.0938,42.3594 L80.2031,42.3594 L80.2031,35.25 L36.8125,35.25 L36.8125,101.391 M129.328,76.6406 L146.156,53.7813 C148.5,50.4531 150.656,46.6719 153.266,42.5313 L153.625,42.5313 C153.359,46.9375 153.266,51 153.266,54.5938 L153.266,76.6406 L129.328,76.6406 M171.172,76.6406 L161,76.6406 L161,35.25 L150.828,35.25 L119.969,77.7188 L119.969,83.2188 L153.266,83.2188 L153.266,101.391 L161,101.391 L161,83.2188 L171.172,83.2188 L171.172,76.6406"/>
</g>

<g fill="#ffffff" fill-opacity="1" stroke="none" transform="matrix(1,0,0,1,0,0)"
font-family="Noto Sans CJK JP" font-size="90" font-weight="400" font-style="normal" 
>
<path vector-effect="none" fill-rule="evenodd" d="M36.8125,101.391 L45.0938,101.391 L45.0938,71.875 L73.5313,71.875 L73.5313,64.7656 L45.0938,64.7656 L45.0938,42.3594 L80.2031,42.3594 L80.2031,35.25 L36.8125,35.25 L36.8125,101.391 M129.328,76.6406 L146.156,53.7813 C148.5,50.4531 150.656,46.6719 153.266,42.5313 L153.625,42.5313 C153.359,46.9375 153.266,51 153.266,54.5938 L153.266,76.6406 L129.328,76.6406 M171.172,76.6406 L161,76.6406 L161,35.25 L150.828,35.25 L119.969,77.7188 L119.969,83.2188 L153.266,83.2188 L153.266,101.391 L161,101.391 L161,83.2188 L171.172,83.2188 L171.172,76.6406"/>
</g>
</g>
</svg>
