<?xml version="1.0" encoding="UTF-8" standalone="no"?>
<svg width="35.2778mm" height="45.8611mm"
 xmlns="http://www.w3.org/2000/svg" xmlns:xlink="http://www.w3.org/1999/xlink"  version="1.2" baseProfile="tiny">
<title>Qt SVG Document</title>
<desc>Generated with Qt</desc>
<defs>
</defs>
<g fill="none" stroke="black" stroke-width="1" fill-rule="evenodd" stroke-linecap="square" stroke-linejoin="bevel" >

<g fill="#c0c0c0" fill-opacity="1" stroke="none" transform="matrix(1,0,0,1,0,0)"
font-family="Noto Sans" font-size="10" font-weight="400" font-style="normal" 
>
<path vector-effect="none" fill-rule="evenodd" d="M1,6 C1,3.23858 3.23858,1 6,1 L95,1 C97.7614,1 100,3.23858 100,6 L100,125 C100,127.761 97.7614,130 95,130 L6,130 C3.23858,130 1,127.761 1,125 L1,6"/>
</g>

<g fill="none" stroke="#000000" stroke-opacity="1" stroke-width="2" stroke-linecap="square" stroke-linejoin="bevel" transform="matrix(1,0,0,1,0,0)"
font-family="Noto Sans" font-size="10" font-weight="400" font-style="normal" 
>
<path vector-effect="none" fill-rule="evenodd" d="M1,6 C1,3.23858 3.23858,1 6,1 L95,1 C97.7614,1 100,3.23858 100,6 L100,125 C100,127.761 97.7614,130 95,130 L6,130 C3.23858,130 1,127.761 1,125 L1,6"/>
</g>

<g fill="none" stroke="#000000" stroke-opacity="1" stroke-width="2" stroke-linecap="square" stroke-linejoin="bevel" transform="matrix(1,0,0,1,0,0)"
font-family="Noto Sans CJK JP" font-size="90" font-weight="400" font-style="normal" 
>
<path vector-effect="none" fill-rule="evenodd" d="M47.0313,95.6563 C47.0313,101.766 43.875,104.828 37.3125,104.828 C28.7656,104.828 23.8125,102.125 23.8125,97.1875 C23.8125,92.3281 29.0313,89.1719 38.2031,89.1719 C41.1719,89.1719 44.0625,89.4375 46.9375,90.0781 C46.9375,92.3281 47.0313,94.2188 47.0313,95.6563 M53.0625,62 C60.3438,61.8125 71.7813,61.2656 79.7031,60.5469 L79.4219,53.7031 C71.4219,54.7969 60.1719,55.25 53.0625,55.4219 C53.0625,51.9063 52.9688,48.75 53.0625,46.3125 C53.1406,43.6094 53.4219,39.375 53.7813,37.4844 L45.1406,37.4844 C45.5,39.2031 45.7656,43.0781 45.8594,46.3125 C45.9531,50.1094 45.9531,57.5 45.9531,62.625 C45.9531,67.9375 46.3125,76.125 46.6719,83.3281 C44.1406,82.9688 41.625,82.7813 39.1094,82.7813 C23.7188,82.7813 16.7031,89.4375 16.7031,97.4531 C16.7031,107.625 25.7969,111.578 38.0313,111.578 C49.9063,111.578 54.4063,105.281 54.4063,97.9844 C54.4063,96.375 54.3125,94.3906 54.2344,92.0469 C63.5,95.2969 71.6875,100.953 77.3594,106.719 L81.6719,100.063 C75.2031,94.2188 65.3906,88 53.9531,84.8438 C53.5156,77.1094 53.0625,68.4688 53.0625,62.625 L53.0625,62"/>
</g>

<g fill="#000000" fill-opacity="1" stroke="none" transform="matrix(1,0,0,1,0,0)"
font-family="Noto Sans CJK JP" font-size="90" font-weight="400" font-style="normal" 
>
<path vector-effect="none" fill-rule="evenodd" d="M47.0313,95.6563 C47.0313,101.766 43.875,104.828 37.3125,104.828 C28.7656,104.828 23.8125,102.125 23.8125,97.1875 C23.8125,92.3281 29.0313,89.1719 38.2031,89.1719 C41.1719,89.1719 44.0625,89.4375 46.9375,90.0781 C46.9375,92.3281 47.0313,94.2188 47.0313,95.6563 M53.0625,62 C60.3438,61.8125 71.7813,61.2656 79.7031,60.5469 L79.4219,53.7031 C71.4219,54.7969 60.1719,55.25 53.0625,55.4219 C53.0625,51.9063 52.9688,48.75 53.0625,46.3125 C53.1406,43.6094 53.4219,39.375 53.7813,37.4844 L45.1406,37.4844 C45.5,39.2031 45.7656,43.0781 45.8594,46.3125 C45.9531,50.1094 45.9531,57.5 45.9531,62.625 C45.9531,67.9375 46.3125,76.125 46.6719,83.3281 C44.1406,82.9688 41.625,82.7813 39.1094,82.7813 C23.7188,82.7813 16.7031,89.4375 16.7031,97.4531 C16.7031,107.625 25.7969,111.578 38.0313,111.578 C49.9063,111.578 54.4063,105.281 54.4063,97.9844 C54.4063,96.375 54.3125,94.3906 54.2344,92.0469 C63.5,95.2969 71.6875,100.953 77.3594,106.719 L81.6719,100.063 C75.2031,94.2188 65.3906,88 53.9531,84.8438 C53.5156,77.1094 53.0625,68.4688 53.0625,62.625 L53.0625,62"/>
</g>
</g>
</svg>
