<?xml version="1.0" encoding="UTF-8" standalone="no"?>
<svg width="35.2778mm" height="45.8611mm"
 xmlns="http://www.w3.org/2000/svg" xmlns:xlink="http://www.w3.org/1999/xlink"  version="1.2" baseProfile="tiny">
<title>Qt SVG Document</title>
<desc>Generated with Qt</desc>
<defs>
</defs>
<g fill="none" stroke="black" stroke-width="1" fill-rule="evenodd" stroke-linecap="square" stroke-linejoin="bevel" >

<g fill="#c0c0c0" fill-opacity="1" stroke="none" transform="matrix(1,0,0,1,0,0)"
font-family="Noto Sans" font-size="10" font-weight="400" font-style="normal" 
>
<path vector-effect="none" fill-rule="evenodd" d="M1,6 C1,3.23858 3.23858,1 6,1 L95,1 C97.7614,1 100,3.23858 100,6 L100,125 C100,127.761 97.7614,130 95,130 L6,130 C3.23858,130 1,127.761 1,125 L1,6"/>
</g>

<g fill="none" stroke="#000000" stroke-opacity="1" stroke-width="2" stroke-linecap="square" stroke-linejoin="bevel" transform="matrix(1,0,0,1,0,0)"
font-family="Noto Sans" font-size="10" font-weight="400" font-style="normal" 
>
<path vector-effect="none" fill-rule="evenodd" d="M1,6 C1,3.23858 3.23858,1 6,1 L95,1 C97.7614,1 100,3.23858 100,6 L100,125 C100,127.761 97.7614,130 95,130 L6,130 C3.23858,130 1,127.761 1,125 L1,6"/>
</g>

<g fill="none" stroke="#000000" stroke-opacity="1" stroke-width="2" stroke-linecap="square" stroke-linejoin="bevel" transform="matrix(1,0,0,1,0,0)"
font-family="Noto Sans CJK JP" font-size="90" font-weight="400" font-style="normal" 
>
<path vector-effect="none" fill-rule="evenodd" d="M75.2813,45.9688 C64.3906,48.4063 51.2656,49.8438 40.5469,50.2969 C41,48.3125 41.2656,46.5 41.5313,45.1563 C41.9844,42.8125 42.5313,40.0156 43.1563,37.6719 L35.1563,37.2188 C35.2344,39.6563 35.1563,41.7188 34.7031,44.6094 C34.5156,46.1406 34.25,48.125 33.7969,50.4688 L32.3594,50.4688 C26.9531,50.4688 20.125,49.75 15.4375,48.9375 L15.5313,56.0469 C20.6563,56.5 26.4219,56.8594 32.4531,56.8594 L32.5313,56.8594 C30.2813,66.9375 26.6875,79.7188 22.1875,88.5469 L28.8438,90.9688 C29.6563,89.3438 30.4688,88.1875 31.6406,86.8281 C37.4844,79.7188 47.2969,76.2188 57.9219,76.2188 C68.3594,76.2188 73.75,81.25 73.75,87.9063 C73.75,102.484 53.7813,106.094 33.2656,103.203 L35.2344,110.328 C62.2344,113.297 81.1406,106.266 81.1406,87.7344 C81.1406,77.2969 72.8594,70 58.6406,70 C48.7344,70 41.4531,72.25 33.7031,77.7344 C35.5938,72.6094 37.6719,64.1563 39.2813,56.6875 C50.7188,56.2344 64.9375,54.7969 75.375,52.9063 L75.2813,45.9688"/>
</g>

<g fill="#000000" fill-opacity="1" stroke="none" transform="matrix(1,0,0,1,0,0)"
font-family="Noto Sans CJK JP" font-size="90" font-weight="400" font-style="normal" 
>
<path vector-effect="none" fill-rule="evenodd" d="M75.2813,45.9688 C64.3906,48.4063 51.2656,49.8438 40.5469,50.2969 C41,48.3125 41.2656,46.5 41.5313,45.1563 C41.9844,42.8125 42.5313,40.0156 43.1563,37.6719 L35.1563,37.2188 C35.2344,39.6563 35.1563,41.7188 34.7031,44.6094 C34.5156,46.1406 34.25,48.125 33.7969,50.4688 L32.3594,50.4688 C26.9531,50.4688 20.125,49.75 15.4375,48.9375 L15.5313,56.0469 C20.6563,56.5 26.4219,56.8594 32.4531,56.8594 L32.5313,56.8594 C30.2813,66.9375 26.6875,79.7188 22.1875,88.5469 L28.8438,90.9688 C29.6563,89.3438 30.4688,88.1875 31.6406,86.8281 C37.4844,79.7188 47.2969,76.2188 57.9219,76.2188 C68.3594,76.2188 73.75,81.25 73.75,87.9063 C73.75,102.484 53.7813,106.094 33.2656,103.203 L35.2344,110.328 C62.2344,113.297 81.1406,106.266 81.1406,87.7344 C81.1406,77.2969 72.8594,70 58.6406,70 C48.7344,70 41.4531,72.25 33.7031,77.7344 C35.5938,72.6094 37.6719,64.1563 39.2813,56.6875 C50.7188,56.2344 64.9375,54.7969 75.375,52.9063 L75.2813,45.9688"/>
</g>
</g>
</svg>
