<?xml version="1.0" encoding="UTF-8" standalone="no"?>
<svg width="35.2778mm" height="45.8611mm"
 xmlns="http://www.w3.org/2000/svg" xmlns:xlink="http://www.w3.org/1999/xlink"  version="1.2" baseProfile="tiny">
<title>Qt SVG Document</title>
<desc>Generated with Qt</desc>
<defs>
</defs>
<g fill="none" stroke="black" stroke-width="1" fill-rule="evenodd" stroke-linecap="square" stroke-linejoin="bevel" >

<g fill="#c0c0c0" fill-opacity="1" stroke="none" transform="matrix(1,0,0,1,0,0)"
font-family="Noto Sans" font-size="10" font-weight="400" font-style="normal" 
>
<path vector-effect="none" fill-rule="evenodd" d="M1,6 C1,3.23858 3.23858,1 6,1 L95,1 C97.7614,1 100,3.23858 100,6 L100,125 C100,127.761 97.7614,130 95,130 L6,130 C3.23858,130 1,127.761 1,125 L1,6"/>
</g>

<g fill="none" stroke="#000000" stroke-opacity="1" stroke-width="2" stroke-linecap="square" stroke-linejoin="bevel" transform="matrix(1,0,0,1,0,0)"
font-family="Noto Sans" font-size="10" font-weight="400" font-style="normal" 
>
<path vector-effect="none" fill-rule="evenodd" d="M1,6 C1,3.23858 3.23858,1 6,1 L95,1 C97.7614,1 100,3.23858 100,6 L100,125 C100,127.761 97.7614,130 95,130 L6,130 C3.23858,130 1,127.761 1,125 L1,6"/>
</g>

<g fill="none" stroke="#000000" stroke-opacity="1" stroke-width="2" stroke-linecap="square" stroke-linejoin="bevel" transform="matrix(1,0,0,1,0,0)"
font-family="Noto Sans CJK JP" font-size="90" font-weight="400" font-style="normal" 
>
<path vector-effect="none" fill-rule="evenodd" d="M32.0938,38.7656 L28.0469,44.7969 C33.3438,47.8594 43.0625,54.3438 47.3906,57.5781 L51.625,51.4688 C47.75,48.5781 37.4063,41.75 32.0938,38.7656 M18.5938,103.031 L22.7344,110.406 C31.0938,108.703 43.5156,104.469 52.6094,99.25 C66.9219,90.7969 79.3438,79.1875 87.1719,67.0313 L82.8438,59.6563 C75.5625,72.3438 63.6719,84.0469 48.7344,92.5938 C39.6563,97.8125 28.4844,101.328 18.5938,103.031 M18.5,59.0156 L14.5469,65.1406 C19.9375,67.9375 29.75,74.2344 34.1563,77.4688 L38.2969,71.1719 C34.3438,68.2969 23.9063,61.9063 18.5,59.0156 "/>
</g>

<g fill="#000000" fill-opacity="1" stroke="none" transform="matrix(1,0,0,1,0,0)"
font-family="Noto Sans CJK JP" font-size="90" font-weight="400" font-style="normal" 
>
<path vector-effect="none" fill-rule="evenodd" d="M32.0938,38.7656 L28.0469,44.7969 C33.3438,47.8594 43.0625,54.3438 47.3906,57.5781 L51.625,51.4688 C47.75,48.5781 37.4063,41.75 32.0938,38.7656 M18.5938,103.031 L22.7344,110.406 C31.0938,108.703 43.5156,104.469 52.6094,99.25 C66.9219,90.7969 79.3438,79.1875 87.1719,67.0313 L82.8438,59.6563 C75.5625,72.3438 63.6719,84.0469 48.7344,92.5938 C39.6563,97.8125 28.4844,101.328 18.5938,103.031 M18.5,59.0156 L14.5469,65.1406 C19.9375,67.9375 29.75,74.2344 34.1563,77.4688 L38.2969,71.1719 C34.3438,68.2969 23.9063,61.9063 18.5,59.0156 "/>
</g>
</g>
</svg>
