<?xml version="1.0" encoding="UTF-8" standalone="no"?>
<svg width="35.2778mm" height="45.8611mm"
 xmlns="http://www.w3.org/2000/svg" xmlns:xlink="http://www.w3.org/1999/xlink"  version="1.2" baseProfile="tiny">
<title>Qt SVG Document</title>
<desc>Generated with Qt</desc>
<defs>
</defs>
<g fill="none" stroke="black" stroke-width="1" fill-rule="evenodd" stroke-linecap="square" stroke-linejoin="bevel" >

<g fill="#c0c0c0" fill-opacity="1" stroke="none" transform="matrix(1,0,0,1,0,0)"
font-family="Noto Sans" font-size="10" font-weight="400" font-style="normal" 
>
<path vector-effect="none" fill-rule="evenodd" d="M1,6 C1,3.23858 3.23858,1 6,1 L95,1 C97.7614,1 100,3.23858 100,6 L100,125 C100,127.761 97.7614,130 95,130 L6,130 C3.23858,130 1,127.761 1,125 L1,6"/>
</g>

<g fill="none" stroke="#000000" stroke-opacity="1" stroke-width="2" stroke-linecap="square" stroke-linejoin="bevel" transform="matrix(1,0,0,1,0,0)"
font-family="Noto Sans" font-size="10" font-weight="400" font-style="normal" 
>
<path vector-effect="none" fill-rule="evenodd" d="M1,6 C1,3.23858 3.23858,1 6,1 L95,1 C97.7614,1 100,3.23858 100,6 L100,125 C100,127.761 97.7614,130 95,130 L6,130 C3.23858,130 1,127.761 1,125 L1,6"/>
</g>

<g fill="none" stroke="#000000" stroke-opacity="1" stroke-width="2" stroke-linecap="square" stroke-linejoin="bevel" transform="matrix(1,0,0,1,0,0)"
font-family="Noto Sans CJK JP" font-size="90" font-weight="400" font-style="normal" 
>
<path vector-effect="none" fill-rule="evenodd" d="M7.34375,44.2656 C7.34375,49.9375 11.8438,54.5156 17.5938,54.5156 C23.3594,54.5156 27.8594,49.9375 27.8594,44.2656 C27.8594,38.5 23.3594,33.9063 17.5938,33.9063 C11.8438,33.9063 7.34375,38.5938 7.34375,44.2656 M11.2031,44.2656 C11.2031,40.8438 14.1719,37.9688 17.5938,37.9688 C21.0156,37.9688 23.9063,40.8438 23.9063,44.2656 C23.9063,47.5938 21.0156,50.5625 17.5938,50.5625 C14.1719,50.5625 11.2031,47.5 11.2031,44.2656 "/>
</g>

<g fill="#000000" fill-opacity="1" stroke="none" transform="matrix(1,0,0,1,0,0)"
font-family="Noto Sans CJK JP" font-size="90" font-weight="400" font-style="normal" 
>
<path vector-effect="none" fill-rule="evenodd" d="M7.34375,44.2656 C7.34375,49.9375 11.8438,54.5156 17.5938,54.5156 C23.3594,54.5156 27.8594,49.9375 27.8594,44.2656 C27.8594,38.5 23.3594,33.9063 17.5938,33.9063 C11.8438,33.9063 7.34375,38.5938 7.34375,44.2656 M11.2031,44.2656 C11.2031,40.8438 14.1719,37.9688 17.5938,37.9688 C21.0156,37.9688 23.9063,40.8438 23.9063,44.2656 C23.9063,47.5938 21.0156,50.5625 17.5938,50.5625 C14.1719,50.5625 11.2031,47.5 11.2031,44.2656 "/>
</g>
</g>
</svg>
