<?xml version="1.0" encoding="UTF-8" standalone="no"?>
<svg width="35.2778mm" height="45.8611mm"
 xmlns="http://www.w3.org/2000/svg" xmlns:xlink="http://www.w3.org/1999/xlink"  version="1.2" baseProfile="tiny">
<title>Qt SVG Document</title>
<desc>Generated with Qt</desc>
<defs>
</defs>
<g fill="none" stroke="black" stroke-width="1" fill-rule="evenodd" stroke-linecap="square" stroke-linejoin="bevel" >

<g fill="#c0c0c0" fill-opacity="1" stroke="none" transform="matrix(1,0,0,1,0,0)"
font-family="Noto Sans" font-size="10" font-weight="400" font-style="normal" 
>
<path vector-effect="none" fill-rule="evenodd" d="M1,6 C1,3.23858 3.23858,1 6,1 L95,1 C97.7614,1 100,3.23858 100,6 L100,125 C100,127.761 97.7614,130 95,130 L6,130 C3.23858,130 1,127.761 1,125 L1,6"/>
</g>

<g fill="none" stroke="#000000" stroke-opacity="1" stroke-width="2" stroke-linecap="square" stroke-linejoin="bevel" transform="matrix(1,0,0,1,0,0)"
font-family="Noto Sans" font-size="10" font-weight="400" font-style="normal" 
>
<path vector-effect="none" fill-rule="evenodd" d="M1,6 C1,3.23858 3.23858,1 6,1 L95,1 C97.7614,1 100,3.23858 100,6 L100,125 C100,127.761 97.7614,130 95,130 L6,130 C3.23858,130 1,127.761 1,125 L1,6"/>
</g>

<g fill="none" stroke="#000000" stroke-opacity="1" stroke-width="2" stroke-linecap="square" stroke-linejoin="bevel" transform="matrix(1,0,0,1,0,0)"
font-family="Noto Sans CJK JP" font-size="90" font-weight="400" font-style="normal" 
>
<path vector-effect="none" fill-rule="evenodd" d="M64.0313,53.7188 L63.8594,44.9688 C63.8594,42.4375 64.0313,39.9219 64.3906,37.3906 L56.0313,37.3906 C56.5625,40.0156 56.6563,42.8125 56.8438,44.9688 C56.9219,47.0469 57.0156,50.1094 57.1094,53.7188 L24.3438,53.7188 C21.5625,53.7188 18.6719,53.5313 16.0625,53.1719 L16.0625,60.8281 C18.8594,60.6406 21.4688,60.5469 24.4375,60.5469 L54.1406,60.5469 C47.0313,71.3594 31.0156,86.2969 12.8281,95.2031 L17.9531,101.047 C34.0625,92.5 49.8125,77.9219 57.2813,67.2969 C57.4688,79.3594 57.5625,92.7656 57.5625,99.9688 C57.5625,102.406 56.8438,103.578 54.2344,103.578 C50.8906,103.578 45.8594,103.203 41.5313,102.484 L42.1719,109.875 C46.5781,110.234 51.9844,110.406 56.5625,110.406 C61.9688,110.406 64.75,107.891 64.75,103.203 C64.6719,91.9688 64.3906,74.0469 64.125,60.5469 L78.4375,60.5469 C80.5938,60.5469 83.75,60.6406 85.8125,60.7344 L85.8125,53.1719 C84.0156,53.4375 80.5,53.7188 78.1719,53.7188 L64.0313,53.7188"/>
</g>

<g fill="#000000" fill-opacity="1" stroke="none" transform="matrix(1,0,0,1,0,0)"
font-family="Noto Sans CJK JP" font-size="90" font-weight="400" font-style="normal" 
>
<path vector-effect="none" fill-rule="evenodd" d="M64.0313,53.7188 L63.8594,44.9688 C63.8594,42.4375 64.0313,39.9219 64.3906,37.3906 L56.0313,37.3906 C56.5625,40.0156 56.6563,42.8125 56.8438,44.9688 C56.9219,47.0469 57.0156,50.1094 57.1094,53.7188 L24.3438,53.7188 C21.5625,53.7188 18.6719,53.5313 16.0625,53.1719 L16.0625,60.8281 C18.8594,60.6406 21.4688,60.5469 24.4375,60.5469 L54.1406,60.5469 C47.0313,71.3594 31.0156,86.2969 12.8281,95.2031 L17.9531,101.047 C34.0625,92.5 49.8125,77.9219 57.2813,67.2969 C57.4688,79.3594 57.5625,92.7656 57.5625,99.9688 C57.5625,102.406 56.8438,103.578 54.2344,103.578 C50.8906,103.578 45.8594,103.203 41.5313,102.484 L42.1719,109.875 C46.5781,110.234 51.9844,110.406 56.5625,110.406 C61.9688,110.406 64.75,107.891 64.75,103.203 C64.6719,91.9688 64.3906,74.0469 64.125,60.5469 L78.4375,60.5469 C80.5938,60.5469 83.75,60.6406 85.8125,60.7344 L85.8125,53.1719 C84.0156,53.4375 80.5,53.7188 78.1719,53.7188 L64.0313,53.7188"/>
</g>
</g>
</svg>
