<?xml version="1.0" encoding="UTF-8" standalone="no"?>
<svg width="35.2778mm" height="45.8611mm"
 xmlns="http://www.w3.org/2000/svg" xmlns:xlink="http://www.w3.org/1999/xlink"  version="1.2" baseProfile="tiny">
<title>Qt SVG Document</title>
<desc>Generated with Qt</desc>
<defs>
</defs>
<g fill="none" stroke="black" stroke-width="1" fill-rule="evenodd" stroke-linecap="square" stroke-linejoin="bevel" >

<g fill="#c0c0c0" fill-opacity="1" stroke="none" transform="matrix(1,0,0,1,0,0)"
font-family="Noto Sans" font-size="10" font-weight="400" font-style="normal" 
>
<path vector-effect="none" fill-rule="evenodd" d="M1,6 C1,3.23858 3.23858,1 6,1 L95,1 C97.7614,1 100,3.23858 100,6 L100,125 C100,127.761 97.7614,130 95,130 L6,130 C3.23858,130 1,127.761 1,125 L1,6"/>
</g>

<g fill="none" stroke="#000000" stroke-opacity="1" stroke-width="2" stroke-linecap="square" stroke-linejoin="bevel" transform="matrix(1,0,0,1,0,0)"
font-family="Noto Sans" font-size="10" font-weight="400" font-style="normal" 
>
<path vector-effect="none" fill-rule="evenodd" d="M1,6 C1,3.23858 3.23858,1 6,1 L95,1 C97.7614,1 100,3.23858 100,6 L100,125 C100,127.761 97.7614,130 95,130 L6,130 C3.23858,130 1,127.761 1,125 L1,6"/>
</g>

<g fill="none" stroke="#000000" stroke-opacity="1" stroke-width="2" stroke-linecap="square" stroke-linejoin="bevel" transform="matrix(1,0,0,1,0,0)"
font-family="Noto Sans CJK JP" font-size="90" font-weight="400" font-style="normal" 
>
<path vector-effect="none" fill-rule="evenodd" d="M82.3906,47.5 C81.3125,48.0469 79.7031,48.5 78.3438,48.7656 C74.8438,49.5781 55.9375,53.1719 40.4531,56.1406 L36.9531,43.3594 C36.1406,40.5781 35.5938,38.3281 35.4219,36.4375 L27.1406,38.4063 C28.125,40.2188 28.7656,42.2813 29.6563,45.1563 C30.2031,47.0469 31.4531,51.6406 33.0781,57.5 L19.7656,60.0156 C16.5156,60.4688 13.9063,60.8281 10.7656,61.0938 L12.8281,68.8281 C15.7031,68.1094 24.625,66.3125 34.875,64.1563 C39.2031,79.8125 44.5156,99.7969 45.8594,104.469 C46.5781,106.906 47.125,109.875 47.4844,111.844 L55.8438,109.875 C55.125,107.797 54.0469,104.734 53.5156,102.844 C51.9844,97.8125 46.7656,78.8281 42.3438,62.7188 C57.8281,59.5625 74.0313,56.3281 76.7344,55.875 C73.3906,61.625 64.75,72.7031 57.375,78.6406 L64.6719,82.0625 C72.0469,74.7656 83.2031,60.0156 87.4375,51.1875 L82.3906,47.5"/>
</g>

<g fill="#000000" fill-opacity="1" stroke="none" transform="matrix(1,0,0,1,0,0)"
font-family="Noto Sans CJK JP" font-size="90" font-weight="400" font-style="normal" 
>
<path vector-effect="none" fill-rule="evenodd" d="M82.3906,47.5 C81.3125,48.0469 79.7031,48.5 78.3438,48.7656 C74.8438,49.5781 55.9375,53.1719 40.4531,56.1406 L36.9531,43.3594 C36.1406,40.5781 35.5938,38.3281 35.4219,36.4375 L27.1406,38.4063 C28.125,40.2188 28.7656,42.2813 29.6563,45.1563 C30.2031,47.0469 31.4531,51.6406 33.0781,57.5 L19.7656,60.0156 C16.5156,60.4688 13.9063,60.8281 10.7656,61.0938 L12.8281,68.8281 C15.7031,68.1094 24.625,66.3125 34.875,64.1563 C39.2031,79.8125 44.5156,99.7969 45.8594,104.469 C46.5781,106.906 47.125,109.875 47.4844,111.844 L55.8438,109.875 C55.125,107.797 54.0469,104.734 53.5156,102.844 C51.9844,97.8125 46.7656,78.8281 42.3438,62.7188 C57.8281,59.5625 74.0313,56.3281 76.7344,55.875 C73.3906,61.625 64.75,72.7031 57.375,78.6406 L64.6719,82.0625 C72.0469,74.7656 83.2031,60.0156 87.4375,51.1875 L82.3906,47.5"/>
</g>
</g>
</svg>
