<?xml version="1.0" encoding="UTF-8" standalone="no"?>
<svg width="35.2778mm" height="45.8611mm"
 xmlns="http://www.w3.org/2000/svg" xmlns:xlink="http://www.w3.org/1999/xlink"  version="1.2" baseProfile="tiny">
<title>Qt SVG Document</title>
<desc>Generated with Qt</desc>
<defs>
</defs>
<g fill="none" stroke="black" stroke-width="1" fill-rule="evenodd" stroke-linecap="square" stroke-linejoin="bevel" >

<g fill="#c0c0c0" fill-opacity="1" stroke="none" transform="matrix(1,0,0,1,0,0)"
font-family="Noto Sans" font-size="10" font-weight="400" font-style="normal" 
>
<path vector-effect="none" fill-rule="evenodd" d="M1,6 C1,3.23858 3.23858,1 6,1 L95,1 C97.7614,1 100,3.23858 100,6 L100,125 C100,127.761 97.7614,130 95,130 L6,130 C3.23858,130 1,127.761 1,125 L1,6"/>
</g>

<g fill="none" stroke="#000000" stroke-opacity="1" stroke-width="2" stroke-linecap="square" stroke-linejoin="bevel" transform="matrix(1,0,0,1,0,0)"
font-family="Noto Sans" font-size="10" font-weight="400" font-style="normal" 
>
<path vector-effect="none" fill-rule="evenodd" d="M1,6 C1,3.23858 3.23858,1 6,1 L95,1 C97.7614,1 100,3.23858 100,6 L100,125 C100,127.761 97.7614,130 95,130 L6,130 C3.23858,130 1,127.761 1,125 L1,6"/>
</g>

<g fill="none" stroke="#000000" stroke-opacity="1" stroke-width="2" stroke-linecap="square" stroke-linejoin="bevel" transform="matrix(1,0,0,1,0,0)"
font-family="Noto Sans CJK JP" font-size="90" font-weight="400" font-style="normal" 
>
<path vector-effect="none" fill-rule="evenodd" d="M54.8594,40.1875 L46.8438,36.9375 C45.7656,39.5469 44.5938,41.7188 43.6094,43.875 C38.75,52.4375 18.6719,90.1563 12.1094,108.156 L19.9375,110.766 C21.1094,106.359 24.8906,95.8281 27.5938,90.5156 C31.0938,83.5 37.6719,76.2969 44.875,76.2969 C48.9219,76.2969 51.1719,78.5469 51.3438,82.5156 C51.625,87.2813 51.4375,94.2188 51.7969,99.4375 C52.0625,104.656 55.2188,110.766 64.6719,110.766 C77.625,110.766 85.1875,100.781 89.8594,86.375 L83.9219,81.6094 C81.5938,91.0625 75.7344,103.297 65.8438,103.297 C61.9688,103.297 59,101.406 58.7344,97 C58.375,92.6875 58.5469,85.8438 58.375,80.5313 C58.0938,73.5156 53.7813,69.6406 47.8438,69.6406 C43.6094,69.6406 39.1094,71.1719 34.7813,75.0469 C39.375,66.4063 48.0156,50.6406 51.9844,44.5 C52.9688,42.7969 54.0469,41.1719 54.8594,40.1875 "/>
</g>

<g fill="#000000" fill-opacity="1" stroke="none" transform="matrix(1,0,0,1,0,0)"
font-family="Noto Sans CJK JP" font-size="90" font-weight="400" font-style="normal" 
>
<path vector-effect="none" fill-rule="evenodd" d="M54.8594,40.1875 L46.8438,36.9375 C45.7656,39.5469 44.5938,41.7188 43.6094,43.875 C38.75,52.4375 18.6719,90.1563 12.1094,108.156 L19.9375,110.766 C21.1094,106.359 24.8906,95.8281 27.5938,90.5156 C31.0938,83.5 37.6719,76.2969 44.875,76.2969 C48.9219,76.2969 51.1719,78.5469 51.3438,82.5156 C51.625,87.2813 51.4375,94.2188 51.7969,99.4375 C52.0625,104.656 55.2188,110.766 64.6719,110.766 C77.625,110.766 85.1875,100.781 89.8594,86.375 L83.9219,81.6094 C81.5938,91.0625 75.7344,103.297 65.8438,103.297 C61.9688,103.297 59,101.406 58.7344,97 C58.375,92.6875 58.5469,85.8438 58.375,80.5313 C58.0938,73.5156 53.7813,69.6406 47.8438,69.6406 C43.6094,69.6406 39.1094,71.1719 34.7813,75.0469 C39.375,66.4063 48.0156,50.6406 51.9844,44.5 C52.9688,42.7969 54.0469,41.1719 54.8594,40.1875 "/>
</g>
</g>
</svg>
