<?xml version="1.0" encoding="UTF-8" standalone="no"?>
<svg width="35.2778mm" height="45.8611mm"
 xmlns="http://www.w3.org/2000/svg" xmlns:xlink="http://www.w3.org/1999/xlink"  version="1.2" baseProfile="tiny">
<title>Qt SVG Document</title>
<desc>Generated with Qt</desc>
<defs>
</defs>
<g fill="none" stroke="black" stroke-width="1" fill-rule="evenodd" stroke-linecap="square" stroke-linejoin="bevel" >

<g fill="#c0c0c0" fill-opacity="1" stroke="none" transform="matrix(1,0,0,1,0,0)"
font-family="Noto Sans" font-size="10" font-weight="400" font-style="normal" 
>
<path vector-effect="none" fill-rule="evenodd" d="M1,6 C1,3.23858 3.23858,1 6,1 L95,1 C97.7614,1 100,3.23858 100,6 L100,125 C100,127.761 97.7614,130 95,130 L6,130 C3.23858,130 1,127.761 1,125 L1,6"/>
</g>

<g fill="none" stroke="#000000" stroke-opacity="1" stroke-width="2" stroke-linecap="square" stroke-linejoin="bevel" transform="matrix(1,0,0,1,0,0)"
font-family="Noto Sans" font-size="10" font-weight="400" font-style="normal" 
>
<path vector-effect="none" fill-rule="evenodd" d="M1,6 C1,3.23858 3.23858,1 6,1 L95,1 C97.7614,1 100,3.23858 100,6 L100,125 C100,127.761 97.7614,130 95,130 L6,130 C3.23858,130 1,127.761 1,125 L1,6"/>
</g>

<g fill="none" stroke="#000000" stroke-opacity="1" stroke-width="2" stroke-linecap="square" stroke-linejoin="bevel" transform="matrix(1,0,0,1,0,0)"
font-family="Noto Sans CJK JP" font-size="90" font-weight="400" font-style="normal" 
>
<path vector-effect="none" fill-rule="evenodd" d="M27.7656,36.875 C27.6719,39.0313 27.4063,41.75 27.0469,44.5313 C25.9688,51.7344 24.3438,64.8906 24.3438,73.3438 C24.3438,79.1094 24.7969,84.1563 25.25,87.4844 L32.2656,86.9531 C31.6406,82.5313 31.6406,79.4688 32.0938,76.0469 C33.1719,64.3438 43.4219,48.2188 54.5,48.2188 C63.9531,48.2188 68.625,58.3125 68.625,72.3594 C68.625,94.7813 53.5156,102.531 34.1563,105.5 L38.3906,111.984 C60.5313,107.938 76.0938,97.0313 76.0938,72.2656 C76.0938,53.5313 67.5469,41.6563 55.6719,41.6563 C44.4219,41.6563 35.0625,52.7188 31.5469,61.9063 C32.0938,55.7031 33.7969,43.7188 35.6875,37.1406 L27.7656,36.875"/>
</g>

<g fill="#000000" fill-opacity="1" stroke="none" transform="matrix(1,0,0,1,0,0)"
font-family="Noto Sans CJK JP" font-size="90" font-weight="400" font-style="normal" 
>
<path vector-effect="none" fill-rule="evenodd" d="M27.7656,36.875 C27.6719,39.0313 27.4063,41.75 27.0469,44.5313 C25.9688,51.7344 24.3438,64.8906 24.3438,73.3438 C24.3438,79.1094 24.7969,84.1563 25.25,87.4844 L32.2656,86.9531 C31.6406,82.5313 31.6406,79.4688 32.0938,76.0469 C33.1719,64.3438 43.4219,48.2188 54.5,48.2188 C63.9531,48.2188 68.625,58.3125 68.625,72.3594 C68.625,94.7813 53.5156,102.531 34.1563,105.5 L38.3906,111.984 C60.5313,107.938 76.0938,97.0313 76.0938,72.2656 C76.0938,53.5313 67.5469,41.6563 55.6719,41.6563 C44.4219,41.6563 35.0625,52.7188 31.5469,61.9063 C32.0938,55.7031 33.7969,43.7188 35.6875,37.1406 L27.7656,36.875"/>
</g>
</g>
</svg>
