<?xml version="1.0" encoding="UTF-8" standalone="no"?>
<svg width="35.2778mm" height="45.8611mm"
 xmlns="http://www.w3.org/2000/svg" xmlns:xlink="http://www.w3.org/1999/xlink"  version="1.2" baseProfile="tiny">
<title>Qt SVG Document</title>
<desc>Generated with Qt</desc>
<defs>
</defs>
<g fill="none" stroke="black" stroke-width="1" fill-rule="evenodd" stroke-linecap="square" stroke-linejoin="bevel" >

<g fill="#808080" fill-opacity="1" stroke="none" transform="matrix(1,0,0,1,0,0)"
font-family="Noto Sans" font-size="10" font-weight="400" font-style="normal" 
>
<path vector-effect="none" fill-rule="evenodd" d="M1,6 C1,3.23858 3.23858,1 6,1 L95,1 C97.7614,1 100,3.23858 100,6 L100,125 C100,127.761 97.7614,130 95,130 L6,130 C3.23858,130 1,127.761 1,125 L1,6"/>
</g>

<g fill="none" stroke="#000000" stroke-opacity="1" stroke-width="2" stroke-linecap="square" stroke-linejoin="bevel" transform="matrix(1,0,0,1,0,0)"
font-family="Noto Sans" font-size="10" font-weight="400" font-style="normal" 
>
<path vector-effect="none" fill-rule="evenodd" d="M1,6 C1,3.23858 3.23858,1 6,1 L95,1 C97.7614,1 100,3.23858 100,6 L100,125 C100,127.761 97.7614,130 95,130 L6,130 C3.23858,130 1,127.761 1,125 L1,6"/>
</g>

<g fill="none" stroke="#000000" stroke-opacity="1" stroke-width="2" stroke-linecap="square" stroke-linejoin="bevel" transform="matrix(1,0,0,1,0,0)"
font-family="Noto Sans CJK JP" font-size="45" font-weight="400" font-style="normal" 
>
<path vector-effect="none" fill-rule="evenodd" d="M41.9844,60.375 L39.6563,57.6719 C37.1719,60.0156 34.25,61.4063 30.6094,61.4063 C23.2656,61.4063 18.4531,56.1875 18.4531,47.9531 C18.4531,39.8125 23.2656,34.5938 30.6875,34.5938 C33.8906,34.5938 36.6719,35.9063 38.6563,37.75 L41.0469,35.0469 C38.7969,32.8906 35.2344,30.9531 30.6563,30.9531 C20.8906,30.9531 14.1719,37.5625 14.1719,48.0938 C14.1719,58.6719 20.9688,65.1094 30.4219,65.1094 C35.375,65.1094 38.9219,63.4375 41.9844,60.375 M82.9375,64.5625 L87.4844,64.5625 L74.75,31.4844 L69.6719,31.4844 L57.0625,64.5625 L61.4219,64.5625 L65.1719,54.4844 L79.2031,54.4844 L82.9375,64.5625 M66.1563,51.25 L68.1406,45.9844 C69.4844,42.2813 70.8281,38.6875 72.0938,34.8594 L72.2813,34.8594 C73.625,38.6406 74.9219,42.25 76.2813,45.9844 L78.2656,51.25 L66.1563,51.25 M16.3906,109.563 L20.5313,109.563 L20.5313,96.4219 L27.1406,96.4219 C35.5156,96.4219 40.9063,93.1406 40.9063,86.2031 C40.9063,79.0469 35.5156,76.4844 26.9219,76.4844 L16.3906,76.4844 L16.3906,109.563 M20.5313,93.0469 L20.5313,79.9063 L26.3281,79.9063 C33.1719,79.9063 36.7656,81.3438 36.7656,86.2031 C36.7656,91.0156 33.3438,93.0469 26.5469,93.0469 L20.5313,93.0469 M85.5469,100.828 C85.5469,95.8906 81.9531,93.4063 77.625,91.875 L72.3125,89.9844 C69.2969,88.9531 65.6563,87.6406 65.6563,84.4063 C65.6563,81.3438 68.8594,79.5938 73.0781,79.5938 C76.7813,79.5938 79.75,80.9063 82.125,82.875 L84.4219,80.1406 C81.7188,77.6563 77.8125,75.9531 73.125,75.9531 C66.3281,75.9531 61.4219,79.5469 61.4219,84.8594 C61.4219,89.625 65.75,92.0156 69.2188,93.2656 L74.5625,95.1563 C78.2188,96.5156 81.3125,97.7656 81.3125,101.188 C81.3125,104.516 77.8125,106.453 73,106.453 C68.9375,106.453 64.7969,104.75 62.0625,102.234 L59.5469,105.109 C62.8281,108.172 67.4219,110.141 72.9063,110.141 C80.6875,110.141 85.5469,106.188 85.5469,100.828 "/>
</g>

<g fill="#ffffff" fill-opacity="1" stroke="none" transform="matrix(1,0,0,1,0,0)"
font-family="Noto Sans CJK JP" font-size="45" font-weight="400" font-style="normal" 
>
<path vector-effect="none" fill-rule="evenodd" d="M41.9844,60.375 L39.6563,57.6719 C37.1719,60.0156 34.25,61.4063 30.6094,61.4063 C23.2656,61.4063 18.4531,56.1875 18.4531,47.9531 C18.4531,39.8125 23.2656,34.5938 30.6875,34.5938 C33.8906,34.5938 36.6719,35.9063 38.6563,37.75 L41.0469,35.0469 C38.7969,32.8906 35.2344,30.9531 30.6563,30.9531 C20.8906,30.9531 14.1719,37.5625 14.1719,48.0938 C14.1719,58.6719 20.9688,65.1094 30.4219,65.1094 C35.375,65.1094 38.9219,63.4375 41.9844,60.375 M82.9375,64.5625 L87.4844,64.5625 L74.75,31.4844 L69.6719,31.4844 L57.0625,64.5625 L61.4219,64.5625 L65.1719,54.4844 L79.2031,54.4844 L82.9375,64.5625 M66.1563,51.25 L68.1406,45.9844 C69.4844,42.2813 70.8281,38.6875 72.0938,34.8594 L72.2813,34.8594 C73.625,38.6406 74.9219,42.25 76.2813,45.9844 L78.2656,51.25 L66.1563,51.25 M16.3906,109.563 L20.5313,109.563 L20.5313,96.4219 L27.1406,96.4219 C35.5156,96.4219 40.9063,93.1406 40.9063,86.2031 C40.9063,79.0469 35.5156,76.4844 26.9219,76.4844 L16.3906,76.4844 L16.3906,109.563 M20.5313,93.0469 L20.5313,79.9063 L26.3281,79.9063 C33.1719,79.9063 36.7656,81.3438 36.7656,86.2031 C36.7656,91.0156 33.3438,93.0469 26.5469,93.0469 L20.5313,93.0469 M85.5469,100.828 C85.5469,95.8906 81.9531,93.4063 77.625,91.875 L72.3125,89.9844 C69.2969,88.9531 65.6563,87.6406 65.6563,84.4063 C65.6563,81.3438 68.8594,79.5938 73.0781,79.5938 C76.7813,79.5938 79.75,80.9063 82.125,82.875 L84.4219,80.1406 C81.7188,77.6563 77.8125,75.9531 73.125,75.9531 C66.3281,75.9531 61.4219,79.5469 61.4219,84.8594 C61.4219,89.625 65.75,92.0156 69.2188,93.2656 L74.5625,95.1563 C78.2188,96.5156 81.3125,97.7656 81.3125,101.188 C81.3125,104.516 77.8125,106.453 73,106.453 C68.9375,106.453 64.7969,104.75 62.0625,102.234 L59.5469,105.109 C62.8281,108.172 67.4219,110.141 72.9063,110.141 C80.6875,110.141 85.5469,106.188 85.5469,100.828 "/>
</g>
</g>
</svg>
