<?xml version="1.0" encoding="UTF-8" standalone="no"?>
<svg width="35.2778mm" height="45.8611mm"
 xmlns="http://www.w3.org/2000/svg" xmlns:xlink="http://www.w3.org/1999/xlink"  version="1.2" baseProfile="tiny">
<title>Qt SVG Document</title>
<desc>Generated with Qt</desc>
<defs>
</defs>
<g fill="none" stroke="black" stroke-width="1" fill-rule="evenodd" stroke-linecap="square" stroke-linejoin="bevel" >

<g fill="#c0c0c0" fill-opacity="1" stroke="none" transform="matrix(1,0,0,1,0,0)"
font-family="Noto Sans" font-size="10" font-weight="400" font-style="normal" 
>
<path vector-effect="none" fill-rule="evenodd" d="M1,6 C1,3.23858 3.23858,1 6,1 L95,1 C97.7614,1 100,3.23858 100,6 L100,125 C100,127.761 97.7614,130 95,130 L6,130 C3.23858,130 1,127.761 1,125 L1,6"/>
</g>

<g fill="none" stroke="#000000" stroke-opacity="1" stroke-width="2" stroke-linecap="square" stroke-linejoin="bevel" transform="matrix(1,0,0,1,0,0)"
font-family="Noto Sans" font-size="10" font-weight="400" font-style="normal" 
>
<path vector-effect="none" fill-rule="evenodd" d="M1,6 C1,3.23858 3.23858,1 6,1 L95,1 C97.7614,1 100,3.23858 100,6 L100,125 C100,127.761 97.7614,130 95,130 L6,130 C3.23858,130 1,127.761 1,125 L1,6"/>
</g>

<g fill="none" stroke="#000000" stroke-opacity="1" stroke-width="2" stroke-linecap="square" stroke-linejoin="bevel" transform="matrix(1,0,0,1,0,0)"
font-family="Noto Sans CJK JP" font-size="90" font-weight="400" font-style="normal" 
>
<path vector-effect="none" fill-rule="evenodd" d="M91.8438,116.438 L91.8438,111.766 L88.9688,111.766 C83.5625,111.766 82.2188,109.156 82.2188,102.672 C82.2188,96.6406 82.6719,91.4219 82.6719,84.6719 C82.6719,78.2813 81.1406,75.0469 76.7344,73.875 L76.7344,73.5156 C81.1406,72.3438 82.6719,69.1094 82.6719,62.7188 C82.6719,55.875 82.2188,50.75 82.2188,44.625 C82.2188,38.1406 83.5625,35.5313 88.9688,35.5313 L91.8438,35.5313 L91.8438,30.9375 L87.5313,30.9375 C79.7031,30.9375 75.9219,33.9063 75.9219,44.2656 C75.9219,51.375 76.8125,56.6875 76.8125,63.4375 C76.8125,67.2188 75.0156,71.0781 68.2656,71.1719 L68.2656,76.2188 C75.0156,76.2188 76.8125,80.0781 76.8125,83.8594 C76.8125,90.6094 75.9219,95.9219 75.9219,103.125 C75.9219,113.375 79.7031,116.438 87.5313,116.438 L91.8438,116.438"/>
</g>

<g fill="#000000" fill-opacity="1" stroke="none" transform="matrix(1,0,0,1,0,0)"
font-family="Noto Sans CJK JP" font-size="90" font-weight="400" font-style="normal" 
>
<path vector-effect="none" fill-rule="evenodd" d="M91.8438,116.438 L91.8438,111.766 L88.9688,111.766 C83.5625,111.766 82.2188,109.156 82.2188,102.672 C82.2188,96.6406 82.6719,91.4219 82.6719,84.6719 C82.6719,78.2813 81.1406,75.0469 76.7344,73.875 L76.7344,73.5156 C81.1406,72.3438 82.6719,69.1094 82.6719,62.7188 C82.6719,55.875 82.2188,50.75 82.2188,44.625 C82.2188,38.1406 83.5625,35.5313 88.9688,35.5313 L91.8438,35.5313 L91.8438,30.9375 L87.5313,30.9375 C79.7031,30.9375 75.9219,33.9063 75.9219,44.2656 C75.9219,51.375 76.8125,56.6875 76.8125,63.4375 C76.8125,67.2188 75.0156,71.0781 68.2656,71.1719 L68.2656,76.2188 C75.0156,76.2188 76.8125,80.0781 76.8125,83.8594 C76.8125,90.6094 75.9219,95.9219 75.9219,103.125 C75.9219,113.375 79.7031,116.438 87.5313,116.438 L91.8438,116.438"/>
</g>
</g>
</svg>
