<?xml version="1.0" encoding="UTF-8" standalone="no"?>
<svg width="35.2778mm" height="45.8611mm"
 xmlns="http://www.w3.org/2000/svg" xmlns:xlink="http://www.w3.org/1999/xlink"  version="1.2" baseProfile="tiny">
<title>Qt SVG Document</title>
<desc>Generated with Qt</desc>
<defs>
</defs>
<g fill="none" stroke="black" stroke-width="1" fill-rule="evenodd" stroke-linecap="square" stroke-linejoin="bevel" >

<g fill="#c0c0c0" fill-opacity="1" stroke="none" transform="matrix(1,0,0,1,0,0)"
font-family="Noto Sans" font-size="10" font-weight="400" font-style="normal" 
>
<path vector-effect="none" fill-rule="evenodd" d="M1,6 C1,3.23858 3.23858,1 6,1 L95,1 C97.7614,1 100,3.23858 100,6 L100,125 C100,127.761 97.7614,130 95,130 L6,130 C3.23858,130 1,127.761 1,125 L1,6"/>
</g>

<g fill="none" stroke="#000000" stroke-opacity="1" stroke-width="2" stroke-linecap="square" stroke-linejoin="bevel" transform="matrix(1,0,0,1,0,0)"
font-family="Noto Sans" font-size="10" font-weight="400" font-style="normal" 
>
<path vector-effect="none" fill-rule="evenodd" d="M1,6 C1,3.23858 3.23858,1 6,1 L95,1 C97.7614,1 100,3.23858 100,6 L100,125 C100,127.761 97.7614,130 95,130 L6,130 C3.23858,130 1,127.761 1,125 L1,6"/>
</g>

<g fill="none" stroke="#000000" stroke-opacity="1" stroke-width="2" stroke-linecap="square" stroke-linejoin="bevel" transform="matrix(1,0,0,1,0,0)"
font-family="Noto Sans CJK JP" font-size="90" font-weight="400" font-style="normal" 
>
<path vector-effect="none" fill-rule="evenodd" d="M45.0469,86.1094 L52.4219,86.1094 C50,72.6094 71.5,69.8281 71.5,56.2344 C71.5,45.8906 63.4063,39.4063 50.7188,39.4063 C40.9063,39.4063 33.8906,43.5469 27.9531,49.8438 L32.8125,54.3438 C37.8438,48.8594 43.7031,46.1563 49.8125,46.1563 C59,46.1563 63.5,50.6563 63.5,56.8594 C63.5,67.125 42.2656,71.1719 45.0469,86.1094 M41.625,101.234 C41.625,105.547 44.9531,108.344 48.9219,108.344 C52.875,108.344 56.125,105.547 56.125,101.234 C56.125,96.9063 52.875,94.2188 48.9219,94.2188 C44.9531,94.2188 41.625,96.9063 41.625,101.234 "/>
</g>

<g fill="#000000" fill-opacity="1" stroke="none" transform="matrix(1,0,0,1,0,0)"
font-family="Noto Sans CJK JP" font-size="90" font-weight="400" font-style="normal" 
>
<path vector-effect="none" fill-rule="evenodd" d="M45.0469,86.1094 L52.4219,86.1094 C50,72.6094 71.5,69.8281 71.5,56.2344 C71.5,45.8906 63.4063,39.4063 50.7188,39.4063 C40.9063,39.4063 33.8906,43.5469 27.9531,49.8438 L32.8125,54.3438 C37.8438,48.8594 43.7031,46.1563 49.8125,46.1563 C59,46.1563 63.5,50.6563 63.5,56.8594 C63.5,67.125 42.2656,71.1719 45.0469,86.1094 M41.625,101.234 C41.625,105.547 44.9531,108.344 48.9219,108.344 C52.875,108.344 56.125,105.547 56.125,101.234 C56.125,96.9063 52.875,94.2188 48.9219,94.2188 C44.9531,94.2188 41.625,96.9063 41.625,101.234 "/>
</g>
</g>
</svg>
