<?xml version="1.0" encoding="UTF-8" standalone="no"?>
<svg width="35.2778mm" height="45.8611mm"
 xmlns="http://www.w3.org/2000/svg" xmlns:xlink="http://www.w3.org/1999/xlink"  version="1.2" baseProfile="tiny">
<title>Qt SVG Document</title>
<desc>Generated with Qt</desc>
<defs>
</defs>
<g fill="none" stroke="black" stroke-width="1" fill-rule="evenodd" stroke-linecap="square" stroke-linejoin="bevel" >

<g fill="#c0c0c0" fill-opacity="1" stroke="none" transform="matrix(1,0,0,1,0,0)"
font-family="Noto Sans" font-size="10" font-weight="400" font-style="normal" 
>
<path vector-effect="none" fill-rule="evenodd" d="M1,6 C1,3.23858 3.23858,1 6,1 L95,1 C97.7614,1 100,3.23858 100,6 L100,125 C100,127.761 97.7614,130 95,130 L6,130 C3.23858,130 1,127.761 1,125 L1,6"/>
</g>

<g fill="none" stroke="#000000" stroke-opacity="1" stroke-width="2" stroke-linecap="square" stroke-linejoin="bevel" transform="matrix(1,0,0,1,0,0)"
font-family="Noto Sans" font-size="10" font-weight="400" font-style="normal" 
>
<path vector-effect="none" fill-rule="evenodd" d="M1,6 C1,3.23858 3.23858,1 6,1 L95,1 C97.7614,1 100,3.23858 100,6 L100,125 C100,127.761 97.7614,130 95,130 L6,130 C3.23858,130 1,127.761 1,125 L1,6"/>
</g>

<g fill="none" stroke="#000000" stroke-opacity="1" stroke-width="2" stroke-linecap="square" stroke-linejoin="bevel" transform="matrix(1,0,0,1,0,0)"
font-family="Noto Sans CJK JP" font-size="90" font-weight="400" font-style="normal" 
>
<path vector-effect="none" fill-rule="evenodd" d="M47.9219,114.094 C54.9531,114.094 61.25,112.391 67.0938,108.969 L64.9375,104.016 C60.4375,106.625 54.6719,108.516 48.6406,108.516 C31.4531,108.516 18.5938,97.3594 18.5938,77.6563 C18.5938,54.1563 35.875,38.8594 53.875,38.8594 C72.1406,38.8594 81.7656,50.75 81.7656,67.0313 C81.7656,80.0781 74.5625,87.8281 68.2656,87.8281 C62.5938,87.8281 60.7031,84.0469 62.6875,76.0313 L66.6406,55.875 L61.1563,55.875 L60.0781,60.0156 L59.8125,60.0156 C58.0156,56.6875 55.3125,55.1563 51.7969,55.1563 C40.0938,55.1563 32.4531,67.75 32.4531,78.4688 C32.4531,87.6406 37.7656,92.6875 44.6875,92.6875 C49.0938,92.6875 53.5938,89.7188 56.8438,85.75 L57.0156,85.75 C57.7344,90.875 61.9688,93.4063 67.4531,93.4063 C76.5469,93.4063 87.5313,84.3125 87.5313,66.7656 C87.5313,46.875 74.8438,33.2813 54.5,33.2813 C32,33.2813 12.4688,51.0156 12.4688,77.9219 C12.4688,101.5 28.2188,114.094 47.9219,114.094 M46.125,87.0156 C42.0781,87.0156 39.0156,84.4844 39.0156,78.0156 C39.0156,70.3594 43.875,60.8281 51.8906,60.8281 C54.6719,60.8281 56.3906,62 58.375,65.0469 L55.4844,81.0781 C51.9844,85.2969 49.0156,87.0156 46.125,87.0156 "/>
</g>

<g fill="#000000" fill-opacity="1" stroke="none" transform="matrix(1,0,0,1,0,0)"
font-family="Noto Sans CJK JP" font-size="90" font-weight="400" font-style="normal" 
>
<path vector-effect="none" fill-rule="evenodd" d="M47.9219,114.094 C54.9531,114.094 61.25,112.391 67.0938,108.969 L64.9375,104.016 C60.4375,106.625 54.6719,108.516 48.6406,108.516 C31.4531,108.516 18.5938,97.3594 18.5938,77.6563 C18.5938,54.1563 35.875,38.8594 53.875,38.8594 C72.1406,38.8594 81.7656,50.75 81.7656,67.0313 C81.7656,80.0781 74.5625,87.8281 68.2656,87.8281 C62.5938,87.8281 60.7031,84.0469 62.6875,76.0313 L66.6406,55.875 L61.1563,55.875 L60.0781,60.0156 L59.8125,60.0156 C58.0156,56.6875 55.3125,55.1563 51.7969,55.1563 C40.0938,55.1563 32.4531,67.75 32.4531,78.4688 C32.4531,87.6406 37.7656,92.6875 44.6875,92.6875 C49.0938,92.6875 53.5938,89.7188 56.8438,85.75 L57.0156,85.75 C57.7344,90.875 61.9688,93.4063 67.4531,93.4063 C76.5469,93.4063 87.5313,84.3125 87.5313,66.7656 C87.5313,46.875 74.8438,33.2813 54.5,33.2813 C32,33.2813 12.4688,51.0156 12.4688,77.9219 C12.4688,101.5 28.2188,114.094 47.9219,114.094 M46.125,87.0156 C42.0781,87.0156 39.0156,84.4844 39.0156,78.0156 C39.0156,70.3594 43.875,60.8281 51.8906,60.8281 C54.6719,60.8281 56.3906,62 58.375,65.0469 L55.4844,81.0781 C51.9844,85.2969 49.0156,87.0156 46.125,87.0156 "/>
</g>
</g>
</svg>
