<?xml version="1.0" encoding="UTF-8" standalone="no"?>
<svg width="35.2778mm" height="45.8611mm"
 xmlns="http://www.w3.org/2000/svg" xmlns:xlink="http://www.w3.org/1999/xlink"  version="1.2" baseProfile="tiny">
<title>Qt SVG Document</title>
<desc>Generated with Qt</desc>
<defs>
</defs>
<g fill="none" stroke="black" stroke-width="1" fill-rule="evenodd" stroke-linecap="square" stroke-linejoin="bevel" >

<g fill="#c0c0c0" fill-opacity="1" stroke="none" transform="matrix(1,0,0,1,0,0)"
font-family="Noto Sans" font-size="10" font-weight="400" font-style="normal" 
>
<path vector-effect="none" fill-rule="evenodd" d="M1,6 C1,3.23858 3.23858,1 6,1 L95,1 C97.7614,1 100,3.23858 100,6 L100,125 C100,127.761 97.7614,130 95,130 L6,130 C3.23858,130 1,127.761 1,125 L1,6"/>
</g>

<g fill="none" stroke="#000000" stroke-opacity="1" stroke-width="2" stroke-linecap="square" stroke-linejoin="bevel" transform="matrix(1,0,0,1,0,0)"
font-family="Noto Sans" font-size="10" font-weight="400" font-style="normal" 
>
<path vector-effect="none" fill-rule="evenodd" d="M1,6 C1,3.23858 3.23858,1 6,1 L95,1 C97.7614,1 100,3.23858 100,6 L100,125 C100,127.761 97.7614,130 95,130 L6,130 C3.23858,130 1,127.761 1,125 L1,6"/>
</g>

<g fill="none" stroke="#000000" stroke-opacity="1" stroke-width="2" stroke-linecap="square" stroke-linejoin="bevel" transform="matrix(1,0,0,1,0,0)"
font-family="Noto Sans CJK JP" font-size="90" font-weight="400" font-style="normal" 
>
<path vector-effect="none" fill-rule="evenodd" d="M74.8438,53.5313 L74.8438,96.2813 L25.6094,96.2813 L25.6094,53.5313 L74.8438,53.5313 M82.2188,53.2656 C82.2188,51.0156 82.2188,48.5 82.3906,46.25 C79.7031,46.4219 76.4531,46.4219 74.4844,46.4219 L26.1563,46.4219 C24.0781,46.4219 21.6563,46.3281 18.1406,46.25 C18.3125,48.4063 18.3125,51.1875 18.3125,53.2656 L18.3125,97.5469 C18.3125,100.688 18.1406,107.359 18.0469,108.453 L25.7969,108.453 C25.7031,107.813 25.7031,105.641 25.6094,103.297 L74.75,103.297 C74.75,105.734 74.6563,107.813 74.6563,108.453 L82.3906,108.453 C82.3125,107.453 82.2188,100.516 82.2188,97.625 L82.2188,53.2656"/>
</g>

<g fill="#000000" fill-opacity="1" stroke="none" transform="matrix(1,0,0,1,0,0)"
font-family="Noto Sans CJK JP" font-size="90" font-weight="400" font-style="normal" 
>
<path vector-effect="none" fill-rule="evenodd" d="M74.8438,53.5313 L74.8438,96.2813 L25.6094,96.2813 L25.6094,53.5313 L74.8438,53.5313 M82.2188,53.2656 C82.2188,51.0156 82.2188,48.5 82.3906,46.25 C79.7031,46.4219 76.4531,46.4219 74.4844,46.4219 L26.1563,46.4219 C24.0781,46.4219 21.6563,46.3281 18.1406,46.25 C18.3125,48.4063 18.3125,51.1875 18.3125,53.2656 L18.3125,97.5469 C18.3125,100.688 18.1406,107.359 18.0469,108.453 L25.7969,108.453 C25.7031,107.813 25.7031,105.641 25.6094,103.297 L74.75,103.297 C74.75,105.734 74.6563,107.813 74.6563,108.453 L82.3906,108.453 C82.3125,107.453 82.2188,100.516 82.2188,97.625 L82.2188,53.2656"/>
</g>
</g>
</svg>
