<?xml version="1.0" encoding="UTF-8" standalone="no"?>
<svg width="35.2778mm" height="45.8611mm"
 xmlns="http://www.w3.org/2000/svg" xmlns:xlink="http://www.w3.org/1999/xlink"  version="1.2" baseProfile="tiny">
<title>Qt SVG Document</title>
<desc>Generated with Qt</desc>
<defs>
</defs>
<g fill="none" stroke="black" stroke-width="1" fill-rule="evenodd" stroke-linecap="square" stroke-linejoin="bevel" >

<g fill="#c0c0c0" fill-opacity="1" stroke="none" transform="matrix(1,0,0,1,0,0)"
font-family="Noto Sans" font-size="10" font-weight="400" font-style="normal" 
>
<path vector-effect="none" fill-rule="evenodd" d="M1,6 C1,3.23858 3.23858,1 6,1 L95,1 C97.7614,1 100,3.23858 100,6 L100,125 C100,127.761 97.7614,130 95,130 L6,130 C3.23858,130 1,127.761 1,125 L1,6"/>
</g>

<g fill="none" stroke="#000000" stroke-opacity="1" stroke-width="2" stroke-linecap="square" stroke-linejoin="bevel" transform="matrix(1,0,0,1,0,0)"
font-family="Noto Sans" font-size="10" font-weight="400" font-style="normal" 
>
<path vector-effect="none" fill-rule="evenodd" d="M1,6 C1,3.23858 3.23858,1 6,1 L95,1 C97.7614,1 100,3.23858 100,6 L100,125 C100,127.761 97.7614,130 95,130 L6,130 C3.23858,130 1,127.761 1,125 L1,6"/>
</g>

<g fill="none" stroke="#000000" stroke-opacity="1" stroke-width="2" stroke-linecap="square" stroke-linejoin="bevel" transform="matrix(1,0,0,1,0,0)"
font-family="Noto Sans CJK JP" font-size="90" font-weight="400" font-style="normal" 
>
<path vector-effect="none" fill-rule="evenodd" d="M50.4531,50.6563 C50.3594,50.9219 50.2656,51.2813 50,51.2813 C49.7344,51.2813 49.6406,50.9219 49.5469,50.6563 C46.8438,40.6563 39.375,36.25 30.9219,36.25 C20.6563,36.25 12.1094,45.7031 12.1094,57.9375 C12.1094,71.1719 22.8125,80.7969 29.5625,87.2813 C37.7656,95.1094 46.4844,105.828 49.8125,111.219 C49.9063,111.406 50.0938,111.406 50.1719,111.219 C53.5156,105.828 62.2344,95.1094 70.4219,87.2813 C77.1719,80.7969 87.8906,71.2656 87.8906,57.9375 C87.8906,45.7031 79.3438,36.25 69.0781,36.25 C60.625,36.25 53.0625,40.6563 50.4531,50.6563 "/>
</g>

<g fill="#000000" fill-opacity="1" stroke="none" transform="matrix(1,0,0,1,0,0)"
font-family="Noto Sans CJK JP" font-size="90" font-weight="400" font-style="normal" 
>
<path vector-effect="none" fill-rule="evenodd" d="M50.4531,50.6563 C50.3594,50.9219 50.2656,51.2813 50,51.2813 C49.7344,51.2813 49.6406,50.9219 49.5469,50.6563 C46.8438,40.6563 39.375,36.25 30.9219,36.25 C20.6563,36.25 12.1094,45.7031 12.1094,57.9375 C12.1094,71.1719 22.8125,80.7969 29.5625,87.2813 C37.7656,95.1094 46.4844,105.828 49.8125,111.219 C49.9063,111.406 50.0938,111.406 50.1719,111.219 C53.5156,105.828 62.2344,95.1094 70.4219,87.2813 C77.1719,80.7969 87.8906,71.2656 87.8906,57.9375 C87.8906,45.7031 79.3438,36.25 69.0781,36.25 C60.625,36.25 53.0625,40.6563 50.4531,50.6563 "/>
</g>
</g>
</svg>
