<?xml version="1.0" encoding="UTF-8" standalone="no"?>
<svg width="35.2778mm" height="45.8611mm"
 xmlns="http://www.w3.org/2000/svg" xmlns:xlink="http://www.w3.org/1999/xlink"  version="1.2" baseProfile="tiny">
<title>Qt SVG Document</title>
<desc>Generated with Qt</desc>
<defs>
</defs>
<g fill="none" stroke="black" stroke-width="1" fill-rule="evenodd" stroke-linecap="square" stroke-linejoin="bevel" >

<g fill="#c0c0c0" fill-opacity="1" stroke="none" transform="matrix(1,0,0,1,0,0)"
font-family="Noto Sans" font-size="10" font-weight="400" font-style="normal" 
>
<path vector-effect="none" fill-rule="evenodd" d="M1,6 C1,3.23858 3.23858,1 6,1 L95,1 C97.7614,1 100,3.23858 100,6 L100,125 C100,127.761 97.7614,130 95,130 L6,130 C3.23858,130 1,127.761 1,125 L1,6"/>
</g>

<g fill="none" stroke="#000000" stroke-opacity="1" stroke-width="2" stroke-linecap="square" stroke-linejoin="bevel" transform="matrix(1,0,0,1,0,0)"
font-family="Noto Sans" font-size="10" font-weight="400" font-style="normal" 
>
<path vector-effect="none" fill-rule="evenodd" d="M1,6 C1,3.23858 3.23858,1 6,1 L95,1 C97.7614,1 100,3.23858 100,6 L100,125 C100,127.761 97.7614,130 95,130 L6,130 C3.23858,130 1,127.761 1,125 L1,6"/>
</g>

<g fill="none" stroke="#000000" stroke-opacity="1" stroke-width="2" stroke-linecap="square" stroke-linejoin="bevel" transform="matrix(1,0,0,1,0,0)"
font-family="Noto Sans CJK JP" font-size="90" font-weight="400" font-style="normal" 
>
<path vector-effect="none" fill-rule="evenodd" d="M38.2969,50.2031 L37.8438,50.375 C38.4844,44.1563 39.2031,39.1094 39.6563,36.9375 L31.0938,36.6719 C31.5469,38.9219 31.4531,41.2656 31.4531,43.3438 C31.4531,44.3438 31.2813,47.5 31.0156,51.7344 C26.4219,52.4531 21.2031,53 18.3125,53.1719 C16.1563,53.3594 14.4531,53.3594 12.4688,53.2656 L13.1875,60.7344 C18.7656,60.0156 26.5156,58.9375 30.5625,58.4844 C30.375,61.2813 30.2031,64.1563 30.0156,67.0313 C25.5156,74.0625 15.2656,87.9375 10.3125,94.1406 L14.8125,100.359 C19.125,94.4219 24.9844,85.8594 29.2969,79.2813 C29.2969,80.6406 29.2031,81.8125 29.2031,82.7031 C29.0313,92.6094 29.0313,97.0313 28.9375,105.578 C28.9375,107.031 28.7656,109.641 28.6719,110.906 L36.5,110.906 C36.3125,109.281 36.1406,107.031 36.0469,105.5 C35.6875,97.4844 35.6875,92.0781 35.6875,83.9688 C35.6875,80.8125 35.7813,77.2188 35.9531,73.5156 C44.0625,65.8594 53.5156,60.7344 63.7656,60.7344 C75.5625,60.7344 80.9531,69.6563 80.9531,76.5 C81.0469,91.8906 67.5469,98.8281 52.5156,101.078 L55.7656,107.844 C75.2031,104.141 88.3438,94.5938 88.25,76.6719 C88.1563,62.8125 77.1719,54.1563 64.75,54.1563 C56.2969,54.1563 46.3125,57.2188 36.5,65.2344 C36.6719,63.3438 36.7656,61.3594 36.9531,59.5625 C38.2969,57.4063 39.8281,54.9688 40.9063,53.3438 L38.2969,50.2031"/>
</g>

<g fill="#000000" fill-opacity="1" stroke="none" transform="matrix(1,0,0,1,0,0)"
font-family="Noto Sans CJK JP" font-size="90" font-weight="400" font-style="normal" 
>
<path vector-effect="none" fill-rule="evenodd" d="M38.2969,50.2031 L37.8438,50.375 C38.4844,44.1563 39.2031,39.1094 39.6563,36.9375 L31.0938,36.6719 C31.5469,38.9219 31.4531,41.2656 31.4531,43.3438 C31.4531,44.3438 31.2813,47.5 31.0156,51.7344 C26.4219,52.4531 21.2031,53 18.3125,53.1719 C16.1563,53.3594 14.4531,53.3594 12.4688,53.2656 L13.1875,60.7344 C18.7656,60.0156 26.5156,58.9375 30.5625,58.4844 C30.375,61.2813 30.2031,64.1563 30.0156,67.0313 C25.5156,74.0625 15.2656,87.9375 10.3125,94.1406 L14.8125,100.359 C19.125,94.4219 24.9844,85.8594 29.2969,79.2813 C29.2969,80.6406 29.2031,81.8125 29.2031,82.7031 C29.0313,92.6094 29.0313,97.0313 28.9375,105.578 C28.9375,107.031 28.7656,109.641 28.6719,110.906 L36.5,110.906 C36.3125,109.281 36.1406,107.031 36.0469,105.5 C35.6875,97.4844 35.6875,92.0781 35.6875,83.9688 C35.6875,80.8125 35.7813,77.2188 35.9531,73.5156 C44.0625,65.8594 53.5156,60.7344 63.7656,60.7344 C75.5625,60.7344 80.9531,69.6563 80.9531,76.5 C81.0469,91.8906 67.5469,98.8281 52.5156,101.078 L55.7656,107.844 C75.2031,104.141 88.3438,94.5938 88.25,76.6719 C88.1563,62.8125 77.1719,54.1563 64.75,54.1563 C56.2969,54.1563 46.3125,57.2188 36.5,65.2344 C36.6719,63.3438 36.7656,61.3594 36.9531,59.5625 C38.2969,57.4063 39.8281,54.9688 40.9063,53.3438 L38.2969,50.2031"/>
</g>
</g>
</svg>
