<?xml version="1.0" encoding="UTF-8" standalone="no"?>
<svg width="35.2778mm" height="45.8611mm"
 xmlns="http://www.w3.org/2000/svg" xmlns:xlink="http://www.w3.org/1999/xlink"  version="1.2" baseProfile="tiny">
<title>Qt SVG Document</title>
<desc>Generated with Qt</desc>
<defs>
</defs>
<g fill="none" stroke="black" stroke-width="1" fill-rule="evenodd" stroke-linecap="square" stroke-linejoin="bevel" >

<g fill="#c0c0c0" fill-opacity="1" stroke="none" transform="matrix(1,0,0,1,0,0)"
font-family="Noto Sans" font-size="10" font-weight="400" font-style="normal" 
>
<path vector-effect="none" fill-rule="evenodd" d="M1,6 C1,3.23858 3.23858,1 6,1 L95,1 C97.7614,1 100,3.23858 100,6 L100,125 C100,127.761 97.7614,130 95,130 L6,130 C3.23858,130 1,127.761 1,125 L1,6"/>
</g>

<g fill="none" stroke="#000000" stroke-opacity="1" stroke-width="2" stroke-linecap="square" stroke-linejoin="bevel" transform="matrix(1,0,0,1,0,0)"
font-family="Noto Sans" font-size="10" font-weight="400" font-style="normal" 
>
<path vector-effect="none" fill-rule="evenodd" d="M1,6 C1,3.23858 3.23858,1 6,1 L95,1 C97.7614,1 100,3.23858 100,6 L100,125 C100,127.761 97.7614,130 95,130 L6,130 C3.23858,130 1,127.761 1,125 L1,6"/>
</g>

<g fill="none" stroke="#000000" stroke-opacity="1" stroke-width="2" stroke-linecap="square" stroke-linejoin="bevel" transform="matrix(1,0,0,1,0,0)"
font-family="Noto Sans CJK JP" font-size="90" font-weight="400" font-style="normal" 
>
<path vector-effect="none" fill-rule="evenodd" d="M69.8906,53.625 C65.2969,59.375 55.6719,66.9375 46.6719,72.1563 C39.2031,76.4844 26.9531,81.9688 15.4375,84.4844 L19.3125,91.0625 C29.125,88.2656 39.9219,83.5938 47.5625,79.5469 L47.5625,107.078 C47.5625,109.781 47.3906,113.469 47.2031,114.828 L55.4844,114.828 C55.125,113.469 55.0313,109.781 55.0313,107.078 L55.0313,75.2188 C63.2344,70.0938 71.2344,63.5156 75.4688,58.9375 L69.8906,53.625"/>
</g>

<g fill="#000000" fill-opacity="1" stroke="none" transform="matrix(1,0,0,1,0,0)"
font-family="Noto Sans CJK JP" font-size="90" font-weight="400" font-style="normal" 
>
<path vector-effect="none" fill-rule="evenodd" d="M69.8906,53.625 C65.2969,59.375 55.6719,66.9375 46.6719,72.1563 C39.2031,76.4844 26.9531,81.9688 15.4375,84.4844 L19.3125,91.0625 C29.125,88.2656 39.9219,83.5938 47.5625,79.5469 L47.5625,107.078 C47.5625,109.781 47.3906,113.469 47.2031,114.828 L55.4844,114.828 C55.125,113.469 55.0313,109.781 55.0313,107.078 L55.0313,75.2188 C63.2344,70.0938 71.2344,63.5156 75.4688,58.9375 L69.8906,53.625"/>
</g>
</g>
</svg>
