<?xml version="1.0" encoding="UTF-8" standalone="no"?>
<svg width="52.9167mm" height="45.8611mm"
 xmlns="http://www.w3.org/2000/svg" xmlns:xlink="http://www.w3.org/1999/xlink"  version="1.2" baseProfile="tiny">
<title>Qt SVG Document</title>
<desc>Generated with Qt</desc>
<defs>
</defs>
<g fill="none" stroke="black" stroke-width="1" fill-rule="evenodd" stroke-linecap="square" stroke-linejoin="bevel" >

<g fill="#808080" fill-opacity="1" stroke="none" transform="matrix(1,0,0,1,0,0)"
font-family="Noto Sans" font-size="10" font-weight="400" font-style="normal" 
>
<path vector-effect="none" fill-rule="evenodd" d="M1,6 C1,3.23858 3.23858,1 6,1 L145,1 C147.761,1 150,3.23858 150,6 L150,125 C150,127.761 147.761,130 145,130 L6,130 C3.23858,130 1,127.761 1,125 L1,6"/>
</g>

<g fill="none" stroke="#000000" stroke-opacity="1" stroke-width="2" stroke-linecap="square" stroke-linejoin="bevel" transform="matrix(1,0,0,1,0,0)"
font-family="Noto Sans" font-size="10" font-weight="400" font-style="normal" 
>
<path vector-effect="none" fill-rule="evenodd" d="M1,6 C1,3.23858 3.23858,1 6,1 L145,1 C147.761,1 150,3.23858 150,6 L150,125 C150,127.761 147.761,130 145,130 L6,130 C3.23858,130 1,127.761 1,125 L1,6"/>
</g>

<g fill="none" stroke="#000000" stroke-opacity="1" stroke-width="2" stroke-linecap="square" stroke-linejoin="bevel" transform="matrix(1,0,0,1,0,0)"
font-family="Noto Sans CJK JP" font-size="72" font-weight="400" font-style="normal" 
>
<path vector-effect="none" fill-rule="evenodd" d="M19.7031,94.8906 L26.3906,94.8906 L26.3906,42.1094 L19.7031,42.1094 L19.7031,94.8906 M40.7969,94.8906 L47.125,94.8906 L47.125,67.1719 C47.125,61.625 46.625,56 46.3438,50.6719 L46.625,50.6719 L52.3125,61.5469 L71.5469,94.8906 L78.375,94.8906 L78.375,42.1094 L72.0469,42.1094 L72.0469,69.5469 C72.0469,75.0156 72.5469,80.9219 72.9063,86.25 L72.5469,86.25 L66.9375,75.375 L47.7031,42.1094 L40.7969,42.1094 L40.7969,94.8906 M107.453,95.8281 C118.469,95.8281 125.375,89.2031 125.375,80.8438 C125.375,73 120.625,69.4063 114.516,66.7344 L106.953,63.5 C102.844,61.7656 98.2344,59.8281 98.2344,54.7188 C98.2344,49.9531 102.125,46.9375 108.094,46.9375 C113,46.9375 116.891,48.875 120.125,51.9063 L123.656,47.6563 C119.906,43.7656 114.359,41.1094 108.094,41.1094 C98.5313,41.1094 91.4688,47 91.4688,55.1406 C91.4688,62.8438 97.2969,66.5938 102.203,68.6875 L109.828,72 C114.797,74.2188 118.609,75.9531 118.609,81.3594 C118.609,86.5313 114.438,90 107.531,90 C102.047,90 96.7188,87.4063 92.9063,83.4375 L88.9531,87.9844 C93.5625,92.7969 99.9688,95.8281 107.453,95.8281 "/>
</g>

<g fill="#ffffff" fill-opacity="1" stroke="none" transform="matrix(1,0,0,1,0,0)"
font-family="Noto Sans CJK JP" font-size="72" font-weight="400" font-style="normal" 
>
<path vector-effect="none" fill-rule="evenodd" d="M19.7031,94.8906 L26.3906,94.8906 L26.3906,42.1094 L19.7031,42.1094 L19.7031,94.8906 M40.7969,94.8906 L47.125,94.8906 L47.125,67.1719 C47.125,61.625 46.625,56 46.3438,50.6719 L46.625,50.6719 L52.3125,61.5469 L71.5469,94.8906 L78.375,94.8906 L78.375,42.1094 L72.0469,42.1094 L72.0469,69.5469 C72.0469,75.0156 72.5469,80.9219 72.9063,86.25 L72.5469,86.25 L66.9375,75.375 L47.7031,42.1094 L40.7969,42.1094 L40.7969,94.8906 M107.453,95.8281 C118.469,95.8281 125.375,89.2031 125.375,80.8438 C125.375,73 120.625,69.4063 114.516,66.7344 L106.953,63.5 C102.844,61.7656 98.2344,59.8281 98.2344,54.7188 C98.2344,49.9531 102.125,46.9375 108.094,46.9375 C113,46.9375 116.891,48.875 120.125,51.9063 L123.656,47.6563 C119.906,43.7656 114.359,41.1094 108.094,41.1094 C98.5313,41.1094 91.4688,47 91.4688,55.1406 C91.4688,62.8438 97.2969,66.5938 102.203,68.6875 L109.828,72 C114.797,74.2188 118.609,75.9531 118.609,81.3594 C118.609,86.5313 114.438,90 107.531,90 C102.047,90 96.7188,87.4063 92.9063,83.4375 L88.9531,87.9844 C93.5625,92.7969 99.9688,95.8281 107.453,95.8281 "/>
</g>
</g>
</svg>
