<?xml version="1.0" encoding="UTF-8" standalone="no"?>
<svg width="35.2778mm" height="45.8611mm"
 xmlns="http://www.w3.org/2000/svg" xmlns:xlink="http://www.w3.org/1999/xlink"  version="1.2" baseProfile="tiny">
<title>Qt SVG Document</title>
<desc>Generated with Qt</desc>
<defs>
</defs>
<g fill="none" stroke="black" stroke-width="1" fill-rule="evenodd" stroke-linecap="square" stroke-linejoin="bevel" >

<g fill="#c0c0c0" fill-opacity="1" stroke="none" transform="matrix(1,0,0,1,0,0)"
font-family="Noto Sans" font-size="10" font-weight="400" font-style="normal" 
>
<path vector-effect="none" fill-rule="evenodd" d="M1,6 C1,3.23858 3.23858,1 6,1 L95,1 C97.7614,1 100,3.23858 100,6 L100,125 C100,127.761 97.7614,130 95,130 L6,130 C3.23858,130 1,127.761 1,125 L1,6"/>
</g>

<g fill="none" stroke="#000000" stroke-opacity="1" stroke-width="2" stroke-linecap="square" stroke-linejoin="bevel" transform="matrix(1,0,0,1,0,0)"
font-family="Noto Sans" font-size="10" font-weight="400" font-style="normal" 
>
<path vector-effect="none" fill-rule="evenodd" d="M1,6 C1,3.23858 3.23858,1 6,1 L95,1 C97.7614,1 100,3.23858 100,6 L100,125 C100,127.761 97.7614,130 95,130 L6,130 C3.23858,130 1,127.761 1,125 L1,6"/>
</g>

<g fill="none" stroke="#000000" stroke-opacity="1" stroke-width="2" stroke-linecap="square" stroke-linejoin="bevel" transform="matrix(1,0,0,1,0,0)"
font-family="Noto Sans CJK JP" font-size="90" font-weight="400" font-style="normal" 
>
<path vector-effect="none" fill-rule="evenodd" d="M50.1719,108.969 C65.2031,108.969 73.75,101.047 73.75,91.4219 C73.75,83.9531 69.625,78.9063 61.4219,74.8594 L61.4219,74.5 C68.1719,69.7344 71.4219,64.3281 71.4219,57.9375 C71.3281,48.3125 63.3125,40.6563 50,40.6563 C37.4844,40.6563 28.7656,48.0469 28.8438,58.0313 C28.8438,64.3281 32.0938,69.1875 38.5625,72.6094 L38.5625,72.9688 C30.7344,77.1094 26.0625,82.7813 26.0625,91.0625 C26.0625,100.953 35.1563,108.969 50.1719,108.969 M56.0313,72.4375 C45.6719,69.5469 36.4063,66.2188 36.4063,58.0313 C36.4063,51.8281 41.9844,46.7813 49.7344,46.7813 C59.1719,46.7813 64.125,52.7188 64.125,58.6563 C64.2188,63.5156 62.4219,67.4844 56.0313,72.4375 M50.4531,102.938 C40.2813,102.938 33.7031,97.2656 33.7031,90.3438 C33.7031,84.3125 37.125,79.7188 43.9688,75.7656 C56.125,79.2656 65.6563,82.5156 65.6563,91.1563 C65.6563,97.5469 60.1719,102.938 50.4531,102.938 "/>
</g>

<g fill="#000000" fill-opacity="1" stroke="none" transform="matrix(1,0,0,1,0,0)"
font-family="Noto Sans CJK JP" font-size="90" font-weight="400" font-style="normal" 
>
<path vector-effect="none" fill-rule="evenodd" d="M50.1719,108.969 C65.2031,108.969 73.75,101.047 73.75,91.4219 C73.75,83.9531 69.625,78.9063 61.4219,74.8594 L61.4219,74.5 C68.1719,69.7344 71.4219,64.3281 71.4219,57.9375 C71.3281,48.3125 63.3125,40.6563 50,40.6563 C37.4844,40.6563 28.7656,48.0469 28.8438,58.0313 C28.8438,64.3281 32.0938,69.1875 38.5625,72.6094 L38.5625,72.9688 C30.7344,77.1094 26.0625,82.7813 26.0625,91.0625 C26.0625,100.953 35.1563,108.969 50.1719,108.969 M56.0313,72.4375 C45.6719,69.5469 36.4063,66.2188 36.4063,58.0313 C36.4063,51.8281 41.9844,46.7813 49.7344,46.7813 C59.1719,46.7813 64.125,52.7188 64.125,58.6563 C64.2188,63.5156 62.4219,67.4844 56.0313,72.4375 M50.4531,102.938 C40.2813,102.938 33.7031,97.2656 33.7031,90.3438 C33.7031,84.3125 37.125,79.7188 43.9688,75.7656 C56.125,79.2656 65.6563,82.5156 65.6563,91.1563 C65.6563,97.5469 60.1719,102.938 50.4531,102.938 "/>
</g>
</g>
</svg>
