<?xml version="1.0" encoding="UTF-8" standalone="no"?>
<svg width="35.2778mm" height="45.8611mm"
 xmlns="http://www.w3.org/2000/svg" xmlns:xlink="http://www.w3.org/1999/xlink"  version="1.2" baseProfile="tiny">
<title>Qt SVG Document</title>
<desc>Generated with Qt</desc>
<defs>
</defs>
<g fill="none" stroke="black" stroke-width="1" fill-rule="evenodd" stroke-linecap="square" stroke-linejoin="bevel" >

<g fill="#808080" fill-opacity="1" stroke="none" transform="matrix(1,0,0,1,0,0)"
font-family="Noto Sans" font-size="10" font-weight="400" font-style="normal" 
>
<path vector-effect="none" fill-rule="evenodd" d="M1,6 C1,3.23858 3.23858,1 6,1 L95,1 C97.7614,1 100,3.23858 100,6 L100,125 C100,127.761 97.7614,130 95,130 L6,130 C3.23858,130 1,127.761 1,125 L1,6"/>
</g>

<g fill="none" stroke="#000000" stroke-opacity="1" stroke-width="2" stroke-linecap="square" stroke-linejoin="bevel" transform="matrix(1,0,0,1,0,0)"
font-family="Noto Sans" font-size="10" font-weight="400" font-style="normal" 
>
<path vector-effect="none" fill-rule="evenodd" d="M1,6 C1,3.23858 3.23858,1 6,1 L95,1 C97.7614,1 100,3.23858 100,6 L100,125 C100,127.761 97.7614,130 95,130 L6,130 C3.23858,130 1,127.761 1,125 L1,6"/>
</g>

<g fill="none" stroke="#000000" stroke-opacity="1" stroke-width="2" stroke-linecap="square" stroke-linejoin="bevel" transform="matrix(1,0,0,1,0,0)"
font-family="Noto Sans CJK JP" font-size="45" font-weight="400" font-style="normal" 
>
<path vector-effect="none" fill-rule="evenodd" d="M9.5,81.8906 L29.0313,81.8906 L29.0313,78.3281 L13.6875,78.3281 L13.6875,66.3281 L26.1875,66.3281 L26.1875,62.7656 L13.6875,62.7656 L13.6875,52.4219 L28.5313,52.4219 L28.5313,48.9063 L9.5,48.9063 L9.5,81.8906 M45.125,82.4688 C52.0156,82.4688 56.3438,78.3281 56.3438,73.1094 C56.3438,68.2188 53.375,65.9688 49.5469,64.2969 L44.8125,62.2656 C42.25,61.1875 39.375,59.9688 39.375,56.7813 C39.375,53.8125 41.7969,51.9219 45.5313,51.9219 C48.5938,51.9219 51.0313,53.1406 53.0469,55.0313 L55.25,52.375 C52.9219,49.9375 49.4531,48.2813 45.5313,48.2813 C39.5469,48.2813 35.1406,51.9688 35.1406,57.0469 C35.1406,61.8594 38.7813,64.2031 41.8438,65.5156 L46.625,67.5781 C49.7188,68.9688 52.1094,70.0625 52.1094,73.4375 C52.1094,76.6719 49.5,78.8281 45.1719,78.8281 C41.75,78.8281 38.4219,77.2031 36.0469,74.7344 L33.5625,77.5781 C36.4531,80.5781 40.4531,82.4688 45.125,82.4688 M75.2813,82.4688 C79.5469,82.4688 82.7969,80.7656 85.4063,77.75 L83.1094,75.1406 C80.9844,77.4375 78.6094,78.8281 75.4531,78.8281 C69.1563,78.8281 65.2031,73.6094 65.2031,65.2813 C65.2031,57.0469 69.3438,51.9219 75.5938,51.9219 C78.4219,51.9219 80.625,53.2344 82.3438,55.0781 L84.5938,52.375 C82.7031,50.25 79.5469,48.2813 75.5469,48.2813 C67.1719,48.2813 60.9219,54.75 60.9219,65.4219 C60.9219,76.125 67.0938,82.4688 75.2813,82.4688 "/>
</g>

<g fill="#ffffff" fill-opacity="1" stroke="none" transform="matrix(1,0,0,1,0,0)"
font-family="Noto Sans CJK JP" font-size="45" font-weight="400" font-style="normal" 
>
<path vector-effect="none" fill-rule="evenodd" d="M9.5,81.8906 L29.0313,81.8906 L29.0313,78.3281 L13.6875,78.3281 L13.6875,66.3281 L26.1875,66.3281 L26.1875,62.7656 L13.6875,62.7656 L13.6875,52.4219 L28.5313,52.4219 L28.5313,48.9063 L9.5,48.9063 L9.5,81.8906 M45.125,82.4688 C52.0156,82.4688 56.3438,78.3281 56.3438,73.1094 C56.3438,68.2188 53.375,65.9688 49.5469,64.2969 L44.8125,62.2656 C42.25,61.1875 39.375,59.9688 39.375,56.7813 C39.375,53.8125 41.7969,51.9219 45.5313,51.9219 C48.5938,51.9219 51.0313,53.1406 53.0469,55.0313 L55.25,52.375 C52.9219,49.9375 49.4531,48.2813 45.5313,48.2813 C39.5469,48.2813 35.1406,51.9688 35.1406,57.0469 C35.1406,61.8594 38.7813,64.2031 41.8438,65.5156 L46.625,67.5781 C49.7188,68.9688 52.1094,70.0625 52.1094,73.4375 C52.1094,76.6719 49.5,78.8281 45.1719,78.8281 C41.75,78.8281 38.4219,77.2031 36.0469,74.7344 L33.5625,77.5781 C36.4531,80.5781 40.4531,82.4688 45.125,82.4688 M75.2813,82.4688 C79.5469,82.4688 82.7969,80.7656 85.4063,77.75 L83.1094,75.1406 C80.9844,77.4375 78.6094,78.8281 75.4531,78.8281 C69.1563,78.8281 65.2031,73.6094 65.2031,65.2813 C65.2031,57.0469 69.3438,51.9219 75.5938,51.9219 C78.4219,51.9219 80.625,53.2344 82.3438,55.0781 L84.5938,52.375 C82.7031,50.25 79.5469,48.2813 75.5469,48.2813 C67.1719,48.2813 60.9219,54.75 60.9219,65.4219 C60.9219,76.125 67.0938,82.4688 75.2813,82.4688 "/>
</g>
</g>
</svg>
