<?xml version="1.0" encoding="UTF-8" standalone="no"?>
<svg width="35.2778mm" height="45.8611mm"
 xmlns="http://www.w3.org/2000/svg" xmlns:xlink="http://www.w3.org/1999/xlink"  version="1.2" baseProfile="tiny">
<title>Qt SVG Document</title>
<desc>Generated with Qt</desc>
<defs>
</defs>
<g fill="none" stroke="black" stroke-width="1" fill-rule="evenodd" stroke-linecap="square" stroke-linejoin="bevel" >

<g fill="#808080" fill-opacity="1" stroke="none" transform="matrix(1,0,0,1,0,0)"
font-family="Noto Sans" font-size="10" font-weight="400" font-style="normal" 
>
<path vector-effect="none" fill-rule="evenodd" d="M1,6 C1,3.23858 3.23858,1 6,1 L95,1 C97.7614,1 100,3.23858 100,6 L100,125 C100,127.761 97.7614,130 95,130 L6,130 C3.23858,130 1,127.761 1,125 L1,6"/>
</g>

<g fill="none" stroke="#000000" stroke-opacity="1" stroke-width="2" stroke-linecap="square" stroke-linejoin="bevel" transform="matrix(1,0,0,1,0,0)"
font-family="Noto Sans" font-size="10" font-weight="400" font-style="normal" 
>
<path vector-effect="none" fill-rule="evenodd" d="M1,6 C1,3.23858 3.23858,1 6,1 L95,1 C97.7614,1 100,3.23858 100,6 L100,125 C100,127.761 97.7614,130 95,130 L6,130 C3.23858,130 1,127.761 1,125 L1,6"/>
</g>

<g fill="none" stroke="#000000" stroke-opacity="1" stroke-width="2" stroke-linecap="square" stroke-linejoin="bevel" transform="matrix(1,0,0,1,0,0)"
font-family="Noto Sans CJK JP" font-size="32" font-weight="400" font-style="normal" 
>
<path vector-effect="none" fill-rule="evenodd" d="M8.20313,64.5625 L11.1719,64.5625 L11.1719,53.4844 L22.125,53.4844 L22.125,64.5625 L25.0625,64.5625 L25.0625,41.1094 L22.125,41.1094 L22.125,50.9375 L11.1719,50.9375 L11.1719,41.1094 L8.20313,41.1094 L8.20313,64.5625 M40.1563,64.9844 C46.0469,64.9844 50.1719,60.2813 50.1719,52.75 C50.1719,45.2344 46.0469,40.6563 40.1563,40.6563 C34.2656,40.6563 30.1406,45.2344 30.1406,52.75 C30.1406,60.2813 34.2656,64.9844 40.1563,64.9844 M40.1563,62.3906 C35.9219,62.3906 33.1719,58.6094 33.1719,52.75 C33.1719,46.875 35.9219,43.25 40.1563,43.25 C44.3438,43.25 47.125,46.875 47.125,52.75 C47.125,58.6094 44.3438,62.3906 40.1563,62.3906 M55.2188,64.5625 L57.9063,64.5625 L57.9063,51.5781 C57.9063,49.5625 57.6719,46.7031 57.5469,44.6563 L57.6719,44.6563 L59.5313,50 L63.9844,62.1875 L65.9688,62.1875 L70.4219,50 L72.2656,44.6563 L72.3906,44.6563 C72.2344,46.7031 72.0156,49.5625 72.0156,51.5781 L72.0156,64.5625 L74.7969,64.5625 L74.7969,41.1094 L71.2188,41.1094 L66.7344,53.6563 C66.1875,55.2813 65.6719,56.9219 65.1406,58.5469 L64.9688,58.5469 C64.4063,56.9219 63.8594,55.2813 63.3125,53.6563 L58.7969,41.1094 L55.2188,41.1094 L55.2188,64.5625 M81.1875,64.5625 L95.0781,64.5625 L95.0781,62.0313 L84.1563,62.0313 L84.1563,53.4844 L93.0625,53.4844 L93.0625,50.9688 L84.1563,50.9688 L84.1563,43.6094 L94.7188,43.6094 L94.7188,41.1094 L81.1875,41.1094 L81.1875,64.5625 M31.375,97.7031 C34.4219,97.7031 36.7188,96.4844 38.5781,94.3438 L36.9375,92.4844 C35.4375,94.1094 33.75,95.1094 31.5,95.1094 C27.0313,95.1094 24.2031,91.3906 24.2031,85.4688 C24.2031,79.625 27.1563,75.9688 31.5938,75.9688 C33.6094,75.9688 35.1875,76.9063 36.4063,78.2031 L38,76.2969 C36.6563,74.7813 34.4219,73.375 31.5625,73.375 C25.6094,73.375 21.1719,77.9844 21.1719,85.5625 C21.1719,93.1875 25.5469,97.7031 31.375,97.7031 M42.9219,97.2813 L56.1406,97.2813 L56.1406,94.75 L45.8906,94.75 L45.8906,73.8281 L42.9219,73.8281 L42.9219,97.2813 M63.2344,76.2344 L67.1719,76.2344 C70.8594,76.2344 72.875,77.3125 72.875,80.4219 C72.875,83.4531 70.8594,84.9375 67.1719,84.9375 L63.2344,84.9375 L63.2344,76.2344 M76.5156,97.2813 L70.5,87.0156 C73.7031,86.2344 75.8125,84.0625 75.8125,80.4219 C75.8125,75.5156 72.3906,73.8281 67.625,73.8281 L60.2656,73.8281 L60.2656,97.2813 L63.2344,97.2813 L63.2344,87.3281 L67.4688,87.3281 L73.1563,97.2813 L76.5156,97.2813"/>
</g>

<g fill="#ffffff" fill-opacity="1" stroke="none" transform="matrix(1,0,0,1,0,0)"
font-family="Noto Sans CJK JP" font-size="32" font-weight="400" font-style="normal" 
>
<path vector-effect="none" fill-rule="evenodd" d="M8.20313,64.5625 L11.1719,64.5625 L11.1719,53.4844 L22.125,53.4844 L22.125,64.5625 L25.0625,64.5625 L25.0625,41.1094 L22.125,41.1094 L22.125,50.9375 L11.1719,50.9375 L11.1719,41.1094 L8.20313,41.1094 L8.20313,64.5625 M40.1563,64.9844 C46.0469,64.9844 50.1719,60.2813 50.1719,52.75 C50.1719,45.2344 46.0469,40.6563 40.1563,40.6563 C34.2656,40.6563 30.1406,45.2344 30.1406,52.75 C30.1406,60.2813 34.2656,64.9844 40.1563,64.9844 M40.1563,62.3906 C35.9219,62.3906 33.1719,58.6094 33.1719,52.75 C33.1719,46.875 35.9219,43.25 40.1563,43.25 C44.3438,43.25 47.125,46.875 47.125,52.75 C47.125,58.6094 44.3438,62.3906 40.1563,62.3906 M55.2188,64.5625 L57.9063,64.5625 L57.9063,51.5781 C57.9063,49.5625 57.6719,46.7031 57.5469,44.6563 L57.6719,44.6563 L59.5313,50 L63.9844,62.1875 L65.9688,62.1875 L70.4219,50 L72.2656,44.6563 L72.3906,44.6563 C72.2344,46.7031 72.0156,49.5625 72.0156,51.5781 L72.0156,64.5625 L74.7969,64.5625 L74.7969,41.1094 L71.2188,41.1094 L66.7344,53.6563 C66.1875,55.2813 65.6719,56.9219 65.1406,58.5469 L64.9688,58.5469 C64.4063,56.9219 63.8594,55.2813 63.3125,53.6563 L58.7969,41.1094 L55.2188,41.1094 L55.2188,64.5625 M81.1875,64.5625 L95.0781,64.5625 L95.0781,62.0313 L84.1563,62.0313 L84.1563,53.4844 L93.0625,53.4844 L93.0625,50.9688 L84.1563,50.9688 L84.1563,43.6094 L94.7188,43.6094 L94.7188,41.1094 L81.1875,41.1094 L81.1875,64.5625 M31.375,97.7031 C34.4219,97.7031 36.7188,96.4844 38.5781,94.3438 L36.9375,92.4844 C35.4375,94.1094 33.75,95.1094 31.5,95.1094 C27.0313,95.1094 24.2031,91.3906 24.2031,85.4688 C24.2031,79.625 27.1563,75.9688 31.5938,75.9688 C33.6094,75.9688 35.1875,76.9063 36.4063,78.2031 L38,76.2969 C36.6563,74.7813 34.4219,73.375 31.5625,73.375 C25.6094,73.375 21.1719,77.9844 21.1719,85.5625 C21.1719,93.1875 25.5469,97.7031 31.375,97.7031 M42.9219,97.2813 L56.1406,97.2813 L56.1406,94.75 L45.8906,94.75 L45.8906,73.8281 L42.9219,73.8281 L42.9219,97.2813 M63.2344,76.2344 L67.1719,76.2344 C70.8594,76.2344 72.875,77.3125 72.875,80.4219 C72.875,83.4531 70.8594,84.9375 67.1719,84.9375 L63.2344,84.9375 L63.2344,76.2344 M76.5156,97.2813 L70.5,87.0156 C73.7031,86.2344 75.8125,84.0625 75.8125,80.4219 C75.8125,75.5156 72.3906,73.8281 67.625,73.8281 L60.2656,73.8281 L60.2656,97.2813 L63.2344,97.2813 L63.2344,87.3281 L67.4688,87.3281 L73.1563,97.2813 L76.5156,97.2813"/>
</g>
</g>
</svg>
