<?xml version="1.0" encoding="UTF-8" standalone="no"?>
<svg width="35.2778mm" height="45.8611mm"
 xmlns="http://www.w3.org/2000/svg" xmlns:xlink="http://www.w3.org/1999/xlink"  version="1.2" baseProfile="tiny">
<title>Qt SVG Document</title>
<desc>Generated with Qt</desc>
<defs>
</defs>
<g fill="none" stroke="black" stroke-width="1" fill-rule="evenodd" stroke-linecap="square" stroke-linejoin="bevel" >

<g fill="#c0c0c0" fill-opacity="1" stroke="none" transform="matrix(1,0,0,1,0,0)"
font-family="Noto Sans" font-size="10" font-weight="400" font-style="normal" 
>
<path vector-effect="none" fill-rule="evenodd" d="M1,6 C1,3.23858 3.23858,1 6,1 L95,1 C97.7614,1 100,3.23858 100,6 L100,125 C100,127.761 97.7614,130 95,130 L6,130 C3.23858,130 1,127.761 1,125 L1,6"/>
</g>

<g fill="none" stroke="#000000" stroke-opacity="1" stroke-width="2" stroke-linecap="square" stroke-linejoin="bevel" transform="matrix(1,0,0,1,0,0)"
font-family="Noto Sans" font-size="10" font-weight="400" font-style="normal" 
>
<path vector-effect="none" fill-rule="evenodd" d="M1,6 C1,3.23858 3.23858,1 6,1 L95,1 C97.7614,1 100,3.23858 100,6 L100,125 C100,127.761 97.7614,130 95,130 L6,130 C3.23858,130 1,127.761 1,125 L1,6"/>
</g>

<g fill="none" stroke="#000000" stroke-opacity="1" stroke-width="2" stroke-linecap="square" stroke-linejoin="bevel" transform="matrix(1,0,0,1,0,0)"
font-family="Noto Sans CJK JP" font-size="90" font-weight="400" font-style="normal" 
>
<path vector-effect="none" fill-rule="evenodd" d="M31.0156,87.7344 L31.0156,69.9063 L51.1719,69.9063 L51.1719,87.7344 L31.0156,87.7344 M90.5,87.7344 L57.9219,87.7344 L57.9219,69.9063 L84.2813,69.9063 L84.2813,63.6094 L57.9219,63.6094 L57.9219,49.9375 L86.3594,49.9375 L86.3594,43.4531 L32.7188,43.4531 C34.1563,40.3906 35.5938,37.1406 36.8594,33.9688 L30.1094,32.3438 C25.875,44.4375 18.3125,56.0469 9.85938,63.4375 C11.5625,64.3281 14.3594,66.5781 15.625,67.6563 C20.4844,62.9844 25.25,56.8594 29.2969,49.9375 L51.1719,49.9375 L51.1719,63.6094 L24.3438,63.6094 L24.3438,87.7344 L9.59375,87.7344 L9.59375,94.2188 L51.1719,94.2188 L51.1719,114.859 L57.9219,114.859 L57.9219,94.2188 L90.5,94.2188 L90.5,87.7344"/>
</g>

<g fill="#000000" fill-opacity="1" stroke="none" transform="matrix(1,0,0,1,0,0)"
font-family="Noto Sans CJK JP" font-size="90" font-weight="400" font-style="normal" 
>
<path vector-effect="none" fill-rule="evenodd" d="M31.0156,87.7344 L31.0156,69.9063 L51.1719,69.9063 L51.1719,87.7344 L31.0156,87.7344 M90.5,87.7344 L57.9219,87.7344 L57.9219,69.9063 L84.2813,69.9063 L84.2813,63.6094 L57.9219,63.6094 L57.9219,49.9375 L86.3594,49.9375 L86.3594,43.4531 L32.7188,43.4531 C34.1563,40.3906 35.5938,37.1406 36.8594,33.9688 L30.1094,32.3438 C25.875,44.4375 18.3125,56.0469 9.85938,63.4375 C11.5625,64.3281 14.3594,66.5781 15.625,67.6563 C20.4844,62.9844 25.25,56.8594 29.2969,49.9375 L51.1719,49.9375 L51.1719,63.6094 L24.3438,63.6094 L24.3438,87.7344 L9.59375,87.7344 L9.59375,94.2188 L51.1719,94.2188 L51.1719,114.859 L57.9219,114.859 L57.9219,94.2188 L90.5,94.2188 L90.5,87.7344"/>
</g>
</g>
</svg>
