<?xml version="1.0" encoding="UTF-8" standalone="no"?>
<svg width="35.2778mm" height="45.8611mm"
 xmlns="http://www.w3.org/2000/svg" xmlns:xlink="http://www.w3.org/1999/xlink"  version="1.2" baseProfile="tiny">
<title>Qt SVG Document</title>
<desc>Generated with Qt</desc>
<defs>
</defs>
<g fill="none" stroke="black" stroke-width="1" fill-rule="evenodd" stroke-linecap="square" stroke-linejoin="bevel" >

<g fill="#c0c0c0" fill-opacity="1" stroke="none" transform="matrix(1,0,0,1,0,0)"
font-family="Noto Sans" font-size="10" font-weight="400" font-style="normal" 
>
<path vector-effect="none" fill-rule="evenodd" d="M1,6 C1,3.23858 3.23858,1 6,1 L95,1 C97.7614,1 100,3.23858 100,6 L100,125 C100,127.761 97.7614,130 95,130 L6,130 C3.23858,130 1,127.761 1,125 L1,6"/>
</g>

<g fill="none" stroke="#000000" stroke-opacity="1" stroke-width="2" stroke-linecap="square" stroke-linejoin="bevel" transform="matrix(1,0,0,1,0,0)"
font-family="Noto Sans" font-size="10" font-weight="400" font-style="normal" 
>
<path vector-effect="none" fill-rule="evenodd" d="M1,6 C1,3.23858 3.23858,1 6,1 L95,1 C97.7614,1 100,3.23858 100,6 L100,125 C100,127.761 97.7614,130 95,130 L6,130 C3.23858,130 1,127.761 1,125 L1,6"/>
</g>

<g fill="none" stroke="#000000" stroke-opacity="1" stroke-width="2" stroke-linecap="square" stroke-linejoin="bevel" transform="matrix(1,0,0,1,0,0)"
font-family="Noto Sans CJK JP" font-size="90" font-weight="400" font-style="normal" 
>
<path vector-effect="none" fill-rule="evenodd" d="M20.4844,81.875 C20.4844,75.2188 24.2656,70.5469 28.6719,70.5469 C31.6406,70.5469 33.7969,73.0625 33.7969,77.2969 C33.7969,83.3281 31.8125,89.625 26.6875,89.625 C23.4531,89.625 20.4844,86.8281 20.4844,81.875 M71.5,82.9688 C72.0469,86.5625 72.1406,89.5313 72.1406,93.0469 C72.1406,98.9844 69.4375,101.594 64.75,102.938 C61.6094,103.844 54.5938,104.469 49.6406,104.469 C36.6719,104.469 35.5156,102.672 35.5156,97.7188 C35.5156,96.0938 35.5938,93.9375 35.6875,92.0469 C39.2031,88.0938 40.375,81.875 40.375,76.9375 C40.375,73.875 39.5625,71.1719 38.125,69.0156 L38.125,55.6094 C43.6094,55.0625 49.6406,54.1563 55.125,52.9063 L55.125,45.9688 C49.5469,47.5 43.7031,48.5781 38.125,49.125 L38.125,45.25 C38.125,41.9063 38.3906,38.6563 38.6563,36.7656 L30.7344,36.7656 C31.1875,38.6563 31.375,41.6406 31.375,45.25 L31.375,49.6563 C30.1094,49.75 28.9375,49.75 27.7656,49.75 C23.3594,49.75 18.9531,49.3906 13.6406,48.5781 L14,55.25 C19.125,55.9688 24.3438,56.1406 28.2188,56.1406 C29.2031,56.1406 30.2813,56.1406 31.375,56.0469 L31.375,64.875 C30.6563,64.7813 29.8438,64.6875 29.0313,64.6875 C20.2969,64.6875 14.4531,73.0625 14.4531,82.2344 C14.4531,92.5938 20.9219,96.2813 25.9688,96.2813 C26.9531,96.2813 27.9531,96.1875 28.7656,96.0156 C28.7656,97.3594 28.6719,98.7969 28.6719,100.328 C28.6719,106.906 31.375,111.219 49.1875,111.219 C55.0313,111.219 63.7656,110.5 67.6406,109.516 C75.7344,107.266 78.8906,103.391 79.25,95.0156 C79.4219,91.3281 79.3438,90.1563 79.25,85.3906 L71.5,82.9688 M65.2031,50.4688 C70.1563,53.9844 78.25,61.7188 82.5781,67.2969 L87.6094,62.1719 C83.6563,57.125 75.1094,49.2188 69.8906,45.7031 L65.2031,50.4688"/>
</g>

<g fill="#000000" fill-opacity="1" stroke="none" transform="matrix(1,0,0,1,0,0)"
font-family="Noto Sans CJK JP" font-size="90" font-weight="400" font-style="normal" 
>
<path vector-effect="none" fill-rule="evenodd" d="M20.4844,81.875 C20.4844,75.2188 24.2656,70.5469 28.6719,70.5469 C31.6406,70.5469 33.7969,73.0625 33.7969,77.2969 C33.7969,83.3281 31.8125,89.625 26.6875,89.625 C23.4531,89.625 20.4844,86.8281 20.4844,81.875 M71.5,82.9688 C72.0469,86.5625 72.1406,89.5313 72.1406,93.0469 C72.1406,98.9844 69.4375,101.594 64.75,102.938 C61.6094,103.844 54.5938,104.469 49.6406,104.469 C36.6719,104.469 35.5156,102.672 35.5156,97.7188 C35.5156,96.0938 35.5938,93.9375 35.6875,92.0469 C39.2031,88.0938 40.375,81.875 40.375,76.9375 C40.375,73.875 39.5625,71.1719 38.125,69.0156 L38.125,55.6094 C43.6094,55.0625 49.6406,54.1563 55.125,52.9063 L55.125,45.9688 C49.5469,47.5 43.7031,48.5781 38.125,49.125 L38.125,45.25 C38.125,41.9063 38.3906,38.6563 38.6563,36.7656 L30.7344,36.7656 C31.1875,38.6563 31.375,41.6406 31.375,45.25 L31.375,49.6563 C30.1094,49.75 28.9375,49.75 27.7656,49.75 C23.3594,49.75 18.9531,49.3906 13.6406,48.5781 L14,55.25 C19.125,55.9688 24.3438,56.1406 28.2188,56.1406 C29.2031,56.1406 30.2813,56.1406 31.375,56.0469 L31.375,64.875 C30.6563,64.7813 29.8438,64.6875 29.0313,64.6875 C20.2969,64.6875 14.4531,73.0625 14.4531,82.2344 C14.4531,92.5938 20.9219,96.2813 25.9688,96.2813 C26.9531,96.2813 27.9531,96.1875 28.7656,96.0156 C28.7656,97.3594 28.6719,98.7969 28.6719,100.328 C28.6719,106.906 31.375,111.219 49.1875,111.219 C55.0313,111.219 63.7656,110.5 67.6406,109.516 C75.7344,107.266 78.8906,103.391 79.25,95.0156 C79.4219,91.3281 79.3438,90.1563 79.25,85.3906 L71.5,82.9688 M65.2031,50.4688 C70.1563,53.9844 78.25,61.7188 82.5781,67.2969 L87.6094,62.1719 C83.6563,57.125 75.1094,49.2188 69.8906,45.7031 L65.2031,50.4688"/>
</g>
</g>
</svg>
