<?xml version="1.0" encoding="UTF-8" standalone="no"?>
<svg width="35.2778mm" height="45.8611mm"
 xmlns="http://www.w3.org/2000/svg" xmlns:xlink="http://www.w3.org/1999/xlink"  version="1.2" baseProfile="tiny">
<title>Qt SVG Document</title>
<desc>Generated with Qt</desc>
<defs>
</defs>
<g fill="none" stroke="black" stroke-width="1" fill-rule="evenodd" stroke-linecap="square" stroke-linejoin="bevel" >

<g fill="#c0c0c0" fill-opacity="1" stroke="none" transform="matrix(1,0,0,1,0,0)"
font-family="Noto Sans" font-size="10" font-weight="400" font-style="normal" 
>
<path vector-effect="none" fill-rule="evenodd" d="M1,6 C1,3.23858 3.23858,1 6,1 L95,1 C97.7614,1 100,3.23858 100,6 L100,125 C100,127.761 97.7614,130 95,130 L6,130 C3.23858,130 1,127.761 1,125 L1,6"/>
</g>

<g fill="none" stroke="#000000" stroke-opacity="1" stroke-width="2" stroke-linecap="square" stroke-linejoin="bevel" transform="matrix(1,0,0,1,0,0)"
font-family="Noto Sans" font-size="10" font-weight="400" font-style="normal" 
>
<path vector-effect="none" fill-rule="evenodd" d="M1,6 C1,3.23858 3.23858,1 6,1 L95,1 C97.7614,1 100,3.23858 100,6 L100,125 C100,127.761 97.7614,130 95,130 L6,130 C3.23858,130 1,127.761 1,125 L1,6"/>
</g>

<g fill="none" stroke="#000000" stroke-opacity="1" stroke-width="2" stroke-linecap="square" stroke-linejoin="bevel" transform="matrix(1,0,0,1,0,0)"
font-family="Noto Sans CJK JP" font-size="90" font-weight="400" font-style="normal" 
>
<path vector-effect="none" fill-rule="evenodd" d="M20.2031,39.125 C20.2031,41.0156 19.9375,43.4531 19.6719,45.5156 C18.5,52.8125 15.625,69.4688 15.625,82.5156 C15.625,94.5781 17.1563,104.375 18.9531,110.781 L25.4219,110.234 L25.1563,107.172 C25.1563,106.094 25.3438,104.375 25.6094,103.203 C26.5156,98.7969 29.75,89.7188 31.9063,83.5 L28.125,80.5313 C26.6875,84.125 24.5313,89.625 23.0938,93.6719 C22.5469,89.2656 22.2813,85.6563 22.2813,81.3438 C22.2813,71.3594 24.8906,54.0781 26.5938,45.7969 C26.9531,44.1719 27.6719,41.375 28.2188,39.8438 L20.2031,39.125 M64.5781,95.1094 C64.5781,99.875 62.7813,103.391 55.8438,103.391 C49.6406,103.391 45.7656,101.234 45.7656,96.7344 C45.7656,92.9531 49.9063,90.3438 56.2031,90.3438 C59,90.3438 61.7031,90.7031 64.4844,91.5156 C64.5781,92.9531 64.5781,94.2188 64.5781,95.1094 M86.625,62.8906 C81.6719,63.4375 76.0938,63.9688 70.0625,64.3281 L70.0625,49.6563 C75.5625,49.3906 80.5,49.0313 84.5625,48.5781 L84.5625,42.1875 C74.125,43.7188 57.7344,44.625 43.4219,43.5469 L43.4219,49.9375 C49.9063,50.2031 56.9219,50.2031 63.5,49.9375 L63.5,64.6094 C56.5625,64.7813 49.2813,64.6875 42.0781,64.1563 L42.0781,70.7188 C49.1875,71.0781 56.5625,71.1719 63.5938,70.9844 C63.6719,75.6719 63.9531,80.8906 64.2188,85.3906 C61.7031,85.0313 59.1719,84.7656 56.3906,84.7656 C44.6875,84.7656 39.375,90.875 39.375,97.0938 C39.375,105.453 46.6719,109.688 56.4844,109.688 C66.1094,109.688 71.2344,105.281 71.2344,98.0781 C71.2344,96.9063 71.2344,95.5625 71.1406,94.0313 C76.4531,96.5469 81.5,100.328 85.9063,104.922 L89.6875,98.625 C85.2813,94.6563 79.0625,89.8906 70.7813,87.0938 C70.5156,81.9688 70.25,76.2188 70.1563,70.7188 C76.2813,70.4531 81.9531,70 86.625,69.4688 L86.625,62.8906"/>
</g>

<g fill="#000000" fill-opacity="1" stroke="none" transform="matrix(1,0,0,1,0,0)"
font-family="Noto Sans CJK JP" font-size="90" font-weight="400" font-style="normal" 
>
<path vector-effect="none" fill-rule="evenodd" d="M20.2031,39.125 C20.2031,41.0156 19.9375,43.4531 19.6719,45.5156 C18.5,52.8125 15.625,69.4688 15.625,82.5156 C15.625,94.5781 17.1563,104.375 18.9531,110.781 L25.4219,110.234 L25.1563,107.172 C25.1563,106.094 25.3438,104.375 25.6094,103.203 C26.5156,98.7969 29.75,89.7188 31.9063,83.5 L28.125,80.5313 C26.6875,84.125 24.5313,89.625 23.0938,93.6719 C22.5469,89.2656 22.2813,85.6563 22.2813,81.3438 C22.2813,71.3594 24.8906,54.0781 26.5938,45.7969 C26.9531,44.1719 27.6719,41.375 28.2188,39.8438 L20.2031,39.125 M64.5781,95.1094 C64.5781,99.875 62.7813,103.391 55.8438,103.391 C49.6406,103.391 45.7656,101.234 45.7656,96.7344 C45.7656,92.9531 49.9063,90.3438 56.2031,90.3438 C59,90.3438 61.7031,90.7031 64.4844,91.5156 C64.5781,92.9531 64.5781,94.2188 64.5781,95.1094 M86.625,62.8906 C81.6719,63.4375 76.0938,63.9688 70.0625,64.3281 L70.0625,49.6563 C75.5625,49.3906 80.5,49.0313 84.5625,48.5781 L84.5625,42.1875 C74.125,43.7188 57.7344,44.625 43.4219,43.5469 L43.4219,49.9375 C49.9063,50.2031 56.9219,50.2031 63.5,49.9375 L63.5,64.6094 C56.5625,64.7813 49.2813,64.6875 42.0781,64.1563 L42.0781,70.7188 C49.1875,71.0781 56.5625,71.1719 63.5938,70.9844 C63.6719,75.6719 63.9531,80.8906 64.2188,85.3906 C61.7031,85.0313 59.1719,84.7656 56.3906,84.7656 C44.6875,84.7656 39.375,90.875 39.375,97.0938 C39.375,105.453 46.6719,109.688 56.4844,109.688 C66.1094,109.688 71.2344,105.281 71.2344,98.0781 C71.2344,96.9063 71.2344,95.5625 71.1406,94.0313 C76.4531,96.5469 81.5,100.328 85.9063,104.922 L89.6875,98.625 C85.2813,94.6563 79.0625,89.8906 70.7813,87.0938 C70.5156,81.9688 70.25,76.2188 70.1563,70.7188 C76.2813,70.4531 81.9531,70 86.625,69.4688 L86.625,62.8906"/>
</g>
</g>
</svg>
