<?xml version="1.0" encoding="UTF-8" standalone="no"?>
<svg width="35.2778mm" height="45.8611mm"
 xmlns="http://www.w3.org/2000/svg" xmlns:xlink="http://www.w3.org/1999/xlink"  version="1.2" baseProfile="tiny">
<title>Qt SVG Document</title>
<desc>Generated with Qt</desc>
<defs>
</defs>
<g fill="none" stroke="black" stroke-width="1" fill-rule="evenodd" stroke-linecap="square" stroke-linejoin="bevel" >

<g fill="#c0c0c0" fill-opacity="1" stroke="none" transform="matrix(1,0,0,1,0,0)"
font-family="Noto Sans" font-size="10" font-weight="400" font-style="normal" 
>
<path vector-effect="none" fill-rule="evenodd" d="M1,6 C1,3.23858 3.23858,1 6,1 L95,1 C97.7614,1 100,3.23858 100,6 L100,125 C100,127.761 97.7614,130 95,130 L6,130 C3.23858,130 1,127.761 1,125 L1,6"/>
</g>

<g fill="none" stroke="#000000" stroke-opacity="1" stroke-width="2" stroke-linecap="square" stroke-linejoin="bevel" transform="matrix(1,0,0,1,0,0)"
font-family="Noto Sans" font-size="10" font-weight="400" font-style="normal" 
>
<path vector-effect="none" fill-rule="evenodd" d="M1,6 C1,3.23858 3.23858,1 6,1 L95,1 C97.7614,1 100,3.23858 100,6 L100,125 C100,127.761 97.7614,130 95,130 L6,130 C3.23858,130 1,127.761 1,125 L1,6"/>
</g>

<g fill="none" stroke="#000000" stroke-opacity="1" stroke-width="2" stroke-linecap="square" stroke-linejoin="bevel" transform="matrix(1,0,0,1,0,0)"
font-family="Noto Sans CJK JP" font-size="90" font-weight="400" font-style="normal" 
>
<path vector-effect="none" fill-rule="evenodd" d="M79.7813,110.156 C79.7031,108.625 79.6094,106.641 79.6094,104.734 L79.6094,50.3906 C79.6094,48.1406 79.6094,46.25 79.7031,44.9844 C78.25,45.0781 75.9219,45.1563 73.3906,45.1563 L31.375,45.1563 C28.4844,45.1563 22.1875,44.9844 20.125,44.7188 L20.125,52.2656 C22.0938,52.1875 28.4844,52 31.375,52 L72.2344,52 L72.2344,71.2656 L32.3594,71.2656 C28.6719,71.2656 24.8906,71.0781 22.6406,70.8125 L22.6406,78.1875 C24.7969,78.1875 28.6719,78.1094 32.5313,78.1094 L72.2344,78.1094 L72.2344,98.625 L27.7656,98.625 C23.9063,98.625 20.5625,98.4375 18.7656,98.2656 L18.7656,105.906 C20.5625,105.734 24.2656,105.547 27.8594,105.547 L72.2344,105.547 C72.2344,107.359 72.1406,109.078 72.1406,110.156 L79.7813,110.156"/>
</g>

<g fill="#000000" fill-opacity="1" stroke="none" transform="matrix(1,0,0,1,0,0)"
font-family="Noto Sans CJK JP" font-size="90" font-weight="400" font-style="normal" 
>
<path vector-effect="none" fill-rule="evenodd" d="M79.7813,110.156 C79.7031,108.625 79.6094,106.641 79.6094,104.734 L79.6094,50.3906 C79.6094,48.1406 79.6094,46.25 79.7031,44.9844 C78.25,45.0781 75.9219,45.1563 73.3906,45.1563 L31.375,45.1563 C28.4844,45.1563 22.1875,44.9844 20.125,44.7188 L20.125,52.2656 C22.0938,52.1875 28.4844,52 31.375,52 L72.2344,52 L72.2344,71.2656 L32.3594,71.2656 C28.6719,71.2656 24.8906,71.0781 22.6406,70.8125 L22.6406,78.1875 C24.7969,78.1875 28.6719,78.1094 32.5313,78.1094 L72.2344,78.1094 L72.2344,98.625 L27.7656,98.625 C23.9063,98.625 20.5625,98.4375 18.7656,98.2656 L18.7656,105.906 C20.5625,105.734 24.2656,105.547 27.8594,105.547 L72.2344,105.547 C72.2344,107.359 72.1406,109.078 72.1406,110.156 L79.7813,110.156"/>
</g>
</g>
</svg>
