<?xml version="1.0" encoding="UTF-8" standalone="no"?>
<svg width="35.2778mm" height="45.8611mm"
 xmlns="http://www.w3.org/2000/svg" xmlns:xlink="http://www.w3.org/1999/xlink"  version="1.2" baseProfile="tiny">
<title>Qt SVG Document</title>
<desc>Generated with Qt</desc>
<defs>
</defs>
<g fill="none" stroke="black" stroke-width="1" fill-rule="evenodd" stroke-linecap="square" stroke-linejoin="bevel" >

<g fill="#c0c0c0" fill-opacity="1" stroke="none" transform="matrix(1,0,0,1,0,0)"
font-family="Noto Sans" font-size="10" font-weight="400" font-style="normal" 
>
<path vector-effect="none" fill-rule="evenodd" d="M1,6 C1,3.23858 3.23858,1 6,1 L95,1 C97.7614,1 100,3.23858 100,6 L100,125 C100,127.761 97.7614,130 95,130 L6,130 C3.23858,130 1,127.761 1,125 L1,6"/>
</g>

<g fill="none" stroke="#000000" stroke-opacity="1" stroke-width="2" stroke-linecap="square" stroke-linejoin="bevel" transform="matrix(1,0,0,1,0,0)"
font-family="Noto Sans" font-size="10" font-weight="400" font-style="normal" 
>
<path vector-effect="none" fill-rule="evenodd" d="M1,6 C1,3.23858 3.23858,1 6,1 L95,1 C97.7614,1 100,3.23858 100,6 L100,125 C100,127.761 97.7614,130 95,130 L6,130 C3.23858,130 1,127.761 1,125 L1,6"/>
</g>

<g fill="none" stroke="#000000" stroke-opacity="1" stroke-width="2" stroke-linecap="square" stroke-linejoin="bevel" transform="matrix(1,0,0,1,0,0)"
font-family="Noto Sans CJK JP" font-size="90" font-weight="400" font-style="normal" 
>
<path vector-effect="none" fill-rule="evenodd" d="M19.8438,38.4688 C19.8438,40 19.7656,42.3438 19.4063,44.4219 C18.3125,51.8125 16.0625,65.5938 16.0625,80 C16.0625,91.2656 18.9531,102.891 20.75,108.281 L26.875,107.563 L26.5938,104.5 C26.5938,103.516 26.7813,101.891 27.0469,100.547 C27.9531,96.125 30.6563,87.125 32.8125,80.9063 L28.8438,78.4688 C27.2344,82.8906 25.4219,88.2031 24.1719,91.9844 C20.9219,77.3906 23.9063,58.0313 26.6875,45.0625 C27.1406,43.3438 27.7656,40.9063 28.3125,39.2813 L19.8438,38.4688 M87.6094,54.5156 C83.3906,55.5156 78.3438,56.1406 73.125,56.5938 C73.0313,51 72.9531,45.1406 73.0313,43.1563 C73.125,41.1719 73.125,39.4688 73.3125,37.9375 L64.9375,37.9375 C65.2031,39.2813 65.5625,41.2656 65.75,43.25 C65.9219,45.5 66.1094,51.4531 66.2813,57.0469 C62.5,57.2188 58.7344,57.3125 55.0313,57.3125 C50.2656,57.3125 44.5938,56.9531 40.7344,56.3281 L40.7344,63.5156 C44.5938,63.875 50.8906,64.1563 55.125,64.1563 C58.8125,64.1563 62.6875,64.0625 66.4688,63.875 L66.4688,66.5 C66.4688,83.7031 66.0156,93.7031 56.4844,101.984 C54.2344,104.234 50.5313,106.391 47.75,107.563 L54.3125,112.797 C73.2188,101.625 73.2188,87.125 73.2188,66.5938 L73.2188,63.5156 C78.5313,63.1563 83.5625,62.625 87.6094,61.9063 L87.6094,54.5156"/>
</g>

<g fill="#000000" fill-opacity="1" stroke="none" transform="matrix(1,0,0,1,0,0)"
font-family="Noto Sans CJK JP" font-size="90" font-weight="400" font-style="normal" 
>
<path vector-effect="none" fill-rule="evenodd" d="M19.8438,38.4688 C19.8438,40 19.7656,42.3438 19.4063,44.4219 C18.3125,51.8125 16.0625,65.5938 16.0625,80 C16.0625,91.2656 18.9531,102.891 20.75,108.281 L26.875,107.563 L26.5938,104.5 C26.5938,103.516 26.7813,101.891 27.0469,100.547 C27.9531,96.125 30.6563,87.125 32.8125,80.9063 L28.8438,78.4688 C27.2344,82.8906 25.4219,88.2031 24.1719,91.9844 C20.9219,77.3906 23.9063,58.0313 26.6875,45.0625 C27.1406,43.3438 27.7656,40.9063 28.3125,39.2813 L19.8438,38.4688 M87.6094,54.5156 C83.3906,55.5156 78.3438,56.1406 73.125,56.5938 C73.0313,51 72.9531,45.1406 73.0313,43.1563 C73.125,41.1719 73.125,39.4688 73.3125,37.9375 L64.9375,37.9375 C65.2031,39.2813 65.5625,41.2656 65.75,43.25 C65.9219,45.5 66.1094,51.4531 66.2813,57.0469 C62.5,57.2188 58.7344,57.3125 55.0313,57.3125 C50.2656,57.3125 44.5938,56.9531 40.7344,56.3281 L40.7344,63.5156 C44.5938,63.875 50.8906,64.1563 55.125,64.1563 C58.8125,64.1563 62.6875,64.0625 66.4688,63.875 L66.4688,66.5 C66.4688,83.7031 66.0156,93.7031 56.4844,101.984 C54.2344,104.234 50.5313,106.391 47.75,107.563 L54.3125,112.797 C73.2188,101.625 73.2188,87.125 73.2188,66.5938 L73.2188,63.5156 C78.5313,63.1563 83.5625,62.625 87.6094,61.9063 L87.6094,54.5156"/>
</g>
</g>
</svg>
