<?xml version="1.0" encoding="UTF-8" standalone="no"?>
<svg width="35.2778mm" height="45.8611mm"
 xmlns="http://www.w3.org/2000/svg" xmlns:xlink="http://www.w3.org/1999/xlink"  version="1.2" baseProfile="tiny">
<title>Qt SVG Document</title>
<desc>Generated with Qt</desc>
<defs>
</defs>
<g fill="none" stroke="black" stroke-width="1" fill-rule="evenodd" stroke-linecap="square" stroke-linejoin="bevel" >

<g fill="#c0c0c0" fill-opacity="1" stroke="none" transform="matrix(1,0,0,1,0,0)"
font-family="Noto Sans" font-size="10" font-weight="400" font-style="normal" 
>
<path vector-effect="none" fill-rule="evenodd" d="M1,6 C1,3.23858 3.23858,1 6,1 L95,1 C97.7614,1 100,3.23858 100,6 L100,125 C100,127.761 97.7614,130 95,130 L6,130 C3.23858,130 1,127.761 1,125 L1,6"/>
</g>

<g fill="none" stroke="#000000" stroke-opacity="1" stroke-width="2" stroke-linecap="square" stroke-linejoin="bevel" transform="matrix(1,0,0,1,0,0)"
font-family="Noto Sans" font-size="10" font-weight="400" font-style="normal" 
>
<path vector-effect="none" fill-rule="evenodd" d="M1,6 C1,3.23858 3.23858,1 6,1 L95,1 C97.7614,1 100,3.23858 100,6 L100,125 C100,127.761 97.7614,130 95,130 L6,130 C3.23858,130 1,127.761 1,125 L1,6"/>
</g>

<g fill="none" stroke="#000000" stroke-opacity="1" stroke-width="2" stroke-linecap="square" stroke-linejoin="bevel" transform="matrix(1,0,0,1,0,0)"
font-family="Noto Sans CJK JP" font-size="90" font-weight="400" font-style="normal" 
>
<path vector-effect="none" fill-rule="evenodd" d="M29.3906,95.2969 C25.5156,95.2969 20.2969,90.3438 20.2969,79.0938 C20.2969,67.125 30.7344,52.4531 47.8438,50.2969 C46.8438,58.4844 45.1406,66.9375 42.8906,74.3281 C38.2969,89.3438 33.3438,95.2969 29.3906,95.2969 M52.875,110.25 C74.125,107.453 86.4531,94.9375 86.4531,76.2188 C86.4531,58.2188 73.125,43.4531 52.25,43.4531 C30.4688,43.4531 13.1875,60.375 13.1875,79.7188 C13.1875,94.3906 21.2031,103.578 29.125,103.578 C37.4063,103.578 44.5156,94.125 50,75.8594 C52.4219,67.4844 54.1406,58.4844 55.3125,50.2031 C70.4219,51.4688 78.9844,62.5313 78.9844,76.0313 C78.9844,91.4219 67.8125,99.875 56.3906,102.406 C54.2344,102.844 51.5313,103.297 48.7344,103.484 L52.875,110.25"/>
</g>

<g fill="#000000" fill-opacity="1" stroke="none" transform="matrix(1,0,0,1,0,0)"
font-family="Noto Sans CJK JP" font-size="90" font-weight="400" font-style="normal" 
>
<path vector-effect="none" fill-rule="evenodd" d="M29.3906,95.2969 C25.5156,95.2969 20.2969,90.3438 20.2969,79.0938 C20.2969,67.125 30.7344,52.4531 47.8438,50.2969 C46.8438,58.4844 45.1406,66.9375 42.8906,74.3281 C38.2969,89.3438 33.3438,95.2969 29.3906,95.2969 M52.875,110.25 C74.125,107.453 86.4531,94.9375 86.4531,76.2188 C86.4531,58.2188 73.125,43.4531 52.25,43.4531 C30.4688,43.4531 13.1875,60.375 13.1875,79.7188 C13.1875,94.3906 21.2031,103.578 29.125,103.578 C37.4063,103.578 44.5156,94.125 50,75.8594 C52.4219,67.4844 54.1406,58.4844 55.3125,50.2031 C70.4219,51.4688 78.9844,62.5313 78.9844,76.0313 C78.9844,91.4219 67.8125,99.875 56.3906,102.406 C54.2344,102.844 51.5313,103.297 48.7344,103.484 L52.875,110.25"/>
</g>
</g>
</svg>
