<?xml version="1.0" encoding="UTF-8" standalone="no"?>
<svg width="35.2778mm" height="45.8611mm"
 xmlns="http://www.w3.org/2000/svg" xmlns:xlink="http://www.w3.org/1999/xlink"  version="1.2" baseProfile="tiny">
<title>Qt SVG Document</title>
<desc>Generated with Qt</desc>
<defs>
</defs>
<g fill="none" stroke="black" stroke-width="1" fill-rule="evenodd" stroke-linecap="square" stroke-linejoin="bevel" >

<g fill="#c0c0c0" fill-opacity="1" stroke="none" transform="matrix(1,0,0,1,0,0)"
font-family="Noto Sans" font-size="10" font-weight="400" font-style="normal" 
>
<path vector-effect="none" fill-rule="evenodd" d="M1,6 C1,3.23858 3.23858,1 6,1 L95,1 C97.7614,1 100,3.23858 100,6 L100,125 C100,127.761 97.7614,130 95,130 L6,130 C3.23858,130 1,127.761 1,125 L1,6"/>
</g>

<g fill="none" stroke="#000000" stroke-opacity="1" stroke-width="2" stroke-linecap="square" stroke-linejoin="bevel" transform="matrix(1,0,0,1,0,0)"
font-family="Noto Sans" font-size="10" font-weight="400" font-style="normal" 
>
<path vector-effect="none" fill-rule="evenodd" d="M1,6 C1,3.23858 3.23858,1 6,1 L95,1 C97.7614,1 100,3.23858 100,6 L100,125 C100,127.761 97.7614,130 95,130 L6,130 C3.23858,130 1,127.761 1,125 L1,6"/>
</g>

<g fill="none" stroke="#000000" stroke-opacity="1" stroke-width="2" stroke-linecap="square" stroke-linejoin="bevel" transform="matrix(1,0,0,1,0,0)"
font-family="Noto Sans CJK JP" font-size="90" font-weight="400" font-style="normal" 
>
<path vector-effect="none" fill-rule="evenodd" d="M49.9063,104.922 C43.25,104.922 38.125,102.406 38.125,97.9844 C38.125,94.9375 41.1719,92.5 45.2344,92.5 C51.9844,92.5 56.2031,97.3594 57.0156,104.375 C54.8594,104.734 52.4219,104.922 49.9063,104.922 M68.2656,40.2031 C67.2813,40.4844 66.0156,40.6563 63.4063,40.9375 C58.7344,41.375 37.5781,42.0156 32.9844,42.0156 C31.1875,42.0156 28.6719,42.0156 26.6875,41.75 L26.875,49.2188 C28.7656,48.8594 30.8281,48.7656 32.9063,48.6719 C37.4844,48.4063 55.0313,47.5938 59.7188,47.4063 C55.3125,51.375 44.2344,60.7344 39.2813,64.875 C34.0625,69.1875 22.6406,78.7344 15.2656,84.8438 L20.4844,90.1563 C31.8125,78.6406 39.9219,72.4375 54.5938,72.4375 C65.8438,72.4375 74.6563,78.8281 74.6563,87.5469 C74.6563,94.8438 70.6094,99.9688 63.5938,102.672 C62.4219,94.3906 56.3906,86.9219 45.2344,86.9219 C36.9531,86.9219 31.4531,92.5 31.4531,98.625 C31.4531,106 38.9219,111.406 51.0781,111.406 C69.8906,111.406 81.8594,102.047 81.8594,87.6406 C81.8594,75.5781 71.1406,66.5781 56.2969,66.5781 C52.3438,66.5781 48.2813,67.125 44.2344,68.4688 C51.0781,62.7188 63.0469,52.1875 67.4531,48.8594 C68.8125,47.8594 70.7813,46.5156 72.4063,45.4375 L68.2656,40.2031"/>
</g>

<g fill="#000000" fill-opacity="1" stroke="none" transform="matrix(1,0,0,1,0,0)"
font-family="Noto Sans CJK JP" font-size="90" font-weight="400" font-style="normal" 
>
<path vector-effect="none" fill-rule="evenodd" d="M49.9063,104.922 C43.25,104.922 38.125,102.406 38.125,97.9844 C38.125,94.9375 41.1719,92.5 45.2344,92.5 C51.9844,92.5 56.2031,97.3594 57.0156,104.375 C54.8594,104.734 52.4219,104.922 49.9063,104.922 M68.2656,40.2031 C67.2813,40.4844 66.0156,40.6563 63.4063,40.9375 C58.7344,41.375 37.5781,42.0156 32.9844,42.0156 C31.1875,42.0156 28.6719,42.0156 26.6875,41.75 L26.875,49.2188 C28.7656,48.8594 30.8281,48.7656 32.9063,48.6719 C37.4844,48.4063 55.0313,47.5938 59.7188,47.4063 C55.3125,51.375 44.2344,60.7344 39.2813,64.875 C34.0625,69.1875 22.6406,78.7344 15.2656,84.8438 L20.4844,90.1563 C31.8125,78.6406 39.9219,72.4375 54.5938,72.4375 C65.8438,72.4375 74.6563,78.8281 74.6563,87.5469 C74.6563,94.8438 70.6094,99.9688 63.5938,102.672 C62.4219,94.3906 56.3906,86.9219 45.2344,86.9219 C36.9531,86.9219 31.4531,92.5 31.4531,98.625 C31.4531,106 38.9219,111.406 51.0781,111.406 C69.8906,111.406 81.8594,102.047 81.8594,87.6406 C81.8594,75.5781 71.1406,66.5781 56.2969,66.5781 C52.3438,66.5781 48.2813,67.125 44.2344,68.4688 C51.0781,62.7188 63.0469,52.1875 67.4531,48.8594 C68.8125,47.8594 70.7813,46.5156 72.4063,45.4375 L68.2656,40.2031"/>
</g>
</g>
</svg>
