<?xml version="1.0" encoding="UTF-8" standalone="no"?>
<svg width="35.2778mm" height="45.8611mm"
 xmlns="http://www.w3.org/2000/svg" xmlns:xlink="http://www.w3.org/1999/xlink"  version="1.2" baseProfile="tiny">
<title>Qt SVG Document</title>
<desc>Generated with Qt</desc>
<defs>
</defs>
<g fill="none" stroke="black" stroke-width="1" fill-rule="evenodd" stroke-linecap="square" stroke-linejoin="bevel" >

<g fill="#c0c0c0" fill-opacity="1" stroke="none" transform="matrix(1,0,0,1,0,0)"
font-family="Noto Sans" font-size="10" font-weight="400" font-style="normal" 
>
<path vector-effect="none" fill-rule="evenodd" d="M1,6 C1,3.23858 3.23858,1 6,1 L95,1 C97.7614,1 100,3.23858 100,6 L100,125 C100,127.761 97.7614,130 95,130 L6,130 C3.23858,130 1,127.761 1,125 L1,6"/>
</g>

<g fill="none" stroke="#000000" stroke-opacity="1" stroke-width="2" stroke-linecap="square" stroke-linejoin="bevel" transform="matrix(1,0,0,1,0,0)"
font-family="Noto Sans" font-size="10" font-weight="400" font-style="normal" 
>
<path vector-effect="none" fill-rule="evenodd" d="M1,6 C1,3.23858 3.23858,1 6,1 L95,1 C97.7614,1 100,3.23858 100,6 L100,125 C100,127.761 97.7614,130 95,130 L6,130 C3.23858,130 1,127.761 1,125 L1,6"/>
</g>

<g fill="none" stroke="#000000" stroke-opacity="1" stroke-width="2" stroke-linecap="square" stroke-linejoin="bevel" transform="matrix(1,0,0,1,0,0)"
font-family="Noto Sans CJK JP" font-size="90" font-weight="400" font-style="normal" 
>
<path vector-effect="none" fill-rule="evenodd" d="M64.125,85.9219 C71.3281,78.4531 78.3438,67.1875 82.4844,59.7188 C83.1094,58.5469 84.1094,57.0156 84.7344,56.1094 L79.4219,51.9688 C78.3438,52.6094 76.6406,53.1406 74.6563,53.5938 C70.875,54.4063 55.125,57.6406 39.8281,60.625 L39.8281,46.5625 C39.8281,43.9531 40.0156,40.8906 40.4531,38.2813 L31.9063,38.2813 C32.3594,40.8906 32.5313,43.875 32.5313,46.5625 L32.5313,61.9688 C23,63.7656 14.4531,65.2969 10.4063,65.8438 L11.8438,73.4063 C15.4375,72.5938 23.4531,70.8906 32.5313,69.0781 L32.5313,96.2813 C32.5313,105.188 35.5938,109.516 52.3438,109.516 C63.5938,109.516 72.5938,108.797 80.5938,107.703 L80.9531,99.9688 C71.9531,101.688 63.3125,102.578 52.875,102.578 C42.0781,102.578 39.8281,100.594 39.8281,94.3906 L39.8281,67.6406 C55.7656,64.4063 72.3125,61.0625 73.8438,60.7031 C71.1406,66.1094 64.5781,76.0156 57.8281,82.1406 L64.125,85.9219"/>
</g>

<g fill="#000000" fill-opacity="1" stroke="none" transform="matrix(1,0,0,1,0,0)"
font-family="Noto Sans CJK JP" font-size="90" font-weight="400" font-style="normal" 
>
<path vector-effect="none" fill-rule="evenodd" d="M64.125,85.9219 C71.3281,78.4531 78.3438,67.1875 82.4844,59.7188 C83.1094,58.5469 84.1094,57.0156 84.7344,56.1094 L79.4219,51.9688 C78.3438,52.6094 76.6406,53.1406 74.6563,53.5938 C70.875,54.4063 55.125,57.6406 39.8281,60.625 L39.8281,46.5625 C39.8281,43.9531 40.0156,40.8906 40.4531,38.2813 L31.9063,38.2813 C32.3594,40.8906 32.5313,43.875 32.5313,46.5625 L32.5313,61.9688 C23,63.7656 14.4531,65.2969 10.4063,65.8438 L11.8438,73.4063 C15.4375,72.5938 23.4531,70.8906 32.5313,69.0781 L32.5313,96.2813 C32.5313,105.188 35.5938,109.516 52.3438,109.516 C63.5938,109.516 72.5938,108.797 80.5938,107.703 L80.9531,99.9688 C71.9531,101.688 63.3125,102.578 52.875,102.578 C42.0781,102.578 39.8281,100.594 39.8281,94.3906 L39.8281,67.6406 C55.7656,64.4063 72.3125,61.0625 73.8438,60.7031 C71.1406,66.1094 64.5781,76.0156 57.8281,82.1406 L64.125,85.9219"/>
</g>
</g>
</svg>
