<?xml version="1.0" encoding="UTF-8" standalone="no"?>
<svg width="35.2778mm" height="45.8611mm"
 xmlns="http://www.w3.org/2000/svg" xmlns:xlink="http://www.w3.org/1999/xlink"  version="1.2" baseProfile="tiny">
<title>Qt SVG Document</title>
<desc>Generated with Qt</desc>
<defs>
</defs>
<g fill="none" stroke="black" stroke-width="1" fill-rule="evenodd" stroke-linecap="square" stroke-linejoin="bevel" >

<g fill="#c0c0c0" fill-opacity="1" stroke="none" transform="matrix(1,0,0,1,0,0)"
font-family="Noto Sans" font-size="10" font-weight="400" font-style="normal" 
>
<path vector-effect="none" fill-rule="evenodd" d="M1,6 C1,3.23858 3.23858,1 6,1 L95,1 C97.7614,1 100,3.23858 100,6 L100,125 C100,127.761 97.7614,130 95,130 L6,130 C3.23858,130 1,127.761 1,125 L1,6"/>
</g>

<g fill="none" stroke="#000000" stroke-opacity="1" stroke-width="2" stroke-linecap="square" stroke-linejoin="bevel" transform="matrix(1,0,0,1,0,0)"
font-family="Noto Sans" font-size="10" font-weight="400" font-style="normal" 
>
<path vector-effect="none" fill-rule="evenodd" d="M1,6 C1,3.23858 3.23858,1 6,1 L95,1 C97.7614,1 100,3.23858 100,6 L100,125 C100,127.761 97.7614,130 95,130 L6,130 C3.23858,130 1,127.761 1,125 L1,6"/>
</g>

<g fill="none" stroke="#000000" stroke-opacity="1" stroke-width="2" stroke-linecap="square" stroke-linejoin="bevel" transform="matrix(1,0,0,1,0,0)"
font-family="Noto Sans CJK JP" font-size="90" font-weight="400" font-style="normal" 
>
<path vector-effect="none" fill-rule="evenodd" d="M11.9375,107.891 L20.125,107.891 L20.125,72.4375 C25.3438,67.3906 30.4688,64.9688 34.9688,64.9688 C42.4375,64.9688 46.125,69.1094 46.125,78.0156 L46.125,107.891 L54.3125,107.891 L54.3125,72.4375 C59.7188,67.3906 64.5781,64.9688 69.25,64.9688 C76.8125,64.9688 80.4219,69.0156 80.4219,78.0156 L80.4219,107.891 L88.6094,107.891 L88.6094,76.9375 C88.6094,64.6094 83.3906,57.7656 72.0469,57.7656 C65.125,57.7656 59,61.625 53.0625,67.125 C50.625,61.4531 46.125,57.7656 37.7656,57.7656 C30.7344,57.7656 24.7969,61.4531 19.7656,66.125 L19.4844,66.125 L18.6719,58.8438 L11.9375,58.8438 L11.9375,107.891"/>
</g>

<g fill="#000000" fill-opacity="1" stroke="none" transform="matrix(1,0,0,1,0,0)"
font-family="Noto Sans CJK JP" font-size="90" font-weight="400" font-style="normal" 
>
<path vector-effect="none" fill-rule="evenodd" d="M11.9375,107.891 L20.125,107.891 L20.125,72.4375 C25.3438,67.3906 30.4688,64.9688 34.9688,64.9688 C42.4375,64.9688 46.125,69.1094 46.125,78.0156 L46.125,107.891 L54.3125,107.891 L54.3125,72.4375 C59.7188,67.3906 64.5781,64.9688 69.25,64.9688 C76.8125,64.9688 80.4219,69.0156 80.4219,78.0156 L80.4219,107.891 L88.6094,107.891 L88.6094,76.9375 C88.6094,64.6094 83.3906,57.7656 72.0469,57.7656 C65.125,57.7656 59,61.625 53.0625,67.125 C50.625,61.4531 46.125,57.7656 37.7656,57.7656 C30.7344,57.7656 24.7969,61.4531 19.7656,66.125 L19.4844,66.125 L18.6719,58.8438 L11.9375,58.8438 L11.9375,107.891"/>
</g>
</g>
</svg>
