<?xml version="1.0" encoding="UTF-8" standalone="no"?>
<svg width="35.2778mm" height="45.8611mm"
 xmlns="http://www.w3.org/2000/svg" xmlns:xlink="http://www.w3.org/1999/xlink"  version="1.2" baseProfile="tiny">
<title>Qt SVG Document</title>
<desc>Generated with Qt</desc>
<defs>
</defs>
<g fill="none" stroke="black" stroke-width="1" fill-rule="evenodd" stroke-linecap="square" stroke-linejoin="bevel" >

<g fill="#c0c0c0" fill-opacity="1" stroke="none" transform="matrix(1,0,0,1,0,0)"
font-family="Noto Sans" font-size="10" font-weight="400" font-style="normal" 
>
<path vector-effect="none" fill-rule="evenodd" d="M1,6 C1,3.23858 3.23858,1 6,1 L95,1 C97.7614,1 100,3.23858 100,6 L100,125 C100,127.761 97.7614,130 95,130 L6,130 C3.23858,130 1,127.761 1,125 L1,6"/>
</g>

<g fill="none" stroke="#000000" stroke-opacity="1" stroke-width="2" stroke-linecap="square" stroke-linejoin="bevel" transform="matrix(1,0,0,1,0,0)"
font-family="Noto Sans" font-size="10" font-weight="400" font-style="normal" 
>
<path vector-effect="none" fill-rule="evenodd" d="M1,6 C1,3.23858 3.23858,1 6,1 L95,1 C97.7614,1 100,3.23858 100,6 L100,125 C100,127.761 97.7614,130 95,130 L6,130 C3.23858,130 1,127.761 1,125 L1,6"/>
</g>

<g fill="none" stroke="#000000" stroke-opacity="1" stroke-width="2" stroke-linecap="square" stroke-linejoin="bevel" transform="matrix(1,0,0,1,0,0)"
font-family="Noto Sans CJK JP" font-size="90" font-weight="400" font-style="normal" 
>
<path vector-effect="none" fill-rule="evenodd" d="M21.1094,39.75 C21.1094,41.6406 20.75,43.9844 20.4844,46.0625 C19.4063,53.3594 16.5156,68.6563 16.5156,81.7969 C16.5156,93.8438 17.9531,104.109 19.7656,110.422 L26.2344,109.969 L25.9688,106.813 C25.9688,105.828 26.1563,104.109 26.4219,102.844 C27.2344,98.625 30.4688,89.1719 32.7188,82.875 L28.8438,79.9844 C27.4063,83.5 25.4219,88.7188 23.9063,92.7656 C23.3594,88.4531 23.1719,84.8438 23.1719,80.5313 C23.1719,70.5469 25.7969,54.6094 27.5,46.4219 C27.8594,44.7969 28.6719,41.9063 29.2031,40.375 L21.1094,39.75 M43.0625,82.9688 C42.2656,86.7344 41.625,90.25 41.625,93.4844 C41.625,101.859 48.2813,106.813 63.2344,106.813 C72.5,106.813 79.9688,106.094 85.4531,105.016 L85.3594,97.4531 C78.1719,99.0781 71.3281,99.7969 63.3125,99.7969 C51.0781,99.7969 48.375,95.8281 48.375,91.7813 C48.375,89.3438 48.7344,86.8281 49.5469,83.5938 L43.0625,82.9688 M46.125,54.6094 C55.8438,55.6094 73.125,55.6094 82.6719,54.6094 L82.6719,47.2344 C73.75,48.5 55.7656,48.8594 46.0313,47.2344 L46.125,54.6094"/>
</g>

<g fill="#000000" fill-opacity="1" stroke="none" transform="matrix(1,0,0,1,0,0)"
font-family="Noto Sans CJK JP" font-size="90" font-weight="400" font-style="normal" 
>
<path vector-effect="none" fill-rule="evenodd" d="M21.1094,39.75 C21.1094,41.6406 20.75,43.9844 20.4844,46.0625 C19.4063,53.3594 16.5156,68.6563 16.5156,81.7969 C16.5156,93.8438 17.9531,104.109 19.7656,110.422 L26.2344,109.969 L25.9688,106.813 C25.9688,105.828 26.1563,104.109 26.4219,102.844 C27.2344,98.625 30.4688,89.1719 32.7188,82.875 L28.8438,79.9844 C27.4063,83.5 25.4219,88.7188 23.9063,92.7656 C23.3594,88.4531 23.1719,84.8438 23.1719,80.5313 C23.1719,70.5469 25.7969,54.6094 27.5,46.4219 C27.8594,44.7969 28.6719,41.9063 29.2031,40.375 L21.1094,39.75 M43.0625,82.9688 C42.2656,86.7344 41.625,90.25 41.625,93.4844 C41.625,101.859 48.2813,106.813 63.2344,106.813 C72.5,106.813 79.9688,106.094 85.4531,105.016 L85.3594,97.4531 C78.1719,99.0781 71.3281,99.7969 63.3125,99.7969 C51.0781,99.7969 48.375,95.8281 48.375,91.7813 C48.375,89.3438 48.7344,86.8281 49.5469,83.5938 L43.0625,82.9688 M46.125,54.6094 C55.8438,55.6094 73.125,55.6094 82.6719,54.6094 L82.6719,47.2344 C73.75,48.5 55.7656,48.8594 46.0313,47.2344 L46.125,54.6094"/>
</g>
</g>
</svg>
