<?xml version="1.0" encoding="UTF-8" standalone="no"?>
<svg width="35.2778mm" height="45.8611mm"
 xmlns="http://www.w3.org/2000/svg" xmlns:xlink="http://www.w3.org/1999/xlink"  version="1.2" baseProfile="tiny">
<title>Qt SVG Document</title>
<desc>Generated with Qt</desc>
<defs>
</defs>
<g fill="none" stroke="black" stroke-width="1" fill-rule="evenodd" stroke-linecap="square" stroke-linejoin="bevel" >

<g fill="#c0c0c0" fill-opacity="1" stroke="none" transform="matrix(1,0,0,1,0,0)"
font-family="Noto Sans" font-size="10" font-weight="400" font-style="normal" 
>
<path vector-effect="none" fill-rule="evenodd" d="M1,6 C1,3.23858 3.23858,1 6,1 L95,1 C97.7614,1 100,3.23858 100,6 L100,125 C100,127.761 97.7614,130 95,130 L6,130 C3.23858,130 1,127.761 1,125 L1,6"/>
</g>

<g fill="none" stroke="#000000" stroke-opacity="1" stroke-width="2" stroke-linecap="square" stroke-linejoin="bevel" transform="matrix(1,0,0,1,0,0)"
font-family="Noto Sans" font-size="10" font-weight="400" font-style="normal" 
>
<path vector-effect="none" fill-rule="evenodd" d="M1,6 C1,3.23858 3.23858,1 6,1 L95,1 C97.7614,1 100,3.23858 100,6 L100,125 C100,127.761 97.7614,130 95,130 L6,130 C3.23858,130 1,127.761 1,125 L1,6"/>
</g>

<g fill="none" stroke="#000000" stroke-opacity="1" stroke-width="2" stroke-linecap="square" stroke-linejoin="bevel" transform="matrix(1,0,0,1,0,0)"
font-family="Noto Sans CJK JP" font-size="90" font-weight="400" font-style="normal" 
>
<path vector-effect="none" fill-rule="evenodd" d="M25.0625,107.891 L43.7813,107.891 C66.6406,107.891 78.7969,95.4688 78.7969,74.5 C78.7969,53.625 66.6406,41.75 43.3438,41.75 L25.0625,41.75 L25.0625,107.891 M33.1719,100.953 L33.1719,48.6719 L42.7969,48.6719 C60.8906,48.6719 70.25,57.5781 70.25,74.5 C70.25,91.5156 60.8906,100.953 42.7969,100.953 L33.1719,100.953"/>
</g>

<g fill="#000000" fill-opacity="1" stroke="none" transform="matrix(1,0,0,1,0,0)"
font-family="Noto Sans CJK JP" font-size="90" font-weight="400" font-style="normal" 
>
<path vector-effect="none" fill-rule="evenodd" d="M25.0625,107.891 L43.7813,107.891 C66.6406,107.891 78.7969,95.4688 78.7969,74.5 C78.7969,53.625 66.6406,41.75 43.3438,41.75 L25.0625,41.75 L25.0625,107.891 M33.1719,100.953 L33.1719,48.6719 L42.7969,48.6719 C60.8906,48.6719 70.25,57.5781 70.25,74.5 C70.25,91.5156 60.8906,100.953 42.7969,100.953 L33.1719,100.953"/>
</g>
</g>
</svg>
