<?xml version="1.0" encoding="UTF-8" standalone="no"?>
<svg width="35.2778mm" height="45.8611mm"
 xmlns="http://www.w3.org/2000/svg" xmlns:xlink="http://www.w3.org/1999/xlink"  version="1.2" baseProfile="tiny">
<title>Qt SVG Document</title>
<desc>Generated with Qt</desc>
<defs>
</defs>
<g fill="none" stroke="black" stroke-width="1" fill-rule="evenodd" stroke-linecap="square" stroke-linejoin="bevel" >

<g fill="#c0c0c0" fill-opacity="1" stroke="none" transform="matrix(1,0,0,1,0,0)"
font-family="Noto Sans" font-size="10" font-weight="400" font-style="normal" 
>
<path vector-effect="none" fill-rule="evenodd" d="M1,6 C1,3.23858 3.23858,1 6,1 L95,1 C97.7614,1 100,3.23858 100,6 L100,125 C100,127.761 97.7614,130 95,130 L6,130 C3.23858,130 1,127.761 1,125 L1,6"/>
</g>

<g fill="none" stroke="#000000" stroke-opacity="1" stroke-width="2" stroke-linecap="square" stroke-linejoin="bevel" transform="matrix(1,0,0,1,0,0)"
font-family="Noto Sans" font-size="10" font-weight="400" font-style="normal" 
>
<path vector-effect="none" fill-rule="evenodd" d="M1,6 C1,3.23858 3.23858,1 6,1 L95,1 C97.7614,1 100,3.23858 100,6 L100,125 C100,127.761 97.7614,130 95,130 L6,130 C3.23858,130 1,127.761 1,125 L1,6"/>
</g>

<g fill="none" stroke="#000000" stroke-opacity="1" stroke-width="2" stroke-linecap="square" stroke-linejoin="bevel" transform="matrix(1,0,0,1,0,0)"
font-family="Noto Sans CJK JP" font-size="90" font-weight="400" font-style="normal" 
>
<path vector-effect="none" fill-rule="evenodd" d="M28.7656,40.8438 L29.125,48.2188 C31.0156,48.0469 33.7031,47.8594 35.9531,47.6875 C39.8281,47.3281 55.3125,46.5156 59.2656,46.25 C53.5938,51.2813 39.5625,63.6094 29.8438,70.2656 C25.3438,70.8125 19.3125,71.625 14.5469,72.0781 L15.1719,78.9063 C25.7969,77.2031 37.6719,75.7656 47.2031,74.9531 C42.625,77.6563 36.8594,84.125 36.8594,91.6875 C36.8594,105.375 48.7344,112.219 70.5156,111.313 L71.9531,104.016 C68.8125,104.297 64.3906,104.375 59.1719,103.656 C51.0781,102.578 43.875,99.5156 43.875,90.6094 C43.875,82.3281 52.3438,74.9531 60.9844,73.7813 C66.2813,72.9688 74.8438,72.875 83.5625,73.3281 L83.5625,66.5781 C70.7813,66.5781 54.7656,67.8438 41.2656,69.2813 C48.375,63.6094 61.25,52.9063 67.9063,47.4063 C69.1719,46.3281 71.4219,44.7969 72.6719,44.0781 L68.0938,38.8594 C67,39.2188 65.2969,39.5781 63.2344,39.7656 C58.0938,40.3906 39.7344,41.1094 35.875,41.1094 C33.1719,41.2031 30.9219,41.1094 28.7656,40.8438 "/>
</g>

<g fill="#000000" fill-opacity="1" stroke="none" transform="matrix(1,0,0,1,0,0)"
font-family="Noto Sans CJK JP" font-size="90" font-weight="400" font-style="normal" 
>
<path vector-effect="none" fill-rule="evenodd" d="M28.7656,40.8438 L29.125,48.2188 C31.0156,48.0469 33.7031,47.8594 35.9531,47.6875 C39.8281,47.3281 55.3125,46.5156 59.2656,46.25 C53.5938,51.2813 39.5625,63.6094 29.8438,70.2656 C25.3438,70.8125 19.3125,71.625 14.5469,72.0781 L15.1719,78.9063 C25.7969,77.2031 37.6719,75.7656 47.2031,74.9531 C42.625,77.6563 36.8594,84.125 36.8594,91.6875 C36.8594,105.375 48.7344,112.219 70.5156,111.313 L71.9531,104.016 C68.8125,104.297 64.3906,104.375 59.1719,103.656 C51.0781,102.578 43.875,99.5156 43.875,90.6094 C43.875,82.3281 52.3438,74.9531 60.9844,73.7813 C66.2813,72.9688 74.8438,72.875 83.5625,73.3281 L83.5625,66.5781 C70.7813,66.5781 54.7656,67.8438 41.2656,69.2813 C48.375,63.6094 61.25,52.9063 67.9063,47.4063 C69.1719,46.3281 71.4219,44.7969 72.6719,44.0781 L68.0938,38.8594 C67,39.2188 65.2969,39.5781 63.2344,39.7656 C58.0938,40.3906 39.7344,41.1094 35.875,41.1094 C33.1719,41.2031 30.9219,41.1094 28.7656,40.8438 "/>
</g>
</g>
</svg>
