<?xml version="1.0" encoding="UTF-8" standalone="no"?>
<svg width="35.2778mm" height="45.8611mm"
 xmlns="http://www.w3.org/2000/svg" xmlns:xlink="http://www.w3.org/1999/xlink"  version="1.2" baseProfile="tiny">
<title>Qt SVG Document</title>
<desc>Generated with Qt</desc>
<defs>
</defs>
<g fill="none" stroke="black" stroke-width="1" fill-rule="evenodd" stroke-linecap="square" stroke-linejoin="bevel" >

<g fill="#c0c0c0" fill-opacity="1" stroke="none" transform="matrix(1,0,0,1,0,0)"
font-family="Noto Sans" font-size="10" font-weight="400" font-style="normal" 
>
<path vector-effect="none" fill-rule="evenodd" d="M1,6 C1,3.23858 3.23858,1 6,1 L95,1 C97.7614,1 100,3.23858 100,6 L100,125 C100,127.761 97.7614,130 95,130 L6,130 C3.23858,130 1,127.761 1,125 L1,6"/>
</g>

<g fill="none" stroke="#000000" stroke-opacity="1" stroke-width="2" stroke-linecap="square" stroke-linejoin="bevel" transform="matrix(1,0,0,1,0,0)"
font-family="Noto Sans" font-size="10" font-weight="400" font-style="normal" 
>
<path vector-effect="none" fill-rule="evenodd" d="M1,6 C1,3.23858 3.23858,1 6,1 L95,1 C97.7614,1 100,3.23858 100,6 L100,125 C100,127.761 97.7614,130 95,130 L6,130 C3.23858,130 1,127.761 1,125 L1,6"/>
</g>

<g fill="none" stroke="#000000" stroke-opacity="1" stroke-width="2" stroke-linecap="square" stroke-linejoin="bevel" transform="matrix(1,0,0,1,0,0)"
font-family="Noto Sans CJK JP" font-size="90" font-weight="400" font-style="normal" 
>
<path vector-effect="none" fill-rule="evenodd" d="M78.3438,44.3594 C76.8125,44.7188 74.6563,44.8906 72.6719,44.8906 L26.5156,44.8906 C22.6406,44.8906 19.3125,44.7969 16.875,44.625 C17.1563,46.6094 17.2344,48.5781 17.2344,50.6563 L17.2344,69.8281 C17.2344,71.5469 17.1563,73.4375 16.875,75.5938 L25.0625,75.5938 C24.8906,73.4375 24.7969,71.1875 24.7969,69.8281 L24.7969,51.8281 L74.4844,51.8281 C73.5781,62.4531 71.0625,73.9844 65.9219,82 C58.5469,93.5156 45.6719,101.359 32.4531,104.875 L38.5625,111.078 C53.0625,106.406 65.3906,97.2188 72.6719,85.6875 C79.1563,75.5156 81.0469,62.7188 82.6719,52 C82.8438,51.1875 83.4844,48.7656 83.8438,47.8594 L78.3438,44.3594"/>
</g>

<g fill="#000000" fill-opacity="1" stroke="none" transform="matrix(1,0,0,1,0,0)"
font-family="Noto Sans CJK JP" font-size="90" font-weight="400" font-style="normal" 
>
<path vector-effect="none" fill-rule="evenodd" d="M78.3438,44.3594 C76.8125,44.7188 74.6563,44.8906 72.6719,44.8906 L26.5156,44.8906 C22.6406,44.8906 19.3125,44.7969 16.875,44.625 C17.1563,46.6094 17.2344,48.5781 17.2344,50.6563 L17.2344,69.8281 C17.2344,71.5469 17.1563,73.4375 16.875,75.5938 L25.0625,75.5938 C24.8906,73.4375 24.7969,71.1875 24.7969,69.8281 L24.7969,51.8281 L74.4844,51.8281 C73.5781,62.4531 71.0625,73.9844 65.9219,82 C58.5469,93.5156 45.6719,101.359 32.4531,104.875 L38.5625,111.078 C53.0625,106.406 65.3906,97.2188 72.6719,85.6875 C79.1563,75.5156 81.0469,62.7188 82.6719,52 C82.8438,51.1875 83.4844,48.7656 83.8438,47.8594 L78.3438,44.3594"/>
</g>
</g>
</svg>
