<?xml version="1.0" encoding="UTF-8" standalone="no"?>
<svg width="35.2778mm" height="45.8611mm"
 xmlns="http://www.w3.org/2000/svg" xmlns:xlink="http://www.w3.org/1999/xlink"  version="1.2" baseProfile="tiny">
<title>Qt SVG Document</title>
<desc>Generated with Qt</desc>
<defs>
</defs>
<g fill="none" stroke="black" stroke-width="1" fill-rule="evenodd" stroke-linecap="square" stroke-linejoin="bevel" >

<g fill="#c0c0c0" fill-opacity="1" stroke="none" transform="matrix(1,0,0,1,0,0)"
font-family="Noto Sans" font-size="10" font-weight="400" font-style="normal" 
>
<path vector-effect="none" fill-rule="evenodd" d="M1,6 C1,3.23858 3.23858,1 6,1 L95,1 C97.7614,1 100,3.23858 100,6 L100,125 C100,127.761 97.7614,130 95,130 L6,130 C3.23858,130 1,127.761 1,125 L1,6"/>
</g>

<g fill="none" stroke="#000000" stroke-opacity="1" stroke-width="2" stroke-linecap="square" stroke-linejoin="bevel" transform="matrix(1,0,0,1,0,0)"
font-family="Noto Sans" font-size="10" font-weight="400" font-style="normal" 
>
<path vector-effect="none" fill-rule="evenodd" d="M1,6 C1,3.23858 3.23858,1 6,1 L95,1 C97.7614,1 100,3.23858 100,6 L100,125 C100,127.761 97.7614,130 95,130 L6,130 C3.23858,130 1,127.761 1,125 L1,6"/>
</g>

<g fill="none" stroke="#000000" stroke-opacity="1" stroke-width="2" stroke-linecap="square" stroke-linejoin="bevel" transform="matrix(1,0,0,1,0,0)"
font-family="Noto Sans CJK JP" font-size="90" font-weight="400" font-style="normal" 
>
<path vector-effect="none" fill-rule="evenodd" d="M52.1563,102.406 C43.3438,102.406 36.3125,96.5469 34.875,83.2344 C38.9219,77.1094 44.875,73.1563 51.5313,73.1563 C59.4531,73.1563 65.8438,77.6563 65.8438,87.1875 C65.8438,96.8281 60.1719,102.406 52.1563,102.406 M72.5938,48.5 C68.625,44.1719 62.7813,40.75 53.9531,40.75 C40.4531,40.75 26.6875,51.1094 26.6875,78.1094 C26.6875,99.7969 38.2969,108.969 52.0625,108.969 C64.125,108.969 73.6719,100.953 73.6719,87.0156 C73.6719,73.2344 63.9531,66.7656 52.6094,66.7656 C45.1406,66.7656 39.375,70.3594 34.6094,75.4844 C35.3281,54.25 45.4063,47.5938 54.1406,47.5938 C59.9844,47.5938 64.0313,49.5781 67.9063,53.625 L72.5938,48.5"/>
</g>

<g fill="#000000" fill-opacity="1" stroke="none" transform="matrix(1,0,0,1,0,0)"
font-family="Noto Sans CJK JP" font-size="90" font-weight="400" font-style="normal" 
>
<path vector-effect="none" fill-rule="evenodd" d="M52.1563,102.406 C43.3438,102.406 36.3125,96.5469 34.875,83.2344 C38.9219,77.1094 44.875,73.1563 51.5313,73.1563 C59.4531,73.1563 65.8438,77.6563 65.8438,87.1875 C65.8438,96.8281 60.1719,102.406 52.1563,102.406 M72.5938,48.5 C68.625,44.1719 62.7813,40.75 53.9531,40.75 C40.4531,40.75 26.6875,51.1094 26.6875,78.1094 C26.6875,99.7969 38.2969,108.969 52.0625,108.969 C64.125,108.969 73.6719,100.953 73.6719,87.0156 C73.6719,73.2344 63.9531,66.7656 52.6094,66.7656 C45.1406,66.7656 39.375,70.3594 34.6094,75.4844 C35.3281,54.25 45.4063,47.5938 54.1406,47.5938 C59.9844,47.5938 64.0313,49.5781 67.9063,53.625 L72.5938,48.5"/>
</g>
</g>
</svg>
