<?xml version="1.0" encoding="UTF-8" standalone="no"?>
<svg width="35.2778mm" height="45.8611mm"
 xmlns="http://www.w3.org/2000/svg" xmlns:xlink="http://www.w3.org/1999/xlink"  version="1.2" baseProfile="tiny">
<title>Qt SVG Document</title>
<desc>Generated with Qt</desc>
<defs>
</defs>
<g fill="none" stroke="black" stroke-width="1" fill-rule="evenodd" stroke-linecap="square" stroke-linejoin="bevel" >

<g fill="#c0c0c0" fill-opacity="1" stroke="none" transform="matrix(1,0,0,1,0,0)"
font-family="Noto Sans" font-size="10" font-weight="400" font-style="normal" 
>
<path vector-effect="none" fill-rule="evenodd" d="M1,6 C1,3.23858 3.23858,1 6,1 L95,1 C97.7614,1 100,3.23858 100,6 L100,125 C100,127.761 97.7614,130 95,130 L6,130 C3.23858,130 1,127.761 1,125 L1,6"/>
</g>

<g fill="none" stroke="#000000" stroke-opacity="1" stroke-width="2" stroke-linecap="square" stroke-linejoin="bevel" transform="matrix(1,0,0,1,0,0)"
font-family="Noto Sans" font-size="10" font-weight="400" font-style="normal" 
>
<path vector-effect="none" fill-rule="evenodd" d="M1,6 C1,3.23858 3.23858,1 6,1 L95,1 C97.7614,1 100,3.23858 100,6 L100,125 C100,127.761 97.7614,130 95,130 L6,130 C3.23858,130 1,127.761 1,125 L1,6"/>
</g>

<g fill="none" stroke="#000000" stroke-opacity="1" stroke-width="2" stroke-linecap="square" stroke-linejoin="bevel" transform="matrix(1,0,0,1,0,0)"
font-family="Noto Sans CJK JP" font-size="90" font-weight="400" font-style="normal" 
>
<path vector-effect="none" fill-rule="evenodd" d="M48.6406,108.969 C61.0625,108.969 72.8594,100.953 72.8594,86.2969 C72.8594,72.25 62.5938,65.3281 50.4531,65.3281 C44.7813,65.3281 40.8125,66.3125 36.8594,68.6563 L38.4844,48.8594 L70.25,48.8594 L70.25,41.75 L31.375,41.75 L29.2969,73.4219 L33.7031,76.125 C38.2969,72.875 42.5313,71.625 48.5625,71.625 C58.0156,71.625 64.4844,77.4688 64.4844,86.5625 C64.4844,96.1875 56.8438,102.047 47.9219,102.047 C39.2813,102.047 33.7031,98.625 28.9375,93.8438 L24.7969,99.1563 C30.2031,104.563 37.3125,108.969 48.6406,108.969 "/>
</g>

<g fill="#000000" fill-opacity="1" stroke="none" transform="matrix(1,0,0,1,0,0)"
font-family="Noto Sans CJK JP" font-size="90" font-weight="400" font-style="normal" 
>
<path vector-effect="none" fill-rule="evenodd" d="M48.6406,108.969 C61.0625,108.969 72.8594,100.953 72.8594,86.2969 C72.8594,72.25 62.5938,65.3281 50.4531,65.3281 C44.7813,65.3281 40.8125,66.3125 36.8594,68.6563 L38.4844,48.8594 L70.25,48.8594 L70.25,41.75 L31.375,41.75 L29.2969,73.4219 L33.7031,76.125 C38.2969,72.875 42.5313,71.625 48.5625,71.625 C58.0156,71.625 64.4844,77.4688 64.4844,86.5625 C64.4844,96.1875 56.8438,102.047 47.9219,102.047 C39.2813,102.047 33.7031,98.625 28.9375,93.8438 L24.7969,99.1563 C30.2031,104.563 37.3125,108.969 48.6406,108.969 "/>
</g>
</g>
</svg>
