<?xml version="1.0" encoding="UTF-8" standalone="no"?>
<svg width="35.2778mm" height="45.8611mm"
 xmlns="http://www.w3.org/2000/svg" xmlns:xlink="http://www.w3.org/1999/xlink"  version="1.2" baseProfile="tiny">
<title>Qt SVG Document</title>
<desc>Generated with Qt</desc>
<defs>
</defs>
<g fill="none" stroke="black" stroke-width="1" fill-rule="evenodd" stroke-linecap="square" stroke-linejoin="bevel" >

<g fill="#c0c0c0" fill-opacity="1" stroke="none" transform="matrix(1,0,0,1,0,0)"
font-family="Noto Sans" font-size="10" font-weight="400" font-style="normal" 
>
<path vector-effect="none" fill-rule="evenodd" d="M1,6 C1,3.23858 3.23858,1 6,1 L95,1 C97.7614,1 100,3.23858 100,6 L100,125 C100,127.761 97.7614,130 95,130 L6,130 C3.23858,130 1,127.761 1,125 L1,6"/>
</g>

<g fill="none" stroke="#000000" stroke-opacity="1" stroke-width="2" stroke-linecap="square" stroke-linejoin="bevel" transform="matrix(1,0,0,1,0,0)"
font-family="Noto Sans" font-size="10" font-weight="400" font-style="normal" 
>
<path vector-effect="none" fill-rule="evenodd" d="M1,6 C1,3.23858 3.23858,1 6,1 L95,1 C97.7614,1 100,3.23858 100,6 L100,125 C100,127.761 97.7614,130 95,130 L6,130 C3.23858,130 1,127.761 1,125 L1,6"/>
</g>

<g fill="none" stroke="#000000" stroke-opacity="1" stroke-width="2" stroke-linecap="square" stroke-linejoin="bevel" transform="matrix(1,0,0,1,0,0)"
font-family="Noto Sans CJK JP" font-size="90" font-weight="400" font-style="normal" 
>
<path vector-effect="none" fill-rule="evenodd" d="M78.9844,99.5156 L74.2969,94.125 C69.3438,98.7969 63.5,101.594 56.2031,101.594 C41.5313,101.594 31.9063,91.1563 31.9063,74.6875 C31.9063,58.3906 41.5313,47.9531 56.3906,47.9531 C62.7813,47.9531 68.3594,50.5625 72.3125,54.25 L77.0938,48.8594 C72.5938,44.5313 65.4844,40.6563 56.2969,40.6563 C36.7656,40.6563 23.3594,53.8906 23.3594,74.9531 C23.3594,96.0938 36.9531,108.969 55.8438,108.969 C65.75,108.969 72.8594,105.641 78.9844,99.5156 "/>
</g>

<g fill="#000000" fill-opacity="1" stroke="none" transform="matrix(1,0,0,1,0,0)"
font-family="Noto Sans CJK JP" font-size="90" font-weight="400" font-style="normal" 
>
<path vector-effect="none" fill-rule="evenodd" d="M78.9844,99.5156 L74.2969,94.125 C69.3438,98.7969 63.5,101.594 56.2031,101.594 C41.5313,101.594 31.9063,91.1563 31.9063,74.6875 C31.9063,58.3906 41.5313,47.9531 56.3906,47.9531 C62.7813,47.9531 68.3594,50.5625 72.3125,54.25 L77.0938,48.8594 C72.5938,44.5313 65.4844,40.6563 56.2969,40.6563 C36.7656,40.6563 23.3594,53.8906 23.3594,74.9531 C23.3594,96.0938 36.9531,108.969 55.8438,108.969 C65.75,108.969 72.8594,105.641 78.9844,99.5156 "/>
</g>
</g>
</svg>
