<?xml version="1.0" encoding="UTF-8" standalone="no"?>
<svg width="35.2778mm" height="45.8611mm"
 xmlns="http://www.w3.org/2000/svg" xmlns:xlink="http://www.w3.org/1999/xlink"  version="1.2" baseProfile="tiny">
<title>Qt SVG Document</title>
<desc>Generated with Qt</desc>
<defs>
</defs>
<g fill="none" stroke="black" stroke-width="1" fill-rule="evenodd" stroke-linecap="square" stroke-linejoin="bevel" >

<g fill="#c0c0c0" fill-opacity="1" stroke="none" transform="matrix(1,0,0,1,0,0)"
font-family="Noto Sans" font-size="10" font-weight="400" font-style="normal" 
>
<path vector-effect="none" fill-rule="evenodd" d="M1,6 C1,3.23858 3.23858,1 6,1 L95,1 C97.7614,1 100,3.23858 100,6 L100,125 C100,127.761 97.7614,130 95,130 L6,130 C3.23858,130 1,127.761 1,125 L1,6"/>
</g>

<g fill="none" stroke="#000000" stroke-opacity="1" stroke-width="2" stroke-linecap="square" stroke-linejoin="bevel" transform="matrix(1,0,0,1,0,0)"
font-family="Noto Sans" font-size="10" font-weight="400" font-style="normal" 
>
<path vector-effect="none" fill-rule="evenodd" d="M1,6 C1,3.23858 3.23858,1 6,1 L95,1 C97.7614,1 100,3.23858 100,6 L100,125 C100,127.761 97.7614,130 95,130 L6,130 C3.23858,130 1,127.761 1,125 L1,6"/>
</g>

<g fill="none" stroke="#000000" stroke-opacity="1" stroke-width="2" stroke-linecap="square" stroke-linejoin="bevel" transform="matrix(1,0,0,1,0,0)"
font-family="Noto Sans CJK JP" font-size="90" font-weight="400" font-style="normal" 
>
<path vector-effect="none" fill-rule="evenodd" d="M70.4219,53.9844 C62.4219,46.3281 53.4219,36.3438 50.1719,31.2188 C50.0938,31.0313 49.9063,31.0313 49.8125,31.2188 C46.5781,36.3438 37.5781,46.3281 29.5625,53.9844 C23,60.1875 12.4688,69.4688 12.4688,82.3281 C12.4688,92.7656 19.7656,101.953 30.4688,101.953 C37.3125,101.953 43.0625,98.3438 45.3125,93.2188 C45.9531,91.875 46.0313,91.2344 46.7656,91.2344 C47.3906,91.2344 47.2969,92.6875 47.2969,92.8594 C46.7656,102.219 43.4219,107.172 38.3906,111.406 C37.3125,112.297 38.0313,113.203 38.3906,113.203 L61.6094,113.203 C61.9688,113.203 62.5938,112.297 61.6094,111.406 C56.5625,107.172 53.2344,102.219 52.7031,92.8594 C52.7031,92.6875 52.6094,91.2344 53.2344,91.2344 C53.9531,91.2344 54.0469,91.875 54.6719,93.2188 C56.9219,98.3438 62.6875,101.953 69.5313,101.953 C80.3281,101.953 87.5313,92.7656 87.5313,82.3281 C87.5313,69.4688 77,60.1875 70.4219,53.9844 "/>
</g>

<g fill="#000000" fill-opacity="1" stroke="none" transform="matrix(1,0,0,1,0,0)"
font-family="Noto Sans CJK JP" font-size="90" font-weight="400" font-style="normal" 
>
<path vector-effect="none" fill-rule="evenodd" d="M70.4219,53.9844 C62.4219,46.3281 53.4219,36.3438 50.1719,31.2188 C50.0938,31.0313 49.9063,31.0313 49.8125,31.2188 C46.5781,36.3438 37.5781,46.3281 29.5625,53.9844 C23,60.1875 12.4688,69.4688 12.4688,82.3281 C12.4688,92.7656 19.7656,101.953 30.4688,101.953 C37.3125,101.953 43.0625,98.3438 45.3125,93.2188 C45.9531,91.875 46.0313,91.2344 46.7656,91.2344 C47.3906,91.2344 47.2969,92.6875 47.2969,92.8594 C46.7656,102.219 43.4219,107.172 38.3906,111.406 C37.3125,112.297 38.0313,113.203 38.3906,113.203 L61.6094,113.203 C61.9688,113.203 62.5938,112.297 61.6094,111.406 C56.5625,107.172 53.2344,102.219 52.7031,92.8594 C52.7031,92.6875 52.6094,91.2344 53.2344,91.2344 C53.9531,91.2344 54.0469,91.875 54.6719,93.2188 C56.9219,98.3438 62.6875,101.953 69.5313,101.953 C80.3281,101.953 87.5313,92.7656 87.5313,82.3281 C87.5313,69.4688 77,60.1875 70.4219,53.9844 "/>
</g>
</g>
</svg>
