<?xml version="1.0" encoding="UTF-8" standalone="no"?>
<svg width="35.2778mm" height="45.8611mm"
 xmlns="http://www.w3.org/2000/svg" xmlns:xlink="http://www.w3.org/1999/xlink"  version="1.2" baseProfile="tiny">
<title>Qt SVG Document</title>
<desc>Generated with Qt</desc>
<defs>
</defs>
<g fill="none" stroke="black" stroke-width="1" fill-rule="evenodd" stroke-linecap="square" stroke-linejoin="bevel" >

<g fill="#c0c0c0" fill-opacity="1" stroke="none" transform="matrix(1,0,0,1,0,0)"
font-family="Noto Sans" font-size="10" font-weight="400" font-style="normal" 
>
<path vector-effect="none" fill-rule="evenodd" d="M1,6 C1,3.23858 3.23858,1 6,1 L95,1 C97.7614,1 100,3.23858 100,6 L100,125 C100,127.761 97.7614,130 95,130 L6,130 C3.23858,130 1,127.761 1,125 L1,6"/>
</g>

<g fill="none" stroke="#000000" stroke-opacity="1" stroke-width="2" stroke-linecap="square" stroke-linejoin="bevel" transform="matrix(1,0,0,1,0,0)"
font-family="Noto Sans" font-size="10" font-weight="400" font-style="normal" 
>
<path vector-effect="none" fill-rule="evenodd" d="M1,6 C1,3.23858 3.23858,1 6,1 L95,1 C97.7614,1 100,3.23858 100,6 L100,125 C100,127.761 97.7614,130 95,130 L6,130 C3.23858,130 1,127.761 1,125 L1,6"/>
</g>

<g fill="none" stroke="#000000" stroke-opacity="1" stroke-width="2" stroke-linecap="square" stroke-linejoin="bevel" transform="matrix(1,0,0,1,0,0)"
font-family="Noto Sans CJK JP" font-size="90" font-weight="400" font-style="normal" 
>
<path vector-effect="none" fill-rule="evenodd" d="M28.4063,107.891 L36.5938,107.891 L36.5938,72.4375 C42.3438,67.4844 46.6719,64.9688 52.4219,64.9688 C60.0781,64.9688 63.9531,68.8281 63.9531,78.0156 L63.9531,107.891 L72.5,107.891 L72.5,76.9375 C72.5,64.4219 66.9219,57.7656 55.4844,57.7656 C47.5625,57.7656 41.5313,61.4531 36.1406,66.125 L35.875,66.125 L35.0625,58.8438 L28.4063,58.8438 L28.4063,107.891"/>
</g>

<g fill="#000000" fill-opacity="1" stroke="none" transform="matrix(1,0,0,1,0,0)"
font-family="Noto Sans CJK JP" font-size="90" font-weight="400" font-style="normal" 
>
<path vector-effect="none" fill-rule="evenodd" d="M28.4063,107.891 L36.5938,107.891 L36.5938,72.4375 C42.3438,67.4844 46.6719,64.9688 52.4219,64.9688 C60.0781,64.9688 63.9531,68.8281 63.9531,78.0156 L63.9531,107.891 L72.5,107.891 L72.5,76.9375 C72.5,64.4219 66.9219,57.7656 55.4844,57.7656 C47.5625,57.7656 41.5313,61.4531 36.1406,66.125 L35.875,66.125 L35.0625,58.8438 L28.4063,58.8438 L28.4063,107.891"/>
</g>
</g>
</svg>
