<?xml version="1.0" encoding="UTF-8" standalone="no"?>
<svg width="35.2778mm" height="45.8611mm"
 xmlns="http://www.w3.org/2000/svg" xmlns:xlink="http://www.w3.org/1999/xlink"  version="1.2" baseProfile="tiny">
<title>Qt SVG Document</title>
<desc>Generated with Qt</desc>
<defs>
</defs>
<g fill="none" stroke="black" stroke-width="1" fill-rule="evenodd" stroke-linecap="square" stroke-linejoin="bevel" >

<g fill="#c0c0c0" fill-opacity="1" stroke="none" transform="matrix(1,0,0,1,0,0)"
font-family="Noto Sans" font-size="10" font-weight="400" font-style="normal" 
>
<path vector-effect="none" fill-rule="evenodd" d="M1,6 C1,3.23858 3.23858,1 6,1 L95,1 C97.7614,1 100,3.23858 100,6 L100,125 C100,127.761 97.7614,130 95,130 L6,130 C3.23858,130 1,127.761 1,125 L1,6"/>
</g>

<g fill="none" stroke="#000000" stroke-opacity="1" stroke-width="2" stroke-linecap="square" stroke-linejoin="bevel" transform="matrix(1,0,0,1,0,0)"
font-family="Noto Sans" font-size="10" font-weight="400" font-style="normal" 
>
<path vector-effect="none" fill-rule="evenodd" d="M1,6 C1,3.23858 3.23858,1 6,1 L95,1 C97.7614,1 100,3.23858 100,6 L100,125 C100,127.761 97.7614,130 95,130 L6,130 C3.23858,130 1,127.761 1,125 L1,6"/>
</g>

<g fill="none" stroke="#000000" stroke-opacity="1" stroke-width="2" stroke-linecap="square" stroke-linejoin="bevel" transform="matrix(1,0,0,1,0,0)"
font-family="Noto Sans CJK JP" font-size="90" font-weight="400" font-style="normal" 
>
<path vector-effect="none" fill-rule="evenodd" d="M31.375,44.5313 L31.375,64.5156 L18.3125,64.5156 L18.3125,44.5313 L31.375,44.5313 M18.3125,91.1563 L18.3125,70.3594 L31.375,70.3594 L31.375,91.1563 L18.3125,91.1563 M37.6719,38.5 L12.2031,38.5 L12.2031,104.469 L18.3125,104.469 L18.3125,97.1875 L37.6719,97.1875 L37.6719,38.5 M45.0469,88.9063 C49.6406,93.6719 54.4063,100.328 56.4844,104.734 L62.1406,101.141 C60.0781,96.7344 55.0313,90.3438 50.4531,85.8438 L45.0469,88.9063 M91.4844,66.5781 L91.4844,60.6406 L68.2656,60.6406 L68.2656,49.2188 L87.6094,49.2188 L87.6094,43.2656 L68.2656,43.2656 L68.2656,32.5313 L61.7031,32.5313 L61.7031,43.2656 L42.9844,43.2656 L42.9844,49.2188 L61.7031,49.2188 L61.7031,60.6406 L39.1094,60.6406 L39.1094,66.5781 L73.5781,66.5781 L73.5781,76.75 L39.5625,76.75 L39.5625,82.6875 L73.5781,82.6875 L73.5781,106.719 C73.5781,108.078 73.125,108.438 71.5938,108.516 C70.1563,108.609 65.2031,108.609 59.625,108.438 C60.625,110.141 61.5156,112.844 61.7813,114.641 C69.0781,114.641 73.5781,114.547 76.3594,113.563 C79.0625,112.578 80.0625,110.594 80.0625,106.813 L80.0625,82.6875 L90.5,82.6875 L90.5,76.75 L80.0625,76.75 L80.0625,66.5781 L91.4844,66.5781"/>
</g>

<g fill="#000000" fill-opacity="1" stroke="none" transform="matrix(1,0,0,1,0,0)"
font-family="Noto Sans CJK JP" font-size="90" font-weight="400" font-style="normal" 
>
<path vector-effect="none" fill-rule="evenodd" d="M31.375,44.5313 L31.375,64.5156 L18.3125,64.5156 L18.3125,44.5313 L31.375,44.5313 M18.3125,91.1563 L18.3125,70.3594 L31.375,70.3594 L31.375,91.1563 L18.3125,91.1563 M37.6719,38.5 L12.2031,38.5 L12.2031,104.469 L18.3125,104.469 L18.3125,97.1875 L37.6719,97.1875 L37.6719,38.5 M45.0469,88.9063 C49.6406,93.6719 54.4063,100.328 56.4844,104.734 L62.1406,101.141 C60.0781,96.7344 55.0313,90.3438 50.4531,85.8438 L45.0469,88.9063 M91.4844,66.5781 L91.4844,60.6406 L68.2656,60.6406 L68.2656,49.2188 L87.6094,49.2188 L87.6094,43.2656 L68.2656,43.2656 L68.2656,32.5313 L61.7031,32.5313 L61.7031,43.2656 L42.9844,43.2656 L42.9844,49.2188 L61.7031,49.2188 L61.7031,60.6406 L39.1094,60.6406 L39.1094,66.5781 L73.5781,66.5781 L73.5781,76.75 L39.5625,76.75 L39.5625,82.6875 L73.5781,82.6875 L73.5781,106.719 C73.5781,108.078 73.125,108.438 71.5938,108.516 C70.1563,108.609 65.2031,108.609 59.625,108.438 C60.625,110.141 61.5156,112.844 61.7813,114.641 C69.0781,114.641 73.5781,114.547 76.3594,113.563 C79.0625,112.578 80.0625,110.594 80.0625,106.813 L80.0625,82.6875 L90.5,82.6875 L90.5,76.75 L80.0625,76.75 L80.0625,66.5781 L91.4844,66.5781"/>
</g>
</g>
</svg>
