<?xml version="1.0" encoding="UTF-8" standalone="no"?>
<svg width="35.2778mm" height="45.8611mm"
 xmlns="http://www.w3.org/2000/svg" xmlns:xlink="http://www.w3.org/1999/xlink"  version="1.2" baseProfile="tiny">
<title>Qt SVG Document</title>
<desc>Generated with Qt</desc>
<defs>
</defs>
<g fill="none" stroke="black" stroke-width="1" fill-rule="evenodd" stroke-linecap="square" stroke-linejoin="bevel" >

<g fill="#c0c0c0" fill-opacity="1" stroke="none" transform="matrix(1,0,0,1,0,0)"
font-family="Noto Sans" font-size="10" font-weight="400" font-style="normal" 
>
<path vector-effect="none" fill-rule="evenodd" d="M1,6 C1,3.23858 3.23858,1 6,1 L95,1 C97.7614,1 100,3.23858 100,6 L100,125 C100,127.761 97.7614,130 95,130 L6,130 C3.23858,130 1,127.761 1,125 L1,6"/>
</g>

<g fill="none" stroke="#000000" stroke-opacity="1" stroke-width="2" stroke-linecap="square" stroke-linejoin="bevel" transform="matrix(1,0,0,1,0,0)"
font-family="Noto Sans" font-size="10" font-weight="400" font-style="normal" 
>
<path vector-effect="none" fill-rule="evenodd" d="M1,6 C1,3.23858 3.23858,1 6,1 L95,1 C97.7614,1 100,3.23858 100,6 L100,125 C100,127.761 97.7614,130 95,130 L6,130 C3.23858,130 1,127.761 1,125 L1,6"/>
</g>

<g fill="none" stroke="#000000" stroke-opacity="1" stroke-width="2" stroke-linecap="square" stroke-linejoin="bevel" transform="matrix(1,0,0,1,0,0)"
font-family="Noto Sans CJK JP" font-size="90" font-weight="400" font-style="normal" 
>
<path vector-effect="none" fill-rule="evenodd" d="M22.7344,107.891 L31.7344,107.891 L42.8906,90.0781 C44.875,86.8281 46.8438,83.5 49.375,79.4531 L49.7344,79.4531 C52.25,83.5 54.5,86.8281 56.4844,90.0781 L67.8125,107.891 L77.3594,107.891 L54.9531,74.0469 L75.6406,41.75 L66.8281,41.75 L56.3906,58.75 C54.5,61.8125 52.875,64.5156 50.625,68.375 L50.2656,68.375 C47.75,64.5156 46.0313,61.8125 44.1406,58.75 L33.4375,41.75 L24.1719,41.75 L44.9531,73.875 L22.7344,107.891"/>
</g>

<g fill="#000000" fill-opacity="1" stroke="none" transform="matrix(1,0,0,1,0,0)"
font-family="Noto Sans CJK JP" font-size="90" font-weight="400" font-style="normal" 
>
<path vector-effect="none" fill-rule="evenodd" d="M22.7344,107.891 L31.7344,107.891 L42.8906,90.0781 C44.875,86.8281 46.8438,83.5 49.375,79.4531 L49.7344,79.4531 C52.25,83.5 54.5,86.8281 56.4844,90.0781 L67.8125,107.891 L77.3594,107.891 L54.9531,74.0469 L75.6406,41.75 L66.8281,41.75 L56.3906,58.75 C54.5,61.8125 52.875,64.5156 50.625,68.375 L50.2656,68.375 C47.75,64.5156 46.0313,61.8125 44.1406,58.75 L33.4375,41.75 L24.1719,41.75 L44.9531,73.875 L22.7344,107.891"/>
</g>
</g>
</svg>
