<?xml version="1.0" encoding="UTF-8" standalone="no"?>
<svg width="35.2778mm" height="45.8611mm"
 xmlns="http://www.w3.org/2000/svg" xmlns:xlink="http://www.w3.org/1999/xlink"  version="1.2" baseProfile="tiny">
<title>Qt SVG Document</title>
<desc>Generated with Qt</desc>
<defs>
</defs>
<g fill="none" stroke="black" stroke-width="1" fill-rule="evenodd" stroke-linecap="square" stroke-linejoin="bevel" >

<g fill="#c0c0c0" fill-opacity="1" stroke="none" transform="matrix(1,0,0,1,0,0)"
font-family="Noto Sans" font-size="10" font-weight="400" font-style="normal" 
>
<path vector-effect="none" fill-rule="evenodd" d="M1,6 C1,3.23858 3.23858,1 6,1 L95,1 C97.7614,1 100,3.23858 100,6 L100,125 C100,127.761 97.7614,130 95,130 L6,130 C3.23858,130 1,127.761 1,125 L1,6"/>
</g>

<g fill="none" stroke="#000000" stroke-opacity="1" stroke-width="2" stroke-linecap="square" stroke-linejoin="bevel" transform="matrix(1,0,0,1,0,0)"
font-family="Noto Sans" font-size="10" font-weight="400" font-style="normal" 
>
<path vector-effect="none" fill-rule="evenodd" d="M1,6 C1,3.23858 3.23858,1 6,1 L95,1 C97.7614,1 100,3.23858 100,6 L100,125 C100,127.761 97.7614,130 95,130 L6,130 C3.23858,130 1,127.761 1,125 L1,6"/>
</g>

<g fill="none" stroke="#000000" stroke-opacity="1" stroke-width="2" stroke-linecap="square" stroke-linejoin="bevel" transform="matrix(1,0,0,1,0,0)"
font-family="Noto Sans CJK JP" font-size="90" font-weight="400" font-style="normal" 
>
<path vector-effect="none" fill-rule="evenodd" d="M27.6719,119.5 L35.875,119.5 L35.875,100.875 L35.6875,94.4844 C40.8125,98.0781 46.2188,100.063 51.7969,100.063 C64.8438,100.063 75.7344,90.3438 75.7344,73.6875 C75.7344,58.5781 68.2656,48.7656 53.875,48.7656 C47.125,48.7656 40.6406,52 35.5156,55.6875 L35.1563,55.6875 L34.4219,49.8438 L27.6719,49.8438 L27.6719,119.5 M35.875,62.3594 C41.4531,58.0313 46.7656,55.6875 51.625,55.6875 C62.6875,55.6875 67.1875,62.8906 67.1875,73.7813 C67.1875,85.8438 60.0781,93.125 50.3594,93.125 C46.4844,93.125 41,91.6875 35.875,87.8281 L35.875,62.3594"/>
</g>

<g fill="#000000" fill-opacity="1" stroke="none" transform="matrix(1,0,0,1,0,0)"
font-family="Noto Sans CJK JP" font-size="90" font-weight="400" font-style="normal" 
>
<path vector-effect="none" fill-rule="evenodd" d="M27.6719,119.5 L35.875,119.5 L35.875,100.875 L35.6875,94.4844 C40.8125,98.0781 46.2188,100.063 51.7969,100.063 C64.8438,100.063 75.7344,90.3438 75.7344,73.6875 C75.7344,58.5781 68.2656,48.7656 53.875,48.7656 C47.125,48.7656 40.6406,52 35.5156,55.6875 L35.1563,55.6875 L34.4219,49.8438 L27.6719,49.8438 L27.6719,119.5 M35.875,62.3594 C41.4531,58.0313 46.7656,55.6875 51.625,55.6875 C62.6875,55.6875 67.1875,62.8906 67.1875,73.7813 C67.1875,85.8438 60.0781,93.125 50.3594,93.125 C46.4844,93.125 41,91.6875 35.875,87.8281 L35.875,62.3594"/>
</g>
</g>
</svg>
