<?xml version="1.0" encoding="UTF-8" standalone="no"?>
<svg width="35.2778mm" height="45.8611mm"
 xmlns="http://www.w3.org/2000/svg" xmlns:xlink="http://www.w3.org/1999/xlink"  version="1.2" baseProfile="tiny">
<title>Qt SVG Document</title>
<desc>Generated with Qt</desc>
<defs>
</defs>
<g fill="none" stroke="black" stroke-width="1" fill-rule="evenodd" stroke-linecap="square" stroke-linejoin="bevel" >

<g fill="#c0c0c0" fill-opacity="1" stroke="none" transform="matrix(1,0,0,1,0,0)"
font-family="Noto Sans" font-size="10" font-weight="400" font-style="normal" 
>
<path vector-effect="none" fill-rule="evenodd" d="M1,6 C1,3.23858 3.23858,1 6,1 L95,1 C97.7614,1 100,3.23858 100,6 L100,125 C100,127.761 97.7614,130 95,130 L6,130 C3.23858,130 1,127.761 1,125 L1,6"/>
</g>

<g fill="none" stroke="#000000" stroke-opacity="1" stroke-width="2" stroke-linecap="square" stroke-linejoin="bevel" transform="matrix(1,0,0,1,0,0)"
font-family="Noto Sans" font-size="10" font-weight="400" font-style="normal" 
>
<path vector-effect="none" fill-rule="evenodd" d="M1,6 C1,3.23858 3.23858,1 6,1 L95,1 C97.7614,1 100,3.23858 100,6 L100,125 C100,127.761 97.7614,130 95,130 L6,130 C3.23858,130 1,127.761 1,125 L1,6"/>
</g>

<g fill="none" stroke="#000000" stroke-opacity="1" stroke-width="2" stroke-linecap="square" stroke-linejoin="bevel" transform="matrix(1,0,0,1,0,0)"
font-family="Noto Sans CJK JP" font-size="90" font-weight="400" font-style="normal" 
>
<path vector-effect="none" fill-rule="evenodd" d="M76.0938,90.4375 C76.0938,80.5313 68.8906,75.5781 60.25,72.5156 L49.6406,68.75 C43.6094,66.6719 36.3125,64.0625 36.3125,57.5781 C36.3125,51.4688 42.7031,47.9531 51.1719,47.9531 C58.5469,47.9531 64.4844,50.5625 69.25,54.5156 L73.8438,49.0313 C68.4531,44.0781 60.625,40.6563 51.2656,40.6563 C37.6719,40.6563 27.8594,47.8594 27.8594,58.4844 C27.8594,68.0156 36.5,72.7969 43.4219,75.3125 L54.1406,79.0938 C61.4219,81.7969 67.6406,84.3125 67.6406,91.1563 C67.6406,97.8125 60.625,101.688 50.9844,101.688 C42.8906,101.688 34.6094,98.2656 29.125,93.2188 L24.0781,98.9844 C30.6563,105.094 39.8281,109.063 50.8125,109.063 C66.375,109.063 76.0938,101.141 76.0938,90.4375 "/>
</g>

<g fill="#000000" fill-opacity="1" stroke="none" transform="matrix(1,0,0,1,0,0)"
font-family="Noto Sans CJK JP" font-size="90" font-weight="400" font-style="normal" 
>
<path vector-effect="none" fill-rule="evenodd" d="M76.0938,90.4375 C76.0938,80.5313 68.8906,75.5781 60.25,72.5156 L49.6406,68.75 C43.6094,66.6719 36.3125,64.0625 36.3125,57.5781 C36.3125,51.4688 42.7031,47.9531 51.1719,47.9531 C58.5469,47.9531 64.4844,50.5625 69.25,54.5156 L73.8438,49.0313 C68.4531,44.0781 60.625,40.6563 51.2656,40.6563 C37.6719,40.6563 27.8594,47.8594 27.8594,58.4844 C27.8594,68.0156 36.5,72.7969 43.4219,75.3125 L54.1406,79.0938 C61.4219,81.7969 67.6406,84.3125 67.6406,91.1563 C67.6406,97.8125 60.625,101.688 50.9844,101.688 C42.8906,101.688 34.6094,98.2656 29.125,93.2188 L24.0781,98.9844 C30.6563,105.094 39.8281,109.063 50.8125,109.063 C66.375,109.063 76.0938,101.141 76.0938,90.4375 "/>
</g>
</g>
</svg>
