<?xml version="1.0" encoding="UTF-8" standalone="no"?>
<svg width="35.2778mm" height="45.8611mm"
 xmlns="http://www.w3.org/2000/svg" xmlns:xlink="http://www.w3.org/1999/xlink"  version="1.2" baseProfile="tiny">
<title>Qt SVG Document</title>
<desc>Generated with Qt</desc>
<defs>
</defs>
<g fill="none" stroke="black" stroke-width="1" fill-rule="evenodd" stroke-linecap="square" stroke-linejoin="bevel" >

<g fill="#c0c0c0" fill-opacity="1" stroke="none" transform="matrix(1,0,0,1,0,0)"
font-family="Noto Sans" font-size="10" font-weight="400" font-style="normal" 
>
<path vector-effect="none" fill-rule="evenodd" d="M1,6 C1,3.23858 3.23858,1 6,1 L95,1 C97.7614,1 100,3.23858 100,6 L100,125 C100,127.761 97.7614,130 95,130 L6,130 C3.23858,130 1,127.761 1,125 L1,6"/>
</g>

<g fill="none" stroke="#000000" stroke-opacity="1" stroke-width="2" stroke-linecap="square" stroke-linejoin="bevel" transform="matrix(1,0,0,1,0,0)"
font-family="Noto Sans" font-size="10" font-weight="400" font-style="normal" 
>
<path vector-effect="none" fill-rule="evenodd" d="M1,6 C1,3.23858 3.23858,1 6,1 L95,1 C97.7614,1 100,3.23858 100,6 L100,125 C100,127.761 97.7614,130 95,130 L6,130 C3.23858,130 1,127.761 1,125 L1,6"/>
</g>

<g fill="none" stroke="#000000" stroke-opacity="1" stroke-width="2" stroke-linecap="square" stroke-linejoin="bevel" transform="matrix(1,0,0,1,0,0)"
font-family="Noto Sans CJK JP" font-size="90" font-weight="400" font-style="normal" 
>
<path vector-effect="none" fill-rule="evenodd" d="M53.9531,102.031 L75.1094,48.8438 L67,48.8438 L56.5625,76.1094 C55.0313,80.5156 53.2344,85.4688 51.625,89.9688 L51.1719,89.9688 C49.1875,85.375 47.2031,80.4375 45.3125,76.1094 L33.5313,48.8438 L24.8906,48.8438 L47.3906,97.9844 L46.0313,101.672 C43.7031,107.703 39.8281,112.203 33.1719,112.203 C31.5469,112.203 29.75,111.75 28.7656,111.297 L27.0469,117.875 C28.7656,118.5 31.0938,118.953 33.625,118.953 C44.2344,118.953 50,111.563 53.9531,102.031 "/>
</g>

<g fill="#000000" fill-opacity="1" stroke="none" transform="matrix(1,0,0,1,0,0)"
font-family="Noto Sans CJK JP" font-size="90" font-weight="400" font-style="normal" 
>
<path vector-effect="none" fill-rule="evenodd" d="M53.9531,102.031 L75.1094,48.8438 L67,48.8438 L56.5625,76.1094 C55.0313,80.5156 53.2344,85.4688 51.625,89.9688 L51.1719,89.9688 C49.1875,85.375 47.2031,80.4375 45.3125,76.1094 L33.5313,48.8438 L24.8906,48.8438 L47.3906,97.9844 L46.0313,101.672 C43.7031,107.703 39.8281,112.203 33.1719,112.203 C31.5469,112.203 29.75,111.75 28.7656,111.297 L27.0469,117.875 C28.7656,118.5 31.0938,118.953 33.625,118.953 C44.2344,118.953 50,111.563 53.9531,102.031 "/>
</g>
</g>
</svg>
