<?xml version="1.0" encoding="UTF-8" standalone="no"?>
<svg width="35.2778mm" height="45.8611mm"
 xmlns="http://www.w3.org/2000/svg" xmlns:xlink="http://www.w3.org/1999/xlink"  version="1.2" baseProfile="tiny">
<title>Qt SVG Document</title>
<desc>Generated with Qt</desc>
<defs>
</defs>
<g fill="none" stroke="black" stroke-width="1" fill-rule="evenodd" stroke-linecap="square" stroke-linejoin="bevel" >

<g fill="#c0c0c0" fill-opacity="1" stroke="none" transform="matrix(1,0,0,1,0,0)"
font-family="Noto Sans" font-size="10" font-weight="400" font-style="normal" 
>
<path vector-effect="none" fill-rule="evenodd" d="M1,6 C1,3.23858 3.23858,1 6,1 L95,1 C97.7614,1 100,3.23858 100,6 L100,125 C100,127.761 97.7614,130 95,130 L6,130 C3.23858,130 1,127.761 1,125 L1,6"/>
</g>

<g fill="none" stroke="#000000" stroke-opacity="1" stroke-width="2" stroke-linecap="square" stroke-linejoin="bevel" transform="matrix(1,0,0,1,0,0)"
font-family="Noto Sans" font-size="10" font-weight="400" font-style="normal" 
>
<path vector-effect="none" fill-rule="evenodd" d="M1,6 C1,3.23858 3.23858,1 6,1 L95,1 C97.7614,1 100,3.23858 100,6 L100,125 C100,127.761 97.7614,130 95,130 L6,130 C3.23858,130 1,127.761 1,125 L1,6"/>
</g>

<g fill="none" stroke="#000000" stroke-opacity="1" stroke-width="2" stroke-linecap="square" stroke-linejoin="bevel" transform="matrix(1,0,0,1,0,0)"
font-family="Noto Sans CJK JP" font-size="90" font-weight="400" font-style="normal" 
>
<path vector-effect="none" fill-rule="evenodd" d="M50,108.969 C64.3906,108.969 74.3906,97.1875 74.3906,74.5938 C74.3906,52 64.3906,40.75 50,40.75 C35.5938,40.75 25.6094,52 25.6094,74.5938 C25.6094,97.1875 35.5938,108.969 50,108.969 M50,102.313 C40.5469,102.313 33.7031,94.125 33.7031,74.5938 C33.7031,54.9688 40.5469,47.4063 50,47.4063 C59.4531,47.4063 66.2813,54.9688 66.2813,74.5938 C66.2813,94.125 59.4531,102.313 50,102.313 "/>
</g>

<g fill="#000000" fill-opacity="1" stroke="none" transform="matrix(1,0,0,1,0,0)"
font-family="Noto Sans CJK JP" font-size="90" font-weight="400" font-style="normal" 
>
<path vector-effect="none" fill-rule="evenodd" d="M50,108.969 C64.3906,108.969 74.3906,97.1875 74.3906,74.5938 C74.3906,52 64.3906,40.75 50,40.75 C35.5938,40.75 25.6094,52 25.6094,74.5938 C25.6094,97.1875 35.5938,108.969 50,108.969 M50,102.313 C40.5469,102.313 33.7031,94.125 33.7031,74.5938 C33.7031,54.9688 40.5469,47.4063 50,47.4063 C59.4531,47.4063 66.2813,54.9688 66.2813,74.5938 C66.2813,94.125 59.4531,102.313 50,102.313 "/>
</g>
</g>
</svg>
