<?xml version="1.0" encoding="UTF-8" standalone="no"?>
<svg width="35.2778mm" height="45.8611mm"
 xmlns="http://www.w3.org/2000/svg" xmlns:xlink="http://www.w3.org/1999/xlink"  version="1.2" baseProfile="tiny">
<title>Qt SVG Document</title>
<desc>Generated with Qt</desc>
<defs>
</defs>
<g fill="none" stroke="black" stroke-width="1" fill-rule="evenodd" stroke-linecap="square" stroke-linejoin="bevel" >

<g fill="#c0c0c0" fill-opacity="1" stroke="none" transform="matrix(1,0,0,1,0,0)"
font-family="Noto Sans" font-size="10" font-weight="400" font-style="normal" 
>
<path vector-effect="none" fill-rule="evenodd" d="M1,6 C1,3.23858 3.23858,1 6,1 L95,1 C97.7614,1 100,3.23858 100,6 L100,125 C100,127.761 97.7614,130 95,130 L6,130 C3.23858,130 1,127.761 1,125 L1,6"/>
</g>

<g fill="none" stroke="#000000" stroke-opacity="1" stroke-width="2" stroke-linecap="square" stroke-linejoin="bevel" transform="matrix(1,0,0,1,0,0)"
font-family="Noto Sans" font-size="10" font-weight="400" font-style="normal" 
>
<path vector-effect="none" fill-rule="evenodd" d="M1,6 C1,3.23858 3.23858,1 6,1 L95,1 C97.7614,1 100,3.23858 100,6 L100,125 C100,127.761 97.7614,130 95,130 L6,130 C3.23858,130 1,127.761 1,125 L1,6"/>
</g>

<g fill="none" stroke="#000000" stroke-opacity="1" stroke-width="2" stroke-linecap="square" stroke-linejoin="bevel" transform="matrix(1,0,0,1,0,0)"
font-family="Noto Sans CJK JP" font-size="90" font-weight="400" font-style="normal" 
>
<path vector-effect="none" fill-rule="evenodd" d="M67.6406,84.5938 C67.6406,97.4688 54.9531,104.406 37.0313,106.578 L40.7344,112.969 C61.7813,109.641 74.6563,99.8125 74.6563,84.6875 C74.6563,73.7813 66.8281,67.75 55.7656,67.75 C47.9219,67.75 38.2969,70.3594 33.2656,71.4375 C31.2813,71.8906 28.7656,72.3438 26.6875,72.4375 L28.8438,80 C30.2031,79.375 32.625,78.4688 34.7813,77.8438 C39.4688,76.3906 47.6563,73.9688 55.125,73.9688 C62.0625,73.9688 67.6406,77.5625 67.6406,84.5938 M36.7656,50.6406 L35.6875,56.7656 C43.6094,58.2969 60.3438,60.1094 67.7344,60.4688 L68.7188,54.1563 C60.5313,53.8906 45.1406,52.3594 36.7656,50.6406 "/>
</g>

<g fill="#000000" fill-opacity="1" stroke="none" transform="matrix(1,0,0,1,0,0)"
font-family="Noto Sans CJK JP" font-size="90" font-weight="400" font-style="normal" 
>
<path vector-effect="none" fill-rule="evenodd" d="M67.6406,84.5938 C67.6406,97.4688 54.9531,104.406 37.0313,106.578 L40.7344,112.969 C61.7813,109.641 74.6563,99.8125 74.6563,84.6875 C74.6563,73.7813 66.8281,67.75 55.7656,67.75 C47.9219,67.75 38.2969,70.3594 33.2656,71.4375 C31.2813,71.8906 28.7656,72.3438 26.6875,72.4375 L28.8438,80 C30.2031,79.375 32.625,78.4688 34.7813,77.8438 C39.4688,76.3906 47.6563,73.9688 55.125,73.9688 C62.0625,73.9688 67.6406,77.5625 67.6406,84.5938 M36.7656,50.6406 L35.6875,56.7656 C43.6094,58.2969 60.3438,60.1094 67.7344,60.4688 L68.7188,54.1563 C60.5313,53.8906 45.1406,52.3594 36.7656,50.6406 "/>
</g>
</g>
</svg>
