<?xml version="1.0" encoding="UTF-8" standalone="no"?>
<svg width="35.2778mm" height="45.8611mm"
 xmlns="http://www.w3.org/2000/svg" xmlns:xlink="http://www.w3.org/1999/xlink"  version="1.2" baseProfile="tiny">
<title>Qt SVG Document</title>
<desc>Generated with Qt</desc>
<defs>
</defs>
<g fill="none" stroke="black" stroke-width="1" fill-rule="evenodd" stroke-linecap="square" stroke-linejoin="bevel" >

<g fill="#c0c0c0" fill-opacity="1" stroke="none" transform="matrix(1,0,0,1,0,0)"
font-family="Noto Sans" font-size="10" font-weight="400" font-style="normal" 
>
<path vector-effect="none" fill-rule="evenodd" d="M1,6 C1,3.23858 3.23858,1 6,1 L95,1 C97.7614,1 100,3.23858 100,6 L100,125 C100,127.761 97.7614,130 95,130 L6,130 C3.23858,130 1,127.761 1,125 L1,6"/>
</g>

<g fill="none" stroke="#000000" stroke-opacity="1" stroke-width="2" stroke-linecap="square" stroke-linejoin="bevel" transform="matrix(1,0,0,1,0,0)"
font-family="Noto Sans" font-size="10" font-weight="400" font-style="normal" 
>
<path vector-effect="none" fill-rule="evenodd" d="M1,6 C1,3.23858 3.23858,1 6,1 L95,1 C97.7614,1 100,3.23858 100,6 L100,125 C100,127.761 97.7614,130 95,130 L6,130 C3.23858,130 1,127.761 1,125 L1,6"/>
</g>

<g fill="none" stroke="#000000" stroke-opacity="1" stroke-width="2" stroke-linecap="square" stroke-linejoin="bevel" transform="matrix(1,0,0,1,0,0)"
font-family="Noto Sans CJK JP" font-size="90" font-weight="400" font-style="normal" 
>
<path vector-effect="none" fill-rule="evenodd" d="M58.5469,45.6094 C55.2188,42.0938 49.9063,37.7656 46.9375,35.5 L41.7188,39.2969 C45.5938,42.0938 49.9063,46.2344 53.3281,49.6563 L58.5469,45.6094 M19.2188,46.1406 C20.6563,47.9531 22.4531,50.5625 23.5469,52.4531 C25.0625,54.9688 26.7813,58.2969 28.5781,62.2656 C24.7031,63.9688 21.1094,65.5938 18.1406,66.7656 C16.5156,67.3906 13.375,68.4688 10.7656,69.1875 L14.2656,76.5781 C18.3125,74.7656 24.5313,71.5313 31.375,68.2031 C32.4531,70.5469 33.625,73.0625 34.7031,75.5781 C39.8281,87.2031 44.0625,101.609 46.8438,112.156 L54.5938,110.078 C51.5313,100.266 45.9531,83.5938 41.0938,72.6094 C40.0156,70.1875 38.8438,67.6563 37.6719,65.2344 C47.9219,60.4688 58.9063,56.2344 66.6406,56.2344 C75.4688,56.2344 79.6094,61 79.6094,66.4063 C79.6094,72.7031 75.6406,78.0156 65.8438,78.0156 C61.0625,78.0156 56.5625,76.6563 53.2344,75.0469 L52.9688,82.2344 C56.2969,83.5 61.3438,84.7656 66.2813,84.7656 C80.2344,84.7656 86.8125,76.9375 86.8125,66.6719 C86.8125,56.9531 79.25,49.8438 66.9219,49.8438 C57.6406,49.8438 45.5938,54.6094 34.875,59.375 C33.0781,55.6875 31.2813,52.0938 29.75,49.125 C28.8438,47.5938 27.3125,44.7031 26.5938,43.2656 L19.2188,46.1406"/>
</g>

<g fill="#000000" fill-opacity="1" stroke="none" transform="matrix(1,0,0,1,0,0)"
font-family="Noto Sans CJK JP" font-size="90" font-weight="400" font-style="normal" 
>
<path vector-effect="none" fill-rule="evenodd" d="M58.5469,45.6094 C55.2188,42.0938 49.9063,37.7656 46.9375,35.5 L41.7188,39.2969 C45.5938,42.0938 49.9063,46.2344 53.3281,49.6563 L58.5469,45.6094 M19.2188,46.1406 C20.6563,47.9531 22.4531,50.5625 23.5469,52.4531 C25.0625,54.9688 26.7813,58.2969 28.5781,62.2656 C24.7031,63.9688 21.1094,65.5938 18.1406,66.7656 C16.5156,67.3906 13.375,68.4688 10.7656,69.1875 L14.2656,76.5781 C18.3125,74.7656 24.5313,71.5313 31.375,68.2031 C32.4531,70.5469 33.625,73.0625 34.7031,75.5781 C39.8281,87.2031 44.0625,101.609 46.8438,112.156 L54.5938,110.078 C51.5313,100.266 45.9531,83.5938 41.0938,72.6094 C40.0156,70.1875 38.8438,67.6563 37.6719,65.2344 C47.9219,60.4688 58.9063,56.2344 66.6406,56.2344 C75.4688,56.2344 79.6094,61 79.6094,66.4063 C79.6094,72.7031 75.6406,78.0156 65.8438,78.0156 C61.0625,78.0156 56.5625,76.6563 53.2344,75.0469 L52.9688,82.2344 C56.2969,83.5 61.3438,84.7656 66.2813,84.7656 C80.2344,84.7656 86.8125,76.9375 86.8125,66.6719 C86.8125,56.9531 79.25,49.8438 66.9219,49.8438 C57.6406,49.8438 45.5938,54.6094 34.875,59.375 C33.0781,55.6875 31.2813,52.0938 29.75,49.125 C28.8438,47.5938 27.3125,44.7031 26.5938,43.2656 L19.2188,46.1406"/>
</g>
</g>
</svg>
