<?xml version="1.0" encoding="UTF-8" standalone="no"?>
<svg width="35.2778mm" height="45.8611mm"
 xmlns="http://www.w3.org/2000/svg" xmlns:xlink="http://www.w3.org/1999/xlink"  version="1.2" baseProfile="tiny">
<title>Qt SVG Document</title>
<desc>Generated with Qt</desc>
<defs>
</defs>
<g fill="none" stroke="black" stroke-width="1" fill-rule="evenodd" stroke-linecap="square" stroke-linejoin="bevel" >

<g fill="#c0c0c0" fill-opacity="1" stroke="none" transform="matrix(1,0,0,1,0,0)"
font-family="Noto Sans" font-size="10" font-weight="400" font-style="normal" 
>
<path vector-effect="none" fill-rule="evenodd" d="M1,6 C1,3.23858 3.23858,1 6,1 L95,1 C97.7614,1 100,3.23858 100,6 L100,125 C100,127.761 97.7614,130 95,130 L6,130 C3.23858,130 1,127.761 1,125 L1,6"/>
</g>

<g fill="none" stroke="#000000" stroke-opacity="1" stroke-width="2" stroke-linecap="square" stroke-linejoin="bevel" transform="matrix(1,0,0,1,0,0)"
font-family="Noto Sans" font-size="10" font-weight="400" font-style="normal" 
>
<path vector-effect="none" fill-rule="evenodd" d="M1,6 C1,3.23858 3.23858,1 6,1 L95,1 C97.7614,1 100,3.23858 100,6 L100,125 C100,127.761 97.7614,130 95,130 L6,130 C3.23858,130 1,127.761 1,125 L1,6"/>
</g>

<g fill="none" stroke="#000000" stroke-opacity="1" stroke-width="2" stroke-linecap="square" stroke-linejoin="bevel" transform="matrix(1,0,0,1,0,0)"
font-family="Noto Sans CJK JP" font-size="90" font-weight="400" font-style="normal" 
>
<path vector-effect="none" fill-rule="evenodd" d="M67.7344,85.8438 C77.2656,85.8438 85.5469,80.3594 91.2188,70.0938 L84.8281,66.6719 C81.1406,73.7813 74.9219,78.5469 67.8125,78.5469 C61.3438,78.5469 57.375,75.7656 52.5156,71.1719 C46.2188,64.875 40.4531,61.5469 32.2656,61.5469 C22.7344,61.5469 14.4531,67.0313 8.78125,77.2969 L15.1719,80.7188 C18.8594,73.6094 25.0625,68.8281 32.1719,68.8281 C38.75,68.8281 42.625,71.625 47.4844,76.2188 C53.7813,82.4219 59.5313,85.8438 67.7344,85.8438 "/>
</g>

<g fill="#000000" fill-opacity="1" stroke="none" transform="matrix(1,0,0,1,0,0)"
font-family="Noto Sans CJK JP" font-size="90" font-weight="400" font-style="normal" 
>
<path vector-effect="none" fill-rule="evenodd" d="M67.7344,85.8438 C77.2656,85.8438 85.5469,80.3594 91.2188,70.0938 L84.8281,66.6719 C81.1406,73.7813 74.9219,78.5469 67.8125,78.5469 C61.3438,78.5469 57.375,75.7656 52.5156,71.1719 C46.2188,64.875 40.4531,61.5469 32.2656,61.5469 C22.7344,61.5469 14.4531,67.0313 8.78125,77.2969 L15.1719,80.7188 C18.8594,73.6094 25.0625,68.8281 32.1719,68.8281 C38.75,68.8281 42.625,71.625 47.4844,76.2188 C53.7813,82.4219 59.5313,85.8438 67.7344,85.8438 "/>
</g>
</g>
</svg>
