<?xml version="1.0" encoding="UTF-8" standalone="no"?>
<svg width="35.2778mm" height="45.8611mm"
 xmlns="http://www.w3.org/2000/svg" xmlns:xlink="http://www.w3.org/1999/xlink"  version="1.2" baseProfile="tiny">
<title>Qt SVG Document</title>
<desc>Generated with Qt</desc>
<defs>
</defs>
<g fill="none" stroke="black" stroke-width="1" fill-rule="evenodd" stroke-linecap="square" stroke-linejoin="bevel" >

<g fill="#c0c0c0" fill-opacity="1" stroke="none" transform="matrix(1,0,0,1,0,0)"
font-family="Noto Sans" font-size="10" font-weight="400" font-style="normal" 
>
<path vector-effect="none" fill-rule="evenodd" d="M1,6 C1,3.23858 3.23858,1 6,1 L95,1 C97.7614,1 100,3.23858 100,6 L100,125 C100,127.761 97.7614,130 95,130 L6,130 C3.23858,130 1,127.761 1,125 L1,6"/>
</g>

<g fill="none" stroke="#000000" stroke-opacity="1" stroke-width="2" stroke-linecap="square" stroke-linejoin="bevel" transform="matrix(1,0,0,1,0,0)"
font-family="Noto Sans" font-size="10" font-weight="400" font-style="normal" 
>
<path vector-effect="none" fill-rule="evenodd" d="M1,6 C1,3.23858 3.23858,1 6,1 L95,1 C97.7614,1 100,3.23858 100,6 L100,125 C100,127.761 97.7614,130 95,130 L6,130 C3.23858,130 1,127.761 1,125 L1,6"/>
</g>

<g fill="none" stroke="#000000" stroke-opacity="1" stroke-width="2" stroke-linecap="square" stroke-linejoin="bevel" transform="matrix(1,0,0,1,0,0)"
font-family="Noto Sans CJK JP" font-size="90" font-weight="400" font-style="normal" 
>
<path vector-effect="none" fill-rule="evenodd" d="M10.5781,82.5313 L17.3281,89.375 C18.6719,87.5781 20.6563,84.7813 22.4531,82.4375 C26.5156,77.4844 34.0625,67.5781 38.3906,62.3594 C41.4531,58.5781 42.7031,58.5781 46.3906,61.6406 C50.3594,64.875 57.8281,72.9844 63.9531,80.0156 C69.7969,86.5781 77.9844,95.5938 84.2031,103.688 L90.0469,97.2969 C83.5625,89.5625 74.3906,79.7344 68.3594,73.25 C62.5938,67.0313 55.2188,59.1094 49.7344,54.6094 C43.25,49.2031 39.4688,49.8438 34.7031,55.5156 C29.0313,62.2656 21.2031,72.2656 16.9688,76.5938 C14.5469,78.9219 12.9219,80.5469 10.5781,82.5313 "/>
</g>

<g fill="#000000" fill-opacity="1" stroke="none" transform="matrix(1,0,0,1,0,0)"
font-family="Noto Sans CJK JP" font-size="90" font-weight="400" font-style="normal" 
>
<path vector-effect="none" fill-rule="evenodd" d="M10.5781,82.5313 L17.3281,89.375 C18.6719,87.5781 20.6563,84.7813 22.4531,82.4375 C26.5156,77.4844 34.0625,67.5781 38.3906,62.3594 C41.4531,58.5781 42.7031,58.5781 46.3906,61.6406 C50.3594,64.875 57.8281,72.9844 63.9531,80.0156 C69.7969,86.5781 77.9844,95.5938 84.2031,103.688 L90.0469,97.2969 C83.5625,89.5625 74.3906,79.7344 68.3594,73.25 C62.5938,67.0313 55.2188,59.1094 49.7344,54.6094 C43.25,49.2031 39.4688,49.8438 34.7031,55.5156 C29.0313,62.2656 21.2031,72.2656 16.9688,76.5938 C14.5469,78.9219 12.9219,80.5469 10.5781,82.5313 "/>
</g>
</g>
</svg>
