<?xml version="1.0" encoding="UTF-8" standalone="no"?>
<svg width="35.2778mm" height="45.8611mm"
 xmlns="http://www.w3.org/2000/svg" xmlns:xlink="http://www.w3.org/1999/xlink"  version="1.2" baseProfile="tiny">
<title>Qt SVG Document</title>
<desc>Generated with Qt</desc>
<defs>
</defs>
<g fill="none" stroke="black" stroke-width="1" fill-rule="evenodd" stroke-linecap="square" stroke-linejoin="bevel" >

<g fill="#c0c0c0" fill-opacity="1" stroke="none" transform="matrix(1,0,0,1,0,0)"
font-family="Noto Sans" font-size="10" font-weight="400" font-style="normal" 
>
<path vector-effect="none" fill-rule="evenodd" d="M1,6 C1,3.23858 3.23858,1 6,1 L95,1 C97.7614,1 100,3.23858 100,6 L100,125 C100,127.761 97.7614,130 95,130 L6,130 C3.23858,130 1,127.761 1,125 L1,6"/>
</g>

<g fill="none" stroke="#000000" stroke-opacity="1" stroke-width="2" stroke-linecap="square" stroke-linejoin="bevel" transform="matrix(1,0,0,1,0,0)"
font-family="Noto Sans" font-size="10" font-weight="400" font-style="normal" 
>
<path vector-effect="none" fill-rule="evenodd" d="M1,6 C1,3.23858 3.23858,1 6,1 L95,1 C97.7614,1 100,3.23858 100,6 L100,125 C100,127.761 97.7614,130 95,130 L6,130 C3.23858,130 1,127.761 1,125 L1,6"/>
</g>

<g fill="none" stroke="#000000" stroke-opacity="1" stroke-width="2" stroke-linecap="square" stroke-linejoin="bevel" transform="matrix(1,0,0,1,0,0)"
font-family="Noto Sans CJK JP" font-size="90" font-weight="400" font-style="normal" 
>
<path vector-effect="none" fill-rule="evenodd" d="M18.8594,107.891 L26.4219,107.891 L26.4219,71.3594 C26.4219,65.5938 25.875,57.5781 25.5156,51.7344 L25.875,51.7344 L32.0938,66.9375 L47.125,101.234 L52.7031,101.234 L67.6406,66.9375 L73.9375,51.7344 L74.3906,51.7344 C73.9375,57.5781 73.3906,65.5938 73.3906,71.3594 L73.3906,107.891 L81.1406,107.891 L81.1406,41.75 L71.0625,41.75 L55.8438,77.2031 C53.9531,81.7031 52.25,86.375 50.2656,90.9688 L49.9063,90.9688 C48.0156,86.375 46.125,81.7031 44.2344,77.2031 L28.8438,41.75 L18.8594,41.75 L18.8594,107.891"/>
</g>

<g fill="#000000" fill-opacity="1" stroke="none" transform="matrix(1,0,0,1,0,0)"
font-family="Noto Sans CJK JP" font-size="90" font-weight="400" font-style="normal" 
>
<path vector-effect="none" fill-rule="evenodd" d="M18.8594,107.891 L26.4219,107.891 L26.4219,71.3594 C26.4219,65.5938 25.875,57.5781 25.5156,51.7344 L25.875,51.7344 L32.0938,66.9375 L47.125,101.234 L52.7031,101.234 L67.6406,66.9375 L73.9375,51.7344 L74.3906,51.7344 C73.9375,57.5781 73.3906,65.5938 73.3906,71.3594 L73.3906,107.891 L81.1406,107.891 L81.1406,41.75 L71.0625,41.75 L55.8438,77.2031 C53.9531,81.7031 52.25,86.375 50.2656,90.9688 L49.9063,90.9688 C48.0156,86.375 46.125,81.7031 44.2344,77.2031 L28.8438,41.75 L18.8594,41.75 L18.8594,107.891"/>
</g>
</g>
</svg>
