<?xml version="1.0" encoding="UTF-8" standalone="no"?>
<svg width="35.2778mm" height="45.8611mm"
 xmlns="http://www.w3.org/2000/svg" xmlns:xlink="http://www.w3.org/1999/xlink"  version="1.2" baseProfile="tiny">
<title>Qt SVG Document</title>
<desc>Generated with Qt</desc>
<defs>
</defs>
<g fill="none" stroke="black" stroke-width="1" fill-rule="evenodd" stroke-linecap="square" stroke-linejoin="bevel" >

<g fill="#c0c0c0" fill-opacity="1" stroke="none" transform="matrix(1,0,0,1,0,0)"
font-family="Noto Sans" font-size="10" font-weight="400" font-style="normal" 
>
<path vector-effect="none" fill-rule="evenodd" d="M1,6 C1,3.23858 3.23858,1 6,1 L95,1 C97.7614,1 100,3.23858 100,6 L100,125 C100,127.761 97.7614,130 95,130 L6,130 C3.23858,130 1,127.761 1,125 L1,6"/>
</g>

<g fill="none" stroke="#000000" stroke-opacity="1" stroke-width="2" stroke-linecap="square" stroke-linejoin="bevel" transform="matrix(1,0,0,1,0,0)"
font-family="Noto Sans" font-size="10" font-weight="400" font-style="normal" 
>
<path vector-effect="none" fill-rule="evenodd" d="M1,6 C1,3.23858 3.23858,1 6,1 L95,1 C97.7614,1 100,3.23858 100,6 L100,125 C100,127.761 97.7614,130 95,130 L6,130 C3.23858,130 1,127.761 1,125 L1,6"/>
</g>

<g fill="none" stroke="#000000" stroke-opacity="1" stroke-width="2" stroke-linecap="square" stroke-linejoin="bevel" transform="matrix(1,0,0,1,0,0)"
font-family="Noto Sans CJK JP" font-size="90" font-weight="400" font-style="normal" 
>
<path vector-effect="none" fill-rule="evenodd" d="M82.8438,46.2344 C81.5938,46.6875 79.6094,46.9688 77.0938,46.9688 L23.4531,46.9688 C20.2969,46.9688 16.7969,46.6094 14.2656,46.2344 L14.2656,54.3438 C16.0625,54.1719 19.9375,53.7969 23.4531,53.7969 L76.3594,53.7969 C71.875,61.9063 61.5156,75.1406 48.2813,85.0469 C42.1719,79.5625 34.7813,73.6094 31.4531,71.1875 L25.6094,75.875 C30.375,79.2031 40.8125,88.2031 46.2188,93.6094 C51.8906,99.4688 59.0938,107.391 62.4219,111.984 L68.9844,106.766 C65.3906,102.344 59,95.5938 53.5938,90.1875 C68.4531,78.8438 79.875,64.1563 86.3594,53.625 C86.8906,52.8125 87.7031,51.8281 88.6094,50.8281 L82.8438,46.2344"/>
</g>

<g fill="#000000" fill-opacity="1" stroke="none" transform="matrix(1,0,0,1,0,0)"
font-family="Noto Sans CJK JP" font-size="90" font-weight="400" font-style="normal" 
>
<path vector-effect="none" fill-rule="evenodd" d="M82.8438,46.2344 C81.5938,46.6875 79.6094,46.9688 77.0938,46.9688 L23.4531,46.9688 C20.2969,46.9688 16.7969,46.6094 14.2656,46.2344 L14.2656,54.3438 C16.0625,54.1719 19.9375,53.7969 23.4531,53.7969 L76.3594,53.7969 C71.875,61.9063 61.5156,75.1406 48.2813,85.0469 C42.1719,79.5625 34.7813,73.6094 31.4531,71.1875 L25.6094,75.875 C30.375,79.2031 40.8125,88.2031 46.2188,93.6094 C51.8906,99.4688 59.0938,107.391 62.4219,111.984 L68.9844,106.766 C65.3906,102.344 59,95.5938 53.5938,90.1875 C68.4531,78.8438 79.875,64.1563 86.3594,53.625 C86.8906,52.8125 87.7031,51.8281 88.6094,50.8281 L82.8438,46.2344"/>
</g>
</g>
</svg>
