<?xml version="1.0" encoding="UTF-8" standalone="no"?>
<svg width="35.2778mm" height="45.8611mm"
 xmlns="http://www.w3.org/2000/svg" xmlns:xlink="http://www.w3.org/1999/xlink"  version="1.2" baseProfile="tiny">
<title>Qt SVG Document</title>
<desc>Generated with Qt</desc>
<defs>
</defs>
<g fill="none" stroke="black" stroke-width="1" fill-rule="evenodd" stroke-linecap="square" stroke-linejoin="bevel" >

<g fill="#c0c0c0" fill-opacity="1" stroke="none" transform="matrix(1,0,0,1,0,0)"
font-family="Noto Sans" font-size="10" font-weight="400" font-style="normal" 
>
<path vector-effect="none" fill-rule="evenodd" d="M1,6 C1,3.23858 3.23858,1 6,1 L95,1 C97.7614,1 100,3.23858 100,6 L100,125 C100,127.761 97.7614,130 95,130 L6,130 C3.23858,130 1,127.761 1,125 L1,6"/>
</g>

<g fill="none" stroke="#000000" stroke-opacity="1" stroke-width="2" stroke-linecap="square" stroke-linejoin="bevel" transform="matrix(1,0,0,1,0,0)"
font-family="Noto Sans" font-size="10" font-weight="400" font-style="normal" 
>
<path vector-effect="none" fill-rule="evenodd" d="M1,6 C1,3.23858 3.23858,1 6,1 L95,1 C97.7614,1 100,3.23858 100,6 L100,125 C100,127.761 97.7614,130 95,130 L6,130 C3.23858,130 1,127.761 1,125 L1,6"/>
</g>

<g fill="none" stroke="#000000" stroke-opacity="1" stroke-width="2" stroke-linecap="square" stroke-linejoin="bevel" transform="matrix(1,0,0,1,0,0)"
font-family="Noto Sans CJK JP" font-size="90" font-weight="400" font-style="normal" 
>
<path vector-effect="none" fill-rule="evenodd" d="M89.7813,78.3594 C78.3438,66.8281 73.0313,52.3281 70.7813,41.5313 L63.9531,43.6875 C64.6719,45.9375 65.3906,48.1875 66.1094,50.2656 C72.1406,83.0313 61.7813,104.563 43.25,104.563 C34.5156,104.563 26.875,99.7031 26.875,87.4531 C26.875,70.9688 40.2813,54.1406 45.9531,49.8125 C47.2031,49.1875 49.4531,48.6406 50.7188,48.1875 L48.5625,41.7031 C43.3438,43.6875 27.6719,46.2969 19.9375,46.9219 C18.3125,47.1094 16.5156,47.2031 15.1719,47.2031 L16.1563,54.7656 C18.0469,54.3125 19.5781,54.0469 21.1094,53.7656 C24.625,53.0469 31.375,51.9688 35.875,51.25 C28.5781,58.8125 19.7656,73.1406 19.7656,88.4375 C19.7656,102.766 28.5781,111.938 42.9844,111.938 C66.0156,111.938 75.375,89.7969 73.4844,67.2813 C76.9063,73.5781 80.5,78.9844 84.4688,83.9375 L89.7813,78.3594"/>
</g>

<g fill="#000000" fill-opacity="1" stroke="none" transform="matrix(1,0,0,1,0,0)"
font-family="Noto Sans CJK JP" font-size="90" font-weight="400" font-style="normal" 
>
<path vector-effect="none" fill-rule="evenodd" d="M89.7813,78.3594 C78.3438,66.8281 73.0313,52.3281 70.7813,41.5313 L63.9531,43.6875 C64.6719,45.9375 65.3906,48.1875 66.1094,50.2656 C72.1406,83.0313 61.7813,104.563 43.25,104.563 C34.5156,104.563 26.875,99.7031 26.875,87.4531 C26.875,70.9688 40.2813,54.1406 45.9531,49.8125 C47.2031,49.1875 49.4531,48.6406 50.7188,48.1875 L48.5625,41.7031 C43.3438,43.6875 27.6719,46.2969 19.9375,46.9219 C18.3125,47.1094 16.5156,47.2031 15.1719,47.2031 L16.1563,54.7656 C18.0469,54.3125 19.5781,54.0469 21.1094,53.7656 C24.625,53.0469 31.375,51.9688 35.875,51.25 C28.5781,58.8125 19.7656,73.1406 19.7656,88.4375 C19.7656,102.766 28.5781,111.938 42.9844,111.938 C66.0156,111.938 75.375,89.7969 73.4844,67.2813 C76.9063,73.5781 80.5,78.9844 84.4688,83.9375 L89.7813,78.3594"/>
</g>
</g>
</svg>
