<?xml version="1.0" encoding="UTF-8" standalone="no"?>
<svg width="35.2778mm" height="45.8611mm"
 xmlns="http://www.w3.org/2000/svg" xmlns:xlink="http://www.w3.org/1999/xlink"  version="1.2" baseProfile="tiny">
<title>Qt SVG Document</title>
<desc>Generated with Qt</desc>
<defs>
</defs>
<g fill="none" stroke="black" stroke-width="1" fill-rule="evenodd" stroke-linecap="square" stroke-linejoin="bevel" >

<g fill="#c0c0c0" fill-opacity="1" stroke="none" transform="matrix(1,0,0,1,0,0)"
font-family="Noto Sans" font-size="10" font-weight="400" font-style="normal" 
>
<path vector-effect="none" fill-rule="evenodd" d="M1,6 C1,3.23858 3.23858,1 6,1 L95,1 C97.7614,1 100,3.23858 100,6 L100,125 C100,127.761 97.7614,130 95,130 L6,130 C3.23858,130 1,127.761 1,125 L1,6"/>
</g>

<g fill="none" stroke="#000000" stroke-opacity="1" stroke-width="2" stroke-linecap="square" stroke-linejoin="bevel" transform="matrix(1,0,0,1,0,0)"
font-family="Noto Sans" font-size="10" font-weight="400" font-style="normal" 
>
<path vector-effect="none" fill-rule="evenodd" d="M1,6 C1,3.23858 3.23858,1 6,1 L95,1 C97.7614,1 100,3.23858 100,6 L100,125 C100,127.761 97.7614,130 95,130 L6,130 C3.23858,130 1,127.761 1,125 L1,6"/>
</g>

<g fill="none" stroke="#000000" stroke-opacity="1" stroke-width="2" stroke-linecap="square" stroke-linejoin="bevel" transform="matrix(1,0,0,1,0,0)"
font-family="Noto Sans CJK JP" font-size="90" font-weight="400" font-style="normal" 
>
<path vector-effect="none" fill-rule="evenodd" d="M46.0313,40.2188 L39.1094,42.5469 C41.3594,47.2344 46.4844,61.1875 47.9219,66.3125 L54.9531,63.875 C53.4219,58.8438 48.0156,44.5313 46.0313,40.2188 M77.7188,43.6406 C76,56.5 70.7031,71.2656 63.3125,80.625 C54.2344,92.1406 40.8125,100.781 27.9531,104.563 L34.1563,110.859 C46.8438,106.359 60.1719,97.0938 69.4375,84.8438 C76.8125,75.125 81.6719,62.2656 84.375,51.1094 C84.7344,49.6563 85.3594,47.5 86,45.9688 L77.7188,43.6406 M20.9219,45.6094 L13.8125,48.2188 C15.9844,52.0938 22.1875,67.2969 23.9063,72.875 L31.0156,70.3594 C28.9375,64.4219 23.2656,50.6563 20.9219,45.6094 "/>
</g>

<g fill="#000000" fill-opacity="1" stroke="none" transform="matrix(1,0,0,1,0,0)"
font-family="Noto Sans CJK JP" font-size="90" font-weight="400" font-style="normal" 
>
<path vector-effect="none" fill-rule="evenodd" d="M46.0313,40.2188 L39.1094,42.5469 C41.3594,47.2344 46.4844,61.1875 47.9219,66.3125 L54.9531,63.875 C53.4219,58.8438 48.0156,44.5313 46.0313,40.2188 M77.7188,43.6406 C76,56.5 70.7031,71.2656 63.3125,80.625 C54.2344,92.1406 40.8125,100.781 27.9531,104.563 L34.1563,110.859 C46.8438,106.359 60.1719,97.0938 69.4375,84.8438 C76.8125,75.125 81.6719,62.2656 84.375,51.1094 C84.7344,49.6563 85.3594,47.5 86,45.9688 L77.7188,43.6406 M20.9219,45.6094 L13.8125,48.2188 C15.9844,52.0938 22.1875,67.2969 23.9063,72.875 L31.0156,70.3594 C28.9375,64.4219 23.2656,50.6563 20.9219,45.6094 "/>
</g>
</g>
</svg>
