<?xml version="1.0" encoding="UTF-8" standalone="no"?>
<svg width="35.2778mm" height="45.8611mm"
 xmlns="http://www.w3.org/2000/svg" xmlns:xlink="http://www.w3.org/1999/xlink"  version="1.2" baseProfile="tiny">
<title>Qt SVG Document</title>
<desc>Generated with Qt</desc>
<defs>
</defs>
<g fill="none" stroke="black" stroke-width="1" fill-rule="evenodd" stroke-linecap="square" stroke-linejoin="bevel" >

<g fill="#c0c0c0" fill-opacity="1" stroke="none" transform="matrix(1,0,0,1,0,0)"
font-family="Noto Sans" font-size="10" font-weight="400" font-style="normal" 
>
<path vector-effect="none" fill-rule="evenodd" d="M1,6 C1,3.23858 3.23858,1 6,1 L95,1 C97.7614,1 100,3.23858 100,6 L100,125 C100,127.761 97.7614,130 95,130 L6,130 C3.23858,130 1,127.761 1,125 L1,6"/>
</g>

<g fill="none" stroke="#000000" stroke-opacity="1" stroke-width="2" stroke-linecap="square" stroke-linejoin="bevel" transform="matrix(1,0,0,1,0,0)"
font-family="Noto Sans" font-size="10" font-weight="400" font-style="normal" 
>
<path vector-effect="none" fill-rule="evenodd" d="M1,6 C1,3.23858 3.23858,1 6,1 L95,1 C97.7614,1 100,3.23858 100,6 L100,125 C100,127.761 97.7614,130 95,130 L6,130 C3.23858,130 1,127.761 1,125 L1,6"/>
</g>

<g fill="none" stroke="#000000" stroke-opacity="1" stroke-width="2" stroke-linecap="square" stroke-linejoin="bevel" transform="matrix(1,0,0,1,0,0)"
font-family="Noto Sans CJK JP" font-size="90" font-weight="400" font-style="normal" 
>
<path vector-effect="none" fill-rule="evenodd" d="M26.5156,107.891 L35.1563,107.891 L43.25,96.4688 C45.1406,93.4844 47.125,90.5156 49.0938,87.6406 L49.4531,87.6406 C51.625,90.5156 53.9531,93.4844 55.9375,96.4688 L64.4844,107.891 L73.4844,107.891 L54.9531,83.1406 L72.0469,58.8438 L63.4063,58.8438 L56.0313,69.6406 C54.3125,72.3438 52.5156,75.125 50.8125,77.9219 L50.4531,77.9219 C48.5625,75.125 46.4844,72.3438 44.6875,69.7344 L36.8594,58.8438 L27.9531,58.8438 L44.9531,82.3281 L26.5156,107.891"/>
</g>

<g fill="#000000" fill-opacity="1" stroke="none" transform="matrix(1,0,0,1,0,0)"
font-family="Noto Sans CJK JP" font-size="90" font-weight="400" font-style="normal" 
>
<path vector-effect="none" fill-rule="evenodd" d="M26.5156,107.891 L35.1563,107.891 L43.25,96.4688 C45.1406,93.4844 47.125,90.5156 49.0938,87.6406 L49.4531,87.6406 C51.625,90.5156 53.9531,93.4844 55.9375,96.4688 L64.4844,107.891 L73.4844,107.891 L54.9531,83.1406 L72.0469,58.8438 L63.4063,58.8438 L56.0313,69.6406 C54.3125,72.3438 52.5156,75.125 50.8125,77.9219 L50.4531,77.9219 C48.5625,75.125 46.4844,72.3438 44.6875,69.7344 L36.8594,58.8438 L27.9531,58.8438 L44.9531,82.3281 L26.5156,107.891"/>
</g>
</g>
</svg>
