<?xml version="1.0" encoding="UTF-8" standalone="no"?>
<svg width="35.2778mm" height="45.8611mm"
 xmlns="http://www.w3.org/2000/svg" xmlns:xlink="http://www.w3.org/1999/xlink"  version="1.2" baseProfile="tiny">
<title>Qt SVG Document</title>
<desc>Generated with Qt</desc>
<defs>
</defs>
<g fill="none" stroke="black" stroke-width="1" fill-rule="evenodd" stroke-linecap="square" stroke-linejoin="bevel" >

<g fill="#c0c0c0" fill-opacity="1" stroke="none" transform="matrix(1,0,0,1,0,0)"
font-family="Noto Sans" font-size="10" font-weight="400" font-style="normal" 
>
<path vector-effect="none" fill-rule="evenodd" d="M1,6 C1,3.23858 3.23858,1 6,1 L95,1 C97.7614,1 100,3.23858 100,6 L100,125 C100,127.761 97.7614,130 95,130 L6,130 C3.23858,130 1,127.761 1,125 L1,6"/>
</g>

<g fill="none" stroke="#000000" stroke-opacity="1" stroke-width="2" stroke-linecap="square" stroke-linejoin="bevel" transform="matrix(1,0,0,1,0,0)"
font-family="Noto Sans" font-size="10" font-weight="400" font-style="normal" 
>
<path vector-effect="none" fill-rule="evenodd" d="M1,6 C1,3.23858 3.23858,1 6,1 L95,1 C97.7614,1 100,3.23858 100,6 L100,125 C100,127.761 97.7614,130 95,130 L6,130 C3.23858,130 1,127.761 1,125 L1,6"/>
</g>

<g fill="none" stroke="#000000" stroke-opacity="1" stroke-width="2" stroke-linecap="square" stroke-linejoin="bevel" transform="matrix(1,0,0,1,0,0)"
font-family="Noto Sans CJK JP" font-size="90" font-weight="400" font-style="normal" 
>
<path vector-effect="none" fill-rule="evenodd" d="M29.9219,90.6094 C29.9219,84.8438 34.5156,80.7969 40.1875,77.0156 C45.4063,83.5 52.25,89.7969 58.8125,95.6563 C54.5938,99.875 49.7344,102.406 44.5156,102.406 C35.9531,102.406 29.9219,98.0781 29.9219,90.6094 M37.6719,56.2344 C37.6719,50.2969 41.1719,46.5156 46.6719,46.5156 C51.3438,46.5156 54.1406,50.1094 54.1406,54.3438 C54.1406,60.4688 48.8281,64.5156 42.5313,68.4688 C39.5625,64.1563 37.6719,60.0156 37.6719,56.2344 M80.0625,102.406 C77.625,100.875 73.3906,98.1719 68.8125,94.4844 C73.4844,87.9063 76.6406,80.7188 78.4375,72.3438 L70.875,72.3438 C69.7031,79.3594 67.2813,85.0313 63.5938,90.0781 C57.6406,84.8438 51.1719,79 46.125,73.1563 C53.5938,68.2969 60.7031,62.9844 60.7031,54.0781 C60.7031,46.0625 55.125,40.6563 46.4844,40.6563 C37.4063,40.6563 30.8281,46.875 30.8281,56.5938 C30.8281,61.7188 32.9844,66.9375 36.5,72.0781 C29.2031,76.6563 22.375,81.9688 22.375,90.9688 C22.375,101.859 30.7344,108.969 43.875,108.969 C52.5156,108.969 58.8125,105.641 64.0313,100.328 C68.9844,104.469 72.7656,106.984 76.1875,109.063 L80.0625,102.406"/>
</g>

<g fill="#000000" fill-opacity="1" stroke="none" transform="matrix(1,0,0,1,0,0)"
font-family="Noto Sans CJK JP" font-size="90" font-weight="400" font-style="normal" 
>
<path vector-effect="none" fill-rule="evenodd" d="M29.9219,90.6094 C29.9219,84.8438 34.5156,80.7969 40.1875,77.0156 C45.4063,83.5 52.25,89.7969 58.8125,95.6563 C54.5938,99.875 49.7344,102.406 44.5156,102.406 C35.9531,102.406 29.9219,98.0781 29.9219,90.6094 M37.6719,56.2344 C37.6719,50.2969 41.1719,46.5156 46.6719,46.5156 C51.3438,46.5156 54.1406,50.1094 54.1406,54.3438 C54.1406,60.4688 48.8281,64.5156 42.5313,68.4688 C39.5625,64.1563 37.6719,60.0156 37.6719,56.2344 M80.0625,102.406 C77.625,100.875 73.3906,98.1719 68.8125,94.4844 C73.4844,87.9063 76.6406,80.7188 78.4375,72.3438 L70.875,72.3438 C69.7031,79.3594 67.2813,85.0313 63.5938,90.0781 C57.6406,84.8438 51.1719,79 46.125,73.1563 C53.5938,68.2969 60.7031,62.9844 60.7031,54.0781 C60.7031,46.0625 55.125,40.6563 46.4844,40.6563 C37.4063,40.6563 30.8281,46.875 30.8281,56.5938 C30.8281,61.7188 32.9844,66.9375 36.5,72.0781 C29.2031,76.6563 22.375,81.9688 22.375,90.9688 C22.375,101.859 30.7344,108.969 43.875,108.969 C52.5156,108.969 58.8125,105.641 64.0313,100.328 C68.9844,104.469 72.7656,106.984 76.1875,109.063 L80.0625,102.406"/>
</g>
</g>
</svg>
