<?xml version="1.0" encoding="UTF-8" standalone="no"?>
<svg width="35.2778mm" height="45.8611mm"
 xmlns="http://www.w3.org/2000/svg" xmlns:xlink="http://www.w3.org/1999/xlink"  version="1.2" baseProfile="tiny">
<title>Qt SVG Document</title>
<desc>Generated with Qt</desc>
<defs>
</defs>
<g fill="none" stroke="black" stroke-width="1" fill-rule="evenodd" stroke-linecap="square" stroke-linejoin="bevel" >

<g fill="#c0c0c0" fill-opacity="1" stroke="none" transform="matrix(1,0,0,1,0,0)"
font-family="Noto Sans" font-size="10" font-weight="400" font-style="normal" 
>
<path vector-effect="none" fill-rule="evenodd" d="M1,6 C1,3.23858 3.23858,1 6,1 L95,1 C97.7614,1 100,3.23858 100,6 L100,125 C100,127.761 97.7614,130 95,130 L6,130 C3.23858,130 1,127.761 1,125 L1,6"/>
</g>

<g fill="none" stroke="#000000" stroke-opacity="1" stroke-width="2" stroke-linecap="square" stroke-linejoin="bevel" transform="matrix(1,0,0,1,0,0)"
font-family="Noto Sans" font-size="10" font-weight="400" font-style="normal" 
>
<path vector-effect="none" fill-rule="evenodd" d="M1,6 C1,3.23858 3.23858,1 6,1 L95,1 C97.7614,1 100,3.23858 100,6 L100,125 C100,127.761 97.7614,130 95,130 L6,130 C3.23858,130 1,127.761 1,125 L1,6"/>
</g>

<g fill="none" stroke="#000000" stroke-opacity="1" stroke-width="2" stroke-linecap="square" stroke-linejoin="bevel" transform="matrix(1,0,0,1,0,0)"
font-family="Noto Sans CJK JP" font-size="90" font-weight="400" font-style="normal" 
>
<path vector-effect="none" fill-rule="evenodd" d="M22.4531,85.9375 C14.9844,85.9375 8.78125,92.0469 8.78125,99.6094 C8.78125,107.172 14.9844,113.375 22.4531,113.375 C30.1094,113.375 36.2344,107.172 36.2344,99.6094 C36.2344,92.0469 30.1094,85.9375 22.4531,85.9375 M22.4531,108.797 C17.5156,108.797 13.375,104.734 13.375,99.6094 C13.375,94.6563 17.5156,90.5156 22.4531,90.5156 C27.5938,90.5156 31.5469,94.6563 31.5469,99.6094 C31.5469,104.734 27.5938,108.797 22.4531,108.797 "/>
</g>

<g fill="#000000" fill-opacity="1" stroke="none" transform="matrix(1,0,0,1,0,0)"
font-family="Noto Sans CJK JP" font-size="90" font-weight="400" font-style="normal" 
>
<path vector-effect="none" fill-rule="evenodd" d="M22.4531,85.9375 C14.9844,85.9375 8.78125,92.0469 8.78125,99.6094 C8.78125,107.172 14.9844,113.375 22.4531,113.375 C30.1094,113.375 36.2344,107.172 36.2344,99.6094 C36.2344,92.0469 30.1094,85.9375 22.4531,85.9375 M22.4531,108.797 C17.5156,108.797 13.375,104.734 13.375,99.6094 C13.375,94.6563 17.5156,90.5156 22.4531,90.5156 C27.5938,90.5156 31.5469,94.6563 31.5469,99.6094 C31.5469,104.734 27.5938,108.797 22.4531,108.797 "/>
</g>
</g>
</svg>
