<?xml version="1.0" encoding="UTF-8" standalone="no"?>
<svg width="35.2778mm" height="45.8611mm"
 xmlns="http://www.w3.org/2000/svg" xmlns:xlink="http://www.w3.org/1999/xlink"  version="1.2" baseProfile="tiny">
<title>Qt SVG Document</title>
<desc>Generated with Qt</desc>
<defs>
</defs>
<g fill="none" stroke="black" stroke-width="1" fill-rule="evenodd" stroke-linecap="square" stroke-linejoin="bevel" >

<g fill="#c0c0c0" fill-opacity="1" stroke="none" transform="matrix(1,0,0,1,0,0)"
font-family="Noto Sans" font-size="10" font-weight="400" font-style="normal" 
>
<path vector-effect="none" fill-rule="evenodd" d="M1,6 C1,3.23858 3.23858,1 6,1 L95,1 C97.7614,1 100,3.23858 100,6 L100,125 C100,127.761 97.7614,130 95,130 L6,130 C3.23858,130 1,127.761 1,125 L1,6"/>
</g>

<g fill="none" stroke="#000000" stroke-opacity="1" stroke-width="2" stroke-linecap="square" stroke-linejoin="bevel" transform="matrix(1,0,0,1,0,0)"
font-family="Noto Sans" font-size="10" font-weight="400" font-style="normal" 
>
<path vector-effect="none" fill-rule="evenodd" d="M1,6 C1,3.23858 3.23858,1 6,1 L95,1 C97.7614,1 100,3.23858 100,6 L100,125 C100,127.761 97.7614,130 95,130 L6,130 C3.23858,130 1,127.761 1,125 L1,6"/>
</g>

<g fill="none" stroke="#000000" stroke-opacity="1" stroke-width="2" stroke-linecap="square" stroke-linejoin="bevel" transform="matrix(1,0,0,1,0,0)"
font-family="Noto Sans CJK JP" font-size="90" font-weight="400" font-style="normal" 
>
<path vector-effect="none" fill-rule="evenodd" d="M19.7656,71.7969 L22.7344,79.2656 C28.4844,77.0156 47.9219,68.9219 59,68.9219 C68.0938,68.9219 74.0313,74.4063 74.0313,81.9688 C74.0313,96.5469 57.1094,101.953 37.8438,102.578 L40.7344,109.516 C64.75,108.078 81.3125,99.25 81.3125,82.0625 C81.3125,69.9063 72.1406,62.3594 59.5313,62.3594 C49.0156,62.3594 34.4219,67.6563 28.0469,69.6406 C25.3438,70.5469 22.375,71.3594 19.7656,71.7969 "/>
</g>

<g fill="#000000" fill-opacity="1" stroke="none" transform="matrix(1,0,0,1,0,0)"
font-family="Noto Sans CJK JP" font-size="90" font-weight="400" font-style="normal" 
>
<path vector-effect="none" fill-rule="evenodd" d="M19.7656,71.7969 L22.7344,79.2656 C28.4844,77.0156 47.9219,68.9219 59,68.9219 C68.0938,68.9219 74.0313,74.4063 74.0313,81.9688 C74.0313,96.5469 57.1094,101.953 37.8438,102.578 L40.7344,109.516 C64.75,108.078 81.3125,99.25 81.3125,82.0625 C81.3125,69.9063 72.1406,62.3594 59.5313,62.3594 C49.0156,62.3594 34.4219,67.6563 28.0469,69.6406 C25.3438,70.5469 22.375,71.3594 19.7656,71.7969 "/>
</g>
</g>
</svg>
