<?xml version="1.0" encoding="UTF-8" standalone="no"?>
<svg width="35.2778mm" height="45.8611mm"
 xmlns="http://www.w3.org/2000/svg" xmlns:xlink="http://www.w3.org/1999/xlink"  version="1.2" baseProfile="tiny">
<title>Qt SVG Document</title>
<desc>Generated with Qt</desc>
<defs>
</defs>
<g fill="none" stroke="black" stroke-width="1" fill-rule="evenodd" stroke-linecap="square" stroke-linejoin="bevel" >

<g fill="#c0c0c0" fill-opacity="1" stroke="none" transform="matrix(1,0,0,1,0,0)"
font-family="Noto Sans" font-size="10" font-weight="400" font-style="normal" 
>
<path vector-effect="none" fill-rule="evenodd" d="M1,6 C1,3.23858 3.23858,1 6,1 L95,1 C97.7614,1 100,3.23858 100,6 L100,125 C100,127.761 97.7614,130 95,130 L6,130 C3.23858,130 1,127.761 1,125 L1,6"/>
</g>

<g fill="none" stroke="#000000" stroke-opacity="1" stroke-width="2" stroke-linecap="square" stroke-linejoin="bevel" transform="matrix(1,0,0,1,0,0)"
font-family="Noto Sans" font-size="10" font-weight="400" font-style="normal" 
>
<path vector-effect="none" fill-rule="evenodd" d="M1,6 C1,3.23858 3.23858,1 6,1 L95,1 C97.7614,1 100,3.23858 100,6 L100,125 C100,127.761 97.7614,130 95,130 L6,130 C3.23858,130 1,127.761 1,125 L1,6"/>
</g>

<g fill="none" stroke="#000000" stroke-opacity="1" stroke-width="2" stroke-linecap="square" stroke-linejoin="bevel" transform="matrix(1,0,0,1,0,0)"
font-family="Noto Sans CJK JP" font-size="90" font-weight="400" font-style="normal" 
>
<path vector-effect="none" fill-rule="evenodd" d="M48.4688,56.0469 L41.9063,58.2969 C43.7813,62.3594 47.9219,73.7813 48.9219,77.8281 L55.5781,75.4844 C54.4063,71.5313 50,59.6563 48.4688,56.0469 M73.3125,58.6563 C71.9531,70.1875 67.2813,81.6094 60.8906,89.4375 C53.5156,98.7188 42.0781,105.547 31.6406,108.516 L37.5781,114.641 C47.6563,110.766 58.6406,103.75 66.9219,93.2188 C73.3906,85.125 77.2656,75.4844 79.7031,65.5938 C80.0625,64.4219 80.4219,62.9844 81.0469,61.0938 L73.3125,58.6563 M27.5938,60.5469 L20.9219,63.1563 C22.7344,66.3125 27.5938,78.7344 28.9375,83.4063 L35.7813,80.8906 C34.0625,76.2188 29.3906,64.4219 27.5938,60.5469 "/>
</g>

<g fill="#000000" fill-opacity="1" stroke="none" transform="matrix(1,0,0,1,0,0)"
font-family="Noto Sans CJK JP" font-size="90" font-weight="400" font-style="normal" 
>
<path vector-effect="none" fill-rule="evenodd" d="M48.4688,56.0469 L41.9063,58.2969 C43.7813,62.3594 47.9219,73.7813 48.9219,77.8281 L55.5781,75.4844 C54.4063,71.5313 50,59.6563 48.4688,56.0469 M73.3125,58.6563 C71.9531,70.1875 67.2813,81.6094 60.8906,89.4375 C53.5156,98.7188 42.0781,105.547 31.6406,108.516 L37.5781,114.641 C47.6563,110.766 58.6406,103.75 66.9219,93.2188 C73.3906,85.125 77.2656,75.4844 79.7031,65.5938 C80.0625,64.4219 80.4219,62.9844 81.0469,61.0938 L73.3125,58.6563 M27.5938,60.5469 L20.9219,63.1563 C22.7344,66.3125 27.5938,78.7344 28.9375,83.4063 L35.7813,80.8906 C34.0625,76.2188 29.3906,64.4219 27.5938,60.5469 "/>
</g>
</g>
</svg>
