<?xml version="1.0" encoding="UTF-8" standalone="no"?>
<svg width="35.2778mm" height="45.8611mm"
 xmlns="http://www.w3.org/2000/svg" xmlns:xlink="http://www.w3.org/1999/xlink"  version="1.2" baseProfile="tiny">
<title>Qt SVG Document</title>
<desc>Generated with Qt</desc>
<defs>
</defs>
<g fill="none" stroke="black" stroke-width="1" fill-rule="evenodd" stroke-linecap="square" stroke-linejoin="bevel" >

<g fill="#c0c0c0" fill-opacity="1" stroke="none" transform="matrix(1,0,0,1,0,0)"
font-family="Noto Sans" font-size="10" font-weight="400" font-style="normal" 
>
<path vector-effect="none" fill-rule="evenodd" d="M1,6 C1,3.23858 3.23858,1 6,1 L95,1 C97.7614,1 100,3.23858 100,6 L100,125 C100,127.761 97.7614,130 95,130 L6,130 C3.23858,130 1,127.761 1,125 L1,6"/>
</g>

<g fill="none" stroke="#000000" stroke-opacity="1" stroke-width="2" stroke-linecap="square" stroke-linejoin="bevel" transform="matrix(1,0,0,1,0,0)"
font-family="Noto Sans" font-size="10" font-weight="400" font-style="normal" 
>
<path vector-effect="none" fill-rule="evenodd" d="M1,6 C1,3.23858 3.23858,1 6,1 L95,1 C97.7614,1 100,3.23858 100,6 L100,125 C100,127.761 97.7614,130 95,130 L6,130 C3.23858,130 1,127.761 1,125 L1,6"/>
</g>

<g fill="none" stroke="#000000" stroke-opacity="1" stroke-width="2" stroke-linecap="square" stroke-linejoin="bevel" transform="matrix(1,0,0,1,0,0)"
font-family="Noto Sans CJK JP" font-size="90" font-weight="400" font-style="normal" 
>
<path vector-effect="none" fill-rule="evenodd" d="M76.9063,53.2656 C75.375,53.5313 73.5781,53.7188 71.1406,53.7188 L49.7344,53.7188 C49.9063,50.7344 50.0938,47.6719 50.1719,44.4219 C50.2656,42.2656 50.4531,39.1094 50.7188,37.0313 L42.2656,37.0313 C42.625,39.2031 42.8906,42.5313 42.8906,44.5156 C42.8906,47.7656 42.7031,50.8281 42.5313,53.7188 L26.6875,53.7188 C23.2656,53.7188 19.5781,53.5313 16.4219,53.1719 L16.4219,60.8281 C19.5781,60.4688 23.1719,60.4688 26.7813,60.4688 L41.9063,60.4688 C39.4688,79 32.9844,90.25 24.0781,98.3438 C21.375,100.953 17.6875,103.484 14.9063,105.016 L21.375,110.328 C36.4063,99.9688 45.7656,86.2969 49.0156,60.4688 L74.2031,60.4688 C74.2031,70.0938 73.0313,92.2344 69.625,99.0781 C68.625,101.328 67,102.047 64.3906,102.047 C60.625,102.047 55.8438,101.688 50.9844,101.047 L51.8906,108.516 C56.5625,108.797 61.7813,109.063 66.375,109.063 C71.3281,109.063 74.2031,107.438 76,103.656 C80.0625,95.0156 81.1406,68.8281 81.5,60.1875 C81.5,59.0156 81.6719,57.3125 81.9531,55.7813 L76.9063,53.2656"/>
</g>

<g fill="#000000" fill-opacity="1" stroke="none" transform="matrix(1,0,0,1,0,0)"
font-family="Noto Sans CJK JP" font-size="90" font-weight="400" font-style="normal" 
>
<path vector-effect="none" fill-rule="evenodd" d="M76.9063,53.2656 C75.375,53.5313 73.5781,53.7188 71.1406,53.7188 L49.7344,53.7188 C49.9063,50.7344 50.0938,47.6719 50.1719,44.4219 C50.2656,42.2656 50.4531,39.1094 50.7188,37.0313 L42.2656,37.0313 C42.625,39.2031 42.8906,42.5313 42.8906,44.5156 C42.8906,47.7656 42.7031,50.8281 42.5313,53.7188 L26.6875,53.7188 C23.2656,53.7188 19.5781,53.5313 16.4219,53.1719 L16.4219,60.8281 C19.5781,60.4688 23.1719,60.4688 26.7813,60.4688 L41.9063,60.4688 C39.4688,79 32.9844,90.25 24.0781,98.3438 C21.375,100.953 17.6875,103.484 14.9063,105.016 L21.375,110.328 C36.4063,99.9688 45.7656,86.2969 49.0156,60.4688 L74.2031,60.4688 C74.2031,70.0938 73.0313,92.2344 69.625,99.0781 C68.625,101.328 67,102.047 64.3906,102.047 C60.625,102.047 55.8438,101.688 50.9844,101.047 L51.8906,108.516 C56.5625,108.797 61.7813,109.063 66.375,109.063 C71.3281,109.063 74.2031,107.438 76,103.656 C80.0625,95.0156 81.1406,68.8281 81.5,60.1875 C81.5,59.0156 81.6719,57.3125 81.9531,55.7813 L76.9063,53.2656"/>
</g>
</g>
</svg>
