<?xml version="1.0" encoding="UTF-8" standalone="no"?>
<svg width="35.2778mm" height="45.8611mm"
 xmlns="http://www.w3.org/2000/svg" xmlns:xlink="http://www.w3.org/1999/xlink"  version="1.2" baseProfile="tiny">
<title>Qt SVG Document</title>
<desc>Generated with Qt</desc>
<defs>
</defs>
<g fill="none" stroke="black" stroke-width="1" fill-rule="evenodd" stroke-linecap="square" stroke-linejoin="bevel" >

<g fill="#c0c0c0" fill-opacity="1" stroke="none" transform="matrix(1,0,0,1,0,0)"
font-family="Noto Sans" font-size="10" font-weight="400" font-style="normal" 
>
<path vector-effect="none" fill-rule="evenodd" d="M1,6 C1,3.23858 3.23858,1 6,1 L95,1 C97.7614,1 100,3.23858 100,6 L100,125 C100,127.761 97.7614,130 95,130 L6,130 C3.23858,130 1,127.761 1,125 L1,6"/>
</g>

<g fill="none" stroke="#000000" stroke-opacity="1" stroke-width="2" stroke-linecap="square" stroke-linejoin="bevel" transform="matrix(1,0,0,1,0,0)"
font-family="Noto Sans" font-size="10" font-weight="400" font-style="normal" 
>
<path vector-effect="none" fill-rule="evenodd" d="M1,6 C1,3.23858 3.23858,1 6,1 L95,1 C97.7614,1 100,3.23858 100,6 L100,125 C100,127.761 97.7614,130 95,130 L6,130 C3.23858,130 1,127.761 1,125 L1,6"/>
</g>

<g fill="none" stroke="#000000" stroke-opacity="1" stroke-width="2" stroke-linecap="square" stroke-linejoin="bevel" transform="matrix(1,0,0,1,0,0)"
font-family="Noto Sans CJK JP" font-size="90" font-weight="400" font-style="normal" 
>
<path vector-effect="none" fill-rule="evenodd" d="M12.4688,116.438 C20.2969,116.438 24.0781,113.375 24.0781,103.125 C24.0781,95.9219 23.1719,90.6094 23.1719,83.8594 C23.1719,80.0781 24.9844,76.2188 31.7344,76.2188 L31.7344,71.1719 C24.9844,71.0781 23.1719,67.2188 23.1719,63.4375 C23.1719,56.6875 24.0781,51.375 24.0781,44.2656 C24.0781,33.9063 20.2969,30.9375 12.4688,30.9375 L8.15625,30.9375 L8.15625,35.5313 L11.0313,35.5313 C16.4219,35.5313 17.875,38.1406 17.875,44.625 C17.875,50.75 17.3281,55.875 17.3281,62.7188 C17.3281,69.1094 18.8594,72.3438 23.2656,73.5156 L23.2656,73.875 C18.8594,75.0469 17.3281,78.2813 17.3281,84.6719 C17.3281,91.4219 17.875,96.6406 17.875,102.672 C17.875,109.156 16.4219,111.766 11.0313,111.766 L8.15625,111.766 L8.15625,116.438 L12.4688,116.438"/>
</g>

<g fill="#000000" fill-opacity="1" stroke="none" transform="matrix(1,0,0,1,0,0)"
font-family="Noto Sans CJK JP" font-size="90" font-weight="400" font-style="normal" 
>
<path vector-effect="none" fill-rule="evenodd" d="M12.4688,116.438 C20.2969,116.438 24.0781,113.375 24.0781,103.125 C24.0781,95.9219 23.1719,90.6094 23.1719,83.8594 C23.1719,80.0781 24.9844,76.2188 31.7344,76.2188 L31.7344,71.1719 C24.9844,71.0781 23.1719,67.2188 23.1719,63.4375 C23.1719,56.6875 24.0781,51.375 24.0781,44.2656 C24.0781,33.9063 20.2969,30.9375 12.4688,30.9375 L8.15625,30.9375 L8.15625,35.5313 L11.0313,35.5313 C16.4219,35.5313 17.875,38.1406 17.875,44.625 C17.875,50.75 17.3281,55.875 17.3281,62.7188 C17.3281,69.1094 18.8594,72.3438 23.2656,73.5156 L23.2656,73.875 C18.8594,75.0469 17.3281,78.2813 17.3281,84.6719 C17.3281,91.4219 17.875,96.6406 17.875,102.672 C17.875,109.156 16.4219,111.766 11.0313,111.766 L8.15625,111.766 L8.15625,116.438 L12.4688,116.438"/>
</g>
</g>
</svg>
