<?xml version="1.0" encoding="UTF-8" standalone="no"?>
<svg width="35.2778mm" height="45.8611mm"
 xmlns="http://www.w3.org/2000/svg" xmlns:xlink="http://www.w3.org/1999/xlink"  version="1.2" baseProfile="tiny">
<title>Qt SVG Document</title>
<desc>Generated with Qt</desc>
<defs>
</defs>
<g fill="none" stroke="black" stroke-width="1" fill-rule="evenodd" stroke-linecap="square" stroke-linejoin="bevel" >

<g fill="#c0c0c0" fill-opacity="1" stroke="none" transform="matrix(1,0,0,1,0,0)"
font-family="Noto Sans" font-size="10" font-weight="400" font-style="normal" 
>
<path vector-effect="none" fill-rule="evenodd" d="M1,6 C1,3.23858 3.23858,1 6,1 L95,1 C97.7614,1 100,3.23858 100,6 L100,125 C100,127.761 97.7614,130 95,130 L6,130 C3.23858,130 1,127.761 1,125 L1,6"/>
</g>

<g fill="none" stroke="#000000" stroke-opacity="1" stroke-width="2" stroke-linecap="square" stroke-linejoin="bevel" transform="matrix(1,0,0,1,0,0)"
font-family="Noto Sans" font-size="10" font-weight="400" font-style="normal" 
>
<path vector-effect="none" fill-rule="evenodd" d="M1,6 C1,3.23858 3.23858,1 6,1 L95,1 C97.7614,1 100,3.23858 100,6 L100,125 C100,127.761 97.7614,130 95,130 L6,130 C3.23858,130 1,127.761 1,125 L1,6"/>
</g>

<g fill="none" stroke="#000000" stroke-opacity="1" stroke-width="2" stroke-linecap="square" stroke-linejoin="bevel" transform="matrix(1,0,0,1,0,0)"
font-family="Noto Sans CJK JP" font-size="90" font-weight="400" font-style="normal" 
>
<path vector-effect="none" fill-rule="evenodd" d="M41.5313,79 C39.4688,75.4844 36.8594,69.4688 34.7031,63.3438 C40.4531,59.6563 46.7656,57.5781 53.6875,57.2188 C50.9844,66.4063 47.125,75.6719 43.3438,81.9688 C42.7031,80.9844 42.0781,79.9844 41.5313,79 M26.2344,97.7188 C22.1875,97.7188 19.5781,94.125 19.5781,88.1875 C19.5781,81.25 23.2656,73.1563 29.125,67.5781 C31.7344,74.3281 34.5156,80.625 37.0313,84.6719 C37.7656,85.8438 38.4844,87.0156 39.2031,88.0938 C35.2344,93.3125 30.6563,97.7188 26.2344,97.7188 M57.2813,37.7656 C57.375,39.7344 57.1094,42.7188 56.75,44.5156 C56.3906,46.5938 55.9375,48.7656 55.3906,50.9219 C47.6563,51.0156 40.0938,52.8125 32.5313,57.2188 C31.7344,54.7031 31.0156,52.4531 30.4688,50.3906 C29.8438,47.9531 29.125,44.9688 28.6719,42.5313 L21.2031,44.875 C22.2813,47.2188 23.1719,50.0156 24.0781,52.9063 C24.8906,55.5156 25.7969,58.2969 26.7813,61.0938 C18.6719,67.75 13.0156,78.4688 13.0156,88.625 C13.0156,99.1563 18.7656,104.828 25.5156,104.828 C32.1719,104.828 37.6719,100.422 43.1563,93.7656 C44.5156,95.5625 45.9531,97.1875 47.3906,98.7969 L52.9688,94.2188 C51.0781,92.4063 49.1875,90.25 47.4844,88 C52.5156,80.625 57.2031,69.0156 60.5313,57.6719 C71.875,59.6563 79.0625,68.375 79.0625,79.9063 C79.0625,93.5781 68.7188,103.391 50.1719,105.016 L54.5,111.422 C73.5781,108.797 86.2656,97.9063 86.2656,80.1719 C86.2656,64.875 76.4531,53.8906 62.1406,51.4688 C62.6875,49.3906 63.1406,47.4063 63.5938,45.4219 C64.0313,43.7031 64.5781,40.6406 65.125,38.4844 L57.2813,37.7656"/>
</g>

<g fill="#000000" fill-opacity="1" stroke="none" transform="matrix(1,0,0,1,0,0)"
font-family="Noto Sans CJK JP" font-size="90" font-weight="400" font-style="normal" 
>
<path vector-effect="none" fill-rule="evenodd" d="M41.5313,79 C39.4688,75.4844 36.8594,69.4688 34.7031,63.3438 C40.4531,59.6563 46.7656,57.5781 53.6875,57.2188 C50.9844,66.4063 47.125,75.6719 43.3438,81.9688 C42.7031,80.9844 42.0781,79.9844 41.5313,79 M26.2344,97.7188 C22.1875,97.7188 19.5781,94.125 19.5781,88.1875 C19.5781,81.25 23.2656,73.1563 29.125,67.5781 C31.7344,74.3281 34.5156,80.625 37.0313,84.6719 C37.7656,85.8438 38.4844,87.0156 39.2031,88.0938 C35.2344,93.3125 30.6563,97.7188 26.2344,97.7188 M57.2813,37.7656 C57.375,39.7344 57.1094,42.7188 56.75,44.5156 C56.3906,46.5938 55.9375,48.7656 55.3906,50.9219 C47.6563,51.0156 40.0938,52.8125 32.5313,57.2188 C31.7344,54.7031 31.0156,52.4531 30.4688,50.3906 C29.8438,47.9531 29.125,44.9688 28.6719,42.5313 L21.2031,44.875 C22.2813,47.2188 23.1719,50.0156 24.0781,52.9063 C24.8906,55.5156 25.7969,58.2969 26.7813,61.0938 C18.6719,67.75 13.0156,78.4688 13.0156,88.625 C13.0156,99.1563 18.7656,104.828 25.5156,104.828 C32.1719,104.828 37.6719,100.422 43.1563,93.7656 C44.5156,95.5625 45.9531,97.1875 47.3906,98.7969 L52.9688,94.2188 C51.0781,92.4063 49.1875,90.25 47.4844,88 C52.5156,80.625 57.2031,69.0156 60.5313,57.6719 C71.875,59.6563 79.0625,68.375 79.0625,79.9063 C79.0625,93.5781 68.7188,103.391 50.1719,105.016 L54.5,111.422 C73.5781,108.797 86.2656,97.9063 86.2656,80.1719 C86.2656,64.875 76.4531,53.8906 62.1406,51.4688 C62.6875,49.3906 63.1406,47.4063 63.5938,45.4219 C64.0313,43.7031 64.5781,40.6406 65.125,38.4844 L57.2813,37.7656"/>
</g>
</g>
</svg>
