<?xml version="1.0" encoding="UTF-8" standalone="no"?>
<svg width="35.2778mm" height="45.8611mm"
 xmlns="http://www.w3.org/2000/svg" xmlns:xlink="http://www.w3.org/1999/xlink"  version="1.2" baseProfile="tiny">
<title>Qt SVG Document</title>
<desc>Generated with Qt</desc>
<defs>
</defs>
<g fill="none" stroke="black" stroke-width="1" fill-rule="evenodd" stroke-linecap="square" stroke-linejoin="bevel" >

<g fill="#c0c0c0" fill-opacity="1" stroke="none" transform="matrix(1,0,0,1,0,0)"
font-family="Noto Sans" font-size="10" font-weight="400" font-style="normal" 
>
<path vector-effect="none" fill-rule="evenodd" d="M1,6 C1,3.23858 3.23858,1 6,1 L95,1 C97.7614,1 100,3.23858 100,6 L100,125 C100,127.761 97.7614,130 95,130 L6,130 C3.23858,130 1,127.761 1,125 L1,6"/>
</g>

<g fill="none" stroke="#000000" stroke-opacity="1" stroke-width="2" stroke-linecap="square" stroke-linejoin="bevel" transform="matrix(1,0,0,1,0,0)"
font-family="Noto Sans" font-size="10" font-weight="400" font-style="normal" 
>
<path vector-effect="none" fill-rule="evenodd" d="M1,6 C1,3.23858 3.23858,1 6,1 L95,1 C97.7614,1 100,3.23858 100,6 L100,125 C100,127.761 97.7614,130 95,130 L6,130 C3.23858,130 1,127.761 1,125 L1,6"/>
</g>

<g fill="none" stroke="#000000" stroke-opacity="1" stroke-width="2" stroke-linecap="square" stroke-linejoin="bevel" transform="matrix(1,0,0,1,0,0)"
font-family="Noto Sans CJK JP" font-size="90" font-weight="400" font-style="normal" 
>
<path vector-effect="none" fill-rule="evenodd" d="M36.1406,37.0313 C36.1406,43.0781 35.1563,50.0156 33.8906,56.4063 C28.4844,56.8594 23.2656,57.3125 20.2969,57.4063 C17.5156,57.5 15.1719,57.5781 12.375,57.4063 L13.0938,65.2344 C15.4375,64.875 19.0469,64.4219 21.1094,64.1563 C23.4531,63.875 27.7656,63.4375 32.3594,62.9844 C29.3906,74.8594 22.7344,95.0156 13.6406,107.172 L21.0156,110.141 C30.4688,95.0156 36.5,75.0469 39.7344,62.2656 C43.6094,61.9063 47.125,61.625 49.2813,61.625 C54.9531,61.625 58.6406,63.0781 58.6406,71.1719 C58.6406,80.8906 57.2813,92.4063 54.5,98.4375 C52.6094,102.313 50,103.031 46.6719,103.031 C44.2344,103.031 39.4688,102.219 35.7813,101.047 L36.9531,108.609 C39.7344,109.234 44.0625,109.953 47.3906,109.953 C53.2344,109.953 57.6406,108.438 60.4375,102.484 C64.125,95.0156 65.6563,80.9844 65.6563,70.3594 C65.6563,58.2969 59.0938,55.25 51.1719,55.25 C49.0156,55.25 45.3125,55.5156 41.1719,55.7813 C42.1719,51 42.9844,45.7813 43.4219,43.1563 C43.7813,41.4531 44.1406,39.5625 44.5156,37.9375 L36.1406,37.0313 M68.5313,50.2813 C74.8438,57.7656 81.8594,73.4219 84.4688,82.6094 L91.4844,79.2656 C88.4219,70.9844 80.7813,54.6094 75.2031,47.4063 L68.5313,50.2813"/>
</g>

<g fill="#000000" fill-opacity="1" stroke="none" transform="matrix(1,0,0,1,0,0)"
font-family="Noto Sans CJK JP" font-size="90" font-weight="400" font-style="normal" 
>
<path vector-effect="none" fill-rule="evenodd" d="M36.1406,37.0313 C36.1406,43.0781 35.1563,50.0156 33.8906,56.4063 C28.4844,56.8594 23.2656,57.3125 20.2969,57.4063 C17.5156,57.5 15.1719,57.5781 12.375,57.4063 L13.0938,65.2344 C15.4375,64.875 19.0469,64.4219 21.1094,64.1563 C23.4531,63.875 27.7656,63.4375 32.3594,62.9844 C29.3906,74.8594 22.7344,95.0156 13.6406,107.172 L21.0156,110.141 C30.4688,95.0156 36.5,75.0469 39.7344,62.2656 C43.6094,61.9063 47.125,61.625 49.2813,61.625 C54.9531,61.625 58.6406,63.0781 58.6406,71.1719 C58.6406,80.8906 57.2813,92.4063 54.5,98.4375 C52.6094,102.313 50,103.031 46.6719,103.031 C44.2344,103.031 39.4688,102.219 35.7813,101.047 L36.9531,108.609 C39.7344,109.234 44.0625,109.953 47.3906,109.953 C53.2344,109.953 57.6406,108.438 60.4375,102.484 C64.125,95.0156 65.6563,80.9844 65.6563,70.3594 C65.6563,58.2969 59.0938,55.25 51.1719,55.25 C49.0156,55.25 45.3125,55.5156 41.1719,55.7813 C42.1719,51 42.9844,45.7813 43.4219,43.1563 C43.7813,41.4531 44.1406,39.5625 44.5156,37.9375 L36.1406,37.0313 M68.5313,50.2813 C74.8438,57.7656 81.8594,73.4219 84.4688,82.6094 L91.4844,79.2656 C88.4219,70.9844 80.7813,54.6094 75.2031,47.4063 L68.5313,50.2813"/>
</g>
</g>
</svg>
