<?xml version="1.0" encoding="UTF-8" standalone="no"?>
<svg width="35.2778mm" height="45.8611mm"
 xmlns="http://www.w3.org/2000/svg" xmlns:xlink="http://www.w3.org/1999/xlink"  version="1.2" baseProfile="tiny">
<title>Qt SVG Document</title>
<desc>Generated with Qt</desc>
<defs>
</defs>
<g fill="none" stroke="black" stroke-width="1" fill-rule="evenodd" stroke-linecap="square" stroke-linejoin="bevel" >

<g fill="#c0c0c0" fill-opacity="1" stroke="none" transform="matrix(1,0,0,1,0,0)"
font-family="Noto Sans" font-size="10" font-weight="400" font-style="normal" 
>
<path vector-effect="none" fill-rule="evenodd" d="M1,6 C1,3.23858 3.23858,1 6,1 L95,1 C97.7614,1 100,3.23858 100,6 L100,125 C100,127.761 97.7614,130 95,130 L6,130 C3.23858,130 1,127.761 1,125 L1,6"/>
</g>

<g fill="none" stroke="#000000" stroke-opacity="1" stroke-width="2" stroke-linecap="square" stroke-linejoin="bevel" transform="matrix(1,0,0,1,0,0)"
font-family="Noto Sans" font-size="10" font-weight="400" font-style="normal" 
>
<path vector-effect="none" fill-rule="evenodd" d="M1,6 C1,3.23858 3.23858,1 6,1 L95,1 C97.7614,1 100,3.23858 100,6 L100,125 C100,127.761 97.7614,130 95,130 L6,130 C3.23858,130 1,127.761 1,125 L1,6"/>
</g>

<g fill="none" stroke="#000000" stroke-opacity="1" stroke-width="2" stroke-linecap="square" stroke-linejoin="bevel" transform="matrix(1,0,0,1,0,0)"
font-family="Noto Sans CJK JP" font-size="90" font-weight="400" font-style="normal" 
>
<path vector-effect="none" fill-rule="evenodd" d="M77.9844,37.9688 C73.3125,35.9844 68.7188,35.1719 63.8594,35.1719 C50.3594,35.1719 44.2344,42.9063 44.2344,54.7969 L44.2344,58.9375 L30.2031,59.375 L30.2031,65.5938 L44.2344,65.5938 L44.2344,107.891 L52.25,107.891 L52.25,65.5938 L72.8594,65.5938 L72.8594,58.9375 L52.25,58.9375 L52.25,54.5156 C52.25,46.6094 55.9375,41.8281 64.6719,41.8281 C68.9844,41.8281 72.0469,42.375 76,44.0781 L77.9844,37.9688"/>
</g>

<g fill="#000000" fill-opacity="1" stroke="none" transform="matrix(1,0,0,1,0,0)"
font-family="Noto Sans CJK JP" font-size="90" font-weight="400" font-style="normal" 
>
<path vector-effect="none" fill-rule="evenodd" d="M77.9844,37.9688 C73.3125,35.9844 68.7188,35.1719 63.8594,35.1719 C50.3594,35.1719 44.2344,42.9063 44.2344,54.7969 L44.2344,58.9375 L30.2031,59.375 L30.2031,65.5938 L44.2344,65.5938 L44.2344,107.891 L52.25,107.891 L52.25,65.5938 L72.8594,65.5938 L72.8594,58.9375 L52.25,58.9375 L52.25,54.5156 C52.25,46.6094 55.9375,41.8281 64.6719,41.8281 C68.9844,41.8281 72.0469,42.375 76,44.0781 L77.9844,37.9688"/>
</g>
</g>
</svg>
