<?xml version="1.0" encoding="UTF-8" standalone="no"?>
<svg width="35.2778mm" height="45.8611mm"
 xmlns="http://www.w3.org/2000/svg" xmlns:xlink="http://www.w3.org/1999/xlink"  version="1.2" baseProfile="tiny">
<title>Qt SVG Document</title>
<desc>Generated with Qt</desc>
<defs>
</defs>
<g fill="none" stroke="black" stroke-width="1" fill-rule="evenodd" stroke-linecap="square" stroke-linejoin="bevel" >

<g fill="#c0c0c0" fill-opacity="1" stroke="none" transform="matrix(1,0,0,1,0,0)"
font-family="Noto Sans" font-size="10" font-weight="400" font-style="normal" 
>
<path vector-effect="none" fill-rule="evenodd" d="M1,6 C1,3.23858 3.23858,1 6,1 L95,1 C97.7614,1 100,3.23858 100,6 L100,125 C100,127.761 97.7614,130 95,130 L6,130 C3.23858,130 1,127.761 1,125 L1,6"/>
</g>

<g fill="none" stroke="#000000" stroke-opacity="1" stroke-width="2" stroke-linecap="square" stroke-linejoin="bevel" transform="matrix(1,0,0,1,0,0)"
font-family="Noto Sans" font-size="10" font-weight="400" font-style="normal" 
>
<path vector-effect="none" fill-rule="evenodd" d="M1,6 C1,3.23858 3.23858,1 6,1 L95,1 C97.7614,1 100,3.23858 100,6 L100,125 C100,127.761 97.7614,130 95,130 L6,130 C3.23858,130 1,127.761 1,125 L1,6"/>
</g>

<g fill="none" stroke="#000000" stroke-opacity="1" stroke-width="2" stroke-linecap="square" stroke-linejoin="bevel" transform="matrix(1,0,0,1,0,0)"
font-family="Noto Sans CJK JP" font-size="90" font-weight="400" font-style="normal" 
>
<path vector-effect="none" fill-rule="evenodd" d="M78.8906,61.3594 C77.8906,61.9063 76,62.0781 73.9375,62.0781 L26.5156,62.0781 C24.0781,62.0781 21.0156,61.9063 17.7813,61.5469 L17.7813,69.1094 C20.9219,68.9219 24.3438,68.8281 26.5156,68.8281 L74.2969,68.8281 C72.6719,75.3125 69.0781,82.9688 63.5938,88.7344 C55.9375,96.75 44.6875,102.609 31.9063,105.219 L37.4844,111.625 C48.9219,108.469 60.25,103.156 69.7031,92.7969 C76.3594,85.5 80.4219,76.125 82.8438,67.2188 C83.0313,66.5781 83.5625,65.4063 84.0156,64.6094 L78.8906,61.3594 M25.7969,48.3125 C28.2188,48.1406 31.0938,48.0469 33.8906,48.0469 L69.1719,48.0469 C72.2344,48.0469 75.2813,48.1406 77.4531,48.3125 L77.4531,40.8438 C75.2813,41.2031 72.1406,41.2969 69.25,41.2969 L33.8906,41.2969 C31.0156,41.2969 28.125,41.2031 25.7969,40.8438 L25.7969,48.3125"/>
</g>

<g fill="#000000" fill-opacity="1" stroke="none" transform="matrix(1,0,0,1,0,0)"
font-family="Noto Sans CJK JP" font-size="90" font-weight="400" font-style="normal" 
>
<path vector-effect="none" fill-rule="evenodd" d="M78.8906,61.3594 C77.8906,61.9063 76,62.0781 73.9375,62.0781 L26.5156,62.0781 C24.0781,62.0781 21.0156,61.9063 17.7813,61.5469 L17.7813,69.1094 C20.9219,68.9219 24.3438,68.8281 26.5156,68.8281 L74.2969,68.8281 C72.6719,75.3125 69.0781,82.9688 63.5938,88.7344 C55.9375,96.75 44.6875,102.609 31.9063,105.219 L37.4844,111.625 C48.9219,108.469 60.25,103.156 69.7031,92.7969 C76.3594,85.5 80.4219,76.125 82.8438,67.2188 C83.0313,66.5781 83.5625,65.4063 84.0156,64.6094 L78.8906,61.3594 M25.7969,48.3125 C28.2188,48.1406 31.0938,48.0469 33.8906,48.0469 L69.1719,48.0469 C72.2344,48.0469 75.2813,48.1406 77.4531,48.3125 L77.4531,40.8438 C75.2813,41.2031 72.1406,41.2969 69.25,41.2969 L33.8906,41.2969 C31.0156,41.2969 28.125,41.2031 25.7969,40.8438 L25.7969,48.3125"/>
</g>
</g>
</svg>
