<?xml version="1.0" encoding="UTF-8" standalone="no"?>
<svg width="35.2778mm" height="45.8611mm"
 xmlns="http://www.w3.org/2000/svg" xmlns:xlink="http://www.w3.org/1999/xlink"  version="1.2" baseProfile="tiny">
<title>Qt SVG Document</title>
<desc>Generated with Qt</desc>
<defs>
</defs>
<g fill="none" stroke="black" stroke-width="1" fill-rule="evenodd" stroke-linecap="square" stroke-linejoin="bevel" >

<g fill="#c0c0c0" fill-opacity="1" stroke="none" transform="matrix(1,0,0,1,0,0)"
font-family="Noto Sans" font-size="10" font-weight="400" font-style="normal" 
>
<path vector-effect="none" fill-rule="evenodd" d="M1,6 C1,3.23858 3.23858,1 6,1 L95,1 C97.7614,1 100,3.23858 100,6 L100,125 C100,127.761 97.7614,130 95,130 L6,130 C3.23858,130 1,127.761 1,125 L1,6"/>
</g>

<g fill="none" stroke="#000000" stroke-opacity="1" stroke-width="2" stroke-linecap="square" stroke-linejoin="bevel" transform="matrix(1,0,0,1,0,0)"
font-family="Noto Sans" font-size="10" font-weight="400" font-style="normal" 
>
<path vector-effect="none" fill-rule="evenodd" d="M1,6 C1,3.23858 3.23858,1 6,1 L95,1 C97.7614,1 100,3.23858 100,6 L100,125 C100,127.761 97.7614,130 95,130 L6,130 C3.23858,130 1,127.761 1,125 L1,6"/>
</g>

<g fill="none" stroke="#000000" stroke-opacity="1" stroke-width="2" stroke-linecap="square" stroke-linejoin="bevel" transform="matrix(1,0,0,1,0,0)"
font-family="Noto Sans CJK JP" font-size="90" font-weight="400" font-style="normal" 
>
<path vector-effect="none" fill-rule="evenodd" d="M66.1094,100.063 C67.375,91.7813 69.9844,73.9688 70.7031,67.8438 C70.7813,67.125 71.0625,65.9531 71.3281,65.0469 L65.8438,62.4375 C65.0313,62.7969 62.7813,63.0781 61.3438,63.0781 L33.9844,63.0781 C31.7344,63.0781 29.0313,62.7969 26.875,62.5313 L26.875,70.0938 C29.125,70 31.4531,69.8281 34.0625,69.8281 L62.6875,69.8281 C62.4219,74.9531 59.8125,92.5 58.4531,100.063 L25.875,100.063 C23.0938,100.063 20.5625,99.875 18.4063,99.7031 L18.4063,107.172 C21.0156,106.984 23.0938,106.906 25.875,106.906 L75.2031,106.906 C77.0938,106.906 80.4219,106.984 82.0313,107.078 L82.0313,99.7969 C80.1406,99.9688 76.9063,100.063 74.9219,100.063 L66.1094,100.063"/>
</g>

<g fill="#000000" fill-opacity="1" stroke="none" transform="matrix(1,0,0,1,0,0)"
font-family="Noto Sans CJK JP" font-size="90" font-weight="400" font-style="normal" 
>
<path vector-effect="none" fill-rule="evenodd" d="M66.1094,100.063 C67.375,91.7813 69.9844,73.9688 70.7031,67.8438 C70.7813,67.125 71.0625,65.9531 71.3281,65.0469 L65.8438,62.4375 C65.0313,62.7969 62.7813,63.0781 61.3438,63.0781 L33.9844,63.0781 C31.7344,63.0781 29.0313,62.7969 26.875,62.5313 L26.875,70.0938 C29.125,70 31.4531,69.8281 34.0625,69.8281 L62.6875,69.8281 C62.4219,74.9531 59.8125,92.5 58.4531,100.063 L25.875,100.063 C23.0938,100.063 20.5625,99.875 18.4063,99.7031 L18.4063,107.172 C21.0156,106.984 23.0938,106.906 25.875,106.906 L75.2031,106.906 C77.0938,106.906 80.4219,106.984 82.0313,107.078 L82.0313,99.7969 C80.1406,99.9688 76.9063,100.063 74.9219,100.063 L66.1094,100.063"/>
</g>
</g>
</svg>
