<?xml version="1.0" encoding="UTF-8" standalone="no"?>
<svg width="35.2778mm" height="45.8611mm"
 xmlns="http://www.w3.org/2000/svg" xmlns:xlink="http://www.w3.org/1999/xlink"  version="1.2" baseProfile="tiny">
<title>Qt SVG Document</title>
<desc>Generated with Qt</desc>
<defs>
</defs>
<g fill="none" stroke="black" stroke-width="1" fill-rule="evenodd" stroke-linecap="square" stroke-linejoin="bevel" >

<g fill="#c0c0c0" fill-opacity="1" stroke="none" transform="matrix(1,0,0,1,0,0)"
font-family="Noto Sans" font-size="10" font-weight="400" font-style="normal" 
>
<path vector-effect="none" fill-rule="evenodd" d="M1,6 C1,3.23858 3.23858,1 6,1 L95,1 C97.7614,1 100,3.23858 100,6 L100,125 C100,127.761 97.7614,130 95,130 L6,130 C3.23858,130 1,127.761 1,125 L1,6"/>
</g>

<g fill="none" stroke="#000000" stroke-opacity="1" stroke-width="2" stroke-linecap="square" stroke-linejoin="bevel" transform="matrix(1,0,0,1,0,0)"
font-family="Noto Sans" font-size="10" font-weight="400" font-style="normal" 
>
<path vector-effect="none" fill-rule="evenodd" d="M1,6 C1,3.23858 3.23858,1 6,1 L95,1 C97.7614,1 100,3.23858 100,6 L100,125 C100,127.761 97.7614,130 95,130 L6,130 C3.23858,130 1,127.761 1,125 L1,6"/>
</g>

<g fill="none" stroke="#000000" stroke-opacity="1" stroke-width="2" stroke-linecap="square" stroke-linejoin="bevel" transform="matrix(1,0,0,1,0,0)"
font-family="Noto Sans CJK JP" font-size="90" font-weight="400" font-style="normal" 
>
<path vector-effect="none" fill-rule="evenodd" d="M27.9531,101.328 L27.9531,76.2188 L72.5938,76.2188 L72.5938,101.328 L27.9531,101.328 M72.5938,45.3438 L72.5938,69.6406 L27.9531,69.6406 L27.9531,45.3438 L72.5938,45.3438 M21.2031,38.7656 L21.2031,113.766 L27.9531,113.766 L27.9531,107.891 L72.5938,107.891 L72.5938,113.406 L79.6094,113.406 L79.6094,38.7656 L21.2031,38.7656"/>
</g>

<g fill="#000000" fill-opacity="1" stroke="none" transform="matrix(1,0,0,1,0,0)"
font-family="Noto Sans CJK JP" font-size="90" font-weight="400" font-style="normal" 
>
<path vector-effect="none" fill-rule="evenodd" d="M27.9531,101.328 L27.9531,76.2188 L72.5938,76.2188 L72.5938,101.328 L27.9531,101.328 M72.5938,45.3438 L72.5938,69.6406 L27.9531,69.6406 L27.9531,45.3438 L72.5938,45.3438 M21.2031,38.7656 L21.2031,113.766 L27.9531,113.766 L27.9531,107.891 L72.5938,107.891 L72.5938,113.406 L79.6094,113.406 L79.6094,38.7656 L21.2031,38.7656"/>
</g>
</g>
</svg>
