<?xml version="1.0" encoding="UTF-8" standalone="no"?>
<svg width="35.2778mm" height="45.8611mm"
 xmlns="http://www.w3.org/2000/svg" xmlns:xlink="http://www.w3.org/1999/xlink"  version="1.2" baseProfile="tiny">
<title>Qt SVG Document</title>
<desc>Generated with Qt</desc>
<defs>
</defs>
<g fill="none" stroke="black" stroke-width="1" fill-rule="evenodd" stroke-linecap="square" stroke-linejoin="bevel" >

<g fill="#c0c0c0" fill-opacity="1" stroke="none" transform="matrix(1,0,0,1,0,0)"
font-family="Noto Sans" font-size="10" font-weight="400" font-style="normal" 
>
<path vector-effect="none" fill-rule="evenodd" d="M1,6 C1,3.23858 3.23858,1 6,1 L95,1 C97.7614,1 100,3.23858 100,6 L100,125 C100,127.761 97.7614,130 95,130 L6,130 C3.23858,130 1,127.761 1,125 L1,6"/>
</g>

<g fill="none" stroke="#000000" stroke-opacity="1" stroke-width="2" stroke-linecap="square" stroke-linejoin="bevel" transform="matrix(1,0,0,1,0,0)"
font-family="Noto Sans" font-size="10" font-weight="400" font-style="normal" 
>
<path vector-effect="none" fill-rule="evenodd" d="M1,6 C1,3.23858 3.23858,1 6,1 L95,1 C97.7614,1 100,3.23858 100,6 L100,125 C100,127.761 97.7614,130 95,130 L6,130 C3.23858,130 1,127.761 1,125 L1,6"/>
</g>

<g fill="none" stroke="#000000" stroke-opacity="1" stroke-width="2" stroke-linecap="square" stroke-linejoin="bevel" transform="matrix(1,0,0,1,0,0)"
font-family="Noto Sans CJK JP" font-size="90" font-weight="400" font-style="normal" 
>
<path vector-effect="none" fill-rule="evenodd" d="M27.0469,81.1563 C36.0469,81.1563 42.0781,73.5156 42.0781,60.1875 C42.0781,46.9688 36.0469,39.4063 27.0469,39.4063 C17.9531,39.4063 12.0156,46.9688 12.0156,60.1875 C12.0156,73.5156 17.9531,81.1563 27.0469,81.1563 M27.0469,76.0313 C21.8281,76.0313 18.2344,70.7188 18.2344,60.1875 C18.2344,49.5781 21.8281,44.5313 27.0469,44.5313 C32.2656,44.5313 35.7813,49.5781 35.7813,60.1875 C35.7813,70.7188 32.2656,76.0313 27.0469,76.0313 M73.0313,107.984 C82.125,107.984 88.0625,100.328 88.0625,87.0156 C88.0625,73.7813 82.125,66.2188 73.0313,66.2188 C64.0313,66.2188 58.0938,73.7813 58.0938,87.0156 C58.0938,100.328 64.0313,107.984 73.0313,107.984 M73.0313,102.844 C67.8125,102.844 64.3125,97.5469 64.3125,87.0156 C64.3125,76.4844 67.8125,71.3594 73.0313,71.3594 C78.3438,71.3594 81.8594,76.4844 81.8594,87.0156 C81.8594,97.5469 78.3438,102.844 73.0313,102.844 M28.9375,107.984 L34.4219,107.984 L70.9688,39.4063 L65.4844,39.4063 L28.9375,107.984"/>
</g>

<g fill="#000000" fill-opacity="1" stroke="none" transform="matrix(1,0,0,1,0,0)"
font-family="Noto Sans CJK JP" font-size="90" font-weight="400" font-style="normal" 
>
<path vector-effect="none" fill-rule="evenodd" d="M27.0469,81.1563 C36.0469,81.1563 42.0781,73.5156 42.0781,60.1875 C42.0781,46.9688 36.0469,39.4063 27.0469,39.4063 C17.9531,39.4063 12.0156,46.9688 12.0156,60.1875 C12.0156,73.5156 17.9531,81.1563 27.0469,81.1563 M27.0469,76.0313 C21.8281,76.0313 18.2344,70.7188 18.2344,60.1875 C18.2344,49.5781 21.8281,44.5313 27.0469,44.5313 C32.2656,44.5313 35.7813,49.5781 35.7813,60.1875 C35.7813,70.7188 32.2656,76.0313 27.0469,76.0313 M73.0313,107.984 C82.125,107.984 88.0625,100.328 88.0625,87.0156 C88.0625,73.7813 82.125,66.2188 73.0313,66.2188 C64.0313,66.2188 58.0938,73.7813 58.0938,87.0156 C58.0938,100.328 64.0313,107.984 73.0313,107.984 M73.0313,102.844 C67.8125,102.844 64.3125,97.5469 64.3125,87.0156 C64.3125,76.4844 67.8125,71.3594 73.0313,71.3594 C78.3438,71.3594 81.8594,76.4844 81.8594,87.0156 C81.8594,97.5469 78.3438,102.844 73.0313,102.844 M28.9375,107.984 L34.4219,107.984 L70.9688,39.4063 L65.4844,39.4063 L28.9375,107.984"/>
</g>
</g>
</svg>
