<?xml version="1.0" encoding="UTF-8" standalone="no"?>
<svg width="35.2778mm" height="45.8611mm"
 xmlns="http://www.w3.org/2000/svg" xmlns:xlink="http://www.w3.org/1999/xlink"  version="1.2" baseProfile="tiny">
<title>Qt SVG Document</title>
<desc>Generated with Qt</desc>
<defs>
</defs>
<g fill="none" stroke="black" stroke-width="1" fill-rule="evenodd" stroke-linecap="square" stroke-linejoin="bevel" >

<g fill="#c0c0c0" fill-opacity="1" stroke="none" transform="matrix(1,0,0,1,0,0)"
font-family="Noto Sans" font-size="10" font-weight="400" font-style="normal" 
>
<path vector-effect="none" fill-rule="evenodd" d="M1,6 C1,3.23858 3.23858,1 6,1 L95,1 C97.7614,1 100,3.23858 100,6 L100,125 C100,127.761 97.7614,130 95,130 L6,130 C3.23858,130 1,127.761 1,125 L1,6"/>
</g>

<g fill="none" stroke="#000000" stroke-opacity="1" stroke-width="2" stroke-linecap="square" stroke-linejoin="bevel" transform="matrix(1,0,0,1,0,0)"
font-family="Noto Sans" font-size="10" font-weight="400" font-style="normal" 
>
<path vector-effect="none" fill-rule="evenodd" d="M1,6 C1,3.23858 3.23858,1 6,1 L95,1 C97.7614,1 100,3.23858 100,6 L100,125 C100,127.761 97.7614,130 95,130 L6,130 C3.23858,130 1,127.761 1,125 L1,6"/>
</g>

<g fill="none" stroke="#000000" stroke-opacity="1" stroke-width="2" stroke-linecap="square" stroke-linejoin="bevel" transform="matrix(1,0,0,1,0,0)"
font-family="Noto Sans CJK JP" font-size="90" font-weight="400" font-style="normal" 
>
<path vector-effect="none" fill-rule="evenodd" d="M24.2656,107.891 L34.1563,107.891 L45.8594,68.1094 C47.2969,62.8906 48.4688,58.0313 49.8125,52.9063 L50.1719,52.9063 C51.4375,58.0313 52.6094,62.8906 54.0469,68.1094 L65.9219,107.891 L76,107.891 L92.2031,41.75 L84.2031,41.75 L75.5625,77.6563 C74.125,84.7656 72.6719,91.6875 71.0625,98.8906 L70.6094,98.8906 C68.625,91.6875 66.6406,84.6719 64.75,77.6563 L53.9531,41.75 L46.3906,41.75 L35.7813,77.5625 C33.7969,84.5781 31.9063,91.6875 30.0156,98.8906 L29.6563,98.8906 C27.9531,91.6875 26.2344,84.6719 24.7031,77.5625 L16.1563,41.75 L7.60938,41.75 L24.2656,107.891"/>
</g>

<g fill="#000000" fill-opacity="1" stroke="none" transform="matrix(1,0,0,1,0,0)"
font-family="Noto Sans CJK JP" font-size="90" font-weight="400" font-style="normal" 
>
<path vector-effect="none" fill-rule="evenodd" d="M24.2656,107.891 L34.1563,107.891 L45.8594,68.1094 C47.2969,62.8906 48.4688,58.0313 49.8125,52.9063 L50.1719,52.9063 C51.4375,58.0313 52.6094,62.8906 54.0469,68.1094 L65.9219,107.891 L76,107.891 L92.2031,41.75 L84.2031,41.75 L75.5625,77.6563 C74.125,84.7656 72.6719,91.6875 71.0625,98.8906 L70.6094,98.8906 C68.625,91.6875 66.6406,84.6719 64.75,77.6563 L53.9531,41.75 L46.3906,41.75 L35.7813,77.5625 C33.7969,84.5781 31.9063,91.6875 30.0156,98.8906 L29.6563,98.8906 C27.9531,91.6875 26.2344,84.6719 24.7031,77.5625 L16.1563,41.75 L7.60938,41.75 L24.2656,107.891"/>
</g>
</g>
</svg>
