<?xml version="1.0" encoding="UTF-8" standalone="no"?>
<svg width="35.2778mm" height="45.8611mm"
 xmlns="http://www.w3.org/2000/svg" xmlns:xlink="http://www.w3.org/1999/xlink"  version="1.2" baseProfile="tiny">
<title>Qt SVG Document</title>
<desc>Generated with Qt</desc>
<defs>
</defs>
<g fill="none" stroke="black" stroke-width="1" fill-rule="evenodd" stroke-linecap="square" stroke-linejoin="bevel" >

<g fill="#c0c0c0" fill-opacity="1" stroke="none" transform="matrix(1,0,0,1,0,0)"
font-family="Noto Sans" font-size="10" font-weight="400" font-style="normal" 
>
<path vector-effect="none" fill-rule="evenodd" d="M1,6 C1,3.23858 3.23858,1 6,1 L95,1 C97.7614,1 100,3.23858 100,6 L100,125 C100,127.761 97.7614,130 95,130 L6,130 C3.23858,130 1,127.761 1,125 L1,6"/>
</g>

<g fill="none" stroke="#000000" stroke-opacity="1" stroke-width="2" stroke-linecap="square" stroke-linejoin="bevel" transform="matrix(1,0,0,1,0,0)"
font-family="Noto Sans" font-size="10" font-weight="400" font-style="normal" 
>
<path vector-effect="none" fill-rule="evenodd" d="M1,6 C1,3.23858 3.23858,1 6,1 L95,1 C97.7614,1 100,3.23858 100,6 L100,125 C100,127.761 97.7614,130 95,130 L6,130 C3.23858,130 1,127.761 1,125 L1,6"/>
</g>

<g fill="none" stroke="#000000" stroke-opacity="1" stroke-width="2" stroke-linecap="square" stroke-linejoin="bevel" transform="matrix(1,0,0,1,0,0)"
font-family="Noto Sans CJK JP" font-size="90" font-weight="400" font-style="normal" 
>
<path vector-effect="none" fill-rule="evenodd" d="M78.4375,43.3594 C76.9063,43.7188 74.9219,43.9063 72.9531,43.9063 L28.8438,43.9063 C25.1563,43.9063 21.5625,43.4531 19.5781,43.2656 L19.5781,51.1094 C21.6563,51.0156 25.25,50.75 28.8438,50.75 L74.9219,50.75 C74.2031,55.875 73.125,61.7188 71.5938,67.2188 L29.9219,67.2188 C27.1406,67.2188 24.3438,67.0313 21.9219,66.7656 L21.9219,74.1406 C24.7031,73.9688 27.1406,73.7813 30.2031,73.7813 L69.3438,73.7813 C68.2656,76.6719 67,79.2813 65.5625,81.4375 C57.375,93.5156 44.6875,101.703 29.125,105.406 L34.9688,111.703 C52.7031,105.766 64.0313,96.9375 72.5,83.9688 C77.7188,75.7656 80.9531,61.4531 83.0313,50.2031 C83.2969,48.8594 83.8438,47.7656 84.2031,46.9688 L78.4375,43.3594"/>
</g>

<g fill="#000000" fill-opacity="1" stroke="none" transform="matrix(1,0,0,1,0,0)"
font-family="Noto Sans CJK JP" font-size="90" font-weight="400" font-style="normal" 
>
<path vector-effect="none" fill-rule="evenodd" d="M78.4375,43.3594 C76.9063,43.7188 74.9219,43.9063 72.9531,43.9063 L28.8438,43.9063 C25.1563,43.9063 21.5625,43.4531 19.5781,43.2656 L19.5781,51.1094 C21.6563,51.0156 25.25,50.75 28.8438,50.75 L74.9219,50.75 C74.2031,55.875 73.125,61.7188 71.5938,67.2188 L29.9219,67.2188 C27.1406,67.2188 24.3438,67.0313 21.9219,66.7656 L21.9219,74.1406 C24.7031,73.9688 27.1406,73.7813 30.2031,73.7813 L69.3438,73.7813 C68.2656,76.6719 67,79.2813 65.5625,81.4375 C57.375,93.5156 44.6875,101.703 29.125,105.406 L34.9688,111.703 C52.7031,105.766 64.0313,96.9375 72.5,83.9688 C77.7188,75.7656 80.9531,61.4531 83.0313,50.2031 C83.2969,48.8594 83.8438,47.7656 84.2031,46.9688 L78.4375,43.3594"/>
</g>
</g>
</svg>
