<?xml version="1.0" encoding="UTF-8" standalone="no"?>
<svg width="35.2778mm" height="45.8611mm"
 xmlns="http://www.w3.org/2000/svg" xmlns:xlink="http://www.w3.org/1999/xlink"  version="1.2" baseProfile="tiny">
<title>Qt SVG Document</title>
<desc>Generated with Qt</desc>
<defs>
</defs>
<g fill="none" stroke="black" stroke-width="1" fill-rule="evenodd" stroke-linecap="square" stroke-linejoin="bevel" >

<g fill="#c0c0c0" fill-opacity="1" stroke="none" transform="matrix(1,0,0,1,0,0)"
font-family="Noto Sans" font-size="10" font-weight="400" font-style="normal" 
>
<path vector-effect="none" fill-rule="evenodd" d="M1,6 C1,3.23858 3.23858,1 6,1 L95,1 C97.7614,1 100,3.23858 100,6 L100,125 C100,127.761 97.7614,130 95,130 L6,130 C3.23858,130 1,127.761 1,125 L1,6"/>
</g>

<g fill="none" stroke="#000000" stroke-opacity="1" stroke-width="2" stroke-linecap="square" stroke-linejoin="bevel" transform="matrix(1,0,0,1,0,0)"
font-family="Noto Sans" font-size="10" font-weight="400" font-style="normal" 
>
<path vector-effect="none" fill-rule="evenodd" d="M1,6 C1,3.23858 3.23858,1 6,1 L95,1 C97.7614,1 100,3.23858 100,6 L100,125 C100,127.761 97.7614,130 95,130 L6,130 C3.23858,130 1,127.761 1,125 L1,6"/>
</g>

<g fill="none" stroke="#000000" stroke-opacity="1" stroke-width="2" stroke-linecap="square" stroke-linejoin="bevel" transform="matrix(1,0,0,1,0,0)"
font-family="Noto Sans CJK JP" font-size="90" font-weight="400" font-style="normal" 
>
<path vector-effect="none" fill-rule="evenodd" d="M28.9375,93.6719 C27.0469,96.0938 25.6094,96.8281 23.5469,96.8281 C20.9219,96.8281 18.4063,94.6563 18.4063,90.875 C18.4063,83.3281 25.7031,75.6719 38.4844,74.5938 C35.4219,81.5156 32.0938,89.625 28.9375,93.6719 M89.9531,85.75 C87.0781,83.6875 83.4844,81.25 79.25,78.9063 C80.2344,73.6875 80.7813,68.0156 81.1406,61.625 L73.75,60.8281 C73.9375,63.7031 73.8438,66.5781 73.6719,69.0156 C73.4844,71.1719 73.3125,73.4219 72.9531,75.6719 C65.8438,72.25 57.6406,69.4688 48.7344,68.5625 C52.5156,60.1875 56.2969,51.1094 58.8125,47.1406 C59.4531,45.9688 60.25,45.1563 61.1563,44.1719 L56.5625,40.4844 C55.3906,40.9219 53.875,41.2969 52.25,41.4688 C48.4688,41.7344 36.7656,42.375 32.0938,42.375 C30.2031,42.375 27.5938,42.2813 25.3438,42.0156 L25.7031,49.5781 C27.7656,49.2188 30.2813,49.0313 32.2656,48.9375 C36.4063,48.6719 47.2031,48.2188 50.7188,47.9531 C47.9219,53.5313 44.6875,61.1875 41.4531,68.2031 C23.9844,68.6563 11.8438,78.7344 11.8438,91.875 C11.8438,99.3438 16.875,104.109 23.4531,104.109 C28.0469,104.109 31.5469,102.406 34.7031,97.9063 C38.125,92.9531 42.5313,82.5156 45.9531,74.6875 C55.2188,75.4844 63.8594,78.6406 71.3281,82.6875 C68.4531,92.4063 62.1406,101.953 48.0156,107.906 L53.9531,112.875 C66.9219,106.375 73.75,97.9063 77.4531,86.2969 C80.8594,88.5469 84.0156,90.9688 86.7188,93.3125 L89.9531,85.75"/>
</g>

<g fill="#000000" fill-opacity="1" stroke="none" transform="matrix(1,0,0,1,0,0)"
font-family="Noto Sans CJK JP" font-size="90" font-weight="400" font-style="normal" 
>
<path vector-effect="none" fill-rule="evenodd" d="M28.9375,93.6719 C27.0469,96.0938 25.6094,96.8281 23.5469,96.8281 C20.9219,96.8281 18.4063,94.6563 18.4063,90.875 C18.4063,83.3281 25.7031,75.6719 38.4844,74.5938 C35.4219,81.5156 32.0938,89.625 28.9375,93.6719 M89.9531,85.75 C87.0781,83.6875 83.4844,81.25 79.25,78.9063 C80.2344,73.6875 80.7813,68.0156 81.1406,61.625 L73.75,60.8281 C73.9375,63.7031 73.8438,66.5781 73.6719,69.0156 C73.4844,71.1719 73.3125,73.4219 72.9531,75.6719 C65.8438,72.25 57.6406,69.4688 48.7344,68.5625 C52.5156,60.1875 56.2969,51.1094 58.8125,47.1406 C59.4531,45.9688 60.25,45.1563 61.1563,44.1719 L56.5625,40.4844 C55.3906,40.9219 53.875,41.2969 52.25,41.4688 C48.4688,41.7344 36.7656,42.375 32.0938,42.375 C30.2031,42.375 27.5938,42.2813 25.3438,42.0156 L25.7031,49.5781 C27.7656,49.2188 30.2813,49.0313 32.2656,48.9375 C36.4063,48.6719 47.2031,48.2188 50.7188,47.9531 C47.9219,53.5313 44.6875,61.1875 41.4531,68.2031 C23.9844,68.6563 11.8438,78.7344 11.8438,91.875 C11.8438,99.3438 16.875,104.109 23.4531,104.109 C28.0469,104.109 31.5469,102.406 34.7031,97.9063 C38.125,92.9531 42.5313,82.5156 45.9531,74.6875 C55.2188,75.4844 63.8594,78.6406 71.3281,82.6875 C68.4531,92.4063 62.1406,101.953 48.0156,107.906 L53.9531,112.875 C66.9219,106.375 73.75,97.9063 77.4531,86.2969 C80.8594,88.5469 84.0156,90.9688 86.7188,93.3125 L89.9531,85.75"/>
</g>
</g>
</svg>
