<?xml version="1.0" encoding="UTF-8" standalone="no"?>
<svg width="35.2778mm" height="45.8611mm"
 xmlns="http://www.w3.org/2000/svg" xmlns:xlink="http://www.w3.org/1999/xlink"  version="1.2" baseProfile="tiny">
<title>Qt SVG Document</title>
<desc>Generated with Qt</desc>
<defs>
</defs>
<g fill="none" stroke="black" stroke-width="1" fill-rule="evenodd" stroke-linecap="square" stroke-linejoin="bevel" >

<g fill="#c0c0c0" fill-opacity="1" stroke="none" transform="matrix(1,0,0,1,0,0)"
font-family="Noto Sans" font-size="10" font-weight="400" font-style="normal" 
>
<path vector-effect="none" fill-rule="evenodd" d="M1,6 C1,3.23858 3.23858,1 6,1 L95,1 C97.7614,1 100,3.23858 100,6 L100,125 C100,127.761 97.7614,130 95,130 L6,130 C3.23858,130 1,127.761 1,125 L1,6"/>
</g>

<g fill="none" stroke="#000000" stroke-opacity="1" stroke-width="2" stroke-linecap="square" stroke-linejoin="bevel" transform="matrix(1,0,0,1,0,0)"
font-family="Noto Sans" font-size="10" font-weight="400" font-style="normal" 
>
<path vector-effect="none" fill-rule="evenodd" d="M1,6 C1,3.23858 3.23858,1 6,1 L95,1 C97.7614,1 100,3.23858 100,6 L100,125 C100,127.761 97.7614,130 95,130 L6,130 C3.23858,130 1,127.761 1,125 L1,6"/>
</g>

<g fill="none" stroke="#000000" stroke-opacity="1" stroke-width="2" stroke-linecap="square" stroke-linejoin="bevel" transform="matrix(1,0,0,1,0,0)"
font-family="Noto Sans CJK JP" font-size="90" font-weight="400" font-style="normal" 
>
<path vector-effect="none" fill-rule="evenodd" d="M74.6563,112.953 C74.5625,111.688 74.4844,109.516 74.4844,108.078 L74.4844,63.25 C74.4844,61.5469 74.4844,59.6563 74.5625,58.6563 C73.3906,58.75 71.0625,58.8438 69.0781,58.8438 L34.25,58.8438 C31.9063,58.8438 26.7813,58.6563 25.0625,58.4844 L25.0625,65.5 C26.6875,65.4063 31.9063,65.2344 34.25,65.2344 L67.6406,65.2344 L67.6406,80.2656 L35.0625,80.2656 C32,80.2656 28.7656,79.9844 27.0469,79.9063 L27.0469,86.8281 C28.8438,86.7344 32,86.6563 35.1563,86.6563 L67.6406,86.6563 L67.6406,102.672 L31.375,102.672 C28.3125,102.672 25.4219,102.484 23.9844,102.313 L23.9844,109.516 C25.4219,109.422 28.5781,109.234 31.375,109.234 L67.6406,109.234 C67.6406,110.688 67.6406,112.141 67.5469,112.953 L74.6563,112.953"/>
</g>

<g fill="#000000" fill-opacity="1" stroke="none" transform="matrix(1,0,0,1,0,0)"
font-family="Noto Sans CJK JP" font-size="90" font-weight="400" font-style="normal" 
>
<path vector-effect="none" fill-rule="evenodd" d="M74.6563,112.953 C74.5625,111.688 74.4844,109.516 74.4844,108.078 L74.4844,63.25 C74.4844,61.5469 74.4844,59.6563 74.5625,58.6563 C73.3906,58.75 71.0625,58.8438 69.0781,58.8438 L34.25,58.8438 C31.9063,58.8438 26.7813,58.6563 25.0625,58.4844 L25.0625,65.5 C26.6875,65.4063 31.9063,65.2344 34.25,65.2344 L67.6406,65.2344 L67.6406,80.2656 L35.0625,80.2656 C32,80.2656 28.7656,79.9844 27.0469,79.9063 L27.0469,86.8281 C28.8438,86.7344 32,86.6563 35.1563,86.6563 L67.6406,86.6563 L67.6406,102.672 L31.375,102.672 C28.3125,102.672 25.4219,102.484 23.9844,102.313 L23.9844,109.516 C25.4219,109.422 28.5781,109.234 31.375,109.234 L67.6406,109.234 C67.6406,110.688 67.6406,112.141 67.5469,112.953 L74.6563,112.953"/>
</g>
</g>
</svg>
