<?xml version="1.0" encoding="UTF-8" standalone="no"?>
<svg width="35.2778mm" height="45.8611mm"
 xmlns="http://www.w3.org/2000/svg" xmlns:xlink="http://www.w3.org/1999/xlink"  version="1.2" baseProfile="tiny">
<title>Qt SVG Document</title>
<desc>Generated with Qt</desc>
<defs>
</defs>
<g fill="none" stroke="black" stroke-width="1" fill-rule="evenodd" stroke-linecap="square" stroke-linejoin="bevel" >

<g fill="#c0c0c0" fill-opacity="1" stroke="none" transform="matrix(1,0,0,1,0,0)"
font-family="Noto Sans" font-size="10" font-weight="400" font-style="normal" 
>
<path vector-effect="none" fill-rule="evenodd" d="M1,6 C1,3.23858 3.23858,1 6,1 L95,1 C97.7614,1 100,3.23858 100,6 L100,125 C100,127.761 97.7614,130 95,130 L6,130 C3.23858,130 1,127.761 1,125 L1,6"/>
</g>

<g fill="none" stroke="#000000" stroke-opacity="1" stroke-width="2" stroke-linecap="square" stroke-linejoin="bevel" transform="matrix(1,0,0,1,0,0)"
font-family="Noto Sans" font-size="10" font-weight="400" font-style="normal" 
>
<path vector-effect="none" fill-rule="evenodd" d="M1,6 C1,3.23858 3.23858,1 6,1 L95,1 C97.7614,1 100,3.23858 100,6 L100,125 C100,127.761 97.7614,130 95,130 L6,130 C3.23858,130 1,127.761 1,125 L1,6"/>
</g>

<g fill="none" stroke="#000000" stroke-opacity="1" stroke-width="2" stroke-linecap="square" stroke-linejoin="bevel" transform="matrix(1,0,0,1,0,0)"
font-family="Noto Sans CJK JP" font-size="90" font-weight="400" font-style="normal" 
>
<path vector-effect="none" fill-rule="evenodd" d="M48.2031,86.8281 C43.25,86.8281 39.1094,83.5938 39.1094,78.0156 C39.1094,72.25 43.5156,68.6563 48.1094,68.6563 C51.625,68.6563 54.5938,70.2656 56.0313,74.1406 C56.8438,82.6094 53.4219,86.8281 48.2031,86.8281 M61.9688,54.6094 C75.0156,54.6094 83.1094,54.7969 88.1563,55.0625 L88.25,48.3125 C83.9219,48.3125 72.9531,48.2188 62.1406,48.2188 L60.7969,48.2188 C60.7969,45.875 60.8906,43.7969 60.8906,42.4531 L61.3438,36.8594 L53.1406,36.8594 C53.3281,37.9375 53.5938,40.5625 53.6875,42.4531 C53.7813,43.7188 53.875,45.7813 53.875,48.3125 C40.6406,48.5 23.9063,49.0313 14,49.2188 L14.1719,56.2344 C25.3438,55.4219 40.4531,54.7969 53.9531,54.7031 C54.0469,57.7656 54.0469,60.9063 54.0469,63.5156 C52.25,62.8906 50.2656,62.5313 48.1094,62.5313 C39.6563,62.5313 32.3594,69.2813 32.3594,78.1094 C32.3594,87.7344 39.5625,93.0469 47.125,93.0469 C50.0938,93.0469 52.6094,92.3281 54.7656,90.7969 C51.0781,98.7188 42.7969,103.594 31.0938,106.297 L37.3125,112.328 C58.0156,106.109 63.8594,92.6875 63.8594,80.625 C63.8594,76.2188 62.875,72.25 60.9844,69.1875 C60.8906,65.1406 60.7969,59.6563 60.7969,54.6094 L61.9688,54.6094"/>
</g>

<g fill="#000000" fill-opacity="1" stroke="none" transform="matrix(1,0,0,1,0,0)"
font-family="Noto Sans CJK JP" font-size="90" font-weight="400" font-style="normal" 
>
<path vector-effect="none" fill-rule="evenodd" d="M48.2031,86.8281 C43.25,86.8281 39.1094,83.5938 39.1094,78.0156 C39.1094,72.25 43.5156,68.6563 48.1094,68.6563 C51.625,68.6563 54.5938,70.2656 56.0313,74.1406 C56.8438,82.6094 53.4219,86.8281 48.2031,86.8281 M61.9688,54.6094 C75.0156,54.6094 83.1094,54.7969 88.1563,55.0625 L88.25,48.3125 C83.9219,48.3125 72.9531,48.2188 62.1406,48.2188 L60.7969,48.2188 C60.7969,45.875 60.8906,43.7969 60.8906,42.4531 L61.3438,36.8594 L53.1406,36.8594 C53.3281,37.9375 53.5938,40.5625 53.6875,42.4531 C53.7813,43.7188 53.875,45.7813 53.875,48.3125 C40.6406,48.5 23.9063,49.0313 14,49.2188 L14.1719,56.2344 C25.3438,55.4219 40.4531,54.7969 53.9531,54.7031 C54.0469,57.7656 54.0469,60.9063 54.0469,63.5156 C52.25,62.8906 50.2656,62.5313 48.1094,62.5313 C39.6563,62.5313 32.3594,69.2813 32.3594,78.1094 C32.3594,87.7344 39.5625,93.0469 47.125,93.0469 C50.0938,93.0469 52.6094,92.3281 54.7656,90.7969 C51.0781,98.7188 42.7969,103.594 31.0938,106.297 L37.3125,112.328 C58.0156,106.109 63.8594,92.6875 63.8594,80.625 C63.8594,76.2188 62.875,72.25 60.9844,69.1875 C60.8906,65.1406 60.7969,59.6563 60.7969,54.6094 L61.9688,54.6094"/>
</g>
</g>
</svg>
