<?xml version="1.0" encoding="UTF-8" standalone="no"?>
<svg width="35.2778mm" height="45.8611mm"
 xmlns="http://www.w3.org/2000/svg" xmlns:xlink="http://www.w3.org/1999/xlink"  version="1.2" baseProfile="tiny">
<title>Qt SVG Document</title>
<desc>Generated with Qt</desc>
<defs>
</defs>
<g fill="none" stroke="black" stroke-width="1" fill-rule="evenodd" stroke-linecap="square" stroke-linejoin="bevel" >

<g fill="#c0c0c0" fill-opacity="1" stroke="none" transform="matrix(1,0,0,1,0,0)"
font-family="Noto Sans" font-size="10" font-weight="400" font-style="normal" 
>
<path vector-effect="none" fill-rule="evenodd" d="M1,6 C1,3.23858 3.23858,1 6,1 L95,1 C97.7614,1 100,3.23858 100,6 L100,125 C100,127.761 97.7614,130 95,130 L6,130 C3.23858,130 1,127.761 1,125 L1,6"/>
</g>

<g fill="none" stroke="#000000" stroke-opacity="1" stroke-width="2" stroke-linecap="square" stroke-linejoin="bevel" transform="matrix(1,0,0,1,0,0)"
font-family="Noto Sans" font-size="10" font-weight="400" font-style="normal" 
>
<path vector-effect="none" fill-rule="evenodd" d="M1,6 C1,3.23858 3.23858,1 6,1 L95,1 C97.7614,1 100,3.23858 100,6 L100,125 C100,127.761 97.7614,130 95,130 L6,130 C3.23858,130 1,127.761 1,125 L1,6"/>
</g>

<g fill="none" stroke="#000000" stroke-opacity="1" stroke-width="2" stroke-linecap="square" stroke-linejoin="bevel" transform="matrix(1,0,0,1,0,0)"
font-family="Noto Sans CJK JP" font-size="90" font-weight="400" font-style="normal" 
>
<path vector-effect="none" fill-rule="evenodd" d="M25.6094,79.3594 C22.5469,86.8281 17.5156,96.2813 11.75,103.844 L19.4063,107.078 C24.4375,99.7969 29.3906,90.6094 32.7188,82.3281 C36.5,73.0625 39.6563,59.75 40.8125,54.1563 C41.2656,52.2656 41.9063,49.6563 42.5313,47.5938 L34.5156,45.9688 C33.2656,56.3281 29.5625,70 25.6094,79.3594 M69.9844,75.9375 C73.6719,85.4844 77.8906,97.7188 80.1406,106.906 L88.1563,104.297 C85.7344,96.1875 80.9531,82.3281 77.3594,73.5156 C73.4844,63.9688 67.7344,51.5469 64.2188,44.9844 L56.9219,47.4063 C60.7969,54.1563 66.375,66.6719 69.9844,75.9375 "/>
</g>

<g fill="#000000" fill-opacity="1" stroke="none" transform="matrix(1,0,0,1,0,0)"
font-family="Noto Sans CJK JP" font-size="90" font-weight="400" font-style="normal" 
>
<path vector-effect="none" fill-rule="evenodd" d="M25.6094,79.3594 C22.5469,86.8281 17.5156,96.2813 11.75,103.844 L19.4063,107.078 C24.4375,99.7969 29.3906,90.6094 32.7188,82.3281 C36.5,73.0625 39.6563,59.75 40.8125,54.1563 C41.2656,52.2656 41.9063,49.6563 42.5313,47.5938 L34.5156,45.9688 C33.2656,56.3281 29.5625,70 25.6094,79.3594 M69.9844,75.9375 C73.6719,85.4844 77.8906,97.7188 80.1406,106.906 L88.1563,104.297 C85.7344,96.1875 80.9531,82.3281 77.3594,73.5156 C73.4844,63.9688 67.7344,51.5469 64.2188,44.9844 L56.9219,47.4063 C60.7969,54.1563 66.375,66.6719 69.9844,75.9375 "/>
</g>
</g>
</svg>
