<?xml version="1.0" encoding="UTF-8" standalone="no"?>
<svg width="35.2778mm" height="45.8611mm"
 xmlns="http://www.w3.org/2000/svg" xmlns:xlink="http://www.w3.org/1999/xlink"  version="1.2" baseProfile="tiny">
<title>Qt SVG Document</title>
<desc>Generated with Qt</desc>
<defs>
</defs>
<g fill="none" stroke="black" stroke-width="1" fill-rule="evenodd" stroke-linecap="square" stroke-linejoin="bevel" >

<g fill="#c0c0c0" fill-opacity="1" stroke="none" transform="matrix(1,0,0,1,0,0)"
font-family="Noto Sans" font-size="10" font-weight="400" font-style="normal" 
>
<path vector-effect="none" fill-rule="evenodd" d="M1,6 C1,3.23858 3.23858,1 6,1 L95,1 C97.7614,1 100,3.23858 100,6 L100,125 C100,127.761 97.7614,130 95,130 L6,130 C3.23858,130 1,127.761 1,125 L1,6"/>
</g>

<g fill="none" stroke="#000000" stroke-opacity="1" stroke-width="2" stroke-linecap="square" stroke-linejoin="bevel" transform="matrix(1,0,0,1,0,0)"
font-family="Noto Sans" font-size="10" font-weight="400" font-style="normal" 
>
<path vector-effect="none" fill-rule="evenodd" d="M1,6 C1,3.23858 3.23858,1 6,1 L95,1 C97.7614,1 100,3.23858 100,6 L100,125 C100,127.761 97.7614,130 95,130 L6,130 C3.23858,130 1,127.761 1,125 L1,6"/>
</g>

<g fill="none" stroke="#000000" stroke-opacity="1" stroke-width="2" stroke-linecap="square" stroke-linejoin="bevel" transform="matrix(1,0,0,1,0,0)"
font-family="Noto Sans CJK JP" font-size="90" font-weight="400" font-style="normal" 
>
<path vector-effect="none" fill-rule="evenodd" d="M40.5469,88.7188 C40.5469,100.875 45.2344,108.969 59.4531,108.969 C64.6719,108.969 70.3438,107.703 74.75,106.188 L72.9531,100.156 C69.5313,101.406 65.75,102.313 61.1563,102.313 C51.7031,102.313 48.7344,97.7188 48.7344,88.9063 L48.7344,65.5938 L72.8594,65.5938 L72.8594,58.9375 L48.7344,58.9375 L48.7344,45.1563 L41.9063,45.1563 L40.9063,58.9375 L26.6875,59.375 L26.6875,65.5938 L40.5469,65.5938 L40.5469,88.7188"/>
</g>

<g fill="#000000" fill-opacity="1" stroke="none" transform="matrix(1,0,0,1,0,0)"
font-family="Noto Sans CJK JP" font-size="90" font-weight="400" font-style="normal" 
>
<path vector-effect="none" fill-rule="evenodd" d="M40.5469,88.7188 C40.5469,100.875 45.2344,108.969 59.4531,108.969 C64.6719,108.969 70.3438,107.703 74.75,106.188 L72.9531,100.156 C69.5313,101.406 65.75,102.313 61.1563,102.313 C51.7031,102.313 48.7344,97.7188 48.7344,88.9063 L48.7344,65.5938 L72.8594,65.5938 L72.8594,58.9375 L48.7344,58.9375 L48.7344,45.1563 L41.9063,45.1563 L40.9063,58.9375 L26.6875,59.375 L26.6875,65.5938 L40.5469,65.5938 L40.5469,88.7188"/>
</g>
</g>
</svg>
