<?xml version="1.0" encoding="UTF-8" standalone="no"?>
<svg width="35.2778mm" height="45.8611mm"
 xmlns="http://www.w3.org/2000/svg" xmlns:xlink="http://www.w3.org/1999/xlink"  version="1.2" baseProfile="tiny">
<title>Qt SVG Document</title>
<desc>Generated with Qt</desc>
<defs>
</defs>
<g fill="none" stroke="black" stroke-width="1" fill-rule="evenodd" stroke-linecap="square" stroke-linejoin="bevel" >

<g fill="#c0c0c0" fill-opacity="1" stroke="none" transform="matrix(1,0,0,1,0,0)"
font-family="Noto Sans" font-size="10" font-weight="400" font-style="normal" 
>
<path vector-effect="none" fill-rule="evenodd" d="M1,6 C1,3.23858 3.23858,1 6,1 L95,1 C97.7614,1 100,3.23858 100,6 L100,125 C100,127.761 97.7614,130 95,130 L6,130 C3.23858,130 1,127.761 1,125 L1,6"/>
</g>

<g fill="none" stroke="#000000" stroke-opacity="1" stroke-width="2" stroke-linecap="square" stroke-linejoin="bevel" transform="matrix(1,0,0,1,0,0)"
font-family="Noto Sans" font-size="10" font-weight="400" font-style="normal" 
>
<path vector-effect="none" fill-rule="evenodd" d="M1,6 C1,3.23858 3.23858,1 6,1 L95,1 C97.7614,1 100,3.23858 100,6 L100,125 C100,127.761 97.7614,130 95,130 L6,130 C3.23858,130 1,127.761 1,125 L1,6"/>
</g>

<g fill="none" stroke="#000000" stroke-opacity="1" stroke-width="2" stroke-linecap="square" stroke-linejoin="bevel" transform="matrix(1,0,0,1,0,0)"
font-family="Noto Sans CJK JP" font-size="90" font-weight="400" font-style="normal" 
>
<path vector-effect="none" fill-rule="evenodd" d="M28.9375,56.5938 L51.7031,56.5938 L51.7031,100.781 C51.7031,109.063 49.0156,114.094 39.2813,114.094 C35.5938,114.094 31.5469,113.109 28.0469,111.313 L25.4219,117.516 C29.2031,119.406 34.25,120.766 39.2813,120.766 C55.125,120.766 59.8906,112.203 59.8906,100.234 L59.8906,49.9375 L28.9375,49.9375 L28.9375,56.5938 M55.0313,39.8594 C58.6406,39.8594 61.3438,37.4219 61.3438,33.8281 C61.3438,30.1406 58.6406,27.7031 55.0313,27.7031 C51.4375,27.7031 48.8281,30.1406 48.8281,33.8281 C48.8281,37.4219 51.4375,39.8594 55.0313,39.8594 "/>
</g>

<g fill="#000000" fill-opacity="1" stroke="none" transform="matrix(1,0,0,1,0,0)"
font-family="Noto Sans CJK JP" font-size="90" font-weight="400" font-style="normal" 
>
<path vector-effect="none" fill-rule="evenodd" d="M28.9375,56.5938 L51.7031,56.5938 L51.7031,100.781 C51.7031,109.063 49.0156,114.094 39.2813,114.094 C35.5938,114.094 31.5469,113.109 28.0469,111.313 L25.4219,117.516 C29.2031,119.406 34.25,120.766 39.2813,120.766 C55.125,120.766 59.8906,112.203 59.8906,100.234 L59.8906,49.9375 L28.9375,49.9375 L28.9375,56.5938 M55.0313,39.8594 C58.6406,39.8594 61.3438,37.4219 61.3438,33.8281 C61.3438,30.1406 58.6406,27.7031 55.0313,27.7031 C51.4375,27.7031 48.8281,30.1406 48.8281,33.8281 C48.8281,37.4219 51.4375,39.8594 55.0313,39.8594 "/>
</g>
</g>
</svg>
