<?xml version="1.0" encoding="UTF-8" standalone="no"?>
<svg width="35.2778mm" height="45.8611mm"
 xmlns="http://www.w3.org/2000/svg" xmlns:xlink="http://www.w3.org/1999/xlink"  version="1.2" baseProfile="tiny">
<title>Qt SVG Document</title>
<desc>Generated with Qt</desc>
<defs>
</defs>
<g fill="none" stroke="black" stroke-width="1" fill-rule="evenodd" stroke-linecap="square" stroke-linejoin="bevel" >

<g fill="#c0c0c0" fill-opacity="1" stroke="none" transform="matrix(1,0,0,1,0,0)"
font-family="Noto Sans" font-size="10" font-weight="400" font-style="normal" 
>
<path vector-effect="none" fill-rule="evenodd" d="M1,6 C1,3.23858 3.23858,1 6,1 L95,1 C97.7614,1 100,3.23858 100,6 L100,125 C100,127.761 97.7614,130 95,130 L6,130 C3.23858,130 1,127.761 1,125 L1,6"/>
</g>

<g fill="none" stroke="#000000" stroke-opacity="1" stroke-width="2" stroke-linecap="square" stroke-linejoin="bevel" transform="matrix(1,0,0,1,0,0)"
font-family="Noto Sans" font-size="10" font-weight="400" font-style="normal" 
>
<path vector-effect="none" fill-rule="evenodd" d="M1,6 C1,3.23858 3.23858,1 6,1 L95,1 C97.7614,1 100,3.23858 100,6 L100,125 C100,127.761 97.7614,130 95,130 L6,130 C3.23858,130 1,127.761 1,125 L1,6"/>
</g>

<g fill="none" stroke="#000000" stroke-opacity="1" stroke-width="2" stroke-linecap="square" stroke-linejoin="bevel" transform="matrix(1,0,0,1,0,0)"
font-family="Noto Sans CJK JP" font-size="90" font-weight="400" font-style="normal" 
>
<path vector-effect="none" fill-rule="evenodd" d="M34.3438,34.4219 C28.7656,48.2031 18.7656,60.6406 7.4375,68.2031 C9.04688,69.4688 11.9375,71.9844 13.0938,73.4219 C24.4375,64.9688 34.875,51.5313 41.3594,36.3906 L34.3438,34.4219 M22.0156,66.4063 L22.0156,72.875 L40.375,72.875 C38.2969,88 33.3438,102.313 12.2031,109.328 C13.7344,110.766 15.625,113.469 16.5156,115.188 C39.375,106.906 45.1406,90.6094 47.4844,72.875 L70.7031,72.875 C69.625,95.5625 68.3594,104.563 66.0156,106.813 C65.2031,107.797 64.125,107.984 62.2344,107.984 C60.1719,107.984 54.5938,107.891 48.7344,107.344 C50,109.328 50.8125,112.031 50.9844,114.016 C56.5625,114.281 62.1406,114.469 65.125,114.188 C68.2656,113.828 70.1563,113.297 72.0469,111.047 C75.1094,107.625 76.4531,97.2656 77.7188,69.6406 C77.8125,68.75 77.8906,66.4063 77.8906,66.4063 L22.0156,66.4063 M59.0938,36.7656 C65.75,50.0938 77.0938,64.5938 86.9844,72.6094 C88.25,70.7188 90.7656,68.1094 92.4688,66.6719 C82.75,59.8281 71.2344,46.3125 65.3906,34.2344 L59.0938,36.7656"/>
</g>

<g fill="#000000" fill-opacity="1" stroke="none" transform="matrix(1,0,0,1,0,0)"
font-family="Noto Sans CJK JP" font-size="90" font-weight="400" font-style="normal" 
>
<path vector-effect="none" fill-rule="evenodd" d="M34.3438,34.4219 C28.7656,48.2031 18.7656,60.6406 7.4375,68.2031 C9.04688,69.4688 11.9375,71.9844 13.0938,73.4219 C24.4375,64.9688 34.875,51.5313 41.3594,36.3906 L34.3438,34.4219 M22.0156,66.4063 L22.0156,72.875 L40.375,72.875 C38.2969,88 33.3438,102.313 12.2031,109.328 C13.7344,110.766 15.625,113.469 16.5156,115.188 C39.375,106.906 45.1406,90.6094 47.4844,72.875 L70.7031,72.875 C69.625,95.5625 68.3594,104.563 66.0156,106.813 C65.2031,107.797 64.125,107.984 62.2344,107.984 C60.1719,107.984 54.5938,107.891 48.7344,107.344 C50,109.328 50.8125,112.031 50.9844,114.016 C56.5625,114.281 62.1406,114.469 65.125,114.188 C68.2656,113.828 70.1563,113.297 72.0469,111.047 C75.1094,107.625 76.4531,97.2656 77.7188,69.6406 C77.8125,68.75 77.8906,66.4063 77.8906,66.4063 L22.0156,66.4063 M59.0938,36.7656 C65.75,50.0938 77.0938,64.5938 86.9844,72.6094 C88.25,70.7188 90.7656,68.1094 92.4688,66.6719 C82.75,59.8281 71.2344,46.3125 65.3906,34.2344 L59.0938,36.7656"/>
</g>
</g>
</svg>
