<?xml version="1.0" encoding="UTF-8" standalone="no"?>
<svg width="35.2778mm" height="45.8611mm"
 xmlns="http://www.w3.org/2000/svg" xmlns:xlink="http://www.w3.org/1999/xlink"  version="1.2" baseProfile="tiny">
<title>Qt SVG Document</title>
<desc>Generated with Qt</desc>
<defs>
</defs>
<g fill="none" stroke="black" stroke-width="1" fill-rule="evenodd" stroke-linecap="square" stroke-linejoin="bevel" >

<g fill="#c0c0c0" fill-opacity="1" stroke="none" transform="matrix(1,0,0,1,0,0)"
font-family="Noto Sans" font-size="10" font-weight="400" font-style="normal" 
>
<path vector-effect="none" fill-rule="evenodd" d="M1,6 C1,3.23858 3.23858,1 6,1 L95,1 C97.7614,1 100,3.23858 100,6 L100,125 C100,127.761 97.7614,130 95,130 L6,130 C3.23858,130 1,127.761 1,125 L1,6"/>
</g>

<g fill="none" stroke="#000000" stroke-opacity="1" stroke-width="2" stroke-linecap="square" stroke-linejoin="bevel" transform="matrix(1,0,0,1,0,0)"
font-family="Noto Sans" font-size="10" font-weight="400" font-style="normal" 
>
<path vector-effect="none" fill-rule="evenodd" d="M1,6 C1,3.23858 3.23858,1 6,1 L95,1 C97.7614,1 100,3.23858 100,6 L100,125 C100,127.761 97.7614,130 95,130 L6,130 C3.23858,130 1,127.761 1,125 L1,6"/>
</g>

<g fill="none" stroke="#000000" stroke-opacity="1" stroke-width="2" stroke-linecap="square" stroke-linejoin="bevel" transform="matrix(1,0,0,1,0,0)"
font-family="Noto Sans CJK JP" font-size="90" font-weight="400" font-style="normal" 
>
<path vector-effect="none" fill-rule="evenodd" d="M79.5156,50.2031 C78.3438,50.6563 76.6406,50.9219 73.3125,50.9219 L53.1406,50.9219 L53.1406,42.5313 C53.1406,40.6406 53.2344,38.5625 53.6875,35.7813 L45.0469,35.7813 C45.4063,38.5625 45.5,40.6406 45.5,42.5313 L45.5,50.9219 L25.6094,50.9219 C22.4531,50.9219 19.8438,50.8281 17.2344,50.5625 C17.5156,52.5469 17.5156,55.6094 17.5156,57.5 L17.5156,73.3438 C17.5156,75.0625 17.4219,77.4844 17.2344,79.0156 L25.0625,79.0156 C24.7969,77.6719 24.7031,75.3281 24.7031,73.7031 L24.7031,57.5781 L75.0156,57.5781 C74.2031,65.3281 71.3281,76.2188 66.4688,83.875 C60.9844,92.4375 51.0781,99.1094 42.0781,101.984 C39.2031,103.063 35.7813,104.063 32.7188,104.5 L38.5625,111.266 C55.0313,106.75 67.4531,97.5781 74.2031,85.6875 C79.25,77.125 81.8594,65.875 83.0313,58.6563 C83.3906,56.9531 83.9219,54.6094 84.375,53.2656 L79.5156,50.2031"/>
</g>

<g fill="#000000" fill-opacity="1" stroke="none" transform="matrix(1,0,0,1,0,0)"
font-family="Noto Sans CJK JP" font-size="90" font-weight="400" font-style="normal" 
>
<path vector-effect="none" fill-rule="evenodd" d="M79.5156,50.2031 C78.3438,50.6563 76.6406,50.9219 73.3125,50.9219 L53.1406,50.9219 L53.1406,42.5313 C53.1406,40.6406 53.2344,38.5625 53.6875,35.7813 L45.0469,35.7813 C45.4063,38.5625 45.5,40.6406 45.5,42.5313 L45.5,50.9219 L25.6094,50.9219 C22.4531,50.9219 19.8438,50.8281 17.2344,50.5625 C17.5156,52.5469 17.5156,55.6094 17.5156,57.5 L17.5156,73.3438 C17.5156,75.0625 17.4219,77.4844 17.2344,79.0156 L25.0625,79.0156 C24.7969,77.6719 24.7031,75.3281 24.7031,73.7031 L24.7031,57.5781 L75.0156,57.5781 C74.2031,65.3281 71.3281,76.2188 66.4688,83.875 C60.9844,92.4375 51.0781,99.1094 42.0781,101.984 C39.2031,103.063 35.7813,104.063 32.7188,104.5 L38.5625,111.266 C55.0313,106.75 67.4531,97.5781 74.2031,85.6875 C79.25,77.125 81.8594,65.875 83.0313,58.6563 C83.3906,56.9531 83.9219,54.6094 84.375,53.2656 L79.5156,50.2031"/>
</g>
</g>
</svg>
