<?xml version="1.0" encoding="UTF-8" standalone="no"?>
<svg width="70.5556mm" height="45.8611mm"
 xmlns="http://www.w3.org/2000/svg" xmlns:xlink="http://www.w3.org/1999/xlink"  version="1.2" baseProfile="tiny">
<title>Qt SVG Document</title>
<desc>Generated with Qt</desc>
<defs>
</defs>
<g fill="none" stroke="black" stroke-width="1" fill-rule="evenodd" stroke-linecap="square" stroke-linejoin="bevel" >

<g fill="#808080" fill-opacity="1" stroke="none" transform="matrix(1,0,0,1,0,0)"
font-family="Noto Sans" font-size="10" font-weight="400" font-style="normal" 
>
<path vector-effect="none" fill-rule="evenodd" d="M1,6 C1,3.23858 3.23858,1 6,1 L195,1 C197.761,1 200,3.23858 200,6 L200,125 C200,127.761 197.761,130 195,130 L6,130 C3.23858,130 1,127.761 1,125 L1,6"/>
</g>

<g fill="none" stroke="#000000" stroke-opacity="1" stroke-width="2" stroke-linecap="square" stroke-linejoin="bevel" transform="matrix(1,0,0,1,0,0)"
font-family="Noto Sans" font-size="10" font-weight="400" font-style="normal" 
>
<path vector-effect="none" fill-rule="evenodd" d="M1,6 C1,3.23858 3.23858,1 6,1 L195,1 C197.761,1 200,3.23858 200,6 L200,125 C200,127.761 197.761,130 195,130 L6,130 C3.23858,130 1,127.761 1,125 L1,6"/>
</g>

<g fill="none" stroke="#000000" stroke-opacity="1" stroke-width="2" stroke-linecap="square" stroke-linejoin="bevel" transform="matrix(1,0,0,1,0,0)"
font-family="Noto Sans CJK JP" font-size="90" font-weight="400" font-style="normal" 
>
<path vector-effect="none" fill-rule="evenodd" d="M23.4844,101.391 L31.7656,101.391 L31.7656,71.875 L60.2031,71.875 L60.2031,64.7656 L31.7656,64.7656 L31.7656,42.3594 L66.875,42.3594 L66.875,35.25 L23.4844,35.25 L23.4844,101.391 M94.5781,101.391 L130.75,101.391 L130.75,94.5469 L117.531,94.5469 L117.531,35.4219 L111.219,35.4219 C107.625,37.5 103.391,39.0156 97.5469,40.1094 L97.5469,45.3281 L109.25,45.3281 L109.25,94.5469 L94.5781,94.5469 L94.5781,101.391 M161.609,102.563 C174.125,102.563 182.125,91.125 182.125,68.1875 C182.125,45.3281 174.125,34.1563 161.609,34.1563 C149.016,34.1563 141,45.2344 141,68.1875 C141,91.125 149.016,102.563 161.609,102.563 M161.609,95.9844 C154.047,95.9844 149.016,87.625 149.016,68.1875 C149.016,48.9219 154.047,40.8281 161.609,40.8281 C169.078,40.8281 174.125,48.9219 174.125,68.1875 C174.125,87.625 169.078,95.9844 161.609,95.9844 "/>
</g>

<g fill="#ffffff" fill-opacity="1" stroke="none" transform="matrix(1,0,0,1,0,0)"
font-family="Noto Sans CJK JP" font-size="90" font-weight="400" font-style="normal" 
>
<path vector-effect="none" fill-rule="evenodd" d="M23.4844,101.391 L31.7656,101.391 L31.7656,71.875 L60.2031,71.875 L60.2031,64.7656 L31.7656,64.7656 L31.7656,42.3594 L66.875,42.3594 L66.875,35.25 L23.4844,35.25 L23.4844,101.391 M94.5781,101.391 L130.75,101.391 L130.75,94.5469 L117.531,94.5469 L117.531,35.4219 L111.219,35.4219 C107.625,37.5 103.391,39.0156 97.5469,40.1094 L97.5469,45.3281 L109.25,45.3281 L109.25,94.5469 L94.5781,94.5469 L94.5781,101.391 M161.609,102.563 C174.125,102.563 182.125,91.125 182.125,68.1875 C182.125,45.3281 174.125,34.1563 161.609,34.1563 C149.016,34.1563 141,45.2344 141,68.1875 C141,91.125 149.016,102.563 161.609,102.563 M161.609,95.9844 C154.047,95.9844 149.016,87.625 149.016,68.1875 C149.016,48.9219 154.047,40.8281 161.609,40.8281 C169.078,40.8281 174.125,48.9219 174.125,68.1875 C174.125,87.625 169.078,95.9844 161.609,95.9844 "/>
</g>
</g>
</svg>
