<?xml version="1.0" encoding="UTF-8" standalone="no"?>
<svg width="35.2778mm" height="45.8611mm"
 xmlns="http://www.w3.org/2000/svg" xmlns:xlink="http://www.w3.org/1999/xlink"  version="1.2" baseProfile="tiny">
<title>Qt SVG Document</title>
<desc>Generated with Qt</desc>
<defs>
</defs>
<g fill="none" stroke="black" stroke-width="1" fill-rule="evenodd" stroke-linecap="square" stroke-linejoin="bevel" >

<g fill="#c0c0c0" fill-opacity="1" stroke="none" transform="matrix(1,0,0,1,0,0)"
font-family="Noto Sans" font-size="10" font-weight="400" font-style="normal" 
>
<path vector-effect="none" fill-rule="evenodd" d="M1,6 C1,3.23858 3.23858,1 6,1 L95,1 C97.7614,1 100,3.23858 100,6 L100,125 C100,127.761 97.7614,130 95,130 L6,130 C3.23858,130 1,127.761 1,125 L1,6"/>
</g>

<g fill="none" stroke="#000000" stroke-opacity="1" stroke-width="2" stroke-linecap="square" stroke-linejoin="bevel" transform="matrix(1,0,0,1,0,0)"
font-family="Noto Sans" font-size="10" font-weight="400" font-style="normal" 
>
<path vector-effect="none" fill-rule="evenodd" d="M1,6 C1,3.23858 3.23858,1 6,1 L95,1 C97.7614,1 100,3.23858 100,6 L100,125 C100,127.761 97.7614,130 95,130 L6,130 C3.23858,130 1,127.761 1,125 L1,6"/>
</g>

<g fill="none" stroke="#000000" stroke-opacity="1" stroke-width="2" stroke-linecap="square" stroke-linejoin="bevel" transform="matrix(1,0,0,1,0,0)"
font-family="Noto Sans CJK JP" font-size="90" font-weight="400" font-style="normal" 
>
<path vector-effect="none" fill-rule="evenodd" d="M37.4844,55.25 L36.1406,55.5156 L10.2188,55.5156 L10.2188,62.1719 L33.625,62.1719 C29.2969,80.0781 19.7656,93.4844 8.0625,100.781 C9.59375,101.859 12.2969,104.469 13.375,106.094 C26.5156,97.1875 37.4063,80.5313 41.9063,56.9531 L37.4844,55.25 M82.4844,47.125 C77.1719,54.1563 68.3594,63.1563 61.1563,69.4688 C58.0156,63.0781 55.4844,56.2344 53.5938,49.1094 L53.5938,32.7969 L46.6719,32.7969 L46.6719,105.281 C46.6719,107.078 46.0313,107.625 44.2344,107.703 C42.4375,107.703 36.6719,107.797 30.2031,107.531 C31.2813,109.516 32.625,112.844 32.9063,114.828 C41.1719,114.828 46.3906,114.641 49.375,113.469 C52.3438,112.203 53.5938,110.047 53.5938,105.281 L53.5938,66.6719 C60.7031,85.125 71.5,100.234 87.0781,107.891 C88.1563,105.906 90.5,103.203 92.1094,101.859 C80.2344,96.7344 70.875,86.9219 63.9531,74.7656 C71.6875,68.75 81.4063,59.2969 88.5156,51.4531 L82.4844,47.125"/>
</g>

<g fill="#000000" fill-opacity="1" stroke="none" transform="matrix(1,0,0,1,0,0)"
font-family="Noto Sans CJK JP" font-size="90" font-weight="400" font-style="normal" 
>
<path vector-effect="none" fill-rule="evenodd" d="M37.4844,55.25 L36.1406,55.5156 L10.2188,55.5156 L10.2188,62.1719 L33.625,62.1719 C29.2969,80.0781 19.7656,93.4844 8.0625,100.781 C9.59375,101.859 12.2969,104.469 13.375,106.094 C26.5156,97.1875 37.4063,80.5313 41.9063,56.9531 L37.4844,55.25 M82.4844,47.125 C77.1719,54.1563 68.3594,63.1563 61.1563,69.4688 C58.0156,63.0781 55.4844,56.2344 53.5938,49.1094 L53.5938,32.7969 L46.6719,32.7969 L46.6719,105.281 C46.6719,107.078 46.0313,107.625 44.2344,107.703 C42.4375,107.703 36.6719,107.797 30.2031,107.531 C31.2813,109.516 32.625,112.844 32.9063,114.828 C41.1719,114.828 46.3906,114.641 49.375,113.469 C52.3438,112.203 53.5938,110.047 53.5938,105.281 L53.5938,66.6719 C60.7031,85.125 71.5,100.234 87.0781,107.891 C88.1563,105.906 90.5,103.203 92.1094,101.859 C80.2344,96.7344 70.875,86.9219 63.9531,74.7656 C71.6875,68.75 81.4063,59.2969 88.5156,51.4531 L82.4844,47.125"/>
</g>
</g>
</svg>
