<?xml version="1.0" encoding="UTF-8" standalone="no"?>
<svg width="35.2778mm" height="45.8611mm"
 xmlns="http://www.w3.org/2000/svg" xmlns:xlink="http://www.w3.org/1999/xlink"  version="1.2" baseProfile="tiny">
<title>Qt SVG Document</title>
<desc>Generated with Qt</desc>
<defs>
</defs>
<g fill="none" stroke="black" stroke-width="1" fill-rule="evenodd" stroke-linecap="square" stroke-linejoin="bevel" >

<g fill="#c0c0c0" fill-opacity="1" stroke="none" transform="matrix(1,0,0,1,0,0)"
font-family="Noto Sans" font-size="10" font-weight="400" font-style="normal" 
>
<path vector-effect="none" fill-rule="evenodd" d="M1,6 C1,3.23858 3.23858,1 6,1 L95,1 C97.7614,1 100,3.23858 100,6 L100,125 C100,127.761 97.7614,130 95,130 L6,130 C3.23858,130 1,127.761 1,125 L1,6"/>
</g>

<g fill="none" stroke="#000000" stroke-opacity="1" stroke-width="2" stroke-linecap="square" stroke-linejoin="bevel" transform="matrix(1,0,0,1,0,0)"
font-family="Noto Sans" font-size="10" font-weight="400" font-style="normal" 
>
<path vector-effect="none" fill-rule="evenodd" d="M1,6 C1,3.23858 3.23858,1 6,1 L95,1 C97.7614,1 100,3.23858 100,6 L100,125 C100,127.761 97.7614,130 95,130 L6,130 C3.23858,130 1,127.761 1,125 L1,6"/>
</g>

<g fill="none" stroke="#000000" stroke-opacity="1" stroke-width="2" stroke-linecap="square" stroke-linejoin="bevel" transform="matrix(1,0,0,1,0,0)"
font-family="Noto Sans CJK JP" font-size="90" font-weight="400" font-style="normal" 
>
<path vector-effect="none" fill-rule="evenodd" d="M46.7656,91.2344 C47.3906,91.2344 47.2969,92.6875 47.2969,92.8594 C46.7656,102.219 43.4219,107.172 38.3906,111.406 C37.4063,112.297 38.0313,113.203 38.4844,113.203 L61.6094,113.203 C61.9688,113.203 62.6875,112.297 61.6094,111.406 C56.5625,107.172 53.3281,102.219 52.7031,92.8594 C52.7031,92.6875 52.6094,91.2344 53.2344,91.2344 C53.9531,91.2344 53.875,91.9688 54.6719,93.2188 C58.375,98.9844 64.3906,102.578 71.1406,102.578 C81.3125,102.578 89.2344,95.0156 89.2344,84.3125 C89.2344,74.0469 81.6719,65.9531 70.9688,65.9531 C68.4531,65.9531 65.3906,66.9375 63.3125,68.0156 C63.3125,68.0156 62.875,68.2031 62.6875,67.8438 C62.4219,67.3906 62.9531,67.0313 62.9531,67.0313 C66.1094,64.0625 68.5313,59.375 68.5313,53.9844 C68.5313,43.7188 60.25,35.3594 50,35.3594 C39.6563,35.3594 31.4531,43.8125 31.4531,54.0781 C31.4531,59.4688 33.8906,64.0625 37.0313,67.0313 C37.0313,67.0313 37.5781,67.3906 37.3125,67.8438 C37.125,68.2031 36.6719,68.0156 36.6719,68.0156 C34.6094,66.9375 31.6406,65.9531 28.9375,65.9531 C18.5,65.9531 10.7656,74.0469 10.7656,84.3125 C10.7656,95.0156 18.6719,102.578 28.8438,102.578 C35.9531,102.578 41.9844,98.4375 45.3125,93.2188 C46.125,91.9688 46.0313,91.2344 46.7656,91.2344 "/>
</g>

<g fill="#000000" fill-opacity="1" stroke="none" transform="matrix(1,0,0,1,0,0)"
font-family="Noto Sans CJK JP" font-size="90" font-weight="400" font-style="normal" 
>
<path vector-effect="none" fill-rule="evenodd" d="M46.7656,91.2344 C47.3906,91.2344 47.2969,92.6875 47.2969,92.8594 C46.7656,102.219 43.4219,107.172 38.3906,111.406 C37.4063,112.297 38.0313,113.203 38.4844,113.203 L61.6094,113.203 C61.9688,113.203 62.6875,112.297 61.6094,111.406 C56.5625,107.172 53.3281,102.219 52.7031,92.8594 C52.7031,92.6875 52.6094,91.2344 53.2344,91.2344 C53.9531,91.2344 53.875,91.9688 54.6719,93.2188 C58.375,98.9844 64.3906,102.578 71.1406,102.578 C81.3125,102.578 89.2344,95.0156 89.2344,84.3125 C89.2344,74.0469 81.6719,65.9531 70.9688,65.9531 C68.4531,65.9531 65.3906,66.9375 63.3125,68.0156 C63.3125,68.0156 62.875,68.2031 62.6875,67.8438 C62.4219,67.3906 62.9531,67.0313 62.9531,67.0313 C66.1094,64.0625 68.5313,59.375 68.5313,53.9844 C68.5313,43.7188 60.25,35.3594 50,35.3594 C39.6563,35.3594 31.4531,43.8125 31.4531,54.0781 C31.4531,59.4688 33.8906,64.0625 37.0313,67.0313 C37.0313,67.0313 37.5781,67.3906 37.3125,67.8438 C37.125,68.2031 36.6719,68.0156 36.6719,68.0156 C34.6094,66.9375 31.6406,65.9531 28.9375,65.9531 C18.5,65.9531 10.7656,74.0469 10.7656,84.3125 C10.7656,95.0156 18.6719,102.578 28.8438,102.578 C35.9531,102.578 41.9844,98.4375 45.3125,93.2188 C46.125,91.9688 46.0313,91.2344 46.7656,91.2344 "/>
</g>
</g>
</svg>
