<?xml version="1.0" encoding="UTF-8" standalone="no"?>
<svg width="35.2778mm" height="45.8611mm"
 xmlns="http://www.w3.org/2000/svg" xmlns:xlink="http://www.w3.org/1999/xlink"  version="1.2" baseProfile="tiny">
<title>Qt SVG Document</title>
<desc>Generated with Qt</desc>
<defs>
</defs>
<g fill="none" stroke="black" stroke-width="1" fill-rule="evenodd" stroke-linecap="square" stroke-linejoin="bevel" >

<g fill="#808080" fill-opacity="1" stroke="none" transform="matrix(1,0,0,1,0,0)"
font-family="Noto Sans" font-size="10" font-weight="400" font-style="normal" 
>
<path vector-effect="none" fill-rule="evenodd" d="M1,6 C1,3.23858 3.23858,1 6,1 L95,1 C97.7614,1 100,3.23858 100,6 L100,125 C100,127.761 97.7614,130 95,130 L6,130 C3.23858,130 1,127.761 1,125 L1,6"/>
</g>

<g fill="none" stroke="#000000" stroke-opacity="1" stroke-width="2" stroke-linecap="square" stroke-linejoin="bevel" transform="matrix(1,0,0,1,0,0)"
font-family="Noto Sans" font-size="10" font-weight="400" font-style="normal" 
>
<path vector-effect="none" fill-rule="evenodd" d="M1,6 C1,3.23858 3.23858,1 6,1 L95,1 C97.7614,1 100,3.23858 100,6 L100,125 C100,127.761 97.7614,130 95,130 L6,130 C3.23858,130 1,127.761 1,125 L1,6"/>
</g>

<g fill="none" stroke="#000000" stroke-opacity="1" stroke-width="2" stroke-linecap="square" stroke-linejoin="bevel" transform="matrix(1,0,0,1,0,0)"
font-family="Noto Sans CJK JP" font-size="45" font-weight="400" font-style="normal" 
>
<path vector-effect="none" fill-rule="evenodd" d="M11.9375,64.5625 L15.7031,64.5625 L15.7031,46.2969 C15.7031,43.4063 15.4375,39.4063 15.2656,36.4844 L15.4375,36.4844 L18.5469,44.0938 L26.0625,61.2344 L28.8438,61.2344 L36.3125,44.0938 L39.4688,36.4844 L39.6875,36.4844 C39.4688,39.4063 39.2031,43.4063 39.2031,46.2969 L39.2031,64.5625 L43.0625,64.5625 L43.0625,31.4844 L38.0313,31.4844 L30.4219,49.2188 C29.4844,51.4688 28.625,53.8125 27.6406,56.1094 L27.4531,56.1094 C26.5156,53.8125 25.5625,51.4688 24.625,49.2188 L16.9219,31.4844 L11.9375,31.4844 L11.9375,64.5625 M88.4688,47.9063 C88.4688,37.3438 81.9063,30.9531 72.5,30.9531 C63.0938,30.9531 56.5313,37.3438 56.5313,47.9063 C56.5313,58.4844 63.1406,65.1094 72.5,65.1094 C82.0781,65.1094 88.4688,58.4844 88.4688,47.9063 M60.7969,47.9063 C60.7969,39.6719 65.4844,34.5938 72.5,34.5938 C79.5156,34.5938 84.2031,39.6719 84.2031,47.9063 C84.2031,56.1875 79.5156,61.4531 72.5,61.4531 C65.5313,61.4531 60.7969,56.1875 60.7969,47.9063 M15.0313,109.563 L24.3906,109.563 C35.8281,109.563 41.9063,103.359 41.9063,92.875 C41.9063,82.4219 35.8281,76.4844 24.1719,76.4844 L15.0313,76.4844 L15.0313,109.563 M19.0781,106.094 L19.0781,79.9531 L23.9063,79.9531 C32.9375,79.9531 37.625,84.4063 37.625,92.875 C37.625,101.375 32.9375,106.094 23.9063,106.094 L19.0781,106.094 M62.5469,109.563 L84.7813,109.563 L84.7813,106 L66.6875,106 L66.6875,94 L80.7813,94 L80.7813,90.4375 L66.6875,90.4375 L66.6875,80.0469 L84.2031,80.0469 L84.2031,76.4844 L62.5469,76.4844 L62.5469,109.563"/>
</g>

<g fill="#ffffff" fill-opacity="1" stroke="none" transform="matrix(1,0,0,1,0,0)"
font-family="Noto Sans CJK JP" font-size="45" font-weight="400" font-style="normal" 
>
<path vector-effect="none" fill-rule="evenodd" d="M11.9375,64.5625 L15.7031,64.5625 L15.7031,46.2969 C15.7031,43.4063 15.4375,39.4063 15.2656,36.4844 L15.4375,36.4844 L18.5469,44.0938 L26.0625,61.2344 L28.8438,61.2344 L36.3125,44.0938 L39.4688,36.4844 L39.6875,36.4844 C39.4688,39.4063 39.2031,43.4063 39.2031,46.2969 L39.2031,64.5625 L43.0625,64.5625 L43.0625,31.4844 L38.0313,31.4844 L30.4219,49.2188 C29.4844,51.4688 28.625,53.8125 27.6406,56.1094 L27.4531,56.1094 C26.5156,53.8125 25.5625,51.4688 24.625,49.2188 L16.9219,31.4844 L11.9375,31.4844 L11.9375,64.5625 M88.4688,47.9063 C88.4688,37.3438 81.9063,30.9531 72.5,30.9531 C63.0938,30.9531 56.5313,37.3438 56.5313,47.9063 C56.5313,58.4844 63.1406,65.1094 72.5,65.1094 C82.0781,65.1094 88.4688,58.4844 88.4688,47.9063 M60.7969,47.9063 C60.7969,39.6719 65.4844,34.5938 72.5,34.5938 C79.5156,34.5938 84.2031,39.6719 84.2031,47.9063 C84.2031,56.1875 79.5156,61.4531 72.5,61.4531 C65.5313,61.4531 60.7969,56.1875 60.7969,47.9063 M15.0313,109.563 L24.3906,109.563 C35.8281,109.563 41.9063,103.359 41.9063,92.875 C41.9063,82.4219 35.8281,76.4844 24.1719,76.4844 L15.0313,76.4844 L15.0313,109.563 M19.0781,106.094 L19.0781,79.9531 L23.9063,79.9531 C32.9375,79.9531 37.625,84.4063 37.625,92.875 C37.625,101.375 32.9375,106.094 23.9063,106.094 L19.0781,106.094 M62.5469,109.563 L84.7813,109.563 L84.7813,106 L66.6875,106 L66.6875,94 L80.7813,94 L80.7813,90.4375 L66.6875,90.4375 L66.6875,80.0469 L84.2031,80.0469 L84.2031,76.4844 L62.5469,76.4844 L62.5469,109.563"/>
</g>
</g>
</svg>
