<?xml version="1.0" encoding="UTF-8" standalone="no"?>
<svg width="35.2778mm" height="45.8611mm"
 xmlns="http://www.w3.org/2000/svg" xmlns:xlink="http://www.w3.org/1999/xlink"  version="1.2" baseProfile="tiny">
<title>Qt SVG Document</title>
<desc>Generated with Qt</desc>
<defs>
</defs>
<g fill="none" stroke="black" stroke-width="1" fill-rule="evenodd" stroke-linecap="square" stroke-linejoin="bevel" >

<g fill="#c0c0c0" fill-opacity="1" stroke="none" transform="matrix(1,0,0,1,0,0)"
font-family="Noto Sans" font-size="10" font-weight="400" font-style="normal" 
>
<path vector-effect="none" fill-rule="evenodd" d="M1,6 C1,3.23858 3.23858,1 6,1 L95,1 C97.7614,1 100,3.23858 100,6 L100,125 C100,127.761 97.7614,130 95,130 L6,130 C3.23858,130 1,127.761 1,125 L1,6"/>
</g>

<g fill="none" stroke="#000000" stroke-opacity="1" stroke-width="2" stroke-linecap="square" stroke-linejoin="bevel" transform="matrix(1,0,0,1,0,0)"
font-family="Noto Sans" font-size="10" font-weight="400" font-style="normal" 
>
<path vector-effect="none" fill-rule="evenodd" d="M1,6 C1,3.23858 3.23858,1 6,1 L95,1 C97.7614,1 100,3.23858 100,6 L100,125 C100,127.761 97.7614,130 95,130 L6,130 C3.23858,130 1,127.761 1,125 L1,6"/>
</g>

<g fill="none" stroke="#000000" stroke-opacity="1" stroke-width="2" stroke-linecap="square" stroke-linejoin="bevel" transform="matrix(1,0,0,1,0,0)"
font-family="Noto Sans CJK JP" font-size="90" font-weight="400" font-style="normal" 
>
<path vector-effect="none" fill-rule="evenodd" d="M82.2188,116.266 C80.2344,116.891 77.625,117.516 74.2031,117.516 C65.5625,117.516 58.1875,114.453 54.8594,108.516 C70.7813,106.359 81.8594,93.6719 81.8594,74.5938 C81.8594,53.4375 68.5313,40.6563 49.9063,40.6563 C31.1875,40.6563 18.0469,53.4375 18.0469,74.5938 C18.0469,94.0313 29.2969,106.906 45.7656,108.797 C50.0938,117.797 59.0938,124.453 73.0313,124.453 C77.625,124.453 81.6719,123.641 83.9219,122.656 L82.2188,116.266 M49.9063,102.125 C35.875,102.125 26.5156,91.5156 26.5156,74.5938 C26.5156,58.125 35.875,47.9531 49.9063,47.9531 C63.8594,47.9531 73.3125,58.125 73.3125,74.5938 C73.3125,91.5156 63.8594,102.125 49.9063,102.125 "/>
</g>

<g fill="#000000" fill-opacity="1" stroke="none" transform="matrix(1,0,0,1,0,0)"
font-family="Noto Sans CJK JP" font-size="90" font-weight="400" font-style="normal" 
>
<path vector-effect="none" fill-rule="evenodd" d="M82.2188,116.266 C80.2344,116.891 77.625,117.516 74.2031,117.516 C65.5625,117.516 58.1875,114.453 54.8594,108.516 C70.7813,106.359 81.8594,93.6719 81.8594,74.5938 C81.8594,53.4375 68.5313,40.6563 49.9063,40.6563 C31.1875,40.6563 18.0469,53.4375 18.0469,74.5938 C18.0469,94.0313 29.2969,106.906 45.7656,108.797 C50.0938,117.797 59.0938,124.453 73.0313,124.453 C77.625,124.453 81.6719,123.641 83.9219,122.656 L82.2188,116.266 M49.9063,102.125 C35.875,102.125 26.5156,91.5156 26.5156,74.5938 C26.5156,58.125 35.875,47.9531 49.9063,47.9531 C63.8594,47.9531 73.3125,58.125 73.3125,74.5938 C73.3125,91.5156 63.8594,102.125 49.9063,102.125 "/>
</g>
</g>
</svg>
