<?xml version="1.0" encoding="UTF-8" standalone="no"?>
<svg width="35.2778mm" height="45.8611mm"
 xmlns="http://www.w3.org/2000/svg" xmlns:xlink="http://www.w3.org/1999/xlink"  version="1.2" baseProfile="tiny">
<title>Qt SVG Document</title>
<desc>Generated with Qt</desc>
<defs>
</defs>
<g fill="none" stroke="black" stroke-width="1" fill-rule="evenodd" stroke-linecap="square" stroke-linejoin="bevel" >

<g fill="#c0c0c0" fill-opacity="1" stroke="none" transform="matrix(1,0,0,1,0,0)"
font-family="Noto Sans" font-size="10" font-weight="400" font-style="normal" 
>
<path vector-effect="none" fill-rule="evenodd" d="M1,6 C1,3.23858 3.23858,1 6,1 L95,1 C97.7614,1 100,3.23858 100,6 L100,125 C100,127.761 97.7614,130 95,130 L6,130 C3.23858,130 1,127.761 1,125 L1,6"/>
</g>

<g fill="none" stroke="#000000" stroke-opacity="1" stroke-width="2" stroke-linecap="square" stroke-linejoin="bevel" transform="matrix(1,0,0,1,0,0)"
font-family="Noto Sans" font-size="10" font-weight="400" font-style="normal" 
>
<path vector-effect="none" fill-rule="evenodd" d="M1,6 C1,3.23858 3.23858,1 6,1 L95,1 C97.7614,1 100,3.23858 100,6 L100,125 C100,127.761 97.7614,130 95,130 L6,130 C3.23858,130 1,127.761 1,125 L1,6"/>
</g>

<g fill="none" stroke="#000000" stroke-opacity="1" stroke-width="2" stroke-linecap="square" stroke-linejoin="bevel" transform="matrix(1,0,0,1,0,0)"
font-family="Noto Sans CJK JP" font-size="90" font-weight="400" font-style="normal" 
>
<path vector-effect="none" fill-rule="evenodd" d="M50.0938,97.4531 C50.0938,103.578 45.7656,105.094 40.6406,105.094 C31.8125,105.094 28.3125,102.047 28.3125,97.9063 C28.3125,93.8438 32.9063,90.6094 41.3594,90.6094 C44.3281,90.6094 47.2031,90.875 50,91.4219 C50,93.8438 50.0938,95.9219 50.0938,97.4531 M82.5781,100.516 C77.5313,96.4688 68.4531,89.8906 56.6563,86.6563 C56.4844,82.4219 56.2031,77.7344 56.0313,73.1563 C64.4844,72.7969 72.4063,72.1563 80.7813,71.0781 L80.6875,64.3281 C72.6719,65.5 64.4844,66.3125 55.9375,66.6719 L55.9375,65.6875 L55.9375,53.8906 C64.3125,53.4375 71.9531,52.7188 78.9844,52 L78.8906,45.4219 C71.0625,46.6094 63.7656,47.3281 56.0313,47.5938 C56.0313,45.4219 56.0313,43.7188 56.125,42.625 C56.2031,40.0156 56.2969,38.2969 56.5625,36.6719 L48.9219,36.6719 C49.0938,37.9375 49.1875,40.5625 49.1875,42 L49.1875,47.8594 C47.6563,47.8594 46.125,47.8594 44.5938,47.8594 C38.6563,47.8594 29.125,47.1406 23.7188,46.1563 L23.7188,52.8125 C29.0313,53.4375 38.4844,54.1563 44.6875,54.1563 C46.2188,54.1563 47.6563,54.1563 49.0938,54.1563 L49.0938,65.6875 L49.0938,66.9375 C47.5625,66.9375 45.9531,66.9375 44.3281,66.9375 C38.4844,66.9375 27.9531,66.3125 21.9219,65.2344 L21.9219,72.0781 C28.3125,72.7969 38.2031,73.3281 44.3281,73.3281 C46.0313,73.3281 47.6563,73.3281 49.2813,73.3281 C49.375,77.0156 49.5469,81.25 49.7344,85.2188 C47.2969,84.8438 44.875,84.6719 42.2656,84.6719 C29.3906,84.6719 21.5625,90.1563 21.5625,98.2656 C21.5625,106.906 28.6719,111.484 41.4531,111.484 C53.0625,111.484 57.2031,105.094 57.2031,98.9844 C57.2031,97.625 57.1094,95.6563 57.0156,93.4063 C65.9219,96.6406 73.3125,102.047 78.5313,106.813 L82.5781,100.516"/>
</g>

<g fill="#000000" fill-opacity="1" stroke="none" transform="matrix(1,0,0,1,0,0)"
font-family="Noto Sans CJK JP" font-size="90" font-weight="400" font-style="normal" 
>
<path vector-effect="none" fill-rule="evenodd" d="M50.0938,97.4531 C50.0938,103.578 45.7656,105.094 40.6406,105.094 C31.8125,105.094 28.3125,102.047 28.3125,97.9063 C28.3125,93.8438 32.9063,90.6094 41.3594,90.6094 C44.3281,90.6094 47.2031,90.875 50,91.4219 C50,93.8438 50.0938,95.9219 50.0938,97.4531 M82.5781,100.516 C77.5313,96.4688 68.4531,89.8906 56.6563,86.6563 C56.4844,82.4219 56.2031,77.7344 56.0313,73.1563 C64.4844,72.7969 72.4063,72.1563 80.7813,71.0781 L80.6875,64.3281 C72.6719,65.5 64.4844,66.3125 55.9375,66.6719 L55.9375,65.6875 L55.9375,53.8906 C64.3125,53.4375 71.9531,52.7188 78.9844,52 L78.8906,45.4219 C71.0625,46.6094 63.7656,47.3281 56.0313,47.5938 C56.0313,45.4219 56.0313,43.7188 56.125,42.625 C56.2031,40.0156 56.2969,38.2969 56.5625,36.6719 L48.9219,36.6719 C49.0938,37.9375 49.1875,40.5625 49.1875,42 L49.1875,47.8594 C47.6563,47.8594 46.125,47.8594 44.5938,47.8594 C38.6563,47.8594 29.125,47.1406 23.7188,46.1563 L23.7188,52.8125 C29.0313,53.4375 38.4844,54.1563 44.6875,54.1563 C46.2188,54.1563 47.6563,54.1563 49.0938,54.1563 L49.0938,65.6875 L49.0938,66.9375 C47.5625,66.9375 45.9531,66.9375 44.3281,66.9375 C38.4844,66.9375 27.9531,66.3125 21.9219,65.2344 L21.9219,72.0781 C28.3125,72.7969 38.2031,73.3281 44.3281,73.3281 C46.0313,73.3281 47.6563,73.3281 49.2813,73.3281 C49.375,77.0156 49.5469,81.25 49.7344,85.2188 C47.2969,84.8438 44.875,84.6719 42.2656,84.6719 C29.3906,84.6719 21.5625,90.1563 21.5625,98.2656 C21.5625,106.906 28.6719,111.484 41.4531,111.484 C53.0625,111.484 57.2031,105.094 57.2031,98.9844 C57.2031,97.625 57.1094,95.6563 57.0156,93.4063 C65.9219,96.6406 73.3125,102.047 78.5313,106.813 L82.5781,100.516"/>
</g>
</g>
</svg>
