<?xml version="1.0" encoding="UTF-8" standalone="no"?>
<svg width="35.2778mm" height="45.8611mm"
 xmlns="http://www.w3.org/2000/svg" xmlns:xlink="http://www.w3.org/1999/xlink"  version="1.2" baseProfile="tiny">
<title>Qt SVG Document</title>
<desc>Generated with Qt</desc>
<defs>
</defs>
<g fill="none" stroke="black" stroke-width="1" fill-rule="evenodd" stroke-linecap="square" stroke-linejoin="bevel" >

<g fill="#c0c0c0" fill-opacity="1" stroke="none" transform="matrix(1,0,0,1,0,0)"
font-family="Noto Sans" font-size="10" font-weight="400" font-style="normal" 
>
<path vector-effect="none" fill-rule="evenodd" d="M1,6 C1,3.23858 3.23858,1 6,1 L95,1 C97.7614,1 100,3.23858 100,6 L100,125 C100,127.761 97.7614,130 95,130 L6,130 C3.23858,130 1,127.761 1,125 L1,6"/>
</g>

<g fill="none" stroke="#000000" stroke-opacity="1" stroke-width="2" stroke-linecap="square" stroke-linejoin="bevel" transform="matrix(1,0,0,1,0,0)"
font-family="Noto Sans" font-size="10" font-weight="400" font-style="normal" 
>
<path vector-effect="none" fill-rule="evenodd" d="M1,6 C1,3.23858 3.23858,1 6,1 L95,1 C97.7614,1 100,3.23858 100,6 L100,125 C100,127.761 97.7614,130 95,130 L6,130 C3.23858,130 1,127.761 1,125 L1,6"/>
</g>

<g fill="none" stroke="#000000" stroke-opacity="1" stroke-width="2" stroke-linecap="square" stroke-linejoin="bevel" transform="matrix(1,0,0,1,0,0)"
font-family="Noto Sans CJK JP" font-size="90" font-weight="400" font-style="normal" 
>
<path vector-effect="none" fill-rule="evenodd" d="M27.9531,95.2031 C27.9531,103.938 35.4219,108.969 44.5938,108.969 C51.5313,108.969 58.5469,105.375 63.9531,101.234 L64.2188,101.234 L64.9375,107.891 L71.6875,107.891 L71.6875,77.8281 C71.6875,65.5938 65.125,57.8594 51.7969,57.8594 C43.25,57.8594 34.9688,61.5469 30.0156,64.7813 L33.3438,70.4531 C37.7656,67.5781 44.0625,64.5156 50.4531,64.5156 C59.9844,64.5156 63.3125,70.1875 63.5,76.9375 C38.2031,78.9063 27.9531,84.3125 27.9531,95.2031 M35.9531,94.5781 C35.9531,88.0938 42.4375,83.9531 63.5,82.3281 L63.5,95.2031 C57.9219,99.875 52.3438,102.406 46.8438,102.406 C41.0938,102.406 35.9531,100.234 35.9531,94.5781 "/>
</g>

<g fill="#000000" fill-opacity="1" stroke="none" transform="matrix(1,0,0,1,0,0)"
font-family="Noto Sans CJK JP" font-size="90" font-weight="400" font-style="normal" 
>
<path vector-effect="none" fill-rule="evenodd" d="M27.9531,95.2031 C27.9531,103.938 35.4219,108.969 44.5938,108.969 C51.5313,108.969 58.5469,105.375 63.9531,101.234 L64.2188,101.234 L64.9375,107.891 L71.6875,107.891 L71.6875,77.8281 C71.6875,65.5938 65.125,57.8594 51.7969,57.8594 C43.25,57.8594 34.9688,61.5469 30.0156,64.7813 L33.3438,70.4531 C37.7656,67.5781 44.0625,64.5156 50.4531,64.5156 C59.9844,64.5156 63.3125,70.1875 63.5,76.9375 C38.2031,78.9063 27.9531,84.3125 27.9531,95.2031 M35.9531,94.5781 C35.9531,88.0938 42.4375,83.9531 63.5,82.3281 L63.5,95.2031 C57.9219,99.875 52.3438,102.406 46.8438,102.406 C41.0938,102.406 35.9531,100.234 35.9531,94.5781 "/>
</g>
</g>
</svg>
