<?xml version="1.0" encoding="UTF-8" standalone="no"?>
<svg width="35.2778mm" height="45.8611mm"
 xmlns="http://www.w3.org/2000/svg" xmlns:xlink="http://www.w3.org/1999/xlink"  version="1.2" baseProfile="tiny">
<title>Qt SVG Document</title>
<desc>Generated with Qt</desc>
<defs>
</defs>
<g fill="none" stroke="black" stroke-width="1" fill-rule="evenodd" stroke-linecap="square" stroke-linejoin="bevel" >

<g fill="#c0c0c0" fill-opacity="1" stroke="none" transform="matrix(1,0,0,1,0,0)"
font-family="Noto Sans" font-size="10" font-weight="400" font-style="normal" 
>
<path vector-effect="none" fill-rule="evenodd" d="M1,6 C1,3.23858 3.23858,1 6,1 L95,1 C97.7614,1 100,3.23858 100,6 L100,125 C100,127.761 97.7614,130 95,130 L6,130 C3.23858,130 1,127.761 1,125 L1,6"/>
</g>

<g fill="none" stroke="#000000" stroke-opacity="1" stroke-width="2" stroke-linecap="square" stroke-linejoin="bevel" transform="matrix(1,0,0,1,0,0)"
font-family="Noto Sans" font-size="10" font-weight="400" font-style="normal" 
>
<path vector-effect="none" fill-rule="evenodd" d="M1,6 C1,3.23858 3.23858,1 6,1 L95,1 C97.7614,1 100,3.23858 100,6 L100,125 C100,127.761 97.7614,130 95,130 L6,130 C3.23858,130 1,127.761 1,125 L1,6"/>
</g>

<g fill="none" stroke="#000000" stroke-opacity="1" stroke-width="2" stroke-linecap="square" stroke-linejoin="bevel" transform="matrix(1,0,0,1,0,0)"
font-family="Noto Sans CJK JP" font-size="90" font-weight="400" font-style="normal" 
>
<path vector-effect="none" fill-rule="evenodd" d="M53.1406,33.9063 L46.0313,33.9063 L46.0313,62.7969 C46.0313,73.2344 39.8281,97.8125 9.6875,109.328 C11.2031,110.688 13.375,113.469 14.2656,114.828 C39.6563,104.375 47.8438,84.4844 49.5469,75.7656 C51.3438,84.4063 60.0781,105.016 86.0938,114.828 C87.0781,113.016 89.0625,110.141 90.5,108.703 C59.5313,97.7188 53.1406,73.0625 53.1406,62.7969 L53.1406,33.9063 M79.4219,50.5625 C76.4531,58.3906 70.7813,69.1875 66.375,75.7656 L71.9531,78.375 C76.5469,71.9844 82.3125,61.8125 86.625,53.4375 L79.4219,50.5625 M23.3594,50.75 C21.9219,60.7344 18.8594,70.4531 11.6563,75.8594 L17.4219,79.8125 C25.4219,73.6875 28.4063,62.7969 30.0156,52.0938 L23.3594,50.75"/>
</g>

<g fill="#000000" fill-opacity="1" stroke="none" transform="matrix(1,0,0,1,0,0)"
font-family="Noto Sans CJK JP" font-size="90" font-weight="400" font-style="normal" 
>
<path vector-effect="none" fill-rule="evenodd" d="M53.1406,33.9063 L46.0313,33.9063 L46.0313,62.7969 C46.0313,73.2344 39.8281,97.8125 9.6875,109.328 C11.2031,110.688 13.375,113.469 14.2656,114.828 C39.6563,104.375 47.8438,84.4844 49.5469,75.7656 C51.3438,84.4063 60.0781,105.016 86.0938,114.828 C87.0781,113.016 89.0625,110.141 90.5,108.703 C59.5313,97.7188 53.1406,73.0625 53.1406,62.7969 L53.1406,33.9063 M79.4219,50.5625 C76.4531,58.3906 70.7813,69.1875 66.375,75.7656 L71.9531,78.375 C76.5469,71.9844 82.3125,61.8125 86.625,53.4375 L79.4219,50.5625 M23.3594,50.75 C21.9219,60.7344 18.8594,70.4531 11.6563,75.8594 L17.4219,79.8125 C25.4219,73.6875 28.4063,62.7969 30.0156,52.0938 L23.3594,50.75"/>
</g>
</g>
</svg>
