<?xml version="1.0" encoding="UTF-8" standalone="no"?>
<svg width="35.2778mm" height="45.8611mm"
 xmlns="http://www.w3.org/2000/svg" xmlns:xlink="http://www.w3.org/1999/xlink"  version="1.2" baseProfile="tiny">
<title>Qt SVG Document</title>
<desc>Generated with Qt</desc>
<defs>
</defs>
<g fill="none" stroke="black" stroke-width="1" fill-rule="evenodd" stroke-linecap="square" stroke-linejoin="bevel" >

<g fill="#c0c0c0" fill-opacity="1" stroke="none" transform="matrix(1,0,0,1,0,0)"
font-family="Noto Sans" font-size="10" font-weight="400" font-style="normal" 
>
<path vector-effect="none" fill-rule="evenodd" d="M1,6 C1,3.23858 3.23858,1 6,1 L95,1 C97.7614,1 100,3.23858 100,6 L100,125 C100,127.761 97.7614,130 95,130 L6,130 C3.23858,130 1,127.761 1,125 L1,6"/>
</g>

<g fill="none" stroke="#000000" stroke-opacity="1" stroke-width="2" stroke-linecap="square" stroke-linejoin="bevel" transform="matrix(1,0,0,1,0,0)"
font-family="Noto Sans" font-size="10" font-weight="400" font-style="normal" 
>
<path vector-effect="none" fill-rule="evenodd" d="M1,6 C1,3.23858 3.23858,1 6,1 L95,1 C97.7614,1 100,3.23858 100,6 L100,125 C100,127.761 97.7614,130 95,130 L6,130 C3.23858,130 1,127.761 1,125 L1,6"/>
</g>

<g fill="none" stroke="#000000" stroke-opacity="1" stroke-width="2" stroke-linecap="square" stroke-linejoin="bevel" transform="matrix(1,0,0,1,0,0)"
font-family="Noto Sans CJK JP" font-size="90" font-weight="400" font-style="normal" 
>
<path vector-effect="none" fill-rule="evenodd" d="M88.5156,60.7344 C84.2813,57.5 74.125,51.7344 67.6406,48.8438 L64.125,54.4375 C70.0625,57.125 79.7031,62.625 84.4688,66.6719 L88.5156,60.7344 M56.125,47.2188 C51.625,48.6719 46.9375,49.75 42.2656,50.4688 C43.7031,45.3281 44.875,39.9219 45.7656,36.6719 L37.7656,35.9531 C37.5781,40.7344 36.3125,46.4063 34.9688,51.375 C31.5469,51.6406 28.2188,51.8281 25.0625,51.8281 C21.2031,51.8281 17.4219,51.6406 14.0938,51.1875 L14.625,57.9375 C17.9531,58.125 21.6563,58.2188 24.9844,58.2188 C27.5938,58.2188 30.2031,58.125 32.8125,57.9375 C28.7656,68.375 21.2031,82.6094 13.7344,91.2344 L20.75,94.8438 C27.8594,85.2188 35.7813,69.7344 40.1875,57.125 C46.0313,56.4063 51.625,55.25 56.2969,53.8906 L56.125,47.2188 M60.7969,97 C60.7969,101.406 58.375,105.453 51.0781,105.453 C44.1406,105.453 40.8125,102.672 40.8125,98.5313 C40.8125,94.4844 45.1406,91.5156 51.7031,91.5156 C54.8594,91.5156 57.9219,91.9688 60.7031,92.7656 C60.7969,94.3906 60.7969,95.8281 60.7969,97 M59.5313,64.25 C59.7188,70.4531 60.1719,79.1875 60.4375,86.4688 C57.8281,85.9375 54.9531,85.6563 51.9844,85.6563 C41.9063,85.6563 34.1563,90.9688 34.1563,99.1563 C34.1563,107.984 42.1719,112.031 51.9844,112.031 C62.9531,112.031 67.6406,106.188 67.6406,99.0781 C67.6406,98.0781 67.6406,96.8281 67.5469,95.4688 C73.3125,98.2656 78.0781,102.219 81.8594,105.641 L85.7344,99.5156 C81.1406,95.5625 74.9219,91.1563 67.2813,88.3594 C67.0938,82.9688 66.7344,77.1094 66.6406,73.875 C66.5625,70.5469 66.4688,67.9375 66.7344,64.25 L59.5313,64.25"/>
</g>

<g fill="#000000" fill-opacity="1" stroke="none" transform="matrix(1,0,0,1,0,0)"
font-family="Noto Sans CJK JP" font-size="90" font-weight="400" font-style="normal" 
>
<path vector-effect="none" fill-rule="evenodd" d="M88.5156,60.7344 C84.2813,57.5 74.125,51.7344 67.6406,48.8438 L64.125,54.4375 C70.0625,57.125 79.7031,62.625 84.4688,66.6719 L88.5156,60.7344 M56.125,47.2188 C51.625,48.6719 46.9375,49.75 42.2656,50.4688 C43.7031,45.3281 44.875,39.9219 45.7656,36.6719 L37.7656,35.9531 C37.5781,40.7344 36.3125,46.4063 34.9688,51.375 C31.5469,51.6406 28.2188,51.8281 25.0625,51.8281 C21.2031,51.8281 17.4219,51.6406 14.0938,51.1875 L14.625,57.9375 C17.9531,58.125 21.6563,58.2188 24.9844,58.2188 C27.5938,58.2188 30.2031,58.125 32.8125,57.9375 C28.7656,68.375 21.2031,82.6094 13.7344,91.2344 L20.75,94.8438 C27.8594,85.2188 35.7813,69.7344 40.1875,57.125 C46.0313,56.4063 51.625,55.25 56.2969,53.8906 L56.125,47.2188 M60.7969,97 C60.7969,101.406 58.375,105.453 51.0781,105.453 C44.1406,105.453 40.8125,102.672 40.8125,98.5313 C40.8125,94.4844 45.1406,91.5156 51.7031,91.5156 C54.8594,91.5156 57.9219,91.9688 60.7031,92.7656 C60.7969,94.3906 60.7969,95.8281 60.7969,97 M59.5313,64.25 C59.7188,70.4531 60.1719,79.1875 60.4375,86.4688 C57.8281,85.9375 54.9531,85.6563 51.9844,85.6563 C41.9063,85.6563 34.1563,90.9688 34.1563,99.1563 C34.1563,107.984 42.1719,112.031 51.9844,112.031 C62.9531,112.031 67.6406,106.188 67.6406,99.0781 C67.6406,98.0781 67.6406,96.8281 67.5469,95.4688 C73.3125,98.2656 78.0781,102.219 81.8594,105.641 L85.7344,99.5156 C81.1406,95.5625 74.9219,91.1563 67.2813,88.3594 C67.0938,82.9688 66.7344,77.1094 66.6406,73.875 C66.5625,70.5469 66.4688,67.9375 66.7344,64.25 L59.5313,64.25"/>
</g>
</g>
</svg>
