<?xml version="1.0" encoding="UTF-8" standalone="no"?>
<svg width="35.2778mm" height="45.8611mm"
 xmlns="http://www.w3.org/2000/svg" xmlns:xlink="http://www.w3.org/1999/xlink"  version="1.2" baseProfile="tiny">
<title>Qt SVG Document</title>
<desc>Generated with Qt</desc>
<defs>
</defs>
<g fill="none" stroke="black" stroke-width="1" fill-rule="evenodd" stroke-linecap="square" stroke-linejoin="bevel" >

<g fill="#c0c0c0" fill-opacity="1" stroke="none" transform="matrix(1,0,0,1,0,0)"
font-family="Noto Sans" font-size="10" font-weight="400" font-style="normal" 
>
<path vector-effect="none" fill-rule="evenodd" d="M1,6 C1,3.23858 3.23858,1 6,1 L95,1 C97.7614,1 100,3.23858 100,6 L100,125 C100,127.761 97.7614,130 95,130 L6,130 C3.23858,130 1,127.761 1,125 L1,6"/>
</g>

<g fill="none" stroke="#000000" stroke-opacity="1" stroke-width="2" stroke-linecap="square" stroke-linejoin="bevel" transform="matrix(1,0,0,1,0,0)"
font-family="Noto Sans" font-size="10" font-weight="400" font-style="normal" 
>
<path vector-effect="none" fill-rule="evenodd" d="M1,6 C1,3.23858 3.23858,1 6,1 L95,1 C97.7614,1 100,3.23858 100,6 L100,125 C100,127.761 97.7614,130 95,130 L6,130 C3.23858,130 1,127.761 1,125 L1,6"/>
</g>

<g fill="none" stroke="#000000" stroke-opacity="1" stroke-width="2" stroke-linecap="square" stroke-linejoin="bevel" transform="matrix(1,0,0,1,0,0)"
font-family="Noto Sans CJK JP" font-size="90" font-weight="400" font-style="normal" 
>
<path vector-effect="none" fill-rule="evenodd" d="M48.4688,76.5781 C40.5469,76.5781 34.1563,72.0781 34.1563,62.625 C34.1563,52.9063 39.8281,47.3281 47.8438,47.3281 C56.6563,47.3281 63.6719,53.2656 65.125,66.5781 C61.0625,72.6094 55.125,76.5781 48.4688,76.5781 M27.4063,101.234 C31.375,105.641 37.2188,108.969 46.0313,108.969 C59.5313,108.969 73.3125,98.625 73.3125,71.7188 C73.3125,49.9375 61.7031,40.75 47.9219,40.75 C35.875,40.75 26.3281,48.7656 26.3281,62.7969 C26.3281,76.5781 36.0469,83.0469 47.3906,83.0469 C54.8594,83.0469 60.625,79.4531 65.3906,74.2344 C64.6719,95.4688 54.5938,102.125 45.8594,102.125 C40.0156,102.125 35.9531,100.156 32.0938,96.1875 L27.4063,101.234"/>
</g>

<g fill="#000000" fill-opacity="1" stroke="none" transform="matrix(1,0,0,1,0,0)"
font-family="Noto Sans CJK JP" font-size="90" font-weight="400" font-style="normal" 
>
<path vector-effect="none" fill-rule="evenodd" d="M48.4688,76.5781 C40.5469,76.5781 34.1563,72.0781 34.1563,62.625 C34.1563,52.9063 39.8281,47.3281 47.8438,47.3281 C56.6563,47.3281 63.6719,53.2656 65.125,66.5781 C61.0625,72.6094 55.125,76.5781 48.4688,76.5781 M27.4063,101.234 C31.375,105.641 37.2188,108.969 46.0313,108.969 C59.5313,108.969 73.3125,98.625 73.3125,71.7188 C73.3125,49.9375 61.7031,40.75 47.9219,40.75 C35.875,40.75 26.3281,48.7656 26.3281,62.7969 C26.3281,76.5781 36.0469,83.0469 47.3906,83.0469 C54.8594,83.0469 60.625,79.4531 65.3906,74.2344 C64.6719,95.4688 54.5938,102.125 45.8594,102.125 C40.0156,102.125 35.9531,100.156 32.0938,96.1875 L27.4063,101.234"/>
</g>
</g>
</svg>
