<?xml version="1.0" encoding="UTF-8" standalone="no"?>
<svg width="35.2778mm" height="45.8611mm"
 xmlns="http://www.w3.org/2000/svg" xmlns:xlink="http://www.w3.org/1999/xlink"  version="1.2" baseProfile="tiny">
<title>Qt SVG Document</title>
<desc>Generated with Qt</desc>
<defs>
</defs>
<g fill="none" stroke="black" stroke-width="1" fill-rule="evenodd" stroke-linecap="square" stroke-linejoin="bevel" >

<g fill="#c0c0c0" fill-opacity="1" stroke="none" transform="matrix(1,0,0,1,0,0)"
font-family="Noto Sans" font-size="10" font-weight="400" font-style="normal" 
>
<path vector-effect="none" fill-rule="evenodd" d="M1,6 C1,3.23858 3.23858,1 6,1 L95,1 C97.7614,1 100,3.23858 100,6 L100,125 C100,127.761 97.7614,130 95,130 L6,130 C3.23858,130 1,127.761 1,125 L1,6"/>
</g>

<g fill="none" stroke="#000000" stroke-opacity="1" stroke-width="2" stroke-linecap="square" stroke-linejoin="bevel" transform="matrix(1,0,0,1,0,0)"
font-family="Noto Sans" font-size="10" font-weight="400" font-style="normal" 
>
<path vector-effect="none" fill-rule="evenodd" d="M1,6 C1,3.23858 3.23858,1 6,1 L95,1 C97.7614,1 100,3.23858 100,6 L100,125 C100,127.761 97.7614,130 95,130 L6,130 C3.23858,130 1,127.761 1,125 L1,6"/>
</g>

<g fill="none" stroke="#000000" stroke-opacity="1" stroke-width="2" stroke-linecap="square" stroke-linejoin="bevel" transform="matrix(1,0,0,1,0,0)"
font-family="Noto Sans CJK JP" font-size="90" font-weight="400" font-style="normal" 
>
<path vector-effect="none" fill-rule="evenodd" d="M34.7031,105.734 C32.0938,105.734 26.9531,102.578 26.9531,99.6094 C26.9531,95.9219 31.7344,92.0469 36.9531,89.3438 C37.125,94.6563 37.3125,99.6094 37.3125,102.219 C37.3125,104.203 36.5938,105.734 34.7031,105.734 M43.0625,80.5313 C43.0625,77.2969 43.1563,73.4219 43.1563,69.7344 C49.6406,68.9219 55.5781,67.6563 58.6406,67.0313 L58.4531,60.5469 C54.1406,61.8125 48.8281,62.7969 43.3438,63.4375 C43.4219,60.7344 43.5156,58.3906 43.6094,56.8594 C43.7031,55.5 43.9688,52.8906 44.1406,51.7188 L36.8594,51.7188 C37.0313,52.7969 37.2188,55.4063 37.2188,56.8594 C37.2188,58.1094 37.125,60.7344 37.125,63.9688 C35.0625,64.0625 33.1719,64.1563 31.2813,64.1563 C29.2969,64.1563 26.1563,63.9688 21.8281,63.4375 L21.9219,70.0938 C26.2344,70.4531 28.4063,70.5469 31.2813,70.5469 C33.0781,70.5469 35.0625,70.4531 36.9531,70.3594 C36.9531,73.9688 36.8594,77.6563 36.8594,80.7969 L36.8594,83.2344 C29.2969,86.4688 20.5625,92.9531 20.5625,100.156 C20.5625,106.719 30.6563,112.391 36.5,112.391 C40.9063,112.391 43.5156,109.953 43.5156,103.484 C43.5156,100.156 43.25,93.3125 43.1563,86.8281 C47.6563,85.2188 52.5156,84.125 58.7344,84.125 C65.75,84.125 71.5,87.1875 71.5,93.6719 C71.5,99.9688 65.8438,103.75 59,105.016 C56.125,105.547 53.0625,105.547 50.3594,105.453 L52.5156,112.031 C54.4063,111.938 57.6406,111.844 60.7031,111.219 C72.5938,108.969 78.1719,102.219 78.1719,93.6719 C78.1719,84.3125 69.9844,78.4688 58.8125,78.4688 C53.5938,78.4688 48.2031,79.3594 43.0625,80.9844 L43.0625,80.5313 M64.0313,63.1563 C68.5313,65.4063 77.3594,70.9844 80.7813,74.3281 L84.375,68.75 C80.7813,65.7656 72.3125,60.4531 67.1875,57.8438 L64.0313,63.1563"/>
</g>

<g fill="#000000" fill-opacity="1" stroke="none" transform="matrix(1,0,0,1,0,0)"
font-family="Noto Sans CJK JP" font-size="90" font-weight="400" font-style="normal" 
>
<path vector-effect="none" fill-rule="evenodd" d="M34.7031,105.734 C32.0938,105.734 26.9531,102.578 26.9531,99.6094 C26.9531,95.9219 31.7344,92.0469 36.9531,89.3438 C37.125,94.6563 37.3125,99.6094 37.3125,102.219 C37.3125,104.203 36.5938,105.734 34.7031,105.734 M43.0625,80.5313 C43.0625,77.2969 43.1563,73.4219 43.1563,69.7344 C49.6406,68.9219 55.5781,67.6563 58.6406,67.0313 L58.4531,60.5469 C54.1406,61.8125 48.8281,62.7969 43.3438,63.4375 C43.4219,60.7344 43.5156,58.3906 43.6094,56.8594 C43.7031,55.5 43.9688,52.8906 44.1406,51.7188 L36.8594,51.7188 C37.0313,52.7969 37.2188,55.4063 37.2188,56.8594 C37.2188,58.1094 37.125,60.7344 37.125,63.9688 C35.0625,64.0625 33.1719,64.1563 31.2813,64.1563 C29.2969,64.1563 26.1563,63.9688 21.8281,63.4375 L21.9219,70.0938 C26.2344,70.4531 28.4063,70.5469 31.2813,70.5469 C33.0781,70.5469 35.0625,70.4531 36.9531,70.3594 C36.9531,73.9688 36.8594,77.6563 36.8594,80.7969 L36.8594,83.2344 C29.2969,86.4688 20.5625,92.9531 20.5625,100.156 C20.5625,106.719 30.6563,112.391 36.5,112.391 C40.9063,112.391 43.5156,109.953 43.5156,103.484 C43.5156,100.156 43.25,93.3125 43.1563,86.8281 C47.6563,85.2188 52.5156,84.125 58.7344,84.125 C65.75,84.125 71.5,87.1875 71.5,93.6719 C71.5,99.9688 65.8438,103.75 59,105.016 C56.125,105.547 53.0625,105.547 50.3594,105.453 L52.5156,112.031 C54.4063,111.938 57.6406,111.844 60.7031,111.219 C72.5938,108.969 78.1719,102.219 78.1719,93.6719 C78.1719,84.3125 69.9844,78.4688 58.8125,78.4688 C53.5938,78.4688 48.2031,79.3594 43.0625,80.9844 L43.0625,80.5313 M64.0313,63.1563 C68.5313,65.4063 77.3594,70.9844 80.7813,74.3281 L84.375,68.75 C80.7813,65.7656 72.3125,60.4531 67.1875,57.8438 L64.0313,63.1563"/>
</g>
</g>
</svg>
