<?xml version="1.0" encoding="UTF-8" standalone="no"?>
<svg width="35.2778mm" height="45.8611mm"
 xmlns="http://www.w3.org/2000/svg" xmlns:xlink="http://www.w3.org/1999/xlink"  version="1.2" baseProfile="tiny">
<title>Qt SVG Document</title>
<desc>Generated with Qt</desc>
<defs>
</defs>
<g fill="none" stroke="black" stroke-width="1" fill-rule="evenodd" stroke-linecap="square" stroke-linejoin="bevel" >

<g fill="#c0c0c0" fill-opacity="1" stroke="none" transform="matrix(1,0,0,1,0,0)"
font-family="Noto Sans" font-size="10" font-weight="400" font-style="normal" 
>
<path vector-effect="none" fill-rule="evenodd" d="M1,6 C1,3.23858 3.23858,1 6,1 L95,1 C97.7614,1 100,3.23858 100,6 L100,125 C100,127.761 97.7614,130 95,130 L6,130 C3.23858,130 1,127.761 1,125 L1,6"/>
</g>

<g fill="none" stroke="#000000" stroke-opacity="1" stroke-width="2" stroke-linecap="square" stroke-linejoin="bevel" transform="matrix(1,0,0,1,0,0)"
font-family="Noto Sans" font-size="10" font-weight="400" font-style="normal" 
>
<path vector-effect="none" fill-rule="evenodd" d="M1,6 C1,3.23858 3.23858,1 6,1 L95,1 C97.7614,1 100,3.23858 100,6 L100,125 C100,127.761 97.7614,130 95,130 L6,130 C3.23858,130 1,127.761 1,125 L1,6"/>
</g>

<g fill="none" stroke="#000000" stroke-opacity="1" stroke-width="2" stroke-linecap="square" stroke-linejoin="bevel" transform="matrix(1,0,0,1,0,0)"
font-family="Noto Sans CJK JP" font-size="90" font-weight="400" font-style="normal" 
>
<path vector-effect="none" fill-rule="evenodd" d="M56.75,59.2969 C54.2344,56.5781 49.4531,52.625 47.0313,50.9063 L42.0781,54.6875 C45.3125,57.0313 49.0938,60.375 51.7031,63.1563 L56.75,59.2969 M23.1719,60.2813 C24.5313,61.7188 25.9688,63.9688 26.7813,65.4063 C27.8594,67.0313 29.2031,69.7344 30.7344,72.875 C27.4063,74.4063 24.3438,75.7656 21.9219,76.75 C20.5625,77.2031 18.2344,78.0156 15.625,78.6406 L19.0469,85.6563 C22.0156,84.3125 27.3125,81.6094 33.4375,78.6406 L36.3125,85.125 C40.2813,94.2188 43.875,105.938 46.2188,114.406 L53.3281,112.516 C50.8125,104.672 46.3906,91.3281 42.5313,82.4219 C41.625,80.4375 40.6406,78.1875 39.5625,75.8594 C48.0156,71.9844 57.1094,68.6563 62.9531,68.6563 C70.875,68.6563 73.5781,73.0625 73.5781,76.75 C73.5781,81.5156 70.7031,85.9375 62.1406,85.9375 C58.5469,85.9375 54.5,84.7656 51.7031,83.4063 L51.4375,90.0781 C54.0469,91.0625 58.4531,92.2344 62.5,92.2344 C74.75,92.2344 80.3281,86.0156 80.3281,76.75 C80.3281,69.2813 74.9219,62.3594 63.2344,62.3594 C56.2031,62.3594 45.9531,66.3125 36.8594,70.2656 C35.2344,66.8594 33.7031,63.7969 32.5313,61.7188 C31.8125,60.5469 30.9219,58.9219 30.2813,57.4844 L23.1719,60.2813"/>
</g>

<g fill="#000000" fill-opacity="1" stroke="none" transform="matrix(1,0,0,1,0,0)"
font-family="Noto Sans CJK JP" font-size="90" font-weight="400" font-style="normal" 
>
<path vector-effect="none" fill-rule="evenodd" d="M56.75,59.2969 C54.2344,56.5781 49.4531,52.625 47.0313,50.9063 L42.0781,54.6875 C45.3125,57.0313 49.0938,60.375 51.7031,63.1563 L56.75,59.2969 M23.1719,60.2813 C24.5313,61.7188 25.9688,63.9688 26.7813,65.4063 C27.8594,67.0313 29.2031,69.7344 30.7344,72.875 C27.4063,74.4063 24.3438,75.7656 21.9219,76.75 C20.5625,77.2031 18.2344,78.0156 15.625,78.6406 L19.0469,85.6563 C22.0156,84.3125 27.3125,81.6094 33.4375,78.6406 L36.3125,85.125 C40.2813,94.2188 43.875,105.938 46.2188,114.406 L53.3281,112.516 C50.8125,104.672 46.3906,91.3281 42.5313,82.4219 C41.625,80.4375 40.6406,78.1875 39.5625,75.8594 C48.0156,71.9844 57.1094,68.6563 62.9531,68.6563 C70.875,68.6563 73.5781,73.0625 73.5781,76.75 C73.5781,81.5156 70.7031,85.9375 62.1406,85.9375 C58.5469,85.9375 54.5,84.7656 51.7031,83.4063 L51.4375,90.0781 C54.0469,91.0625 58.4531,92.2344 62.5,92.2344 C74.75,92.2344 80.3281,86.0156 80.3281,76.75 C80.3281,69.2813 74.9219,62.3594 63.2344,62.3594 C56.2031,62.3594 45.9531,66.3125 36.8594,70.2656 C35.2344,66.8594 33.7031,63.7969 32.5313,61.7188 C31.8125,60.5469 30.9219,58.9219 30.2813,57.4844 L23.1719,60.2813"/>
</g>
</g>
</svg>
