<?xml version="1.0" encoding="UTF-8" standalone="no"?>
<svg width="35.2778mm" height="45.8611mm"
 xmlns="http://www.w3.org/2000/svg" xmlns:xlink="http://www.w3.org/1999/xlink"  version="1.2" baseProfile="tiny">
<title>Qt SVG Document</title>
<desc>Generated with Qt</desc>
<defs>
</defs>
<g fill="none" stroke="black" stroke-width="1" fill-rule="evenodd" stroke-linecap="square" stroke-linejoin="bevel" >

<g fill="#c0c0c0" fill-opacity="1" stroke="none" transform="matrix(1,0,0,1,0,0)"
font-family="Noto Sans" font-size="10" font-weight="400" font-style="normal" 
>
<path vector-effect="none" fill-rule="evenodd" d="M1,6 C1,3.23858 3.23858,1 6,1 L95,1 C97.7614,1 100,3.23858 100,6 L100,125 C100,127.761 97.7614,130 95,130 L6,130 C3.23858,130 1,127.761 1,125 L1,6"/>
</g>

<g fill="none" stroke="#000000" stroke-opacity="1" stroke-width="2" stroke-linecap="square" stroke-linejoin="bevel" transform="matrix(1,0,0,1,0,0)"
font-family="Noto Sans" font-size="10" font-weight="400" font-style="normal" 
>
<path vector-effect="none" fill-rule="evenodd" d="M1,6 C1,3.23858 3.23858,1 6,1 L95,1 C97.7614,1 100,3.23858 100,6 L100,125 C100,127.761 97.7614,130 95,130 L6,130 C3.23858,130 1,127.761 1,125 L1,6"/>
</g>

<g fill="none" stroke="#000000" stroke-opacity="1" stroke-width="2" stroke-linecap="square" stroke-linejoin="bevel" transform="matrix(1,0,0,1,0,0)"
font-family="Noto Sans CJK JP" font-size="90" font-weight="400" font-style="normal" 
>
<path vector-effect="none" fill-rule="evenodd" d="M34.5156,107.891 L42.7031,107.891 L42.7031,79.1875 C48.5625,68.9219 55.3906,65.1406 62.9531,65.1406 C66.7344,65.1406 68.8125,65.6875 71.9531,66.8594 L74.125,59.8281 C70.9688,58.3906 68,57.8594 64.125,57.8594 C55.0313,57.8594 47.3906,62.625 42.2656,70.4531 L42.0781,70.4531 L41.3594,58.9375 L34.5156,58.9375 L34.5156,107.891"/>
</g>

<g fill="#000000" fill-opacity="1" stroke="none" transform="matrix(1,0,0,1,0,0)"
font-family="Noto Sans CJK JP" font-size="90" font-weight="400" font-style="normal" 
>
<path vector-effect="none" fill-rule="evenodd" d="M34.5156,107.891 L42.7031,107.891 L42.7031,79.1875 C48.5625,68.9219 55.3906,65.1406 62.9531,65.1406 C66.7344,65.1406 68.8125,65.6875 71.9531,66.8594 L74.125,59.8281 C70.9688,58.3906 68,57.8594 64.125,57.8594 C55.0313,57.8594 47.3906,62.625 42.2656,70.4531 L42.0781,70.4531 L41.3594,58.9375 L34.5156,58.9375 L34.5156,107.891"/>
</g>
</g>
</svg>
