<?xml version="1.0" encoding="UTF-8" standalone="no"?>
<svg width="35.2778mm" height="45.8611mm"
 xmlns="http://www.w3.org/2000/svg" xmlns:xlink="http://www.w3.org/1999/xlink"  version="1.2" baseProfile="tiny">
<title>Qt SVG Document</title>
<desc>Generated with Qt</desc>
<defs>
</defs>
<g fill="none" stroke="black" stroke-width="1" fill-rule="evenodd" stroke-linecap="square" stroke-linejoin="bevel" >

<g fill="#c0c0c0" fill-opacity="1" stroke="none" transform="matrix(1,0,0,1,0,0)"
font-family="Noto Sans" font-size="10" font-weight="400" font-style="normal" 
>
<path vector-effect="none" fill-rule="evenodd" d="M1,6 C1,3.23858 3.23858,1 6,1 L95,1 C97.7614,1 100,3.23858 100,6 L100,125 C100,127.761 97.7614,130 95,130 L6,130 C3.23858,130 1,127.761 1,125 L1,6"/>
</g>

<g fill="none" stroke="#000000" stroke-opacity="1" stroke-width="2" stroke-linecap="square" stroke-linejoin="bevel" transform="matrix(1,0,0,1,0,0)"
font-family="Noto Sans" font-size="10" font-weight="400" font-style="normal" 
>
<path vector-effect="none" fill-rule="evenodd" d="M1,6 C1,3.23858 3.23858,1 6,1 L95,1 C97.7614,1 100,3.23858 100,6 L100,125 C100,127.761 97.7614,130 95,130 L6,130 C3.23858,130 1,127.761 1,125 L1,6"/>
</g>

<g fill="none" stroke="#000000" stroke-opacity="1" stroke-width="2" stroke-linecap="square" stroke-linejoin="bevel" transform="matrix(1,0,0,1,0,0)"
font-family="Noto Sans CJK JP" font-size="90" font-weight="400" font-style="normal" 
>
<path vector-effect="none" fill-rule="evenodd" d="M59.9844,68.2969 C56.125,78.1094 50.8125,85.2969 44.9531,90.7969 C44.0625,85.6563 43.4219,80.2656 43.4219,74.5938 C43.4219,73.4219 43.4219,72.25 43.4219,71.0781 C47.6563,69.5469 52.7813,68.2969 58.5469,68.2969 L59.9844,68.2969 M37.125,75.4063 C37.125,82.0625 37.9375,89.1719 39.2031,95.5625 C34.7031,98.7188 30.375,100.234 26.9531,100.234 C23.625,100.234 21.9219,98.4375 21.9219,94.8438 C21.9219,87.6406 28.4844,78.8281 37.125,73.875 L37.125,75.4063 M68.4531,63.3438 C68.9844,62 69.7031,59.5625 70.25,58.3906 L63.0469,56.5938 C62.9531,58.0313 62.5,60.375 62.1406,61.7188 L61.875,62.5313 C60.7969,62.4375 59.7188,62.4375 58.6406,62.4375 C54.1406,62.4375 48.6406,63.25 43.7031,64.7813 C43.9688,61 44.2344,57.2188 44.5938,53.7969 C55.4844,53.2656 67.375,52.0938 76.7344,50.5625 L76.6406,43.8125 C67.4531,45.875 56.6563,47.0469 45.4063,47.5938 C45.7656,44.9844 46.125,42.7188 46.4844,40.8281 C46.7656,39.6563 47.125,38.0313 47.5625,36.8594 L40.0156,36.6719 C40.0156,37.7656 39.9219,39.4688 39.7344,40.9219 C39.5625,42.8125 39.2813,45.1563 39.0156,47.7656 C37.0313,47.8594 35.0625,47.8594 33.0781,47.8594 C29.2969,47.8594 21.4688,47.2344 18.4063,46.7813 L18.5938,53.5313 C22.1875,53.7188 29.125,54.0781 32.9844,54.0781 C34.7031,54.0781 36.5,54.0781 38.3906,53.9844 C38.0313,58.125 37.5781,62.625 37.4063,67.125 C25.1563,72.7031 15.1719,84.4844 15.1719,95.9219 C15.1719,103.578 19.7656,107.172 25.7969,107.172 C30.5625,107.172 35.875,105.281 40.7344,102.313 C41.1719,104.109 41.7188,105.734 42.1719,107.266 L48.7344,105.281 C48.0156,103.031 47.2969,100.594 46.5781,98.0781 C54.1406,91.6875 61.3438,81.875 66.2813,69.2813 C74.6563,71.5313 79.0625,77.6563 79.0625,84.4063 C79.0625,95.9219 69.1719,104.203 53.1406,105.906 L57.0156,111.953 C77.7188,108.703 86.1719,97.5469 86.1719,84.7656 C86.1719,74.9531 79.5156,66.6719 68.3594,63.7031 L68.4531,63.3438"/>
</g>

<g fill="#000000" fill-opacity="1" stroke="none" transform="matrix(1,0,0,1,0,0)"
font-family="Noto Sans CJK JP" font-size="90" font-weight="400" font-style="normal" 
>
<path vector-effect="none" fill-rule="evenodd" d="M59.9844,68.2969 C56.125,78.1094 50.8125,85.2969 44.9531,90.7969 C44.0625,85.6563 43.4219,80.2656 43.4219,74.5938 C43.4219,73.4219 43.4219,72.25 43.4219,71.0781 C47.6563,69.5469 52.7813,68.2969 58.5469,68.2969 L59.9844,68.2969 M37.125,75.4063 C37.125,82.0625 37.9375,89.1719 39.2031,95.5625 C34.7031,98.7188 30.375,100.234 26.9531,100.234 C23.625,100.234 21.9219,98.4375 21.9219,94.8438 C21.9219,87.6406 28.4844,78.8281 37.125,73.875 L37.125,75.4063 M68.4531,63.3438 C68.9844,62 69.7031,59.5625 70.25,58.3906 L63.0469,56.5938 C62.9531,58.0313 62.5,60.375 62.1406,61.7188 L61.875,62.5313 C60.7969,62.4375 59.7188,62.4375 58.6406,62.4375 C54.1406,62.4375 48.6406,63.25 43.7031,64.7813 C43.9688,61 44.2344,57.2188 44.5938,53.7969 C55.4844,53.2656 67.375,52.0938 76.7344,50.5625 L76.6406,43.8125 C67.4531,45.875 56.6563,47.0469 45.4063,47.5938 C45.7656,44.9844 46.125,42.7188 46.4844,40.8281 C46.7656,39.6563 47.125,38.0313 47.5625,36.8594 L40.0156,36.6719 C40.0156,37.7656 39.9219,39.4688 39.7344,40.9219 C39.5625,42.8125 39.2813,45.1563 39.0156,47.7656 C37.0313,47.8594 35.0625,47.8594 33.0781,47.8594 C29.2969,47.8594 21.4688,47.2344 18.4063,46.7813 L18.5938,53.5313 C22.1875,53.7188 29.125,54.0781 32.9844,54.0781 C34.7031,54.0781 36.5,54.0781 38.3906,53.9844 C38.0313,58.125 37.5781,62.625 37.4063,67.125 C25.1563,72.7031 15.1719,84.4844 15.1719,95.9219 C15.1719,103.578 19.7656,107.172 25.7969,107.172 C30.5625,107.172 35.875,105.281 40.7344,102.313 C41.1719,104.109 41.7188,105.734 42.1719,107.266 L48.7344,105.281 C48.0156,103.031 47.2969,100.594 46.5781,98.0781 C54.1406,91.6875 61.3438,81.875 66.2813,69.2813 C74.6563,71.5313 79.0625,77.6563 79.0625,84.4063 C79.0625,95.9219 69.1719,104.203 53.1406,105.906 L57.0156,111.953 C77.7188,108.703 86.1719,97.5469 86.1719,84.7656 C86.1719,74.9531 79.5156,66.6719 68.3594,63.7031 L68.4531,63.3438"/>
</g>
</g>
</svg>
