<?xml version="1.0" encoding="UTF-8" standalone="no"?>
<svg width="35.2778mm" height="45.8611mm"
 xmlns="http://www.w3.org/2000/svg" xmlns:xlink="http://www.w3.org/1999/xlink"  version="1.2" baseProfile="tiny">
<title>Qt SVG Document</title>
<desc>Generated with Qt</desc>
<defs>
</defs>
<g fill="none" stroke="black" stroke-width="1" fill-rule="evenodd" stroke-linecap="square" stroke-linejoin="bevel" >

<g fill="#c0c0c0" fill-opacity="1" stroke="none" transform="matrix(1,0,0,1,0,0)"
font-family="Noto Sans" font-size="10" font-weight="400" font-style="normal" 
>
<path vector-effect="none" fill-rule="evenodd" d="M1,6 C1,3.23858 3.23858,1 6,1 L95,1 C97.7614,1 100,3.23858 100,6 L100,125 C100,127.761 97.7614,130 95,130 L6,130 C3.23858,130 1,127.761 1,125 L1,6"/>
</g>

<g fill="none" stroke="#000000" stroke-opacity="1" stroke-width="2" stroke-linecap="square" stroke-linejoin="bevel" transform="matrix(1,0,0,1,0,0)"
font-family="Noto Sans" font-size="10" font-weight="400" font-style="normal" 
>
<path vector-effect="none" fill-rule="evenodd" d="M1,6 C1,3.23858 3.23858,1 6,1 L95,1 C97.7614,1 100,3.23858 100,6 L100,125 C100,127.761 97.7614,130 95,130 L6,130 C3.23858,130 1,127.761 1,125 L1,6"/>
</g>

<g fill="none" stroke="#000000" stroke-opacity="1" stroke-width="2" stroke-linecap="square" stroke-linejoin="bevel" transform="matrix(1,0,0,1,0,0)"
font-family="Noto Sans CJK JP" font-size="90" font-weight="400" font-style="normal" 
>
<path vector-effect="none" fill-rule="evenodd" d="M91.0313,92.9531 C86.8906,97.4531 82.125,100.328 77.625,100.328 C74.4844,100.328 73.0313,97.9844 73.0313,94.9375 C73.0313,85.9375 76.3594,70.5469 76.3594,61.625 C76.3594,54.3438 72.1406,49.6563 63.7656,49.6563 C54.8594,49.6563 43.4219,58.2188 36.5,64.6094 C36.6719,62.8906 36.7656,61.1875 36.9531,59.5625 C38.2969,57.4063 39.8281,54.9688 40.9063,53.3594 L38.2969,50.2031 L37.8438,50.3906 C38.4844,44.1563 39.2031,39.1094 39.6563,36.9531 L31.0938,36.6719 C31.5469,38.9375 31.4531,41.2813 31.4531,43.3438 C31.4531,44.3438 31.2813,47.5 31.0156,51.7344 C26.4219,52.4531 21.2031,53 18.3125,53.1719 C16.1563,53.3594 14.4531,53.3594 12.4688,53.2656 L13.1875,60.7344 C18.7656,60.0156 26.5156,58.9375 30.5625,58.4844 C30.375,61.2656 30.2031,64.1563 30.0156,67.0313 C25.5156,74.0469 15.2656,87.9063 10.3125,94.125 L14.8125,100.328 C19.125,94.3906 24.9844,85.8438 29.2969,79.2656 C29.2969,80.625 29.2031,81.7969 29.2031,82.6875 C29.0313,92.5938 29.0313,97 28.9375,105.547 C28.9375,106.984 28.7656,109.609 28.6719,110.875 L36.5,110.875 C36.3125,109.25 36.1406,106.984 36.0469,105.453 C35.6875,97.4531 35.6875,92.0469 35.6875,83.9531 C35.6875,80.7969 35.7813,77.2969 35.9531,73.5156 C44.1406,64.6875 54.9531,56.3281 62.1406,56.3281 C66.6406,56.3281 69.25,58.4844 69.25,63.6094 C69.25,72.25 65.9219,86.9219 65.9219,96.8281 C65.9219,104.203 69.9844,108.156 75.8281,108.156 C81.9531,108.156 87.5313,105.453 92.2031,100.688 L91.0313,92.9531"/>
</g>

<g fill="#000000" fill-opacity="1" stroke="none" transform="matrix(1,0,0,1,0,0)"
font-family="Noto Sans CJK JP" font-size="90" font-weight="400" font-style="normal" 
>
<path vector-effect="none" fill-rule="evenodd" d="M91.0313,92.9531 C86.8906,97.4531 82.125,100.328 77.625,100.328 C74.4844,100.328 73.0313,97.9844 73.0313,94.9375 C73.0313,85.9375 76.3594,70.5469 76.3594,61.625 C76.3594,54.3438 72.1406,49.6563 63.7656,49.6563 C54.8594,49.6563 43.4219,58.2188 36.5,64.6094 C36.6719,62.8906 36.7656,61.1875 36.9531,59.5625 C38.2969,57.4063 39.8281,54.9688 40.9063,53.3594 L38.2969,50.2031 L37.8438,50.3906 C38.4844,44.1563 39.2031,39.1094 39.6563,36.9531 L31.0938,36.6719 C31.5469,38.9375 31.4531,41.2813 31.4531,43.3438 C31.4531,44.3438 31.2813,47.5 31.0156,51.7344 C26.4219,52.4531 21.2031,53 18.3125,53.1719 C16.1563,53.3594 14.4531,53.3594 12.4688,53.2656 L13.1875,60.7344 C18.7656,60.0156 26.5156,58.9375 30.5625,58.4844 C30.375,61.2656 30.2031,64.1563 30.0156,67.0313 C25.5156,74.0469 15.2656,87.9063 10.3125,94.125 L14.8125,100.328 C19.125,94.3906 24.9844,85.8438 29.2969,79.2656 C29.2969,80.625 29.2031,81.7969 29.2031,82.6875 C29.0313,92.5938 29.0313,97 28.9375,105.547 C28.9375,106.984 28.7656,109.609 28.6719,110.875 L36.5,110.875 C36.3125,109.25 36.1406,106.984 36.0469,105.453 C35.6875,97.4531 35.6875,92.0469 35.6875,83.9531 C35.6875,80.7969 35.7813,77.2969 35.9531,73.5156 C44.1406,64.6875 54.9531,56.3281 62.1406,56.3281 C66.6406,56.3281 69.25,58.4844 69.25,63.6094 C69.25,72.25 65.9219,86.9219 65.9219,96.8281 C65.9219,104.203 69.9844,108.156 75.8281,108.156 C81.9531,108.156 87.5313,105.453 92.2031,100.688 L91.0313,92.9531"/>
</g>
</g>
</svg>
