<?xml version="1.0" encoding="UTF-8" standalone="no"?>
<svg width="35.2778mm" height="45.8611mm"
 xmlns="http://www.w3.org/2000/svg" xmlns:xlink="http://www.w3.org/1999/xlink"  version="1.2" baseProfile="tiny">
<title>Qt SVG Document</title>
<desc>Generated with Qt</desc>
<defs>
</defs>
<g fill="none" stroke="black" stroke-width="1" fill-rule="evenodd" stroke-linecap="square" stroke-linejoin="bevel" >

<g fill="#c0c0c0" fill-opacity="1" stroke="none" transform="matrix(1,0,0,1,0,0)"
font-family="Noto Sans" font-size="10" font-weight="400" font-style="normal" 
>
<path vector-effect="none" fill-rule="evenodd" d="M1,6 C1,3.23858 3.23858,1 6,1 L95,1 C97.7614,1 100,3.23858 100,6 L100,125 C100,127.761 97.7614,130 95,130 L6,130 C3.23858,130 1,127.761 1,125 L1,6"/>
</g>

<g fill="none" stroke="#000000" stroke-opacity="1" stroke-width="2" stroke-linecap="square" stroke-linejoin="bevel" transform="matrix(1,0,0,1,0,0)"
font-family="Noto Sans" font-size="10" font-weight="400" font-style="normal" 
>
<path vector-effect="none" fill-rule="evenodd" d="M1,6 C1,3.23858 3.23858,1 6,1 L95,1 C97.7614,1 100,3.23858 100,6 L100,125 C100,127.761 97.7614,130 95,130 L6,130 C3.23858,130 1,127.761 1,125 L1,6"/>
</g>

<g fill="none" stroke="#000000" stroke-opacity="1" stroke-width="2" stroke-linecap="square" stroke-linejoin="bevel" transform="matrix(1,0,0,1,0,0)"
font-family="Noto Sans CJK JP" font-size="90" font-weight="400" font-style="normal" 
>
<path vector-effect="none" fill-rule="evenodd" d="M62.6875,102.047 C57.6406,102.047 53.5938,100.063 53.5938,95.4688 C53.5938,91.875 57.6406,89.2656 62.2344,89.2656 C66.4688,89.2656 70.5156,90.4375 74.3906,92.5 C72.4063,98.3438 68.8906,102.047 62.6875,102.047 M38.2969,50.2031 L37.8438,50.3906 C38.4844,44.1563 39.2031,39.1094 39.6563,36.9531 L31.0938,36.6719 C31.5469,38.9375 31.4531,41.2813 31.4531,43.3438 C31.4531,44.3438 31.2813,47.5781 31.0156,51.7344 C26.4219,52.5469 21.2031,53.0781 18.3125,53.2656 C16.1563,53.3594 14.4531,53.4375 12.4688,53.3594 L13.1875,60.7344 C18.7656,60.0156 26.5156,58.9375 30.5625,58.4844 C30.375,61.2656 30.2031,64.1563 30.0156,67.0313 C25.5156,74.0469 15.2656,87.9063 10.3125,94.125 L14.8125,100.328 C19.125,94.3906 24.9844,85.8438 29.2969,79.2656 C29.2969,80.625 29.2031,81.7969 29.2031,82.6875 C29.0313,92.5938 29.0313,97 28.9375,105.547 C28.9375,106.984 28.7656,109.609 28.6719,110.875 L36.5,110.875 C36.3125,109.25 36.1406,106.984 36.0469,105.453 C35.6875,97.4531 35.6875,92.0469 35.6875,83.9531 C35.6875,80.5313 35.7813,76.5781 36.0469,72.5156 C43.875,64.1563 55.3906,55.6094 63.6719,55.6094 C71.0625,55.6094 76.5469,62.4375 76.5469,73.6094 C76.5469,78.1094 76.3594,82.3281 75.8281,86.1094 C71.9531,84.4063 67.6406,83.4063 62.875,83.4063 C53.7813,83.4063 47.3906,88.625 47.3906,95.7344 C47.3906,104.734 54.5938,108.438 63.1406,108.438 C72.1406,108.438 77.4531,104.109 80.4219,96.5469 C83.0313,98.7188 85.7344,101.328 88.3438,104.297 L92.1094,98.4375 C89.0625,95.2031 85.8125,92.2344 82.2188,89.7188 C83.0313,85.3906 83.3906,80.4375 83.3906,74.8594 C83.3906,60.1094 77,49.2969 64.9375,49.2969 C55.2188,49.2969 44.1406,57.2188 36.5938,63.9688 C36.6719,62.4375 36.8594,61 36.9531,59.5625 C38.2969,57.4063 39.8281,54.9688 40.9063,53.3594 L38.2969,50.2031"/>
</g>

<g fill="#000000" fill-opacity="1" stroke="none" transform="matrix(1,0,0,1,0,0)"
font-family="Noto Sans CJK JP" font-size="90" font-weight="400" font-style="normal" 
>
<path vector-effect="none" fill-rule="evenodd" d="M62.6875,102.047 C57.6406,102.047 53.5938,100.063 53.5938,95.4688 C53.5938,91.875 57.6406,89.2656 62.2344,89.2656 C66.4688,89.2656 70.5156,90.4375 74.3906,92.5 C72.4063,98.3438 68.8906,102.047 62.6875,102.047 M38.2969,50.2031 L37.8438,50.3906 C38.4844,44.1563 39.2031,39.1094 39.6563,36.9531 L31.0938,36.6719 C31.5469,38.9375 31.4531,41.2813 31.4531,43.3438 C31.4531,44.3438 31.2813,47.5781 31.0156,51.7344 C26.4219,52.5469 21.2031,53.0781 18.3125,53.2656 C16.1563,53.3594 14.4531,53.4375 12.4688,53.3594 L13.1875,60.7344 C18.7656,60.0156 26.5156,58.9375 30.5625,58.4844 C30.375,61.2656 30.2031,64.1563 30.0156,67.0313 C25.5156,74.0469 15.2656,87.9063 10.3125,94.125 L14.8125,100.328 C19.125,94.3906 24.9844,85.8438 29.2969,79.2656 C29.2969,80.625 29.2031,81.7969 29.2031,82.6875 C29.0313,92.5938 29.0313,97 28.9375,105.547 C28.9375,106.984 28.7656,109.609 28.6719,110.875 L36.5,110.875 C36.3125,109.25 36.1406,106.984 36.0469,105.453 C35.6875,97.4531 35.6875,92.0469 35.6875,83.9531 C35.6875,80.5313 35.7813,76.5781 36.0469,72.5156 C43.875,64.1563 55.3906,55.6094 63.6719,55.6094 C71.0625,55.6094 76.5469,62.4375 76.5469,73.6094 C76.5469,78.1094 76.3594,82.3281 75.8281,86.1094 C71.9531,84.4063 67.6406,83.4063 62.875,83.4063 C53.7813,83.4063 47.3906,88.625 47.3906,95.7344 C47.3906,104.734 54.5938,108.438 63.1406,108.438 C72.1406,108.438 77.4531,104.109 80.4219,96.5469 C83.0313,98.7188 85.7344,101.328 88.3438,104.297 L92.1094,98.4375 C89.0625,95.2031 85.8125,92.2344 82.2188,89.7188 C83.0313,85.3906 83.3906,80.4375 83.3906,74.8594 C83.3906,60.1094 77,49.2969 64.9375,49.2969 C55.2188,49.2969 44.1406,57.2188 36.5938,63.9688 C36.6719,62.4375 36.8594,61 36.9531,59.5625 C38.2969,57.4063 39.8281,54.9688 40.9063,53.3594 L38.2969,50.2031"/>
</g>
</g>
</svg>
