<?xml version="1.0" encoding="UTF-8" standalone="no"?>
<svg width="70.5556mm" height="45.8611mm"
 xmlns="http://www.w3.org/2000/svg" xmlns:xlink="http://www.w3.org/1999/xlink"  version="1.2" baseProfile="tiny">
<title>Qt SVG Document</title>
<desc>Generated with Qt</desc>
<defs>
</defs>
<g fill="none" stroke="black" stroke-width="1" fill-rule="evenodd" stroke-linecap="square" stroke-linejoin="bevel" >

<g fill="#808080" fill-opacity="1" stroke="none" transform="matrix(1,0,0,1,0,0)"
font-family="Noto Sans" font-size="10" font-weight="400" font-style="normal" 
>
<path vector-effect="none" fill-rule="evenodd" d="M1,6 C1,3.23858 3.23858,1 6,1 L195,1 C197.761,1 200,3.23858 200,6 L200,125 C200,127.761 197.761,130 195,130 L6,130 C3.23858,130 1,127.761 1,125 L1,6"/>
</g>

<g fill="none" stroke="#000000" stroke-opacity="1" stroke-width="2" stroke-linecap="square" stroke-linejoin="bevel" transform="matrix(1,0,0,1,0,0)"
font-family="Noto Sans" font-size="10" font-weight="400" font-style="normal" 
>
<path vector-effect="none" fill-rule="evenodd" d="M1,6 C1,3.23858 3.23858,1 6,1 L195,1 C197.761,1 200,3.23858 200,6 L200,125 C200,127.761 197.761,130 195,130 L6,130 C3.23858,130 1,127.761 1,125 L1,6"/>
</g>

<g fill="none" stroke="#000000" stroke-opacity="1" stroke-width="2" stroke-linecap="square" stroke-linejoin="bevel" transform="matrix(1,0,0,1,0,0)"
font-family="Noto Sans CJK JP" font-size="90" font-weight="400" font-style="normal" 
>
<path vector-effect="none" fill-rule="evenodd" d="M36.8125,101.391 L45.0938,101.391 L45.0938,71.875 L73.5313,71.875 L73.5313,64.7656 L45.0938,64.7656 L45.0938,42.3594 L80.2031,42.3594 L80.2031,35.25 L36.8125,35.25 L36.8125,101.391 M147.141,95.9063 C138.328,95.9063 131.297,90.0469 129.859,76.7344 C133.906,70.6094 139.859,66.6563 146.516,66.6563 C154.438,66.6563 160.828,71.1563 160.828,80.6875 C160.828,90.3281 155.156,95.9063 147.141,95.9063 M167.578,42 C163.609,37.6719 157.766,34.25 148.938,34.25 C135.438,34.25 121.672,44.6094 121.672,71.6094 C121.672,93.2969 133.281,102.469 147.047,102.469 C159.109,102.469 168.656,94.4531 168.656,80.5156 C168.656,66.7344 158.938,60.2656 147.594,60.2656 C140.125,60.2656 134.359,63.8594 129.594,68.9844 C130.313,47.75 140.391,41.0938 149.125,41.0938 C154.969,41.0938 159.016,43.0781 162.891,47.125 L167.578,42"/>
</g>

<g fill="#ffffff" fill-opacity="1" stroke="none" transform="matrix(1,0,0,1,0,0)"
font-family="Noto Sans CJK JP" font-size="90" font-weight="400" font-style="normal" 
>
<path vector-effect="none" fill-rule="evenodd" d="M36.8125,101.391 L45.0938,101.391 L45.0938,71.875 L73.5313,71.875 L73.5313,64.7656 L45.0938,64.7656 L45.0938,42.3594 L80.2031,42.3594 L80.2031,35.25 L36.8125,35.25 L36.8125,101.391 M147.141,95.9063 C138.328,95.9063 131.297,90.0469 129.859,76.7344 C133.906,70.6094 139.859,66.6563 146.516,66.6563 C154.438,66.6563 160.828,71.1563 160.828,80.6875 C160.828,90.3281 155.156,95.9063 147.141,95.9063 M167.578,42 C163.609,37.6719 157.766,34.25 148.938,34.25 C135.438,34.25 121.672,44.6094 121.672,71.6094 C121.672,93.2969 133.281,102.469 147.047,102.469 C159.109,102.469 168.656,94.4531 168.656,80.5156 C168.656,66.7344 158.938,60.2656 147.594,60.2656 C140.125,60.2656 134.359,63.8594 129.594,68.9844 C130.313,47.75 140.391,41.0938 149.125,41.0938 C154.969,41.0938 159.016,43.0781 162.891,47.125 L167.578,42"/>
</g>
</g>
</svg>
