<?xml version="1.0" encoding="UTF-8" standalone="no"?>
<svg width="35.2778mm" height="45.8611mm"
 xmlns="http://www.w3.org/2000/svg" xmlns:xlink="http://www.w3.org/1999/xlink"  version="1.2" baseProfile="tiny">
<title>Qt SVG Document</title>
<desc>Generated with Qt</desc>
<defs>
</defs>
<g fill="none" stroke="black" stroke-width="1" fill-rule="evenodd" stroke-linecap="square" stroke-linejoin="bevel" >

<g fill="#c0c0c0" fill-opacity="1" stroke="none" transform="matrix(1,0,0,1,0,0)"
font-family="Noto Sans" font-size="10" font-weight="400" font-style="normal" 
>
<path vector-effect="none" fill-rule="evenodd" d="M1,6 C1,3.23858 3.23858,1 6,1 L95,1 C97.7614,1 100,3.23858 100,6 L100,125 C100,127.761 97.7614,130 95,130 L6,130 C3.23858,130 1,127.761 1,125 L1,6"/>
</g>

<g fill="none" stroke="#000000" stroke-opacity="1" stroke-width="2" stroke-linecap="square" stroke-linejoin="bevel" transform="matrix(1,0,0,1,0,0)"
font-family="Noto Sans" font-size="10" font-weight="400" font-style="normal" 
>
<path vector-effect="none" fill-rule="evenodd" d="M1,6 C1,3.23858 3.23858,1 6,1 L95,1 C97.7614,1 100,3.23858 100,6 L100,125 C100,127.761 97.7614,130 95,130 L6,130 C3.23858,130 1,127.761 1,125 L1,6"/>
</g>

<g fill="none" stroke="#000000" stroke-opacity="1" stroke-width="2" stroke-linecap="square" stroke-linejoin="bevel" transform="matrix(1,0,0,1,0,0)"
font-family="Noto Sans CJK JP" font-size="90" font-weight="400" font-style="normal" 
>
<path vector-effect="none" fill-rule="evenodd" d="M25.875,83.5 C25.875,99.4375 38.0313,108.969 52.9688,108.969 C61.25,108.969 67.8125,106.625 72.7656,103.391 L69.8906,97.9063 C65.2031,100.875 60.0781,102.406 53.9531,102.406 C42.7969,102.406 34.7031,95.8281 34.3438,85.4844 L74.3906,85.4844 C74.5625,84.2188 74.75,82.4219 74.75,80.7188 C74.75,67.0313 66.1094,57.8594 51.625,57.8594 C38.4844,57.8594 25.875,67.5781 25.875,83.5 M34.25,79.5469 C35.5938,70 43.25,64.3281 51.7031,64.3281 C61.3438,64.3281 67.1875,69.8281 67.1875,79.5469 L34.25,79.5469"/>
</g>

<g fill="#000000" fill-opacity="1" stroke="none" transform="matrix(1,0,0,1,0,0)"
font-family="Noto Sans CJK JP" font-size="90" font-weight="400" font-style="normal" 
>
<path vector-effect="none" fill-rule="evenodd" d="M25.875,83.5 C25.875,99.4375 38.0313,108.969 52.9688,108.969 C61.25,108.969 67.8125,106.625 72.7656,103.391 L69.8906,97.9063 C65.2031,100.875 60.0781,102.406 53.9531,102.406 C42.7969,102.406 34.7031,95.8281 34.3438,85.4844 L74.3906,85.4844 C74.5625,84.2188 74.75,82.4219 74.75,80.7188 C74.75,67.0313 66.1094,57.8594 51.625,57.8594 C38.4844,57.8594 25.875,67.5781 25.875,83.5 M34.25,79.5469 C35.5938,70 43.25,64.3281 51.7031,64.3281 C61.3438,64.3281 67.1875,69.8281 67.1875,79.5469 L34.25,79.5469"/>
</g>
</g>
</svg>
