<?xml version="1.0" encoding="UTF-8" standalone="no"?>
<svg width="35.2778mm" height="45.8611mm"
 xmlns="http://www.w3.org/2000/svg" xmlns:xlink="http://www.w3.org/1999/xlink"  version="1.2" baseProfile="tiny">
<title>Qt SVG Document</title>
<desc>Generated with Qt</desc>
<defs>
</defs>
<g fill="none" stroke="black" stroke-width="1" fill-rule="evenodd" stroke-linecap="square" stroke-linejoin="bevel" >

<g fill="#c0c0c0" fill-opacity="1" stroke="none" transform="matrix(1,0,0,1,0,0)"
font-family="Noto Sans" font-size="10" font-weight="400" font-style="normal" 
>
<path vector-effect="none" fill-rule="evenodd" d="M1,6 C1,3.23858 3.23858,1 6,1 L95,1 C97.7614,1 100,3.23858 100,6 L100,125 C100,127.761 97.7614,130 95,130 L6,130 C3.23858,130 1,127.761 1,125 L1,6"/>
</g>

<g fill="none" stroke="#000000" stroke-opacity="1" stroke-width="2" stroke-linecap="square" stroke-linejoin="bevel" transform="matrix(1,0,0,1,0,0)"
font-family="Noto Sans" font-size="10" font-weight="400" font-style="normal" 
>
<path vector-effect="none" fill-rule="evenodd" d="M1,6 C1,3.23858 3.23858,1 6,1 L95,1 C97.7614,1 100,3.23858 100,6 L100,125 C100,127.761 97.7614,130 95,130 L6,130 C3.23858,130 1,127.761 1,125 L1,6"/>
</g>

<g fill="none" stroke="#000000" stroke-opacity="1" stroke-width="2" stroke-linecap="square" stroke-linejoin="bevel" transform="matrix(1,0,0,1,0,0)"
font-family="Noto Sans CJK JP" font-size="90" font-weight="400" font-style="normal" 
>
<path vector-effect="none" fill-rule="evenodd" d="M84.2813,71.8906 C82.3906,72.4375 79.875,72.9688 76.4531,73.6875 C71.9531,74.5 63.4063,75.9375 54.2344,77.4688 L50.625,59.375 C59.2656,58.0313 67.4531,56.6875 71.5938,56.0469 C73.9375,55.6875 76.7344,55.3281 78.0781,55.1563 L76.5469,47.5938 C75.0156,48.0469 72.7656,48.6719 70.1563,49.125 C66.375,49.8438 58.0938,51.1875 49.375,52.6406 C48.2813,47.5938 47.6563,43.9063 47.4844,42.9063 C47.2031,40.9375 46.7656,38.4063 46.6719,36.7031 L38.5625,38.1406 C39.2031,39.9375 39.8281,41.9219 40.2813,44.2656 C40.5469,45.3438 41.1719,48.8594 42.1719,53.7188 C33.7031,55.0625 25.875,56.2344 22.375,56.5938 C19.4844,56.9531 17.1563,57.125 14.9063,57.2188 L16.4219,65.3281 C18.4063,64.7813 20.8438,64.25 23.7188,63.7969 C27.1406,63.1563 34.9688,61.9063 43.5156,60.5469 L47.125,78.6406 C36.8594,80.2656 27.0469,81.7969 22.5469,82.4219 C20.2031,82.7813 16.7031,83.1406 14.625,83.2344 L16.25,91.0625 C18.2344,90.5156 20.6563,89.9844 24.1719,89.4375 C28.5781,88.625 38.2031,87.0156 48.375,85.2969 C50.0938,94.2188 51.5313,101.5 51.8906,103.484 C52.5156,106.188 52.7813,108.875 53.2344,111.938 L61.4219,110.406 C60.625,107.891 59.8906,104.828 59.2656,102.219 C58.8125,100.156 57.375,92.9531 55.5781,84.125 C64.3906,82.7813 72.7656,81.4375 77.7188,80.625 C81.0469,80.0781 83.9219,79.625 85.8125,79.4531 L84.2813,71.8906"/>
</g>

<g fill="#000000" fill-opacity="1" stroke="none" transform="matrix(1,0,0,1,0,0)"
font-family="Noto Sans CJK JP" font-size="90" font-weight="400" font-style="normal" 
>
<path vector-effect="none" fill-rule="evenodd" d="M84.2813,71.8906 C82.3906,72.4375 79.875,72.9688 76.4531,73.6875 C71.9531,74.5 63.4063,75.9375 54.2344,77.4688 L50.625,59.375 C59.2656,58.0313 67.4531,56.6875 71.5938,56.0469 C73.9375,55.6875 76.7344,55.3281 78.0781,55.1563 L76.5469,47.5938 C75.0156,48.0469 72.7656,48.6719 70.1563,49.125 C66.375,49.8438 58.0938,51.1875 49.375,52.6406 C48.2813,47.5938 47.6563,43.9063 47.4844,42.9063 C47.2031,40.9375 46.7656,38.4063 46.6719,36.7031 L38.5625,38.1406 C39.2031,39.9375 39.8281,41.9219 40.2813,44.2656 C40.5469,45.3438 41.1719,48.8594 42.1719,53.7188 C33.7031,55.0625 25.875,56.2344 22.375,56.5938 C19.4844,56.9531 17.1563,57.125 14.9063,57.2188 L16.4219,65.3281 C18.4063,64.7813 20.8438,64.25 23.7188,63.7969 C27.1406,63.1563 34.9688,61.9063 43.5156,60.5469 L47.125,78.6406 C36.8594,80.2656 27.0469,81.7969 22.5469,82.4219 C20.2031,82.7813 16.7031,83.1406 14.625,83.2344 L16.25,91.0625 C18.2344,90.5156 20.6563,89.9844 24.1719,89.4375 C28.5781,88.625 38.2031,87.0156 48.375,85.2969 C50.0938,94.2188 51.5313,101.5 51.8906,103.484 C52.5156,106.188 52.7813,108.875 53.2344,111.938 L61.4219,110.406 C60.625,107.891 59.8906,104.828 59.2656,102.219 C58.8125,100.156 57.375,92.9531 55.5781,84.125 C64.3906,82.7813 72.7656,81.4375 77.7188,80.625 C81.0469,80.0781 83.9219,79.625 85.8125,79.4531 L84.2813,71.8906"/>
</g>
</g>
</svg>
