<?xml version="1.0" encoding="UTF-8" standalone="no"?>
<svg width="35.2778mm" height="45.8611mm"
 xmlns="http://www.w3.org/2000/svg" xmlns:xlink="http://www.w3.org/1999/xlink"  version="1.2" baseProfile="tiny">
<title>Qt SVG Document</title>
<desc>Generated with Qt</desc>
<defs>
</defs>
<g fill="none" stroke="black" stroke-width="1" fill-rule="evenodd" stroke-linecap="square" stroke-linejoin="bevel" >

<g fill="#c0c0c0" fill-opacity="1" stroke="none" transform="matrix(1,0,0,1,0,0)"
font-family="Noto Sans" font-size="10" font-weight="400" font-style="normal" 
>
<path vector-effect="none" fill-rule="evenodd" d="M1,6 C1,3.23858 3.23858,1 6,1 L95,1 C97.7614,1 100,3.23858 100,6 L100,125 C100,127.761 97.7614,130 95,130 L6,130 C3.23858,130 1,127.761 1,125 L1,6"/>
</g>

<g fill="none" stroke="#000000" stroke-opacity="1" stroke-width="2" stroke-linecap="square" stroke-linejoin="bevel" transform="matrix(1,0,0,1,0,0)"
font-family="Noto Sans" font-size="10" font-weight="400" font-style="normal" 
>
<path vector-effect="none" fill-rule="evenodd" d="M1,6 C1,3.23858 3.23858,1 6,1 L95,1 C97.7614,1 100,3.23858 100,6 L100,125 C100,127.761 97.7614,130 95,130 L6,130 C3.23858,130 1,127.761 1,125 L1,6"/>
</g>

<g fill="none" stroke="#000000" stroke-opacity="1" stroke-width="2" stroke-linecap="square" stroke-linejoin="bevel" transform="matrix(1,0,0,1,0,0)"
font-family="Noto Sans CJK JP" font-size="90" font-weight="400" font-style="normal" 
>
<path vector-effect="none" fill-rule="evenodd" d="M31.4531,102.766 C27.9531,102.766 21.8281,99.25 21.8281,95.2031 C21.8281,91.1563 27.1406,86.1094 34.3438,82.6875 C34.4219,89.1719 34.6094,95.2031 34.6094,98.4375 C34.6094,101.234 33.5313,102.766 31.4531,102.766 M40.8125,70.625 C40.8125,67.0313 40.9063,62.7969 41,58.5781 C47.4844,57.8594 54.3125,56.6875 59.5313,55.5156 L59.4531,48.3906 C54.4063,49.9219 47.6563,51.1875 41.1719,52 C41.2656,48.0313 41.3594,44.5156 41.4531,42.3594 C41.5313,40.2813 41.7188,37.8438 41.9063,36.2188 L34.0625,36.2188 C34.4219,37.75 34.6094,40.7344 34.6094,42.5313 C34.6094,44.1563 34.5156,48.0313 34.4219,52.7188 C32,52.9063 29.6563,53 27.5938,53 C24.3438,53 21.1094,52.9063 16.25,52.2656 L16.4219,59.1094 C19.8438,59.4688 23.7188,59.5625 27.7656,59.5625 C29.6563,59.5625 31.9063,59.4688 34.3438,59.2969 C34.25,63.25 34.25,67.3906 34.25,70.9844 L34.25,76.0313 C23.9844,80.4375 14.7188,88.1875 14.7188,95.4688 C14.7188,103.484 26.3281,110.234 33.3438,110.234 C38.125,110.234 41.2656,107.625 41.2656,99.3438 C41.2656,95.4688 41.0938,87.6406 40.9063,80.0781 C47.2969,77.8281 53.5938,76.5781 60.25,76.5781 C68.7188,76.5781 75.5625,80.625 75.5625,88.1875 C75.5625,96.4688 68.4531,100.688 60.625,102.125 C57.2031,102.844 53.5156,102.766 50.1719,102.766 L52.7031,109.875 C55.7656,109.781 59.7188,109.594 63.6719,108.703 C75.9219,105.734 82.6719,98.8906 82.6719,88.0938 C82.6719,77.4688 73.3125,70.3594 60.3438,70.3594 C54.5,70.3594 47.5625,71.4375 40.8125,73.6094 L40.8125,70.625 M66.4688,51.5469 C72.1406,54.6094 82.0313,60.6406 86.4531,64.875 L90.0469,59.1094 C85.7344,55.5156 76,49.3906 69.7031,46.0469 L66.4688,51.5469"/>
</g>

<g fill="#000000" fill-opacity="1" stroke="none" transform="matrix(1,0,0,1,0,0)"
font-family="Noto Sans CJK JP" font-size="90" font-weight="400" font-style="normal" 
>
<path vector-effect="none" fill-rule="evenodd" d="M31.4531,102.766 C27.9531,102.766 21.8281,99.25 21.8281,95.2031 C21.8281,91.1563 27.1406,86.1094 34.3438,82.6875 C34.4219,89.1719 34.6094,95.2031 34.6094,98.4375 C34.6094,101.234 33.5313,102.766 31.4531,102.766 M40.8125,70.625 C40.8125,67.0313 40.9063,62.7969 41,58.5781 C47.4844,57.8594 54.3125,56.6875 59.5313,55.5156 L59.4531,48.3906 C54.4063,49.9219 47.6563,51.1875 41.1719,52 C41.2656,48.0313 41.3594,44.5156 41.4531,42.3594 C41.5313,40.2813 41.7188,37.8438 41.9063,36.2188 L34.0625,36.2188 C34.4219,37.75 34.6094,40.7344 34.6094,42.5313 C34.6094,44.1563 34.5156,48.0313 34.4219,52.7188 C32,52.9063 29.6563,53 27.5938,53 C24.3438,53 21.1094,52.9063 16.25,52.2656 L16.4219,59.1094 C19.8438,59.4688 23.7188,59.5625 27.7656,59.5625 C29.6563,59.5625 31.9063,59.4688 34.3438,59.2969 C34.25,63.25 34.25,67.3906 34.25,70.9844 L34.25,76.0313 C23.9844,80.4375 14.7188,88.1875 14.7188,95.4688 C14.7188,103.484 26.3281,110.234 33.3438,110.234 C38.125,110.234 41.2656,107.625 41.2656,99.3438 C41.2656,95.4688 41.0938,87.6406 40.9063,80.0781 C47.2969,77.8281 53.5938,76.5781 60.25,76.5781 C68.7188,76.5781 75.5625,80.625 75.5625,88.1875 C75.5625,96.4688 68.4531,100.688 60.625,102.125 C57.2031,102.844 53.5156,102.766 50.1719,102.766 L52.7031,109.875 C55.7656,109.781 59.7188,109.594 63.6719,108.703 C75.9219,105.734 82.6719,98.8906 82.6719,88.0938 C82.6719,77.4688 73.3125,70.3594 60.3438,70.3594 C54.5,70.3594 47.5625,71.4375 40.8125,73.6094 L40.8125,70.625 M66.4688,51.5469 C72.1406,54.6094 82.0313,60.6406 86.4531,64.875 L90.0469,59.1094 C85.7344,55.5156 76,49.3906 69.7031,46.0469 L66.4688,51.5469"/>
</g>
</g>
</svg>
