<?xml version="1.0" encoding="UTF-8" standalone="no"?>
<svg width="35.2778mm" height="45.8611mm"
 xmlns="http://www.w3.org/2000/svg" xmlns:xlink="http://www.w3.org/1999/xlink"  version="1.2" baseProfile="tiny">
<title>Qt SVG Document</title>
<desc>Generated with Qt</desc>
<defs>
</defs>
<g fill="none" stroke="black" stroke-width="1" fill-rule="evenodd" stroke-linecap="square" stroke-linejoin="bevel" >

<g fill="#c0c0c0" fill-opacity="1" stroke="none" transform="matrix(1,0,0,1,0,0)"
font-family="Noto Sans" font-size="10" font-weight="400" font-style="normal" 
>
<path vector-effect="none" fill-rule="evenodd" d="M1,6 C1,3.23858 3.23858,1 6,1 L95,1 C97.7614,1 100,3.23858 100,6 L100,125 C100,127.761 97.7614,130 95,130 L6,130 C3.23858,130 1,127.761 1,125 L1,6"/>
</g>

<g fill="none" stroke="#000000" stroke-opacity="1" stroke-width="2" stroke-linecap="square" stroke-linejoin="bevel" transform="matrix(1,0,0,1,0,0)"
font-family="Noto Sans" font-size="10" font-weight="400" font-style="normal" 
>
<path vector-effect="none" fill-rule="evenodd" d="M1,6 C1,3.23858 3.23858,1 6,1 L95,1 C97.7614,1 100,3.23858 100,6 L100,125 C100,127.761 97.7614,130 95,130 L6,130 C3.23858,130 1,127.761 1,125 L1,6"/>
</g>

<g fill="none" stroke="#000000" stroke-opacity="1" stroke-width="2" stroke-linecap="square" stroke-linejoin="bevel" transform="matrix(1,0,0,1,0,0)"
font-family="Noto Sans CJK JP" font-size="90" font-weight="400" font-style="normal" 
>
<path vector-effect="none" fill-rule="evenodd" d="M44.7813,71.7188 C45.0469,73.5156 45.3125,75.3281 45.3125,77.0313 C45.3125,88.8281 43.6094,98.7344 31.4531,106.938 C29.3906,108.375 27.2344,109.281 25.25,110 L31.6406,115.047 C50.625,104.5 52.4219,90.9063 52.6094,71.7188 L44.7813,71.7188 M78.7969,58.6563 C77.625,58.9375 75.2031,59.1094 73.8438,59.1094 L29.3906,59.1094 C26.6875,59.1094 23.4531,58.8438 20.9219,58.4844 L20.9219,65.9531 C23.7188,65.6875 26.6875,65.5938 29.3906,65.5938 L72.4063,65.6875 C69.7969,70.0938 63.3125,78.0156 56.9219,81.8906 L62.7813,85.9531 C70.875,80.3594 78.4375,69.1094 81.0469,64.875 C81.5,64.1563 82.3125,63.0781 82.8438,62.4375 L78.7969,58.6563"/>
</g>

<g fill="#000000" fill-opacity="1" stroke="none" transform="matrix(1,0,0,1,0,0)"
font-family="Noto Sans CJK JP" font-size="90" font-weight="400" font-style="normal" 
>
<path vector-effect="none" fill-rule="evenodd" d="M44.7813,71.7188 C45.0469,73.5156 45.3125,75.3281 45.3125,77.0313 C45.3125,88.8281 43.6094,98.7344 31.4531,106.938 C29.3906,108.375 27.2344,109.281 25.25,110 L31.6406,115.047 C50.625,104.5 52.4219,90.9063 52.6094,71.7188 L44.7813,71.7188 M78.7969,58.6563 C77.625,58.9375 75.2031,59.1094 73.8438,59.1094 L29.3906,59.1094 C26.6875,59.1094 23.4531,58.8438 20.9219,58.4844 L20.9219,65.9531 C23.7188,65.6875 26.6875,65.5938 29.3906,65.5938 L72.4063,65.6875 C69.7969,70.0938 63.3125,78.0156 56.9219,81.8906 L62.7813,85.9531 C70.875,80.3594 78.4375,69.1094 81.0469,64.875 C81.5,64.1563 82.3125,63.0781 82.8438,62.4375 L78.7969,58.6563"/>
</g>
</g>
</svg>
