<?xml version="1.0" encoding="UTF-8" standalone="no"?>
<svg width="35.2778mm" height="45.8611mm"
 xmlns="http://www.w3.org/2000/svg" xmlns:xlink="http://www.w3.org/1999/xlink"  version="1.2" baseProfile="tiny">
<title>Qt SVG Document</title>
<desc>Generated with Qt</desc>
<defs>
</defs>
<g fill="none" stroke="black" stroke-width="1" fill-rule="evenodd" stroke-linecap="square" stroke-linejoin="bevel" >

<g fill="#c0c0c0" fill-opacity="1" stroke="none" transform="matrix(1,0,0,1,0,0)"
font-family="Noto Sans" font-size="10" font-weight="400" font-style="normal" 
>
<path vector-effect="none" fill-rule="evenodd" d="M1,6 C1,3.23858 3.23858,1 6,1 L95,1 C97.7614,1 100,3.23858 100,6 L100,125 C100,127.761 97.7614,130 95,130 L6,130 C3.23858,130 1,127.761 1,125 L1,6"/>
</g>

<g fill="none" stroke="#000000" stroke-opacity="1" stroke-width="2" stroke-linecap="square" stroke-linejoin="bevel" transform="matrix(1,0,0,1,0,0)"
font-family="Noto Sans" font-size="10" font-weight="400" font-style="normal" 
>
<path vector-effect="none" fill-rule="evenodd" d="M1,6 C1,3.23858 3.23858,1 6,1 L95,1 C97.7614,1 100,3.23858 100,6 L100,125 C100,127.761 97.7614,130 95,130 L6,130 C3.23858,130 1,127.761 1,125 L1,6"/>
</g>

<g fill="none" stroke="#000000" stroke-opacity="1" stroke-width="2" stroke-linecap="square" stroke-linejoin="bevel" transform="matrix(1,0,0,1,0,0)"
font-family="Noto Sans CJK JP" font-size="90" font-weight="400" font-style="normal" 
>
<path vector-effect="none" fill-rule="evenodd" d="M63.4063,66.2188 L63.2344,58.9219 C63.2344,56.8438 63.3125,54.7813 63.5938,52.8906 L55.9375,52.8906 C56.2969,54.875 56.5625,57.125 56.5625,58.9219 C56.6563,60.6406 56.75,63.1563 56.8438,66.2188 L29.75,66.2188 C27.5938,66.2188 25.1563,66.125 23.0938,65.8594 L23.0938,72.9688 C25.25,72.7969 27.5,72.7031 29.9219,72.7031 L53.9531,72.7031 C47.8438,81.875 34.1563,93.7656 20.6563,100.234 L25.7031,105.828 C37.9375,99.3438 50.8906,87.9063 57.0156,79.2656 C57.2031,88.8125 57.2813,98.8906 57.2813,104.563 C57.2813,106.188 56.4844,107.172 54.8594,107.172 C52.1563,107.172 47.4844,106.906 43.875,106.359 L44.2344,112.938 C47.8438,113.109 53.6875,113.469 57.2813,113.469 C61.25,113.469 64.125,111.125 64.0313,107.266 C63.9531,98.7969 63.6719,84.0469 63.5,72.7031 L76.5469,72.7031 C78.25,72.7031 80.7813,72.875 82.3906,72.9688 L82.3906,65.8594 C81.1406,66.0469 78.1719,66.2188 76.3594,66.2188 L63.4063,66.2188"/>
</g>

<g fill="#000000" fill-opacity="1" stroke="none" transform="matrix(1,0,0,1,0,0)"
font-family="Noto Sans CJK JP" font-size="90" font-weight="400" font-style="normal" 
>
<path vector-effect="none" fill-rule="evenodd" d="M63.4063,66.2188 L63.2344,58.9219 C63.2344,56.8438 63.3125,54.7813 63.5938,52.8906 L55.9375,52.8906 C56.2969,54.875 56.5625,57.125 56.5625,58.9219 C56.6563,60.6406 56.75,63.1563 56.8438,66.2188 L29.75,66.2188 C27.5938,66.2188 25.1563,66.125 23.0938,65.8594 L23.0938,72.9688 C25.25,72.7969 27.5,72.7031 29.9219,72.7031 L53.9531,72.7031 C47.8438,81.875 34.1563,93.7656 20.6563,100.234 L25.7031,105.828 C37.9375,99.3438 50.8906,87.9063 57.0156,79.2656 C57.2031,88.8125 57.2813,98.8906 57.2813,104.563 C57.2813,106.188 56.4844,107.172 54.8594,107.172 C52.1563,107.172 47.4844,106.906 43.875,106.359 L44.2344,112.938 C47.8438,113.109 53.6875,113.469 57.2813,113.469 C61.25,113.469 64.125,111.125 64.0313,107.266 C63.9531,98.7969 63.6719,84.0469 63.5,72.7031 L76.5469,72.7031 C78.25,72.7031 80.7813,72.875 82.3906,72.9688 L82.3906,65.8594 C81.1406,66.0469 78.1719,66.2188 76.3594,66.2188 L63.4063,66.2188"/>
</g>
</g>
</svg>
