<?xml version="1.0" encoding="UTF-8" standalone="no"?>
<svg width="35.2778mm" height="45.8611mm"
 xmlns="http://www.w3.org/2000/svg" xmlns:xlink="http://www.w3.org/1999/xlink"  version="1.2" baseProfile="tiny">
<title>Qt SVG Document</title>
<desc>Generated with Qt</desc>
<defs>
</defs>
<g fill="none" stroke="black" stroke-width="1" fill-rule="evenodd" stroke-linecap="square" stroke-linejoin="bevel" >

<g fill="#c0c0c0" fill-opacity="1" stroke="none" transform="matrix(1,0,0,1,0,0)"
font-family="Noto Sans" font-size="10" font-weight="400" font-style="normal" 
>
<path vector-effect="none" fill-rule="evenodd" d="M1,6 C1,3.23858 3.23858,1 6,1 L95,1 C97.7614,1 100,3.23858 100,6 L100,125 C100,127.761 97.7614,130 95,130 L6,130 C3.23858,130 1,127.761 1,125 L1,6"/>
</g>

<g fill="none" stroke="#000000" stroke-opacity="1" stroke-width="2" stroke-linecap="square" stroke-linejoin="bevel" transform="matrix(1,0,0,1,0,0)"
font-family="Noto Sans" font-size="10" font-weight="400" font-style="normal" 
>
<path vector-effect="none" fill-rule="evenodd" d="M1,6 C1,3.23858 3.23858,1 6,1 L95,1 C97.7614,1 100,3.23858 100,6 L100,125 C100,127.761 97.7614,130 95,130 L6,130 C3.23858,130 1,127.761 1,125 L1,6"/>
</g>

<g fill="none" stroke="#000000" stroke-opacity="1" stroke-width="2" stroke-linecap="square" stroke-linejoin="bevel" transform="matrix(1,0,0,1,0,0)"
font-family="Noto Sans CJK JP" font-size="90" font-weight="400" font-style="normal" 
>
<path vector-effect="none" fill-rule="evenodd" d="M45.8594,107.922 L54.1406,107.922 L54.1406,92.6875 L71.875,92.6875 L71.875,87.9063 L54.1406,87.9063 L54.1406,81.4375 L71.875,81.4375 L71.875,76.5781 L56.4844,76.5781 L78.1719,42.9688 L68.625,42.9688 L58.0156,61.1719 C55.0313,66.75 53.3281,69.8125 50.2656,74.9531 L49.8125,74.9531 C46.9375,69.8125 45.2344,66.8438 42.0781,61.1719 L31.375,42.9688 L21.7344,42.9688 L43.5156,76.5781 L28.0469,76.5781 L28.0469,81.4375 L45.8594,81.4375 L45.8594,87.9063 L28.0469,87.9063 L28.0469,92.6875 L45.8594,92.6875 L45.8594,107.922"/>
</g>

<g fill="#000000" fill-opacity="1" stroke="none" transform="matrix(1,0,0,1,0,0)"
font-family="Noto Sans CJK JP" font-size="90" font-weight="400" font-style="normal" 
>
<path vector-effect="none" fill-rule="evenodd" d="M45.8594,107.922 L54.1406,107.922 L54.1406,92.6875 L71.875,92.6875 L71.875,87.9063 L54.1406,87.9063 L54.1406,81.4375 L71.875,81.4375 L71.875,76.5781 L56.4844,76.5781 L78.1719,42.9688 L68.625,42.9688 L58.0156,61.1719 C55.0313,66.75 53.3281,69.8125 50.2656,74.9531 L49.8125,74.9531 C46.9375,69.8125 45.2344,66.8438 42.0781,61.1719 L31.375,42.9688 L21.7344,42.9688 L43.5156,76.5781 L28.0469,76.5781 L28.0469,81.4375 L45.8594,81.4375 L45.8594,87.9063 L28.0469,87.9063 L28.0469,92.6875 L45.8594,92.6875 L45.8594,107.922"/>
</g>
</g>
</svg>
