<?xml version="1.0" encoding="UTF-8" standalone="no"?>
<svg width="35.2778mm" height="45.8611mm"
 xmlns="http://www.w3.org/2000/svg" xmlns:xlink="http://www.w3.org/1999/xlink"  version="1.2" baseProfile="tiny">
<title>Qt SVG Document</title>
<desc>Generated with Qt</desc>
<defs>
</defs>
<g fill="none" stroke="black" stroke-width="1" fill-rule="evenodd" stroke-linecap="square" stroke-linejoin="bevel" >

<g fill="#808080" fill-opacity="1" stroke="none" transform="matrix(1,0,0,1,0,0)"
font-family="Noto Sans" font-size="10" font-weight="400" font-style="normal" 
>
<path vector-effect="none" fill-rule="evenodd" d="M1,6 C1,3.23858 3.23858,1 6,1 L95,1 C97.7614,1 100,3.23858 100,6 L100,125 C100,127.761 97.7614,130 95,130 L6,130 C3.23858,130 1,127.761 1,125 L1,6"/>
</g>

<g fill="none" stroke="#000000" stroke-opacity="1" stroke-width="2" stroke-linecap="square" stroke-linejoin="bevel" transform="matrix(1,0,0,1,0,0)"
font-family="Noto Sans" font-size="10" font-weight="400" font-style="normal" 
>
<path vector-effect="none" fill-rule="evenodd" d="M1,6 C1,3.23858 3.23858,1 6,1 L95,1 C97.7614,1 100,3.23858 100,6 L100,125 C100,127.761 97.7614,130 95,130 L6,130 C3.23858,130 1,127.761 1,125 L1,6"/>
</g>

<g fill="none" stroke="#000000" stroke-opacity="1" stroke-width="2" stroke-linecap="square" stroke-linejoin="bevel" transform="matrix(1,0,0,1,0,0)"
font-family="Noto Sans CJK JP" font-size="45" font-weight="400" font-style="normal" 
>
<path vector-effect="none" fill-rule="evenodd" d="M20.5625,46.4688 C20.5625,49.4844 20.0781,52.9531 19.4375,56.1563 C16.75,56.375 14.1406,56.6094 12.6563,56.6406 C11.25,56.6875 10.0781,56.7344 8.6875,56.6406 L9.04688,60.5625 C10.2188,60.375 12.0156,60.1563 13.0469,60.0156 C14.2188,59.8906 16.3906,59.6563 18.6719,59.4375 C17.1875,65.375 13.8594,75.4531 9.3125,81.5313 L13.0156,83.0156 C17.7344,75.4531 20.75,65.4688 22.375,59.0781 C24.2969,58.8906 26.0625,58.7656 27.1406,58.7656 C29.9688,58.7656 31.8125,59.4844 31.8125,63.5313 C31.8125,68.3906 31.1406,74.1563 29.75,77.1719 C28.7969,79.0938 27.5,79.4531 25.8281,79.4531 C24.625,79.4531 22.2344,79.0625 20.3906,78.4688 L20.9688,82.25 C22.375,82.5625 24.5313,82.9219 26.1875,82.9219 C29.125,82.9219 31.3281,82.1563 32.7188,79.1875 C34.5625,75.4531 35.3281,68.4375 35.3281,63.125 C35.3281,57.0938 32.0469,55.5625 28.0781,55.5625 C27,55.5625 25.1563,55.7031 23.0938,55.8438 C23.5781,53.4531 23.9844,50.8281 24.2188,49.5313 C24.3906,48.6719 24.5781,47.7188 24.75,46.9063 L20.5625,46.4688 M36.7656,53.0938 C39.9219,56.8281 43.4219,64.6563 44.7344,69.25 L48.25,67.5781 C46.7188,63.4375 42.8906,55.25 40.0938,51.6406 L36.7656,53.0938 M91.7656,58.3125 C89.6406,56.6875 84.5625,53.8125 81.3125,52.375 L79.5625,55.1563 C82.5313,56.5156 87.3438,59.25 89.7344,61.2813 L91.7656,58.3125 M75.5625,51.5625 C73.3125,52.2813 70.9688,52.8281 68.625,53.1875 C69.3438,50.6094 69.9375,47.9063 70.3906,46.2813 L66.375,45.9219 C66.2969,48.3125 65.6563,51.1563 64.9844,53.625 C63.2813,53.7656 61.6094,53.8594 60.0313,53.8594 C58.0938,53.8594 56.2031,53.7656 54.5469,53.5469 L54.8125,56.9219 C56.4844,57 58.3281,57.0469 59.9844,57.0469 C61.2969,57.0469 62.5938,57 63.9063,56.9219 C61.875,62.1406 58.0938,69.25 54.3594,73.5625 L57.875,75.3594 C61.4219,70.5469 65.3906,62.8125 67.5938,56.5156 C70.5156,56.1563 73.3125,55.5625 75.6563,54.8906 L75.5625,51.5625 M77.9063,76.4531 C77.9063,78.6563 76.6875,80.6719 73.0469,80.6719 C69.5781,80.6719 67.9063,79.2813 67.9063,77.2031 C67.9063,75.1875 70.0625,73.7031 73.3594,73.7031 C74.9219,73.7031 76.4531,73.9219 77.8594,74.3281 C77.9063,75.1406 77.9063,75.8594 77.9063,76.4531 M77.2656,60.0625 C77.3594,63.1719 77.5781,67.5313 77.7188,71.1875 C76.4063,70.9063 74.9688,70.7813 73.4844,70.7813 C68.4531,70.7813 64.5781,73.4375 64.5781,77.5313 C64.5781,81.9375 68.5781,83.9531 73.4844,83.9531 C78.9844,83.9531 81.3125,81.0313 81.3125,77.4844 C81.3125,76.9844 81.3125,76.3594 81.2813,75.6875 C84.1563,77.0781 86.5313,79.0625 88.4219,80.7656 L90.3594,77.7031 C88.0625,75.7188 84.9688,73.5156 81.1406,72.125 C81.0469,69.4219 80.875,66.5 80.8281,64.875 C80.7813,63.2188 80.7344,61.9063 80.875,60.0625 L77.2656,60.0625"/>
</g>

<g fill="#ffffff" fill-opacity="1" stroke="none" transform="matrix(1,0,0,1,0,0)"
font-family="Noto Sans CJK JP" font-size="45" font-weight="400" font-style="normal" 
>
<path vector-effect="none" fill-rule="evenodd" d="M20.5625,46.4688 C20.5625,49.4844 20.0781,52.9531 19.4375,56.1563 C16.75,56.375 14.1406,56.6094 12.6563,56.6406 C11.25,56.6875 10.0781,56.7344 8.6875,56.6406 L9.04688,60.5625 C10.2188,60.375 12.0156,60.1563 13.0469,60.0156 C14.2188,59.8906 16.3906,59.6563 18.6719,59.4375 C17.1875,65.375 13.8594,75.4531 9.3125,81.5313 L13.0156,83.0156 C17.7344,75.4531 20.75,65.4688 22.375,59.0781 C24.2969,58.8906 26.0625,58.7656 27.1406,58.7656 C29.9688,58.7656 31.8125,59.4844 31.8125,63.5313 C31.8125,68.3906 31.1406,74.1563 29.75,77.1719 C28.7969,79.0938 27.5,79.4531 25.8281,79.4531 C24.625,79.4531 22.2344,79.0625 20.3906,78.4688 L20.9688,82.25 C22.375,82.5625 24.5313,82.9219 26.1875,82.9219 C29.125,82.9219 31.3281,82.1563 32.7188,79.1875 C34.5625,75.4531 35.3281,68.4375 35.3281,63.125 C35.3281,57.0938 32.0469,55.5625 28.0781,55.5625 C27,55.5625 25.1563,55.7031 23.0938,55.8438 C23.5781,53.4531 23.9844,50.8281 24.2188,49.5313 C24.3906,48.6719 24.5781,47.7188 24.75,46.9063 L20.5625,46.4688 M36.7656,53.0938 C39.9219,56.8281 43.4219,64.6563 44.7344,69.25 L48.25,67.5781 C46.7188,63.4375 42.8906,55.25 40.0938,51.6406 L36.7656,53.0938 M91.7656,58.3125 C89.6406,56.6875 84.5625,53.8125 81.3125,52.375 L79.5625,55.1563 C82.5313,56.5156 87.3438,59.25 89.7344,61.2813 L91.7656,58.3125 M75.5625,51.5625 C73.3125,52.2813 70.9688,52.8281 68.625,53.1875 C69.3438,50.6094 69.9375,47.9063 70.3906,46.2813 L66.375,45.9219 C66.2969,48.3125 65.6563,51.1563 64.9844,53.625 C63.2813,53.7656 61.6094,53.8594 60.0313,53.8594 C58.0938,53.8594 56.2031,53.7656 54.5469,53.5469 L54.8125,56.9219 C56.4844,57 58.3281,57.0469 59.9844,57.0469 C61.2969,57.0469 62.5938,57 63.9063,56.9219 C61.875,62.1406 58.0938,69.25 54.3594,73.5625 L57.875,75.3594 C61.4219,70.5469 65.3906,62.8125 67.5938,56.5156 C70.5156,56.1563 73.3125,55.5625 75.6563,54.8906 L75.5625,51.5625 M77.9063,76.4531 C77.9063,78.6563 76.6875,80.6719 73.0469,80.6719 C69.5781,80.6719 67.9063,79.2813 67.9063,77.2031 C67.9063,75.1875 70.0625,73.7031 73.3594,73.7031 C74.9219,73.7031 76.4531,73.9219 77.8594,74.3281 C77.9063,75.1406 77.9063,75.8594 77.9063,76.4531 M77.2656,60.0625 C77.3594,63.1719 77.5781,67.5313 77.7188,71.1875 C76.4063,70.9063 74.9688,70.7813 73.4844,70.7813 C68.4531,70.7813 64.5781,73.4375 64.5781,77.5313 C64.5781,81.9375 68.5781,83.9531 73.4844,83.9531 C78.9844,83.9531 81.3125,81.0313 81.3125,77.4844 C81.3125,76.9844 81.3125,76.3594 81.2813,75.6875 C84.1563,77.0781 86.5313,79.0625 88.4219,80.7656 L90.3594,77.7031 C88.0625,75.7188 84.9688,73.5156 81.1406,72.125 C81.0469,69.4219 80.875,66.5 80.8281,64.875 C80.7813,63.2188 80.7344,61.9063 80.875,60.0625 L77.2656,60.0625"/>
</g>
</g>
</svg>
