<?xml version="1.0" encoding="UTF-8" standalone="no"?>
<svg width="35.2778mm" height="45.8611mm"
 xmlns="http://www.w3.org/2000/svg" xmlns:xlink="http://www.w3.org/1999/xlink"  version="1.2" baseProfile="tiny">
<title>Qt SVG Document</title>
<desc>Generated with Qt</desc>
<defs>
</defs>
<g fill="none" stroke="black" stroke-width="1" fill-rule="evenodd" stroke-linecap="square" stroke-linejoin="bevel" >

<g fill="#c0c0c0" fill-opacity="1" stroke="none" transform="matrix(1,0,0,1,0,0)"
font-family="Noto Sans" font-size="10" font-weight="400" font-style="normal" 
>
<path vector-effect="none" fill-rule="evenodd" d="M1,6 C1,3.23858 3.23858,1 6,1 L95,1 C97.7614,1 100,3.23858 100,6 L100,125 C100,127.761 97.7614,130 95,130 L6,130 C3.23858,130 1,127.761 1,125 L1,6"/>
</g>

<g fill="none" stroke="#000000" stroke-opacity="1" stroke-width="2" stroke-linecap="square" stroke-linejoin="bevel" transform="matrix(1,0,0,1,0,0)"
font-family="Noto Sans" font-size="10" font-weight="400" font-style="normal" 
>
<path vector-effect="none" fill-rule="evenodd" d="M1,6 C1,3.23858 3.23858,1 6,1 L95,1 C97.7614,1 100,3.23858 100,6 L100,125 C100,127.761 97.7614,130 95,130 L6,130 C3.23858,130 1,127.761 1,125 L1,6"/>
</g>

<g fill="none" stroke="#000000" stroke-opacity="1" stroke-width="2" stroke-linecap="square" stroke-linejoin="bevel" transform="matrix(1,0,0,1,0,0)"
font-family="Noto Sans CJK JP" font-size="90" font-weight="400" font-style="normal" 
>
<path vector-effect="none" fill-rule="evenodd" d="M78.3438,62 C77.4531,62.4375 76,62.7969 74.9219,63.0781 C71.875,63.7969 56.5625,66.7656 43.7813,69.1875 L40.9063,58.5781 C40.375,56.3281 39.9219,54.3438 39.6563,52.8125 L32,54.7031 C32.7188,56.0469 33.4375,57.8594 34.0625,60.1094 C34.6094,61.8125 35.6875,65.6875 37.0313,70.4531 C31.5469,71.4375 27.3125,72.25 26.0625,72.4375 C23.3594,72.875 21.1094,73.2344 18.5938,73.4219 L20.3906,80.2656 C22.8125,79.7188 30.2031,78.2813 38.6563,76.5781 C42.1719,89.4375 46.4844,105.453 47.6563,109.516 C48.2813,111.672 48.7344,114.016 49.0156,115.984 L56.6563,114.016 C56.125,112.391 55.2188,109.594 54.6719,107.891 C53.5156,104.016 49.0938,88.0938 45.5,75.125 C57.9219,72.6094 70.7031,70.0938 72.7656,69.7344 C69.7031,75.125 62.875,83.4063 57.2813,88.2656 L63.6719,91.4219 C69.7969,85.3906 79.0625,72.7969 82.8438,65.1406 L78.3438,62"/>
</g>

<g fill="#000000" fill-opacity="1" stroke="none" transform="matrix(1,0,0,1,0,0)"
font-family="Noto Sans CJK JP" font-size="90" font-weight="400" font-style="normal" 
>
<path vector-effect="none" fill-rule="evenodd" d="M78.3438,62 C77.4531,62.4375 76,62.7969 74.9219,63.0781 C71.875,63.7969 56.5625,66.7656 43.7813,69.1875 L40.9063,58.5781 C40.375,56.3281 39.9219,54.3438 39.6563,52.8125 L32,54.7031 C32.7188,56.0469 33.4375,57.8594 34.0625,60.1094 C34.6094,61.8125 35.6875,65.6875 37.0313,70.4531 C31.5469,71.4375 27.3125,72.25 26.0625,72.4375 C23.3594,72.875 21.1094,73.2344 18.5938,73.4219 L20.3906,80.2656 C22.8125,79.7188 30.2031,78.2813 38.6563,76.5781 C42.1719,89.4375 46.4844,105.453 47.6563,109.516 C48.2813,111.672 48.7344,114.016 49.0156,115.984 L56.6563,114.016 C56.125,112.391 55.2188,109.594 54.6719,107.891 C53.5156,104.016 49.0938,88.0938 45.5,75.125 C57.9219,72.6094 70.7031,70.0938 72.7656,69.7344 C69.7031,75.125 62.875,83.4063 57.2813,88.2656 L63.6719,91.4219 C69.7969,85.3906 79.0625,72.7969 82.8438,65.1406 L78.3438,62"/>
</g>
</g>
</svg>
