<?xml version="1.0" encoding="UTF-8" standalone="no"?>
<svg width="35.2778mm" height="45.8611mm"
 xmlns="http://www.w3.org/2000/svg" xmlns:xlink="http://www.w3.org/1999/xlink"  version="1.2" baseProfile="tiny">
<title>Qt SVG Document</title>
<desc>Generated with Qt</desc>
<defs>
</defs>
<g fill="none" stroke="black" stroke-width="1" fill-rule="evenodd" stroke-linecap="square" stroke-linejoin="bevel" >

<g fill="#c0c0c0" fill-opacity="1" stroke="none" transform="matrix(1,0,0,1,0,0)"
font-family="Noto Sans" font-size="10" font-weight="400" font-style="normal" 
>
<path vector-effect="none" fill-rule="evenodd" d="M1,6 C1,3.23858 3.23858,1 6,1 L95,1 C97.7614,1 100,3.23858 100,6 L100,125 C100,127.761 97.7614,130 95,130 L6,130 C3.23858,130 1,127.761 1,125 L1,6"/>
</g>

<g fill="none" stroke="#000000" stroke-opacity="1" stroke-width="2" stroke-linecap="square" stroke-linejoin="bevel" transform="matrix(1,0,0,1,0,0)"
font-family="Noto Sans" font-size="10" font-weight="400" font-style="normal" 
>
<path vector-effect="none" fill-rule="evenodd" d="M1,6 C1,3.23858 3.23858,1 6,1 L95,1 C97.7614,1 100,3.23858 100,6 L100,125 C100,127.761 97.7614,130 95,130 L6,130 C3.23858,130 1,127.761 1,125 L1,6"/>
</g>

<g fill="none" stroke="#000000" stroke-opacity="1" stroke-width="2" stroke-linecap="square" stroke-linejoin="bevel" transform="matrix(1,0,0,1,0,0)"
font-family="Noto Sans CJK JP" font-size="90" font-weight="400" font-style="normal" 
>
<path vector-effect="none" fill-rule="evenodd" d="M89.1406,45.8906 L89.1406,39.4063 L10.8438,39.4063 L10.8438,45.8906 L35.0625,45.8906 C34.5156,68.8281 33.2656,96.5469 8.32813,109.781 C10.125,111.047 12.1094,113.203 13.1875,115.016 C30.9219,105.094 37.5781,88.3594 40.1875,70.7188 L73.8438,70.7188 C72.5938,94.4844 71.0625,104.375 68.3594,106.813 C67.2813,107.797 66.2031,107.984 64.125,107.984 C61.7031,107.984 55.2188,107.984 48.4688,107.266 C49.8125,109.156 50.7188,111.844 50.8125,113.828 C57.0156,114.281 63.2344,114.469 66.6406,114.188 C70.0625,113.922 72.2344,113.203 74.2969,110.953 C77.8125,107.172 79.25,96.4688 80.8594,67.4844 C80.9531,66.5781 80.9531,64.25 80.9531,64.25 L41,64.25 C41.625,58.0313 41.9063,51.8281 42.0781,45.8906 L89.1406,45.8906"/>
</g>

<g fill="#000000" fill-opacity="1" stroke="none" transform="matrix(1,0,0,1,0,0)"
font-family="Noto Sans CJK JP" font-size="90" font-weight="400" font-style="normal" 
>
<path vector-effect="none" fill-rule="evenodd" d="M89.1406,45.8906 L89.1406,39.4063 L10.8438,39.4063 L10.8438,45.8906 L35.0625,45.8906 C34.5156,68.8281 33.2656,96.5469 8.32813,109.781 C10.125,111.047 12.1094,113.203 13.1875,115.016 C30.9219,105.094 37.5781,88.3594 40.1875,70.7188 L73.8438,70.7188 C72.5938,94.4844 71.0625,104.375 68.3594,106.813 C67.2813,107.797 66.2031,107.984 64.125,107.984 C61.7031,107.984 55.2188,107.984 48.4688,107.266 C49.8125,109.156 50.7188,111.844 50.8125,113.828 C57.0156,114.281 63.2344,114.469 66.6406,114.188 C70.0625,113.922 72.2344,113.203 74.2969,110.953 C77.8125,107.172 79.25,96.4688 80.8594,67.4844 C80.9531,66.5781 80.9531,64.25 80.9531,64.25 L41,64.25 C41.625,58.0313 41.9063,51.8281 42.0781,45.8906 L89.1406,45.8906"/>
</g>
</g>
</svg>
