<?xml version="1.0" encoding="UTF-8" standalone="no"?>
<svg width="35.2778mm" height="45.8611mm"
 xmlns="http://www.w3.org/2000/svg" xmlns:xlink="http://www.w3.org/1999/xlink"  version="1.2" baseProfile="tiny">
<title>Qt SVG Document</title>
<desc>Generated with Qt</desc>
<defs>
</defs>
<g fill="none" stroke="black" stroke-width="1" fill-rule="evenodd" stroke-linecap="square" stroke-linejoin="bevel" >

<g fill="#c0c0c0" fill-opacity="1" stroke="none" transform="matrix(1,0,0,1,0,0)"
font-family="Noto Sans" font-size="10" font-weight="400" font-style="normal" 
>
<path vector-effect="none" fill-rule="evenodd" d="M1,6 C1,3.23858 3.23858,1 6,1 L95,1 C97.7614,1 100,3.23858 100,6 L100,125 C100,127.761 97.7614,130 95,130 L6,130 C3.23858,130 1,127.761 1,125 L1,6"/>
</g>

<g fill="none" stroke="#000000" stroke-opacity="1" stroke-width="2" stroke-linecap="square" stroke-linejoin="bevel" transform="matrix(1,0,0,1,0,0)"
font-family="Noto Sans" font-size="10" font-weight="400" font-style="normal" 
>
<path vector-effect="none" fill-rule="evenodd" d="M1,6 C1,3.23858 3.23858,1 6,1 L95,1 C97.7614,1 100,3.23858 100,6 L100,125 C100,127.761 97.7614,130 95,130 L6,130 C3.23858,130 1,127.761 1,125 L1,6"/>
</g>

<g fill="none" stroke="#000000" stroke-opacity="1" stroke-width="2" stroke-linecap="square" stroke-linejoin="bevel" transform="matrix(1,0,0,1,0,0)"
font-family="Noto Sans CJK JP" font-size="90" font-weight="400" font-style="normal" 
>
<path vector-effect="none" fill-rule="evenodd" d="M29.5625,56.5625 L21.8281,56.4688 C22.0938,57.6406 22.1875,61.875 22.1875,63.5938 C22.1875,67.375 22.5469,79.625 23.3594,85.8281 C25.7031,103.844 32.625,109.781 39.2031,109.781 C45.0469,109.781 49.2813,104.656 53.6875,92.4063 L48.2031,86.5469 C46.3125,93.8438 42.9844,102.047 39.2031,102.047 C34.875,102.047 31.375,95.0156 29.9219,84.6563 C29.125,78.8125 29.0313,68.0938 29.0313,64.125 C29.0313,62.5156 29.3906,57.7344 29.5625,56.5625 M68.0938,58.8125 L61.4219,60.9844 C69.4375,70.25 73.5781,87.9063 74.4844,98.4375 L81.4063,95.6406 C80.5,85.6563 75.8281,68.1875 68.0938,58.8125 "/>
</g>

<g fill="#000000" fill-opacity="1" stroke="none" transform="matrix(1,0,0,1,0,0)"
font-family="Noto Sans CJK JP" font-size="90" font-weight="400" font-style="normal" 
>
<path vector-effect="none" fill-rule="evenodd" d="M29.5625,56.5625 L21.8281,56.4688 C22.0938,57.6406 22.1875,61.875 22.1875,63.5938 C22.1875,67.375 22.5469,79.625 23.3594,85.8281 C25.7031,103.844 32.625,109.781 39.2031,109.781 C45.0469,109.781 49.2813,104.656 53.6875,92.4063 L48.2031,86.5469 C46.3125,93.8438 42.9844,102.047 39.2031,102.047 C34.875,102.047 31.375,95.0156 29.9219,84.6563 C29.125,78.8125 29.0313,68.0938 29.0313,64.125 C29.0313,62.5156 29.3906,57.7344 29.5625,56.5625 M68.0938,58.8125 L61.4219,60.9844 C69.4375,70.25 73.5781,87.9063 74.4844,98.4375 L81.4063,95.6406 C80.5,85.6563 75.8281,68.1875 68.0938,58.8125 "/>
</g>
</g>
</svg>
