<?xml version="1.0" encoding="UTF-8" standalone="no"?>
<svg width="35.2778mm" height="45.8611mm"
 xmlns="http://www.w3.org/2000/svg" xmlns:xlink="http://www.w3.org/1999/xlink"  version="1.2" baseProfile="tiny">
<title>Qt SVG Document</title>
<desc>Generated with Qt</desc>
<defs>
</defs>
<g fill="none" stroke="black" stroke-width="1" fill-rule="evenodd" stroke-linecap="square" stroke-linejoin="bevel" >

<g fill="#c0c0c0" fill-opacity="1" stroke="none" transform="matrix(1,0,0,1,0,0)"
font-family="Noto Sans" font-size="10" font-weight="400" font-style="normal" 
>
<path vector-effect="none" fill-rule="evenodd" d="M1,6 C1,3.23858 3.23858,1 6,1 L95,1 C97.7614,1 100,3.23858 100,6 L100,125 C100,127.761 97.7614,130 95,130 L6,130 C3.23858,130 1,127.761 1,125 L1,6"/>
</g>

<g fill="none" stroke="#000000" stroke-opacity="1" stroke-width="2" stroke-linecap="square" stroke-linejoin="bevel" transform="matrix(1,0,0,1,0,0)"
font-family="Noto Sans" font-size="10" font-weight="400" font-style="normal" 
>
<path vector-effect="none" fill-rule="evenodd" d="M1,6 C1,3.23858 3.23858,1 6,1 L95,1 C97.7614,1 100,3.23858 100,6 L100,125 C100,127.761 97.7614,130 95,130 L6,130 C3.23858,130 1,127.761 1,125 L1,6"/>
</g>

<g fill="none" stroke="#000000" stroke-opacity="1" stroke-width="2" stroke-linecap="square" stroke-linejoin="bevel" transform="matrix(1,0,0,1,0,0)"
font-family="Noto Sans CJK JP" font-size="90" font-weight="400" font-style="normal" 
>
<path vector-effect="none" fill-rule="evenodd" d="M17.6875,110.047 C25.25,103.844 31.0156,95.0156 33.7031,85.3906 C36.1406,76.3906 36.5,57.125 36.5,47.1406 C36.5,44.4375 36.8594,41.75 36.9531,40.6563 L28.6719,40.6563 C29.0313,42.5469 29.2969,44.5313 29.2969,47.2344 C29.2969,57.2188 29.2031,75.125 26.5938,83.4063 C23.9063,92.1406 18.5,100.156 10.9375,105.547 L17.6875,110.047 M56.9219,109.953 C57.8281,109.234 58.6406,108.609 59.9844,107.891 C70.4219,102.672 82.9375,93.4844 90.6719,82.9688 L86.3594,76.8438 C79.5156,87.0156 68.4531,95.2031 60.1719,98.9844 L60.1719,47.0469 C60.1719,43.6406 60.4375,41.1094 60.5313,40.3906 L52.25,40.3906 C52.3438,41.1094 52.7813,43.6406 52.7813,47.0469 L52.7813,100.953 C52.7813,102.766 52.5156,104.563 52.1563,106 L56.9219,109.953"/>
</g>

<g fill="#000000" fill-opacity="1" stroke="none" transform="matrix(1,0,0,1,0,0)"
font-family="Noto Sans CJK JP" font-size="90" font-weight="400" font-style="normal" 
>
<path vector-effect="none" fill-rule="evenodd" d="M17.6875,110.047 C25.25,103.844 31.0156,95.0156 33.7031,85.3906 C36.1406,76.3906 36.5,57.125 36.5,47.1406 C36.5,44.4375 36.8594,41.75 36.9531,40.6563 L28.6719,40.6563 C29.0313,42.5469 29.2969,44.5313 29.2969,47.2344 C29.2969,57.2188 29.2031,75.125 26.5938,83.4063 C23.9063,92.1406 18.5,100.156 10.9375,105.547 L17.6875,110.047 M56.9219,109.953 C57.8281,109.234 58.6406,108.609 59.9844,107.891 C70.4219,102.672 82.9375,93.4844 90.6719,82.9688 L86.3594,76.8438 C79.5156,87.0156 68.4531,95.2031 60.1719,98.9844 L60.1719,47.0469 C60.1719,43.6406 60.4375,41.1094 60.5313,40.3906 L52.25,40.3906 C52.3438,41.1094 52.7813,43.6406 52.7813,47.0469 L52.7813,100.953 C52.7813,102.766 52.5156,104.563 52.1563,106 L56.9219,109.953"/>
</g>
</g>
</svg>
