<?xml version="1.0" encoding="UTF-8" standalone="no"?>
<svg width="79.375mm" height="45.8611mm"
 xmlns="http://www.w3.org/2000/svg" xmlns:xlink="http://www.w3.org/1999/xlink"  version="1.2" baseProfile="tiny">
<title>Qt SVG Document</title>
<desc>Generated with Qt</desc>
<defs>
</defs>
<g fill="none" stroke="black" stroke-width="1" fill-rule="evenodd" stroke-linecap="square" stroke-linejoin="bevel" >

<g fill="#808080" fill-opacity="1" stroke="none" transform="matrix(1,0,0,1,0,0)"
font-family="Noto Sans" font-size="10" font-weight="400" font-style="normal" 
>
<path vector-effect="none" fill-rule="evenodd" d="M1,6 C1,3.23858 3.23858,1 6,1 L220,1 C222.761,1 225,3.23858 225,6 L225,125 C225,127.761 222.761,130 220,130 L6,130 C3.23858,130 1,127.761 1,125 L1,6"/>
</g>

<g fill="none" stroke="#000000" stroke-opacity="1" stroke-width="2" stroke-linecap="square" stroke-linejoin="bevel" transform="matrix(1,0,0,1,0,0)"
font-family="Noto Sans" font-size="10" font-weight="400" font-style="normal" 
>
<path vector-effect="none" fill-rule="evenodd" d="M1,6 C1,3.23858 3.23858,1 6,1 L220,1 C222.761,1 225,3.23858 225,6 L225,125 C225,127.761 222.761,130 220,130 L6,130 C3.23858,130 1,127.761 1,125 L1,6"/>
</g>

<g fill="none" stroke="#000000" stroke-opacity="1" stroke-width="2" stroke-linecap="square" stroke-linejoin="bevel" transform="matrix(1,0,0,1,0,0)"
font-family="Noto Sans CJK JP" font-size="72" font-weight="400" font-style="normal" 
>
<path vector-effect="none" fill-rule="evenodd" d="M38.1406,91.5 C49.1563,91.5 56.0625,84.875 56.0625,76.5156 C56.0625,68.6719 51.3125,65.0781 45.2031,62.4063 L37.6406,59.1719 C33.5313,57.4375 28.9219,55.5 28.9219,50.3906 C28.9219,45.625 32.8125,42.6094 38.7813,42.6094 C43.6875,42.6094 47.5781,44.5469 50.8125,47.5781 L54.3438,43.3281 C50.5938,39.4375 45.0469,36.7813 38.7813,36.7813 C29.2188,36.7813 22.1563,42.6719 22.1563,50.8125 C22.1563,58.5156 27.9844,62.2656 32.8906,64.3594 L40.5156,67.6719 C45.4844,69.8906 49.2969,71.625 49.2969,77.0313 C49.2969,82.2031 45.125,85.6719 38.2188,85.6719 C32.7344,85.6719 27.4063,83.0781 23.5938,79.1094 L19.6406,83.6563 C24.25,88.4688 30.6563,91.5 38.1406,91.5 M66.4219,90.5625 L73.1094,90.5625 L73.1094,65.6406 L97.7344,65.6406 L97.7344,90.5625 L104.359,90.5625 L104.359,37.7813 L97.7344,37.7813 L97.7344,59.8906 L73.1094,59.8906 L73.1094,37.7813 L66.4219,37.7813 L66.4219,90.5625 M118.828,90.5625 L125.516,90.5625 L125.516,37.7813 L118.828,37.7813 L118.828,90.5625 M139.922,90.5625 L146.609,90.5625 L146.609,66.875 L166.781,66.875 L166.781,61.25 L146.609,61.25 L146.609,43.3906 L170.375,43.3906 L170.375,37.7813 L139.922,37.7813 L139.922,90.5625 M190.672,90.5625 L197.375,90.5625 L197.375,43.3906 L213.359,43.3906 L213.359,37.7813 L174.688,37.7813 L174.688,43.3906 L190.672,43.3906 L190.672,90.5625"/>
</g>

<g fill="#ffffff" fill-opacity="1" stroke="none" transform="matrix(1,0,0,1,0,0)"
font-family="Noto Sans CJK JP" font-size="72" font-weight="400" font-style="normal" 
>
<path vector-effect="none" fill-rule="evenodd" d="M38.1406,91.5 C49.1563,91.5 56.0625,84.875 56.0625,76.5156 C56.0625,68.6719 51.3125,65.0781 45.2031,62.4063 L37.6406,59.1719 C33.5313,57.4375 28.9219,55.5 28.9219,50.3906 C28.9219,45.625 32.8125,42.6094 38.7813,42.6094 C43.6875,42.6094 47.5781,44.5469 50.8125,47.5781 L54.3438,43.3281 C50.5938,39.4375 45.0469,36.7813 38.7813,36.7813 C29.2188,36.7813 22.1563,42.6719 22.1563,50.8125 C22.1563,58.5156 27.9844,62.2656 32.8906,64.3594 L40.5156,67.6719 C45.4844,69.8906 49.2969,71.625 49.2969,77.0313 C49.2969,82.2031 45.125,85.6719 38.2188,85.6719 C32.7344,85.6719 27.4063,83.0781 23.5938,79.1094 L19.6406,83.6563 C24.25,88.4688 30.6563,91.5 38.1406,91.5 M66.4219,90.5625 L73.1094,90.5625 L73.1094,65.6406 L97.7344,65.6406 L97.7344,90.5625 L104.359,90.5625 L104.359,37.7813 L97.7344,37.7813 L97.7344,59.8906 L73.1094,59.8906 L73.1094,37.7813 L66.4219,37.7813 L66.4219,90.5625 M118.828,90.5625 L125.516,90.5625 L125.516,37.7813 L118.828,37.7813 L118.828,90.5625 M139.922,90.5625 L146.609,90.5625 L146.609,66.875 L166.781,66.875 L166.781,61.25 L146.609,61.25 L146.609,43.3906 L170.375,43.3906 L170.375,37.7813 L139.922,37.7813 L139.922,90.5625 M190.672,90.5625 L197.375,90.5625 L197.375,43.3906 L213.359,43.3906 L213.359,37.7813 L174.688,37.7813 L174.688,43.3906 L190.672,43.3906 L190.672,90.5625"/>
</g>
</g>
</svg>
