<?xml version="1.0" encoding="UTF-8" standalone="no"?>
<svg width="35.2778mm" height="45.8611mm"
 xmlns="http://www.w3.org/2000/svg" xmlns:xlink="http://www.w3.org/1999/xlink"  version="1.2" baseProfile="tiny">
<title>Qt SVG Document</title>
<desc>Generated with Qt</desc>
<defs>
</defs>
<g fill="none" stroke="black" stroke-width="1" fill-rule="evenodd" stroke-linecap="square" stroke-linejoin="bevel" >

<g fill="#c0c0c0" fill-opacity="1" stroke="none" transform="matrix(1,0,0,1,0,0)"
font-family="Noto Sans" font-size="10" font-weight="400" font-style="normal" 
>
<path vector-effect="none" fill-rule="evenodd" d="M1,6 C1,3.23858 3.23858,1 6,1 L95,1 C97.7614,1 100,3.23858 100,6 L100,125 C100,127.761 97.7614,130 95,130 L6,130 C3.23858,130 1,127.761 1,125 L1,6"/>
</g>

<g fill="none" stroke="#000000" stroke-opacity="1" stroke-width="2" stroke-linecap="square" stroke-linejoin="bevel" transform="matrix(1,0,0,1,0,0)"
font-family="Noto Sans" font-size="10" font-weight="400" font-style="normal" 
>
<path vector-effect="none" fill-rule="evenodd" d="M1,6 C1,3.23858 3.23858,1 6,1 L95,1 C97.7614,1 100,3.23858 100,6 L100,125 C100,127.761 97.7614,130 95,130 L6,130 C3.23858,130 1,127.761 1,125 L1,6"/>
</g>

<g fill="none" stroke="#000000" stroke-opacity="1" stroke-width="2" stroke-linecap="square" stroke-linejoin="bevel" transform="matrix(1,0,0,1,0,0)"
font-family="Noto Sans CJK JP" font-size="90" font-weight="400" font-style="normal" 
>
<path vector-effect="none" fill-rule="evenodd" d="M30.8281,39.7656 L28.2188,46.4219 C40.6406,48.0469 64.2188,53.1719 75.2031,57.125 L78.0781,50.2031 C66.7344,46.25 42.5313,41.2969 30.8281,39.7656 M26.7813,63.5156 L24.0781,70.2656 C36.8594,72.1563 58.8125,77.1094 69.25,81.25 L72.1406,74.3281 C60.8906,70.1875 39.1094,65.5938 26.7813,63.5156 M21.8281,89.7188 L19.0469,96.5469 C33.625,98.8906 60.3438,104.922 72.3125,110.141 L75.375,103.203 C63.0469,98.2656 36.9531,92.0469 21.8281,89.7188 "/>
</g>

<g fill="#000000" fill-opacity="1" stroke="none" transform="matrix(1,0,0,1,0,0)"
font-family="Noto Sans CJK JP" font-size="90" font-weight="400" font-style="normal" 
>
<path vector-effect="none" fill-rule="evenodd" d="M30.8281,39.7656 L28.2188,46.4219 C40.6406,48.0469 64.2188,53.1719 75.2031,57.125 L78.0781,50.2031 C66.7344,46.25 42.5313,41.2969 30.8281,39.7656 M26.7813,63.5156 L24.0781,70.2656 C36.8594,72.1563 58.8125,77.1094 69.25,81.25 L72.1406,74.3281 C60.8906,70.1875 39.1094,65.5938 26.7813,63.5156 M21.8281,89.7188 L19.0469,96.5469 C33.625,98.8906 60.3438,104.922 72.3125,110.141 L75.375,103.203 C63.0469,98.2656 36.9531,92.0469 21.8281,89.7188 "/>
</g>
</g>
</svg>
