<?xml version="1.0" encoding="UTF-8" standalone="no"?>
<svg width="35.2778mm" height="45.8611mm"
 xmlns="http://www.w3.org/2000/svg" xmlns:xlink="http://www.w3.org/1999/xlink"  version="1.2" baseProfile="tiny">
<title>Qt SVG Document</title>
<desc>Generated with Qt</desc>
<defs>
</defs>
<g fill="none" stroke="black" stroke-width="1" fill-rule="evenodd" stroke-linecap="square" stroke-linejoin="bevel" >

<g fill="#c0c0c0" fill-opacity="1" stroke="none" transform="matrix(1,0,0,1,0,0)"
font-family="Noto Sans" font-size="10" font-weight="400" font-style="normal" 
>
<path vector-effect="none" fill-rule="evenodd" d="M1,6 C1,3.23858 3.23858,1 6,1 L95,1 C97.7614,1 100,3.23858 100,6 L100,125 C100,127.761 97.7614,130 95,130 L6,130 C3.23858,130 1,127.761 1,125 L1,6"/>
</g>

<g fill="none" stroke="#000000" stroke-opacity="1" stroke-width="2" stroke-linecap="square" stroke-linejoin="bevel" transform="matrix(1,0,0,1,0,0)"
font-family="Noto Sans" font-size="10" font-weight="400" font-style="normal" 
>
<path vector-effect="none" fill-rule="evenodd" d="M1,6 C1,3.23858 3.23858,1 6,1 L95,1 C97.7614,1 100,3.23858 100,6 L100,125 C100,127.761 97.7614,130 95,130 L6,130 C3.23858,130 1,127.761 1,125 L1,6"/>
</g>

<g fill="none" stroke="#000000" stroke-opacity="1" stroke-width="2" stroke-linecap="square" stroke-linejoin="bevel" transform="matrix(1,0,0,1,0,0)"
font-family="Noto Sans CJK JP" font-size="90" font-weight="400" font-style="normal" 
>
<path vector-effect="none" fill-rule="evenodd" d="M30.2031,109.516 C31.5469,108.609 32.9844,108.156 33.9844,107.891 C56.3906,101.328 74.9219,90.25 86.625,75.7656 L82.5781,69.4688 C71.4219,83.9531 50.5313,95.8281 33.3438,100.156 L33.3438,49.125 C33.3438,46.5156 33.625,43.1875 33.9844,40.9375 L25.1563,40.9375 C25.4219,42.7344 25.875,46.6875 25.875,49.125 L25.875,100.594 C25.875,102.406 25.6094,103.578 24.9844,105.016 L30.2031,109.516"/>
</g>

<g fill="#000000" fill-opacity="1" stroke="none" transform="matrix(1,0,0,1,0,0)"
font-family="Noto Sans CJK JP" font-size="90" font-weight="400" font-style="normal" 
>
<path vector-effect="none" fill-rule="evenodd" d="M30.2031,109.516 C31.5469,108.609 32.9844,108.156 33.9844,107.891 C56.3906,101.328 74.9219,90.25 86.625,75.7656 L82.5781,69.4688 C71.4219,83.9531 50.5313,95.8281 33.3438,100.156 L33.3438,49.125 C33.3438,46.5156 33.625,43.1875 33.9844,40.9375 L25.1563,40.9375 C25.4219,42.7344 25.875,46.6875 25.875,49.125 L25.875,100.594 C25.875,102.406 25.6094,103.578 24.9844,105.016 L30.2031,109.516"/>
</g>
</g>
</svg>
