<?xml version="1.0" encoding="UTF-8" standalone="no"?>
<svg width="35.2778mm" height="45.8611mm"
 xmlns="http://www.w3.org/2000/svg" xmlns:xlink="http://www.w3.org/1999/xlink"  version="1.2" baseProfile="tiny">
<title>Qt SVG Document</title>
<desc>Generated with Qt</desc>
<defs>
</defs>
<g fill="none" stroke="black" stroke-width="1" fill-rule="evenodd" stroke-linecap="square" stroke-linejoin="bevel" >

<g fill="#c0c0c0" fill-opacity="1" stroke="none" transform="matrix(1,0,0,1,0,0)"
font-family="Noto Sans" font-size="10" font-weight="400" font-style="normal" 
>
<path vector-effect="none" fill-rule="evenodd" d="M1,6 C1,3.23858 3.23858,1 6,1 L95,1 C97.7614,1 100,3.23858 100,6 L100,125 C100,127.761 97.7614,130 95,130 L6,130 C3.23858,130 1,127.761 1,125 L1,6"/>
</g>

<g fill="none" stroke="#000000" stroke-opacity="1" stroke-width="2" stroke-linecap="square" stroke-linejoin="bevel" transform="matrix(1,0,0,1,0,0)"
font-family="Noto Sans" font-size="10" font-weight="400" font-style="normal" 
>
<path vector-effect="none" fill-rule="evenodd" d="M1,6 C1,3.23858 3.23858,1 6,1 L95,1 C97.7614,1 100,3.23858 100,6 L100,125 C100,127.761 97.7614,130 95,130 L6,130 C3.23858,130 1,127.761 1,125 L1,6"/>
</g>

<g fill="none" stroke="#000000" stroke-opacity="1" stroke-width="2" stroke-linecap="square" stroke-linejoin="bevel" transform="matrix(1,0,0,1,0,0)"
font-family="Noto Sans CJK JP" font-size="90" font-weight="400" font-style="normal" 
>
<path vector-effect="none" fill-rule="evenodd" d="M68.5313,95.1094 C70.0625,85.4844 73.8438,61.4531 74.8438,53 C74.9219,52.2656 75.2031,50.9219 75.5625,50.0156 L69.5313,47.2344 C68.4531,47.5938 65.75,47.9531 63.9531,47.9531 L30.7344,47.9531 C27.7656,47.9531 24.8906,47.7656 22.2813,47.4063 L22.2813,55.4219 C25.0625,55.25 27.5,55.0625 30.8281,55.0625 L66.2813,55.0625 C66.0156,61.3594 62.2344,85.4844 60.625,95.1094 L20.0313,95.1094 C17.5156,95.1094 14.8125,94.9375 12.1094,94.5781 L12.1094,102.766 C14.9063,102.5 17.5156,102.406 20.0313,102.406 L80.7813,102.406 C82.5781,102.406 85.8125,102.5 88.25,102.766 L88.25,94.5781 C86,94.8438 83.4844,95.1094 80.7813,95.1094 L68.5313,95.1094"/>
</g>

<g fill="#000000" fill-opacity="1" stroke="none" transform="matrix(1,0,0,1,0,0)"
font-family="Noto Sans CJK JP" font-size="90" font-weight="400" font-style="normal" 
>
<path vector-effect="none" fill-rule="evenodd" d="M68.5313,95.1094 C70.0625,85.4844 73.8438,61.4531 74.8438,53 C74.9219,52.2656 75.2031,50.9219 75.5625,50.0156 L69.5313,47.2344 C68.4531,47.5938 65.75,47.9531 63.9531,47.9531 L30.7344,47.9531 C27.7656,47.9531 24.8906,47.7656 22.2813,47.4063 L22.2813,55.4219 C25.0625,55.25 27.5,55.0625 30.8281,55.0625 L66.2813,55.0625 C66.0156,61.3594 62.2344,85.4844 60.625,95.1094 L20.0313,95.1094 C17.5156,95.1094 14.8125,94.9375 12.1094,94.5781 L12.1094,102.766 C14.9063,102.5 17.5156,102.406 20.0313,102.406 L80.7813,102.406 C82.5781,102.406 85.8125,102.5 88.25,102.766 L88.25,94.5781 C86,94.8438 83.4844,95.1094 80.7813,95.1094 L68.5313,95.1094"/>
</g>
</g>
</svg>
