<?xml version="1.0" encoding="UTF-8" standalone="no"?>
<svg width="70.5556mm" height="45.8611mm"
 xmlns="http://www.w3.org/2000/svg" xmlns:xlink="http://www.w3.org/1999/xlink"  version="1.2" baseProfile="tiny">
<title>Qt SVG Document</title>
<desc>Generated with Qt</desc>
<defs>
</defs>
<g fill="none" stroke="black" stroke-width="1" fill-rule="evenodd" stroke-linecap="square" stroke-linejoin="bevel" >

<g fill="#808080" fill-opacity="1" stroke="none" transform="matrix(1,0,0,1,0,0)"
font-family="Noto Sans" font-size="10" font-weight="400" font-style="normal" 
>
<path vector-effect="none" fill-rule="evenodd" d="M1,6 C1,3.23858 3.23858,1 6,1 L195,1 C197.761,1 200,3.23858 200,6 L200,125 C200,127.761 197.761,130 195,130 L6,130 C3.23858,130 1,127.761 1,125 L1,6"/>
</g>

<g fill="none" stroke="#000000" stroke-opacity="1" stroke-width="2" stroke-linecap="square" stroke-linejoin="bevel" transform="matrix(1,0,0,1,0,0)"
font-family="Noto Sans" font-size="10" font-weight="400" font-style="normal" 
>
<path vector-effect="none" fill-rule="evenodd" d="M1,6 C1,3.23858 3.23858,1 6,1 L195,1 C197.761,1 200,3.23858 200,6 L200,125 C200,127.761 197.761,130 195,130 L6,130 C3.23858,130 1,127.761 1,125 L1,6"/>
</g>

<g fill="none" stroke="#000000" stroke-opacity="1" stroke-width="2" stroke-linecap="square" stroke-linejoin="bevel" transform="matrix(1,0,0,1,0,0)"
font-family="Noto Sans CJK JP" font-size="90" font-weight="400" font-style="normal" 
>
<path vector-effect="none" fill-rule="evenodd" d="M36.8125,101.391 L45.0938,101.391 L45.0938,71.875 L73.5313,71.875 L73.5313,64.7656 L45.0938,64.7656 L45.0938,42.3594 L80.2031,42.3594 L80.2031,35.25 L36.8125,35.25 L36.8125,101.391 M143.625,102.469 C156.047,102.469 167.844,94.4531 167.844,79.7969 C167.844,65.75 157.578,58.8281 145.438,58.8281 C139.766,58.8281 135.797,59.8125 131.844,62.1563 L133.469,42.3594 L165.234,42.3594 L165.234,35.25 L126.359,35.25 L124.281,66.9219 L128.688,69.625 C133.281,66.375 137.516,65.125 143.547,65.125 C153,65.125 159.469,70.9688 159.469,80.0625 C159.469,89.6875 151.828,95.5469 142.906,95.5469 C134.266,95.5469 128.688,92.125 123.922,87.3438 L119.781,92.6563 C125.188,98.0625 132.297,102.469 143.625,102.469 "/>
</g>

<g fill="#ffffff" fill-opacity="1" stroke="none" transform="matrix(1,0,0,1,0,0)"
font-family="Noto Sans CJK JP" font-size="90" font-weight="400" font-style="normal" 
>
<path vector-effect="none" fill-rule="evenodd" d="M36.8125,101.391 L45.0938,101.391 L45.0938,71.875 L73.5313,71.875 L73.5313,64.7656 L45.0938,64.7656 L45.0938,42.3594 L80.2031,42.3594 L80.2031,35.25 L36.8125,35.25 L36.8125,101.391 M143.625,102.469 C156.047,102.469 167.844,94.4531 167.844,79.7969 C167.844,65.75 157.578,58.8281 145.438,58.8281 C139.766,58.8281 135.797,59.8125 131.844,62.1563 L133.469,42.3594 L165.234,42.3594 L165.234,35.25 L126.359,35.25 L124.281,66.9219 L128.688,69.625 C133.281,66.375 137.516,65.125 143.547,65.125 C153,65.125 159.469,70.9688 159.469,80.0625 C159.469,89.6875 151.828,95.5469 142.906,95.5469 C134.266,95.5469 128.688,92.125 123.922,87.3438 L119.781,92.6563 C125.188,98.0625 132.297,102.469 143.625,102.469 "/>
</g>
</g>
</svg>
