<?xml version="1.0" encoding="UTF-8" standalone="no"?>
<svg width="35.2778mm" height="45.8611mm"
 xmlns="http://www.w3.org/2000/svg" xmlns:xlink="http://www.w3.org/1999/xlink"  version="1.2" baseProfile="tiny">
<title>Qt SVG Document</title>
<desc>Generated with Qt</desc>
<defs>
</defs>
<g fill="none" stroke="black" stroke-width="1" fill-rule="evenodd" stroke-linecap="square" stroke-linejoin="bevel" >

<g fill="#c0c0c0" fill-opacity="1" stroke="none" transform="matrix(1,0,0,1,0,0)"
font-family="Noto Sans" font-size="10" font-weight="400" font-style="normal" 
>
<path vector-effect="none" fill-rule="evenodd" d="M1,6 C1,3.23858 3.23858,1 6,1 L95,1 C97.7614,1 100,3.23858 100,6 L100,125 C100,127.761 97.7614,130 95,130 L6,130 C3.23858,130 1,127.761 1,125 L1,6"/>
</g>

<g fill="none" stroke="#000000" stroke-opacity="1" stroke-width="2" stroke-linecap="square" stroke-linejoin="bevel" transform="matrix(1,0,0,1,0,0)"
font-family="Noto Sans" font-size="10" font-weight="400" font-style="normal" 
>
<path vector-effect="none" fill-rule="evenodd" d="M1,6 C1,3.23858 3.23858,1 6,1 L95,1 C97.7614,1 100,3.23858 100,6 L100,125 C100,127.761 97.7614,130 95,130 L6,130 C3.23858,130 1,127.761 1,125 L1,6"/>
</g>

<g fill="none" stroke="#000000" stroke-opacity="1" stroke-width="2" stroke-linecap="square" stroke-linejoin="bevel" transform="matrix(1,0,0,1,0,0)"
font-family="Noto Sans CJK JP" font-size="90" font-weight="400" font-style="normal" 
>
<path vector-effect="none" fill-rule="evenodd" d="M77.4531,48.0469 C76,48.5781 74.0313,48.8594 71.5938,48.8594 L47.125,48.8594 C47.9219,47.5938 48.6406,46.3281 49.2813,45.0625 C50.1719,43.3594 51.7969,40.375 53.3281,38.0313 L44.9531,35.2344 C44.4219,37.5781 43.1563,40.8281 42.1719,42.3594 C38.2969,50.4688 29.4844,63.5313 13.9063,72.8125 L20.125,77.4844 C29.9219,70.9063 37.4844,62.8906 42.8906,55.3281 L73.3125,55.3281 C71.5,63.5313 66.0156,75.1406 59,83.4375 C50.8125,92.9844 39.5625,101.172 23.0938,106.031 L29.5625,111.891 C46.4844,105.672 57.2031,97.3906 65.3906,87.3906 C73.3906,77.6719 78.8906,65.4219 81.3125,56.4219 C81.8594,54.9688 82.75,52.9063 83.4844,51.6406 L77.4531,48.0469"/>
</g>

<g fill="#000000" fill-opacity="1" stroke="none" transform="matrix(1,0,0,1,0,0)"
font-family="Noto Sans CJK JP" font-size="90" font-weight="400" font-style="normal" 
>
<path vector-effect="none" fill-rule="evenodd" d="M77.4531,48.0469 C76,48.5781 74.0313,48.8594 71.5938,48.8594 L47.125,48.8594 C47.9219,47.5938 48.6406,46.3281 49.2813,45.0625 C50.1719,43.3594 51.7969,40.375 53.3281,38.0313 L44.9531,35.2344 C44.4219,37.5781 43.1563,40.8281 42.1719,42.3594 C38.2969,50.4688 29.4844,63.5313 13.9063,72.8125 L20.125,77.4844 C29.9219,70.9063 37.4844,62.8906 42.8906,55.3281 L73.3125,55.3281 C71.5,63.5313 66.0156,75.1406 59,83.4375 C50.8125,92.9844 39.5625,101.172 23.0938,106.031 L29.5625,111.891 C46.4844,105.672 57.2031,97.3906 65.3906,87.3906 C73.3906,77.6719 78.8906,65.4219 81.3125,56.4219 C81.8594,54.9688 82.75,52.9063 83.4844,51.6406 L77.4531,48.0469"/>
</g>
</g>
</svg>
