<?xml version="1.0" encoding="UTF-8" standalone="no"?>
<svg width="35.2778mm" height="45.8611mm"
 xmlns="http://www.w3.org/2000/svg" xmlns:xlink="http://www.w3.org/1999/xlink"  version="1.2" baseProfile="tiny">
<title>Qt SVG Document</title>
<desc>Generated with Qt</desc>
<defs>
</defs>
<g fill="none" stroke="black" stroke-width="1" fill-rule="evenodd" stroke-linecap="square" stroke-linejoin="bevel" >

<g fill="#c0c0c0" fill-opacity="1" stroke="none" transform="matrix(1,0,0,1,0,0)"
font-family="Noto Sans" font-size="10" font-weight="400" font-style="normal" 
>
<path vector-effect="none" fill-rule="evenodd" d="M1,6 C1,3.23858 3.23858,1 6,1 L95,1 C97.7614,1 100,3.23858 100,6 L100,125 C100,127.761 97.7614,130 95,130 L6,130 C3.23858,130 1,127.761 1,125 L1,6"/>
</g>

<g fill="none" stroke="#000000" stroke-opacity="1" stroke-width="2" stroke-linecap="square" stroke-linejoin="bevel" transform="matrix(1,0,0,1,0,0)"
font-family="Noto Sans" font-size="10" font-weight="400" font-style="normal" 
>
<path vector-effect="none" fill-rule="evenodd" d="M1,6 C1,3.23858 3.23858,1 6,1 L95,1 C97.7614,1 100,3.23858 100,6 L100,125 C100,127.761 97.7614,130 95,130 L6,130 C3.23858,130 1,127.761 1,125 L1,6"/>
</g>

<g fill="none" stroke="#000000" stroke-opacity="1" stroke-width="2" stroke-linecap="square" stroke-linejoin="bevel" transform="matrix(1,0,0,1,0,0)"
font-family="Noto Sans CJK JP" font-size="90" font-weight="400" font-style="normal" 
>
<path vector-effect="none" fill-rule="evenodd" d="M62.5938,102.406 C57.8281,102.406 55.2188,100.156 55.2188,96.5469 C55.2188,93.7656 57.8281,90.875 63.1406,90.875 C67.0938,90.875 70.7813,92.2344 74.125,94.125 C71.6875,99.0781 68,102.406 62.5938,102.406 M44.875,73.1563 C43.3438,77.375 41.5313,81.3438 39.5625,84.8438 C37.5781,81.875 35.7813,78.5469 34.1563,75.0469 C33.1719,72.875 31.9063,70 30.5625,66.6719 C35.4219,62 41.5313,58.2969 48.7344,56.7656 C47.8438,62.3594 46.5781,68.2031 44.875,73.1563 M25.7031,72.25 C26.9531,75.3125 28.2188,78.2813 29.2969,80.5313 C31.1875,84.3125 33.3438,88 35.5156,90.9688 C31.6406,96.0938 27.5,99.25 23.7188,99.25 C20.9219,99.25 18.5938,96.1875 18.5938,91.6875 C18.5938,85.3906 20.9219,79.3594 24.8906,73.4219 L25.7031,72.25 M56.5625,49.75 L57.1094,45.0625 C57.375,43.1719 57.6406,40.1094 58.0938,37.9375 L50,37.6719 C50.2656,40.2813 50.2656,42 50.0938,45.0625 C50,46.6875 49.8125,48.4844 49.6406,50.3906 C40.9063,51.9063 33.7969,55.7813 28.2188,60.4688 C26.5156,55.6094 24.8906,50.3906 23.9063,45.6875 L17.1563,48.4844 C18.6719,52 19.4063,54.5156 20.3906,57.7656 C21.1094,60.0156 22.0938,62.625 23.0938,65.4063 C21.8281,66.8594 20.6563,68.375 19.5781,69.8281 C15.2656,75.7656 12.1094,83.5938 12.1094,92.7656 C12.1094,101.328 17.1563,106.547 23.4531,106.547 C35.1563,106.547 45.5938,91.4219 51.2656,75.3125 C53.4219,69.1094 54.7656,62.3594 55.7656,55.875 L57.0156,55.875 C70.1563,55.875 77.4531,64.7813 77.4531,76.2969 C77.4531,80.4375 77,84.5781 76.0938,88.3594 C72.2344,86.4688 67.8125,85.2188 62.9531,85.2188 C54.6719,85.2188 48.9219,90.9688 48.9219,97.1875 C48.9219,104.375 54.4063,108.797 62.875,108.797 C70.7813,108.797 76.3594,104.828 79.7813,98.3438 C82.8438,101.047 85.2813,103.938 87.1719,106.188 L91.4844,100.781 C89.1406,98.0781 86.0938,94.9375 82.3125,92.0469 C83.6563,87.4688 84.2813,82.0625 84.2813,76.125 C84.2813,59.4688 71.9531,49.75 57.4688,49.75 L56.5625,49.75"/>
</g>

<g fill="#000000" fill-opacity="1" stroke="none" transform="matrix(1,0,0,1,0,0)"
font-family="Noto Sans CJK JP" font-size="90" font-weight="400" font-style="normal" 
>
<path vector-effect="none" fill-rule="evenodd" d="M62.5938,102.406 C57.8281,102.406 55.2188,100.156 55.2188,96.5469 C55.2188,93.7656 57.8281,90.875 63.1406,90.875 C67.0938,90.875 70.7813,92.2344 74.125,94.125 C71.6875,99.0781 68,102.406 62.5938,102.406 M44.875,73.1563 C43.3438,77.375 41.5313,81.3438 39.5625,84.8438 C37.5781,81.875 35.7813,78.5469 34.1563,75.0469 C33.1719,72.875 31.9063,70 30.5625,66.6719 C35.4219,62 41.5313,58.2969 48.7344,56.7656 C47.8438,62.3594 46.5781,68.2031 44.875,73.1563 M25.7031,72.25 C26.9531,75.3125 28.2188,78.2813 29.2969,80.5313 C31.1875,84.3125 33.3438,88 35.5156,90.9688 C31.6406,96.0938 27.5,99.25 23.7188,99.25 C20.9219,99.25 18.5938,96.1875 18.5938,91.6875 C18.5938,85.3906 20.9219,79.3594 24.8906,73.4219 L25.7031,72.25 M56.5625,49.75 L57.1094,45.0625 C57.375,43.1719 57.6406,40.1094 58.0938,37.9375 L50,37.6719 C50.2656,40.2813 50.2656,42 50.0938,45.0625 C50,46.6875 49.8125,48.4844 49.6406,50.3906 C40.9063,51.9063 33.7969,55.7813 28.2188,60.4688 C26.5156,55.6094 24.8906,50.3906 23.9063,45.6875 L17.1563,48.4844 C18.6719,52 19.4063,54.5156 20.3906,57.7656 C21.1094,60.0156 22.0938,62.625 23.0938,65.4063 C21.8281,66.8594 20.6563,68.375 19.5781,69.8281 C15.2656,75.7656 12.1094,83.5938 12.1094,92.7656 C12.1094,101.328 17.1563,106.547 23.4531,106.547 C35.1563,106.547 45.5938,91.4219 51.2656,75.3125 C53.4219,69.1094 54.7656,62.3594 55.7656,55.875 L57.0156,55.875 C70.1563,55.875 77.4531,64.7813 77.4531,76.2969 C77.4531,80.4375 77,84.5781 76.0938,88.3594 C72.2344,86.4688 67.8125,85.2188 62.9531,85.2188 C54.6719,85.2188 48.9219,90.9688 48.9219,97.1875 C48.9219,104.375 54.4063,108.797 62.875,108.797 C70.7813,108.797 76.3594,104.828 79.7813,98.3438 C82.8438,101.047 85.2813,103.938 87.1719,106.188 L91.4844,100.781 C89.1406,98.0781 86.0938,94.9375 82.3125,92.0469 C83.6563,87.4688 84.2813,82.0625 84.2813,76.125 C84.2813,59.4688 71.9531,49.75 57.4688,49.75 L56.5625,49.75"/>
</g>
</g>
</svg>
