<?xml version="1.0" encoding="UTF-8" standalone="no"?>
<svg width="61.7361mm" height="45.8611mm"
 xmlns="http://www.w3.org/2000/svg" xmlns:xlink="http://www.w3.org/1999/xlink"  version="1.2" baseProfile="tiny">
<title>Qt SVG Document</title>
<desc>Generated with Qt</desc>
<defs>
</defs>
<g fill="none" stroke="black" stroke-width="1" fill-rule="evenodd" stroke-linecap="square" stroke-linejoin="bevel" >

<g fill="#808080" fill-opacity="1" stroke="none" transform="matrix(1,0,0,1,0,0)"
font-family="Noto Sans" font-size="10" font-weight="400" font-style="normal" 
>
<path vector-effect="none" fill-rule="evenodd" d="M1,6 C1,3.23858 3.23858,1 6,1 L170,1 C172.761,1 175,3.23858 175,6 L175,125 C175,127.761 172.761,130 170,130 L6,130 C3.23858,130 1,127.761 1,125 L1,6"/>
</g>

<g fill="none" stroke="#000000" stroke-opacity="1" stroke-width="2" stroke-linecap="square" stroke-linejoin="bevel" transform="matrix(1,0,0,1,0,0)"
font-family="Noto Sans" font-size="10" font-weight="400" font-style="normal" 
>
<path vector-effect="none" fill-rule="evenodd" d="M1,6 C1,3.23858 3.23858,1 6,1 L170,1 C172.761,1 175,3.23858 175,6 L175,125 C175,127.761 172.761,130 170,130 L6,130 C3.23858,130 1,127.761 1,125 L1,6"/>
</g>

<g fill="none" stroke="#000000" stroke-opacity="1" stroke-width="2" stroke-linecap="square" stroke-linejoin="bevel" transform="matrix(1,0,0,1,0,0)"
font-family="Noto Sans CJK JP" font-size="60" font-weight="400" font-style="normal" 
>
<path vector-effect="none" fill-rule="evenodd" d="M41.375,91.3438 C47.0625,91.3438 51.3906,89.0625 54.875,85.0469 L51.8125,81.5625 C48.9844,84.625 45.8125,86.4844 41.6094,86.4844 C33.2031,86.4844 27.9219,79.5156 27.9219,68.4219 C27.9219,57.4375 33.4531,50.6094 41.7969,50.6094 C45.5625,50.6094 48.5156,52.3438 50.7813,54.7969 L53.7813,51.2031 C51.2656,48.3906 47.0625,45.75 41.7344,45.75 C30.5625,45.75 22.2344,54.3906 22.2344,68.6094 C22.2344,82.875 30.4531,91.3438 41.375,91.3438 M70.9844,90.5625 L76.5781,90.5625 L76.5781,51.2656 L89.8906,51.2656 L89.8906,46.5781 L57.6719,46.5781 L57.6719,51.2656 L70.9844,51.2656 L70.9844,90.5625 M103.328,51.0781 L110.703,51.0781 C117.609,51.0781 121.391,53.125 121.391,58.9375 C121.391,64.6406 117.609,67.4063 110.703,67.4063 L103.328,67.4063 L103.328,51.0781 M128.234,90.5625 L116.953,71.2969 C122.953,69.8594 126.906,65.7813 126.906,58.9375 C126.906,49.7656 120.484,46.5781 111.547,46.5781 L97.75,46.5781 L97.75,90.5625 L103.328,90.5625 L103.328,71.9063 L111.25,71.9063 L121.922,90.5625 L128.234,90.5625 M135.844,90.5625 L160.625,90.5625 L160.625,85.8281 L141.422,85.8281 L141.422,46.5781 L135.844,46.5781 L135.844,90.5625"/>
</g>

<g fill="#ffffff" fill-opacity="1" stroke="none" transform="matrix(1,0,0,1,0,0)"
font-family="Noto Sans CJK JP" font-size="60" font-weight="400" font-style="normal" 
>
<path vector-effect="none" fill-rule="evenodd" d="M41.375,91.3438 C47.0625,91.3438 51.3906,89.0625 54.875,85.0469 L51.8125,81.5625 C48.9844,84.625 45.8125,86.4844 41.6094,86.4844 C33.2031,86.4844 27.9219,79.5156 27.9219,68.4219 C27.9219,57.4375 33.4531,50.6094 41.7969,50.6094 C45.5625,50.6094 48.5156,52.3438 50.7813,54.7969 L53.7813,51.2031 C51.2656,48.3906 47.0625,45.75 41.7344,45.75 C30.5625,45.75 22.2344,54.3906 22.2344,68.6094 C22.2344,82.875 30.4531,91.3438 41.375,91.3438 M70.9844,90.5625 L76.5781,90.5625 L76.5781,51.2656 L89.8906,51.2656 L89.8906,46.5781 L57.6719,46.5781 L57.6719,51.2656 L70.9844,51.2656 L70.9844,90.5625 M103.328,51.0781 L110.703,51.0781 C117.609,51.0781 121.391,53.125 121.391,58.9375 C121.391,64.6406 117.609,67.4063 110.703,67.4063 L103.328,67.4063 L103.328,51.0781 M128.234,90.5625 L116.953,71.2969 C122.953,69.8594 126.906,65.7813 126.906,58.9375 C126.906,49.7656 120.484,46.5781 111.547,46.5781 L97.75,46.5781 L97.75,90.5625 L103.328,90.5625 L103.328,71.9063 L111.25,71.9063 L121.922,90.5625 L128.234,90.5625 M135.844,90.5625 L160.625,90.5625 L160.625,85.8281 L141.422,85.8281 L141.422,46.5781 L135.844,46.5781 L135.844,90.5625"/>
</g>
</g>
</svg>
