<?xml version="1.0" encoding="UTF-8" standalone="no"?>
<svg width="35.2778mm" height="45.8611mm"
 xmlns="http://www.w3.org/2000/svg" xmlns:xlink="http://www.w3.org/1999/xlink"  version="1.2" baseProfile="tiny">
<title>Qt SVG Document</title>
<desc>Generated with Qt</desc>
<defs>
</defs>
<g fill="none" stroke="black" stroke-width="1" fill-rule="evenodd" stroke-linecap="square" stroke-linejoin="bevel" >

<g fill="#c0c0c0" fill-opacity="1" stroke="none" transform="matrix(1,0,0,1,0,0)"
font-family="Noto Sans" font-size="10" font-weight="400" font-style="normal" 
>
<path vector-effect="none" fill-rule="evenodd" d="M1,6 C1,3.23858 3.23858,1 6,1 L95,1 C97.7614,1 100,3.23858 100,6 L100,125 C100,127.761 97.7614,130 95,130 L6,130 C3.23858,130 1,127.761 1,125 L1,6"/>
</g>

<g fill="none" stroke="#000000" stroke-opacity="1" stroke-width="2" stroke-linecap="square" stroke-linejoin="bevel" transform="matrix(1,0,0,1,0,0)"
font-family="Noto Sans" font-size="10" font-weight="400" font-style="normal" 
>
<path vector-effect="none" fill-rule="evenodd" d="M1,6 C1,3.23858 3.23858,1 6,1 L95,1 C97.7614,1 100,3.23858 100,6 L100,125 C100,127.761 97.7614,130 95,130 L6,130 C3.23858,130 1,127.761 1,125 L1,6"/>
</g>

<g fill="none" stroke="#000000" stroke-opacity="1" stroke-width="2" stroke-linecap="square" stroke-linejoin="bevel" transform="matrix(1,0,0,1,0,0)"
font-family="Noto Sans CJK JP" font-size="90" font-weight="400" font-style="normal" 
>
<path vector-effect="none" fill-rule="evenodd" d="M81.2344,77.1094 C71.6875,72.3438 54.6719,65.8594 42.7969,62.2656 L42.7969,47.5938 C42.7969,44.8906 43.1563,41.0156 43.4219,38.2344 L34.6094,38.2344 C35.1563,41.0156 35.3281,45.0781 35.3281,47.5938 L35.3281,99.9688 C35.3281,103.297 35.1563,107.703 34.7813,110.594 L43.4219,110.594 C43.0625,107.625 42.8906,102.844 42.8906,99.9688 L42.7969,70.2656 C52.7813,73.4219 68.3594,79.4531 78.1719,84.7656 L81.2344,77.1094"/>
</g>

<g fill="#000000" fill-opacity="1" stroke="none" transform="matrix(1,0,0,1,0,0)"
font-family="Noto Sans CJK JP" font-size="90" font-weight="400" font-style="normal" 
>
<path vector-effect="none" fill-rule="evenodd" d="M81.2344,77.1094 C71.6875,72.3438 54.6719,65.8594 42.7969,62.2656 L42.7969,47.5938 C42.7969,44.8906 43.1563,41.0156 43.4219,38.2344 L34.6094,38.2344 C35.1563,41.0156 35.3281,45.0781 35.3281,47.5938 L35.3281,99.9688 C35.3281,103.297 35.1563,107.703 34.7813,110.594 L43.4219,110.594 C43.0625,107.625 42.8906,102.844 42.8906,99.9688 L42.7969,70.2656 C52.7813,73.4219 68.3594,79.4531 78.1719,84.7656 L81.2344,77.1094"/>
</g>
</g>
</svg>
