<?xml version="1.0" encoding="UTF-8" standalone="no"?>
<svg width="35.2778mm" height="45.8611mm"
 xmlns="http://www.w3.org/2000/svg" xmlns:xlink="http://www.w3.org/1999/xlink"  version="1.2" baseProfile="tiny">
<title>Qt SVG Document</title>
<desc>Generated with Qt</desc>
<defs>
</defs>
<g fill="none" stroke="black" stroke-width="1" fill-rule="evenodd" stroke-linecap="square" stroke-linejoin="bevel" >

<g fill="#c0c0c0" fill-opacity="1" stroke="none" transform="matrix(1,0,0,1,0,0)"
font-family="Noto Sans" font-size="10" font-weight="400" font-style="normal" 
>
<path vector-effect="none" fill-rule="evenodd" d="M1,6 C1,3.23858 3.23858,1 6,1 L95,1 C97.7614,1 100,3.23858 100,6 L100,125 C100,127.761 97.7614,130 95,130 L6,130 C3.23858,130 1,127.761 1,125 L1,6"/>
</g>

<g fill="none" stroke="#000000" stroke-opacity="1" stroke-width="2" stroke-linecap="square" stroke-linejoin="bevel" transform="matrix(1,0,0,1,0,0)"
font-family="Noto Sans" font-size="10" font-weight="400" font-style="normal" 
>
<path vector-effect="none" fill-rule="evenodd" d="M1,6 C1,3.23858 3.23858,1 6,1 L95,1 C97.7614,1 100,3.23858 100,6 L100,125 C100,127.761 97.7614,130 95,130 L6,130 C3.23858,130 1,127.761 1,125 L1,6"/>
</g>

<g fill="none" stroke="#000000" stroke-opacity="1" stroke-width="2" stroke-linecap="square" stroke-linejoin="bevel" transform="matrix(1,0,0,1,0,0)"
font-family="Noto Sans CJK JP" font-size="90" font-weight="400" font-style="normal" 
>
<path vector-effect="none" fill-rule="evenodd" d="M88.9688,107.531 C85.2813,98.2656 75.4688,80.1563 69.0781,70.8906 L62.3281,73.9531 C65.6563,78.2656 69.625,85.2969 73.2188,92.4063 C63.4063,93.6719 46.125,95.6563 32.9063,96.9063 C37.4063,85.2031 46.2188,57.5625 48.9219,49.0938 C50.0938,45.3125 51.0781,42.9688 51.9844,40.7188 L43.0625,38.9219 C42.7031,41.25 42.3438,43.4219 41.2656,47.5625 C38.75,56.3906 29.5625,85.2031 24.5313,97.625 C22.9063,97.7188 21.375,97.8125 20.0313,97.9063 C17.4219,97.9844 14.3594,98.0781 11.6563,97.9844 L13.0156,106.359 C15.625,106 18.2344,105.547 20.4844,105.375 C32.5313,104.297 62.5938,100.953 76.5469,99.1563 C78.5313,103.578 80.3281,107.719 81.5,110.969 L88.9688,107.531"/>
</g>

<g fill="#000000" fill-opacity="1" stroke="none" transform="matrix(1,0,0,1,0,0)"
font-family="Noto Sans CJK JP" font-size="90" font-weight="400" font-style="normal" 
>
<path vector-effect="none" fill-rule="evenodd" d="M88.9688,107.531 C85.2813,98.2656 75.4688,80.1563 69.0781,70.8906 L62.3281,73.9531 C65.6563,78.2656 69.625,85.2969 73.2188,92.4063 C63.4063,93.6719 46.125,95.6563 32.9063,96.9063 C37.4063,85.2031 46.2188,57.5625 48.9219,49.0938 C50.0938,45.3125 51.0781,42.9688 51.9844,40.7188 L43.0625,38.9219 C42.7031,41.25 42.3438,43.4219 41.2656,47.5625 C38.75,56.3906 29.5625,85.2031 24.5313,97.625 C22.9063,97.7188 21.375,97.8125 20.0313,97.9063 C17.4219,97.9844 14.3594,98.0781 11.6563,97.9844 L13.0156,106.359 C15.625,106 18.2344,105.547 20.4844,105.375 C32.5313,104.297 62.5938,100.953 76.5469,99.1563 C78.5313,103.578 80.3281,107.719 81.5,110.969 L88.9688,107.531"/>
</g>
</g>
</svg>
