<?xml version="1.0" encoding="UTF-8" standalone="no"?>
<svg width="35.2778mm" height="45.8611mm"
 xmlns="http://www.w3.org/2000/svg" xmlns:xlink="http://www.w3.org/1999/xlink"  version="1.2" baseProfile="tiny">
<title>Qt SVG Document</title>
<desc>Generated with Qt</desc>
<defs>
</defs>
<g fill="none" stroke="black" stroke-width="1" fill-rule="evenodd" stroke-linecap="square" stroke-linejoin="bevel" >

<g fill="#c0c0c0" fill-opacity="1" stroke="none" transform="matrix(1,0,0,1,0,0)"
font-family="Noto Sans" font-size="10" font-weight="400" font-style="normal" 
>
<path vector-effect="none" fill-rule="evenodd" d="M1,6 C1,3.23858 3.23858,1 6,1 L95,1 C97.7614,1 100,3.23858 100,6 L100,125 C100,127.761 97.7614,130 95,130 L6,130 C3.23858,130 1,127.761 1,125 L1,6"/>
</g>

<g fill="none" stroke="#000000" stroke-opacity="1" stroke-width="2" stroke-linecap="square" stroke-linejoin="bevel" transform="matrix(1,0,0,1,0,0)"
font-family="Noto Sans" font-size="10" font-weight="400" font-style="normal" 
>
<path vector-effect="none" fill-rule="evenodd" d="M1,6 C1,3.23858 3.23858,1 6,1 L95,1 C97.7614,1 100,3.23858 100,6 L100,125 C100,127.761 97.7614,130 95,130 L6,130 C3.23858,130 1,127.761 1,125 L1,6"/>
</g>

<g fill="none" stroke="#000000" stroke-opacity="1" stroke-width="2" stroke-linecap="square" stroke-linejoin="bevel" transform="matrix(1,0,0,1,0,0)"
font-family="Noto Sans CJK JP" font-size="90" font-weight="400" font-style="normal" 
>
<path vector-effect="none" fill-rule="evenodd" d="M75.0156,63.25 C74.125,63.5156 72.6719,63.7031 69.9844,63.7031 L53.0625,63.7031 L53.0625,57.3125 C53.0625,55.9531 53.1406,54.1563 53.5156,51.9844 L45.5,51.9844 C45.8594,54.1563 45.9531,55.9531 45.9531,57.3125 L45.9531,63.7031 L29.4844,63.7031 C26.9531,63.7031 23.9844,63.6094 21.9219,63.4375 C22.0938,65.0469 22.2813,68.1094 22.2813,69.7344 L22.2813,82.7969 C22.2813,84.2344 22.0938,86.2188 22.0156,87.4844 L29.3906,87.4844 C29.2031,86.3906 29.125,84.4219 29.125,83.1563 L29.125,70.2656 L70.9688,70.2656 C70.3438,76.7656 68,84.9531 64.2188,90.9063 C59.0938,99 51.3438,103.234 43.4219,106.125 C41.4531,106.844 37.5781,107.922 34.875,108.281 L40.5469,114.594 C55.8438,110.625 66.375,102.438 71.5938,93.0625 C75.5625,86.125 77.9844,75.9531 78.7969,70.5469 C78.9844,69.1094 79.4219,67.0313 79.7813,65.9531 L75.0156,63.25"/>
</g>

<g fill="#000000" fill-opacity="1" stroke="none" transform="matrix(1,0,0,1,0,0)"
font-family="Noto Sans CJK JP" font-size="90" font-weight="400" font-style="normal" 
>
<path vector-effect="none" fill-rule="evenodd" d="M75.0156,63.25 C74.125,63.5156 72.6719,63.7031 69.9844,63.7031 L53.0625,63.7031 L53.0625,57.3125 C53.0625,55.9531 53.1406,54.1563 53.5156,51.9844 L45.5,51.9844 C45.8594,54.1563 45.9531,55.9531 45.9531,57.3125 L45.9531,63.7031 L29.4844,63.7031 C26.9531,63.7031 23.9844,63.6094 21.9219,63.4375 C22.0938,65.0469 22.2813,68.1094 22.2813,69.7344 L22.2813,82.7969 C22.2813,84.2344 22.0938,86.2188 22.0156,87.4844 L29.3906,87.4844 C29.2031,86.3906 29.125,84.4219 29.125,83.1563 L29.125,70.2656 L70.9688,70.2656 C70.3438,76.7656 68,84.9531 64.2188,90.9063 C59.0938,99 51.3438,103.234 43.4219,106.125 C41.4531,106.844 37.5781,107.922 34.875,108.281 L40.5469,114.594 C55.8438,110.625 66.375,102.438 71.5938,93.0625 C75.5625,86.125 77.9844,75.9531 78.7969,70.5469 C78.9844,69.1094 79.4219,67.0313 79.7813,65.9531 L75.0156,63.25"/>
</g>
</g>
</svg>
