<?xml version="1.0" encoding="UTF-8" standalone="no"?>
<svg width="35.2778mm" height="45.8611mm"
 xmlns="http://www.w3.org/2000/svg" xmlns:xlink="http://www.w3.org/1999/xlink"  version="1.2" baseProfile="tiny">
<title>Qt SVG Document</title>
<desc>Generated with Qt</desc>
<defs>
</defs>
<g fill="none" stroke="black" stroke-width="1" fill-rule="evenodd" stroke-linecap="square" stroke-linejoin="bevel" >

<g fill="#c0c0c0" fill-opacity="1" stroke="none" transform="matrix(1,0,0,1,0,0)"
font-family="Noto Sans" font-size="10" font-weight="400" font-style="normal" 
>
<path vector-effect="none" fill-rule="evenodd" d="M1,6 C1,3.23858 3.23858,1 6,1 L95,1 C97.7614,1 100,3.23858 100,6 L100,125 C100,127.761 97.7614,130 95,130 L6,130 C3.23858,130 1,127.761 1,125 L1,6"/>
</g>

<g fill="none" stroke="#000000" stroke-opacity="1" stroke-width="2" stroke-linecap="square" stroke-linejoin="bevel" transform="matrix(1,0,0,1,0,0)"
font-family="Noto Sans" font-size="10" font-weight="400" font-style="normal" 
>
<path vector-effect="none" fill-rule="evenodd" d="M1,6 C1,3.23858 3.23858,1 6,1 L95,1 C97.7614,1 100,3.23858 100,6 L100,125 C100,127.761 97.7614,130 95,130 L6,130 C3.23858,130 1,127.761 1,125 L1,6"/>
</g>

<g fill="none" stroke="#000000" stroke-opacity="1" stroke-width="2" stroke-linecap="square" stroke-linejoin="bevel" transform="matrix(1,0,0,1,0,0)"
font-family="Noto Sans CJK JP" font-size="90" font-weight="400" font-style="normal" 
>
<path vector-effect="none" fill-rule="evenodd" d="M23.5469,79.8125 C22.0938,84.6719 21.1094,89.625 21.1094,93.4844 C21.1094,104.656 30.2813,111.313 46.8438,111.313 C58.6406,111.313 64.6719,110.234 70.25,109.234 L70.3438,101.766 C64.0313,103.125 58.7344,104.203 46.9375,104.203 C33.625,104.203 28.3125,99.5156 28.3125,91.6875 C28.3125,88.9844 29.3906,83.8594 30.8281,80.4375 L23.5469,79.8125 M79.7813,46.5938 C73.6719,48.5781 67.6406,50.0156 61.5156,51.0938 C59.5313,46.3281 57.9219,42.3594 55.7656,36.4063 L47.75,37.9375 C49.1875,40.375 50,42.0781 51.5313,45.4219 L54.5,52 C44.2344,53.0781 32.0938,53.1719 19.125,51.4688 L19.4063,58.6563 C32.9844,59.8281 45.7656,59.8281 57.2813,58.4844 C59.9844,64.6875 64.4844,73.9688 67,79.4531 C64.0313,79.1875 57.8281,78.4688 54.4063,78.1875 L53.6875,84.0469 C59.4531,84.5781 68.2656,85.8438 72.1406,86.6563 L76.2813,82.3281 C72.4063,74.8594 67.5469,64.5156 64.3125,57.4063 C69.7969,56.5 75.6406,55.1563 81.1406,53.7188 L79.7813,46.5938"/>
</g>

<g fill="#000000" fill-opacity="1" stroke="none" transform="matrix(1,0,0,1,0,0)"
font-family="Noto Sans CJK JP" font-size="90" font-weight="400" font-style="normal" 
>
<path vector-effect="none" fill-rule="evenodd" d="M23.5469,79.8125 C22.0938,84.6719 21.1094,89.625 21.1094,93.4844 C21.1094,104.656 30.2813,111.313 46.8438,111.313 C58.6406,111.313 64.6719,110.234 70.25,109.234 L70.3438,101.766 C64.0313,103.125 58.7344,104.203 46.9375,104.203 C33.625,104.203 28.3125,99.5156 28.3125,91.6875 C28.3125,88.9844 29.3906,83.8594 30.8281,80.4375 L23.5469,79.8125 M79.7813,46.5938 C73.6719,48.5781 67.6406,50.0156 61.5156,51.0938 C59.5313,46.3281 57.9219,42.3594 55.7656,36.4063 L47.75,37.9375 C49.1875,40.375 50,42.0781 51.5313,45.4219 L54.5,52 C44.2344,53.0781 32.0938,53.1719 19.125,51.4688 L19.4063,58.6563 C32.9844,59.8281 45.7656,59.8281 57.2813,58.4844 C59.9844,64.6875 64.4844,73.9688 67,79.4531 C64.0313,79.1875 57.8281,78.4688 54.4063,78.1875 L53.6875,84.0469 C59.4531,84.5781 68.2656,85.8438 72.1406,86.6563 L76.2813,82.3281 C72.4063,74.8594 67.5469,64.5156 64.3125,57.4063 C69.7969,56.5 75.6406,55.1563 81.1406,53.7188 L79.7813,46.5938"/>
</g>
</g>
</svg>
