<?xml version="1.0" encoding="UTF-8" standalone="no"?>
<svg width="35.2778mm" height="45.8611mm"
 xmlns="http://www.w3.org/2000/svg" xmlns:xlink="http://www.w3.org/1999/xlink"  version="1.2" baseProfile="tiny">
<title>Qt SVG Document</title>
<desc>Generated with Qt</desc>
<defs>
</defs>
<g fill="none" stroke="black" stroke-width="1" fill-rule="evenodd" stroke-linecap="square" stroke-linejoin="bevel" >

<g fill="#c0c0c0" fill-opacity="1" stroke="none" transform="matrix(1,0,0,1,0,0)"
font-family="Noto Sans" font-size="10" font-weight="400" font-style="normal" 
>
<path vector-effect="none" fill-rule="evenodd" d="M1,6 C1,3.23858 3.23858,1 6,1 L95,1 C97.7614,1 100,3.23858 100,6 L100,125 C100,127.761 97.7614,130 95,130 L6,130 C3.23858,130 1,127.761 1,125 L1,6"/>
</g>

<g fill="none" stroke="#000000" stroke-opacity="1" stroke-width="2" stroke-linecap="square" stroke-linejoin="bevel" transform="matrix(1,0,0,1,0,0)"
font-family="Noto Sans" font-size="10" font-weight="400" font-style="normal" 
>
<path vector-effect="none" fill-rule="evenodd" d="M1,6 C1,3.23858 3.23858,1 6,1 L95,1 C97.7614,1 100,3.23858 100,6 L100,125 C100,127.761 97.7614,130 95,130 L6,130 C3.23858,130 1,127.761 1,125 L1,6"/>
</g>

<g fill="none" stroke="#000000" stroke-opacity="1" stroke-width="2" stroke-linecap="square" stroke-linejoin="bevel" transform="matrix(1,0,0,1,0,0)"
font-family="Noto Sans CJK JP" font-size="90" font-weight="400" font-style="normal" 
>
<path vector-effect="none" fill-rule="evenodd" d="M28.5781,59.8281 C37.4063,53.1719 44.9531,45.6875 49.6406,38.9219 C54.8594,45.9531 62.9531,53.4375 71.7813,59.8281 L28.5781,59.8281 M53.0625,83.6875 L83.9219,83.6875 L83.9219,77.8281 L53.0625,77.8281 L53.0625,65.7656 L72.3125,65.7656 L72.3125,60.1875 C77.2656,63.7969 82.3906,67.0313 87.3438,69.5469 C88.4219,67.5781 90.0469,65.3281 91.6719,63.6094 C77.7188,57.4063 62.1406,45.3281 52.6094,32.4375 L45.9531,32.4375 C38.9219,43.7031 24.1719,56.9531 8.6875,64.7813 C10.125,66.125 12.0156,68.4688 12.7344,70 C17.875,67.2969 22.9063,64.0625 27.5938,60.6406 L27.5938,65.7656 L46.125,65.7656 L46.125,77.8281 L15.9844,77.8281 L15.9844,83.6875 L46.125,83.6875 L46.125,105.906 L11.9375,105.906 L11.9375,111.844 L88.25,111.844 L88.25,105.906 L53.0625,105.906 L53.0625,83.6875 M23.4531,88.1875 C26.9531,93.3125 30.4688,100.234 31.6406,104.734 L37.4063,102.125 C36.1406,97.7188 32.5313,91.0625 28.8438,86.1094 L23.4531,88.1875 M65.4844,104.734 C68.8906,100.516 73.125,94.0313 76.4531,88.3594 L70.1563,85.9375 C67.9063,90.9688 63.7656,98.0781 60.5313,102.484 L65.4844,104.734"/>
</g>

<g fill="#000000" fill-opacity="1" stroke="none" transform="matrix(1,0,0,1,0,0)"
font-family="Noto Sans CJK JP" font-size="90" font-weight="400" font-style="normal" 
>
<path vector-effect="none" fill-rule="evenodd" d="M28.5781,59.8281 C37.4063,53.1719 44.9531,45.6875 49.6406,38.9219 C54.8594,45.9531 62.9531,53.4375 71.7813,59.8281 L28.5781,59.8281 M53.0625,83.6875 L83.9219,83.6875 L83.9219,77.8281 L53.0625,77.8281 L53.0625,65.7656 L72.3125,65.7656 L72.3125,60.1875 C77.2656,63.7969 82.3906,67.0313 87.3438,69.5469 C88.4219,67.5781 90.0469,65.3281 91.6719,63.6094 C77.7188,57.4063 62.1406,45.3281 52.6094,32.4375 L45.9531,32.4375 C38.9219,43.7031 24.1719,56.9531 8.6875,64.7813 C10.125,66.125 12.0156,68.4688 12.7344,70 C17.875,67.2969 22.9063,64.0625 27.5938,60.6406 L27.5938,65.7656 L46.125,65.7656 L46.125,77.8281 L15.9844,77.8281 L15.9844,83.6875 L46.125,83.6875 L46.125,105.906 L11.9375,105.906 L11.9375,111.844 L88.25,111.844 L88.25,105.906 L53.0625,105.906 L53.0625,83.6875 M23.4531,88.1875 C26.9531,93.3125 30.4688,100.234 31.6406,104.734 L37.4063,102.125 C36.1406,97.7188 32.5313,91.0625 28.8438,86.1094 L23.4531,88.1875 M65.4844,104.734 C68.8906,100.516 73.125,94.0313 76.4531,88.3594 L70.1563,85.9375 C67.9063,90.9688 63.7656,98.0781 60.5313,102.484 L65.4844,104.734"/>
</g>
</g>
</svg>
