<?xml version="1.0" encoding="UTF-8" standalone="no"?>
<svg width="35.2778mm" height="45.8611mm"
 xmlns="http://www.w3.org/2000/svg" xmlns:xlink="http://www.w3.org/1999/xlink"  version="1.2" baseProfile="tiny">
<title>Qt SVG Document</title>
<desc>Generated with Qt</desc>
<defs>
</defs>
<g fill="none" stroke="black" stroke-width="1" fill-rule="evenodd" stroke-linecap="square" stroke-linejoin="bevel" >

<g fill="#c0c0c0" fill-opacity="1" stroke="none" transform="matrix(1,0,0,1,0,0)"
font-family="Noto Sans" font-size="10" font-weight="400" font-style="normal" 
>
<path vector-effect="none" fill-rule="evenodd" d="M1,6 C1,3.23858 3.23858,1 6,1 L95,1 C97.7614,1 100,3.23858 100,6 L100,125 C100,127.761 97.7614,130 95,130 L6,130 C3.23858,130 1,127.761 1,125 L1,6"/>
</g>

<g fill="none" stroke="#000000" stroke-opacity="1" stroke-width="2" stroke-linecap="square" stroke-linejoin="bevel" transform="matrix(1,0,0,1,0,0)"
font-family="Noto Sans" font-size="10" font-weight="400" font-style="normal" 
>
<path vector-effect="none" fill-rule="evenodd" d="M1,6 C1,3.23858 3.23858,1 6,1 L95,1 C97.7614,1 100,3.23858 100,6 L100,125 C100,127.761 97.7614,130 95,130 L6,130 C3.23858,130 1,127.761 1,125 L1,6"/>
</g>

<g fill="none" stroke="#000000" stroke-opacity="1" stroke-width="2" stroke-linecap="square" stroke-linejoin="bevel" transform="matrix(1,0,0,1,0,0)"
font-family="Noto Sans CJK JP" font-size="90" font-weight="400" font-style="normal" 
>
<path vector-effect="none" fill-rule="evenodd" d="M36.6719,50.6406 L35.6875,56.7656 C43.25,58.2969 58.9063,60.375 65.4844,60.9063 L66.375,54.6094 C60.3438,54.25 44.0625,52.625 36.6719,50.6406 M67.9063,71.9844 L63.9531,67.6563 C63.2344,67.9375 61.875,68.2969 60.7031,68.375 C55.3125,69.1875 37.4844,70.1875 33.4375,70.2656 C31.1875,70.3594 28.6719,70.3594 27.1406,70.1875 L27.6719,77.5625 C29.2031,77.2031 31.375,76.9375 33.7969,76.6563 C38.125,76.2969 51.2656,75.4063 55.4844,74.9531 C48.2031,82.6094 32.1719,97.9844 25.3438,104.734 C23.9063,106.094 23.0938,106.813 22.0938,107.625 L28.4844,112.031 C32.5313,106.813 40.4531,98.3438 43.0625,95.9219 C44.7813,94.2188 46.4844,93.125 48.2813,93.125 C50.9844,93.125 51.9844,94.8438 52.875,97.3594 C53.4219,99.1563 54.4063,103.203 55.125,105.375 C56.4844,109.781 59.8125,111.766 66.1094,111.766 C70.6094,111.766 77.4531,111.125 80.3281,110.594 L80.6875,103.656 C77.3594,104.563 71.3281,105.375 67,105.375 C63.8594,105.375 61.7813,104.375 60.8906,101.766 C60.25,99.9688 59.2656,96.375 58.6406,94.125 C57.7344,91.1563 56.0313,88.625 52.7813,88.3594 C51.9844,88 50.9844,87.9063 50.3594,87.9063 C53.3281,84.7656 62.2344,76.3906 64.4844,74.5 C65.2969,73.875 66.7344,72.7969 67.9063,71.9844 "/>
</g>

<g fill="#000000" fill-opacity="1" stroke="none" transform="matrix(1,0,0,1,0,0)"
font-family="Noto Sans CJK JP" font-size="90" font-weight="400" font-style="normal" 
>
<path vector-effect="none" fill-rule="evenodd" d="M36.6719,50.6406 L35.6875,56.7656 C43.25,58.2969 58.9063,60.375 65.4844,60.9063 L66.375,54.6094 C60.3438,54.25 44.0625,52.625 36.6719,50.6406 M67.9063,71.9844 L63.9531,67.6563 C63.2344,67.9375 61.875,68.2969 60.7031,68.375 C55.3125,69.1875 37.4844,70.1875 33.4375,70.2656 C31.1875,70.3594 28.6719,70.3594 27.1406,70.1875 L27.6719,77.5625 C29.2031,77.2031 31.375,76.9375 33.7969,76.6563 C38.125,76.2969 51.2656,75.4063 55.4844,74.9531 C48.2031,82.6094 32.1719,97.9844 25.3438,104.734 C23.9063,106.094 23.0938,106.813 22.0938,107.625 L28.4844,112.031 C32.5313,106.813 40.4531,98.3438 43.0625,95.9219 C44.7813,94.2188 46.4844,93.125 48.2813,93.125 C50.9844,93.125 51.9844,94.8438 52.875,97.3594 C53.4219,99.1563 54.4063,103.203 55.125,105.375 C56.4844,109.781 59.8125,111.766 66.1094,111.766 C70.6094,111.766 77.4531,111.125 80.3281,110.594 L80.6875,103.656 C77.3594,104.563 71.3281,105.375 67,105.375 C63.8594,105.375 61.7813,104.375 60.8906,101.766 C60.25,99.9688 59.2656,96.375 58.6406,94.125 C57.7344,91.1563 56.0313,88.625 52.7813,88.3594 C51.9844,88 50.9844,87.9063 50.3594,87.9063 C53.3281,84.7656 62.2344,76.3906 64.4844,74.5 C65.2969,73.875 66.7344,72.7969 67.9063,71.9844 "/>
</g>
</g>
</svg>
