<?xml version="1.0" encoding="UTF-8" standalone="no"?>
<svg width="35.2778mm" height="45.8611mm"
 xmlns="http://www.w3.org/2000/svg" xmlns:xlink="http://www.w3.org/1999/xlink"  version="1.2" baseProfile="tiny">
<title>Qt SVG Document</title>
<desc>Generated with Qt</desc>
<defs>
</defs>
<g fill="none" stroke="black" stroke-width="1" fill-rule="evenodd" stroke-linecap="square" stroke-linejoin="bevel" >

<g fill="#808080" fill-opacity="1" stroke="none" transform="matrix(1,0,0,1,0,0)"
font-family="Noto Sans" font-size="10" font-weight="400" font-style="normal" 
>
<path vector-effect="none" fill-rule="evenodd" d="M1,6 C1,3.23858 3.23858,1 6,1 L95,1 C97.7614,1 100,3.23858 100,6 L100,125 C100,127.761 97.7614,130 95,130 L6,130 C3.23858,130 1,127.761 1,125 L1,6"/>
</g>

<g fill="none" stroke="#000000" stroke-opacity="1" stroke-width="2" stroke-linecap="square" stroke-linejoin="bevel" transform="matrix(1,0,0,1,0,0)"
font-family="Noto Sans" font-size="10" font-weight="400" font-style="normal" 
>
<path vector-effect="none" fill-rule="evenodd" d="M1,6 C1,3.23858 3.23858,1 6,1 L95,1 C97.7614,1 100,3.23858 100,6 L100,125 C100,127.761 97.7614,130 95,130 L6,130 C3.23858,130 1,127.761 1,125 L1,6"/>
</g>

<g fill="none" stroke="#000000" stroke-opacity="1" stroke-width="2" stroke-linecap="square" stroke-linejoin="bevel" transform="matrix(1,0,0,1,0,0)"
font-family="Noto Sans CJK JP" font-size="45" font-weight="400" font-style="normal" 
>
<path vector-effect="none" fill-rule="evenodd" d="M40.5469,55.8281 C40.5469,50.8906 36.9531,48.4063 32.625,46.875 L27.3125,44.9844 C24.2969,43.9531 20.6563,42.6406 20.6563,39.4063 C20.6563,36.3438 23.8594,34.5938 28.0781,34.5938 C31.7813,34.5938 34.75,35.9063 37.125,37.875 L39.4219,35.1406 C36.7188,32.6563 32.8125,30.9531 28.125,30.9531 C21.3281,30.9531 16.4219,34.5469 16.4219,39.8594 C16.4219,44.625 20.75,47.0156 24.2188,48.2656 L29.5625,50.1563 C33.2188,51.5156 36.3125,52.7656 36.3125,56.1875 C36.3125,59.5156 32.8125,61.4531 28,61.4531 C23.9375,61.4531 19.7969,59.75 17.0625,57.2344 L14.5469,60.1094 C17.8281,63.1719 22.4219,65.1406 27.9063,65.1406 C35.6875,65.1406 40.5469,61.1875 40.5469,55.8281 M70.3906,64.5625 L74.5625,64.5625 L74.5625,35 L86.4531,35 L86.4531,31.4844 L58.5469,31.4844 L58.5469,35 L70.3906,35 L70.3906,64.5625 M43.4688,92.9063 C43.4688,82.3438 36.9063,75.9531 27.5,75.9531 C18.0938,75.9531 11.5313,82.3438 11.5313,92.9063 C11.5313,103.484 18.1406,110.109 27.5,110.109 C37.0781,110.109 43.4688,103.484 43.4688,92.9063 M15.7969,92.9063 C15.7969,84.6719 20.4844,79.5938 27.5,79.5938 C34.5156,79.5938 39.2031,84.6719 39.2031,92.9063 C39.2031,101.188 34.5156,106.453 27.5,106.453 C20.5313,106.453 15.7969,101.188 15.7969,92.9063 M61.3906,109.563 L65.5313,109.563 L65.5313,96.4219 L72.1406,96.4219 C80.5156,96.4219 85.9063,93.1406 85.9063,86.2031 C85.9063,79.0469 80.5156,76.4844 71.9219,76.4844 L61.3906,76.4844 L61.3906,109.563 M65.5313,93.0469 L65.5313,79.9063 L71.3281,79.9063 C78.1719,79.9063 81.7656,81.3438 81.7656,86.2031 C81.7656,91.0156 78.3438,93.0469 71.5469,93.0469 L65.5313,93.0469"/>
</g>

<g fill="#ffffff" fill-opacity="1" stroke="none" transform="matrix(1,0,0,1,0,0)"
font-family="Noto Sans CJK JP" font-size="45" font-weight="400" font-style="normal" 
>
<path vector-effect="none" fill-rule="evenodd" d="M40.5469,55.8281 C40.5469,50.8906 36.9531,48.4063 32.625,46.875 L27.3125,44.9844 C24.2969,43.9531 20.6563,42.6406 20.6563,39.4063 C20.6563,36.3438 23.8594,34.5938 28.0781,34.5938 C31.7813,34.5938 34.75,35.9063 37.125,37.875 L39.4219,35.1406 C36.7188,32.6563 32.8125,30.9531 28.125,30.9531 C21.3281,30.9531 16.4219,34.5469 16.4219,39.8594 C16.4219,44.625 20.75,47.0156 24.2188,48.2656 L29.5625,50.1563 C33.2188,51.5156 36.3125,52.7656 36.3125,56.1875 C36.3125,59.5156 32.8125,61.4531 28,61.4531 C23.9375,61.4531 19.7969,59.75 17.0625,57.2344 L14.5469,60.1094 C17.8281,63.1719 22.4219,65.1406 27.9063,65.1406 C35.6875,65.1406 40.5469,61.1875 40.5469,55.8281 M70.3906,64.5625 L74.5625,64.5625 L74.5625,35 L86.4531,35 L86.4531,31.4844 L58.5469,31.4844 L58.5469,35 L70.3906,35 L70.3906,64.5625 M43.4688,92.9063 C43.4688,82.3438 36.9063,75.9531 27.5,75.9531 C18.0938,75.9531 11.5313,82.3438 11.5313,92.9063 C11.5313,103.484 18.1406,110.109 27.5,110.109 C37.0781,110.109 43.4688,103.484 43.4688,92.9063 M15.7969,92.9063 C15.7969,84.6719 20.4844,79.5938 27.5,79.5938 C34.5156,79.5938 39.2031,84.6719 39.2031,92.9063 C39.2031,101.188 34.5156,106.453 27.5,106.453 C20.5313,106.453 15.7969,101.188 15.7969,92.9063 M61.3906,109.563 L65.5313,109.563 L65.5313,96.4219 L72.1406,96.4219 C80.5156,96.4219 85.9063,93.1406 85.9063,86.2031 C85.9063,79.0469 80.5156,76.4844 71.9219,76.4844 L61.3906,76.4844 L61.3906,109.563 M65.5313,93.0469 L65.5313,79.9063 L71.3281,79.9063 C78.1719,79.9063 81.7656,81.3438 81.7656,86.2031 C81.7656,91.0156 78.3438,93.0469 71.5469,93.0469 L65.5313,93.0469"/>
</g>
</g>
</svg>
