<?xml version="1.0" encoding="UTF-8" standalone="no"?>
<svg width="35.2778mm" height="45.8611mm"
 xmlns="http://www.w3.org/2000/svg" xmlns:xlink="http://www.w3.org/1999/xlink"  version="1.2" baseProfile="tiny">
<title>Qt SVG Document</title>
<desc>Generated with Qt</desc>
<defs>
</defs>
<g fill="none" stroke="black" stroke-width="1" fill-rule="evenodd" stroke-linecap="square" stroke-linejoin="bevel" >

<g fill="#c0c0c0" fill-opacity="1" stroke="none" transform="matrix(1,0,0,1,0,0)"
font-family="Noto Sans" font-size="10" font-weight="400" font-style="normal" 
>
<path vector-effect="none" fill-rule="evenodd" d="M1,6 C1,3.23858 3.23858,1 6,1 L95,1 C97.7614,1 100,3.23858 100,6 L100,125 C100,127.761 97.7614,130 95,130 L6,130 C3.23858,130 1,127.761 1,125 L1,6"/>
</g>

<g fill="none" stroke="#000000" stroke-opacity="1" stroke-width="2" stroke-linecap="square" stroke-linejoin="bevel" transform="matrix(1,0,0,1,0,0)"
font-family="Noto Sans" font-size="10" font-weight="400" font-style="normal" 
>
<path vector-effect="none" fill-rule="evenodd" d="M1,6 C1,3.23858 3.23858,1 6,1 L95,1 C97.7614,1 100,3.23858 100,6 L100,125 C100,127.761 97.7614,130 95,130 L6,130 C3.23858,130 1,127.761 1,125 L1,6"/>
</g>

<g fill="none" stroke="#000000" stroke-opacity="1" stroke-width="2" stroke-linecap="square" stroke-linejoin="bevel" transform="matrix(1,0,0,1,0,0)"
font-family="Noto Sans CJK JP" font-size="90" font-weight="400" font-style="normal" 
>
<path vector-effect="none" fill-rule="evenodd" d="M26.5938,107.891 L50.8906,107.891 C69.25,107.891 78.3438,102.047 78.3438,88.5469 C78.3438,79.8125 72.7656,74.3281 63.5938,72.7969 L63.5938,72.3438 C70.7813,70.1875 74.2031,64.5156 74.2031,58.0313 C74.2031,46.3281 64.9375,41.75 49.0156,41.75 L26.5938,41.75 L26.5938,107.891 M34.875,69.9063 L34.875,48.3125 L48.375,48.3125 C60.25,48.3125 65.8438,51.1875 65.8438,59.1094 C65.8438,66.5781 60.25,69.9063 47.6563,69.9063 L34.875,69.9063 M34.875,101.234 L34.875,76.3906 L49.6406,76.3906 C63.9531,76.3906 70.0625,80.0781 70.0625,88.2656 C70.0625,97.9844 63.5938,101.234 49.9063,101.234 L34.875,101.234"/>
</g>

<g fill="#000000" fill-opacity="1" stroke="none" transform="matrix(1,0,0,1,0,0)"
font-family="Noto Sans CJK JP" font-size="90" font-weight="400" font-style="normal" 
>
<path vector-effect="none" fill-rule="evenodd" d="M26.5938,107.891 L50.8906,107.891 C69.25,107.891 78.3438,102.047 78.3438,88.5469 C78.3438,79.8125 72.7656,74.3281 63.5938,72.7969 L63.5938,72.3438 C70.7813,70.1875 74.2031,64.5156 74.2031,58.0313 C74.2031,46.3281 64.9375,41.75 49.0156,41.75 L26.5938,41.75 L26.5938,107.891 M34.875,69.9063 L34.875,48.3125 L48.375,48.3125 C60.25,48.3125 65.8438,51.1875 65.8438,59.1094 C65.8438,66.5781 60.25,69.9063 47.6563,69.9063 L34.875,69.9063 M34.875,101.234 L34.875,76.3906 L49.6406,76.3906 C63.9531,76.3906 70.0625,80.0781 70.0625,88.2656 C70.0625,97.9844 63.5938,101.234 49.9063,101.234 L34.875,101.234"/>
</g>
</g>
</svg>
