<?xml version="1.0" encoding="UTF-8" standalone="no"?>
<svg width="35.2778mm" height="45.8611mm"
 xmlns="http://www.w3.org/2000/svg" xmlns:xlink="http://www.w3.org/1999/xlink"  version="1.2" baseProfile="tiny">
<title>Qt SVG Document</title>
<desc>Generated with Qt</desc>
<defs>
</defs>
<g fill="none" stroke="black" stroke-width="1" fill-rule="evenodd" stroke-linecap="square" stroke-linejoin="bevel" >

<g fill="#c0c0c0" fill-opacity="1" stroke="none" transform="matrix(1,0,0,1,0,0)"
font-family="Noto Sans" font-size="10" font-weight="400" font-style="normal" 
>
<path vector-effect="none" fill-rule="evenodd" d="M1,6 C1,3.23858 3.23858,1 6,1 L95,1 C97.7614,1 100,3.23858 100,6 L100,125 C100,127.761 97.7614,130 95,130 L6,130 C3.23858,130 1,127.761 1,125 L1,6"/>
</g>

<g fill="none" stroke="#000000" stroke-opacity="1" stroke-width="2" stroke-linecap="square" stroke-linejoin="bevel" transform="matrix(1,0,0,1,0,0)"
font-family="Noto Sans" font-size="10" font-weight="400" font-style="normal" 
>
<path vector-effect="none" fill-rule="evenodd" d="M1,6 C1,3.23858 3.23858,1 6,1 L95,1 C97.7614,1 100,3.23858 100,6 L100,125 C100,127.761 97.7614,130 95,130 L6,130 C3.23858,130 1,127.761 1,125 L1,6"/>
</g>

<g fill="none" stroke="#000000" stroke-opacity="1" stroke-width="2" stroke-linecap="square" stroke-linejoin="bevel" transform="matrix(1,0,0,1,0,0)"
font-family="Noto Sans CJK JP" font-size="90" font-weight="400" font-style="normal" 
>
<path vector-effect="none" fill-rule="evenodd" d="M79.25,97.9375 C74.5625,93.7031 68.2656,88.75 61.4219,83.7031 C67.375,75.6875 72.8594,64.7969 76.2813,53.1719 C77,51.2813 77.8125,49.4844 78.6094,48.3125 L73.3906,44.2656 C72.0469,44.7969 70.25,45.1563 68.3594,45.1563 L31.2813,45.1563 C27.8594,45.1563 24.1719,44.8906 21.6563,44.7188 L21.6563,52.3594 C24.1719,52.2813 28.0469,52.0938 31.2813,52.0938 L68.3594,52.0938 C66.2813,60.8281 61.6094,71.0938 55.3906,79.375 C47.2031,73.625 38.5625,68.2188 30.8281,64.0781 L26.2344,69.5625 C33.8906,73.625 42.4375,79.1094 50.5313,84.9688 C41.9844,93.9688 30.0156,101.891 16.7969,105.766 L23.0938,112.078 C34.875,107.656 47.2969,99.9219 56.6563,89.5625 C63.3125,94.5938 69.3438,99.7344 73.9375,104.063 L79.25,97.9375"/>
</g>

<g fill="#000000" fill-opacity="1" stroke="none" transform="matrix(1,0,0,1,0,0)"
font-family="Noto Sans CJK JP" font-size="90" font-weight="400" font-style="normal" 
>
<path vector-effect="none" fill-rule="evenodd" d="M79.25,97.9375 C74.5625,93.7031 68.2656,88.75 61.4219,83.7031 C67.375,75.6875 72.8594,64.7969 76.2813,53.1719 C77,51.2813 77.8125,49.4844 78.6094,48.3125 L73.3906,44.2656 C72.0469,44.7969 70.25,45.1563 68.3594,45.1563 L31.2813,45.1563 C27.8594,45.1563 24.1719,44.8906 21.6563,44.7188 L21.6563,52.3594 C24.1719,52.2813 28.0469,52.0938 31.2813,52.0938 L68.3594,52.0938 C66.2813,60.8281 61.6094,71.0938 55.3906,79.375 C47.2031,73.625 38.5625,68.2188 30.8281,64.0781 L26.2344,69.5625 C33.8906,73.625 42.4375,79.1094 50.5313,84.9688 C41.9844,93.9688 30.0156,101.891 16.7969,105.766 L23.0938,112.078 C34.875,107.656 47.2969,99.9219 56.6563,89.5625 C63.3125,94.5938 69.3438,99.7344 73.9375,104.063 L79.25,97.9375"/>
</g>
</g>
</svg>
