<?xml version="1.0" encoding="UTF-8" standalone="no"?>
<svg width="35.2778mm" height="45.8611mm"
 xmlns="http://www.w3.org/2000/svg" xmlns:xlink="http://www.w3.org/1999/xlink"  version="1.2" baseProfile="tiny">
<title>Qt SVG Document</title>
<desc>Generated with Qt</desc>
<defs>
</defs>
<g fill="none" stroke="black" stroke-width="1" fill-rule="evenodd" stroke-linecap="square" stroke-linejoin="bevel" >

<g fill="#c0c0c0" fill-opacity="1" stroke="none" transform="matrix(1,0,0,1,0,0)"
font-family="Noto Sans" font-size="10" font-weight="400" font-style="normal" 
>
<path vector-effect="none" fill-rule="evenodd" d="M1,6 C1,3.23858 3.23858,1 6,1 L95,1 C97.7614,1 100,3.23858 100,6 L100,125 C100,127.761 97.7614,130 95,130 L6,130 C3.23858,130 1,127.761 1,125 L1,6"/>
</g>

<g fill="none" stroke="#000000" stroke-opacity="1" stroke-width="2" stroke-linecap="square" stroke-linejoin="bevel" transform="matrix(1,0,0,1,0,0)"
font-family="Noto Sans" font-size="10" font-weight="400" font-style="normal" 
>
<path vector-effect="none" fill-rule="evenodd" d="M1,6 C1,3.23858 3.23858,1 6,1 L95,1 C97.7614,1 100,3.23858 100,6 L100,125 C100,127.761 97.7614,130 95,130 L6,130 C3.23858,130 1,127.761 1,125 L1,6"/>
</g>

<g fill="none" stroke="#000000" stroke-opacity="1" stroke-width="2" stroke-linecap="square" stroke-linejoin="bevel" transform="matrix(1,0,0,1,0,0)"
font-family="Noto Sans CJK JP" font-size="90" font-weight="400" font-style="normal" 
>
<path vector-effect="none" fill-rule="evenodd" d="M51.7969,107.891 L59.9844,107.891 L59.9844,58.9375 L29.5625,58.9375 L29.5625,65.5938 L51.7969,65.5938 L51.7969,107.891 M54.9531,48.8594 C58.5469,48.8594 61.1563,46.4219 61.1563,42.8281 C61.1563,39.1406 58.5469,36.7031 54.9531,36.7031 C51.2656,36.7031 48.6406,39.1406 48.6406,42.8281 C48.6406,46.4219 51.2656,48.8594 54.9531,48.8594 "/>
</g>

<g fill="#000000" fill-opacity="1" stroke="none" transform="matrix(1,0,0,1,0,0)"
font-family="Noto Sans CJK JP" font-size="90" font-weight="400" font-style="normal" 
>
<path vector-effect="none" fill-rule="evenodd" d="M51.7969,107.891 L59.9844,107.891 L59.9844,58.9375 L29.5625,58.9375 L29.5625,65.5938 L51.7969,65.5938 L51.7969,107.891 M54.9531,48.8594 C58.5469,48.8594 61.1563,46.4219 61.1563,42.8281 C61.1563,39.1406 58.5469,36.7031 54.9531,36.7031 C51.2656,36.7031 48.6406,39.1406 48.6406,42.8281 C48.6406,46.4219 51.2656,48.8594 54.9531,48.8594 "/>
</g>
</g>
</svg>
