<?xml version="1.0" encoding="UTF-8" standalone="no"?>
<svg width="35.2778mm" height="45.8611mm"
 xmlns="http://www.w3.org/2000/svg" xmlns:xlink="http://www.w3.org/1999/xlink"  version="1.2" baseProfile="tiny">
<title>Qt SVG Document</title>
<desc>Generated with Qt</desc>
<defs>
</defs>
<g fill="none" stroke="black" stroke-width="1" fill-rule="evenodd" stroke-linecap="square" stroke-linejoin="bevel" >

<g fill="#c0c0c0" fill-opacity="1" stroke="none" transform="matrix(1,0,0,1,0,0)"
font-family="Noto Sans" font-size="10" font-weight="400" font-style="normal" 
>
<path vector-effect="none" fill-rule="evenodd" d="M1,6 C1,3.23858 3.23858,1 6,1 L95,1 C97.7614,1 100,3.23858 100,6 L100,125 C100,127.761 97.7614,130 95,130 L6,130 C3.23858,130 1,127.761 1,125 L1,6"/>
</g>

<g fill="none" stroke="#000000" stroke-opacity="1" stroke-width="2" stroke-linecap="square" stroke-linejoin="bevel" transform="matrix(1,0,0,1,0,0)"
font-family="Noto Sans" font-size="10" font-weight="400" font-style="normal" 
>
<path vector-effect="none" fill-rule="evenodd" d="M1,6 C1,3.23858 3.23858,1 6,1 L95,1 C97.7614,1 100,3.23858 100,6 L100,125 C100,127.761 97.7614,130 95,130 L6,130 C3.23858,130 1,127.761 1,125 L1,6"/>
</g>

<g fill="none" stroke="#000000" stroke-opacity="1" stroke-width="2" stroke-linecap="square" stroke-linejoin="bevel" transform="matrix(1,0,0,1,0,0)"
font-family="Noto Sans CJK JP" font-size="90" font-weight="400" font-style="normal" 
>
<path vector-effect="none" fill-rule="evenodd" d="M20.2969,38.75 C20.2969,40.6406 20.0313,42.9844 19.6719,45.0625 C18.5938,52.4531 15.625,69.4688 15.625,82.5156 C15.625,94.5781 17.2344,104.375 19.0469,110.766 L25.4219,110.234 C25.3438,109.328 25.1563,108.078 25.1563,107.172 C25.0625,106.094 25.3438,104.375 25.6094,103.203 C26.5156,98.7969 29.6563,89.7188 31.9063,83.5 L28.125,80.5313 C26.5938,84.125 24.5313,89.4375 23.0938,93.4844 C22.4531,89.1719 22.2813,85.6563 22.2813,81.3438 C22.2813,71.3594 24.8906,53.7031 26.6875,45.4219 C26.9531,43.7969 27.6719,40.8125 28.2188,39.375 L20.2969,38.75 M65.75,94.0313 C65.75,99.9688 63.5938,103.656 56.0313,103.656 C49.6406,103.656 45.3125,101.141 45.3125,96.7344 C45.3125,92.5938 49.9063,89.625 56.5625,89.625 C59.7188,89.625 62.7813,90.0781 65.6563,91.0625 C65.75,92.1406 65.75,93.2188 65.75,94.0313 M90.0469,98.4375 C85.3594,94.2969 79.7031,89.7188 72.5,86.8281 C72.1406,79.3594 71.5,70.4531 71.4219,61.5469 C76.7344,61.1875 81.9531,60.6406 86.8125,59.8281 L86.8125,52.8125 C82.0313,53.7969 76.8125,54.5156 71.4219,54.875 C71.5,50.7344 71.5938,46.5938 71.6875,44.1563 C71.7813,42.3594 71.9531,40.5469 72.2344,38.8438 L64.0313,38.8438 C64.3125,40.375 64.4844,42.7188 64.4844,44.25 L64.4844,55.3281 C61.7031,55.4219 58.9063,55.5156 56.125,55.5156 C50.8906,55.5156 46.0313,55.25 41,54.7031 L41,61.5469 C46.2188,61.8125 50.8906,62.0781 55.9375,62.0781 C58.8125,62.0781 61.6094,62 64.4844,61.9063 C64.5781,69.2813 65.125,77.8281 65.3906,84.6719 C62.875,84.125 60.0781,83.8594 57.1094,83.8594 C45.4063,83.8594 38.75,89.9844 38.75,97.4531 C38.75,105.375 45.3125,110.328 57.2813,110.328 C69.3438,110.328 72.7656,103.125 72.7656,95.7344 L72.7656,94.125 C77.3594,96.6406 81.7656,100.156 86.1719,104.297 L90.0469,98.4375"/>
</g>

<g fill="#000000" fill-opacity="1" stroke="none" transform="matrix(1,0,0,1,0,0)"
font-family="Noto Sans CJK JP" font-size="90" font-weight="400" font-style="normal" 
>
<path vector-effect="none" fill-rule="evenodd" d="M20.2969,38.75 C20.2969,40.6406 20.0313,42.9844 19.6719,45.0625 C18.5938,52.4531 15.625,69.4688 15.625,82.5156 C15.625,94.5781 17.2344,104.375 19.0469,110.766 L25.4219,110.234 C25.3438,109.328 25.1563,108.078 25.1563,107.172 C25.0625,106.094 25.3438,104.375 25.6094,103.203 C26.5156,98.7969 29.6563,89.7188 31.9063,83.5 L28.125,80.5313 C26.5938,84.125 24.5313,89.4375 23.0938,93.4844 C22.4531,89.1719 22.2813,85.6563 22.2813,81.3438 C22.2813,71.3594 24.8906,53.7031 26.6875,45.4219 C26.9531,43.7969 27.6719,40.8125 28.2188,39.375 L20.2969,38.75 M65.75,94.0313 C65.75,99.9688 63.5938,103.656 56.0313,103.656 C49.6406,103.656 45.3125,101.141 45.3125,96.7344 C45.3125,92.5938 49.9063,89.625 56.5625,89.625 C59.7188,89.625 62.7813,90.0781 65.6563,91.0625 C65.75,92.1406 65.75,93.2188 65.75,94.0313 M90.0469,98.4375 C85.3594,94.2969 79.7031,89.7188 72.5,86.8281 C72.1406,79.3594 71.5,70.4531 71.4219,61.5469 C76.7344,61.1875 81.9531,60.6406 86.8125,59.8281 L86.8125,52.8125 C82.0313,53.7969 76.8125,54.5156 71.4219,54.875 C71.5,50.7344 71.5938,46.5938 71.6875,44.1563 C71.7813,42.3594 71.9531,40.5469 72.2344,38.8438 L64.0313,38.8438 C64.3125,40.375 64.4844,42.7188 64.4844,44.25 L64.4844,55.3281 C61.7031,55.4219 58.9063,55.5156 56.125,55.5156 C50.8906,55.5156 46.0313,55.25 41,54.7031 L41,61.5469 C46.2188,61.8125 50.8906,62.0781 55.9375,62.0781 C58.8125,62.0781 61.6094,62 64.4844,61.9063 C64.5781,69.2813 65.125,77.8281 65.3906,84.6719 C62.875,84.125 60.0781,83.8594 57.1094,83.8594 C45.4063,83.8594 38.75,89.9844 38.75,97.4531 C38.75,105.375 45.3125,110.328 57.2813,110.328 C69.3438,110.328 72.7656,103.125 72.7656,95.7344 L72.7656,94.125 C77.3594,96.6406 81.7656,100.156 86.1719,104.297 L90.0469,98.4375"/>
</g>
</g>
</svg>
