<?xml version="1.0" encoding="UTF-8" standalone="no"?>
<svg width="44.0972mm" height="45.8611mm"
 xmlns="http://www.w3.org/2000/svg" xmlns:xlink="http://www.w3.org/1999/xlink"  version="1.2" baseProfile="tiny">
<title>Qt SVG Document</title>
<desc>Generated with Qt</desc>
<defs>
</defs>
<g fill="none" stroke="black" stroke-width="1" fill-rule="evenodd" stroke-linecap="square" stroke-linejoin="bevel" >

<g fill="#808080" fill-opacity="1" stroke="none" transform="matrix(1,0,0,1,0,0)"
font-family="Noto Sans" font-size="10" font-weight="400" font-style="normal" 
>
<path vector-effect="none" fill-rule="evenodd" d="M1,6 C1,3.23858 3.23858,1 6,1 L120,1 C122.761,1 125,3.23858 125,6 L125,125 C125,127.761 122.761,130 120,130 L6,130 C3.23858,130 1,127.761 1,125 L1,6"/>
</g>

<g fill="none" stroke="#000000" stroke-opacity="1" stroke-width="2" stroke-linecap="square" stroke-linejoin="bevel" transform="matrix(1,0,0,1,0,0)"
font-family="Noto Sans" font-size="10" font-weight="400" font-style="normal" 
>
<path vector-effect="none" fill-rule="evenodd" d="M1,6 C1,3.23858 3.23858,1 6,1 L120,1 C122.761,1 125,3.23858 125,6 L125,125 C125,127.761 122.761,130 120,130 L6,130 C3.23858,130 1,127.761 1,125 L1,6"/>
</g>

<g fill="none" stroke="#000000" stroke-opacity="1" stroke-width="2" stroke-linecap="square" stroke-linejoin="bevel" transform="matrix(1,0,0,1,0,0)"
font-family="Noto Sans CJK JP" font-size="40" font-weight="400" font-style="normal" 
>
<path vector-effect="none" fill-rule="evenodd" d="M18.4063,82.4063 C24.5313,82.4063 28.3594,78.7344 28.3594,74.0938 C28.3594,69.7344 25.7344,67.7344 22.3281,66.25 L18.125,64.4531 C15.8438,63.5 13.2813,62.4063 13.2813,59.5781 C13.2813,56.9375 15.4531,55.25 18.7656,55.25 C21.4844,55.25 23.6406,56.3281 25.4531,58.0156 L27.4063,55.6563 C25.3281,53.5 22.25,52.0156 18.7656,52.0156 C13.4531,52.0156 9.53125,55.2969 9.53125,59.8125 C9.53125,64.0938 12.7656,66.1719 15.4844,67.3281 L19.7344,69.1719 C22.4844,70.4063 24.6094,71.375 24.6094,74.375 C24.6094,77.25 22.2813,79.1719 18.4531,79.1719 C15.4063,79.1719 12.4531,77.7344 10.3281,75.5313 L8.125,78.0469 C10.6875,80.7344 14.25,82.4063 18.4063,82.4063 M34.125,81.8906 L37.8438,81.8906 L37.8438,68.0469 L51.5156,68.0469 L51.5156,81.8906 L55.2031,81.8906 L55.2031,52.5781 L51.5156,52.5781 L51.5156,64.8594 L37.8438,64.8594 L37.8438,52.5781 L34.125,52.5781 L34.125,81.8906 M63.2344,81.8906 L66.9531,81.8906 L66.9531,52.5781 L63.2344,52.5781 L63.2344,81.8906 M74.9531,81.8906 L78.6719,81.8906 L78.6719,68.7344 L89.875,68.7344 L89.875,65.6094 L78.6719,65.6094 L78.6719,55.6875 L91.875,55.6875 L91.875,52.5781 L74.9531,52.5781 L74.9531,81.8906 M103.156,81.8906 L106.875,81.8906 L106.875,55.6875 L115.75,55.6875 L115.75,52.5781 L94.2656,52.5781 L94.2656,55.6875 L103.156,55.6875 L103.156,81.8906"/>
</g>

<g fill="#ffffff" fill-opacity="1" stroke="none" transform="matrix(1,0,0,1,0,0)"
font-family="Noto Sans CJK JP" font-size="40" font-weight="400" font-style="normal" 
>
<path vector-effect="none" fill-rule="evenodd" d="M18.4063,82.4063 C24.5313,82.4063 28.3594,78.7344 28.3594,74.0938 C28.3594,69.7344 25.7344,67.7344 22.3281,66.25 L18.125,64.4531 C15.8438,63.5 13.2813,62.4063 13.2813,59.5781 C13.2813,56.9375 15.4531,55.25 18.7656,55.25 C21.4844,55.25 23.6406,56.3281 25.4531,58.0156 L27.4063,55.6563 C25.3281,53.5 22.25,52.0156 18.7656,52.0156 C13.4531,52.0156 9.53125,55.2969 9.53125,59.8125 C9.53125,64.0938 12.7656,66.1719 15.4844,67.3281 L19.7344,69.1719 C22.4844,70.4063 24.6094,71.375 24.6094,74.375 C24.6094,77.25 22.2813,79.1719 18.4531,79.1719 C15.4063,79.1719 12.4531,77.7344 10.3281,75.5313 L8.125,78.0469 C10.6875,80.7344 14.25,82.4063 18.4063,82.4063 M34.125,81.8906 L37.8438,81.8906 L37.8438,68.0469 L51.5156,68.0469 L51.5156,81.8906 L55.2031,81.8906 L55.2031,52.5781 L51.5156,52.5781 L51.5156,64.8594 L37.8438,64.8594 L37.8438,52.5781 L34.125,52.5781 L34.125,81.8906 M63.2344,81.8906 L66.9531,81.8906 L66.9531,52.5781 L63.2344,52.5781 L63.2344,81.8906 M74.9531,81.8906 L78.6719,81.8906 L78.6719,68.7344 L89.875,68.7344 L89.875,65.6094 L78.6719,65.6094 L78.6719,55.6875 L91.875,55.6875 L91.875,52.5781 L74.9531,52.5781 L74.9531,81.8906 M103.156,81.8906 L106.875,81.8906 L106.875,55.6875 L115.75,55.6875 L115.75,52.5781 L94.2656,52.5781 L94.2656,55.6875 L103.156,55.6875 L103.156,81.8906"/>
</g>
</g>
</svg>
