<?xml version="1.0" encoding="UTF-8" standalone="no"?>
<svg width="35.2778mm" height="45.8611mm"
 xmlns="http://www.w3.org/2000/svg" xmlns:xlink="http://www.w3.org/1999/xlink"  version="1.2" baseProfile="tiny">
<title>Qt SVG Document</title>
<desc>Generated with Qt</desc>
<defs>
</defs>
<g fill="none" stroke="black" stroke-width="1" fill-rule="evenodd" stroke-linecap="square" stroke-linejoin="bevel" >

<g fill="#c0c0c0" fill-opacity="1" stroke="none" transform="matrix(1,0,0,1,0,0)"
font-family="Noto Sans" font-size="10" font-weight="400" font-style="normal" 
>
<path vector-effect="none" fill-rule="evenodd" d="M1,6 C1,3.23858 3.23858,1 6,1 L95,1 C97.7614,1 100,3.23858 100,6 L100,125 C100,127.761 97.7614,130 95,130 L6,130 C3.23858,130 1,127.761 1,125 L1,6"/>
</g>

<g fill="none" stroke="#000000" stroke-opacity="1" stroke-width="2" stroke-linecap="square" stroke-linejoin="bevel" transform="matrix(1,0,0,1,0,0)"
font-family="Noto Sans" font-size="10" font-weight="400" font-style="normal" 
>
<path vector-effect="none" fill-rule="evenodd" d="M1,6 C1,3.23858 3.23858,1 6,1 L95,1 C97.7614,1 100,3.23858 100,6 L100,125 C100,127.761 97.7614,130 95,130 L6,130 C3.23858,130 1,127.761 1,125 L1,6"/>
</g>

<g fill="none" stroke="#000000" stroke-opacity="1" stroke-width="2" stroke-linecap="square" stroke-linejoin="bevel" transform="matrix(1,0,0,1,0,0)"
font-family="Noto Sans CJK JP" font-size="90" font-weight="400" font-style="normal" 
>
<path vector-effect="none" fill-rule="evenodd" d="M74.75,48.9375 C73.2188,49.3906 71.1406,49.4844 69.0781,49.4844 L54.2344,49.4844 L54.2344,43.7188 C54.2344,41.1875 54.4063,37.7656 54.7656,35.7813 L46.4844,35.7813 C46.8438,37.7656 47.0313,41.1875 47.0313,43.7188 L47.0313,49.4844 L29.3906,49.4844 C26.3281,49.4844 21.2969,49.3906 18.5,49.0313 L18.5,56.5938 C21.2031,56.4219 26.3281,56.2344 29.4844,56.2344 L66.8281,56.2344 C63.7656,60.4688 56.5625,67.4844 48.5625,72.7188 C40.375,78.0313 29.125,83.9688 12.1094,88.0313 L16.4219,94.6875 C28.5781,91 38.4844,87.0313 46.8438,82.1719 C46.8438,88.2969 46.7656,96.5781 46.7656,101.797 C46.7656,104.953 46.5781,109.094 46.2188,111.719 L54.4063,111.719 C54.2344,108.922 53.9531,104.953 53.9531,101.797 C53.9531,95.7656 54.0469,84.9688 54.0469,77.5781 C62.3281,71.8125 69.8906,64.25 74.3906,58.8438 C75.8281,57.2188 77.8125,55.1563 79.4219,53.4375 L74.75,48.9375 M61.9688,81.9844 C70.4219,86.5 75.8281,90.0938 83.6563,95.8594 L88.3438,89.7344 C79.9688,84.0625 75.1094,81.2656 66.6406,76.6719 L61.9688,81.9844"/>
</g>

<g fill="#000000" fill-opacity="1" stroke="none" transform="matrix(1,0,0,1,0,0)"
font-family="Noto Sans CJK JP" font-size="90" font-weight="400" font-style="normal" 
>
<path vector-effect="none" fill-rule="evenodd" d="M74.75,48.9375 C73.2188,49.3906 71.1406,49.4844 69.0781,49.4844 L54.2344,49.4844 L54.2344,43.7188 C54.2344,41.1875 54.4063,37.7656 54.7656,35.7813 L46.4844,35.7813 C46.8438,37.7656 47.0313,41.1875 47.0313,43.7188 L47.0313,49.4844 L29.3906,49.4844 C26.3281,49.4844 21.2969,49.3906 18.5,49.0313 L18.5,56.5938 C21.2031,56.4219 26.3281,56.2344 29.4844,56.2344 L66.8281,56.2344 C63.7656,60.4688 56.5625,67.4844 48.5625,72.7188 C40.375,78.0313 29.125,83.9688 12.1094,88.0313 L16.4219,94.6875 C28.5781,91 38.4844,87.0313 46.8438,82.1719 C46.8438,88.2969 46.7656,96.5781 46.7656,101.797 C46.7656,104.953 46.5781,109.094 46.2188,111.719 L54.4063,111.719 C54.2344,108.922 53.9531,104.953 53.9531,101.797 C53.9531,95.7656 54.0469,84.9688 54.0469,77.5781 C62.3281,71.8125 69.8906,64.25 74.3906,58.8438 C75.8281,57.2188 77.8125,55.1563 79.4219,53.4375 L74.75,48.9375 M61.9688,81.9844 C70.4219,86.5 75.8281,90.0938 83.6563,95.8594 L88.3438,89.7344 C79.9688,84.0625 75.1094,81.2656 66.6406,76.6719 L61.9688,81.9844"/>
</g>
</g>
</svg>
