<?xml version="1.0" encoding="UTF-8" standalone="no"?>
<svg width="35.2778mm" height="45.8611mm"
 xmlns="http://www.w3.org/2000/svg" xmlns:xlink="http://www.w3.org/1999/xlink"  version="1.2" baseProfile="tiny">
<title>Qt SVG Document</title>
<desc>Generated with Qt</desc>
<defs>
</defs>
<g fill="none" stroke="black" stroke-width="1" fill-rule="evenodd" stroke-linecap="square" stroke-linejoin="bevel" >

<g fill="#c0c0c0" fill-opacity="1" stroke="none" transform="matrix(1,0,0,1,0,0)"
font-family="Noto Sans" font-size="10" font-weight="400" font-style="normal" 
>
<path vector-effect="none" fill-rule="evenodd" d="M1,6 C1,3.23858 3.23858,1 6,1 L95,1 C97.7614,1 100,3.23858 100,6 L100,125 C100,127.761 97.7614,130 95,130 L6,130 C3.23858,130 1,127.761 1,125 L1,6"/>
</g>

<g fill="none" stroke="#000000" stroke-opacity="1" stroke-width="2" stroke-linecap="square" stroke-linejoin="bevel" transform="matrix(1,0,0,1,0,0)"
font-family="Noto Sans" font-size="10" font-weight="400" font-style="normal" 
>
<path vector-effect="none" fill-rule="evenodd" d="M1,6 C1,3.23858 3.23858,1 6,1 L95,1 C97.7614,1 100,3.23858 100,6 L100,125 C100,127.761 97.7614,130 95,130 L6,130 C3.23858,130 1,127.761 1,125 L1,6"/>
</g>

<g fill="none" stroke="#000000" stroke-opacity="1" stroke-width="2" stroke-linecap="square" stroke-linejoin="bevel" transform="matrix(1,0,0,1,0,0)"
font-family="Noto Sans CJK JP" font-size="90" font-weight="400" font-style="normal" 
>
<path vector-effect="none" fill-rule="evenodd" d="M81.4063,108.719 C81.3125,107.266 81.0469,103.203 81.0469,99.9688 L81.0469,53.5313 C81.0469,51.375 81.2344,48.5781 81.3125,46.5156 C79.5156,46.6094 76.8125,46.6875 74.6563,46.6875 L30.2813,46.6875 C27.4063,46.6875 23.4531,46.5156 20.4844,46.1563 L20.4844,54.1563 C22.6406,54.0781 27.0469,53.8906 30.375,53.8906 L73.4844,53.8906 L73.4844,96.375 L29.2969,96.375 C25.5156,96.375 21.6563,96.0938 19.3125,95.9219 L19.3125,104.016 C21.7344,103.844 25.7969,103.656 29.4844,103.656 L73.4844,103.656 C73.3906,105.828 73.3906,107.719 73.3125,108.719 L81.4063,108.719"/>
</g>

<g fill="#000000" fill-opacity="1" stroke="none" transform="matrix(1,0,0,1,0,0)"
font-family="Noto Sans CJK JP" font-size="90" font-weight="400" font-style="normal" 
>
<path vector-effect="none" fill-rule="evenodd" d="M81.4063,108.719 C81.3125,107.266 81.0469,103.203 81.0469,99.9688 L81.0469,53.5313 C81.0469,51.375 81.2344,48.5781 81.3125,46.5156 C79.5156,46.6094 76.8125,46.6875 74.6563,46.6875 L30.2813,46.6875 C27.4063,46.6875 23.4531,46.5156 20.4844,46.1563 L20.4844,54.1563 C22.6406,54.0781 27.0469,53.8906 30.375,53.8906 L73.4844,53.8906 L73.4844,96.375 L29.2969,96.375 C25.5156,96.375 21.6563,96.0938 19.3125,95.9219 L19.3125,104.016 C21.7344,103.844 25.7969,103.656 29.4844,103.656 L73.4844,103.656 C73.3906,105.828 73.3906,107.719 73.3125,108.719 L81.4063,108.719"/>
</g>
</g>
</svg>
