<?xml version="1.0" encoding="UTF-8" standalone="no"?>
<svg width="35.2778mm" height="45.8611mm"
 xmlns="http://www.w3.org/2000/svg" xmlns:xlink="http://www.w3.org/1999/xlink"  version="1.2" baseProfile="tiny">
<title>Qt SVG Document</title>
<desc>Generated with Qt</desc>
<defs>
</defs>
<g fill="none" stroke="black" stroke-width="1" fill-rule="evenodd" stroke-linecap="square" stroke-linejoin="bevel" >

<g fill="#c0c0c0" fill-opacity="1" stroke="none" transform="matrix(1,0,0,1,0,0)"
font-family="Noto Sans" font-size="10" font-weight="400" font-style="normal" 
>
<path vector-effect="none" fill-rule="evenodd" d="M1,6 C1,3.23858 3.23858,1 6,1 L95,1 C97.7614,1 100,3.23858 100,6 L100,125 C100,127.761 97.7614,130 95,130 L6,130 C3.23858,130 1,127.761 1,125 L1,6"/>
</g>

<g fill="none" stroke="#000000" stroke-opacity="1" stroke-width="2" stroke-linecap="square" stroke-linejoin="bevel" transform="matrix(1,0,0,1,0,0)"
font-family="Noto Sans" font-size="10" font-weight="400" font-style="normal" 
>
<path vector-effect="none" fill-rule="evenodd" d="M1,6 C1,3.23858 3.23858,1 6,1 L95,1 C97.7614,1 100,3.23858 100,6 L100,125 C100,127.761 97.7614,130 95,130 L6,130 C3.23858,130 1,127.761 1,125 L1,6"/>
</g>

<g fill="none" stroke="#000000" stroke-opacity="1" stroke-width="2" stroke-linecap="square" stroke-linejoin="bevel" transform="matrix(1,0,0,1,0,0)"
font-family="Noto Sans CJK JP" font-size="90" font-weight="400" font-style="normal" 
>
<path vector-effect="none" fill-rule="evenodd" d="M69.5313,39.5 C69.1719,41.4688 68.3594,44.3594 67.7344,46.1563 C65.0313,53.7969 61.3438,62.2656 55.5781,70.625 C48.4688,65.1406 38.0313,57.7656 30.375,52.9063 L25.6094,58.5781 C34.25,63.875 44.2344,71.2656 50.8906,76.75 C42.0781,87.6406 30.9219,97.5469 15.1719,105.016 L21.5625,110.688 C37.2188,102.578 48.375,91.875 56.75,81.6094 C64.4844,88.2656 71.3281,94.6563 77.9844,102.313 L83.6563,96.0156 C77.2656,89.1719 69.5313,82.1563 61.5156,75.4844 C67.5469,66.7656 72.1406,56.8594 75.0156,48.9375 C75.7344,47.0469 77.0938,44.0781 77.9844,42.375 L69.5313,39.5"/>
</g>

<g fill="#000000" fill-opacity="1" stroke="none" transform="matrix(1,0,0,1,0,0)"
font-family="Noto Sans CJK JP" font-size="90" font-weight="400" font-style="normal" 
>
<path vector-effect="none" fill-rule="evenodd" d="M69.5313,39.5 C69.1719,41.4688 68.3594,44.3594 67.7344,46.1563 C65.0313,53.7969 61.3438,62.2656 55.5781,70.625 C48.4688,65.1406 38.0313,57.7656 30.375,52.9063 L25.6094,58.5781 C34.25,63.875 44.2344,71.2656 50.8906,76.75 C42.0781,87.6406 30.9219,97.5469 15.1719,105.016 L21.5625,110.688 C37.2188,102.578 48.375,91.875 56.75,81.6094 C64.4844,88.2656 71.3281,94.6563 77.9844,102.313 L83.6563,96.0156 C77.2656,89.1719 69.5313,82.1563 61.5156,75.4844 C67.5469,66.7656 72.1406,56.8594 75.0156,48.9375 C75.7344,47.0469 77.0938,44.0781 77.9844,42.375 L69.5313,39.5"/>
</g>
</g>
</svg>
