<?xml version="1.0" encoding="UTF-8" standalone="no"?>
<svg width="35.2778mm" height="45.8611mm"
 xmlns="http://www.w3.org/2000/svg" xmlns:xlink="http://www.w3.org/1999/xlink"  version="1.2" baseProfile="tiny">
<title>Qt SVG Document</title>
<desc>Generated with Qt</desc>
<defs>
</defs>
<g fill="none" stroke="black" stroke-width="1" fill-rule="evenodd" stroke-linecap="square" stroke-linejoin="bevel" >

<g fill="#c0c0c0" fill-opacity="1" stroke="none" transform="matrix(1,0,0,1,0,0)"
font-family="Noto Sans" font-size="10" font-weight="400" font-style="normal" 
>
<path vector-effect="none" fill-rule="evenodd" d="M1,6 C1,3.23858 3.23858,1 6,1 L95,1 C97.7614,1 100,3.23858 100,6 L100,125 C100,127.761 97.7614,130 95,130 L6,130 C3.23858,130 1,127.761 1,125 L1,6"/>
</g>

<g fill="none" stroke="#000000" stroke-opacity="1" stroke-width="2" stroke-linecap="square" stroke-linejoin="bevel" transform="matrix(1,0,0,1,0,0)"
font-family="Noto Sans" font-size="10" font-weight="400" font-style="normal" 
>
<path vector-effect="none" fill-rule="evenodd" d="M1,6 C1,3.23858 3.23858,1 6,1 L95,1 C97.7614,1 100,3.23858 100,6 L100,125 C100,127.761 97.7614,130 95,130 L6,130 C3.23858,130 1,127.761 1,125 L1,6"/>
</g>

<g fill="none" stroke="#000000" stroke-opacity="1" stroke-width="2" stroke-linecap="square" stroke-linejoin="bevel" transform="matrix(1,0,0,1,0,0)"
font-family="Noto Sans CJK JP" font-size="90" font-weight="400" font-style="normal" 
>
<path vector-effect="none" fill-rule="evenodd" d="M44.7813,58.9375 C45.0469,61.2813 45.1406,63.2656 45.1406,65.4219 C45.1406,80.4688 43.1563,93.3438 29.2031,101.891 C26.6875,103.609 23.625,105.047 21.2031,105.859 L27.7656,111.266 C50.7188,99.8281 52.875,83.3438 52.875,58.9375 L44.7813,58.9375 M84.375,42.8281 C83.0313,43.0938 79.7813,43.3594 78.0781,43.3594 L26.4219,43.3594 C23.0938,43.3594 19.3125,43 16.1563,42.6406 L16.1563,50.75 C19.7656,50.3906 23.0938,50.2031 26.4219,50.2031 L77.625,50.2031 C74.75,55.7813 66.2813,65.5156 58.0156,70.375 L63.9531,75.1563 C74.2031,68.0313 82.75,56.4219 86.3594,50.2969 C86.9844,49.2969 88.1563,47.9531 88.7813,47.0469 L84.375,42.8281"/>
</g>

<g fill="#000000" fill-opacity="1" stroke="none" transform="matrix(1,0,0,1,0,0)"
font-family="Noto Sans CJK JP" font-size="90" font-weight="400" font-style="normal" 
>
<path vector-effect="none" fill-rule="evenodd" d="M44.7813,58.9375 C45.0469,61.2813 45.1406,63.2656 45.1406,65.4219 C45.1406,80.4688 43.1563,93.3438 29.2031,101.891 C26.6875,103.609 23.625,105.047 21.2031,105.859 L27.7656,111.266 C50.7188,99.8281 52.875,83.3438 52.875,58.9375 L44.7813,58.9375 M84.375,42.8281 C83.0313,43.0938 79.7813,43.3594 78.0781,43.3594 L26.4219,43.3594 C23.0938,43.3594 19.3125,43 16.1563,42.6406 L16.1563,50.75 C19.7656,50.3906 23.0938,50.2031 26.4219,50.2031 L77.625,50.2031 C74.75,55.7813 66.2813,65.5156 58.0156,70.375 L63.9531,75.1563 C74.2031,68.0313 82.75,56.4219 86.3594,50.2969 C86.9844,49.2969 88.1563,47.9531 88.7813,47.0469 L84.375,42.8281"/>
</g>
</g>
</svg>
