<?xml version="1.0" encoding="UTF-8" standalone="no"?>
<svg width="70.5556mm" height="45.8611mm"
 xmlns="http://www.w3.org/2000/svg" xmlns:xlink="http://www.w3.org/1999/xlink"  version="1.2" baseProfile="tiny">
<title>Qt SVG Document</title>
<desc>Generated with Qt</desc>
<defs>
</defs>
<g fill="none" stroke="black" stroke-width="1" fill-rule="evenodd" stroke-linecap="square" stroke-linejoin="bevel" >

<g fill="#808080" fill-opacity="1" stroke="none" transform="matrix(1,0,0,1,0,0)"
font-family="Noto Sans" font-size="10" font-weight="400" font-style="normal" 
>
<path vector-effect="none" fill-rule="evenodd" d="M1,6 C1,3.23858 3.23858,1 6,1 L195,1 C197.761,1 200,3.23858 200,6 L200,125 C200,127.761 197.761,130 195,130 L6,130 C3.23858,130 1,127.761 1,125 L1,6"/>
</g>

<g fill="none" stroke="#000000" stroke-opacity="1" stroke-width="2" stroke-linecap="square" stroke-linejoin="bevel" transform="matrix(1,0,0,1,0,0)"
font-family="Noto Sans" font-size="10" font-weight="400" font-style="normal" 
>
<path vector-effect="none" fill-rule="evenodd" d="M1,6 C1,3.23858 3.23858,1 6,1 L195,1 C197.761,1 200,3.23858 200,6 L200,125 C200,127.761 197.761,130 195,130 L6,130 C3.23858,130 1,127.761 1,125 L1,6"/>
</g>

<g fill="none" stroke="#000000" stroke-opacity="1" stroke-width="2" stroke-linecap="square" stroke-linejoin="bevel" transform="matrix(1,0,0,1,0,0)"
font-family="Noto Sans CJK JP" font-size="90" font-weight="400" font-style="normal" 
>
<path vector-effect="none" fill-rule="evenodd" d="M36.8125,101.391 L45.0938,101.391 L45.0938,71.875 L73.5313,71.875 L73.5313,64.7656 L45.0938,64.7656 L45.0938,42.3594 L80.2031,42.3594 L80.2031,35.25 L36.8125,35.25 L36.8125,101.391 M144.719,102.469 C157.219,102.469 167.578,95.4531 167.578,83.8438 C167.578,74.75 161.359,68.5469 153.078,66.9219 L153.078,66.5625 C160.906,64.4063 165.688,58.7344 165.688,50.8125 C165.688,41 157.484,34.1563 144.438,34.1563 C135.266,34.1563 127.703,38.125 121.406,44.25 L125.906,49.2813 C131.125,43.7969 137.422,41 144.172,41 C152.906,41 157.766,45.5 157.766,51.7188 C157.766,58.1094 151.469,64.0469 136.703,64.0469 L136.703,70.3438 C153.078,70.3438 159.563,75.4688 159.563,83.3906 C159.563,90.9531 152.813,95.625 144.266,95.625 C135.531,95.625 128.875,91.8438 123.922,86.0938 L119.609,91.3125 C124.641,97.4375 132.563,102.469 144.719,102.469 "/>
</g>

<g fill="#ffffff" fill-opacity="1" stroke="none" transform="matrix(1,0,0,1,0,0)"
font-family="Noto Sans CJK JP" font-size="90" font-weight="400" font-style="normal" 
>
<path vector-effect="none" fill-rule="evenodd" d="M36.8125,101.391 L45.0938,101.391 L45.0938,71.875 L73.5313,71.875 L73.5313,64.7656 L45.0938,64.7656 L45.0938,42.3594 L80.2031,42.3594 L80.2031,35.25 L36.8125,35.25 L36.8125,101.391 M144.719,102.469 C157.219,102.469 167.578,95.4531 167.578,83.8438 C167.578,74.75 161.359,68.5469 153.078,66.9219 L153.078,66.5625 C160.906,64.4063 165.688,58.7344 165.688,50.8125 C165.688,41 157.484,34.1563 144.438,34.1563 C135.266,34.1563 127.703,38.125 121.406,44.25 L125.906,49.2813 C131.125,43.7969 137.422,41 144.172,41 C152.906,41 157.766,45.5 157.766,51.7188 C157.766,58.1094 151.469,64.0469 136.703,64.0469 L136.703,70.3438 C153.078,70.3438 159.563,75.4688 159.563,83.3906 C159.563,90.9531 152.813,95.625 144.266,95.625 C135.531,95.625 128.875,91.8438 123.922,86.0938 L119.609,91.3125 C124.641,97.4375 132.563,102.469 144.719,102.469 "/>
</g>
</g>
</svg>
