<?xml version="1.0" encoding="UTF-8" standalone="no"?>
<svg width="35.2778mm" height="45.8611mm"
 xmlns="http://www.w3.org/2000/svg" xmlns:xlink="http://www.w3.org/1999/xlink"  version="1.2" baseProfile="tiny">
<title>Qt SVG Document</title>
<desc>Generated with Qt</desc>
<defs>
</defs>
<g fill="none" stroke="black" stroke-width="1" fill-rule="evenodd" stroke-linecap="square" stroke-linejoin="bevel" >

<g fill="#c0c0c0" fill-opacity="1" stroke="none" transform="matrix(1,0,0,1,0,0)"
font-family="Noto Sans" font-size="10" font-weight="400" font-style="normal" 
>
<path vector-effect="none" fill-rule="evenodd" d="M1,6 C1,3.23858 3.23858,1 6,1 L95,1 C97.7614,1 100,3.23858 100,6 L100,125 C100,127.761 97.7614,130 95,130 L6,130 C3.23858,130 1,127.761 1,125 L1,6"/>
</g>

<g fill="none" stroke="#000000" stroke-opacity="1" stroke-width="2" stroke-linecap="square" stroke-linejoin="bevel" transform="matrix(1,0,0,1,0,0)"
font-family="Noto Sans" font-size="10" font-weight="400" font-style="normal" 
>
<path vector-effect="none" fill-rule="evenodd" d="M1,6 C1,3.23858 3.23858,1 6,1 L95,1 C97.7614,1 100,3.23858 100,6 L100,125 C100,127.761 97.7614,130 95,130 L6,130 C3.23858,130 1,127.761 1,125 L1,6"/>
</g>

<g fill="none" stroke="#000000" stroke-opacity="1" stroke-width="2" stroke-linecap="square" stroke-linejoin="bevel" transform="matrix(1,0,0,1,0,0)"
font-family="Noto Sans CJK JP" font-size="90" font-weight="400" font-style="normal" 
>
<path vector-effect="none" fill-rule="evenodd" d="M47.6563,108.156 L52.4219,108.156 L53.1406,79 L78.7031,92.9531 L81.1406,88.8125 L56.2969,73.6875 L81.1406,58.4844 L78.7031,54.4375 L53.1406,68.2969 L52.4219,39.2188 L47.6563,39.2188 L46.9375,68.2969 L21.375,54.4375 L19.0469,58.4844 L43.7813,73.6875 L19.0469,88.8125 L21.375,92.9531 L46.9375,79 L47.6563,108.156"/>
</g>

<g fill="#000000" fill-opacity="1" stroke="none" transform="matrix(1,0,0,1,0,0)"
font-family="Noto Sans CJK JP" font-size="90" font-weight="400" font-style="normal" 
>
<path vector-effect="none" fill-rule="evenodd" d="M47.6563,108.156 L52.4219,108.156 L53.1406,79 L78.7031,92.9531 L81.1406,88.8125 L56.2969,73.6875 L81.1406,58.4844 L78.7031,54.4375 L53.1406,68.2969 L52.4219,39.2188 L47.6563,39.2188 L46.9375,68.2969 L21.375,54.4375 L19.0469,58.4844 L43.7813,73.6875 L19.0469,88.8125 L21.375,92.9531 L46.9375,79 L47.6563,108.156"/>
</g>
</g>
</svg>
