<?xml version="1.0" encoding="UTF-8" standalone="no"?>
<svg width="35.2778mm" height="45.8611mm"
 xmlns="http://www.w3.org/2000/svg" xmlns:xlink="http://www.w3.org/1999/xlink"  version="1.2" baseProfile="tiny">
<title>Qt SVG Document</title>
<desc>Generated with Qt</desc>
<defs>
</defs>
<g fill="none" stroke="black" stroke-width="1" fill-rule="evenodd" stroke-linecap="square" stroke-linejoin="bevel" >

<g fill="#c0c0c0" fill-opacity="1" stroke="none" transform="matrix(1,0,0,1,0,0)"
font-family="Noto Sans" font-size="10" font-weight="400" font-style="normal" 
>
<path vector-effect="none" fill-rule="evenodd" d="M1,6 C1,3.23858 3.23858,1 6,1 L95,1 C97.7614,1 100,3.23858 100,6 L100,125 C100,127.761 97.7614,130 95,130 L6,130 C3.23858,130 1,127.761 1,125 L1,6"/>
</g>

<g fill="none" stroke="#000000" stroke-opacity="1" stroke-width="2" stroke-linecap="square" stroke-linejoin="bevel" transform="matrix(1,0,0,1,0,0)"
font-family="Noto Sans" font-size="10" font-weight="400" font-style="normal" 
>
<path vector-effect="none" fill-rule="evenodd" d="M1,6 C1,3.23858 3.23858,1 6,1 L95,1 C97.7614,1 100,3.23858 100,6 L100,125 C100,127.761 97.7614,130 95,130 L6,130 C3.23858,130 1,127.761 1,125 L1,6"/>
</g>

<g fill="none" stroke="#000000" stroke-opacity="1" stroke-width="2" stroke-linecap="square" stroke-linejoin="bevel" transform="matrix(1,0,0,1,0,0)"
font-family="Noto Sans CJK JP" font-size="90" font-weight="400" font-style="normal" 
>
<path vector-effect="none" fill-rule="evenodd" d="M58.4531,91.6875 C60.3438,84.9375 61.0625,77.375 61.0625,69.375 C61.0625,64.5156 60.7969,59.5625 60.4375,54.9688 C73.3125,55.3281 79.3438,63.3438 79.3438,72.875 C79.3438,84.5781 71.3281,91.6875 58.9063,91.6875 L58.4531,91.6875 M50.5313,36.9531 C51.0781,38.2969 51.625,40.5625 51.9844,42.4531 C52.3438,44.0781 52.7813,46.5156 53.1406,49.3906 C40.1875,51.8281 28.7656,61.0938 23.7188,74.2344 C23.1719,67.2188 24.9844,54.0781 26.1563,48.3125 C26.5156,46.7813 26.9531,45.3438 27.3125,44.0781 L19.5781,43.4375 C19.6719,44.6094 19.5781,45.9688 19.4844,47.5938 C18.9531,52.4531 17.1563,64.875 17.1563,74.8594 C17.1563,83.3281 18.4063,92.3281 20.0313,97.9063 L26.3281,96.9063 C25.7969,94.5781 25.25,90.5156 25.1563,88.5469 C25.0625,86.6563 25.3438,84.6719 25.7969,83.0469 C28.4063,71.7188 38.3906,58.2969 53.7813,55.5156 C54.0469,59.75 54.3125,64.5156 54.3125,69.375 C54.3125,77.1094 53.5938,84.3125 51.5313,90.5156 C45.6719,88.5469 41.5313,84.125 38.4844,77.8281 L34.25,82.875 C37.4844,89.5313 42.7031,94.2188 48.9219,96.6406 C46.2188,101.781 42.1719,106.109 36.5,109.172 L43.1563,113.141 C49.0938,109.266 53.1406,104.219 55.9375,98.3438 C56.9219,98.4375 57.9219,98.5313 58.9063,98.5313 C77.2656,98.5313 86.2656,87.1875 86.2656,72.6094 C86.2656,59.2969 76.3594,48.7656 59.8125,48.7656 C59.2656,43.7969 58.6406,39.5625 58.0156,36.7656 L50.5313,36.9531"/>
</g>

<g fill="#000000" fill-opacity="1" stroke="none" transform="matrix(1,0,0,1,0,0)"
font-family="Noto Sans CJK JP" font-size="90" font-weight="400" font-style="normal" 
>
<path vector-effect="none" fill-rule="evenodd" d="M58.4531,91.6875 C60.3438,84.9375 61.0625,77.375 61.0625,69.375 C61.0625,64.5156 60.7969,59.5625 60.4375,54.9688 C73.3125,55.3281 79.3438,63.3438 79.3438,72.875 C79.3438,84.5781 71.3281,91.6875 58.9063,91.6875 L58.4531,91.6875 M50.5313,36.9531 C51.0781,38.2969 51.625,40.5625 51.9844,42.4531 C52.3438,44.0781 52.7813,46.5156 53.1406,49.3906 C40.1875,51.8281 28.7656,61.0938 23.7188,74.2344 C23.1719,67.2188 24.9844,54.0781 26.1563,48.3125 C26.5156,46.7813 26.9531,45.3438 27.3125,44.0781 L19.5781,43.4375 C19.6719,44.6094 19.5781,45.9688 19.4844,47.5938 C18.9531,52.4531 17.1563,64.875 17.1563,74.8594 C17.1563,83.3281 18.4063,92.3281 20.0313,97.9063 L26.3281,96.9063 C25.7969,94.5781 25.25,90.5156 25.1563,88.5469 C25.0625,86.6563 25.3438,84.6719 25.7969,83.0469 C28.4063,71.7188 38.3906,58.2969 53.7813,55.5156 C54.0469,59.75 54.3125,64.5156 54.3125,69.375 C54.3125,77.1094 53.5938,84.3125 51.5313,90.5156 C45.6719,88.5469 41.5313,84.125 38.4844,77.8281 L34.25,82.875 C37.4844,89.5313 42.7031,94.2188 48.9219,96.6406 C46.2188,101.781 42.1719,106.109 36.5,109.172 L43.1563,113.141 C49.0938,109.266 53.1406,104.219 55.9375,98.3438 C56.9219,98.4375 57.9219,98.5313 58.9063,98.5313 C77.2656,98.5313 86.2656,87.1875 86.2656,72.6094 C86.2656,59.2969 76.3594,48.7656 59.8125,48.7656 C59.2656,43.7969 58.6406,39.5625 58.0156,36.7656 L50.5313,36.9531"/>
</g>
</g>
</svg>
