<?xml version="1.0" encoding="UTF-8" standalone="no"?>
<svg width="35.2778mm" height="45.8611mm"
 xmlns="http://www.w3.org/2000/svg" xmlns:xlink="http://www.w3.org/1999/xlink"  version="1.2" baseProfile="tiny">
<title>Qt SVG Document</title>
<desc>Generated with Qt</desc>
<defs>
</defs>
<g fill="none" stroke="black" stroke-width="1" fill-rule="evenodd" stroke-linecap="square" stroke-linejoin="bevel" >

<g fill="#c0c0c0" fill-opacity="1" stroke="none" transform="matrix(1,0,0,1,0,0)"
font-family="Noto Sans" font-size="10" font-weight="400" font-style="normal" 
>
<path vector-effect="none" fill-rule="evenodd" d="M1,6 C1,3.23858 3.23858,1 6,1 L95,1 C97.7614,1 100,3.23858 100,6 L100,125 C100,127.761 97.7614,130 95,130 L6,130 C3.23858,130 1,127.761 1,125 L1,6"/>
</g>

<g fill="none" stroke="#000000" stroke-opacity="1" stroke-width="2" stroke-linecap="square" stroke-linejoin="bevel" transform="matrix(1,0,0,1,0,0)"
font-family="Noto Sans" font-size="10" font-weight="400" font-style="normal" 
>
<path vector-effect="none" fill-rule="evenodd" d="M1,6 C1,3.23858 3.23858,1 6,1 L95,1 C97.7614,1 100,3.23858 100,6 L100,125 C100,127.761 97.7614,130 95,130 L6,130 C3.23858,130 1,127.761 1,125 L1,6"/>
</g>

<g fill="none" stroke="#000000" stroke-opacity="1" stroke-width="2" stroke-linecap="square" stroke-linejoin="bevel" transform="matrix(1,0,0,1,0,0)"
font-family="Noto Sans CJK JP" font-size="90" font-weight="400" font-style="normal" 
>
<path vector-effect="none" fill-rule="evenodd" d="M50,58.9375 C53.5938,58.9375 56.8438,56.3281 56.8438,52.1875 C56.8438,48.0469 53.5938,45.4375 50,45.4375 C46.3906,45.4375 43.25,48.0469 43.25,52.1875 C43.25,56.3281 46.3906,58.9375 50,58.9375 M42.7031,117.203 C52.3438,113.5 58.2813,105.922 58.2813,95.4688 C58.2813,88.7188 55.4844,84.4844 50.5313,84.4844 C46.9375,84.4844 43.7031,86.7344 43.7031,90.9688 C43.7031,95.2969 46.7656,97.4531 50.4531,97.4531 C50.9844,97.4531 51.5313,97.4531 52.0625,97.2656 C51.7969,104.313 47.9219,109.078 40.6406,112.422 L42.7031,117.203"/>
</g>

<g fill="#000000" fill-opacity="1" stroke="none" transform="matrix(1,0,0,1,0,0)"
font-family="Noto Sans CJK JP" font-size="90" font-weight="400" font-style="normal" 
>
<path vector-effect="none" fill-rule="evenodd" d="M50,58.9375 C53.5938,58.9375 56.8438,56.3281 56.8438,52.1875 C56.8438,48.0469 53.5938,45.4375 50,45.4375 C46.3906,45.4375 43.25,48.0469 43.25,52.1875 C43.25,56.3281 46.3906,58.9375 50,58.9375 M42.7031,117.203 C52.3438,113.5 58.2813,105.922 58.2813,95.4688 C58.2813,88.7188 55.4844,84.4844 50.5313,84.4844 C46.9375,84.4844 43.7031,86.7344 43.7031,90.9688 C43.7031,95.2969 46.7656,97.4531 50.4531,97.4531 C50.9844,97.4531 51.5313,97.4531 52.0625,97.2656 C51.7969,104.313 47.9219,109.078 40.6406,112.422 L42.7031,117.203"/>
</g>
</g>
</svg>
