<?xml version="1.0" encoding="UTF-8" standalone="no"?>
<svg width="35.2778mm" height="45.8611mm"
 xmlns="http://www.w3.org/2000/svg" xmlns:xlink="http://www.w3.org/1999/xlink"  version="1.2" baseProfile="tiny">
<title>Qt SVG Document</title>
<desc>Generated with Qt</desc>
<defs>
</defs>
<g fill="none" stroke="black" stroke-width="1" fill-rule="evenodd" stroke-linecap="square" stroke-linejoin="bevel" >

<g fill="#c0c0c0" fill-opacity="1" stroke="none" transform="matrix(1,0,0,1,0,0)"
font-family="Noto Sans" font-size="10" font-weight="400" font-style="normal" 
>
<path vector-effect="none" fill-rule="evenodd" d="M1,6 C1,3.23858 3.23858,1 6,1 L95,1 C97.7614,1 100,3.23858 100,6 L100,125 C100,127.761 97.7614,130 95,130 L6,130 C3.23858,130 1,127.761 1,125 L1,6"/>
</g>

<g fill="none" stroke="#000000" stroke-opacity="1" stroke-width="2" stroke-linecap="square" stroke-linejoin="bevel" transform="matrix(1,0,0,1,0,0)"
font-family="Noto Sans" font-size="10" font-weight="400" font-style="normal" 
>
<path vector-effect="none" fill-rule="evenodd" d="M1,6 C1,3.23858 3.23858,1 6,1 L95,1 C97.7614,1 100,3.23858 100,6 L100,125 C100,127.761 97.7614,130 95,130 L6,130 C3.23858,130 1,127.761 1,125 L1,6"/>
</g>

<g fill="none" stroke="#000000" stroke-opacity="1" stroke-width="2" stroke-linecap="square" stroke-linejoin="bevel" transform="matrix(1,0,0,1,0,0)"
font-family="Noto Sans CJK JP" font-size="90" font-weight="400" font-style="normal" 
>
<path vector-effect="none" fill-rule="evenodd" d="M33.4375,44.4219 C40.2813,46.3125 59.625,50.2656 68.0938,51.4375 L69.7969,44.4219 C61.875,43.7031 42.9844,40 35.3281,37.5625 L33.4375,44.4219 M33.3438,53.7813 L25.7031,52.7969 C25.1563,62.1719 23,80.8906 21.2031,88.9844 L27.9531,90.6094 C28.5781,89.1719 29.3906,87.6406 30.6563,86.1094 C36.9531,78.6406 46.3125,74.3281 58.1875,74.3281 C67.2813,74.3281 73.8438,79.2656 73.8438,86.375 C73.8438,98.5313 60.0781,106.625 32,103.203 L34.1563,110.594 C67.2813,113.391 81.4063,102.578 81.4063,86.5625 C81.4063,76.125 72.3125,67.9375 58.6406,67.9375 C48.0156,67.9375 38.3906,71.1719 29.8438,78.6406 C30.6563,72.875 32.1719,59.9219 33.3438,53.7813 "/>
</g>

<g fill="#000000" fill-opacity="1" stroke="none" transform="matrix(1,0,0,1,0,0)"
font-family="Noto Sans CJK JP" font-size="90" font-weight="400" font-style="normal" 
>
<path vector-effect="none" fill-rule="evenodd" d="M33.4375,44.4219 C40.2813,46.3125 59.625,50.2656 68.0938,51.4375 L69.7969,44.4219 C61.875,43.7031 42.9844,40 35.3281,37.5625 L33.4375,44.4219 M33.3438,53.7813 L25.7031,52.7969 C25.1563,62.1719 23,80.8906 21.2031,88.9844 L27.9531,90.6094 C28.5781,89.1719 29.3906,87.6406 30.6563,86.1094 C36.9531,78.6406 46.3125,74.3281 58.1875,74.3281 C67.2813,74.3281 73.8438,79.2656 73.8438,86.375 C73.8438,98.5313 60.0781,106.625 32,103.203 L34.1563,110.594 C67.2813,113.391 81.4063,102.578 81.4063,86.5625 C81.4063,76.125 72.3125,67.9375 58.6406,67.9375 C48.0156,67.9375 38.3906,71.1719 29.8438,78.6406 C30.6563,72.875 32.1719,59.9219 33.3438,53.7813 "/>
</g>
</g>
</svg>
