<?xml version="1.0" encoding="UTF-8" standalone="no"?>
<svg width="35.2778mm" height="45.8611mm"
 xmlns="http://www.w3.org/2000/svg" xmlns:xlink="http://www.w3.org/1999/xlink"  version="1.2" baseProfile="tiny">
<title>Qt SVG Document</title>
<desc>Generated with Qt</desc>
<defs>
</defs>
<g fill="none" stroke="black" stroke-width="1" fill-rule="evenodd" stroke-linecap="square" stroke-linejoin="bevel" >

<g fill="#c0c0c0" fill-opacity="1" stroke="none" transform="matrix(1,0,0,1,0,0)"
font-family="Noto Sans" font-size="10" font-weight="400" font-style="normal" 
>
<path vector-effect="none" fill-rule="evenodd" d="M1,6 C1,3.23858 3.23858,1 6,1 L95,1 C97.7614,1 100,3.23858 100,6 L100,125 C100,127.761 97.7614,130 95,130 L6,130 C3.23858,130 1,127.761 1,125 L1,6"/>
</g>

<g fill="none" stroke="#000000" stroke-opacity="1" stroke-width="2" stroke-linecap="square" stroke-linejoin="bevel" transform="matrix(1,0,0,1,0,0)"
font-family="Noto Sans" font-size="10" font-weight="400" font-style="normal" 
>
<path vector-effect="none" fill-rule="evenodd" d="M1,6 C1,3.23858 3.23858,1 6,1 L95,1 C97.7614,1 100,3.23858 100,6 L100,125 C100,127.761 97.7614,130 95,130 L6,130 C3.23858,130 1,127.761 1,125 L1,6"/>
</g>

<g fill="none" stroke="#000000" stroke-opacity="1" stroke-width="2" stroke-linecap="square" stroke-linejoin="bevel" transform="matrix(1,0,0,1,0,0)"
font-family="Noto Sans CJK JP" font-size="90" font-weight="400" font-style="normal" 
>
<path vector-effect="none" fill-rule="evenodd" d="M70.875,107.891 L79.9688,107.891 L54.5,41.75 L44.3281,41.75 L19.125,107.891 L27.8594,107.891 L35.3281,87.7344 L63.4063,87.7344 L70.875,107.891 M37.3125,81.25 L41.2656,70.7188 C43.9688,63.3438 46.6719,56.1406 49.1875,48.5 L49.5469,48.5 C52.25,56.0469 54.8594,63.25 57.5625,70.7188 L61.5156,81.25 L37.3125,81.25"/>
</g>

<g fill="#000000" fill-opacity="1" stroke="none" transform="matrix(1,0,0,1,0,0)"
font-family="Noto Sans CJK JP" font-size="90" font-weight="400" font-style="normal" 
>
<path vector-effect="none" fill-rule="evenodd" d="M70.875,107.891 L79.9688,107.891 L54.5,41.75 L44.3281,41.75 L19.125,107.891 L27.8594,107.891 L35.3281,87.7344 L63.4063,87.7344 L70.875,107.891 M37.3125,81.25 L41.2656,70.7188 C43.9688,63.3438 46.6719,56.1406 49.1875,48.5 L49.5469,48.5 C52.25,56.0469 54.8594,63.25 57.5625,70.7188 L61.5156,81.25 L37.3125,81.25"/>
</g>
</g>
</svg>
