<?xml version="1.0" encoding="UTF-8" standalone="no"?>
<svg width="35.2778mm" height="45.8611mm"
 xmlns="http://www.w3.org/2000/svg" xmlns:xlink="http://www.w3.org/1999/xlink"  version="1.2" baseProfile="tiny">
<title>Qt SVG Document</title>
<desc>Generated with Qt</desc>
<defs>
</defs>
<g fill="none" stroke="black" stroke-width="1" fill-rule="evenodd" stroke-linecap="square" stroke-linejoin="bevel" >

<g fill="#c0c0c0" fill-opacity="1" stroke="none" transform="matrix(1,0,0,1,0,0)"
font-family="Noto Sans" font-size="10" font-weight="400" font-style="normal" 
>
<path vector-effect="none" fill-rule="evenodd" d="M1,6 C1,3.23858 3.23858,1 6,1 L95,1 C97.7614,1 100,3.23858 100,6 L100,125 C100,127.761 97.7614,130 95,130 L6,130 C3.23858,130 1,127.761 1,125 L1,6"/>
</g>

<g fill="none" stroke="#000000" stroke-opacity="1" stroke-width="2" stroke-linecap="square" stroke-linejoin="bevel" transform="matrix(1,0,0,1,0,0)"
font-family="Noto Sans" font-size="10" font-weight="400" font-style="normal" 
>
<path vector-effect="none" fill-rule="evenodd" d="M1,6 C1,3.23858 3.23858,1 6,1 L95,1 C97.7614,1 100,3.23858 100,6 L100,125 C100,127.761 97.7614,130 95,130 L6,130 C3.23858,130 1,127.761 1,125 L1,6"/>
</g>

<g fill="none" stroke="#000000" stroke-opacity="1" stroke-width="2" stroke-linecap="square" stroke-linejoin="bevel" transform="matrix(1,0,0,1,0,0)"
font-family="Noto Sans CJK JP" font-size="90" font-weight="400" font-style="normal" 
>
<path vector-effect="none" fill-rule="evenodd" d="M88.7813,61.2656 L88.7813,54.7031 L53.4219,54.7031 L53.4219,32.6094 L46.4844,32.6094 L46.4844,54.7031 L11.2969,54.7031 L11.2969,61.2656 L43.3438,61.2656 C35.4219,76.8594 21.6563,92.1719 7.875,99.6406 C9.40625,101 11.6563,103.516 12.9219,105.313 C25.6094,97.5781 37.9375,83.7031 46.4844,68.3906 L46.4844,114.859 L53.4219,114.859 L53.4219,68.2969 C62.1406,83.25 74.5625,97.2969 86.8125,105.047 C87.9844,103.156 90.3125,100.625 91.9375,99.2813 C78.4375,91.8125 64.3906,76.5 56.2969,61.2656 L88.7813,61.2656"/>
</g>

<g fill="#000000" fill-opacity="1" stroke="none" transform="matrix(1,0,0,1,0,0)"
font-family="Noto Sans CJK JP" font-size="90" font-weight="400" font-style="normal" 
>
<path vector-effect="none" fill-rule="evenodd" d="M88.7813,61.2656 L88.7813,54.7031 L53.4219,54.7031 L53.4219,32.6094 L46.4844,32.6094 L46.4844,54.7031 L11.2969,54.7031 L11.2969,61.2656 L43.3438,61.2656 C35.4219,76.8594 21.6563,92.1719 7.875,99.6406 C9.40625,101 11.6563,103.516 12.9219,105.313 C25.6094,97.5781 37.9375,83.7031 46.4844,68.3906 L46.4844,114.859 L53.4219,114.859 L53.4219,68.2969 C62.1406,83.25 74.5625,97.2969 86.8125,105.047 C87.9844,103.156 90.3125,100.625 91.9375,99.2813 C78.4375,91.8125 64.3906,76.5 56.2969,61.2656 L88.7813,61.2656"/>
</g>
</g>
</svg>
