<?xml version="1.0" encoding="UTF-8" standalone="no"?>
<svg width="35.2778mm" height="45.8611mm"
 xmlns="http://www.w3.org/2000/svg" xmlns:xlink="http://www.w3.org/1999/xlink"  version="1.2" baseProfile="tiny">
<title>Qt SVG Document</title>
<desc>Generated with Qt</desc>
<defs>
</defs>
<g fill="none" stroke="black" stroke-width="1" fill-rule="evenodd" stroke-linecap="square" stroke-linejoin="bevel" >

<g fill="#c0c0c0" fill-opacity="1" stroke="none" transform="matrix(1,0,0,1,0,0)"
font-family="Noto Sans" font-size="10" font-weight="400" font-style="normal" 
>
<path vector-effect="none" fill-rule="evenodd" d="M1,6 C1,3.23858 3.23858,1 6,1 L95,1 C97.7614,1 100,3.23858 100,6 L100,125 C100,127.761 97.7614,130 95,130 L6,130 C3.23858,130 1,127.761 1,125 L1,6"/>
</g>

<g fill="none" stroke="#000000" stroke-opacity="1" stroke-width="2" stroke-linecap="square" stroke-linejoin="bevel" transform="matrix(1,0,0,1,0,0)"
font-family="Noto Sans" font-size="10" font-weight="400" font-style="normal" 
>
<path vector-effect="none" fill-rule="evenodd" d="M1,6 C1,3.23858 3.23858,1 6,1 L95,1 C97.7614,1 100,3.23858 100,6 L100,125 C100,127.761 97.7614,130 95,130 L6,130 C3.23858,130 1,127.761 1,125 L1,6"/>
</g>

<g fill="none" stroke="#000000" stroke-opacity="1" stroke-width="2" stroke-linecap="square" stroke-linejoin="bevel" transform="matrix(1,0,0,1,0,0)"
font-family="Noto Sans CJK JP" font-size="90" font-weight="400" font-style="normal" 
>
<path vector-effect="none" fill-rule="evenodd" d="M65.9219,71.2656 C72.5,76.75 75.7344,83.4063 75.7344,89.4375 C75.7344,98.7188 67.0938,104.469 53.5938,104.469 C43.4219,104.469 38.5625,99.0781 38.5625,90.6094 C38.5625,88.4531 38.75,85.2969 39.1094,81.7969 C40.1875,81.7969 41.2656,81.7969 42.3438,81.7969 C48.375,81.7969 53.875,81.6094 59.8125,80.9844 L59.9844,74.1406 C53.7813,74.9531 47.4844,75.2188 41.4531,75.2188 L39.7344,75.2188 C40.375,70.0938 41,64.5156 41.7188,59.2969 L42.3438,59.2969 C49.4531,59.2969 54.7656,58.9375 60.4375,58.3906 L60.625,51.6406 C55.3906,52.3594 49.375,52.7188 42.625,52.7188 C43.0625,49.0313 43.5156,45.875 43.7813,43.6094 C44.0625,41.6406 44.3281,39.8281 44.9531,37.3906 L36.8594,36.9375 C37.0313,39.1094 36.9531,41.0938 36.7656,43.1719 C36.5938,45.5938 36.2344,48.8438 35.7813,52.4531 C29.125,52.0938 21.9219,51.0156 16.3438,49.2031 L15.9844,55.875 C21.5625,57.3125 28.5781,58.3906 34.9688,58.9375 C34.3438,64.1563 33.625,69.7344 32.9844,74.9531 C26.6875,74.5 20.0313,73.4219 14.1719,71.3594 L13.8125,78.1875 C19.2188,79.9063 25.7031,80.8906 32.3594,81.4375 C31.9063,85.6563 31.6406,89.2656 31.6406,91.6875 C31.6406,106.266 41.4531,111.578 53.5938,111.578 C71.1406,111.578 83.1094,103.484 83.1094,90.25 C83.1094,82.6094 80.0625,76.3906 73.9375,69.6406 L65.9219,71.2656"/>
</g>

<g fill="#000000" fill-opacity="1" stroke="none" transform="matrix(1,0,0,1,0,0)"
font-family="Noto Sans CJK JP" font-size="90" font-weight="400" font-style="normal" 
>
<path vector-effect="none" fill-rule="evenodd" d="M65.9219,71.2656 C72.5,76.75 75.7344,83.4063 75.7344,89.4375 C75.7344,98.7188 67.0938,104.469 53.5938,104.469 C43.4219,104.469 38.5625,99.0781 38.5625,90.6094 C38.5625,88.4531 38.75,85.2969 39.1094,81.7969 C40.1875,81.7969 41.2656,81.7969 42.3438,81.7969 C48.375,81.7969 53.875,81.6094 59.8125,80.9844 L59.9844,74.1406 C53.7813,74.9531 47.4844,75.2188 41.4531,75.2188 L39.7344,75.2188 C40.375,70.0938 41,64.5156 41.7188,59.2969 L42.3438,59.2969 C49.4531,59.2969 54.7656,58.9375 60.4375,58.3906 L60.625,51.6406 C55.3906,52.3594 49.375,52.7188 42.625,52.7188 C43.0625,49.0313 43.5156,45.875 43.7813,43.6094 C44.0625,41.6406 44.3281,39.8281 44.9531,37.3906 L36.8594,36.9375 C37.0313,39.1094 36.9531,41.0938 36.7656,43.1719 C36.5938,45.5938 36.2344,48.8438 35.7813,52.4531 C29.125,52.0938 21.9219,51.0156 16.3438,49.2031 L15.9844,55.875 C21.5625,57.3125 28.5781,58.3906 34.9688,58.9375 C34.3438,64.1563 33.625,69.7344 32.9844,74.9531 C26.6875,74.5 20.0313,73.4219 14.1719,71.3594 L13.8125,78.1875 C19.2188,79.9063 25.7031,80.8906 32.3594,81.4375 C31.9063,85.6563 31.6406,89.2656 31.6406,91.6875 C31.6406,106.266 41.4531,111.578 53.5938,111.578 C71.1406,111.578 83.1094,103.484 83.1094,90.25 C83.1094,82.6094 80.0625,76.3906 73.9375,69.6406 L65.9219,71.2656"/>
</g>
</g>
</svg>
