<?xml version="1.0" encoding="UTF-8" standalone="no"?>
<svg width="61.7361mm" height="91.7222mm"
 xmlns="http://www.w3.org/2000/svg" xmlns:xlink="http://www.w3.org/1999/xlink"  version="1.2" baseProfile="tiny">
<title>Qt SVG Document</title>
<desc>Generated with Qt</desc>
<defs>
</defs>
<g fill="none" stroke="black" stroke-width="1" fill-rule="evenodd" stroke-linecap="square" stroke-linejoin="bevel" >

<g fill="#808080" fill-opacity="1" stroke="none" transform="matrix(1,0,0,1,0,0)"
font-family="Noto Sans" font-size="10" font-weight="400" font-style="normal" 
>
<path vector-effect="none" fill-rule="evenodd" d="M76,6 L76.3929,4.05377 L77.4645,2.46447 L79.0538,1.39292 L81,1 L170,1 L171.946,1.39292 L173.536,2.46447 L174.607,4.05377 L175,6 L175,255 L174.607,256.946 L173.536,258.536 L171.946,259.607 L170,260 L6,260 L4.05377,259.607 L2.46447,258.536 L1.39292,256.946 L1,255 L1,136 L1.39292,134.054 L2.46447,132.464 L4.05377,131.393 L6,131 L76,131 L76,6"/>
</g>

<g fill="none" stroke="#000000" stroke-opacity="1" stroke-width="2" stroke-linecap="square" stroke-linejoin="bevel" transform="matrix(1,0,0,1,0,0)"
font-family="Noto Sans" font-size="10" font-weight="400" font-style="normal" 
>
<path vector-effect="none" fill-rule="evenodd" d="M76,6 L76.3929,4.05377 L77.4645,2.46447 L79.0538,1.39292 L81,1 L170,1 L171.946,1.39292 L173.536,2.46447 L174.607,4.05377 L175,6 L175,255 L174.607,256.946 L173.536,258.536 L171.946,259.607 L170,260 L6,260 L4.05377,259.607 L2.46447,258.536 L1.39292,256.946 L1,255 L1,136 L1.39292,134.054 L2.46447,132.464 L4.05377,131.393 L6,131 L76,131 L76,6"/>
</g>

<g fill="none" stroke="#000000" stroke-opacity="1" stroke-width="2" stroke-linecap="square" stroke-linejoin="bevel" transform="matrix(1,0,0,1,0,0)"
font-family="Noto Sans CJK JP" font-size="40" font-weight="400" font-style="normal" 
>
<path vector-effect="none" fill-rule="evenodd" d="M17.7188,194.688 L22.6406,194.688 C27.2344,194.688 29.75,196.047 29.75,199.922 C29.75,203.719 27.2344,205.563 22.6406,205.563 L17.7188,205.563 L17.7188,194.688 M34.3125,221 L26.7969,208.156 C30.7969,207.203 33.4375,204.484 33.4375,199.922 C33.4375,193.797 29.1563,191.688 23.2031,191.688 L14,191.688 L14,221 L17.7188,221 L17.7188,208.563 L23,208.563 L30.1094,221 L34.3125,221 M39.3906,221 L56.75,221 L56.75,217.844 L43.1094,217.844 L43.1094,207.156 L54.2344,207.156 L54.2344,204 L43.1094,204 L43.1094,194.797 L56.3125,194.797 L56.3125,191.688 L39.3906,191.688 L39.3906,221 M69.0313,221 L72.75,221 L72.75,194.797 L81.625,194.797 L81.625,191.688 L60.1406,191.688 L60.1406,194.797 L69.0313,194.797 L69.0313,221 M97.25,221.516 C103.25,221.516 107.813,218.328 107.813,208.875 L107.813,191.688 L104.25,191.688 L104.25,209 C104.25,216.078 101.172,218.281 97.25,218.281 C93.4531,218.281 90.4531,216.078 90.4531,209 L90.4531,191.688 L86.7344,191.688 L86.7344,208.875 C86.7344,218.328 91.2969,221.516 97.25,221.516 M119.406,194.688 L124.328,194.688 C128.922,194.688 131.438,196.047 131.438,199.922 C131.438,203.719 128.922,205.563 124.328,205.563 L119.406,205.563 L119.406,194.688 M136,221 L128.484,208.156 C132.484,207.203 135.125,204.484 135.125,199.922 C135.125,193.797 130.844,191.688 124.891,191.688 L115.688,191.688 L115.688,221 L119.406,221 L119.406,208.563 L124.688,208.563 L131.797,221 L136,221 M141.078,221 L144.594,221 L144.594,205.609 C144.594,202.516 144.313,199.406 144.156,196.438 L144.313,196.438 L147.469,202.484 L158.156,221 L161.953,221 L161.953,191.688 L158.438,191.688 L158.438,206.922 C158.438,209.969 158.719,213.234 158.922,216.203 L158.719,216.203 L155.594,210.156 L144.922,191.688 L141.078,191.688 L141.078,221"/>
</g>

<g fill="#ffffff" fill-opacity="1" stroke="none" transform="matrix(1,0,0,1,0,0)"
font-family="Noto Sans CJK JP" font-size="40" font-weight="400" font-style="normal" 
>
<path vector-effect="none" fill-rule="evenodd" d="M17.7188,194.688 L22.6406,194.688 C27.2344,194.688 29.75,196.047 29.75,199.922 C29.75,203.719 27.2344,205.563 22.6406,205.563 L17.7188,205.563 L17.7188,194.688 M34.3125,221 L26.7969,208.156 C30.7969,207.203 33.4375,204.484 33.4375,199.922 C33.4375,193.797 29.1563,191.688 23.2031,191.688 L14,191.688 L14,221 L17.7188,221 L17.7188,208.563 L23,208.563 L30.1094,221 L34.3125,221 M39.3906,221 L56.75,221 L56.75,217.844 L43.1094,217.844 L43.1094,207.156 L54.2344,207.156 L54.2344,204 L43.1094,204 L43.1094,194.797 L56.3125,194.797 L56.3125,191.688 L39.3906,191.688 L39.3906,221 M69.0313,221 L72.75,221 L72.75,194.797 L81.625,194.797 L81.625,191.688 L60.1406,191.688 L60.1406,194.797 L69.0313,194.797 L69.0313,221 M97.25,221.516 C103.25,221.516 107.813,218.328 107.813,208.875 L107.813,191.688 L104.25,191.688 L104.25,209 C104.25,216.078 101.172,218.281 97.25,218.281 C93.4531,218.281 90.4531,216.078 90.4531,209 L90.4531,191.688 L86.7344,191.688 L86.7344,208.875 C86.7344,218.328 91.2969,221.516 97.25,221.516 M119.406,194.688 L124.328,194.688 C128.922,194.688 131.438,196.047 131.438,199.922 C131.438,203.719 128.922,205.563 124.328,205.563 L119.406,205.563 L119.406,194.688 M136,221 L128.484,208.156 C132.484,207.203 135.125,204.484 135.125,199.922 C135.125,193.797 130.844,191.688 124.891,191.688 L115.688,191.688 L115.688,221 L119.406,221 L119.406,208.563 L124.688,208.563 L131.797,221 L136,221 M141.078,221 L144.594,221 L144.594,205.609 C144.594,202.516 144.313,199.406 144.156,196.438 L144.313,196.438 L147.469,202.484 L158.156,221 L161.953,221 L161.953,191.688 L158.438,191.688 L158.438,206.922 C158.438,209.969 158.719,213.234 158.922,216.203 L158.719,216.203 L155.594,210.156 L144.922,191.688 L141.078,191.688 L141.078,221"/>
</g>
</g>
</svg>
