<?xml version="1.0" encoding="UTF-8" standalone="no"?>
<svg width="35.2778mm" height="45.8611mm"
 xmlns="http://www.w3.org/2000/svg" xmlns:xlink="http://www.w3.org/1999/xlink"  version="1.2" baseProfile="tiny">
<title>Qt SVG Document</title>
<desc>Generated with Qt</desc>
<defs>
</defs>
<g fill="none" stroke="black" stroke-width="1" fill-rule="evenodd" stroke-linecap="square" stroke-linejoin="bevel" >

<g fill="#c0c0c0" fill-opacity="1" stroke="none" transform="matrix(1,0,0,1,0,0)"
font-family="Noto Sans" font-size="10" font-weight="400" font-style="normal" 
>
<path vector-effect="none" fill-rule="evenodd" d="M1,6 C1,3.23858 3.23858,1 6,1 L95,1 C97.7614,1 100,3.23858 100,6 L100,125 C100,127.761 97.7614,130 95,130 L6,130 C3.23858,130 1,127.761 1,125 L1,6"/>
</g>

<g fill="none" stroke="#000000" stroke-opacity="1" stroke-width="2" stroke-linecap="square" stroke-linejoin="bevel" transform="matrix(1,0,0,1,0,0)"
font-family="Noto Sans" font-size="10" font-weight="400" font-style="normal" 
>
<path vector-effect="none" fill-rule="evenodd" d="M1,6 C1,3.23858 3.23858,1 6,1 L95,1 C97.7614,1 100,3.23858 100,6 L100,125 C100,127.761 97.7614,130 95,130 L6,130 C3.23858,130 1,127.761 1,125 L1,6"/>
</g>

<g fill="none" stroke="#000000" stroke-opacity="1" stroke-width="2" stroke-linecap="square" stroke-linejoin="bevel" transform="matrix(1,0,0,1,0,0)"
font-family="Noto Sans CJK JP" font-size="90" font-weight="400" font-style="normal" 
>
<path vector-effect="none" fill-rule="evenodd" d="M63.7656,38.75 C64.0313,40.2813 64.2188,43.4375 64.2188,45.4219 L64.2188,58.125 C54.7656,58.9375 44.4219,59.9219 35.7813,60.7344 L35.875,48.75 C35.875,45.9531 35.9531,43.5156 36.1406,41.5313 L28.3125,41.5313 C28.6719,44.2344 28.8438,46.3125 28.8438,49.0156 L28.7656,61.4531 C24.5313,61.8125 21.0156,62.1719 18.7656,62.3594 C15.5313,62.625 12.2031,62.7969 9.5,62.7969 L10.2188,70.1875 C12.6563,69.8281 16.5156,69.2813 19.3125,68.9219 L28.7656,67.9375 C28.7656,76.8438 28.7656,86.2031 28.8438,90.0781 C29.2969,104.297 31.2813,109.063 51.8906,109.063 C60.8906,109.063 71.7813,108.156 77.7188,107.531 L77.9844,99.9688 C72.2344,100.953 61.1563,101.953 51.5313,101.953 C36.0469,101.953 35.9531,98.7188 35.6875,89.0781 C35.5156,85.6563 35.5938,76.3906 35.6875,67.2188 C44.5156,66.3125 54.9531,65.3281 64.125,64.6094 C63.9531,70.1875 63.5938,76.125 63.1406,79.0938 C62.875,81.0781 61.9688,81.4375 59.8125,81.4375 C57.7344,81.4375 53.9531,80.8906 50.8906,80.2656 L50.7188,86.6563 C53.1406,87.0156 59.2656,87.9063 62.5,87.9063 C66.5625,87.9063 68.5313,86.7344 69.3438,82.7813 C70.1563,78.6406 70.5156,70.625 70.7031,64.0625 C74.5625,63.7969 77.9844,63.7031 80.5938,63.6094 C82.8438,63.6094 86.1719,63.5156 87.6094,63.6094 L87.6094,56.4063 C85.4531,56.5938 82.9375,56.7656 80.5938,56.8594 C77.7188,57.0469 74.3906,57.3125 70.875,57.5781 C70.875,53.625 70.9688,49.2031 70.9688,45.1406 C71.0625,43.25 71.2344,40.1875 71.4219,38.75 L63.7656,38.75"/>
</g>

<g fill="#000000" fill-opacity="1" stroke="none" transform="matrix(1,0,0,1,0,0)"
font-family="Noto Sans CJK JP" font-size="90" font-weight="400" font-style="normal" 
>
<path vector-effect="none" fill-rule="evenodd" d="M63.7656,38.75 C64.0313,40.2813 64.2188,43.4375 64.2188,45.4219 L64.2188,58.125 C54.7656,58.9375 44.4219,59.9219 35.7813,60.7344 L35.875,48.75 C35.875,45.9531 35.9531,43.5156 36.1406,41.5313 L28.3125,41.5313 C28.6719,44.2344 28.8438,46.3125 28.8438,49.0156 L28.7656,61.4531 C24.5313,61.8125 21.0156,62.1719 18.7656,62.3594 C15.5313,62.625 12.2031,62.7969 9.5,62.7969 L10.2188,70.1875 C12.6563,69.8281 16.5156,69.2813 19.3125,68.9219 L28.7656,67.9375 C28.7656,76.8438 28.7656,86.2031 28.8438,90.0781 C29.2969,104.297 31.2813,109.063 51.8906,109.063 C60.8906,109.063 71.7813,108.156 77.7188,107.531 L77.9844,99.9688 C72.2344,100.953 61.1563,101.953 51.5313,101.953 C36.0469,101.953 35.9531,98.7188 35.6875,89.0781 C35.5156,85.6563 35.5938,76.3906 35.6875,67.2188 C44.5156,66.3125 54.9531,65.3281 64.125,64.6094 C63.9531,70.1875 63.5938,76.125 63.1406,79.0938 C62.875,81.0781 61.9688,81.4375 59.8125,81.4375 C57.7344,81.4375 53.9531,80.8906 50.8906,80.2656 L50.7188,86.6563 C53.1406,87.0156 59.2656,87.9063 62.5,87.9063 C66.5625,87.9063 68.5313,86.7344 69.3438,82.7813 C70.1563,78.6406 70.5156,70.625 70.7031,64.0625 C74.5625,63.7969 77.9844,63.7031 80.5938,63.6094 C82.8438,63.6094 86.1719,63.5156 87.6094,63.6094 L87.6094,56.4063 C85.4531,56.5938 82.9375,56.7656 80.5938,56.8594 C77.7188,57.0469 74.3906,57.3125 70.875,57.5781 C70.875,53.625 70.9688,49.2031 70.9688,45.1406 C71.0625,43.25 71.2344,40.1875 71.4219,38.75 L63.7656,38.75"/>
</g>
</g>
</svg>
