<?xml version="1.0" encoding="UTF-8" standalone="no"?>
<svg width="35.2778mm" height="45.8611mm"
 xmlns="http://www.w3.org/2000/svg" xmlns:xlink="http://www.w3.org/1999/xlink"  version="1.2" baseProfile="tiny">
<title>Qt SVG Document</title>
<desc>Generated with Qt</desc>
<defs>
</defs>
<g fill="none" stroke="black" stroke-width="1" fill-rule="evenodd" stroke-linecap="square" stroke-linejoin="bevel" >

<g fill="#c0c0c0" fill-opacity="1" stroke="none" transform="matrix(1,0,0,1,0,0)"
font-family="Noto Sans" font-size="10" font-weight="400" font-style="normal" 
>
<path vector-effect="none" fill-rule="evenodd" d="M1,6 C1,3.23858 3.23858,1 6,1 L95,1 C97.7614,1 100,3.23858 100,6 L100,125 C100,127.761 97.7614,130 95,130 L6,130 C3.23858,130 1,127.761 1,125 L1,6"/>
</g>

<g fill="none" stroke="#000000" stroke-opacity="1" stroke-width="2" stroke-linecap="square" stroke-linejoin="bevel" transform="matrix(1,0,0,1,0,0)"
font-family="Noto Sans" font-size="10" font-weight="400" font-style="normal" 
>
<path vector-effect="none" fill-rule="evenodd" d="M1,6 C1,3.23858 3.23858,1 6,1 L95,1 C97.7614,1 100,3.23858 100,6 L100,125 C100,127.761 97.7614,130 95,130 L6,130 C3.23858,130 1,127.761 1,125 L1,6"/>
</g>

<g fill="none" stroke="#000000" stroke-opacity="1" stroke-width="2" stroke-linecap="square" stroke-linejoin="bevel" transform="matrix(1,0,0,1,0,0)"
font-family="Noto Sans CJK JP" font-size="90" font-weight="400" font-style="normal" 
>
<path vector-effect="none" fill-rule="evenodd" d="M77.625,101.406 L77.625,73.6875 L53.1406,73.6875 L53.1406,80.625 L69.9844,80.625 L69.9844,97.8125 C66.9219,100.234 61.0625,101.688 55.5781,101.688 C39.375,101.688 29.4844,91.2344 29.4844,74.6875 C29.4844,58.2969 40.0938,47.9531 55.2188,47.9531 C63.1406,47.9531 68.1719,50.8281 72.0469,54.25 L76.8125,48.8594 C72.4063,44.8906 65.75,40.6563 55.0313,40.6563 C35.2344,40.6563 20.9219,53.7969 20.9219,74.9531 C20.9219,96.1875 34.7813,109.063 54.6719,109.063 C65.2969,109.063 72.6719,105.734 77.625,101.406 "/>
</g>

<g fill="#000000" fill-opacity="1" stroke="none" transform="matrix(1,0,0,1,0,0)"
font-family="Noto Sans CJK JP" font-size="90" font-weight="400" font-style="normal" 
>
<path vector-effect="none" fill-rule="evenodd" d="M77.625,101.406 L77.625,73.6875 L53.1406,73.6875 L53.1406,80.625 L69.9844,80.625 L69.9844,97.8125 C66.9219,100.234 61.0625,101.688 55.5781,101.688 C39.375,101.688 29.4844,91.2344 29.4844,74.6875 C29.4844,58.2969 40.0938,47.9531 55.2188,47.9531 C63.1406,47.9531 68.1719,50.8281 72.0469,54.25 L76.8125,48.8594 C72.4063,44.8906 65.75,40.6563 55.0313,40.6563 C35.2344,40.6563 20.9219,53.7969 20.9219,74.9531 C20.9219,96.1875 34.7813,109.063 54.6719,109.063 C65.2969,109.063 72.6719,105.734 77.625,101.406 "/>
</g>
</g>
</svg>
