<?xml version="1.0" encoding="UTF-8" standalone="no"?>
<svg width="35.2778mm" height="45.8611mm"
 xmlns="http://www.w3.org/2000/svg" xmlns:xlink="http://www.w3.org/1999/xlink"  version="1.2" baseProfile="tiny">
<title>Qt SVG Document</title>
<desc>Generated with Qt</desc>
<defs>
</defs>
<g fill="none" stroke="black" stroke-width="1" fill-rule="evenodd" stroke-linecap="square" stroke-linejoin="bevel" >

<g fill="#c0c0c0" fill-opacity="1" stroke="none" transform="matrix(1,0,0,1,0,0)"
font-family="Noto Sans" font-size="10" font-weight="400" font-style="normal" 
>
<path vector-effect="none" fill-rule="evenodd" d="M1,6 C1,3.23858 3.23858,1 6,1 L95,1 C97.7614,1 100,3.23858 100,6 L100,125 C100,127.761 97.7614,130 95,130 L6,130 C3.23858,130 1,127.761 1,125 L1,6"/>
</g>

<g fill="none" stroke="#000000" stroke-opacity="1" stroke-width="2" stroke-linecap="square" stroke-linejoin="bevel" transform="matrix(1,0,0,1,0,0)"
font-family="Noto Sans" font-size="10" font-weight="400" font-style="normal" 
>
<path vector-effect="none" fill-rule="evenodd" d="M1,6 C1,3.23858 3.23858,1 6,1 L95,1 C97.7614,1 100,3.23858 100,6 L100,125 C100,127.761 97.7614,130 95,130 L6,130 C3.23858,130 1,127.761 1,125 L1,6"/>
</g>

<g fill="none" stroke="#000000" stroke-opacity="1" stroke-width="2" stroke-linecap="square" stroke-linejoin="bevel" transform="matrix(1,0,0,1,0,0)"
font-family="Noto Sans CJK JP" font-size="90" font-weight="400" font-style="normal" 
>
<path vector-effect="none" fill-rule="evenodd" d="M27.0469,101.406 C32.9844,105.641 41.4531,108.969 51.0781,108.969 C64.9375,108.969 72.6719,102.406 72.6719,94.5781 C72.6719,87.0156 66.4688,83.2344 53.1406,79.9063 C44.3281,77.6563 38.2031,75.2188 38.2031,71.1719 C38.2031,67.3906 41.1719,64.1563 50.3594,64.1563 C56.3906,64.1563 61.7031,66.2188 66.1094,69.2813 L70.0625,64.0625 C65.2031,60.6406 57.7344,57.8594 50.3594,57.8594 C36.8594,57.8594 29.8438,63.875 29.8438,71.5313 C29.8438,78.6406 38.3906,82.9688 48.4688,85.4844 C60.5313,88.3594 64.3906,91.2344 64.3906,95.1094 C64.3906,99.1563 60.1719,102.672 51.3438,102.672 C42.5313,102.672 36.5,100.063 31.0156,96.0156 L27.0469,101.406"/>
</g>

<g fill="#000000" fill-opacity="1" stroke="none" transform="matrix(1,0,0,1,0,0)"
font-family="Noto Sans CJK JP" font-size="90" font-weight="400" font-style="normal" 
>
<path vector-effect="none" fill-rule="evenodd" d="M27.0469,101.406 C32.9844,105.641 41.4531,108.969 51.0781,108.969 C64.9375,108.969 72.6719,102.406 72.6719,94.5781 C72.6719,87.0156 66.4688,83.2344 53.1406,79.9063 C44.3281,77.6563 38.2031,75.2188 38.2031,71.1719 C38.2031,67.3906 41.1719,64.1563 50.3594,64.1563 C56.3906,64.1563 61.7031,66.2188 66.1094,69.2813 L70.0625,64.0625 C65.2031,60.6406 57.7344,57.8594 50.3594,57.8594 C36.8594,57.8594 29.8438,63.875 29.8438,71.5313 C29.8438,78.6406 38.3906,82.9688 48.4688,85.4844 C60.5313,88.3594 64.3906,91.2344 64.3906,95.1094 C64.3906,99.1563 60.1719,102.672 51.3438,102.672 C42.5313,102.672 36.5,100.063 31.0156,96.0156 L27.0469,101.406"/>
</g>
</g>
</svg>
