<?xml version="1.0" encoding="UTF-8" standalone="no"?>
<svg width="35.2778mm" height="45.8611mm"
 xmlns="http://www.w3.org/2000/svg" xmlns:xlink="http://www.w3.org/1999/xlink"  version="1.2" baseProfile="tiny">
<title>Qt SVG Document</title>
<desc>Generated with Qt</desc>
<defs>
</defs>
<g fill="none" stroke="black" stroke-width="1" fill-rule="evenodd" stroke-linecap="square" stroke-linejoin="bevel" >

<g fill="#c0c0c0" fill-opacity="1" stroke="none" transform="matrix(1,0,0,1,0,0)"
font-family="Noto Sans" font-size="10" font-weight="400" font-style="normal" 
>
<path vector-effect="none" fill-rule="evenodd" d="M1,6 C1,3.23858 3.23858,1 6,1 L95,1 C97.7614,1 100,3.23858 100,6 L100,125 C100,127.761 97.7614,130 95,130 L6,130 C3.23858,130 1,127.761 1,125 L1,6"/>
</g>

<g fill="none" stroke="#000000" stroke-opacity="1" stroke-width="2" stroke-linecap="square" stroke-linejoin="bevel" transform="matrix(1,0,0,1,0,0)"
font-family="Noto Sans" font-size="10" font-weight="400" font-style="normal" 
>
<path vector-effect="none" fill-rule="evenodd" d="M1,6 C1,3.23858 3.23858,1 6,1 L95,1 C97.7614,1 100,3.23858 100,6 L100,125 C100,127.761 97.7614,130 95,130 L6,130 C3.23858,130 1,127.761 1,125 L1,6"/>
</g>

<g fill="none" stroke="#000000" stroke-opacity="1" stroke-width="2" stroke-linecap="square" stroke-linejoin="bevel" transform="matrix(1,0,0,1,0,0)"
font-family="Noto Sans CJK JP" font-size="90" font-weight="400" font-style="normal" 
>
<path vector-effect="none" fill-rule="evenodd" d="M26.875,107.891 L73.9375,107.891 L73.9375,100.875 L50.625,100.875 C47.2031,100.875 43.7813,101.141 40.1875,101.406 C57.1094,87.5469 70.7031,74.0469 70.7031,60.7344 C70.7031,48.2188 61.9688,40.6563 48.9219,40.6563 C39.5625,40.6563 32,45.4375 25.7969,52.5469 L31.0156,57.2188 C36.2344,51.375 41.625,47.5 48.5625,47.5 C57.4688,47.5 62.5,53.1719 62.5,60.9063 C62.5,72.4375 47.75,86.4688 26.875,103.125 L26.875,107.891"/>
</g>

<g fill="#000000" fill-opacity="1" stroke="none" transform="matrix(1,0,0,1,0,0)"
font-family="Noto Sans CJK JP" font-size="90" font-weight="400" font-style="normal" 
>
<path vector-effect="none" fill-rule="evenodd" d="M26.875,107.891 L73.9375,107.891 L73.9375,100.875 L50.625,100.875 C47.2031,100.875 43.7813,101.141 40.1875,101.406 C57.1094,87.5469 70.7031,74.0469 70.7031,60.7344 C70.7031,48.2188 61.9688,40.6563 48.9219,40.6563 C39.5625,40.6563 32,45.4375 25.7969,52.5469 L31.0156,57.2188 C36.2344,51.375 41.625,47.5 48.5625,47.5 C57.4688,47.5 62.5,53.1719 62.5,60.9063 C62.5,72.4375 47.75,86.4688 26.875,103.125 L26.875,107.891"/>
</g>
</g>
</svg>
