<?xml version="1.0" encoding="UTF-8" standalone="no"?>
<svg width="35.2778mm" height="45.8611mm"
 xmlns="http://www.w3.org/2000/svg" xmlns:xlink="http://www.w3.org/1999/xlink"  version="1.2" baseProfile="tiny">
<title>Qt SVG Document</title>
<desc>Generated with Qt</desc>
<defs>
</defs>
<g fill="none" stroke="black" stroke-width="1" fill-rule="evenodd" stroke-linecap="square" stroke-linejoin="bevel" >

<g fill="#c0c0c0" fill-opacity="1" stroke="none" transform="matrix(1,0,0,1,0,0)"
font-family="Noto Sans" font-size="10" font-weight="400" font-style="normal" 
>
<path vector-effect="none" fill-rule="evenodd" d="M1,6 C1,3.23858 3.23858,1 6,1 L95,1 C97.7614,1 100,3.23858 100,6 L100,125 C100,127.761 97.7614,130 95,130 L6,130 C3.23858,130 1,127.761 1,125 L1,6"/>
</g>

<g fill="none" stroke="#000000" stroke-opacity="1" stroke-width="2" stroke-linecap="square" stroke-linejoin="bevel" transform="matrix(1,0,0,1,0,0)"
font-family="Noto Sans" font-size="10" font-weight="400" font-style="normal" 
>
<path vector-effect="none" fill-rule="evenodd" d="M1,6 C1,3.23858 3.23858,1 6,1 L95,1 C97.7614,1 100,3.23858 100,6 L100,125 C100,127.761 97.7614,130 95,130 L6,130 C3.23858,130 1,127.761 1,125 L1,6"/>
</g>

<g fill="none" stroke="#000000" stroke-opacity="1" stroke-width="2" stroke-linecap="square" stroke-linejoin="bevel" transform="matrix(1,0,0,1,0,0)"
font-family="Noto Sans CJK JP" font-size="90" font-weight="400" font-style="normal" 
>
<path vector-effect="none" fill-rule="evenodd" d="M25.3438,45.2188 L16.7031,45.0469 C17.1563,47.2031 17.2344,50.8906 17.2344,52.9688 C17.2344,58.1875 17.3281,69 18.2344,76.7344 C20.6563,99.875 28.7656,108.25 37.125,108.25 C43.25,108.25 48.7344,103.125 54.0469,88 L48.375,81.5156 C46.0313,90.5156 41.9063,99.7031 37.3125,99.7031 C31.0156,99.7031 26.6875,89.8906 25.25,74.9375 C24.625,67.6406 24.5313,59.4531 24.625,53.8594 C24.7031,51.5156 24.9844,47.375 25.3438,45.2188 M71.7813,47.6563 L64.75,50.0781 C73.2188,60.5313 78.6094,78.1719 80.1406,94.2031 L87.4375,91.3281 C86.1719,76.2813 79.7813,58 71.7813,47.6563 "/>
</g>

<g fill="#000000" fill-opacity="1" stroke="none" transform="matrix(1,0,0,1,0,0)"
font-family="Noto Sans CJK JP" font-size="90" font-weight="400" font-style="normal" 
>
<path vector-effect="none" fill-rule="evenodd" d="M25.3438,45.2188 L16.7031,45.0469 C17.1563,47.2031 17.2344,50.8906 17.2344,52.9688 C17.2344,58.1875 17.3281,69 18.2344,76.7344 C20.6563,99.875 28.7656,108.25 37.125,108.25 C43.25,108.25 48.7344,103.125 54.0469,88 L48.375,81.5156 C46.0313,90.5156 41.9063,99.7031 37.3125,99.7031 C31.0156,99.7031 26.6875,89.8906 25.25,74.9375 C24.625,67.6406 24.5313,59.4531 24.625,53.8594 C24.7031,51.5156 24.9844,47.375 25.3438,45.2188 M71.7813,47.6563 L64.75,50.0781 C73.2188,60.5313 78.6094,78.1719 80.1406,94.2031 L87.4375,91.3281 C86.1719,76.2813 79.7813,58 71.7813,47.6563 "/>
</g>
</g>
</svg>
