<?xml version="1.0" encoding="UTF-8" standalone="no"?>
<svg width="35.2778mm" height="45.8611mm"
 xmlns="http://www.w3.org/2000/svg" xmlns:xlink="http://www.w3.org/1999/xlink"  version="1.2" baseProfile="tiny">
<title>Qt SVG Document</title>
<desc>Generated with Qt</desc>
<defs>
</defs>
<g fill="none" stroke="black" stroke-width="1" fill-rule="evenodd" stroke-linecap="square" stroke-linejoin="bevel" >

<g fill="#c0c0c0" fill-opacity="1" stroke="none" transform="matrix(1,0,0,1,0,0)"
font-family="Noto Sans" font-size="10" font-weight="400" font-style="normal" 
>
<path vector-effect="none" fill-rule="evenodd" d="M1,6 C1,3.23858 3.23858,1 6,1 L95,1 C97.7614,1 100,3.23858 100,6 L100,125 C100,127.761 97.7614,130 95,130 L6,130 C3.23858,130 1,127.761 1,125 L1,6"/>
</g>

<g fill="none" stroke="#000000" stroke-opacity="1" stroke-width="2" stroke-linecap="square" stroke-linejoin="bevel" transform="matrix(1,0,0,1,0,0)"
font-family="Noto Sans" font-size="10" font-weight="400" font-style="normal" 
>
<path vector-effect="none" fill-rule="evenodd" d="M1,6 C1,3.23858 3.23858,1 6,1 L95,1 C97.7614,1 100,3.23858 100,6 L100,125 C100,127.761 97.7614,130 95,130 L6,130 C3.23858,130 1,127.761 1,125 L1,6"/>
</g>

<g fill="none" stroke="#000000" stroke-opacity="1" stroke-width="2" stroke-linecap="square" stroke-linejoin="bevel" transform="matrix(1,0,0,1,0,0)"
font-family="Noto Sans CJK JP" font-size="90" font-weight="400" font-style="normal" 
>
<path vector-effect="none" fill-rule="evenodd" d="M58.5469,96.7344 C60.1719,91.3281 60.7969,85.2969 60.7969,78.8281 C60.7969,74.8594 60.625,70.9063 60.25,67.2188 C70.9688,67.6563 75.2031,73.875 75.2031,81.3438 C75.2031,90.25 69.9844,96.7344 58.5469,96.7344 M51.2656,52.8125 C51.7031,53.9844 52.1563,55.5156 52.5156,56.9531 C52.7813,58.2188 53.0625,59.8281 53.3281,61.8125 C43.0625,63.7969 33.625,70.8125 29.2031,81.3438 C29.0313,75.6719 30.375,65.3281 31.4531,60.4688 C31.7344,59.375 32.0938,58.0313 32.4531,56.9531 L24.9844,56.3281 C25.0625,57.3125 24.9844,58.5781 24.8906,59.9219 C24.3438,63.9688 22.9063,74.9531 22.9063,83.5 C22.9063,90.5156 24.0781,97.9844 25.4219,102.484 L31.5469,101.594 C31.0938,99.7969 30.5625,96.0156 30.4688,94.3906 C30.375,92.7656 30.7344,91.1563 31.0156,89.8906 C32.9844,80.4375 41.2656,69.9063 53.9531,67.6563 C54.2344,70.7188 54.4063,74.3281 54.4063,78.4688 C54.4063,84.6719 53.7813,90.5156 52.0625,95.5625 C47.3906,93.7656 43.9688,89.9844 41.4531,84.8438 L37.7656,90.0781 C40.375,95.4688 44.5156,99.3438 49.375,101.5 C47.125,105.375 43.7813,108.719 39.2813,111.25 L45.5,114.953 C50.1719,111.875 53.5938,107.906 56.0313,103.203 C56.8438,103.297 57.6406,103.391 58.5469,103.391 C74.4844,103.391 81.7656,93.2188 81.7656,81.1563 C81.7656,70.2656 74.2031,61.3594 59.625,61.1875 C59.2656,57.6719 58.7344,54.7031 58.375,52.6406 L51.2656,52.8125"/>
</g>

<g fill="#000000" fill-opacity="1" stroke="none" transform="matrix(1,0,0,1,0,0)"
font-family="Noto Sans CJK JP" font-size="90" font-weight="400" font-style="normal" 
>
<path vector-effect="none" fill-rule="evenodd" d="M58.5469,96.7344 C60.1719,91.3281 60.7969,85.2969 60.7969,78.8281 C60.7969,74.8594 60.625,70.9063 60.25,67.2188 C70.9688,67.6563 75.2031,73.875 75.2031,81.3438 C75.2031,90.25 69.9844,96.7344 58.5469,96.7344 M51.2656,52.8125 C51.7031,53.9844 52.1563,55.5156 52.5156,56.9531 C52.7813,58.2188 53.0625,59.8281 53.3281,61.8125 C43.0625,63.7969 33.625,70.8125 29.2031,81.3438 C29.0313,75.6719 30.375,65.3281 31.4531,60.4688 C31.7344,59.375 32.0938,58.0313 32.4531,56.9531 L24.9844,56.3281 C25.0625,57.3125 24.9844,58.5781 24.8906,59.9219 C24.3438,63.9688 22.9063,74.9531 22.9063,83.5 C22.9063,90.5156 24.0781,97.9844 25.4219,102.484 L31.5469,101.594 C31.0938,99.7969 30.5625,96.0156 30.4688,94.3906 C30.375,92.7656 30.7344,91.1563 31.0156,89.8906 C32.9844,80.4375 41.2656,69.9063 53.9531,67.6563 C54.2344,70.7188 54.4063,74.3281 54.4063,78.4688 C54.4063,84.6719 53.7813,90.5156 52.0625,95.5625 C47.3906,93.7656 43.9688,89.9844 41.4531,84.8438 L37.7656,90.0781 C40.375,95.4688 44.5156,99.3438 49.375,101.5 C47.125,105.375 43.7813,108.719 39.2813,111.25 L45.5,114.953 C50.1719,111.875 53.5938,107.906 56.0313,103.203 C56.8438,103.297 57.6406,103.391 58.5469,103.391 C74.4844,103.391 81.7656,93.2188 81.7656,81.1563 C81.7656,70.2656 74.2031,61.3594 59.625,61.1875 C59.2656,57.6719 58.7344,54.7031 58.375,52.6406 L51.2656,52.8125"/>
</g>
</g>
</svg>
