<?xml version="1.0" encoding="UTF-8" standalone="no"?>
<svg width="35.2778mm" height="45.8611mm"
 xmlns="http://www.w3.org/2000/svg" xmlns:xlink="http://www.w3.org/1999/xlink"  version="1.2" baseProfile="tiny">
<title>Qt SVG Document</title>
<desc>Generated with Qt</desc>
<defs>
</defs>
<g fill="none" stroke="black" stroke-width="1" fill-rule="evenodd" stroke-linecap="square" stroke-linejoin="bevel" >

<g fill="#c0c0c0" fill-opacity="1" stroke="none" transform="matrix(1,0,0,1,0,0)"
font-family="Noto Sans" font-size="10" font-weight="400" font-style="normal" 
>
<path vector-effect="none" fill-rule="evenodd" d="M1,6 C1,3.23858 3.23858,1 6,1 L95,1 C97.7614,1 100,3.23858 100,6 L100,125 C100,127.761 97.7614,130 95,130 L6,130 C3.23858,130 1,127.761 1,125 L1,6"/>
</g>

<g fill="none" stroke="#000000" stroke-opacity="1" stroke-width="2" stroke-linecap="square" stroke-linejoin="bevel" transform="matrix(1,0,0,1,0,0)"
font-family="Noto Sans" font-size="10" font-weight="400" font-style="normal" 
>
<path vector-effect="none" fill-rule="evenodd" d="M1,6 C1,3.23858 3.23858,1 6,1 L95,1 C97.7614,1 100,3.23858 100,6 L100,125 C100,127.761 97.7614,130 95,130 L6,130 C3.23858,130 1,127.761 1,125 L1,6"/>
</g>

<g fill="none" stroke="#000000" stroke-opacity="1" stroke-width="2" stroke-linecap="square" stroke-linejoin="bevel" transform="matrix(1,0,0,1,0,0)"
font-family="Noto Sans CJK JP" font-size="90" font-weight="400" font-style="normal" 
>
<path vector-effect="none" fill-rule="evenodd" d="M27.7656,83.5 C27.7656,99.5156 39.2813,108.969 54.5938,108.969 C61.875,108.969 68.7188,106.266 74.125,101.406 L70.4219,96.0156 C66.4688,99.4375 61.3438,102.125 55.2188,102.125 C43.875,102.125 36.3125,94.6563 36.3125,83.5 C36.3125,72.4375 44.1406,64.7813 55.3906,64.7813 C60.625,64.7813 64.9375,66.7656 68.8906,70.1875 L72.9531,64.9688 C68.8906,61.0938 63.1406,57.8594 55.125,57.8594 C40.2813,57.8594 27.7656,67.2188 27.7656,83.5 "/>
</g>

<g fill="#000000" fill-opacity="1" stroke="none" transform="matrix(1,0,0,1,0,0)"
font-family="Noto Sans CJK JP" font-size="90" font-weight="400" font-style="normal" 
>
<path vector-effect="none" fill-rule="evenodd" d="M27.7656,83.5 C27.7656,99.5156 39.2813,108.969 54.5938,108.969 C61.875,108.969 68.7188,106.266 74.125,101.406 L70.4219,96.0156 C66.4688,99.4375 61.3438,102.125 55.2188,102.125 C43.875,102.125 36.3125,94.6563 36.3125,83.5 C36.3125,72.4375 44.1406,64.7813 55.3906,64.7813 C60.625,64.7813 64.9375,66.7656 68.8906,70.1875 L72.9531,64.9688 C68.8906,61.0938 63.1406,57.8594 55.125,57.8594 C40.2813,57.8594 27.7656,67.2188 27.7656,83.5 "/>
</g>
</g>
</svg>
