<?xml version="1.0" encoding="UTF-8" standalone="no"?>
<svg width="35.2778mm" height="45.8611mm"
 xmlns="http://www.w3.org/2000/svg" xmlns:xlink="http://www.w3.org/1999/xlink"  version="1.2" baseProfile="tiny">
<title>Qt SVG Document</title>
<desc>Generated with Qt</desc>
<defs>
</defs>
<g fill="none" stroke="black" stroke-width="1" fill-rule="evenodd" stroke-linecap="square" stroke-linejoin="bevel" >

<g fill="#c0c0c0" fill-opacity="1" stroke="none" transform="matrix(1,0,0,1,0,0)"
font-family="Noto Sans" font-size="10" font-weight="400" font-style="normal" 
>
<path vector-effect="none" fill-rule="evenodd" d="M1,6 C1,3.23858 3.23858,1 6,1 L95,1 C97.7614,1 100,3.23858 100,6 L100,125 C100,127.761 97.7614,130 95,130 L6,130 C3.23858,130 1,127.761 1,125 L1,6"/>
</g>

<g fill="none" stroke="#000000" stroke-opacity="1" stroke-width="2" stroke-linecap="square" stroke-linejoin="bevel" transform="matrix(1,0,0,1,0,0)"
font-family="Noto Sans" font-size="10" font-weight="400" font-style="normal" 
>
<path vector-effect="none" fill-rule="evenodd" d="M1,6 C1,3.23858 3.23858,1 6,1 L95,1 C97.7614,1 100,3.23858 100,6 L100,125 C100,127.761 97.7614,130 95,130 L6,130 C3.23858,130 1,127.761 1,125 L1,6"/>
</g>

<g fill="none" stroke="#000000" stroke-opacity="1" stroke-width="2" stroke-linecap="square" stroke-linejoin="bevel" transform="matrix(1,0,0,1,0,0)"
font-family="Noto Sans CJK JP" font-size="90" font-weight="400" font-style="normal" 
>
<path vector-effect="none" fill-rule="evenodd" d="M26.3281,52.1875 C33.4375,52.8125 41,53.1719 49.9063,53.1719 C58.0938,53.1719 67.9063,52.5469 73.9375,52.0938 L73.9375,44.7031 C67.5469,45.3438 58.4531,45.9688 49.9063,45.9688 C41,45.9688 32.8125,45.6094 26.3281,44.7969 L26.3281,52.1875 M22.6406,80.0781 C21.8281,83.7656 20.8438,87.9063 20.8438,92.5938 C20.8438,103.75 31.375,109.688 49.4531,109.688 C62.1406,109.688 73.4844,108.344 79.875,106.625 L79.7813,98.8906 C73.0313,100.953 61.6094,102.313 49.2813,102.313 C35.0625,102.313 28.2188,97.625 28.2188,90.9688 C28.2188,87.6406 28.9375,84.4063 30.0156,80.7969 L22.6406,80.0781"/>
</g>

<g fill="#000000" fill-opacity="1" stroke="none" transform="matrix(1,0,0,1,0,0)"
font-family="Noto Sans CJK JP" font-size="90" font-weight="400" font-style="normal" 
>
<path vector-effect="none" fill-rule="evenodd" d="M26.3281,52.1875 C33.4375,52.8125 41,53.1719 49.9063,53.1719 C58.0938,53.1719 67.9063,52.5469 73.9375,52.0938 L73.9375,44.7031 C67.5469,45.3438 58.4531,45.9688 49.9063,45.9688 C41,45.9688 32.8125,45.6094 26.3281,44.7969 L26.3281,52.1875 M22.6406,80.0781 C21.8281,83.7656 20.8438,87.9063 20.8438,92.5938 C20.8438,103.75 31.375,109.688 49.4531,109.688 C62.1406,109.688 73.4844,108.344 79.875,106.625 L79.7813,98.8906 C73.0313,100.953 61.6094,102.313 49.2813,102.313 C35.0625,102.313 28.2188,97.625 28.2188,90.9688 C28.2188,87.6406 28.9375,84.4063 30.0156,80.7969 L22.6406,80.0781"/>
</g>
</g>
</svg>
