<?xml version="1.0" encoding="UTF-8" standalone="no"?>
<svg width="35.2778mm" height="45.8611mm"
 xmlns="http://www.w3.org/2000/svg" xmlns:xlink="http://www.w3.org/1999/xlink"  version="1.2" baseProfile="tiny">
<title>Qt SVG Document</title>
<desc>Generated with Qt</desc>
<defs>
</defs>
<g fill="none" stroke="black" stroke-width="1" fill-rule="evenodd" stroke-linecap="square" stroke-linejoin="bevel" >

<g fill="#c0c0c0" fill-opacity="1" stroke="none" transform="matrix(1,0,0,1,0,0)"
font-family="Noto Sans" font-size="10" font-weight="400" font-style="normal" 
>
<path vector-effect="none" fill-rule="evenodd" d="M1,6 C1,3.23858 3.23858,1 6,1 L95,1 C97.7614,1 100,3.23858 100,6 L100,125 C100,127.761 97.7614,130 95,130 L6,130 C3.23858,130 1,127.761 1,125 L1,6"/>
</g>

<g fill="none" stroke="#000000" stroke-opacity="1" stroke-width="2" stroke-linecap="square" stroke-linejoin="bevel" transform="matrix(1,0,0,1,0,0)"
font-family="Noto Sans" font-size="10" font-weight="400" font-style="normal" 
>
<path vector-effect="none" fill-rule="evenodd" d="M1,6 C1,3.23858 3.23858,1 6,1 L95,1 C97.7614,1 100,3.23858 100,6 L100,125 C100,127.761 97.7614,130 95,130 L6,130 C3.23858,130 1,127.761 1,125 L1,6"/>
</g>

<g fill="none" stroke="#000000" stroke-opacity="1" stroke-width="2" stroke-linecap="square" stroke-linejoin="bevel" transform="matrix(1,0,0,1,0,0)"
font-family="Noto Sans CJK JP" font-size="90" font-weight="400" font-style="normal" 
>
<path vector-effect="none" fill-rule="evenodd" d="M64.4844,102.219 L64.75,102.219 L65.5625,107.891 L72.2344,107.891 L72.2344,36.25 L64.0313,36.25 L63.9531,55.0625 L64.3906,63.4375 C59.5313,59.9219 54.9531,57.7656 48.0156,57.7656 C35.4219,57.7656 24.1719,67.5781 24.1719,83.5 C24.1719,99.5156 33.4375,109.063 46.8438,109.063 C54.3125,109.063 60.25,106.094 64.4844,102.219 M32.625,83.4063 C32.625,72.25 40.2813,64.6875 49.5469,64.6875 C54.5,64.6875 59.1719,66.125 64.0313,69.8281 L64.0313,95.375 C59.2656,99.7969 54.4063,102.125 48.9219,102.125 C39.375,102.125 32.625,94.9375 32.625,83.4063 "/>
</g>

<g fill="#000000" fill-opacity="1" stroke="none" transform="matrix(1,0,0,1,0,0)"
font-family="Noto Sans CJK JP" font-size="90" font-weight="400" font-style="normal" 
>
<path vector-effect="none" fill-rule="evenodd" d="M64.4844,102.219 L64.75,102.219 L65.5625,107.891 L72.2344,107.891 L72.2344,36.25 L64.0313,36.25 L63.9531,55.0625 L64.3906,63.4375 C59.5313,59.9219 54.9531,57.7656 48.0156,57.7656 C35.4219,57.7656 24.1719,67.5781 24.1719,83.5 C24.1719,99.5156 33.4375,109.063 46.8438,109.063 C54.3125,109.063 60.25,106.094 64.4844,102.219 M32.625,83.4063 C32.625,72.25 40.2813,64.6875 49.5469,64.6875 C54.5,64.6875 59.1719,66.125 64.0313,69.8281 L64.0313,95.375 C59.2656,99.7969 54.4063,102.125 48.9219,102.125 C39.375,102.125 32.625,94.9375 32.625,83.4063 "/>
</g>
</g>
</svg>
