<?xml version="1.0" encoding="UTF-8" standalone="no"?>
<svg width="35.2778mm" height="45.8611mm"
 xmlns="http://www.w3.org/2000/svg" xmlns:xlink="http://www.w3.org/1999/xlink"  version="1.2" baseProfile="tiny">
<title>Qt SVG Document</title>
<desc>Generated with Qt</desc>
<defs>
</defs>
<g fill="none" stroke="black" stroke-width="1" fill-rule="evenodd" stroke-linecap="square" stroke-linejoin="bevel" >

<g fill="#c0c0c0" fill-opacity="1" stroke="none" transform="matrix(1,0,0,1,0,0)"
font-family="Noto Sans" font-size="10" font-weight="400" font-style="normal" 
>
<path vector-effect="none" fill-rule="evenodd" d="M1,6 C1,3.23858 3.23858,1 6,1 L95,1 C97.7614,1 100,3.23858 100,6 L100,125 C100,127.761 97.7614,130 95,130 L6,130 C3.23858,130 1,127.761 1,125 L1,6"/>
</g>

<g fill="none" stroke="#000000" stroke-opacity="1" stroke-width="2" stroke-linecap="square" stroke-linejoin="bevel" transform="matrix(1,0,0,1,0,0)"
font-family="Noto Sans" font-size="10" font-weight="400" font-style="normal" 
>
<path vector-effect="none" fill-rule="evenodd" d="M1,6 C1,3.23858 3.23858,1 6,1 L95,1 C97.7614,1 100,3.23858 100,6 L100,125 C100,127.761 97.7614,130 95,130 L6,130 C3.23858,130 1,127.761 1,125 L1,6"/>
</g>

<g fill="none" stroke="#000000" stroke-opacity="1" stroke-width="2" stroke-linecap="square" stroke-linejoin="bevel" transform="matrix(1,0,0,1,0,0)"
font-family="Noto Sans CJK JP" font-size="90" font-weight="400" font-style="normal" 
>
<path vector-effect="none" fill-rule="evenodd" d="M89.5,65.1406 L89.5,58.2969 L52.3438,58.2969 C53.5938,48.8438 53.6875,39.9219 53.7813,32.7031 L46.5781,32.7031 C46.4844,39.8281 46.5781,48.8438 45.2344,58.2969 L10.9375,58.2969 L10.9375,65.1406 L44.1406,65.1406 C40.4531,82.1719 31.4531,99.4531 9.14063,109.188 C11.0313,110.547 13.1875,112.875 14.1719,114.688 C36.0469,104.688 45.7656,87.3906 50.0938,70.0938 C57.2031,90.5469 68.625,106.484 85.9063,114.688 C87.0781,112.703 89.3281,109.906 90.9531,108.375 C73.5781,101.266 61.875,84.9531 55.5781,65.1406 L89.5,65.1406"/>
</g>

<g fill="#000000" fill-opacity="1" stroke="none" transform="matrix(1,0,0,1,0,0)"
font-family="Noto Sans CJK JP" font-size="90" font-weight="400" font-style="normal" 
>
<path vector-effect="none" fill-rule="evenodd" d="M89.5,65.1406 L89.5,58.2969 L52.3438,58.2969 C53.5938,48.8438 53.6875,39.9219 53.7813,32.7031 L46.5781,32.7031 C46.4844,39.8281 46.5781,48.8438 45.2344,58.2969 L10.9375,58.2969 L10.9375,65.1406 L44.1406,65.1406 C40.4531,82.1719 31.4531,99.4531 9.14063,109.188 C11.0313,110.547 13.1875,112.875 14.1719,114.688 C36.0469,104.688 45.7656,87.3906 50.0938,70.0938 C57.2031,90.5469 68.625,106.484 85.9063,114.688 C87.0781,112.703 89.3281,109.906 90.9531,108.375 C73.5781,101.266 61.875,84.9531 55.5781,65.1406 L89.5,65.1406"/>
</g>
</g>
</svg>
