<?xml version="1.0" encoding="UTF-8" standalone="no"?>
<svg width="35.2778mm" height="45.8611mm"
 xmlns="http://www.w3.org/2000/svg" xmlns:xlink="http://www.w3.org/1999/xlink"  version="1.2" baseProfile="tiny">
<title>Qt SVG Document</title>
<desc>Generated with Qt</desc>
<defs>
</defs>
<g fill="none" stroke="black" stroke-width="1" fill-rule="evenodd" stroke-linecap="square" stroke-linejoin="bevel" >

<g fill="#c0c0c0" fill-opacity="1" stroke="none" transform="matrix(1,0,0,1,0,0)"
font-family="Noto Sans" font-size="10" font-weight="400" font-style="normal" 
>
<path vector-effect="none" fill-rule="evenodd" d="M1,6 C1,3.23858 3.23858,1 6,1 L95,1 C97.7614,1 100,3.23858 100,6 L100,125 C100,127.761 97.7614,130 95,130 L6,130 C3.23858,130 1,127.761 1,125 L1,6"/>
</g>

<g fill="none" stroke="#000000" stroke-opacity="1" stroke-width="2" stroke-linecap="square" stroke-linejoin="bevel" transform="matrix(1,0,0,1,0,0)"
font-family="Noto Sans" font-size="10" font-weight="400" font-style="normal" 
>
<path vector-effect="none" fill-rule="evenodd" d="M1,6 C1,3.23858 3.23858,1 6,1 L95,1 C97.7614,1 100,3.23858 100,6 L100,125 C100,127.761 97.7614,130 95,130 L6,130 C3.23858,130 1,127.761 1,125 L1,6"/>
</g>

<g fill="none" stroke="#000000" stroke-opacity="1" stroke-width="2" stroke-linecap="square" stroke-linejoin="bevel" transform="matrix(1,0,0,1,0,0)"
font-family="Noto Sans CJK JP" font-size="90" font-weight="400" font-style="normal" 
>
<path vector-effect="none" fill-rule="evenodd" d="M29.4844,70.625 C25.9688,77.9219 18.3125,88.625 12.2969,94.125 L18.5,98.3438 C23.625,92.8594 32,81.3438 35.7813,73.6875 L29.4844,70.625 M78.8906,59.75 C81.0469,59.75 83.75,59.8281 86.1719,60.0156 L86.1719,52.5469 C83.9219,52.8125 80.9531,53 78.7969,53 L55.0313,53 L55.0313,43.7031 C55.0313,41.8125 55.3125,38.5625 55.5781,37.3125 L47.125,37.3125 C47.4844,38.6563 47.8438,41.7188 47.8438,43.7031 L47.8438,53 L22.7344,53 C19.9375,53 17.5938,52.8125 15.0781,52.4531 L15.0781,60.1094 C17.5156,59.8281 20.0313,59.75 22.8125,59.75 L47.8438,59.75 L47.8438,60.4688 C47.8438,64.6875 47.8438,95.4688 47.75,100.328 C47.75,102.766 46.6719,103.75 44.2344,103.75 C41.9063,103.75 37.8438,103.484 33.8906,102.766 L34.5156,109.875 C38.2031,110.328 43.5156,110.5 47.2969,110.5 C52.7813,110.5 55.0313,108.078 55.0313,103.391 L55.0313,59.75 L78.8906,59.75 M67.2813,73.9688 C72.0469,79.625 78.7969,90.7969 82.3125,97.9063 L88.9688,94.2188 C85.3594,87.7344 78.25,76.3906 73.3906,70.625 L67.2813,73.9688"/>
</g>

<g fill="#000000" fill-opacity="1" stroke="none" transform="matrix(1,0,0,1,0,0)"
font-family="Noto Sans CJK JP" font-size="90" font-weight="400" font-style="normal" 
>
<path vector-effect="none" fill-rule="evenodd" d="M29.4844,70.625 C25.9688,77.9219 18.3125,88.625 12.2969,94.125 L18.5,98.3438 C23.625,92.8594 32,81.3438 35.7813,73.6875 L29.4844,70.625 M78.8906,59.75 C81.0469,59.75 83.75,59.8281 86.1719,60.0156 L86.1719,52.5469 C83.9219,52.8125 80.9531,53 78.7969,53 L55.0313,53 L55.0313,43.7031 C55.0313,41.8125 55.3125,38.5625 55.5781,37.3125 L47.125,37.3125 C47.4844,38.6563 47.8438,41.7188 47.8438,43.7031 L47.8438,53 L22.7344,53 C19.9375,53 17.5938,52.8125 15.0781,52.4531 L15.0781,60.1094 C17.5156,59.8281 20.0313,59.75 22.8125,59.75 L47.8438,59.75 L47.8438,60.4688 C47.8438,64.6875 47.8438,95.4688 47.75,100.328 C47.75,102.766 46.6719,103.75 44.2344,103.75 C41.9063,103.75 37.8438,103.484 33.8906,102.766 L34.5156,109.875 C38.2031,110.328 43.5156,110.5 47.2969,110.5 C52.7813,110.5 55.0313,108.078 55.0313,103.391 L55.0313,59.75 L78.8906,59.75 M67.2813,73.9688 C72.0469,79.625 78.7969,90.7969 82.3125,97.9063 L88.9688,94.2188 C85.3594,87.7344 78.25,76.3906 73.3906,70.625 L67.2813,73.9688"/>
</g>
</g>
</svg>
