<?xml version="1.0" encoding="UTF-8" standalone="no"?>
<svg width="35.2778mm" height="45.8611mm"
 xmlns="http://www.w3.org/2000/svg" xmlns:xlink="http://www.w3.org/1999/xlink"  version="1.2" baseProfile="tiny">
<title>Qt SVG Document</title>
<desc>Generated with Qt</desc>
<defs>
</defs>
<g fill="none" stroke="black" stroke-width="1" fill-rule="evenodd" stroke-linecap="square" stroke-linejoin="bevel" >

<g fill="#808080" fill-opacity="1" stroke="none" transform="matrix(1,0,0,1,0,0)"
font-family="Noto Sans" font-size="10" font-weight="400" font-style="normal" 
>
<path vector-effect="none" fill-rule="evenodd" d="M1,6 C1,3.23858 3.23858,1 6,1 L95,1 C97.7614,1 100,3.23858 100,6 L100,125 C100,127.761 97.7614,130 95,130 L6,130 C3.23858,130 1,127.761 1,125 L1,6"/>
</g>

<g fill="none" stroke="#000000" stroke-opacity="1" stroke-width="2" stroke-linecap="square" stroke-linejoin="bevel" transform="matrix(1,0,0,1,0,0)"
font-family="Noto Sans" font-size="10" font-weight="400" font-style="normal" 
>
<path vector-effect="none" fill-rule="evenodd" d="M1,6 C1,3.23858 3.23858,1 6,1 L95,1 C97.7614,1 100,3.23858 100,6 L100,125 C100,127.761 97.7614,130 95,130 L6,130 C3.23858,130 1,127.761 1,125 L1,6"/>
</g>

<g fill="none" stroke="#000000" stroke-opacity="1" stroke-width="2" stroke-linecap="square" stroke-linejoin="bevel" transform="matrix(1,0,0,1,0,0)"
font-family="Noto Sans CJK JP" font-size="45" font-weight="400" font-style="normal" 
>
<path vector-effect="none" fill-rule="evenodd" d="M41.3125,61.3281 L41.3125,47.4688 L29.0781,47.4688 L29.0781,50.9219 L37.4844,50.9219 L37.4844,59.5156 C35.9531,60.7344 33.0313,61.4531 30.2813,61.4531 C22.1875,61.4531 17.2344,56.2344 17.2344,47.9531 C17.2344,39.7656 22.5469,34.5938 30.1094,34.5938 C34.0625,34.5938 36.5938,36.0313 38.5313,37.75 L40.9063,35.0469 C38.7031,33.0625 35.375,30.9531 30.0156,30.9531 C20.125,30.9531 12.9688,37.5156 12.9688,48.0938 C12.9688,58.7188 19.8906,65.1406 29.8438,65.1406 C35.1563,65.1406 38.8438,63.4844 41.3125,61.3281 M87.0313,64.5625 L77.0469,49.9375 C82.4375,49 85.9063,45.9375 85.9063,40.7969 C85.9063,33.9219 80.5469,31.4844 72.7656,31.4844 L61.4219,31.4844 L61.4219,64.5625 L65.3906,64.5625 L65.3906,50.5625 L72.8594,50.5625 L82.3125,64.5625 L87.0313,64.5625 M65.3906,34.9063 L72.1406,34.9063 C78.2188,34.9063 81.6719,36.3906 81.6719,40.7969 C81.6719,45.1719 78.2969,47.2344 72.1406,47.2344 L65.3906,47.2344 L65.3906,34.9063 M16.3906,109.563 L20.5313,109.563 L20.5313,96.4219 L27.1406,96.4219 C35.5156,96.4219 40.9063,93.1406 40.9063,86.2031 C40.9063,79.0469 35.5156,76.4844 26.9219,76.4844 L16.3906,76.4844 L16.3906,109.563 M20.5313,93.0469 L20.5313,79.9063 L26.3281,79.9063 C33.1719,79.9063 36.7656,81.3438 36.7656,86.2031 C36.7656,91.0156 33.3438,93.0469 26.5469,93.0469 L20.5313,93.0469 M59.0938,109.563 L63.2813,109.563 L63.2813,94 L81.7656,94 L81.7656,109.563 L85.9063,109.563 L85.9063,76.4844 L81.7656,76.4844 L81.7656,90.3906 L63.2813,90.3906 L63.2813,76.4844 L59.0938,76.4844 L59.0938,109.563"/>
</g>

<g fill="#ffffff" fill-opacity="1" stroke="none" transform="matrix(1,0,0,1,0,0)"
font-family="Noto Sans CJK JP" font-size="45" font-weight="400" font-style="normal" 
>
<path vector-effect="none" fill-rule="evenodd" d="M41.3125,61.3281 L41.3125,47.4688 L29.0781,47.4688 L29.0781,50.9219 L37.4844,50.9219 L37.4844,59.5156 C35.9531,60.7344 33.0313,61.4531 30.2813,61.4531 C22.1875,61.4531 17.2344,56.2344 17.2344,47.9531 C17.2344,39.7656 22.5469,34.5938 30.1094,34.5938 C34.0625,34.5938 36.5938,36.0313 38.5313,37.75 L40.9063,35.0469 C38.7031,33.0625 35.375,30.9531 30.0156,30.9531 C20.125,30.9531 12.9688,37.5156 12.9688,48.0938 C12.9688,58.7188 19.8906,65.1406 29.8438,65.1406 C35.1563,65.1406 38.8438,63.4844 41.3125,61.3281 M87.0313,64.5625 L77.0469,49.9375 C82.4375,49 85.9063,45.9375 85.9063,40.7969 C85.9063,33.9219 80.5469,31.4844 72.7656,31.4844 L61.4219,31.4844 L61.4219,64.5625 L65.3906,64.5625 L65.3906,50.5625 L72.8594,50.5625 L82.3125,64.5625 L87.0313,64.5625 M65.3906,34.9063 L72.1406,34.9063 C78.2188,34.9063 81.6719,36.3906 81.6719,40.7969 C81.6719,45.1719 78.2969,47.2344 72.1406,47.2344 L65.3906,47.2344 L65.3906,34.9063 M16.3906,109.563 L20.5313,109.563 L20.5313,96.4219 L27.1406,96.4219 C35.5156,96.4219 40.9063,93.1406 40.9063,86.2031 C40.9063,79.0469 35.5156,76.4844 26.9219,76.4844 L16.3906,76.4844 L16.3906,109.563 M20.5313,93.0469 L20.5313,79.9063 L26.3281,79.9063 C33.1719,79.9063 36.7656,81.3438 36.7656,86.2031 C36.7656,91.0156 33.3438,93.0469 26.5469,93.0469 L20.5313,93.0469 M59.0938,109.563 L63.2813,109.563 L63.2813,94 L81.7656,94 L81.7656,109.563 L85.9063,109.563 L85.9063,76.4844 L81.7656,76.4844 L81.7656,90.3906 L63.2813,90.3906 L63.2813,76.4844 L59.0938,76.4844 L59.0938,109.563"/>
</g>
</g>
</svg>
