<?xml version="1.0" encoding="UTF-8" standalone="no"?>
<svg width="35.2778mm" height="45.8611mm"
 xmlns="http://www.w3.org/2000/svg" xmlns:xlink="http://www.w3.org/1999/xlink"  version="1.2" baseProfile="tiny">
<title>Qt SVG Document</title>
<desc>Generated with Qt</desc>
<defs>
</defs>
<g fill="none" stroke="black" stroke-width="1" fill-rule="evenodd" stroke-linecap="square" stroke-linejoin="bevel" >

<g fill="#c0c0c0" fill-opacity="1" stroke="none" transform="matrix(1,0,0,1,0,0)"
font-family="Noto Sans" font-size="10" font-weight="400" font-style="normal" 
>
<path vector-effect="none" fill-rule="evenodd" d="M1,6 C1,3.23858 3.23858,1 6,1 L95,1 C97.7614,1 100,3.23858 100,6 L100,125 C100,127.761 97.7614,130 95,130 L6,130 C3.23858,130 1,127.761 1,125 L1,6"/>
</g>

<g fill="none" stroke="#000000" stroke-opacity="1" stroke-width="2" stroke-linecap="square" stroke-linejoin="bevel" transform="matrix(1,0,0,1,0,0)"
font-family="Noto Sans" font-size="10" font-weight="400" font-style="normal" 
>
<path vector-effect="none" fill-rule="evenodd" d="M1,6 C1,3.23858 3.23858,1 6,1 L95,1 C97.7614,1 100,3.23858 100,6 L100,125 C100,127.761 97.7614,130 95,130 L6,130 C3.23858,130 1,127.761 1,125 L1,6"/>
</g>

<g fill="none" stroke="#000000" stroke-opacity="1" stroke-width="2" stroke-linecap="square" stroke-linejoin="bevel" transform="matrix(1,0,0,1,0,0)"
font-family="Noto Sans CJK JP" font-size="90" font-weight="400" font-style="normal" 
>
<path vector-effect="none" fill-rule="evenodd" d="M32.0938,107.469 L37.4844,107.469 L39.9219,87.5469 L56.8438,87.5469 L54.5,107.469 L59.8906,107.469 L62.2344,87.5469 L78.0781,87.5469 L78.0781,81.7969 L62.9531,81.7969 L65.2031,63.3438 L80.4219,63.3438 L80.4219,57.5781 L65.75,57.5781 L68,39.7344 L62.7813,39.7344 L60.4375,57.5781 L43.4219,57.5781 L45.6719,39.7344 L40.375,39.7344 L38.0313,57.5781 L22.375,57.5781 L22.375,63.3438 L37.4844,63.3438 L35.2344,81.7969 L19.9375,81.7969 L19.9375,87.5469 L34.5156,87.5469 L32.0938,107.469 M40.5469,81.7969 L42.7969,63.3438 L59.8125,63.3438 L57.5625,81.7969 L40.5469,81.7969"/>
</g>

<g fill="#000000" fill-opacity="1" stroke="none" transform="matrix(1,0,0,1,0,0)"
font-family="Noto Sans CJK JP" font-size="90" font-weight="400" font-style="normal" 
>
<path vector-effect="none" fill-rule="evenodd" d="M32.0938,107.469 L37.4844,107.469 L39.9219,87.5469 L56.8438,87.5469 L54.5,107.469 L59.8906,107.469 L62.2344,87.5469 L78.0781,87.5469 L78.0781,81.7969 L62.9531,81.7969 L65.2031,63.3438 L80.4219,63.3438 L80.4219,57.5781 L65.75,57.5781 L68,39.7344 L62.7813,39.7344 L60.4375,57.5781 L43.4219,57.5781 L45.6719,39.7344 L40.375,39.7344 L38.0313,57.5781 L22.375,57.5781 L22.375,63.3438 L37.4844,63.3438 L35.2344,81.7969 L19.9375,81.7969 L19.9375,87.5469 L34.5156,87.5469 L32.0938,107.469 M40.5469,81.7969 L42.7969,63.3438 L59.8125,63.3438 L57.5625,81.7969 L40.5469,81.7969"/>
</g>
</g>
</svg>
