<?xml version="1.0" encoding="UTF-8" standalone="no"?>
<svg width="35.2778mm" height="45.8611mm"
 xmlns="http://www.w3.org/2000/svg" xmlns:xlink="http://www.w3.org/1999/xlink"  version="1.2" baseProfile="tiny">
<title>Qt SVG Document</title>
<desc>Generated with Qt</desc>
<defs>
</defs>
<g fill="none" stroke="black" stroke-width="1" fill-rule="evenodd" stroke-linecap="square" stroke-linejoin="bevel" >

<g fill="#c0c0c0" fill-opacity="1" stroke="none" transform="matrix(1,0,0,1,0,0)"
font-family="Noto Sans" font-size="10" font-weight="400" font-style="normal" 
>
<path vector-effect="none" fill-rule="evenodd" d="M1,6 C1,3.23858 3.23858,1 6,1 L95,1 C97.7614,1 100,3.23858 100,6 L100,125 C100,127.761 97.7614,130 95,130 L6,130 C3.23858,130 1,127.761 1,125 L1,6"/>
</g>

<g fill="none" stroke="#000000" stroke-opacity="1" stroke-width="2" stroke-linecap="square" stroke-linejoin="bevel" transform="matrix(1,0,0,1,0,0)"
font-family="Noto Sans" font-size="10" font-weight="400" font-style="normal" 
>
<path vector-effect="none" fill-rule="evenodd" d="M1,6 C1,3.23858 3.23858,1 6,1 L95,1 C97.7614,1 100,3.23858 100,6 L100,125 C100,127.761 97.7614,130 95,130 L6,130 C3.23858,130 1,127.761 1,125 L1,6"/>
</g>

<g fill="none" stroke="#000000" stroke-opacity="1" stroke-width="2" stroke-linecap="square" stroke-linejoin="bevel" transform="matrix(1,0,0,1,0,0)"
font-family="Noto Sans CJK JP" font-size="90" font-weight="400" font-style="normal" 
>
<path vector-effect="none" fill-rule="evenodd" d="M91.8438,72.875 C90.4063,65.6875 86.1719,55.0625 81.3125,47.0313 L75.6406,48.8438 C80.2344,56.9531 84.375,67.8438 85.7344,74.9531 L91.8438,72.875 M69.9844,32.6094 L63.4063,32.6094 L63.4063,79.7188 C63.4063,80.8906 62.9531,81.25 61.7813,81.25 C60.7031,81.3438 56.9219,81.3438 52.6094,81.25 C53.5938,82.9688 54.6719,85.8438 54.9531,87.5469 C60.9844,87.6406 64.5781,87.375 66.8281,86.375 C69.25,85.2188 69.9844,83.3281 69.9844,79.8125 L69.9844,32.6094 M50.0938,47.5781 C48.2031,57.5 44.9531,67.4844 40.2813,73.9688 C41.9063,74.6875 44.7813,76.2188 46.0313,77.2031 C50.5313,70.1875 54.2344,59.4688 56.4844,48.6563 L50.0938,47.5781 M43.0625,81.875 C41.2656,79.8125 33.625,71.8906 30.8281,69.5469 L30.8281,64.0625 L42.0781,64.0625 L42.0781,57.7656 L30.8281,57.7656 L30.8281,42.5313 C35.0625,41.5469 39.0156,40.2813 42.2656,38.9219 L37.6719,33.875 C31.0156,36.8594 19.2188,39.4688 9.14063,41.0938 C9.95313,42.625 10.8438,44.7813 11.2031,46.3125 C15.3438,45.6875 19.9375,44.9688 24.3438,44.0625 L24.3438,57.7656 L9.6875,57.7656 L9.6875,64.0625 L23.4531,64.0625 C19.8438,74.3281 13.6406,85.9375 7.96875,92.2344 C9.04688,93.8594 10.6719,96.4688 11.2969,98.375 C15.8906,92.875 20.6563,83.8594 24.3438,74.7656 L24.3438,114.594 L30.8281,114.594 L30.8281,76.0313 C33.8906,79.7188 37.5781,84.6719 39.0156,87.1875 L43.0625,81.875 M79.7031,76.5781 C74.3906,94.4063 62.0625,104.313 40.1875,108.641 C41.625,110.172 43.25,112.781 43.875,114.688 C67.0938,109.188 80.2344,98.0938 86.1719,78.2813 L79.7031,76.5781"/>
</g>

<g fill="#000000" fill-opacity="1" stroke="none" transform="matrix(1,0,0,1,0,0)"
font-family="Noto Sans CJK JP" font-size="90" font-weight="400" font-style="normal" 
>
<path vector-effect="none" fill-rule="evenodd" d="M91.8438,72.875 C90.4063,65.6875 86.1719,55.0625 81.3125,47.0313 L75.6406,48.8438 C80.2344,56.9531 84.375,67.8438 85.7344,74.9531 L91.8438,72.875 M69.9844,32.6094 L63.4063,32.6094 L63.4063,79.7188 C63.4063,80.8906 62.9531,81.25 61.7813,81.25 C60.7031,81.3438 56.9219,81.3438 52.6094,81.25 C53.5938,82.9688 54.6719,85.8438 54.9531,87.5469 C60.9844,87.6406 64.5781,87.375 66.8281,86.375 C69.25,85.2188 69.9844,83.3281 69.9844,79.8125 L69.9844,32.6094 M50.0938,47.5781 C48.2031,57.5 44.9531,67.4844 40.2813,73.9688 C41.9063,74.6875 44.7813,76.2188 46.0313,77.2031 C50.5313,70.1875 54.2344,59.4688 56.4844,48.6563 L50.0938,47.5781 M43.0625,81.875 C41.2656,79.8125 33.625,71.8906 30.8281,69.5469 L30.8281,64.0625 L42.0781,64.0625 L42.0781,57.7656 L30.8281,57.7656 L30.8281,42.5313 C35.0625,41.5469 39.0156,40.2813 42.2656,38.9219 L37.6719,33.875 C31.0156,36.8594 19.2188,39.4688 9.14063,41.0938 C9.95313,42.625 10.8438,44.7813 11.2031,46.3125 C15.3438,45.6875 19.9375,44.9688 24.3438,44.0625 L24.3438,57.7656 L9.6875,57.7656 L9.6875,64.0625 L23.4531,64.0625 C19.8438,74.3281 13.6406,85.9375 7.96875,92.2344 C9.04688,93.8594 10.6719,96.4688 11.2969,98.375 C15.8906,92.875 20.6563,83.8594 24.3438,74.7656 L24.3438,114.594 L30.8281,114.594 L30.8281,76.0313 C33.8906,79.7188 37.5781,84.6719 39.0156,87.1875 L43.0625,81.875 M79.7031,76.5781 C74.3906,94.4063 62.0625,104.313 40.1875,108.641 C41.625,110.172 43.25,112.781 43.875,114.688 C67.0938,109.188 80.2344,98.0938 86.1719,78.2813 L79.7031,76.5781"/>
</g>
</g>
</svg>
