<?xml version="1.0" encoding="UTF-8" standalone="no"?>
<svg width="35.2778mm" height="45.8611mm"
 xmlns="http://www.w3.org/2000/svg" xmlns:xlink="http://www.w3.org/1999/xlink"  version="1.2" baseProfile="tiny">
<title>Qt SVG Document</title>
<desc>Generated with Qt</desc>
<defs>
</defs>
<g fill="none" stroke="black" stroke-width="1" fill-rule="evenodd" stroke-linecap="square" stroke-linejoin="bevel" >

<g fill="#c0c0c0" fill-opacity="1" stroke="none" transform="matrix(1,0,0,1,0,0)"
font-family="Noto Sans" font-size="10" font-weight="400" font-style="normal" 
>
<path vector-effect="none" fill-rule="evenodd" d="M1,6 C1,3.23858 3.23858,1 6,1 L95,1 C97.7614,1 100,3.23858 100,6 L100,125 C100,127.761 97.7614,130 95,130 L6,130 C3.23858,130 1,127.761 1,125 L1,6"/>
</g>

<g fill="none" stroke="#000000" stroke-opacity="1" stroke-width="2" stroke-linecap="square" stroke-linejoin="bevel" transform="matrix(1,0,0,1,0,0)"
font-family="Noto Sans" font-size="10" font-weight="400" font-style="normal" 
>
<path vector-effect="none" fill-rule="evenodd" d="M1,6 C1,3.23858 3.23858,1 6,1 L95,1 C97.7614,1 100,3.23858 100,6 L100,125 C100,127.761 97.7614,130 95,130 L6,130 C3.23858,130 1,127.761 1,125 L1,6"/>
</g>

<g fill="none" stroke="#000000" stroke-opacity="1" stroke-width="2" stroke-linecap="square" stroke-linejoin="bevel" transform="matrix(1,0,0,1,0,0)"
font-family="Noto Sans CJK JP" font-size="90" font-weight="400" font-style="normal" 
>
<path vector-effect="none" fill-rule="evenodd" d="M46.8438,33.875 L46.8438,105.453 C46.8438,107.266 46.125,107.891 44.2344,107.891 C42.5313,107.984 36.0469,108.078 29.4844,107.797 C30.5625,109.688 31.8125,112.844 32.2656,114.734 C40.6406,114.828 46.2188,114.641 49.4531,113.563 C52.6094,112.391 53.9531,110.406 53.9531,105.453 L53.9531,33.875 L46.8438,33.875 M68.3594,56.5625 C76,69.4375 83.2031,86.1875 85.3594,96.8125 L92.3906,93.8438 C90.1406,83.0313 82.5781,66.7344 74.6563,54.1406 L68.3594,56.5625 M23.3594,54.7656 C21.2031,66.8281 16.25,82.3125 8.23438,91.7656 C10.0469,92.5 12.9219,94.1094 14.5469,95.2813 C22.6406,85.2813 27.8594,69.1719 30.7344,56.1094 L23.3594,54.7656"/>
</g>

<g fill="#000000" fill-opacity="1" stroke="none" transform="matrix(1,0,0,1,0,0)"
font-family="Noto Sans CJK JP" font-size="90" font-weight="400" font-style="normal" 
>
<path vector-effect="none" fill-rule="evenodd" d="M46.8438,33.875 L46.8438,105.453 C46.8438,107.266 46.125,107.891 44.2344,107.891 C42.5313,107.984 36.0469,108.078 29.4844,107.797 C30.5625,109.688 31.8125,112.844 32.2656,114.734 C40.6406,114.828 46.2188,114.641 49.4531,113.563 C52.6094,112.391 53.9531,110.406 53.9531,105.453 L53.9531,33.875 L46.8438,33.875 M68.3594,56.5625 C76,69.4375 83.2031,86.1875 85.3594,96.8125 L92.3906,93.8438 C90.1406,83.0313 82.5781,66.7344 74.6563,54.1406 L68.3594,56.5625 M23.3594,54.7656 C21.2031,66.8281 16.25,82.3125 8.23438,91.7656 C10.0469,92.5 12.9219,94.1094 14.5469,95.2813 C22.6406,85.2813 27.8594,69.1719 30.7344,56.1094 L23.3594,54.7656"/>
</g>
</g>
</svg>
