<?xml version="1.0" encoding="UTF-8" standalone="no"?>
<svg width="35.2778mm" height="45.8611mm"
 xmlns="http://www.w3.org/2000/svg" xmlns:xlink="http://www.w3.org/1999/xlink"  version="1.2" baseProfile="tiny">
<title>Qt SVG Document</title>
<desc>Generated with Qt</desc>
<defs>
</defs>
<g fill="none" stroke="black" stroke-width="1" fill-rule="evenodd" stroke-linecap="square" stroke-linejoin="bevel" >

<g fill="#c0c0c0" fill-opacity="1" stroke="none" transform="matrix(1,0,0,1,0,0)"
font-family="Noto Sans" font-size="10" font-weight="400" font-style="normal" 
>
<path vector-effect="none" fill-rule="evenodd" d="M1,6 C1,3.23858 3.23858,1 6,1 L95,1 C97.7614,1 100,3.23858 100,6 L100,125 C100,127.761 97.7614,130 95,130 L6,130 C3.23858,130 1,127.761 1,125 L1,6"/>
</g>

<g fill="none" stroke="#000000" stroke-opacity="1" stroke-width="2" stroke-linecap="square" stroke-linejoin="bevel" transform="matrix(1,0,0,1,0,0)"
font-family="Noto Sans" font-size="10" font-weight="400" font-style="normal" 
>
<path vector-effect="none" fill-rule="evenodd" d="M1,6 C1,3.23858 3.23858,1 6,1 L95,1 C97.7614,1 100,3.23858 100,6 L100,125 C100,127.761 97.7614,130 95,130 L6,130 C3.23858,130 1,127.761 1,125 L1,6"/>
</g>

<g fill="none" stroke="#000000" stroke-opacity="1" stroke-width="2" stroke-linecap="square" stroke-linejoin="bevel" transform="matrix(1,0,0,1,0,0)"
font-family="Noto Sans CJK JP" font-size="90" font-weight="400" font-style="normal" 
>
<path vector-effect="none" fill-rule="evenodd" d="M50,58.9375 C53.5938,58.9375 56.8438,56.3281 56.8438,52.1875 C56.8438,48.0469 53.5938,45.4375 50,45.4375 C46.3906,45.4375 43.1563,48.0469 43.1563,52.1875 C43.1563,56.3281 46.3906,58.9375 50,58.9375 M50,103.031 C53.5938,103.031 56.8438,100.328 56.8438,96.2813 C56.8438,92.1406 53.5938,89.4375 50,89.4375 C46.3906,89.4375 43.1563,92.1406 43.1563,96.2813 C43.1563,100.328 46.3906,103.031 50,103.031 "/>
</g>

<g fill="#000000" fill-opacity="1" stroke="none" transform="matrix(1,0,0,1,0,0)"
font-family="Noto Sans CJK JP" font-size="90" font-weight="400" font-style="normal" 
>
<path vector-effect="none" fill-rule="evenodd" d="M50,58.9375 C53.5938,58.9375 56.8438,56.3281 56.8438,52.1875 C56.8438,48.0469 53.5938,45.4375 50,45.4375 C46.3906,45.4375 43.1563,48.0469 43.1563,52.1875 C43.1563,56.3281 46.3906,58.9375 50,58.9375 M50,103.031 C53.5938,103.031 56.8438,100.328 56.8438,96.2813 C56.8438,92.1406 53.5938,89.4375 50,89.4375 C46.3906,89.4375 43.1563,92.1406 43.1563,96.2813 C43.1563,100.328 46.3906,103.031 50,103.031 "/>
</g>
</g>
</svg>
