<?xml version="1.0" encoding="UTF-8" standalone="no"?>
<svg width="35.2778mm" height="45.8611mm"
 xmlns="http://www.w3.org/2000/svg" xmlns:xlink="http://www.w3.org/1999/xlink"  version="1.2" baseProfile="tiny">
<title>Qt SVG Document</title>
<desc>Generated with Qt</desc>
<defs>
</defs>
<g fill="none" stroke="black" stroke-width="1" fill-rule="evenodd" stroke-linecap="square" stroke-linejoin="bevel" >

<g fill="#c0c0c0" fill-opacity="1" stroke="none" transform="matrix(1,0,0,1,0,0)"
font-family="Noto Sans" font-size="10" font-weight="400" font-style="normal" 
>
<path vector-effect="none" fill-rule="evenodd" d="M1,6 C1,3.23858 3.23858,1 6,1 L95,1 C97.7614,1 100,3.23858 100,6 L100,125 C100,127.761 97.7614,130 95,130 L6,130 C3.23858,130 1,127.761 1,125 L1,6"/>
</g>

<g fill="none" stroke="#000000" stroke-opacity="1" stroke-width="2" stroke-linecap="square" stroke-linejoin="bevel" transform="matrix(1,0,0,1,0,0)"
font-family="Noto Sans" font-size="10" font-weight="400" font-style="normal" 
>
<path vector-effect="none" fill-rule="evenodd" d="M1,6 C1,3.23858 3.23858,1 6,1 L95,1 C97.7614,1 100,3.23858 100,6 L100,125 C100,127.761 97.7614,130 95,130 L6,130 C3.23858,130 1,127.761 1,125 L1,6"/>
</g>

<g fill="none" stroke="#000000" stroke-opacity="1" stroke-width="2" stroke-linecap="square" stroke-linejoin="bevel" transform="matrix(1,0,0,1,0,0)"
font-family="Noto Sans CJK JP" font-size="90" font-weight="400" font-style="normal" 
>
<path vector-effect="none" fill-rule="evenodd" d="M36.4063,53.7188 C37.7656,50.4688 38.9219,47.2188 39.8281,44.6094 C40.4531,42.7188 41.2656,40.375 42.0781,38.2969 L33.4375,36.5781 C33.2656,39.2031 32.7188,41.625 32.0938,43.7969 C31.0938,47.2188 29.4844,51.9063 26.9531,56.4063 C23.9063,61.9063 17.4219,71.0938 10.9375,75.7813 L18.0469,80 C23.3594,75.6875 29.3906,67.4844 33.0781,60.7344 L56.125,60.7344 C54.8594,83.6094 45.1406,95.4063 36.3125,102.078 C34.3438,103.688 31.5469,105.219 29.0313,106.219 L36.6719,111.438 C52.1563,101.531 62.2344,86.5 63.6719,60.7344 L78.8906,60.7344 C80.9531,60.7344 84.4688,60.8281 87.3438,61 L87.3438,53.2656 C84.7344,53.625 81.1406,53.7188 78.8906,53.7188 L36.4063,53.7188"/>
</g>

<g fill="#000000" fill-opacity="1" stroke="none" transform="matrix(1,0,0,1,0,0)"
font-family="Noto Sans CJK JP" font-size="90" font-weight="400" font-style="normal" 
>
<path vector-effect="none" fill-rule="evenodd" d="M36.4063,53.7188 C37.7656,50.4688 38.9219,47.2188 39.8281,44.6094 C40.4531,42.7188 41.2656,40.375 42.0781,38.2969 L33.4375,36.5781 C33.2656,39.2031 32.7188,41.625 32.0938,43.7969 C31.0938,47.2188 29.4844,51.9063 26.9531,56.4063 C23.9063,61.9063 17.4219,71.0938 10.9375,75.7813 L18.0469,80 C23.3594,75.6875 29.3906,67.4844 33.0781,60.7344 L56.125,60.7344 C54.8594,83.6094 45.1406,95.4063 36.3125,102.078 C34.3438,103.688 31.5469,105.219 29.0313,106.219 L36.6719,111.438 C52.1563,101.531 62.2344,86.5 63.6719,60.7344 L78.8906,60.7344 C80.9531,60.7344 84.4688,60.8281 87.3438,61 L87.3438,53.2656 C84.7344,53.625 81.1406,53.7188 78.8906,53.7188 L36.4063,53.7188"/>
</g>
</g>
</svg>
