<?xml version="1.0" encoding="UTF-8" standalone="no"?>
<svg width="35.2778mm" height="45.8611mm"
 xmlns="http://www.w3.org/2000/svg" xmlns:xlink="http://www.w3.org/1999/xlink"  version="1.2" baseProfile="tiny">
<title>Qt SVG Document</title>
<desc>Generated with Qt</desc>
<defs>
</defs>
<g fill="none" stroke="black" stroke-width="1" fill-rule="evenodd" stroke-linecap="square" stroke-linejoin="bevel" >

<g fill="#c0c0c0" fill-opacity="1" stroke="none" transform="matrix(1,0,0,1,0,0)"
font-family="Noto Sans" font-size="10" font-weight="400" font-style="normal" 
>
<path vector-effect="none" fill-rule="evenodd" d="M1,6 C1,3.23858 3.23858,1 6,1 L95,1 C97.7614,1 100,3.23858 100,6 L100,125 C100,127.761 97.7614,130 95,130 L6,130 C3.23858,130 1,127.761 1,125 L1,6"/>
</g>

<g fill="none" stroke="#000000" stroke-opacity="1" stroke-width="2" stroke-linecap="square" stroke-linejoin="bevel" transform="matrix(1,0,0,1,0,0)"
font-family="Noto Sans" font-size="10" font-weight="400" font-style="normal" 
>
<path vector-effect="none" fill-rule="evenodd" d="M1,6 C1,3.23858 3.23858,1 6,1 L95,1 C97.7614,1 100,3.23858 100,6 L100,125 C100,127.761 97.7614,130 95,130 L6,130 C3.23858,130 1,127.761 1,125 L1,6"/>
</g>

<g fill="none" stroke="#000000" stroke-opacity="1" stroke-width="2" stroke-linecap="square" stroke-linejoin="bevel" transform="matrix(1,0,0,1,0,0)"
font-family="Noto Sans CJK JP" font-size="90" font-weight="400" font-style="normal" 
>
<path vector-effect="none" fill-rule="evenodd" d="M27.6719,107.891 L37.2188,107.891 L45.3125,81.7031 C46.8438,76.9375 48.2813,72.3438 49.6406,67.3906 L50.0938,67.3906 C51.625,72.3438 52.875,76.8438 54.3125,81.5156 L62.7813,107.891 L72.7656,107.891 L88.1563,58.8438 L80.3281,58.8438 L71.6875,87.2813 C70.3438,91.875 69.1719,96.375 67.9063,100.875 L67.4531,100.875 C66.1094,96.375 64.8438,91.9688 63.3125,87.2813 L54.1406,58.8438 L46.125,58.8438 L37.125,87.4688 C35.7813,92.0469 34.4219,96.375 33.1719,100.875 L32.625,100.875 C31.4531,96.375 30.1094,91.9688 28.9375,87.2813 L20.0313,58.8438 L11.6563,58.8438 L27.6719,107.891"/>
</g>

<g fill="#000000" fill-opacity="1" stroke="none" transform="matrix(1,0,0,1,0,0)"
font-family="Noto Sans CJK JP" font-size="90" font-weight="400" font-style="normal" 
>
<path vector-effect="none" fill-rule="evenodd" d="M27.6719,107.891 L37.2188,107.891 L45.3125,81.7031 C46.8438,76.9375 48.2813,72.3438 49.6406,67.3906 L50.0938,67.3906 C51.625,72.3438 52.875,76.8438 54.3125,81.5156 L62.7813,107.891 L72.7656,107.891 L88.1563,58.8438 L80.3281,58.8438 L71.6875,87.2813 C70.3438,91.875 69.1719,96.375 67.9063,100.875 L67.4531,100.875 C66.1094,96.375 64.8438,91.9688 63.3125,87.2813 L54.1406,58.8438 L46.125,58.8438 L37.125,87.4688 C35.7813,92.0469 34.4219,96.375 33.1719,100.875 L32.625,100.875 C31.4531,96.375 30.1094,91.9688 28.9375,87.2813 L20.0313,58.8438 L11.6563,58.8438 L27.6719,107.891"/>
</g>
</g>
</svg>
