<?xml version="1.0" encoding="UTF-8" standalone="no"?>
<svg width="35.2778mm" height="45.8611mm"
 xmlns="http://www.w3.org/2000/svg" xmlns:xlink="http://www.w3.org/1999/xlink"  version="1.2" baseProfile="tiny">
<title>Qt SVG Document</title>
<desc>Generated with Qt</desc>
<defs>
</defs>
<g fill="none" stroke="black" stroke-width="1" fill-rule="evenodd" stroke-linecap="square" stroke-linejoin="bevel" >

<g fill="#c0c0c0" fill-opacity="1" stroke="none" transform="matrix(1,0,0,1,0,0)"
font-family="Noto Sans" font-size="10" font-weight="400" font-style="normal" 
>
<path vector-effect="none" fill-rule="evenodd" d="M1,6 C1,3.23858 3.23858,1 6,1 L95,1 C97.7614,1 100,3.23858 100,6 L100,125 C100,127.761 97.7614,130 95,130 L6,130 C3.23858,130 1,127.761 1,125 L1,6"/>
</g>

<g fill="none" stroke="#000000" stroke-opacity="1" stroke-width="2" stroke-linecap="square" stroke-linejoin="bevel" transform="matrix(1,0,0,1,0,0)"
font-family="Noto Sans" font-size="10" font-weight="400" font-style="normal" 
>
<path vector-effect="none" fill-rule="evenodd" d="M1,6 C1,3.23858 3.23858,1 6,1 L95,1 C97.7614,1 100,3.23858 100,6 L100,125 C100,127.761 97.7614,130 95,130 L6,130 C3.23858,130 1,127.761 1,125 L1,6"/>
</g>

<g fill="none" stroke="#000000" stroke-opacity="1" stroke-width="2" stroke-linecap="square" stroke-linejoin="bevel" transform="matrix(1,0,0,1,0,0)"
font-family="Noto Sans CJK JP" font-size="90" font-weight="400" font-style="normal" 
>
<path vector-effect="none" fill-rule="evenodd" d="M29.5625,80.3594 C30.2813,75.0469 30.5625,69.9063 30.5625,65.2344 L71.6875,65.2344 L71.6875,80.3594 L29.5625,80.3594 M71.6875,43.9063 L71.6875,58.8438 L30.5625,58.8438 L30.5625,43.9063 L71.6875,43.9063 M78.6094,37.3281 L23.8125,37.3281 L23.8125,64.875 C23.8125,79.1875 22.375,97.4531 8.0625,110.047 C9.40625,111.047 12.1094,113.469 13.0156,114.922 C21.7344,107.266 26.2344,97.0938 28.4844,86.9219 L71.6875,86.9219 L71.6875,104.922 C71.6875,106.906 70.9688,107.531 68.8906,107.625 C66.8281,107.625 59.625,107.703 52.0625,107.438 C53.2344,109.328 54.5,112.484 54.9531,114.375 C64.5781,114.375 70.5156,114.281 73.9375,113.109 C77.2656,112.031 78.6094,109.688 78.6094,105.016 L78.6094,37.3281"/>
</g>

<g fill="#000000" fill-opacity="1" stroke="none" transform="matrix(1,0,0,1,0,0)"
font-family="Noto Sans CJK JP" font-size="90" font-weight="400" font-style="normal" 
>
<path vector-effect="none" fill-rule="evenodd" d="M29.5625,80.3594 C30.2813,75.0469 30.5625,69.9063 30.5625,65.2344 L71.6875,65.2344 L71.6875,80.3594 L29.5625,80.3594 M71.6875,43.9063 L71.6875,58.8438 L30.5625,58.8438 L30.5625,43.9063 L71.6875,43.9063 M78.6094,37.3281 L23.8125,37.3281 L23.8125,64.875 C23.8125,79.1875 22.375,97.4531 8.0625,110.047 C9.40625,111.047 12.1094,113.469 13.0156,114.922 C21.7344,107.266 26.2344,97.0938 28.4844,86.9219 L71.6875,86.9219 L71.6875,104.922 C71.6875,106.906 70.9688,107.531 68.8906,107.625 C66.8281,107.625 59.625,107.703 52.0625,107.438 C53.2344,109.328 54.5,112.484 54.9531,114.375 C64.5781,114.375 70.5156,114.281 73.9375,113.109 C77.2656,112.031 78.6094,109.688 78.6094,105.016 L78.6094,37.3281"/>
</g>
</g>
</svg>
