<?xml version="1.0" encoding="UTF-8" standalone="no"?>
<svg width="35.2778mm" height="45.8611mm"
 xmlns="http://www.w3.org/2000/svg" xmlns:xlink="http://www.w3.org/1999/xlink"  version="1.2" baseProfile="tiny">
<title>Qt SVG Document</title>
<desc>Generated with Qt</desc>
<defs>
</defs>
<g fill="none" stroke="black" stroke-width="1" fill-rule="evenodd" stroke-linecap="square" stroke-linejoin="bevel" >

<g fill="#c0c0c0" fill-opacity="1" stroke="none" transform="matrix(1,0,0,1,0,0)"
font-family="Noto Sans" font-size="10" font-weight="400" font-style="normal" 
>
<path vector-effect="none" fill-rule="evenodd" d="M1,6 C1,3.23858 3.23858,1 6,1 L95,1 C97.7614,1 100,3.23858 100,6 L100,125 C100,127.761 97.7614,130 95,130 L6,130 C3.23858,130 1,127.761 1,125 L1,6"/>
</g>

<g fill="none" stroke="#000000" stroke-opacity="1" stroke-width="2" stroke-linecap="square" stroke-linejoin="bevel" transform="matrix(1,0,0,1,0,0)"
font-family="Noto Sans" font-size="10" font-weight="400" font-style="normal" 
>
<path vector-effect="none" fill-rule="evenodd" d="M1,6 C1,3.23858 3.23858,1 6,1 L95,1 C97.7614,1 100,3.23858 100,6 L100,125 C100,127.761 97.7614,130 95,130 L6,130 C3.23858,130 1,127.761 1,125 L1,6"/>
</g>

<g fill="none" stroke="#000000" stroke-opacity="1" stroke-width="2" stroke-linecap="square" stroke-linejoin="bevel" transform="matrix(1,0,0,1,0,0)"
font-family="Noto Sans CJK JP" font-size="90" font-weight="400" font-style="normal" 
>
<path vector-effect="none" fill-rule="evenodd" d="M77.625,46.6094 C76.0938,47.2344 74.125,47.5 71.6875,47.5 L47.125,47.5 C47.8438,46.3281 48.4688,45.25 49.0156,44.1719 C49.9063,42.4531 51.5313,39.3906 52.9688,37.0469 L44.875,34.4219 C44.2344,36.7656 42.8906,40.0156 41.9844,41.6406 C37.9375,49.8438 28.5781,63.3438 13.0938,72.8906 L19.125,77.5781 C29.2031,70.7344 37.2188,61.9063 42.9844,53.8906 L73.5781,53.8906 C71.875,61.0156 67.4531,70.2813 61.9688,77.9375 C54.9531,73.7031 47.3906,69.3906 42.1719,66.6875 L37.5781,72 C42.625,74.7813 50.1719,79.2969 57.2813,83.875 C49.0938,92.8906 37.4063,101.531 21.7344,106.313 L28.2188,111.891 C44.0625,106.031 55.3906,97.2188 63.5,87.9375 C66.9219,90.2813 69.8906,92.4375 72.0469,94.1563 L77,87.6719 C74.75,86.0469 71.6875,83.9688 68.2656,81.8125 C74.5625,72.9844 79.1563,62.9844 81.4063,55.0625 C81.9531,53.625 82.75,51.4688 83.4844,50.2031 L77.625,46.6094"/>
</g>

<g fill="#000000" fill-opacity="1" stroke="none" transform="matrix(1,0,0,1,0,0)"
font-family="Noto Sans CJK JP" font-size="90" font-weight="400" font-style="normal" 
>
<path vector-effect="none" fill-rule="evenodd" d="M77.625,46.6094 C76.0938,47.2344 74.125,47.5 71.6875,47.5 L47.125,47.5 C47.8438,46.3281 48.4688,45.25 49.0156,44.1719 C49.9063,42.4531 51.5313,39.3906 52.9688,37.0469 L44.875,34.4219 C44.2344,36.7656 42.8906,40.0156 41.9844,41.6406 C37.9375,49.8438 28.5781,63.3438 13.0938,72.8906 L19.125,77.5781 C29.2031,70.7344 37.2188,61.9063 42.9844,53.8906 L73.5781,53.8906 C71.875,61.0156 67.4531,70.2813 61.9688,77.9375 C54.9531,73.7031 47.3906,69.3906 42.1719,66.6875 L37.5781,72 C42.625,74.7813 50.1719,79.2969 57.2813,83.875 C49.0938,92.8906 37.4063,101.531 21.7344,106.313 L28.2188,111.891 C44.0625,106.031 55.3906,97.2188 63.5,87.9375 C66.9219,90.2813 69.8906,92.4375 72.0469,94.1563 L77,87.6719 C74.75,86.0469 71.6875,83.9688 68.2656,81.8125 C74.5625,72.9844 79.1563,62.9844 81.4063,55.0625 C81.9531,53.625 82.75,51.4688 83.4844,50.2031 L77.625,46.6094"/>
</g>
</g>
</svg>
