<?xml version="1.0" encoding="UTF-8" standalone="no"?>
<svg width="35.2778mm" height="45.8611mm"
 xmlns="http://www.w3.org/2000/svg" xmlns:xlink="http://www.w3.org/1999/xlink"  version="1.2" baseProfile="tiny">
<title>Qt SVG Document</title>
<desc>Generated with Qt</desc>
<defs>
</defs>
<g fill="none" stroke="black" stroke-width="1" fill-rule="evenodd" stroke-linecap="square" stroke-linejoin="bevel" >

<g fill="#c0c0c0" fill-opacity="1" stroke="none" transform="matrix(1,0,0,1,0,0)"
font-family="Noto Sans" font-size="10" font-weight="400" font-style="normal" 
>
<path vector-effect="none" fill-rule="evenodd" d="M1,6 C1,3.23858 3.23858,1 6,1 L95,1 C97.7614,1 100,3.23858 100,6 L100,125 C100,127.761 97.7614,130 95,130 L6,130 C3.23858,130 1,127.761 1,125 L1,6"/>
</g>

<g fill="none" stroke="#000000" stroke-opacity="1" stroke-width="2" stroke-linecap="square" stroke-linejoin="bevel" transform="matrix(1,0,0,1,0,0)"
font-family="Noto Sans" font-size="10" font-weight="400" font-style="normal" 
>
<path vector-effect="none" fill-rule="evenodd" d="M1,6 C1,3.23858 3.23858,1 6,1 L95,1 C97.7614,1 100,3.23858 100,6 L100,125 C100,127.761 97.7614,130 95,130 L6,130 C3.23858,130 1,127.761 1,125 L1,6"/>
</g>

<g fill="none" stroke="#000000" stroke-opacity="1" stroke-width="2" stroke-linecap="square" stroke-linejoin="bevel" transform="matrix(1,0,0,1,0,0)"
font-family="Noto Sans CJK JP" font-size="90" font-weight="400" font-style="normal" 
>
<path vector-effect="none" fill-rule="evenodd" d="M58.2813,95.7344 C58.1875,91.4219 58.0938,83.8594 58.0156,78.7344 C64.75,75.5781 71.1406,72.9688 76.1875,70.9844 C78.5313,70.0938 81.7656,68.8281 84.0156,68.2031 L81.1406,61.4531 C78.6094,62.7188 76.4531,63.7969 73.75,64.9688 C69.0781,67.125 63.6719,69.2813 57.5625,72.1563 C56.2031,66.8594 51.5313,64.0625 45.7656,64.0625 C41.8125,64.0625 36.6719,65.3281 33.4375,67.3906 C36.6719,63.25 39.4688,58.2969 41.4531,53.7188 C51.1719,53.3594 62.1406,52.5469 70.9688,51.1875 L71.0625,44.5313 C62.5938,45.9688 52.875,46.7813 43.7813,47.2344 C45.0469,43.1719 45.8594,39.4688 46.4844,36.9531 L39.1094,36.3125 C38.9219,39.3906 38.125,43.4375 36.8594,47.4063 C34.7813,47.5 32.9063,47.5 31.0156,47.5 C26.9531,47.5 20.75,47.1406 15.9844,46.6094 L15.9844,53.3594 C20.8438,53.7188 26.875,53.8906 30.6563,53.8906 L34.3438,53.8906 C31.0156,60.9063 25.1563,70.0938 13.8125,81.0781 L19.9375,85.6563 C23,82.0625 25.5156,78.7344 28.0469,76.2969 C32.1719,72.6094 37.5781,69.7344 43.4219,69.7344 C47.2969,69.7344 50.5313,71.5313 51.4375,75.2188 C41.0938,80.625 30.4688,87.2813 30.4688,97.8125 C30.4688,108.703 40.7344,111.406 53.5156,111.406 C61.25,111.406 71.1406,110.766 77.8906,109.953 L78.0781,102.672 C70.25,104.016 60.7031,104.828 53.7813,104.828 C44.5938,104.828 37.6719,103.844 37.6719,96.8281 C37.6719,90.9688 43.4219,86.375 51.7031,81.875 C51.7031,86.5625 51.625,92.3281 51.3438,95.7344 L58.2813,95.7344"/>
</g>

<g fill="#000000" fill-opacity="1" stroke="none" transform="matrix(1,0,0,1,0,0)"
font-family="Noto Sans CJK JP" font-size="90" font-weight="400" font-style="normal" 
>
<path vector-effect="none" fill-rule="evenodd" d="M58.2813,95.7344 C58.1875,91.4219 58.0938,83.8594 58.0156,78.7344 C64.75,75.5781 71.1406,72.9688 76.1875,70.9844 C78.5313,70.0938 81.7656,68.8281 84.0156,68.2031 L81.1406,61.4531 C78.6094,62.7188 76.4531,63.7969 73.75,64.9688 C69.0781,67.125 63.6719,69.2813 57.5625,72.1563 C56.2031,66.8594 51.5313,64.0625 45.7656,64.0625 C41.8125,64.0625 36.6719,65.3281 33.4375,67.3906 C36.6719,63.25 39.4688,58.2969 41.4531,53.7188 C51.1719,53.3594 62.1406,52.5469 70.9688,51.1875 L71.0625,44.5313 C62.5938,45.9688 52.875,46.7813 43.7813,47.2344 C45.0469,43.1719 45.8594,39.4688 46.4844,36.9531 L39.1094,36.3125 C38.9219,39.3906 38.125,43.4375 36.8594,47.4063 C34.7813,47.5 32.9063,47.5 31.0156,47.5 C26.9531,47.5 20.75,47.1406 15.9844,46.6094 L15.9844,53.3594 C20.8438,53.7188 26.875,53.8906 30.6563,53.8906 L34.3438,53.8906 C31.0156,60.9063 25.1563,70.0938 13.8125,81.0781 L19.9375,85.6563 C23,82.0625 25.5156,78.7344 28.0469,76.2969 C32.1719,72.6094 37.5781,69.7344 43.4219,69.7344 C47.2969,69.7344 50.5313,71.5313 51.4375,75.2188 C41.0938,80.625 30.4688,87.2813 30.4688,97.8125 C30.4688,108.703 40.7344,111.406 53.5156,111.406 C61.25,111.406 71.1406,110.766 77.8906,109.953 L78.0781,102.672 C70.25,104.016 60.7031,104.828 53.7813,104.828 C44.5938,104.828 37.6719,103.844 37.6719,96.8281 C37.6719,90.9688 43.4219,86.375 51.7031,81.875 C51.7031,86.5625 51.625,92.3281 51.3438,95.7344 L58.2813,95.7344"/>
</g>
</g>
</svg>
