<?xml version="1.0" encoding="UTF-8" standalone="no"?>
<svg width="35.2778mm" height="45.8611mm"
 xmlns="http://www.w3.org/2000/svg" xmlns:xlink="http://www.w3.org/1999/xlink"  version="1.2" baseProfile="tiny">
<title>Qt SVG Document</title>
<desc>Generated with Qt</desc>
<defs>
</defs>
<g fill="none" stroke="black" stroke-width="1" fill-rule="evenodd" stroke-linecap="square" stroke-linejoin="bevel" >

<g fill="#c0c0c0" fill-opacity="1" stroke="none" transform="matrix(1,0,0,1,0,0)"
font-family="Noto Sans" font-size="10" font-weight="400" font-style="normal" 
>
<path vector-effect="none" fill-rule="evenodd" d="M1,6 C1,3.23858 3.23858,1 6,1 L95,1 C97.7614,1 100,3.23858 100,6 L100,125 C100,127.761 97.7614,130 95,130 L6,130 C3.23858,130 1,127.761 1,125 L1,6"/>
</g>

<g fill="none" stroke="#000000" stroke-opacity="1" stroke-width="2" stroke-linecap="square" stroke-linejoin="bevel" transform="matrix(1,0,0,1,0,0)"
font-family="Noto Sans" font-size="10" font-weight="400" font-style="normal" 
>
<path vector-effect="none" fill-rule="evenodd" d="M1,6 C1,3.23858 3.23858,1 6,1 L95,1 C97.7614,1 100,3.23858 100,6 L100,125 C100,127.761 97.7614,130 95,130 L6,130 C3.23858,130 1,127.761 1,125 L1,6"/>
</g>

<g fill="none" stroke="#000000" stroke-opacity="1" stroke-width="2" stroke-linecap="square" stroke-linejoin="bevel" transform="matrix(1,0,0,1,0,0)"
font-family="Noto Sans CJK JP" font-size="90" font-weight="400" font-style="normal" 
>
<path vector-effect="none" fill-rule="evenodd" d="M49.7344,108.969 C62.2344,108.969 72.5938,101.953 72.5938,90.3438 C72.5938,81.25 66.375,75.0469 58.0938,73.4219 L58.0938,73.0625 C65.9219,70.9063 70.7031,65.2344 70.7031,57.3125 C70.7031,47.5 62.5,40.6563 49.4531,40.6563 C40.2813,40.6563 32.7188,44.625 26.4219,50.75 L30.9219,55.7813 C36.1406,50.2969 42.4375,47.5 49.1875,47.5 C57.9219,47.5 62.7813,52 62.7813,58.2188 C62.7813,64.6094 56.4844,70.5469 41.7188,70.5469 L41.7188,76.8438 C58.0938,76.8438 64.5781,81.9688 64.5781,89.8906 C64.5781,97.4531 57.8281,102.125 49.2813,102.125 C40.5469,102.125 33.8906,98.3438 28.9375,92.5938 L24.625,97.8125 C29.6563,103.938 37.5781,108.969 49.7344,108.969 "/>
</g>

<g fill="#000000" fill-opacity="1" stroke="none" transform="matrix(1,0,0,1,0,0)"
font-family="Noto Sans CJK JP" font-size="90" font-weight="400" font-style="normal" 
>
<path vector-effect="none" fill-rule="evenodd" d="M49.7344,108.969 C62.2344,108.969 72.5938,101.953 72.5938,90.3438 C72.5938,81.25 66.375,75.0469 58.0938,73.4219 L58.0938,73.0625 C65.9219,70.9063 70.7031,65.2344 70.7031,57.3125 C70.7031,47.5 62.5,40.6563 49.4531,40.6563 C40.2813,40.6563 32.7188,44.625 26.4219,50.75 L30.9219,55.7813 C36.1406,50.2969 42.4375,47.5 49.1875,47.5 C57.9219,47.5 62.7813,52 62.7813,58.2188 C62.7813,64.6094 56.4844,70.5469 41.7188,70.5469 L41.7188,76.8438 C58.0938,76.8438 64.5781,81.9688 64.5781,89.8906 C64.5781,97.4531 57.8281,102.125 49.2813,102.125 C40.5469,102.125 33.8906,98.3438 28.9375,92.5938 L24.625,97.8125 C29.6563,103.938 37.5781,108.969 49.7344,108.969 "/>
</g>
</g>
</svg>
