<?xml version="1.0" encoding="UTF-8" standalone="no"?>
<svg width="35.2778mm" height="45.8611mm"
 xmlns="http://www.w3.org/2000/svg" xmlns:xlink="http://www.w3.org/1999/xlink"  version="1.2" baseProfile="tiny">
<title>Qt SVG Document</title>
<desc>Generated with Qt</desc>
<defs>
</defs>
<g fill="none" stroke="black" stroke-width="1" fill-rule="evenodd" stroke-linecap="square" stroke-linejoin="bevel" >

<g fill="#c0c0c0" fill-opacity="1" stroke="none" transform="matrix(1,0,0,1,0,0)"
font-family="Noto Sans" font-size="10" font-weight="400" font-style="normal" 
>
<path vector-effect="none" fill-rule="evenodd" d="M1,6 C1,3.23858 3.23858,1 6,1 L95,1 C97.7614,1 100,3.23858 100,6 L100,125 C100,127.761 97.7614,130 95,130 L6,130 C3.23858,130 1,127.761 1,125 L1,6"/>
</g>

<g fill="none" stroke="#000000" stroke-opacity="1" stroke-width="2" stroke-linecap="square" stroke-linejoin="bevel" transform="matrix(1,0,0,1,0,0)"
font-family="Noto Sans" font-size="10" font-weight="400" font-style="normal" 
>
<path vector-effect="none" fill-rule="evenodd" d="M1,6 C1,3.23858 3.23858,1 6,1 L95,1 C97.7614,1 100,3.23858 100,6 L100,125 C100,127.761 97.7614,130 95,130 L6,130 C3.23858,130 1,127.761 1,125 L1,6"/>
</g>

<g fill="none" stroke="#000000" stroke-opacity="1" stroke-width="2" stroke-linecap="square" stroke-linejoin="bevel" transform="matrix(1,0,0,1,0,0)"
font-family="Noto Sans CJK JP" font-size="90" font-weight="400" font-style="normal" 
>
<path vector-effect="none" fill-rule="evenodd" d="M33.1719,73.6719 C44.4219,70.7969 60.7969,65.6563 70.9688,61.6094 C73.6719,60.625 76.9063,59.1719 79.5156,58.0938 L76.3594,50.7969 C73.75,52.4219 71.1406,53.7813 68.4531,54.9375 C59.0938,59 44.0625,63.6875 33.1719,66.2969 L33.1719,45.9375 C33.1719,43.4219 33.4375,40.7188 33.7031,38.6406 L25.3438,38.6406 C25.7031,40.7188 25.875,43.7813 25.875,45.9375 L25.875,95.4688 C25.875,102.766 29.75,105.906 36.5938,107.172 C40.375,107.797 45.6719,108.078 51.0781,108.078 C60.8906,108.078 74.3906,107.344 82.2188,106.188 L82.2188,97.9844 C74.6563,99.9688 60.8906,100.875 51.3438,100.875 C46.9375,100.875 42.3438,100.594 39.4688,100.156 C35.1563,99.25 33.1719,98.0781 33.1719,93.4844 L33.1719,73.6719"/>
</g>

<g fill="#000000" fill-opacity="1" stroke="none" transform="matrix(1,0,0,1,0,0)"
font-family="Noto Sans CJK JP" font-size="90" font-weight="400" font-style="normal" 
>
<path vector-effect="none" fill-rule="evenodd" d="M33.1719,73.6719 C44.4219,70.7969 60.7969,65.6563 70.9688,61.6094 C73.6719,60.625 76.9063,59.1719 79.5156,58.0938 L76.3594,50.7969 C73.75,52.4219 71.1406,53.7813 68.4531,54.9375 C59.0938,59 44.0625,63.6875 33.1719,66.2969 L33.1719,45.9375 C33.1719,43.4219 33.4375,40.7188 33.7031,38.6406 L25.3438,38.6406 C25.7031,40.7188 25.875,43.7813 25.875,45.9375 L25.875,95.4688 C25.875,102.766 29.75,105.906 36.5938,107.172 C40.375,107.797 45.6719,108.078 51.0781,108.078 C60.8906,108.078 74.3906,107.344 82.2188,106.188 L82.2188,97.9844 C74.6563,99.9688 60.8906,100.875 51.3438,100.875 C46.9375,100.875 42.3438,100.594 39.4688,100.156 C35.1563,99.25 33.1719,98.0781 33.1719,93.4844 L33.1719,73.6719"/>
</g>
</g>
</svg>
