<?xml version="1.0" encoding="UTF-8" standalone="no"?>
<svg width="35.2778mm" height="45.8611mm"
 xmlns="http://www.w3.org/2000/svg" xmlns:xlink="http://www.w3.org/1999/xlink"  version="1.2" baseProfile="tiny">
<title>Qt SVG Document</title>
<desc>Generated with Qt</desc>
<defs>
</defs>
<g fill="none" stroke="black" stroke-width="1" fill-rule="evenodd" stroke-linecap="square" stroke-linejoin="bevel" >

<g fill="#c0c0c0" fill-opacity="1" stroke="none" transform="matrix(1,0,0,1,0,0)"
font-family="Noto Sans" font-size="10" font-weight="400" font-style="normal" 
>
<path vector-effect="none" fill-rule="evenodd" d="M1,6 C1,3.23858 3.23858,1 6,1 L95,1 C97.7614,1 100,3.23858 100,6 L100,125 C100,127.761 97.7614,130 95,130 L6,130 C3.23858,130 1,127.761 1,125 L1,6"/>
</g>

<g fill="none" stroke="#000000" stroke-opacity="1" stroke-width="2" stroke-linecap="square" stroke-linejoin="bevel" transform="matrix(1,0,0,1,0,0)"
font-family="Noto Sans" font-size="10" font-weight="400" font-style="normal" 
>
<path vector-effect="none" fill-rule="evenodd" d="M1,6 C1,3.23858 3.23858,1 6,1 L95,1 C97.7614,1 100,3.23858 100,6 L100,125 C100,127.761 97.7614,130 95,130 L6,130 C3.23858,130 1,127.761 1,125 L1,6"/>
</g>

<g fill="none" stroke="#000000" stroke-opacity="1" stroke-width="2" stroke-linecap="square" stroke-linejoin="bevel" transform="matrix(1,0,0,1,0,0)"
font-family="Noto Sans CJK JP" font-size="90" font-weight="400" font-style="normal" 
>
<path vector-effect="none" fill-rule="evenodd" d="M54.8594,62.9531 C58.1875,60.625 63.1406,56.6563 65.2969,54.8594 L63.5938,50.1719 C58.2813,46.2969 48.4688,41.3438 41.625,38.4688 L37.4063,43.7813 C44.2344,46.6563 52.5156,50.9844 56.4844,54.1406 C55.125,55.2969 52.6094,57.1094 50.2656,58.6406 L54.8594,62.9531 M34.1563,108.703 C38.125,109.422 43.0625,110.047 48.6406,110.047 C55.125,110.047 64.0313,107.531 64.0313,96.6406 C64.0313,88.5313 58.1875,80.6094 49.8125,71.875 C47.75,69.625 45.5,67.1875 43.3438,65.0313 L37.8438,69.625 C40.375,71.7813 43.0625,74.3906 45.0469,76.375 C49.9063,81.5938 56.4844,89.7969 56.4844,95.8281 C56.4844,101.594 51.625,103.203 47.5625,103.203 C41.9844,103.203 37.6719,102.484 33.1719,101.141 L34.1563,108.703 M91.125,100.953 C88.3438,93.125 81.6719,80.3438 75.5625,73.1406 L69.5313,76.4688 C75.6406,83.4063 81.9531,96.0938 84.4688,104.563 L91.125,100.953 M36.2344,87.2656 L32,81.875 C26.875,87.3594 16.5156,95.375 9.14063,99.3438 L13.4531,105.281 C22.0938,100.156 31.0156,92.6719 36.2344,87.2656 "/>
</g>

<g fill="#000000" fill-opacity="1" stroke="none" transform="matrix(1,0,0,1,0,0)"
font-family="Noto Sans CJK JP" font-size="90" font-weight="400" font-style="normal" 
>
<path vector-effect="none" fill-rule="evenodd" d="M54.8594,62.9531 C58.1875,60.625 63.1406,56.6563 65.2969,54.8594 L63.5938,50.1719 C58.2813,46.2969 48.4688,41.3438 41.625,38.4688 L37.4063,43.7813 C44.2344,46.6563 52.5156,50.9844 56.4844,54.1406 C55.125,55.2969 52.6094,57.1094 50.2656,58.6406 L54.8594,62.9531 M34.1563,108.703 C38.125,109.422 43.0625,110.047 48.6406,110.047 C55.125,110.047 64.0313,107.531 64.0313,96.6406 C64.0313,88.5313 58.1875,80.6094 49.8125,71.875 C47.75,69.625 45.5,67.1875 43.3438,65.0313 L37.8438,69.625 C40.375,71.7813 43.0625,74.3906 45.0469,76.375 C49.9063,81.5938 56.4844,89.7969 56.4844,95.8281 C56.4844,101.594 51.625,103.203 47.5625,103.203 C41.9844,103.203 37.6719,102.484 33.1719,101.141 L34.1563,108.703 M91.125,100.953 C88.3438,93.125 81.6719,80.3438 75.5625,73.1406 L69.5313,76.4688 C75.6406,83.4063 81.9531,96.0938 84.4688,104.563 L91.125,100.953 M36.2344,87.2656 L32,81.875 C26.875,87.3594 16.5156,95.375 9.14063,99.3438 L13.4531,105.281 C22.0938,100.156 31.0156,92.6719 36.2344,87.2656 "/>
</g>
</g>
</svg>
