<?xml version="1.0" encoding="UTF-8" standalone="no"?>
<svg width="52.9167mm" height="45.8611mm"
 xmlns="http://www.w3.org/2000/svg" xmlns:xlink="http://www.w3.org/1999/xlink"  version="1.2" baseProfile="tiny">
<title>Qt SVG Document</title>
<desc>Generated with Qt</desc>
<defs>
</defs>
<g fill="none" stroke="black" stroke-width="1" fill-rule="evenodd" stroke-linecap="square" stroke-linejoin="bevel" >

<g fill="#808080" fill-opacity="1" stroke="none" transform="matrix(1,0,0,1,0,0)"
font-family="Noto Sans" font-size="10" font-weight="400" font-style="normal" 
>
<path vector-effect="none" fill-rule="evenodd" d="M1,6 C1,3.23858 3.23858,1 6,1 L145,1 C147.761,1 150,3.23858 150,6 L150,125 C150,127.761 147.761,130 145,130 L6,130 C3.23858,130 1,127.761 1,125 L1,6"/>
</g>

<g fill="none" stroke="#000000" stroke-opacity="1" stroke-width="2" stroke-linecap="square" stroke-linejoin="bevel" transform="matrix(1,0,0,1,0,0)"
font-family="Noto Sans" font-size="10" font-weight="400" font-style="normal" 
>
<path vector-effect="none" fill-rule="evenodd" d="M1,6 C1,3.23858 3.23858,1 6,1 L145,1 C147.761,1 150,3.23858 150,6 L150,125 C150,127.761 147.761,130 145,130 L6,130 C3.23858,130 1,127.761 1,125 L1,6"/>
</g>

<g fill="none" stroke="#000000" stroke-opacity="1" stroke-width="2" stroke-linecap="square" stroke-linejoin="bevel" transform="matrix(1,0,0,1,0,0)"
font-family="Noto Sans CJK JP" font-size="72" font-weight="400" font-style="normal" 
>
<path vector-effect="none" fill-rule="evenodd" d="M25.7188,94.8906 L32.4219,94.8906 L32.4219,47.7188 L48.4063,47.7188 L48.4063,42.1094 L9.73438,42.1094 L9.73438,47.7188 L25.7188,47.7188 L25.7188,94.8906 M61.1406,73.4375 L63.7344,65.375 C65.6094,59.3906 67.3438,53.7031 69,47.5156 L69.2813,47.5156 C71.0156,53.625 72.6719,59.3906 74.6094,65.375 L77.125,73.4375 L61.1406,73.4375 M83.8281,94.8906 L90.875,94.8906 L72.9531,42.1094 L65.5313,42.1094 L47.6094,94.8906 L54.375,94.8906 L59.4844,78.7656 L78.7813,78.7656 L83.8281,94.8906 M98.2969,94.8906 L115.141,94.8906 C126.953,94.8906 135.156,89.7813 135.156,79.4063 C135.156,72.2031 130.703,68.0313 124.359,66.8125 L124.359,66.4531 C129.328,64.8594 132.141,60.25 132.141,55 C132.141,45.7031 124.719,42.1094 113.984,42.1094 L98.2969,42.1094 L98.2969,94.8906 M104.984,64.5781 L104.984,47.3594 L113.125,47.3594 C121.344,47.3594 125.578,49.6719 125.578,55.8594 C125.578,61.1875 121.906,64.5781 112.844,64.5781 L104.984,64.5781 M104.984,89.5625 L104.984,69.6875 L114.203,69.6875 C123.422,69.6875 128.609,72.6406 128.609,79.1875 C128.609,86.3281 123.281,89.5625 114.203,89.5625 L104.984,89.5625"/>
</g>

<g fill="#ffffff" fill-opacity="1" stroke="none" transform="matrix(1,0,0,1,0,0)"
font-family="Noto Sans CJK JP" font-size="72" font-weight="400" font-style="normal" 
>
<path vector-effect="none" fill-rule="evenodd" d="M25.7188,94.8906 L32.4219,94.8906 L32.4219,47.7188 L48.4063,47.7188 L48.4063,42.1094 L9.73438,42.1094 L9.73438,47.7188 L25.7188,47.7188 L25.7188,94.8906 M61.1406,73.4375 L63.7344,65.375 C65.6094,59.3906 67.3438,53.7031 69,47.5156 L69.2813,47.5156 C71.0156,53.625 72.6719,59.3906 74.6094,65.375 L77.125,73.4375 L61.1406,73.4375 M83.8281,94.8906 L90.875,94.8906 L72.9531,42.1094 L65.5313,42.1094 L47.6094,94.8906 L54.375,94.8906 L59.4844,78.7656 L78.7813,78.7656 L83.8281,94.8906 M98.2969,94.8906 L115.141,94.8906 C126.953,94.8906 135.156,89.7813 135.156,79.4063 C135.156,72.2031 130.703,68.0313 124.359,66.8125 L124.359,66.4531 C129.328,64.8594 132.141,60.25 132.141,55 C132.141,45.7031 124.719,42.1094 113.984,42.1094 L98.2969,42.1094 L98.2969,94.8906 M104.984,64.5781 L104.984,47.3594 L113.125,47.3594 C121.344,47.3594 125.578,49.6719 125.578,55.8594 C125.578,61.1875 121.906,64.5781 112.844,64.5781 L104.984,64.5781 M104.984,89.5625 L104.984,69.6875 L114.203,69.6875 C123.422,69.6875 128.609,72.6406 128.609,79.1875 C128.609,86.3281 123.281,89.5625 114.203,89.5625 L104.984,89.5625"/>
</g>
</g>
</svg>
