<?xml version="1.0" encoding="UTF-8" standalone="no"?>
<svg width="70.5556mm" height="45.8611mm"
 xmlns="http://www.w3.org/2000/svg" xmlns:xlink="http://www.w3.org/1999/xlink"  version="1.2" baseProfile="tiny">
<title>Qt SVG Document</title>
<desc>Generated with Qt</desc>
<defs>
</defs>
<g fill="none" stroke="black" stroke-width="1" fill-rule="evenodd" stroke-linecap="square" stroke-linejoin="bevel" >

<g fill="#808080" fill-opacity="1" stroke="none" transform="matrix(1,0,0,1,0,0)"
font-family="Noto Sans" font-size="10" font-weight="400" font-style="normal" 
>
<path vector-effect="none" fill-rule="evenodd" d="M1,6 C1,3.23858 3.23858,1 6,1 L195,1 C197.761,1 200,3.23858 200,6 L200,125 C200,127.761 197.761,130 195,130 L6,130 C3.23858,130 1,127.761 1,125 L1,6"/>
</g>

<g fill="none" stroke="#000000" stroke-opacity="1" stroke-width="2" stroke-linecap="square" stroke-linejoin="bevel" transform="matrix(1,0,0,1,0,0)"
font-family="Noto Sans" font-size="10" font-weight="400" font-style="normal" 
>
<path vector-effect="none" fill-rule="evenodd" d="M1,6 C1,3.23858 3.23858,1 6,1 L195,1 C197.761,1 200,3.23858 200,6 L200,125 C200,127.761 197.761,130 195,130 L6,130 C3.23858,130 1,127.761 1,125 L1,6"/>
</g>

<g fill="none" stroke="#000000" stroke-opacity="1" stroke-width="2" stroke-linecap="square" stroke-linejoin="bevel" transform="matrix(1,0,0,1,0,0)"
font-family="Noto Sans CJK JP" font-size="90" font-weight="400" font-style="normal" 
>
<path vector-effect="none" fill-rule="evenodd" d="M36.8125,101.391 L45.0938,101.391 L45.0938,71.875 L73.5313,71.875 L73.5313,64.7656 L45.0938,64.7656 L45.0938,42.3594 L80.2031,42.3594 L80.2031,35.25 L36.8125,35.25 L36.8125,101.391 M145.156,102.469 C160.188,102.469 168.734,94.5469 168.734,84.9219 C168.734,77.4531 164.609,72.4063 156.406,68.3594 L156.406,68 C163.156,63.2344 166.406,57.8281 166.406,51.4375 C166.313,41.8125 158.297,34.1563 144.984,34.1563 C132.469,34.1563 123.75,41.5469 123.828,51.5313 C123.828,57.8281 127.078,62.6875 133.547,66.1094 L133.547,66.4688 C125.719,70.6094 121.047,76.2813 121.047,84.5625 C121.047,94.4531 130.141,102.469 145.156,102.469 M151.016,65.9375 C140.656,63.0469 131.391,59.7188 131.391,51.5313 C131.391,45.3281 136.969,40.2813 144.719,40.2813 C154.156,40.2813 159.109,46.2188 159.109,52.1563 C159.203,57.0156 157.406,60.9844 151.016,65.9375 M145.438,96.4375 C135.266,96.4375 128.688,90.7656 128.688,83.8438 C128.688,77.8125 132.109,73.2188 138.953,69.2656 C151.109,72.7656 160.641,76.0156 160.641,84.6563 C160.641,91.0469 155.156,96.4375 145.438,96.4375 "/>
</g>

<g fill="#ffffff" fill-opacity="1" stroke="none" transform="matrix(1,0,0,1,0,0)"
font-family="Noto Sans CJK JP" font-size="90" font-weight="400" font-style="normal" 
>
<path vector-effect="none" fill-rule="evenodd" d="M36.8125,101.391 L45.0938,101.391 L45.0938,71.875 L73.5313,71.875 L73.5313,64.7656 L45.0938,64.7656 L45.0938,42.3594 L80.2031,42.3594 L80.2031,35.25 L36.8125,35.25 L36.8125,101.391 M145.156,102.469 C160.188,102.469 168.734,94.5469 168.734,84.9219 C168.734,77.4531 164.609,72.4063 156.406,68.3594 L156.406,68 C163.156,63.2344 166.406,57.8281 166.406,51.4375 C166.313,41.8125 158.297,34.1563 144.984,34.1563 C132.469,34.1563 123.75,41.5469 123.828,51.5313 C123.828,57.8281 127.078,62.6875 133.547,66.1094 L133.547,66.4688 C125.719,70.6094 121.047,76.2813 121.047,84.5625 C121.047,94.4531 130.141,102.469 145.156,102.469 M151.016,65.9375 C140.656,63.0469 131.391,59.7188 131.391,51.5313 C131.391,45.3281 136.969,40.2813 144.719,40.2813 C154.156,40.2813 159.109,46.2188 159.109,52.1563 C159.203,57.0156 157.406,60.9844 151.016,65.9375 M145.438,96.4375 C135.266,96.4375 128.688,90.7656 128.688,83.8438 C128.688,77.8125 132.109,73.2188 138.953,69.2656 C151.109,72.7656 160.641,76.0156 160.641,84.6563 C160.641,91.0469 155.156,96.4375 145.438,96.4375 "/>
</g>
</g>
</svg>
