<?xml version="1.0" encoding="UTF-8" standalone="no"?>
<svg width="35.2778mm" height="45.8611mm"
 xmlns="http://www.w3.org/2000/svg" xmlns:xlink="http://www.w3.org/1999/xlink"  version="1.2" baseProfile="tiny">
<title>Qt SVG Document</title>
<desc>Generated with Qt</desc>
<defs>
</defs>
<g fill="none" stroke="black" stroke-width="1" fill-rule="evenodd" stroke-linecap="square" stroke-linejoin="bevel" >

<g fill="#c0c0c0" fill-opacity="1" stroke="none" transform="matrix(1,0,0,1,0,0)"
font-family="Noto Sans" font-size="10" font-weight="400" font-style="normal" 
>
<path vector-effect="none" fill-rule="evenodd" d="M1,6 C1,3.23858 3.23858,1 6,1 L95,1 C97.7614,1 100,3.23858 100,6 L100,125 C100,127.761 97.7614,130 95,130 L6,130 C3.23858,130 1,127.761 1,125 L1,6"/>
</g>

<g fill="none" stroke="#000000" stroke-opacity="1" stroke-width="2" stroke-linecap="square" stroke-linejoin="bevel" transform="matrix(1,0,0,1,0,0)"
font-family="Noto Sans" font-size="10" font-weight="400" font-style="normal" 
>
<path vector-effect="none" fill-rule="evenodd" d="M1,6 C1,3.23858 3.23858,1 6,1 L95,1 C97.7614,1 100,3.23858 100,6 L100,125 C100,127.761 97.7614,130 95,130 L6,130 C3.23858,130 1,127.761 1,125 L1,6"/>
</g>

<g fill="none" stroke="#000000" stroke-opacity="1" stroke-width="2" stroke-linecap="square" stroke-linejoin="bevel" transform="matrix(1,0,0,1,0,0)"
font-family="Noto Sans CJK JP" font-size="90" font-weight="400" font-style="normal" 
>
<path vector-effect="none" fill-rule="evenodd" d="M53.5156,96.6406 L53.5156,55.25 L75.1094,55.25 C77.625,55.25 80.5,55.3281 82.75,55.6094 L82.75,47.6875 C80.5938,47.9531 77.8125,48.2188 75.1094,48.2188 L25.6094,48.2188 C23.8125,48.2188 20.3906,48.0469 18.0469,47.6875 L18.0469,55.6094 C20.2969,55.3281 23.9063,55.25 25.6094,55.25 L45.8594,55.25 L45.8594,96.6406 L20.4844,96.6406 C18.0469,96.6406 15.2656,96.4688 12.5625,96.0938 L12.5625,104.297 C15.3438,104.016 18.0469,103.938 20.4844,103.938 L79.9688,103.938 C81.7656,103.938 85,103.938 87.4375,104.297 L87.4375,96.0938 C85.0938,96.375 82.6719,96.6406 79.9688,96.6406 L53.5156,96.6406"/>
</g>

<g fill="#000000" fill-opacity="1" stroke="none" transform="matrix(1,0,0,1,0,0)"
font-family="Noto Sans CJK JP" font-size="90" font-weight="400" font-style="normal" 
>
<path vector-effect="none" fill-rule="evenodd" d="M53.5156,96.6406 L53.5156,55.25 L75.1094,55.25 C77.625,55.25 80.5,55.3281 82.75,55.6094 L82.75,47.6875 C80.5938,47.9531 77.8125,48.2188 75.1094,48.2188 L25.6094,48.2188 C23.8125,48.2188 20.3906,48.0469 18.0469,47.6875 L18.0469,55.6094 C20.2969,55.3281 23.9063,55.25 25.6094,55.25 L45.8594,55.25 L45.8594,96.6406 L20.4844,96.6406 C18.0469,96.6406 15.2656,96.4688 12.5625,96.0938 L12.5625,104.297 C15.3438,104.016 18.0469,103.938 20.4844,103.938 L79.9688,103.938 C81.7656,103.938 85,103.938 87.4375,104.297 L87.4375,96.0938 C85.0938,96.375 82.6719,96.6406 79.9688,96.6406 L53.5156,96.6406"/>
</g>
</g>
</svg>
