<?xml version="1.0" encoding="UTF-8" standalone="no"?>
<svg width="52.9167mm" height="45.8611mm"
 xmlns="http://www.w3.org/2000/svg" xmlns:xlink="http://www.w3.org/1999/xlink"  version="1.2" baseProfile="tiny">
<title>Qt SVG Document</title>
<desc>Generated with Qt</desc>
<defs>
</defs>
<g fill="none" stroke="black" stroke-width="1" fill-rule="evenodd" stroke-linecap="square" stroke-linejoin="bevel" >

<g fill="#808080" fill-opacity="1" stroke="none" transform="matrix(1,0,0,1,0,0)"
font-family="Noto Sans" font-size="10" font-weight="400" font-style="normal" 
>
<path vector-effect="none" fill-rule="evenodd" d="M1,6 C1,3.23858 3.23858,1 6,1 L145,1 C147.761,1 150,3.23858 150,6 L150,125 C150,127.761 147.761,130 145,130 L6,130 C3.23858,130 1,127.761 1,125 L1,6"/>
</g>

<g fill="none" stroke="#000000" stroke-opacity="1" stroke-width="2" stroke-linecap="square" stroke-linejoin="bevel" transform="matrix(1,0,0,1,0,0)"
font-family="Noto Sans" font-size="10" font-weight="400" font-style="normal" 
>
<path vector-effect="none" fill-rule="evenodd" d="M1,6 C1,3.23858 3.23858,1 6,1 L145,1 C147.761,1 150,3.23858 150,6 L150,125 C150,127.761 147.761,130 145,130 L6,130 C3.23858,130 1,127.761 1,125 L1,6"/>
</g>

<g fill="none" stroke="#000000" stroke-opacity="1" stroke-width="2" stroke-linecap="square" stroke-linejoin="bevel" transform="matrix(1,0,0,1,0,0)"
font-family="Noto Sans CJK JP" font-size="72" font-weight="400" font-style="normal" 
>
<path vector-effect="none" fill-rule="evenodd" d="M14.7031,94.8906 L28.2344,94.8906 C44.1563,94.8906 52.8594,85.0313 52.8594,68.3281 C52.8594,51.5469 44.1563,42.1094 27.9531,42.1094 L14.7031,42.1094 L14.7031,94.8906 M21.3906,89.4219 L21.3906,47.5156 L27.375,47.5156 C39.8281,47.5156 45.9531,54.9219 45.9531,68.3281 C45.9531,81.6406 39.8281,89.4219 27.375,89.4219 L21.3906,89.4219 M64.1563,94.8906 L95.4063,94.8906 L95.4063,89.2031 L70.8438,89.2031 L70.8438,69.9688 L90.875,69.9688 L90.875,64.2813 L70.8438,64.2813 L70.8438,47.7188 L94.6094,47.7188 L94.6094,42.1094 L64.1563,42.1094 L64.1563,94.8906 M106.484,94.8906 L136.219,94.8906 L136.219,89.2031 L113.172,89.2031 L113.172,42.1094 L106.484,42.1094 L106.484,94.8906"/>
</g>

<g fill="#ffffff" fill-opacity="1" stroke="none" transform="matrix(1,0,0,1,0,0)"
font-family="Noto Sans CJK JP" font-size="72" font-weight="400" font-style="normal" 
>
<path vector-effect="none" fill-rule="evenodd" d="M14.7031,94.8906 L28.2344,94.8906 C44.1563,94.8906 52.8594,85.0313 52.8594,68.3281 C52.8594,51.5469 44.1563,42.1094 27.9531,42.1094 L14.7031,42.1094 L14.7031,94.8906 M21.3906,89.4219 L21.3906,47.5156 L27.375,47.5156 C39.8281,47.5156 45.9531,54.9219 45.9531,68.3281 C45.9531,81.6406 39.8281,89.4219 27.375,89.4219 L21.3906,89.4219 M64.1563,94.8906 L95.4063,94.8906 L95.4063,89.2031 L70.8438,89.2031 L70.8438,69.9688 L90.875,69.9688 L90.875,64.2813 L70.8438,64.2813 L70.8438,47.7188 L94.6094,47.7188 L94.6094,42.1094 L64.1563,42.1094 L64.1563,94.8906 M106.484,94.8906 L136.219,94.8906 L136.219,89.2031 L113.172,89.2031 L113.172,42.1094 L106.484,42.1094 L106.484,94.8906"/>
</g>
</g>
</svg>
