<?xml version="1.0" encoding="UTF-8" standalone="no"?>
<svg width="35.2778mm" height="45.8611mm"
 xmlns="http://www.w3.org/2000/svg" xmlns:xlink="http://www.w3.org/1999/xlink"  version="1.2" baseProfile="tiny">
<title>Qt SVG Document</title>
<desc>Generated with Qt</desc>
<defs>
</defs>
<g fill="none" stroke="black" stroke-width="1" fill-rule="evenodd" stroke-linecap="square" stroke-linejoin="bevel" >

<g fill="#808080" fill-opacity="1" stroke="none" transform="matrix(1,0,0,1,0,0)"
font-family="Noto Sans" font-size="10" font-weight="400" font-style="normal" 
>
<path vector-effect="none" fill-rule="evenodd" d="M1,6 C1,3.23858 3.23858,1 6,1 L95,1 C97.7614,1 100,3.23858 100,6 L100,125 C100,127.761 97.7614,130 95,130 L6,130 C3.23858,130 1,127.761 1,125 L1,6"/>
</g>

<g fill="none" stroke="#000000" stroke-opacity="1" stroke-width="2" stroke-linecap="square" stroke-linejoin="bevel" transform="matrix(1,0,0,1,0,0)"
font-family="Noto Sans" font-size="10" font-weight="400" font-style="normal" 
>
<path vector-effect="none" fill-rule="evenodd" d="M1,6 C1,3.23858 3.23858,1 6,1 L95,1 C97.7614,1 100,3.23858 100,6 L100,125 C100,127.761 97.7614,130 95,130 L6,130 C3.23858,130 1,127.761 1,125 L1,6"/>
</g>

<g fill="none" stroke="#000000" stroke-opacity="1" stroke-width="2" stroke-linecap="square" stroke-linejoin="bevel" transform="matrix(1,0,0,1,0,0)"
font-family="Noto Sans CJK JP" font-size="36" font-weight="400" font-style="normal" 
>
<path vector-effect="none" fill-rule="evenodd" d="M47.625,52.1094 L47.625,49.6563 L19.8594,49.6563 C21.7031,48.25 24.0781,45.9844 25.7031,43.75 L23.5313,42.4844 C21.125,45.6563 17.5313,48.8281 14.3281,50.8906 C17.5313,52.9375 21.125,56.1094 23.5313,59.2813 L25.7031,58.0156 C24.0781,55.7813 21.7031,53.5156 19.8594,52.1094 L47.625,52.1094 M50.5,52.1094 L78.25,52.1094 C76.4219,53.5156 74.0469,55.7813 72.4219,58.0156 L74.5781,59.2813 C77,56.1094 80.5938,52.9375 83.7969,50.8906 C80.5938,48.8281 77,45.6563 74.5781,42.4844 L72.4219,43.75 C74.0469,45.9844 76.4219,48.25 78.25,49.6563 L50.5,49.6563 L50.5,52.1094 M8.59375,100.563 L11.9531,100.563 L11.9531,90.0938 L16.2969,90.0938 C22.0625,90.0938 26.0156,87.5 26.0156,81.9219 C26.0156,76.1563 22.0625,74.1719 16.125,74.1719 L8.59375,74.1719 L8.59375,100.563 M11.9531,87.3906 L11.9531,76.875 L15.7344,76.875 C20.375,76.875 22.7031,78.0938 22.7031,81.9219 C22.7031,85.7031 20.5156,87.3906 15.875,87.3906 L11.9531,87.3906 M32.6094,89.8281 L33.9063,85.7969 C34.8438,82.8125 35.7031,79.9688 36.5313,76.875 L36.6719,76.875 C37.5469,79.9375 38.375,82.8125 39.3438,85.7969 L40.5938,89.8281 L32.6094,89.8281 M43.9531,100.563 L47.4688,100.563 L38.5156,74.1719 L34.8125,74.1719 L25.8438,100.563 L29.2188,100.563 L31.7813,92.5 L41.4219,92.5 L43.9531,100.563 M61.1563,101.031 C64.7188,101.031 67.6406,99.7344 69.3281,97.9688 L69.3281,86.8906 L60.6875,86.8906 L60.6875,89.6563 L66.2656,89.6563 L66.2656,96.5625 C65.2188,97.5313 63.3906,98.1094 61.4844,98.1094 C55.8281,98.1094 52.6875,93.9375 52.6875,87.2813 C52.6875,80.6875 56.1563,76.5938 61.4375,76.5938 C64.1406,76.5938 65.8281,77.7031 67.1719,79.1094 L68.9688,76.9531 C67.4531,75.3281 65.0469,73.6719 61.375,73.6719 C54.3906,73.6719 49.2813,78.8594 49.2813,87.3906 C49.2813,95.9531 54.2031,101.031 61.1563,101.031 M75.5781,100.563 L91.2031,100.563 L91.2031,97.7188 L78.9375,97.7188 L78.9375,88.1094 L88.9375,88.1094 L88.9375,85.2656 L78.9375,85.2656 L78.9375,76.9844 L90.8125,76.9844 L90.8125,74.1719 L75.5781,74.1719 L75.5781,100.563"/>
</g>

<g fill="#ffffff" fill-opacity="1" stroke="none" transform="matrix(1,0,0,1,0,0)"
font-family="Noto Sans CJK JP" font-size="36" font-weight="400" font-style="normal" 
>
<path vector-effect="none" fill-rule="evenodd" d="M47.625,52.1094 L47.625,49.6563 L19.8594,49.6563 C21.7031,48.25 24.0781,45.9844 25.7031,43.75 L23.5313,42.4844 C21.125,45.6563 17.5313,48.8281 14.3281,50.8906 C17.5313,52.9375 21.125,56.1094 23.5313,59.2813 L25.7031,58.0156 C24.0781,55.7813 21.7031,53.5156 19.8594,52.1094 L47.625,52.1094 M50.5,52.1094 L78.25,52.1094 C76.4219,53.5156 74.0469,55.7813 72.4219,58.0156 L74.5781,59.2813 C77,56.1094 80.5938,52.9375 83.7969,50.8906 C80.5938,48.8281 77,45.6563 74.5781,42.4844 L72.4219,43.75 C74.0469,45.9844 76.4219,48.25 78.25,49.6563 L50.5,49.6563 L50.5,52.1094 M8.59375,100.563 L11.9531,100.563 L11.9531,90.0938 L16.2969,90.0938 C22.0625,90.0938 26.0156,87.5 26.0156,81.9219 C26.0156,76.1563 22.0625,74.1719 16.125,74.1719 L8.59375,74.1719 L8.59375,100.563 M11.9531,87.3906 L11.9531,76.875 L15.7344,76.875 C20.375,76.875 22.7031,78.0938 22.7031,81.9219 C22.7031,85.7031 20.5156,87.3906 15.875,87.3906 L11.9531,87.3906 M32.6094,89.8281 L33.9063,85.7969 C34.8438,82.8125 35.7031,79.9688 36.5313,76.875 L36.6719,76.875 C37.5469,79.9375 38.375,82.8125 39.3438,85.7969 L40.5938,89.8281 L32.6094,89.8281 M43.9531,100.563 L47.4688,100.563 L38.5156,74.1719 L34.8125,74.1719 L25.8438,100.563 L29.2188,100.563 L31.7813,92.5 L41.4219,92.5 L43.9531,100.563 M61.1563,101.031 C64.7188,101.031 67.6406,99.7344 69.3281,97.9688 L69.3281,86.8906 L60.6875,86.8906 L60.6875,89.6563 L66.2656,89.6563 L66.2656,96.5625 C65.2188,97.5313 63.3906,98.1094 61.4844,98.1094 C55.8281,98.1094 52.6875,93.9375 52.6875,87.2813 C52.6875,80.6875 56.1563,76.5938 61.4375,76.5938 C64.1406,76.5938 65.8281,77.7031 67.1719,79.1094 L68.9688,76.9531 C67.4531,75.3281 65.0469,73.6719 61.375,73.6719 C54.3906,73.6719 49.2813,78.8594 49.2813,87.3906 C49.2813,95.9531 54.2031,101.031 61.1563,101.031 M75.5781,100.563 L91.2031,100.563 L91.2031,97.7188 L78.9375,97.7188 L78.9375,88.1094 L88.9375,88.1094 L88.9375,85.2656 L78.9375,85.2656 L78.9375,76.9844 L90.8125,76.9844 L90.8125,74.1719 L75.5781,74.1719 L75.5781,100.563"/>
</g>
</g>
</svg>
