<?xml version="1.0" encoding="UTF-8" standalone="no"?>
<svg width="35.2778mm" height="45.8611mm"
 xmlns="http://www.w3.org/2000/svg" xmlns:xlink="http://www.w3.org/1999/xlink"  version="1.2" baseProfile="tiny">
<title>Qt SVG Document</title>
<desc>Generated with Qt</desc>
<defs>
</defs>
<g fill="none" stroke="black" stroke-width="1" fill-rule="evenodd" stroke-linecap="square" stroke-linejoin="bevel" >

<g fill="#c0c0c0" fill-opacity="1" stroke="none" transform="matrix(1,0,0,1,0,0)"
font-family="Noto Sans" font-size="10" font-weight="400" font-style="normal" 
>
<path vector-effect="none" fill-rule="evenodd" d="M1,6 C1,3.23858 3.23858,1 6,1 L95,1 C97.7614,1 100,3.23858 100,6 L100,125 C100,127.761 97.7614,130 95,130 L6,130 C3.23858,130 1,127.761 1,125 L1,6"/>
</g>

<g fill="none" stroke="#000000" stroke-opacity="1" stroke-width="2" stroke-linecap="square" stroke-linejoin="bevel" transform="matrix(1,0,0,1,0,0)"
font-family="Noto Sans" font-size="10" font-weight="400" font-style="normal" 
>
<path vector-effect="none" fill-rule="evenodd" d="M1,6 C1,3.23858 3.23858,1 6,1 L95,1 C97.7614,1 100,3.23858 100,6 L100,125 C100,127.761 97.7614,130 95,130 L6,130 C3.23858,130 1,127.761 1,125 L1,6"/>
</g>

<g fill="none" stroke="#000000" stroke-opacity="1" stroke-width="2" stroke-linecap="square" stroke-linejoin="bevel" transform="matrix(1,0,0,1,0,0)"
font-family="Noto Sans CJK JP" font-size="90" font-weight="400" font-style="normal" 
>
<path vector-effect="none" fill-rule="evenodd" d="M24.8906,40.2969 C25.0625,42.0156 25.25,45.1563 25.25,46.7813 L25.25,76.75 C25.25,79.4531 24.9844,82.3281 24.8906,83.6875 L33.1719,83.6875 C32.9844,82.0625 32.9063,79.0938 32.9063,76.8438 L32.9063,46.7813 C32.9063,44.625 32.9844,42.0156 33.1719,40.2969 L24.8906,40.2969 M66.5625,39.6719 C66.7344,41.8281 67,44.4375 67,47.4063 L67,61.625 C67,78.6406 65.9219,85.9375 59.4531,93.4063 C53.875,99.7031 46.125,103.297 37.8438,105.375 L43.7031,111.578 C50.2656,109.328 59.2656,105.453 65.125,98.4375 C71.5938,90.7031 74.4844,83.5938 74.4844,62 L74.4844,47.4063 C74.4844,44.4375 74.6563,41.8281 74.8438,39.6719 L66.5625,39.6719"/>
</g>

<g fill="#000000" fill-opacity="1" stroke="none" transform="matrix(1,0,0,1,0,0)"
font-family="Noto Sans CJK JP" font-size="90" font-weight="400" font-style="normal" 
>
<path vector-effect="none" fill-rule="evenodd" d="M24.8906,40.2969 C25.0625,42.0156 25.25,45.1563 25.25,46.7813 L25.25,76.75 C25.25,79.4531 24.9844,82.3281 24.8906,83.6875 L33.1719,83.6875 C32.9844,82.0625 32.9063,79.0938 32.9063,76.8438 L32.9063,46.7813 C32.9063,44.625 32.9844,42.0156 33.1719,40.2969 L24.8906,40.2969 M66.5625,39.6719 C66.7344,41.8281 67,44.4375 67,47.4063 L67,61.625 C67,78.6406 65.9219,85.9375 59.4531,93.4063 C53.875,99.7031 46.125,103.297 37.8438,105.375 L43.7031,111.578 C50.2656,109.328 59.2656,105.453 65.125,98.4375 C71.5938,90.7031 74.4844,83.5938 74.4844,62 L74.4844,47.4063 C74.4844,44.4375 74.6563,41.8281 74.8438,39.6719 L66.5625,39.6719"/>
</g>
</g>
</svg>
