<?xml version="1.0" encoding="UTF-8" standalone="no"?>
<svg width="35.2778mm" height="45.8611mm"
 xmlns="http://www.w3.org/2000/svg" xmlns:xlink="http://www.w3.org/1999/xlink"  version="1.2" baseProfile="tiny">
<title>Qt SVG Document</title>
<desc>Generated with Qt</desc>
<defs>
</defs>
<g fill="none" stroke="black" stroke-width="1" fill-rule="evenodd" stroke-linecap="square" stroke-linejoin="bevel" >

<g fill="#c0c0c0" fill-opacity="1" stroke="none" transform="matrix(1,0,0,1,0,0)"
font-family="Noto Sans" font-size="10" font-weight="400" font-style="normal" 
>
<path vector-effect="none" fill-rule="evenodd" d="M1,6 C1,3.23858 3.23858,1 6,1 L95,1 C97.7614,1 100,3.23858 100,6 L100,125 C100,127.761 97.7614,130 95,130 L6,130 C3.23858,130 1,127.761 1,125 L1,6"/>
</g>

<g fill="none" stroke="#000000" stroke-opacity="1" stroke-width="2" stroke-linecap="square" stroke-linejoin="bevel" transform="matrix(1,0,0,1,0,0)"
font-family="Noto Sans" font-size="10" font-weight="400" font-style="normal" 
>
<path vector-effect="none" fill-rule="evenodd" d="M1,6 C1,3.23858 3.23858,1 6,1 L95,1 C97.7614,1 100,3.23858 100,6 L100,125 C100,127.761 97.7614,130 95,130 L6,130 C3.23858,130 1,127.761 1,125 L1,6"/>
</g>

<g fill="none" stroke="#000000" stroke-opacity="1" stroke-width="2" stroke-linecap="square" stroke-linejoin="bevel" transform="matrix(1,0,0,1,0,0)"
font-family="Noto Sans CJK JP" font-size="90" font-weight="400" font-style="normal" 
>
<path vector-effect="none" fill-rule="evenodd" d="M25.4219,41.9219 L20.2969,47.4063 C26.9531,51.9063 38.2031,61.5469 42.7031,66.2188 L48.375,60.5469 C43.3438,55.5156 31.8125,46.1563 25.4219,41.9219 M17.6875,102.219 L22.4531,109.594 C37.4844,106.813 48.8281,101.328 57.8281,95.5625 C71.4219,87.0938 81.8594,74.8594 88.0625,63.6094 L83.75,55.9688 C78.5313,67.0313 67.5469,80.3594 53.6875,89.0781 C45.1406,94.3906 33.4375,99.875 17.6875,102.219 "/>
</g>

<g fill="#000000" fill-opacity="1" stroke="none" transform="matrix(1,0,0,1,0,0)"
font-family="Noto Sans CJK JP" font-size="90" font-weight="400" font-style="normal" 
>
<path vector-effect="none" fill-rule="evenodd" d="M25.4219,41.9219 L20.2969,47.4063 C26.9531,51.9063 38.2031,61.5469 42.7031,66.2188 L48.375,60.5469 C43.3438,55.5156 31.8125,46.1563 25.4219,41.9219 M17.6875,102.219 L22.4531,109.594 C37.4844,106.813 48.8281,101.328 57.8281,95.5625 C71.4219,87.0938 81.8594,74.8594 88.0625,63.6094 L83.75,55.9688 C78.5313,67.0313 67.5469,80.3594 53.6875,89.0781 C45.1406,94.3906 33.4375,99.875 17.6875,102.219 "/>
</g>
</g>
</svg>
