<?xml version="1.0" encoding="UTF-8" standalone="no"?>
<svg width="35.2778mm" height="45.8611mm"
 xmlns="http://www.w3.org/2000/svg" xmlns:xlink="http://www.w3.org/1999/xlink"  version="1.2" baseProfile="tiny">
<title>Qt SVG Document</title>
<desc>Generated with Qt</desc>
<defs>
</defs>
<g fill="none" stroke="black" stroke-width="1" fill-rule="evenodd" stroke-linecap="square" stroke-linejoin="bevel" >

<g fill="#c0c0c0" fill-opacity="1" stroke="none" transform="matrix(1,0,0,1,0,0)"
font-family="Noto Sans" font-size="10" font-weight="400" font-style="normal" 
>
<path vector-effect="none" fill-rule="evenodd" d="M1,6 C1,3.23858 3.23858,1 6,1 L95,1 C97.7614,1 100,3.23858 100,6 L100,125 C100,127.761 97.7614,130 95,130 L6,130 C3.23858,130 1,127.761 1,125 L1,6"/>
</g>

<g fill="none" stroke="#000000" stroke-opacity="1" stroke-width="2" stroke-linecap="square" stroke-linejoin="bevel" transform="matrix(1,0,0,1,0,0)"
font-family="Noto Sans" font-size="10" font-weight="400" font-style="normal" 
>
<path vector-effect="none" fill-rule="evenodd" d="M1,6 C1,3.23858 3.23858,1 6,1 L95,1 C97.7614,1 100,3.23858 100,6 L100,125 C100,127.761 97.7614,130 95,130 L6,130 C3.23858,130 1,127.761 1,125 L1,6"/>
</g>

<g fill="none" stroke="#000000" stroke-opacity="1" stroke-width="2" stroke-linecap="square" stroke-linejoin="bevel" transform="matrix(1,0,0,1,0,0)"
font-family="Noto Sans CJK JP" font-size="90" font-weight="400" font-style="normal" 
>
<path vector-effect="none" fill-rule="evenodd" d="M55.2188,67.125 L55.2188,49.8438 C61.7031,48.8594 68.625,47.5 73.0313,46.3281 L78.1719,44.9844 L73.3906,38.7656 C68.9844,40.6563 58.375,42.8281 50.1719,44 C40.4531,45.25 26.7813,45.6094 19.9375,45.3438 L21.7344,52 C28.6719,51.9063 38.8438,51.6406 47.9219,50.75 L47.9219,67.125 L20.8438,67.125 C18.1406,67.125 14.9844,66.9375 13.0156,66.7656 L13.0156,74.2344 C15.0781,74.0469 18.1406,73.875 21.0156,73.875 L47.75,73.875 C46.6719,90 39.2031,100.094 25.0625,106.672 L32.0938,111.625 C47.5625,102.609 54.1406,90.7188 55.125,73.875 L80.2344,73.875 C82.4844,73.875 85.1875,74.0469 87.1719,74.2344 L87.1719,66.7656 C85.2813,66.9375 82.0313,67.125 80.0625,67.125 L55.2188,67.125"/>
</g>

<g fill="#000000" fill-opacity="1" stroke="none" transform="matrix(1,0,0,1,0,0)"
font-family="Noto Sans CJK JP" font-size="90" font-weight="400" font-style="normal" 
>
<path vector-effect="none" fill-rule="evenodd" d="M55.2188,67.125 L55.2188,49.8438 C61.7031,48.8594 68.625,47.5 73.0313,46.3281 L78.1719,44.9844 L73.3906,38.7656 C68.9844,40.6563 58.375,42.8281 50.1719,44 C40.4531,45.25 26.7813,45.6094 19.9375,45.3438 L21.7344,52 C28.6719,51.9063 38.8438,51.6406 47.9219,50.75 L47.9219,67.125 L20.8438,67.125 C18.1406,67.125 14.9844,66.9375 13.0156,66.7656 L13.0156,74.2344 C15.0781,74.0469 18.1406,73.875 21.0156,73.875 L47.75,73.875 C46.6719,90 39.2031,100.094 25.0625,106.672 L32.0938,111.625 C47.5625,102.609 54.1406,90.7188 55.125,73.875 L80.2344,73.875 C82.4844,73.875 85.1875,74.0469 87.1719,74.2344 L87.1719,66.7656 C85.2813,66.9375 82.0313,67.125 80.0625,67.125 L55.2188,67.125"/>
</g>
</g>
</svg>
