<?xml version="1.0" encoding="UTF-8" standalone="no"?>
<svg width="35.2778mm" height="45.8611mm"
 xmlns="http://www.w3.org/2000/svg" xmlns:xlink="http://www.w3.org/1999/xlink"  version="1.2" baseProfile="tiny">
<title>Qt SVG Document</title>
<desc>Generated with Qt</desc>
<defs>
</defs>
<g fill="none" stroke="black" stroke-width="1" fill-rule="evenodd" stroke-linecap="square" stroke-linejoin="bevel" >

<g fill="#c0c0c0" fill-opacity="1" stroke="none" transform="matrix(1,0,0,1,0,0)"
font-family="Noto Sans" font-size="10" font-weight="400" font-style="normal" 
>
<path vector-effect="none" fill-rule="evenodd" d="M1,6 C1,3.23858 3.23858,1 6,1 L95,1 C97.7614,1 100,3.23858 100,6 L100,125 C100,127.761 97.7614,130 95,130 L6,130 C3.23858,130 1,127.761 1,125 L1,6"/>
</g>

<g fill="none" stroke="#000000" stroke-opacity="1" stroke-width="2" stroke-linecap="square" stroke-linejoin="bevel" transform="matrix(1,0,0,1,0,0)"
font-family="Noto Sans" font-size="10" font-weight="400" font-style="normal" 
>
<path vector-effect="none" fill-rule="evenodd" d="M1,6 C1,3.23858 3.23858,1 6,1 L95,1 C97.7614,1 100,3.23858 100,6 L100,125 C100,127.761 97.7614,130 95,130 L6,130 C3.23858,130 1,127.761 1,125 L1,6"/>
</g>

<g fill="none" stroke="#000000" stroke-opacity="1" stroke-width="2" stroke-linecap="square" stroke-linejoin="bevel" transform="matrix(1,0,0,1,0,0)"
font-family="Noto Sans CJK JP" font-size="90" font-weight="400" font-style="normal" 
>
<path vector-effect="none" fill-rule="evenodd" d="M53.0625,71.625 L53.0625,45.25 L80.4219,45.25 L80.4219,71.625 L53.0625,71.625 M20.125,45.25 L46.4844,45.25 L46.4844,71.625 L20.125,71.625 L20.125,45.25 M87.1719,38.7656 L13.4531,38.7656 L13.4531,114.828 L20.125,114.828 L20.125,78.2813 L80.4219,78.2813 L80.4219,105.828 C80.4219,107.531 79.7813,108.078 78.1719,108.078 C76.4531,108.156 70.6094,108.25 64.4844,107.984 C65.4844,109.781 66.6406,112.844 67,114.641 C75.0156,114.641 80.0625,114.547 83.0313,113.469 C86.0938,112.297 87.1719,110.141 87.1719,105.828 L87.1719,38.7656"/>
</g>

<g fill="#000000" fill-opacity="1" stroke="none" transform="matrix(1,0,0,1,0,0)"
font-family="Noto Sans CJK JP" font-size="90" font-weight="400" font-style="normal" 
>
<path vector-effect="none" fill-rule="evenodd" d="M53.0625,71.625 L53.0625,45.25 L80.4219,45.25 L80.4219,71.625 L53.0625,71.625 M20.125,45.25 L46.4844,45.25 L46.4844,71.625 L20.125,71.625 L20.125,45.25 M87.1719,38.7656 L13.4531,38.7656 L13.4531,114.828 L20.125,114.828 L20.125,78.2813 L80.4219,78.2813 L80.4219,105.828 C80.4219,107.531 79.7813,108.078 78.1719,108.078 C76.4531,108.156 70.6094,108.25 64.4844,107.984 C65.4844,109.781 66.6406,112.844 67,114.641 C75.0156,114.641 80.0625,114.547 83.0313,113.469 C86.0938,112.297 87.1719,110.141 87.1719,105.828 L87.1719,38.7656"/>
</g>
</g>
</svg>
