<?xml version="1.0" encoding="UTF-8" standalone="no"?>
<svg width="35.2778mm" height="45.8611mm"
 xmlns="http://www.w3.org/2000/svg" xmlns:xlink="http://www.w3.org/1999/xlink"  version="1.2" baseProfile="tiny">
<title>Qt SVG Document</title>
<desc>Generated with Qt</desc>
<defs>
</defs>
<g fill="none" stroke="black" stroke-width="1" fill-rule="evenodd" stroke-linecap="square" stroke-linejoin="bevel" >

<g fill="#c0c0c0" fill-opacity="1" stroke="none" transform="matrix(1,0,0,1,0,0)"
font-family="Noto Sans" font-size="10" font-weight="400" font-style="normal" 
>
<path vector-effect="none" fill-rule="evenodd" d="M1,6 C1,3.23858 3.23858,1 6,1 L95,1 C97.7614,1 100,3.23858 100,6 L100,125 C100,127.761 97.7614,130 95,130 L6,130 C3.23858,130 1,127.761 1,125 L1,6"/>
</g>

<g fill="none" stroke="#000000" stroke-opacity="1" stroke-width="2" stroke-linecap="square" stroke-linejoin="bevel" transform="matrix(1,0,0,1,0,0)"
font-family="Noto Sans" font-size="10" font-weight="400" font-style="normal" 
>
<path vector-effect="none" fill-rule="evenodd" d="M1,6 C1,3.23858 3.23858,1 6,1 L95,1 C97.7614,1 100,3.23858 100,6 L100,125 C100,127.761 97.7614,130 95,130 L6,130 C3.23858,130 1,127.761 1,125 L1,6"/>
</g>

<g fill="none" stroke="#000000" stroke-opacity="1" stroke-width="2" stroke-linecap="square" stroke-linejoin="bevel" transform="matrix(1,0,0,1,0,0)"
font-family="Noto Sans CJK JP" font-size="90" font-weight="400" font-style="normal" 
>
<path vector-effect="none" fill-rule="evenodd" d="M47.0313,100.063 C47.0313,104.297 44.5156,106.984 39.6563,106.984 C32.8125,106.984 28.8438,104.375 28.8438,100.953 C28.8438,96.7344 33.625,94.6563 40.7344,94.6563 C42.7969,94.6563 44.875,94.8438 46.9375,95.2031 C47.0313,97.0938 47.0313,98.7188 47.0313,100.063 M52.7813,71.7969 C58.8125,71.7188 68.8125,71.2656 75.0156,70.625 L74.9219,64.3281 C68.5313,65.0469 58.7344,65.5 52.7813,65.6875 L52.7813,59.375 C52.7813,57.0313 53.0625,53.4375 53.3281,52.0781 L45.5,52.0781 C45.8594,53.3438 46.125,56.8594 46.125,59.4688 L46.125,73.6875 C46.125,78.0156 46.3906,83.8594 46.6719,89.2656 C44.9531,88.9844 43.25,88.9063 41.4531,88.9063 C29.2031,88.9063 22.4531,93.7656 22.4531,101.234 C22.4531,109.063 29.8438,113.203 40.375,113.203 C50.1719,113.203 53.875,107.984 53.875,102.219 C53.875,100.875 53.7813,99.1563 53.7813,97.1875 C61.1563,99.9688 67.6406,104.828 72.2344,109.516 L76,103.297 C70.875,98.625 63.0469,93.2188 53.4219,90.6094 C53.1406,84.7656 52.7813,78.375 52.7813,74.1406 L52.7813,71.7969"/>
</g>

<g fill="#000000" fill-opacity="1" stroke="none" transform="matrix(1,0,0,1,0,0)"
font-family="Noto Sans CJK JP" font-size="90" font-weight="400" font-style="normal" 
>
<path vector-effect="none" fill-rule="evenodd" d="M47.0313,100.063 C47.0313,104.297 44.5156,106.984 39.6563,106.984 C32.8125,106.984 28.8438,104.375 28.8438,100.953 C28.8438,96.7344 33.625,94.6563 40.7344,94.6563 C42.7969,94.6563 44.875,94.8438 46.9375,95.2031 C47.0313,97.0938 47.0313,98.7188 47.0313,100.063 M52.7813,71.7969 C58.8125,71.7188 68.8125,71.2656 75.0156,70.625 L74.9219,64.3281 C68.5313,65.0469 58.7344,65.5 52.7813,65.6875 L52.7813,59.375 C52.7813,57.0313 53.0625,53.4375 53.3281,52.0781 L45.5,52.0781 C45.8594,53.3438 46.125,56.8594 46.125,59.4688 L46.125,73.6875 C46.125,78.0156 46.3906,83.8594 46.6719,89.2656 C44.9531,88.9844 43.25,88.9063 41.4531,88.9063 C29.2031,88.9063 22.4531,93.7656 22.4531,101.234 C22.4531,109.063 29.8438,113.203 40.375,113.203 C50.1719,113.203 53.875,107.984 53.875,102.219 C53.875,100.875 53.7813,99.1563 53.7813,97.1875 C61.1563,99.9688 67.6406,104.828 72.2344,109.516 L76,103.297 C70.875,98.625 63.0469,93.2188 53.4219,90.6094 C53.1406,84.7656 52.7813,78.375 52.7813,74.1406 L52.7813,71.7969"/>
</g>
</g>
</svg>
