<?xml version="1.0" encoding="UTF-8" standalone="no"?>
<svg width="35.2778mm" height="45.8611mm"
 xmlns="http://www.w3.org/2000/svg" xmlns:xlink="http://www.w3.org/1999/xlink"  version="1.2" baseProfile="tiny">
<title>Qt SVG Document</title>
<desc>Generated with Qt</desc>
<defs>
</defs>
<g fill="none" stroke="black" stroke-width="1" fill-rule="evenodd" stroke-linecap="square" stroke-linejoin="bevel" >

<g fill="#c0c0c0" fill-opacity="1" stroke="none" transform="matrix(1,0,0,1,0,0)"
font-family="Noto Sans" font-size="10" font-weight="400" font-style="normal" 
>
<path vector-effect="none" fill-rule="evenodd" d="M1,6 C1,3.23858 3.23858,1 6,1 L95,1 C97.7614,1 100,3.23858 100,6 L100,125 C100,127.761 97.7614,130 95,130 L6,130 C3.23858,130 1,127.761 1,125 L1,6"/>
</g>

<g fill="none" stroke="#000000" stroke-opacity="1" stroke-width="2" stroke-linecap="square" stroke-linejoin="bevel" transform="matrix(1,0,0,1,0,0)"
font-family="Noto Sans" font-size="10" font-weight="400" font-style="normal" 
>
<path vector-effect="none" fill-rule="evenodd" d="M1,6 C1,3.23858 3.23858,1 6,1 L95,1 C97.7614,1 100,3.23858 100,6 L100,125 C100,127.761 97.7614,130 95,130 L6,130 C3.23858,130 1,127.761 1,125 L1,6"/>
</g>

<g fill="none" stroke="#000000" stroke-opacity="1" stroke-width="2" stroke-linecap="square" stroke-linejoin="bevel" transform="matrix(1,0,0,1,0,0)"
font-family="Noto Sans CJK JP" font-size="90" font-weight="400" font-style="normal" 
>
<path vector-effect="none" fill-rule="evenodd" d="M45.7656,77.2969 C49.0938,76.125 53.2344,75.125 57.8281,75.125 L58.7344,75.125 C55.7656,82.875 51.5313,88.625 46.9375,93.2188 C46.2188,88.9844 45.7656,84.4063 45.7656,79.3594 L45.7656,77.2969 M39.7344,80.0781 C39.7344,86.0156 40.4531,92.2344 41.5313,97.625 C37.9375,99.9688 34.5156,101.328 31.8125,101.328 C29.2031,101.328 27.5,99.9688 27.5,97.0938 C27.5,90.7031 33.0781,83.9531 39.7344,80.0781 M61.6094,65.1406 C61.4219,66.2188 60.8906,68.8281 60.5313,69.8281 L60.5313,69.9063 C59.7188,69.8281 58.8125,69.8281 58.0156,69.8281 C54.4063,69.8281 50.0938,70.4531 46.0313,71.625 C46.2188,68.75 46.4844,65.8594 46.7656,63.1563 C55.8438,62.7188 65.8438,61.625 73.3125,60.375 L73.2188,54.3438 C65.2031,56.0469 56.3906,57.0469 47.4844,57.5 C47.8438,55.3281 48.1094,53.5313 48.375,52 C48.6406,50.7344 48.9219,49.4688 49.1875,48.4844 L42.0781,48.3906 C42.1719,49.2969 42.0781,50.7344 41.9063,52 C41.7188,53.625 41.5313,55.5156 41.2656,57.6719 C39.7344,57.7656 38.125,57.7656 36.5938,57.7656 C33.7969,57.7656 26.7813,57.2188 24.2656,56.7656 L24.4375,62.8906 C27.4063,63.1563 33.4375,63.5156 36.5938,63.5156 C37.9375,63.5156 39.2813,63.5156 40.7344,63.4375 C40.375,66.6719 40.0938,70.1875 39.9219,73.875 C30.1094,78.375 21.5625,87.7344 21.5625,97.9844 C21.5625,104.563 25.5156,107.344 30.8281,107.344 C34.3438,107.344 38.8438,105.828 42.8906,103.484 C43.25,104.828 43.7031,106.094 44.0625,107.266 L50.0938,105.547 C49.4531,103.75 48.9219,101.766 48.375,99.7031 C54.7656,94.125 60.3438,86.2969 64.4844,76.0313 C71.1406,77.8281 74.75,82.6875 74.75,88.3594 C74.75,97.7188 66.2813,104.563 53.1406,105.906 L56.6563,111.5 C74.4844,108.609 81.1406,98.7969 81.1406,88.9063 C81.1406,80.4375 75.9219,73.4219 66.375,70.8125 C66.7344,69.6406 67.4531,67.4844 67.8125,66.6719 L61.6094,65.1406"/>
</g>

<g fill="#000000" fill-opacity="1" stroke="none" transform="matrix(1,0,0,1,0,0)"
font-family="Noto Sans CJK JP" font-size="90" font-weight="400" font-style="normal" 
>
<path vector-effect="none" fill-rule="evenodd" d="M45.7656,77.2969 C49.0938,76.125 53.2344,75.125 57.8281,75.125 L58.7344,75.125 C55.7656,82.875 51.5313,88.625 46.9375,93.2188 C46.2188,88.9844 45.7656,84.4063 45.7656,79.3594 L45.7656,77.2969 M39.7344,80.0781 C39.7344,86.0156 40.4531,92.2344 41.5313,97.625 C37.9375,99.9688 34.5156,101.328 31.8125,101.328 C29.2031,101.328 27.5,99.9688 27.5,97.0938 C27.5,90.7031 33.0781,83.9531 39.7344,80.0781 M61.6094,65.1406 C61.4219,66.2188 60.8906,68.8281 60.5313,69.8281 L60.5313,69.9063 C59.7188,69.8281 58.8125,69.8281 58.0156,69.8281 C54.4063,69.8281 50.0938,70.4531 46.0313,71.625 C46.2188,68.75 46.4844,65.8594 46.7656,63.1563 C55.8438,62.7188 65.8438,61.625 73.3125,60.375 L73.2188,54.3438 C65.2031,56.0469 56.3906,57.0469 47.4844,57.5 C47.8438,55.3281 48.1094,53.5313 48.375,52 C48.6406,50.7344 48.9219,49.4688 49.1875,48.4844 L42.0781,48.3906 C42.1719,49.2969 42.0781,50.7344 41.9063,52 C41.7188,53.625 41.5313,55.5156 41.2656,57.6719 C39.7344,57.7656 38.125,57.7656 36.5938,57.7656 C33.7969,57.7656 26.7813,57.2188 24.2656,56.7656 L24.4375,62.8906 C27.4063,63.1563 33.4375,63.5156 36.5938,63.5156 C37.9375,63.5156 39.2813,63.5156 40.7344,63.4375 C40.375,66.6719 40.0938,70.1875 39.9219,73.875 C30.1094,78.375 21.5625,87.7344 21.5625,97.9844 C21.5625,104.563 25.5156,107.344 30.8281,107.344 C34.3438,107.344 38.8438,105.828 42.8906,103.484 C43.25,104.828 43.7031,106.094 44.0625,107.266 L50.0938,105.547 C49.4531,103.75 48.9219,101.766 48.375,99.7031 C54.7656,94.125 60.3438,86.2969 64.4844,76.0313 C71.1406,77.8281 74.75,82.6875 74.75,88.3594 C74.75,97.7188 66.2813,104.563 53.1406,105.906 L56.6563,111.5 C74.4844,108.609 81.1406,98.7969 81.1406,88.9063 C81.1406,80.4375 75.9219,73.4219 66.375,70.8125 C66.7344,69.6406 67.4531,67.4844 67.8125,66.6719 L61.6094,65.1406"/>
</g>
</g>
</svg>
