<?xml version="1.0" encoding="UTF-8" standalone="no"?>
<svg width="35.2778mm" height="45.8611mm"
 xmlns="http://www.w3.org/2000/svg" xmlns:xlink="http://www.w3.org/1999/xlink"  version="1.2" baseProfile="tiny">
<title>Qt SVG Document</title>
<desc>Generated with Qt</desc>
<defs>
</defs>
<g fill="none" stroke="black" stroke-width="1" fill-rule="evenodd" stroke-linecap="square" stroke-linejoin="bevel" >

<g fill="#c0c0c0" fill-opacity="1" stroke="none" transform="matrix(1,0,0,1,0,0)"
font-family="Noto Sans" font-size="10" font-weight="400" font-style="normal" 
>
<path vector-effect="none" fill-rule="evenodd" d="M1,6 C1,3.23858 3.23858,1 6,1 L95,1 C97.7614,1 100,3.23858 100,6 L100,125 C100,127.761 97.7614,130 95,130 L6,130 C3.23858,130 1,127.761 1,125 L1,6"/>
</g>

<g fill="none" stroke="#000000" stroke-opacity="1" stroke-width="2" stroke-linecap="square" stroke-linejoin="bevel" transform="matrix(1,0,0,1,0,0)"
font-family="Noto Sans" font-size="10" font-weight="400" font-style="normal" 
>
<path vector-effect="none" fill-rule="evenodd" d="M1,6 C1,3.23858 3.23858,1 6,1 L95,1 C97.7614,1 100,3.23858 100,6 L100,125 C100,127.761 97.7614,130 95,130 L6,130 C3.23858,130 1,127.761 1,125 L1,6"/>
</g>

<g fill="none" stroke="#000000" stroke-opacity="1" stroke-width="2" stroke-linecap="square" stroke-linejoin="bevel" transform="matrix(1,0,0,1,0,0)"
font-family="Noto Sans CJK JP" font-size="90" font-weight="400" font-style="normal" 
>
<path vector-effect="none" fill-rule="evenodd" d="M34.3438,83.1406 L51.1719,60.2813 C53.5156,56.9531 55.6719,53.1719 58.2813,49.0313 L58.6406,49.0313 C58.375,53.4375 58.2813,57.5 58.2813,61.0938 L58.2813,83.1406 L34.3438,83.1406 M76.1875,83.1406 L66.0156,83.1406 L66.0156,41.75 L55.8438,41.75 L24.9844,84.2188 L24.9844,89.7188 L58.2813,89.7188 L58.2813,107.891 L66.0156,107.891 L66.0156,89.7188 L76.1875,89.7188 L76.1875,83.1406"/>
</g>

<g fill="#000000" fill-opacity="1" stroke="none" transform="matrix(1,0,0,1,0,0)"
font-family="Noto Sans CJK JP" font-size="90" font-weight="400" font-style="normal" 
>
<path vector-effect="none" fill-rule="evenodd" d="M34.3438,83.1406 L51.1719,60.2813 C53.5156,56.9531 55.6719,53.1719 58.2813,49.0313 L58.6406,49.0313 C58.375,53.4375 58.2813,57.5 58.2813,61.0938 L58.2813,83.1406 L34.3438,83.1406 M76.1875,83.1406 L66.0156,83.1406 L66.0156,41.75 L55.8438,41.75 L24.9844,84.2188 L24.9844,89.7188 L58.2813,89.7188 L58.2813,107.891 L66.0156,107.891 L66.0156,89.7188 L76.1875,89.7188 L76.1875,83.1406"/>
</g>
</g>
</svg>
