<?xml version="1.0" encoding="UTF-8" standalone="no"?>
<svg width="35.2778mm" height="45.8611mm"
 xmlns="http://www.w3.org/2000/svg" xmlns:xlink="http://www.w3.org/1999/xlink"  version="1.2" baseProfile="tiny">
<title>Qt SVG Document</title>
<desc>Generated with Qt</desc>
<defs>
</defs>
<g fill="none" stroke="black" stroke-width="1" fill-rule="evenodd" stroke-linecap="square" stroke-linejoin="bevel" >

<g fill="#c0c0c0" fill-opacity="1" stroke="none" transform="matrix(1,0,0,1,0,0)"
font-family="Noto Sans" font-size="10" font-weight="400" font-style="normal" 
>
<path vector-effect="none" fill-rule="evenodd" d="M1,6 C1,3.23858 3.23858,1 6,1 L95,1 C97.7614,1 100,3.23858 100,6 L100,125 C100,127.761 97.7614,130 95,130 L6,130 C3.23858,130 1,127.761 1,125 L1,6"/>
</g>

<g fill="none" stroke="#000000" stroke-opacity="1" stroke-width="2" stroke-linecap="square" stroke-linejoin="bevel" transform="matrix(1,0,0,1,0,0)"
font-family="Noto Sans" font-size="10" font-weight="400" font-style="normal" 
>
<path vector-effect="none" fill-rule="evenodd" d="M1,6 C1,3.23858 3.23858,1 6,1 L95,1 C97.7614,1 100,3.23858 100,6 L100,125 C100,127.761 97.7614,130 95,130 L6,130 C3.23858,130 1,127.761 1,125 L1,6"/>
</g>

<g fill="none" stroke="#000000" stroke-opacity="1" stroke-width="2" stroke-linecap="square" stroke-linejoin="bevel" transform="matrix(1,0,0,1,0,0)"
font-family="Noto Sans CJK JP" font-size="90" font-weight="400" font-style="normal" 
>
<path vector-effect="none" fill-rule="evenodd" d="M13.2813,102.5 C16.3438,102.313 19.4844,102.047 22.7344,102.047 L76.6406,102.047 C79.0625,102.047 82.125,102.219 84.8281,102.5 L84.8281,93.8438 C82.2188,94.2188 79.3438,94.2969 76.6406,94.2969 L22.7344,94.2969 C19.4844,94.2969 16.3438,94.125 13.2813,93.8438 L13.2813,102.5 M21.0156,57.4063 C23.8125,57.2188 26.7813,57.125 29.9219,57.125 L68.4531,57.125 C71.4219,57.125 74.8438,57.2188 77.3594,57.4063 L77.3594,49.2969 C74.8438,49.5781 71.6875,49.75 68.4531,49.75 L29.8438,49.75 C26.9531,49.75 23.9063,49.5781 21.0156,49.2969 L21.0156,57.4063"/>
</g>

<g fill="#000000" fill-opacity="1" stroke="none" transform="matrix(1,0,0,1,0,0)"
font-family="Noto Sans CJK JP" font-size="90" font-weight="400" font-style="normal" 
>
<path vector-effect="none" fill-rule="evenodd" d="M13.2813,102.5 C16.3438,102.313 19.4844,102.047 22.7344,102.047 L76.6406,102.047 C79.0625,102.047 82.125,102.219 84.8281,102.5 L84.8281,93.8438 C82.2188,94.2188 79.3438,94.2969 76.6406,94.2969 L22.7344,94.2969 C19.4844,94.2969 16.3438,94.125 13.2813,93.8438 L13.2813,102.5 M21.0156,57.4063 C23.8125,57.2188 26.7813,57.125 29.9219,57.125 L68.4531,57.125 C71.4219,57.125 74.8438,57.2188 77.3594,57.4063 L77.3594,49.2969 C74.8438,49.5781 71.6875,49.75 68.4531,49.75 L29.8438,49.75 C26.9531,49.75 23.9063,49.5781 21.0156,49.2969 L21.0156,57.4063"/>
</g>
</g>
</svg>
