<?xml version="1.0" encoding="UTF-8" standalone="no"?>
<svg width="35.2778mm" height="45.8611mm"
 xmlns="http://www.w3.org/2000/svg" xmlns:xlink="http://www.w3.org/1999/xlink"  version="1.2" baseProfile="tiny">
<title>Qt SVG Document</title>
<desc>Generated with Qt</desc>
<defs>
</defs>
<g fill="none" stroke="black" stroke-width="1" fill-rule="evenodd" stroke-linecap="square" stroke-linejoin="bevel" >

<g fill="#c0c0c0" fill-opacity="1" stroke="none" transform="matrix(1,0,0,1,0,0)"
font-family="Noto Sans" font-size="10" font-weight="400" font-style="normal" 
>
<path vector-effect="none" fill-rule="evenodd" d="M1,6 C1,3.23858 3.23858,1 6,1 L95,1 C97.7614,1 100,3.23858 100,6 L100,125 C100,127.761 97.7614,130 95,130 L6,130 C3.23858,130 1,127.761 1,125 L1,6"/>
</g>

<g fill="none" stroke="#000000" stroke-opacity="1" stroke-width="2" stroke-linecap="square" stroke-linejoin="bevel" transform="matrix(1,0,0,1,0,0)"
font-family="Noto Sans" font-size="10" font-weight="400" font-style="normal" 
>
<path vector-effect="none" fill-rule="evenodd" d="M1,6 C1,3.23858 3.23858,1 6,1 L95,1 C97.7614,1 100,3.23858 100,6 L100,125 C100,127.761 97.7614,130 95,130 L6,130 C3.23858,130 1,127.761 1,125 L1,6"/>
</g>

<g fill="none" stroke="#000000" stroke-opacity="1" stroke-width="2" stroke-linecap="square" stroke-linejoin="bevel" transform="matrix(1,0,0,1,0,0)"
font-family="Noto Sans CJK JP" font-size="90" font-weight="400" font-style="normal" 
>
<path vector-effect="none" fill-rule="evenodd" d="M79.3438,76.75 C81.3125,76.75 84.5625,76.75 86.625,77.0156 L86.625,69.6406 C84.5625,69.8281 81.0469,70 79.1563,70 L48.8281,70 L48.8281,50.9219 L72.2344,50.9219 C75.375,50.9219 77.4531,51.1094 79.6094,51.1875 L79.6094,44 C77.625,44.1719 75.1094,44.3594 72.2344,44.3594 L29.3906,44.3594 C26.3281,44.3594 23.7188,44.1719 21.2969,44 L21.2969,51.1875 C23.7188,51.0156 26.3281,50.9219 29.3906,50.9219 L41.3594,50.9219 L41.3594,70 L23.9063,70 C21.4688,70 17.7813,69.7344 15.3438,69.5469 L15.3438,77.1094 C17.875,76.9375 21.5625,76.75 23.9063,76.75 L41.3594,76.75 L41.3594,97.0938 C41.3594,104.469 45.5938,109.234 59.1719,109.234 C67.8125,109.234 76.4531,108.875 83.4844,108.344 L83.9219,100.781 C76.1875,101.688 68.8125,102.047 60.25,102.047 C51.9844,102.047 48.8281,99.3438 48.8281,94.8438 L48.8281,76.75 L79.3438,76.75"/>
</g>

<g fill="#000000" fill-opacity="1" stroke="none" transform="matrix(1,0,0,1,0,0)"
font-family="Noto Sans CJK JP" font-size="90" font-weight="400" font-style="normal" 
>
<path vector-effect="none" fill-rule="evenodd" d="M79.3438,76.75 C81.3125,76.75 84.5625,76.75 86.625,77.0156 L86.625,69.6406 C84.5625,69.8281 81.0469,70 79.1563,70 L48.8281,70 L48.8281,50.9219 L72.2344,50.9219 C75.375,50.9219 77.4531,51.1094 79.6094,51.1875 L79.6094,44 C77.625,44.1719 75.1094,44.3594 72.2344,44.3594 L29.3906,44.3594 C26.3281,44.3594 23.7188,44.1719 21.2969,44 L21.2969,51.1875 C23.7188,51.0156 26.3281,50.9219 29.3906,50.9219 L41.3594,50.9219 L41.3594,70 L23.9063,70 C21.4688,70 17.7813,69.7344 15.3438,69.5469 L15.3438,77.1094 C17.875,76.9375 21.5625,76.75 23.9063,76.75 L41.3594,76.75 L41.3594,97.0938 C41.3594,104.469 45.5938,109.234 59.1719,109.234 C67.8125,109.234 76.4531,108.875 83.4844,108.344 L83.9219,100.781 C76.1875,101.688 68.8125,102.047 60.25,102.047 C51.9844,102.047 48.8281,99.3438 48.8281,94.8438 L48.8281,76.75 L79.3438,76.75"/>
</g>
</g>
</svg>
