<?xml version="1.0" encoding="UTF-8" standalone="no"?>
<svg width="35.2778mm" height="45.8611mm"
 xmlns="http://www.w3.org/2000/svg" xmlns:xlink="http://www.w3.org/1999/xlink"  version="1.2" baseProfile="tiny">
<title>Qt SVG Document</title>
<desc>Generated with Qt</desc>
<defs>
</defs>
<g fill="none" stroke="black" stroke-width="1" fill-rule="evenodd" stroke-linecap="square" stroke-linejoin="bevel" >

<g fill="#c0c0c0" fill-opacity="1" stroke="none" transform="matrix(1,0,0,1,0,0)"
font-family="Noto Sans" font-size="10" font-weight="400" font-style="normal" 
>
<path vector-effect="none" fill-rule="evenodd" d="M1,6 C1,3.23858 3.23858,1 6,1 L95,1 C97.7614,1 100,3.23858 100,6 L100,125 C100,127.761 97.7614,130 95,130 L6,130 C3.23858,130 1,127.761 1,125 L1,6"/>
</g>

<g fill="none" stroke="#000000" stroke-opacity="1" stroke-width="2" stroke-linecap="square" stroke-linejoin="bevel" transform="matrix(1,0,0,1,0,0)"
font-family="Noto Sans" font-size="10" font-weight="400" font-style="normal" 
>
<path vector-effect="none" fill-rule="evenodd" d="M1,6 C1,3.23858 3.23858,1 6,1 L95,1 C97.7614,1 100,3.23858 100,6 L100,125 C100,127.761 97.7614,130 95,130 L6,130 C3.23858,130 1,127.761 1,125 L1,6"/>
</g>

<g fill="none" stroke="#000000" stroke-opacity="1" stroke-width="2" stroke-linecap="square" stroke-linejoin="bevel" transform="matrix(1,0,0,1,0,0)"
font-family="Noto Sans CJK JP" font-size="90" font-weight="400" font-style="normal" 
>
<path vector-effect="none" fill-rule="evenodd" d="M10.4063,82.8906 L17.0625,89.8281 C18.4063,87.9375 20.3906,85.2344 22.2813,82.8906 C26.7813,77.4844 34.1563,67.5781 38.2969,62.3594 C41.2656,58.5781 42.8906,58.0313 46.7656,62.0781 C50.8906,66.6719 57.7344,75.2344 63.5,81.8125 C69.625,88.75 77.8125,97.75 84.5625,104.141 L90.2188,97.75 C82.2188,90.5469 73.4844,81.1719 68,75.2344 C62.3281,69.1094 55.2188,60.1875 50.0938,54.7969 C44.1406,48.8438 39.375,49.75 34.25,55.7813 C29.0313,62.0781 21.5625,72.1719 16.7969,77.0313 C14.4531,79.4688 12.5625,81.2656 10.4063,82.8906 "/>
</g>

<g fill="#000000" fill-opacity="1" stroke="none" transform="matrix(1,0,0,1,0,0)"
font-family="Noto Sans CJK JP" font-size="90" font-weight="400" font-style="normal" 
>
<path vector-effect="none" fill-rule="evenodd" d="M10.4063,82.8906 L17.0625,89.8281 C18.4063,87.9375 20.3906,85.2344 22.2813,82.8906 C26.7813,77.4844 34.1563,67.5781 38.2969,62.3594 C41.2656,58.5781 42.8906,58.0313 46.7656,62.0781 C50.8906,66.6719 57.7344,75.2344 63.5,81.8125 C69.625,88.75 77.8125,97.75 84.5625,104.141 L90.2188,97.75 C82.2188,90.5469 73.4844,81.1719 68,75.2344 C62.3281,69.1094 55.2188,60.1875 50.0938,54.7969 C44.1406,48.8438 39.375,49.75 34.25,55.7813 C29.0313,62.0781 21.5625,72.1719 16.7969,77.0313 C14.4531,79.4688 12.5625,81.2656 10.4063,82.8906 "/>
</g>
</g>
</svg>
